<svg xmlns="http://www.w3.org/2000/svg" xmlns:xlink="http://www.w3.org/1999/xlink" width="600" height="400" viewBox="0 0 2400 1600">
<defs>
  <clipPath id="clip280">
    <rect x="0" y="0" width="2400" height="1600"></rect>
  </clipPath>
</defs>
<path clip-path="url(#clip280)" d="M0 1600 L2400 1600 L2400 8.88178e-14 L0 8.88178e-14  Z" fill="#ffffff" fill-rule="evenodd" fill-opacity="1"></path>
<defs>
  <clipPath id="clip281">
    <rect x="480" y="0" width="1681" height="1600"></rect>
  </clipPath>
</defs>
<path clip-path="url(#clip280)" d="M212.459 1423.18 L2352.76 1423.18 L2352.76 123.472 L212.459 123.472  Z" fill="#ffffff" fill-rule="evenodd" fill-opacity="1"></path>
<defs>
  <clipPath id="clip282">
    <rect x="212" y="123" width="2141" height="1301"></rect>
  </clipPath>
</defs>
<polyline clip-path="url(#clip282)" style="stroke:#000000; stroke-linecap:round; stroke-linejoin:round; stroke-width:2; stroke-opacity:0.1; fill:none" points="525.427,1423.18 525.427,123.472 "></polyline>
<polyline clip-path="url(#clip282)" style="stroke:#000000; stroke-linecap:round; stroke-linejoin:round; stroke-width:2; stroke-opacity:0.1; fill:none" points="904.017,1423.18 904.017,123.472 "></polyline>
<polyline clip-path="url(#clip282)" style="stroke:#000000; stroke-linecap:round; stroke-linejoin:round; stroke-width:2; stroke-opacity:0.1; fill:none" points="1282.61,1423.18 1282.61,123.472 "></polyline>
<polyline clip-path="url(#clip282)" style="stroke:#000000; stroke-linecap:round; stroke-linejoin:round; stroke-width:2; stroke-opacity:0.1; fill:none" points="1661.2,1423.18 1661.2,123.472 "></polyline>
<polyline clip-path="url(#clip282)" style="stroke:#000000; stroke-linecap:round; stroke-linejoin:round; stroke-width:2; stroke-opacity:0.1; fill:none" points="2039.79,1423.18 2039.79,123.472 "></polyline>
<polyline clip-path="url(#clip282)" style="stroke:#000000; stroke-linecap:round; stroke-linejoin:round; stroke-width:2; stroke-opacity:0.1; fill:none" points="212.459,1350.25 2352.76,1350.25 "></polyline>
<polyline clip-path="url(#clip282)" style="stroke:#000000; stroke-linecap:round; stroke-linejoin:round; stroke-width:2; stroke-opacity:0.1; fill:none" points="212.459,1030.33 2352.76,1030.33 "></polyline>
<polyline clip-path="url(#clip282)" style="stroke:#000000; stroke-linecap:round; stroke-linejoin:round; stroke-width:2; stroke-opacity:0.1; fill:none" points="212.459,710.423 2352.76,710.423 "></polyline>
<polyline clip-path="url(#clip282)" style="stroke:#000000; stroke-linecap:round; stroke-linejoin:round; stroke-width:2; stroke-opacity:0.1; fill:none" points="212.459,390.511 2352.76,390.511 "></polyline>
<polyline clip-path="url(#clip280)" style="stroke:#000000; stroke-linecap:round; stroke-linejoin:round; stroke-width:4; stroke-opacity:1; fill:none" points="212.459,1423.18 2352.76,1423.18 "></polyline>
<polyline clip-path="url(#clip280)" style="stroke:#000000; stroke-linecap:round; stroke-linejoin:round; stroke-width:4; stroke-opacity:1; fill:none" points="525.427,1423.18 525.427,1404.28 "></polyline>
<polyline clip-path="url(#clip280)" style="stroke:#000000; stroke-linecap:round; stroke-linejoin:round; stroke-width:4; stroke-opacity:1; fill:none" points="904.017,1423.18 904.017,1404.28 "></polyline>
<polyline clip-path="url(#clip280)" style="stroke:#000000; stroke-linecap:round; stroke-linejoin:round; stroke-width:4; stroke-opacity:1; fill:none" points="1282.61,1423.18 1282.61,1404.28 "></polyline>
<polyline clip-path="url(#clip280)" style="stroke:#000000; stroke-linecap:round; stroke-linejoin:round; stroke-width:4; stroke-opacity:1; fill:none" points="1661.2,1423.18 1661.2,1404.28 "></polyline>
<polyline clip-path="url(#clip280)" style="stroke:#000000; stroke-linecap:round; stroke-linejoin:round; stroke-width:4; stroke-opacity:1; fill:none" points="2039.79,1423.18 2039.79,1404.28 "></polyline>
<path clip-path="url(#clip280)" d="M494.49 1468.75 L524.165 1468.75 L524.165 1472.69 L494.49 1472.69 L494.49 1468.75 Z" fill="#000000" fill-rule="nonzero" fill-opacity="1"></path><path clip-path="url(#clip280)" d="M544.836 1466.44 Q541.688 1466.44 539.837 1468.59 Q538.008 1470.74 538.008 1474.49 Q538.008 1478.22 539.837 1480.39 Q541.688 1482.55 544.836 1482.55 Q547.985 1482.55 549.813 1480.39 Q551.665 1478.22 551.665 1474.49 Q551.665 1470.74 549.813 1468.59 Q547.985 1466.44 544.836 1466.44 M554.119 1451.78 L554.119 1456.04 Q552.36 1455.21 550.554 1454.77 Q548.772 1454.33 547.012 1454.33 Q542.383 1454.33 539.929 1457.45 Q537.499 1460.58 537.151 1466.9 Q538.517 1464.89 540.577 1463.82 Q542.637 1462.73 545.114 1462.73 Q550.323 1462.73 553.332 1465.9 Q556.364 1469.05 556.364 1474.49 Q556.364 1479.82 553.216 1483.03 Q550.068 1486.25 544.836 1486.25 Q538.841 1486.25 535.67 1481.67 Q532.499 1477.06 532.499 1468.33 Q532.499 1460.14 536.387 1455.28 Q540.276 1450.39 546.827 1450.39 Q548.586 1450.39 550.369 1450.74 Q552.174 1451.09 554.119 1451.78 Z" fill="#000000" fill-rule="nonzero" fill-opacity="1"></path><path clip-path="url(#clip280)" d="M873.485 1468.75 L903.161 1468.75 L903.161 1472.69 L873.485 1472.69 L873.485 1468.75 Z" fill="#000000" fill-rule="nonzero" fill-opacity="1"></path><path clip-path="url(#clip280)" d="M927.42 1466.95 Q930.776 1467.66 932.651 1469.93 Q934.549 1472.2 934.549 1475.53 Q934.549 1480.65 931.031 1483.45 Q927.512 1486.25 921.031 1486.25 Q918.855 1486.25 916.54 1485.81 Q914.249 1485.39 911.795 1484.54 L911.795 1480.02 Q913.739 1481.16 916.054 1481.74 Q918.369 1482.32 920.892 1482.32 Q925.29 1482.32 927.582 1480.58 Q929.897 1478.84 929.897 1475.53 Q929.897 1472.48 927.744 1470.77 Q925.614 1469.03 921.795 1469.03 L917.767 1469.03 L917.767 1465.19 L921.98 1465.19 Q925.429 1465.19 927.258 1463.82 Q929.086 1462.43 929.086 1459.84 Q929.086 1457.18 927.188 1455.77 Q925.313 1454.33 921.795 1454.33 Q919.874 1454.33 917.674 1454.75 Q915.475 1455.16 912.837 1456.04 L912.837 1451.88 Q915.499 1451.14 917.813 1450.77 Q920.151 1450.39 922.211 1450.39 Q927.536 1450.39 930.637 1452.83 Q933.739 1455.23 933.739 1459.35 Q933.739 1462.22 932.096 1464.21 Q930.452 1466.18 927.42 1466.95 Z" fill="#000000" fill-rule="nonzero" fill-opacity="1"></path><path clip-path="url(#clip280)" d="M1282.61 1454.1 Q1279 1454.1 1277.17 1457.66 Q1275.36 1461.2 1275.36 1468.33 Q1275.36 1475.44 1277.17 1479.01 Q1279 1482.55 1282.61 1482.55 Q1286.24 1482.55 1288.05 1479.01 Q1289.88 1475.44 1289.88 1468.33 Q1289.88 1461.2 1288.05 1457.66 Q1286.24 1454.1 1282.61 1454.1 M1282.61 1450.39 Q1288.42 1450.39 1291.47 1455 Q1294.55 1459.58 1294.55 1468.33 Q1294.55 1477.06 1291.47 1481.67 Q1288.42 1486.25 1282.61 1486.25 Q1276.8 1486.25 1273.72 1481.67 Q1270.66 1477.06 1270.66 1468.33 Q1270.66 1459.58 1273.72 1455 Q1276.8 1450.39 1282.61 1450.39 Z" fill="#000000" fill-rule="nonzero" fill-opacity="1"></path><path clip-path="url(#clip280)" d="M1665.45 1466.95 Q1668.8 1467.66 1670.68 1469.93 Q1672.57 1472.2 1672.57 1475.53 Q1672.57 1480.65 1669.06 1483.45 Q1665.54 1486.25 1659.06 1486.25 Q1656.88 1486.25 1654.57 1485.81 Q1652.27 1485.39 1649.82 1484.54 L1649.82 1480.02 Q1651.76 1481.16 1654.08 1481.74 Q1656.39 1482.32 1658.92 1482.32 Q1663.32 1482.32 1665.61 1480.58 Q1667.92 1478.84 1667.92 1475.53 Q1667.92 1472.48 1665.77 1470.77 Q1663.64 1469.03 1659.82 1469.03 L1655.79 1469.03 L1655.79 1465.19 L1660.01 1465.19 Q1663.45 1465.19 1665.28 1463.82 Q1667.11 1462.43 1667.11 1459.84 Q1667.11 1457.18 1665.21 1455.77 Q1663.34 1454.33 1659.82 1454.33 Q1657.9 1454.33 1655.7 1454.75 Q1653.5 1455.16 1650.86 1456.04 L1650.86 1451.88 Q1653.52 1451.14 1655.84 1450.77 Q1658.18 1450.39 1660.24 1450.39 Q1665.56 1450.39 1668.66 1452.83 Q1671.76 1455.23 1671.76 1459.35 Q1671.76 1462.22 1670.12 1464.21 Q1668.48 1466.18 1665.45 1466.95 Z" fill="#000000" fill-rule="nonzero" fill-opacity="1"></path><path clip-path="url(#clip280)" d="M2040.19 1466.44 Q2037.04 1466.44 2035.19 1468.59 Q2033.36 1470.74 2033.36 1474.49 Q2033.36 1478.22 2035.19 1480.39 Q2037.04 1482.55 2040.19 1482.55 Q2043.34 1482.55 2045.17 1480.39 Q2047.02 1478.22 2047.02 1474.49 Q2047.02 1470.74 2045.17 1468.59 Q2043.34 1466.44 2040.19 1466.44 M2049.48 1451.78 L2049.48 1456.04 Q2047.72 1455.21 2045.91 1454.77 Q2044.13 1454.33 2042.37 1454.33 Q2037.74 1454.33 2035.29 1457.45 Q2032.86 1460.58 2032.51 1466.9 Q2033.87 1464.89 2035.93 1463.82 Q2037.99 1462.73 2040.47 1462.73 Q2045.68 1462.73 2048.69 1465.9 Q2051.72 1469.05 2051.72 1474.49 Q2051.72 1479.82 2048.57 1483.03 Q2045.42 1486.25 2040.19 1486.25 Q2034.2 1486.25 2031.03 1481.67 Q2027.86 1477.06 2027.86 1468.33 Q2027.86 1460.14 2031.74 1455.28 Q2035.63 1450.39 2042.18 1450.39 Q2043.94 1450.39 2045.73 1450.74 Q2047.53 1451.09 2049.48 1451.78 Z" fill="#000000" fill-rule="nonzero" fill-opacity="1"></path><path clip-path="url(#clip280)" d="M1258.69 1532.4 L1264.54 1532.4 L1271.87 1560.21 L1279.15 1532.4 L1286.06 1532.4 L1293.38 1560.21 L1300.67 1532.4 L1306.53 1532.4 L1297.2 1568.04 L1290.29 1568.04 L1282.62 1538.83 L1274.92 1568.04 L1268.01 1568.04 L1258.69 1532.4 Z" fill="#000000" fill-rule="nonzero" fill-opacity="1"></path><polyline clip-path="url(#clip280)" style="stroke:#000000; stroke-linecap:round; stroke-linejoin:round; stroke-width:4; stroke-opacity:1; fill:none" points="212.459,1423.18 212.459,123.472 "></polyline>
<polyline clip-path="url(#clip280)" style="stroke:#000000; stroke-linecap:round; stroke-linejoin:round; stroke-width:4; stroke-opacity:1; fill:none" points="212.459,1350.25 231.357,1350.25 "></polyline>
<polyline clip-path="url(#clip280)" style="stroke:#000000; stroke-linecap:round; stroke-linejoin:round; stroke-width:4; stroke-opacity:1; fill:none" points="212.459,1030.33 231.357,1030.33 "></polyline>
<polyline clip-path="url(#clip280)" style="stroke:#000000; stroke-linecap:round; stroke-linejoin:round; stroke-width:4; stroke-opacity:1; fill:none" points="212.459,710.423 231.357,710.423 "></polyline>
<polyline clip-path="url(#clip280)" style="stroke:#000000; stroke-linecap:round; stroke-linejoin:round; stroke-width:4; stroke-opacity:1; fill:none" points="212.459,390.511 231.357,390.511 "></polyline>
<path clip-path="url(#clip280)" d="M114.26 1350.7 L143.936 1350.7 L143.936 1354.63 L114.26 1354.63 L114.26 1350.7 Z" fill="#000000" fill-rule="nonzero" fill-opacity="1"></path><path clip-path="url(#clip280)" d="M166.876 1337.04 L155.07 1355.49 L166.876 1355.49 L166.876 1337.04 M165.649 1332.97 L171.528 1332.97 L171.528 1355.49 L176.459 1355.49 L176.459 1359.38 L171.528 1359.38 L171.528 1367.53 L166.876 1367.53 L166.876 1359.38 L151.274 1359.38 L151.274 1354.86 L165.649 1332.97 Z" fill="#000000" fill-rule="nonzero" fill-opacity="1"></path><path clip-path="url(#clip280)" d="M116.343 1030.79 L146.019 1030.79 L146.019 1034.72 L116.343 1034.72 L116.343 1030.79 Z" fill="#000000" fill-rule="nonzero" fill-opacity="1"></path><path clip-path="url(#clip280)" d="M160.14 1043.68 L176.459 1043.68 L176.459 1047.61 L154.515 1047.61 L154.515 1043.68 Q157.177 1040.93 161.76 1036.3 Q166.366 1031.64 167.547 1030.3 Q169.792 1027.78 170.672 1026.04 Q171.575 1024.28 171.575 1022.59 Q171.575 1019.84 169.63 1018.1 Q167.709 1016.36 164.607 1016.36 Q162.408 1016.36 159.954 1017.13 Q157.524 1017.89 154.746 1019.44 L154.746 1014.72 Q157.57 1013.59 160.024 1013.01 Q162.477 1012.43 164.515 1012.43 Q169.885 1012.43 173.079 1015.11 Q176.274 1017.8 176.274 1022.29 Q176.274 1024.42 175.464 1026.34 Q174.677 1028.24 172.57 1030.83 Q171.991 1031.5 168.889 1034.72 Q165.788 1037.92 160.14 1043.68 Z" fill="#000000" fill-rule="nonzero" fill-opacity="1"></path><path clip-path="url(#clip280)" d="M164.515 696.222 Q160.903 696.222 159.075 699.787 Q157.269 703.328 157.269 710.458 Q157.269 717.564 159.075 721.129 Q160.903 724.671 164.515 724.671 Q168.149 724.671 169.954 721.129 Q171.783 717.564 171.783 710.458 Q171.783 703.328 169.954 699.787 Q168.149 696.222 164.515 696.222 M164.515 692.518 Q170.325 692.518 173.38 697.125 Q176.459 701.708 176.459 710.458 Q176.459 719.185 173.38 723.791 Q170.325 728.374 164.515 728.374 Q158.704 728.374 155.626 723.791 Q152.57 719.185 152.57 710.458 Q152.57 701.708 155.626 697.125 Q158.704 692.518 164.515 692.518 Z" fill="#000000" fill-rule="nonzero" fill-opacity="1"></path><path clip-path="url(#clip280)" d="M160.14 403.856 L176.459 403.856 L176.459 407.791 L154.515 407.791 L154.515 403.856 Q157.177 401.102 161.76 396.472 Q166.366 391.819 167.547 390.477 Q169.792 387.954 170.672 386.218 Q171.575 384.458 171.575 382.768 Q171.575 380.014 169.63 378.278 Q167.709 376.542 164.607 376.542 Q162.408 376.542 159.954 377.306 Q157.524 378.069 154.746 379.62 L154.746 374.898 Q157.57 373.764 160.024 373.185 Q162.477 372.606 164.515 372.606 Q169.885 372.606 173.079 375.292 Q176.274 377.977 176.274 382.468 Q176.274 384.597 175.464 386.518 Q174.677 388.417 172.57 391.009 Q171.991 391.68 168.889 394.898 Q165.788 398.092 160.14 403.856 Z" fill="#000000" fill-rule="nonzero" fill-opacity="1"></path><path clip-path="url(#clip280)" d="M22.818 822.883 L46.4666 831.604 L46.4666 814.13 L22.818 822.883 M16.4842 826.511 L16.4842 819.223 L64.0042 801.112 L64.0042 807.796 L51.8138 812.125 L51.8138 833.546 L64.0042 837.874 L64.0042 844.654 L16.4842 826.511 Z" fill="#000000" fill-rule="nonzero" fill-opacity="1"></path><path clip-path="url(#clip280)" d="M14.5426 780.36 Q21.8632 784.625 29.0246 786.694 Q36.186 788.763 43.5384 788.763 Q50.8908 788.763 58.1159 786.694 Q65.3091 784.593 72.5979 780.36 L72.5979 785.453 Q65.1182 790.227 57.8931 792.614 Q50.668 794.969 43.5384 794.969 Q36.4406 794.969 29.2474 792.614 Q22.0542 790.259 14.5426 785.453 L14.5426 780.36 Z" fill="#000000" fill-rule="nonzero" fill-opacity="1"></path><path clip-path="url(#clip280)" d="M28.3562 772.403 L28.3562 766.547 L56.1743 759.226 L28.3562 751.937 L28.3562 745.03 L56.1743 737.71 L28.3562 730.421 L28.3562 724.565 L64.0042 733.89 L64.0042 740.797 L34.7856 748.468 L64.0042 756.17 L64.0042 763.077 L28.3562 772.403 Z" fill="#000000" fill-rule="nonzero" fill-opacity="1"></path><path clip-path="url(#clip280)" d="M14.5426 716.608 L14.5426 711.515 Q22.0542 706.741 29.2474 704.385 Q36.4406 701.998 43.5384 701.998 Q50.668 701.998 57.8931 704.385 Q65.1182 706.741 72.5979 711.515 L72.5979 716.608 Q65.3091 712.374 58.1159 710.305 Q50.8908 708.205 43.5384 708.205 Q36.186 708.205 29.0246 710.305 Q21.8632 712.374 14.5426 716.608 Z" fill="#000000" fill-rule="nonzero" fill-opacity="1"></path><path clip-path="url(#clip280)" d="M966.617 14.0809 L966.617 22.0612 Q961.958 19.8332 957.826 18.7395 Q953.694 17.6457 949.846 17.6457 Q943.162 17.6457 939.516 20.2383 Q935.911 22.8309 935.911 27.611 Q935.911 31.6214 938.301 33.6873 Q940.731 35.7128 947.456 36.9686 L952.398 37.9813 Q961.553 39.7232 965.887 44.1387 Q970.262 48.5136 970.262 55.8863 Q970.262 64.6767 964.348 69.2137 Q958.474 73.7508 947.091 73.7508 Q942.797 73.7508 937.936 72.7785 Q933.116 71.8063 927.93 69.9024 L927.93 61.4765 Q932.913 64.2716 937.693 65.6895 Q942.473 67.1073 947.091 67.1073 Q954.099 67.1073 957.907 64.3527 Q961.715 61.598 961.715 56.4939 Q961.715 52.0379 958.96 49.5264 Q956.246 47.0148 950.008 45.759 L945.025 44.7868 Q935.87 42.9639 931.779 39.075 Q927.687 35.1862 927.687 28.2591 Q927.687 20.2383 933.318 15.6203 Q938.989 11.0023 948.914 11.0023 Q953.168 11.0023 957.583 11.7719 Q961.999 12.5416 966.617 14.0809 Z" fill="#000000" fill-rule="nonzero" fill-opacity="1"></path><path clip-path="url(#clip280)" d="M1019.28 14.0809 L1019.28 22.0612 Q1014.62 19.8332 1010.49 18.7395 Q1006.36 17.6457 1002.51 17.6457 Q995.824 17.6457 992.178 20.2383 Q988.573 22.8309 988.573 27.611 Q988.573 31.6214 990.963 33.6873 Q993.393 35.7128 1000.12 36.9686 L1005.06 37.9813 Q1014.21 39.7232 1018.55 44.1387 Q1022.92 48.5136 1022.92 55.8863 Q1022.92 64.6767 1017.01 69.2137 Q1011.14 73.7508 999.753 73.7508 Q995.459 73.7508 990.598 72.7785 Q985.777 71.8063 980.592 69.9024 L980.592 61.4765 Q985.575 64.2716 990.355 65.6895 Q995.135 67.1073 999.753 67.1073 Q1006.76 67.1073 1010.57 64.3527 Q1014.38 61.598 1014.38 56.4939 Q1014.38 52.0379 1011.62 49.5264 Q1008.91 47.0148 1002.67 45.759 L997.687 44.7868 Q988.532 42.9639 984.441 39.075 Q980.349 35.1862 980.349 28.2591 Q980.349 20.2383 985.98 15.6203 Q991.651 11.0023 1001.58 11.0023 Q1005.83 11.0023 1010.24 11.7719 Q1014.66 12.5416 1019.28 14.0809 Z" fill="#000000" fill-rule="nonzero" fill-opacity="1"></path><path clip-path="url(#clip280)" d="M1035.68 12.096 L1043.87 12.096 L1043.87 37.6572 L1071.01 12.096 L1081.54 12.096 L1051.52 40.2903 L1083.69 72.576 L1072.91 72.576 L1043.87 43.45 L1043.87 72.576 L1035.68 72.576 L1035.68 12.096 Z" fill="#000000" fill-rule="nonzero" fill-opacity="1"></path><path clip-path="url(#clip280)" d="M1139.1 9.54393 L1139.1 15.7418 L1131.97 15.7418 Q1127.96 15.7418 1126.38 17.3622 Q1124.84 18.9825 1124.84 23.1955 L1124.84 27.2059 L1137.12 27.2059 L1137.12 32.9987 L1124.84 32.9987 L1124.84 72.576 L1117.35 72.576 L1117.35 32.9987 L1110.22 32.9987 L1110.22 27.2059 L1117.35 27.2059 L1117.35 24.0462 Q1117.35 16.471 1120.88 13.0277 Q1124.4 9.54393 1132.06 9.54393 L1139.1 9.54393 Z" fill="#000000" fill-rule="nonzero" fill-opacity="1"></path><path clip-path="url(#clip280)" d="M1162.92 32.4315 Q1156.93 32.4315 1153.44 37.1306 Q1149.96 41.7891 1149.96 49.9314 Q1149.96 58.0738 1153.4 62.7728 Q1156.89 67.4314 1162.92 67.4314 Q1168.88 67.4314 1172.36 62.7323 Q1175.85 58.0333 1175.85 49.9314 Q1175.85 41.8701 1172.36 37.1711 Q1168.88 32.4315 1162.92 32.4315 M1162.92 26.1121 Q1172.65 26.1121 1178.2 32.4315 Q1183.75 38.7509 1183.75 49.9314 Q1183.75 61.0714 1178.2 67.4314 Q1172.65 73.7508 1162.92 73.7508 Q1153.16 73.7508 1147.61 67.4314 Q1142.1 61.0714 1142.1 49.9314 Q1142.1 38.7509 1147.61 32.4315 Q1153.16 26.1121 1162.92 26.1121 Z" fill="#000000" fill-rule="nonzero" fill-opacity="1"></path><path clip-path="url(#clip280)" d="M1222.39 34.1734 Q1221.13 33.4443 1219.64 33.1202 Q1218.18 32.7556 1216.4 32.7556 Q1210.08 32.7556 1206.67 36.8875 Q1203.31 40.9789 1203.31 48.6757 L1203.31 72.576 L1195.82 72.576 L1195.82 27.2059 L1203.31 27.2059 L1203.31 34.2544 Q1205.66 30.1225 1209.43 28.1376 Q1213.2 26.1121 1218.58 26.1121 Q1219.35 26.1121 1220.28 26.2337 Q1221.22 26.3147 1222.35 26.5172 L1222.39 34.1734 Z" fill="#000000" fill-rule="nonzero" fill-opacity="1"></path><path clip-path="url(#clip280)" d="M1289.23 28.9478 L1289.23 35.9153 Q1286.07 34.1734 1282.87 33.3227 Q1279.71 32.4315 1276.47 32.4315 Q1269.22 32.4315 1265.21 37.0496 Q1261.2 41.6271 1261.2 49.9314 Q1261.2 58.2358 1265.21 62.8538 Q1269.22 67.4314 1276.47 67.4314 Q1279.71 67.4314 1282.87 66.5807 Q1286.07 65.6895 1289.23 63.9476 L1289.23 70.8341 Q1286.11 72.2924 1282.75 73.0216 Q1279.43 73.7508 1275.66 73.7508 Q1265.41 73.7508 1259.38 67.3098 Q1253.34 60.8689 1253.34 49.9314 Q1253.34 38.832 1259.42 32.472 Q1265.53 26.1121 1276.15 26.1121 Q1279.59 26.1121 1282.87 26.8413 Q1286.15 27.5299 1289.23 28.9478 Z" fill="#000000" fill-rule="nonzero" fill-opacity="1"></path><path clip-path="url(#clip280)" d="M1319.77 32.4315 Q1313.78 32.4315 1310.3 37.1306 Q1306.81 41.7891 1306.81 49.9314 Q1306.81 58.0738 1310.25 62.7728 Q1313.74 67.4314 1319.77 67.4314 Q1325.73 67.4314 1329.21 62.7323 Q1332.7 58.0333 1332.7 49.9314 Q1332.7 41.8701 1329.21 37.1711 Q1325.73 32.4315 1319.77 32.4315 M1319.77 26.1121 Q1329.5 26.1121 1335.05 32.4315 Q1340.6 38.7509 1340.6 49.9314 Q1340.6 61.0714 1335.05 67.4314 Q1329.5 73.7508 1319.77 73.7508 Q1310.01 73.7508 1304.46 67.4314 Q1298.95 61.0714 1298.95 49.9314 Q1298.95 38.7509 1304.46 32.4315 Q1310.01 26.1121 1319.77 26.1121 Z" fill="#000000" fill-rule="nonzero" fill-opacity="1"></path><path clip-path="url(#clip280)" d="M1390.67 45.1919 L1390.67 72.576 L1383.21 72.576 L1383.21 45.4349 Q1383.21 38.994 1380.7 35.7938 Q1378.19 32.5936 1373.17 32.5936 Q1367.13 32.5936 1363.65 36.4419 Q1360.16 40.2903 1360.16 46.9338 L1360.16 72.576 L1352.67 72.576 L1352.67 27.2059 L1360.16 27.2059 L1360.16 34.2544 Q1362.84 30.163 1366.44 28.1376 Q1370.09 26.1121 1374.83 26.1121 Q1382.64 26.1121 1386.65 30.9732 Q1390.67 35.7938 1390.67 45.1919 Z" fill="#000000" fill-rule="nonzero" fill-opacity="1"></path><path clip-path="url(#clip280)" d="M1412.9 14.324 L1412.9 27.2059 L1428.26 27.2059 L1428.26 32.9987 L1412.9 32.9987 L1412.9 57.6282 Q1412.9 63.1779 1414.4 64.7578 Q1415.94 66.3376 1420.6 66.3376 L1428.26 66.3376 L1428.26 72.576 L1420.6 72.576 Q1411.97 72.576 1408.69 69.3758 Q1405.41 66.1351 1405.41 57.6282 L1405.41 32.9987 L1399.94 32.9987 L1399.94 27.2059 L1405.41 27.2059 L1405.41 14.324 L1412.9 14.324 Z" fill="#000000" fill-rule="nonzero" fill-opacity="1"></path><path clip-path="url(#clip280)" d="M1471.8 14.324 L1471.8 27.2059 L1487.16 27.2059 L1487.16 32.9987 L1471.8 32.9987 L1471.8 57.6282 Q1471.8 63.1779 1473.3 64.7578 Q1474.84 66.3376 1479.5 66.3376 L1487.16 66.3376 L1487.16 72.576 L1479.5 72.576 Q1470.87 72.576 1467.59 69.3758 Q1464.31 66.1351 1464.31 57.6282 L1464.31 32.9987 L1458.84 32.9987 L1458.84 27.2059 L1464.31 27.2059 L1464.31 14.324 L1471.8 14.324 Z" fill="#000000" fill-rule="nonzero" fill-opacity="1"></path><path clip-path="url(#clip280)" d="M1515.84 76.7889 Q1512.68 84.8907 1509.68 87.3618 Q1506.68 89.8329 1501.66 89.8329 L1495.71 89.8329 L1495.71 83.5945 L1500.08 83.5945 Q1503.16 83.5945 1504.86 82.1361 Q1506.56 80.6778 1508.63 75.2496 L1509.96 71.8468 L1491.61 27.2059 L1499.51 27.2059 L1513.69 62.6918 L1527.87 27.2059 L1535.77 27.2059 L1515.84 76.7889 Z" fill="#000000" fill-rule="nonzero" fill-opacity="1"></path><path clip-path="url(#clip280)" d="M1553.27 65.7705 L1553.27 89.8329 L1545.77 89.8329 L1545.77 27.2059 L1553.27 27.2059 L1553.27 34.0924 Q1555.62 30.0415 1559.18 28.0971 Q1562.79 26.1121 1567.77 26.1121 Q1576.03 26.1121 1581.18 32.6746 Q1586.36 39.2371 1586.36 49.9314 Q1586.36 60.6258 1581.18 67.1883 Q1576.03 73.7508 1567.77 73.7508 Q1562.79 73.7508 1559.18 71.8063 Q1555.62 69.8214 1553.27 65.7705 M1578.63 49.9314 Q1578.63 41.7081 1575.22 37.0496 Q1571.86 32.3505 1565.95 32.3505 Q1560.03 32.3505 1556.63 37.0496 Q1553.27 41.7081 1553.27 49.9314 Q1553.27 58.1548 1556.63 62.8538 Q1560.03 67.5124 1565.95 67.5124 Q1571.86 67.5124 1575.22 62.8538 Q1578.63 58.1548 1578.63 49.9314 Z" fill="#000000" fill-rule="nonzero" fill-opacity="1"></path><path clip-path="url(#clip280)" d="M1637.53 48.0275 L1637.53 51.6733 L1603.26 51.6733 Q1603.74 59.3701 1607.87 63.421 Q1612.05 67.4314 1619.46 67.4314 Q1623.75 67.4314 1627.76 66.3781 Q1631.82 65.3249 1635.79 63.2184 L1635.79 70.267 Q1631.78 71.9684 1627.56 72.8596 Q1623.35 73.7508 1619.01 73.7508 Q1608.16 73.7508 1601.8 67.4314 Q1595.48 61.1119 1595.48 50.3365 Q1595.48 39.1965 1601.47 32.6746 Q1607.51 26.1121 1617.72 26.1121 Q1626.87 26.1121 1632.18 32.0264 Q1637.53 37.9003 1637.53 48.0275 M1630.07 45.84 Q1629.99 39.7232 1626.63 36.0774 Q1623.31 32.4315 1617.8 32.4315 Q1611.56 32.4315 1607.79 35.9558 Q1604.07 39.4801 1603.5 45.8805 L1630.07 45.84 Z" fill="#000000" fill-rule="nonzero" fill-opacity="1"></path><polyline clip-path="url(#clip282)" style="stroke:#009af9; stroke-linecap:round; stroke-linejoin:round; stroke-width:4; stroke-opacity:1; fill:none" points="273.033,710.423 321.293,710.423 365.173,710.423 405.246,710.423 441.988,710.423 475.798,710.423 507.014,710.422 535.925,710.418 562.778,710.409 587.785,710.386 611.132,710.336 632.978,710.241 653.465,710.074 672.716,709.804 690.841,709.394 707.935,708.811 724.084,708.023 739.366,707.008 753.848,705.751 767.593,704.252 780.655,702.52 793.085,700.577 804.927,698.453 816.223,696.186 827.01,693.816 837.322,691.386 847.189,688.94 856.641,686.518 865.702,684.157 874.398,681.889 882.75,679.742 890.778,677.737 898.501,675.892 905.936,674.218 913.099,672.722 920.006,671.408 926.669,670.276 933.101,669.321 939.315,668.539 945.322,667.923 951.132,667.463 956.754,667.149 962.198,666.973 967.473,666.921 972.585,666.985 977.544,667.152 982.355,667.414 987.025,667.759 991.56,668.178 995.967,668.662 1000.25,669.202 1004.42,669.791 1008.47,670.422 1012.41,671.087 1016.26,671.781 1020,672.497 1023.64,673.232 1027.19,673.98 1030.66,674.738 1034.04,675.501 1037.33,676.267 1040.55,677.033 1043.69,677.796 1046.76,678.554 1049.76,679.306 1052.69,680.049 1055.55,680.783 1058.35,681.505 1061.09,682.216 1063.77,682.914 1066.39,683.598 1068.96,684.269 1071.47,684.926 1073.93,685.567 1076.34,686.194 1078.7,686.806 1081.02,687.403 1083.29,687.986 1085.51,688.553 1087.7,689.105 1089.84,689.643 1091.94,690.166 1094,690.675 1096.02,691.17 1098.01,691.651 1099.95,692.119 1101.87,692.573 1103.75,693.014 1105.6,693.443 1107.41,693.86 1109.2,694.264 1110.95,694.657 1112.68,695.038 1114.37,695.409 1116.04,695.768 1117.68,696.117 1119.3,696.456 1120.89,696.785 1122.45,697.105 1123.99,697.415 1125.5,697.716 1127,698.009 1128.46,698.293 1129.91,698.569 1131.34,698.836 1132.74,699.097 1134.12,699.349 1135.48,699.595 1136.83,699.833 1138.15,700.065 1139.46,700.29 1140.74,700.509 1142.01,700.722 1143.26,700.929 1144.5,701.13 1145.72,701.326 1146.92,701.516 1148.1,701.701 1149.27,701.88 1150.43,702.055 1151.57,702.226 1152.69,702.391 1153.8,702.552 1154.9,702.709 1155.98,702.862 1157.05,703.011 1158.1,703.156 1159.15,703.297 1160.18,703.434 1161.19,703.568 1162.2,703.698 1163.19,703.825 1164.18,703.949 1165.15,704.07 1166.11,704.187 1167.05,704.302 1167.99,704.414 1168.92,704.523 1169.84,704.629 1170.74,704.733 1171.64,704.834 1172.53,704.933 1173.4,705.029 1174.27,705.123 1175.13,705.215 1175.98,705.305 1176.82,705.393 1177.65,705.478 1178.47,705.562 1179.29,705.643 1180.1,705.723 1180.89,705.801 1181.68,705.877 1182.47,705.951 1183.24,706.024 1184.01,706.095 1184.77,706.165 1185.52,706.233 1186.27,706.299 1187.01,706.364 1187.74,706.428 1188.46,706.49 1189.18,706.551 1189.89,706.611 1190.59,706.669 1191.29,706.726 1191.98,706.782 1192.67,706.837 1193.35,706.891 1194.02,706.943 1194.69,706.995 1195.35,707.045 1196.01,707.094 1196.66,707.143 1197.31,707.19 1197.95,707.237 1198.58,707.282 1199.21,707.327 1199.84,707.37 1200.45,707.413 1201.07,707.455 1201.68,707.497 1202.28,707.537 1202.88,707.577 1203.48,707.616 1204.07,707.654 1204.65,707.692 1205.23,707.728 1205.81,707.764 1206.38,707.8 1206.95,707.835 1207.51,707.869 1208.07,707.902 1208.63,707.935 1209.18,707.968 1209.73,707.999 1210.27,708.03 1210.81,708.061 1211.35,708.091 1211.88,708.121 1212.41,708.15 1212.93,708.178 1213.45,708.206 1213.97,708.234 1214.49,708.261 1215,708.288 1215.5,708.314 1216.01,708.34 1216.51,708.365 1217.01,708.39 1217.5,708.414 1217.99,708.438 1218.48,708.462 1218.96,708.485 1219.44,708.508 1219.92,708.531 1220.4,708.553 1220.87,708.575 1221.34,708.596 1221.81,708.617 1222.27,708.638 1222.73,708.658 1223.19,708.678 1223.65,708.698 1224.1,708.718 1224.55,708.737 1225,708.756 1225.45,708.774 1225.89,708.793 1226.33,708.811 1226.77,708.828 1227.21,708.846 1227.64,708.863 1228.07,708.88 1228.5,708.896 1228.93,708.913 1229.35,708.929 1229.77,708.945 1230.19,708.96 1230.61,708.975 1231.03,708.991 1231.44,709.005 1231.85,709.02 1232.26,709.034 1232.67,709.049 1233.07,709.062 1233.48,709.076 1233.88,709.09 1234.28,709.103 1234.67,709.116 1235.07,709.129 1235.46,709.141 1235.85,709.153 1236.24,709.166 1236.63,709.177 1237.02,709.189 1237.4,709.201 1237.79,709.212 1238.17,709.223 1238.55,709.234 1238.93,709.244 1239.3,709.255 1239.68,709.265 1240.05,709.275 1240.42,709.284 1240.79,709.294 1241.16,709.303 1241.53,709.312 1241.89,709.321 1242.26,709.33 1242.62,709.338 1242.98,709.346 1243.34,709.354 1243.7,709.362 1244.06,709.369 1244.41,709.376 1244.77,709.383 1245.12,709.39 1245.47,709.396 1245.82,709.403 1246.17,709.408 1246.52,709.414 1246.87,709.42 1247.21,709.425 1247.56,709.429 1247.9,709.434 1248.24,709.438 1248.58,709.442 1248.92,709.446 1249.26,709.449 1249.6,709.452 1249.93,709.455 1250.27,709.457 1250.6,709.459 1250.94,709.461 1251.27,709.462 1251.6,709.463 1251.93,709.464 1252.26,709.464 1252.59,709.464 1252.91,709.463 1253.24,709.463 1253.57,709.461 1253.89,709.459 1254.21,709.457 1254.54,709.454 1254.86,709.451 1255.18,709.447 1255.5,709.443 1255.82,709.439 1256.13,709.434 1256.45,709.428 1256.77,709.422 1257.08,709.415 1257.4,709.408 1257.71,709.4 1258.02,709.391 1258.34,709.382 1258.65,709.372 1258.96,709.362 1259.27,709.351 1259.58,709.339 1259.89,709.326 1260.2,709.313 1260.5,709.299 1260.81,709.284 1261.12,709.269 1261.42,709.253 1261.73,709.235 1262.03,709.218 1262.34,709.199 1262.64,709.179 1262.94,709.158 1263.24,709.137 1263.54,709.114 1263.84,709.091 1264.14,709.066 1264.44,709.041 1264.74,709.014 1265.04,708.986 1265.34,708.957 1265.64,708.927 1265.93,708.896 1266.23,708.864 1266.53,708.83 1266.82,708.795 1267.12,708.759 1267.41,708.722 1267.71,708.683 1268,708.643 1268.29,708.601 1268.59,708.558 1268.88,708.513 1269.17,708.467 1269.46,708.419 1269.75,708.37 1270.04,708.319 1270.33,708.266 1270.62,708.212 1270.91,708.156 1271.2,708.098 1271.49,708.038 1271.78,707.976 1272.07,707.913 1272.36,707.847 1272.65,707.779 1272.93,707.71 1273.22,707.638 1273.51,707.564 1273.8,707.487 1274.08,707.409 1274.37,707.328 1274.66,707.245 1274.94,707.159 1275.23,707.071 1275.51,706.981 1275.8,706.888 1276.08,706.792 1276.37,706.693 1276.65,706.592 1276.94,706.488 1277.22,706.381 1277.51,706.271 1277.79,706.159 1278.07,706.043 1278.36,705.924 1278.64,705.802 1278.93,705.676 1279.21,705.548 1279.49,705.416 1279.78,705.28 1280.06,705.142 1280.34,704.999 1280.63,704.853 1280.91,704.703 1281.19,704.55 1281.48,704.392 1281.76,704.231 1282.04,704.065 1282.32,703.896 1282.61,703.722 1282.89,703.545 1283.17,703.362 1283.46,703.176 1283.74,702.985 1284.02,702.79 1284.31,702.589 1284.59,702.385 1284.87,702.175 1285.15,701.96 1285.44,701.741 1285.72,701.516 1286.01,701.287 1286.29,701.052 1286.57,700.812 1286.86,700.566 1287.14,700.315 1287.42,700.058 1287.71,699.796 1287.99,699.528 1288.28,699.254 1288.56,698.974 1288.85,698.688 1289.13,698.396 1289.42,698.097 1289.7,697.792 1289.99,697.481 1290.27,697.164 1290.56,696.839 1290.85,696.508 1291.13,696.17 1291.42,695.825 1291.71,695.473 1291.99,695.114 1292.28,694.748 1292.57,694.374 1292.86,693.993 1293.14,693.604 1293.43,693.208 1293.72,692.804 1294.01,692.392 1294.3,691.972 1294.59,691.544 1294.88,691.108 1295.17,690.664 1295.46,690.211 1295.75,689.75 1296.05,689.28 1296.34,688.801 1296.63,688.314 1296.92,687.818 1297.22,687.313 1297.51,686.798 1297.8,686.275 1298.1,685.742 1298.39,685.2 1298.69,684.648 1298.98,684.087 1299.28,683.516 1299.58,682.936 1299.88,682.345 1300.17,681.745 1300.47,681.134 1300.77,680.514 1301.07,679.883 1301.37,679.242 1301.67,678.59 1301.97,677.929 1302.27,677.256 1302.58,676.573 1302.88,675.879 1303.18,675.175 1303.49,674.46 1303.79,673.734 1304.1,672.997 1304.4,672.249 1304.71,671.49 1305.02,670.719 1305.33,669.938 1305.64,669.146 1305.94,668.342 1306.25,667.527 1306.57,666.701 1306.88,665.863 1307.19,665.014 1307.5,664.154 1307.82,663.283 1308.13,662.4 1308.45,661.506 1308.76,660.6 1309.08,659.683 1309.4,658.755 1309.72,657.816 1310.04,656.865 1310.36,655.904 1310.68,654.931 1311,653.947 1311.33,652.952 1311.65,651.946 1311.97,650.929 1312.3,649.902 1312.63,648.864 1312.96,647.815 1313.28,646.756 1313.61,645.687 1313.95,644.607 1314.28,643.518 1314.61,642.419 1314.94,641.31 1315.28,640.191 1315.62,639.064 1315.95,637.927 1316.29,636.781 1316.63,635.627 1316.97,634.465 1317.31,633.294 1317.66,632.116 1318,630.93 1318.35,629.737 1318.69,628.537 1319.04,627.331 1319.39,626.118 1319.74,624.899 1320.09,623.675 1320.45,622.446 1320.8,621.212 1321.16,619.974 1321.51,618.733 1321.87,617.488 1322.23,616.24 1322.59,614.99 1322.96,613.738 1323.32,612.485 1323.69,611.231 1324.05,609.977 1324.42,608.723 1324.79,607.471 1325.16,606.22 1325.54,604.972 1325.91,603.726 1326.29,602.485 1326.67,601.248 1327.05,600.016 1327.43,598.79 1327.81,597.571 1328.2,596.36 1328.58,595.156 1328.97,593.962 1329.36,592.778 1329.75,591.605 1330.15,590.444 1330.54,589.296 1330.94,588.161 1331.34,587.041 1331.74,585.936 1332.14,584.848 1332.55,583.778 1332.96,582.726 1333.36,581.694 1333.78,580.682 1334.19,579.693 1334.61,578.726 1335.02,577.784 1335.44,576.866 1335.86,575.975 1336.29,575.111 1336.72,574.276 1337.14,573.47 1337.58,572.696 1338.01,571.953 1338.44,571.244 1338.88,570.569 1339.32,569.929 1339.77,569.327 1340.21,568.763 1340.66,568.237 1341.11,567.752 1341.57,567.309 1342.02,566.908 1342.48,566.552 1342.94,566.24 1343.41,565.975 1343.87,565.756 1344.34,565.587 1344.82,565.466 1345.29,565.396 1345.77,565.378 1346.25,565.412 1346.74,565.5 1347.22,565.642 1347.72,565.839 1348.21,566.093 1348.71,566.403 1349.21,566.771 1349.71,567.198 1350.22,567.683 1350.73,568.228 1351.24,568.833 1351.76,569.499 1352.28,570.226 1352.81,571.014 1353.34,571.863 1353.87,572.774 1354.4,573.747 1354.94,574.782 1355.49,575.879 1356.03,577.037 1356.59,578.256 1357.14,579.536 1357.7,580.876 1358.26,582.277 1358.83,583.736 1359.4,585.254 1359.98,586.829 1360.56,588.461 1361.15,590.148 1361.74,591.889 1362.33,593.683 1362.93,595.528 1363.54,597.423 1364.15,599.366 1364.76,601.355 1365.38,603.389 1366,605.464 1366.63,607.58 1367.27,609.734 1367.91,611.923 1368.55,614.146 1369.2,616.398 1369.86,618.679 1370.52,620.985 1371.19,623.312 1371.86,625.659 1372.54,628.023 1373.23,630.399 1373.92,632.786 1374.62,635.179 1375.32,637.576 1376.04,639.973 1376.75,642.368 1377.48,644.756 1378.21,647.135 1378.95,649.5 1379.69,651.85 1380.45,654.18 1381.21,656.487 1381.97,658.768 1382.75,661.021 1383.53,663.241 1384.32,665.426 1385.12,667.573 1385.93,669.68 1386.74,671.743 1387.56,673.76 1388.4,675.729 1389.24,677.647 1390.09,679.513 1390.94,681.324 1391.81,683.079 1392.69,684.777 1393.58,686.415 1394.47,687.993 1395.38,689.511 1396.3,690.966 1397.22,692.359 1398.16,693.69 1399.11,694.958 1400.07,696.163 1401.04,697.306 1402.02,698.388 1403.02,699.408 1404.02,700.369 1405.04,701.27 1406.07,702.115 1407.11,702.903 1408.17,703.636 1409.24,704.317 1410.32,704.946 1411.41,705.527 1412.52,706.061 1413.65,706.55 1414.79,706.996 1415.94,707.403 1417.11,707.771 1418.3,708.103 1419.5,708.402 1420.72,708.67 1421.95,708.909 1423.2,709.121 1424.47,709.308 1425.76,709.473 1427.06,709.618 1428.39,709.744 1429.73,709.853 1431.09,709.948 1432.48,710.029 1433.88,710.098 1435.3,710.156 1436.75,710.206 1438.22,710.247 1439.71,710.281 1441.23,710.31 1442.76,710.333 1444.33,710.352 1445.92,710.368 1447.53,710.38 1449.17,710.39 1450.84,710.398 1452.54,710.404 1454.26,710.409 1456.02,710.412 1457.8,710.415 1459.62,710.417 1461.46,710.419 1463.34,710.42 1465.26,710.421 1467.21,710.422 1469.2,710.422 1471.22,710.422 1473.28,710.423 1475.38,710.423 1477.52,710.423 1479.7,710.423 1481.93,710.423 1484.2,710.423 1486.51,710.423 1488.87,710.423 1491.28,710.423 1493.74,710.423 1496.26,710.423 1498.82,710.423 1501.44,710.423 1504.12,710.423 1506.86,710.423 1509.66,710.423 1512.53,710.423 1515.46,710.423 1518.45,710.423 1521.52,710.423 1524.66,710.423 1527.88,710.423 1531.18,710.423 1534.56,710.423 1538.02,710.423 1541.57,710.423 1545.22,710.423 1548.96,710.423 1552.8,710.423 1556.74,710.423 1560.8,710.423 1564.96,710.423 1569.25,710.423 1573.65,710.423 1578.19,710.423 1582.86,710.423 1587.67,710.423 1592.63,710.423 1597.74,710.423 1603.02,710.423 1608.46,710.423 1614.08,710.423 1619.89,710.423 1625.9,710.423 1632.11,710.423 1638.55,710.423 1645.21,710.423 1652.12,710.423 1659.28,710.423 1666.71,710.423 1674.44,710.423 1682.46,710.423 1690.82,710.423 1699.51,710.423 1708.57,710.423 1718.03,710.423 1727.89,710.423 1738.2,710.423 1748.99,710.423 1760.29,710.423 1772.13,710.423 1784.56,710.423 1797.62,710.423 1811.37,710.423 1825.85,710.423 1841.13,710.423 1857.28,710.423 1874.37,710.423 1892.5,710.423 1911.75,710.423 1932.24,710.423 1954.08,710.423 1977.43,710.423 2002.44,710.423 2029.29,710.423 2058.2,710.423 2089.42,710.423 2123.23,710.423 2159.97,710.423 2200.04,710.423 2243.92,710.423 2292.18,710.423 "></polyline>
<polyline clip-path="url(#clip282)" style="stroke:#e26f46; stroke-linecap:round; stroke-linejoin:round; stroke-width:2; stroke-opacity:1; fill:none" points="273.033,730.409 321.293,731.439 365.173,732.476 405.246,733.521 441.988,734.577 475.798,735.643 507.014,736.722 535.925,737.816 562.778,738.925 587.785,740.057 611.132,741.219 632.978,742.406 653.465,743.615 672.716,744.853 690.841,746.128 707.935,747.459 724.084,748.826 739.366,750.213 753.848,751.6 767.593,753.016 780.655,754.439 793.085,755.816 804.927,757.195 816.223,758.615 827.01,760.078 837.322,761.438 847.189,762.639 856.641,763.781 865.702,764.947 874.398,766.087 882.75,767.217 890.778,768.29 898.501,769.273 905.936,770.011 913.099,770.438 920.006,770.841 926.669,771.162 933.101,771.374 939.315,771.485 945.322,771.463 951.132,771.584 956.754,771.658 962.198,771.552 967.473,771.511 972.585,771.383 977.544,771.457 982.355,771.695 987.025,771.902 991.56,772.073 995.967,772.039 1000.25,771.814 1004.42,771.299 1008.47,770.987 1012.41,770.854 1016.26,770.514 1020,770.127 1023.64,770.288 1027.19,770.553 1030.66,770.325 1034.04,770.165 1037.33,770.244 1040.55,770.48 1043.69,770.72 1046.76,771.063 1049.76,771.195 1052.69,771.567 1055.55,772.023 1058.35,771.879 1061.09,771.646 1063.77,771.506 1066.39,771.468 1068.96,771.425 1071.47,771.549 1073.93,772.103 1076.34,772.588 1078.7,773.051 1081.02,773.226 1083.29,772.959 1085.51,773.465 1087.7,773.401 1089.84,773.037 1091.94,773.287 1094,773.905 1096.02,774.581 1098.01,774.719 1099.95,775.739 1101.87,776.216 1103.75,775.837 1105.6,776.218 1107.41,776.476 1109.2,776.743 1110.95,777.507 1112.68,777.671 1114.37,777.658 1116.04,778.047 1117.68,778.711 1119.3,779.223 1120.89,779.726 1122.45,780.587 1123.99,781.336 1125.5,781.426 1127,781.393 1128.46,782.001 1129.91,782.556 1131.34,782.931 1132.74,782.642 1134.12,782.813 1135.48,783.777 1136.83,784.192 1138.15,784.179 1139.46,784.368 1140.74,784.905 1142.01,785.639 1143.26,786.208 1144.5,786.095 1145.72,785.656 1146.92,785.827 1148.1,786.753 1149.27,786.676 1150.43,787.231 1151.57,788.163 1152.69,787.671 1153.8,787.838 1154.9,789.005 1155.98,789.489 1157.05,790.469 1158.1,791.753 1159.15,791.439 1160.18,792.592 1161.19,793.573 1162.2,793.512 1163.19,793.994 1164.18,794.225 1165.15,795.554 1166.11,796.253 1167.05,796.371 1167.99,797.29 1168.92,797.651 1169.84,798.355 1170.74,799.559 1171.64,799.799 1172.53,800.893 1173.4,801.731 1174.27,801.934 1175.13,802.423 1175.98,802.066 1176.82,801.981 1177.65,802.73 1178.47,802.606 1179.29,802.362 1180.1,803.445 1180.89,803.701 1181.68,803.893 1182.47,804.835 1183.24,806.375 1184.01,807.581 1184.77,807.823 1185.52,808.239 1186.27,809.137 1187.01,809.459 1187.74,809.72 1188.46,811.215 1189.18,813.409 1189.89,813.387 1190.59,812.809 1191.29,813.813 1191.98,814.394 1192.67,815 1193.35,815.548 1194.02,815.864 1194.69,816.669 1195.35,817.958 1196.01,817.985 1196.66,818.965 1197.31,820.407 1197.95,821.087 1198.58,822.142 1199.21,823.137 1199.84,824.612 1200.45,825.179 1201.07,826.362 1201.68,826.878 1202.28,827.431 1202.88,829.202 1203.48,829.868 1204.07,831.662 1204.65,832.629 1205.23,833.154 1205.81,834.231 1206.38,834.489 1206.95,834.841 1207.51,834.145 1208.07,832.755 1208.63,832.822 1209.18,832.922 1209.73,832.658 1210.27,834.09 1210.81,835.54 1211.35,836.564 1211.88,837.262 1212.41,837.946 1212.93,839.308 1213.45,840.839 1213.97,843.545 1214.49,846.017 1215,848.243 1215.5,850.587 1216.01,850.557 1216.51,849.819 1217.01,848.15 1217.5,847.433 1217.99,847.427 1218.48,848.671 1218.96,850.317 1219.44,850.43 1219.92,851.248 1220.4,852.851 1220.87,855.291 1221.34,855.825 1221.81,854.169 1222.27,854.728 1222.73,856.706 1223.19,857.485 1223.65,856.666 1224.1,857.131 1224.55,858.363 1225,857.541 1225.45,858.096 1225.89,857.6 1226.33,854.351 1226.77,853.672 1227.21,855.389 1227.64,855.421 1228.07,855.775 1228.5,858.212 1228.93,860.832 1229.35,862.225 1229.77,863.169 1230.19,864.214 1230.61,865.854 1231.03,867.775 1231.44,868.98 1231.85,868.924 1232.26,869.91 1232.67,871.652 1233.07,873.261 1233.48,875.688 1233.88,877.314 1234.28,878.802 1234.67,881.688 1235.07,884.171 1235.46,886.801 1235.85,889.732 1236.24,890.584 1236.63,892.437 1237.02,895.647 1237.4,896.147 1237.79,895.508 1238.17,896.209 1238.55,897.422 1238.93,895.066 1239.3,890.138 1239.68,887.669 1240.05,886.572 1240.42,888.435 1240.79,890.777 1241.16,887.002 1241.53,884.757 1241.89,888.666 1242.26,888.759 1242.62,885.035 1242.98,884.236 1243.34,883.176 1243.7,885.159 1244.06,892.014 1244.41,896.276 1244.77,895.592 1245.12,896.279 1245.47,899.481 1245.82,900.599 1246.17,898.988 1246.52,901.064 1246.87,906.301 1247.21,908.815 1247.56,909.643 1247.9,910.041 1248.24,910.638 1248.58,908.733 1248.92,908.993 1249.26,911.024 1249.6,915.403 1249.93,913.876 1250.27,906.032 1250.6,899.779 1250.94,898.297 1251.27,901.742 1251.6,902.935 1251.93,905.381 1252.26,908.258 1252.59,910.916 1252.91,914.253 1253.24,917.27 1253.57,919.841 1253.89,922.2 1254.21,924.438 1254.54,926.6 1254.86,928.719 1255.18,930.815 1255.5,932.905 1255.82,935.002 1256.13,937.118 1256.45,939.267 1256.77,941.458 1257.08,943.705 1257.4,946.022 1257.71,948.425 1258.02,950.936 1258.34,953.581 1258.65,956.394 1258.96,959.425 1259.27,962.747 1259.58,966.478 1259.89,970.831 1260.2,976.284 1260.5,984.482 1260.81,989.841 1261.12,990.78 1261.42,999.772 1261.73,1001.2 1262.03,982.674 1262.34,969.984 1262.64,972.998 1262.94,979.474 1263.24,980.637 1263.54,986.798 1263.84,1003.07 1264.14,1008.49 1264.44,1000.97 1264.74,995.823 1265.04,1007.78 1265.34,1012.68 1265.64,978.39 1265.93,938.818 1266.23,923.916 1266.53,928.352 1266.82,933.403 1267.12,924.606 1267.41,917.411 1267.71,926.173 1268,937.925 1268.29,943.095 1268.59,950.345 1268.88,960.53 1269.17,968.91 1269.46,978.173 1269.75,979.282 1270.04,977.869 1270.33,983.451 1270.62,989.754 1270.91,996.684 1271.2,999.495 1271.49,1002.5 1271.78,1009.61 1272.07,1016.51 1272.36,1021.11 1272.65,1026.42 1272.93,1036.06 1273.22,1041.39 1273.51,1039.26 1273.8,1036.73 1274.08,1039.64 1274.37,1056.64 1274.66,1075.08 1274.94,1080.93 1275.23,1080.14 1275.51,1078.91 1275.8,1068.96 1276.08,1050.95 1276.37,1027.91 1276.65,1002.76 1276.94,990.744 1277.22,995.833 1277.51,1014.69 1277.79,1037.06 1278.07,1059.02 1278.36,1076.27 1278.64,1097.3 1278.93,1118.36 1279.21,1121.95 1279.49,1117.49 1279.78,1112.29 1280.06,1114.73 1280.34,1132.34 1280.63,1137.4 1280.91,1121.41 1281.19,1083.53 1281.48,1025.73 1281.76,966.292 1282.04,946.841 1282.32,973.511 1282.61,1016.82 1282.89,1027.62 1283.17,995.934 1283.46,987.189 1283.74,1000.39 1284.02,1017.84 1284.31,1025.08 1284.59,1023.54 1284.87,1027.17 1285.15,1029.5 1285.44,1043.82 1285.72,1068.19 1286.01,1064.75 1286.29,1064.61 1286.57,1062.23 1286.86,1038.64 1287.14,1035.18 1287.42,1049.47 1287.71,1068.09 1287.99,1081.85 1288.28,1081.69 1288.56,1077.47 1288.85,1070.47 1289.13,1068.03 1289.42,1085.73 1289.7,1106.94 1289.99,1119.41 1290.27,1130.42 1290.56,1151.18 1290.85,1171.32 1291.13,1190.09 1291.42,1207.38 1291.71,1207.43 1291.99,1201.2 1292.28,1207.64 1292.57,1224.58 1292.86,1238.45 1293.14,1243.87 1293.43,1221.38 1293.72,1194.91 1294.01,1213.58 1294.3,1234.82 1294.59,1218.93 1294.88,1196.22 1295.17,1196.89 1295.46,1213.13 1295.75,1239.25 1296.05,1248.79 1296.34,1239.4 1296.63,1228.57 1296.92,1202.06 1297.22,1189.52 1297.51,1203.19 1297.8,1220.97 1298.1,1237.89 1298.39,1230.09 1298.69,1192.38 1298.98,1182.77 1299.28,1192.19 1299.58,1212.86 1299.88,1249.86 1300.17,1254.17 1300.47,1253.29 1300.77,1283.11 1301.07,1293.21 1301.37,1279.18 1301.67,1271.63 1301.97,1254.56 1302.27,1279.82 1302.58,1305.35 1302.88,1295.7 1303.18,1284.97 1303.49,1285.61 1303.79,1285.71 1304.1,1285.09 1304.4,1289.34 1304.71,1283.04 1305.02,1302.42 1305.33,1320.04 1305.64,1336.73 1305.94,1339.29 1306.25,1366.97 1306.57,1386.4 1306.88,1349.56 1307.19,1322.79 1307.5,1319.8 1307.82,1309.24 1308.13,1286.88 1308.45,1311.32 1308.76,1336.23 1309.08,1321.18 1309.4,1334.75 1309.72,1378.19 1310.04,1379.32 1310.36,1375.49 1310.68,1367.29 1311,1349.02 1311.33,1353.65 1311.65,1354 1311.97,1350.27 1312.3,1363.67 1312.63,1339.62 1312.96,1290.6 1313.28,1268.52 1313.61,1265.68 1313.95,1271.08 1314.28,1287.23 1314.61,1264.85 1314.94,1273.18 1315.28,1292.67 1315.62,1246.58 1315.95,1237.28 1316.29,1239.08 1316.63,1229.56 1316.97,1199.19 1317.31,1150.9 1317.66,1144.61 1318,1159.34 1318.35,1164.07 1318.69,1165.4 1319.04,1118.07 1319.39,1073.87 1319.74,1067.49 1320.09,1070.86 1320.45,1101.15 1320.8,1131.62 1321.16,1135.15 1321.51,1107.07 1321.87,1072.63 1322.23,1033.43 1322.59,999.807 1322.96,1004.75 1323.32,1037.6 1323.69,1059.12 1324.05,1018.02 1324.42,983.562 1324.79,968.609 1325.16,956.825 1325.54,956.401 1325.91,934.15 1326.29,901.67 1326.67,875.454 1327.05,898.542 1327.43,906.501 1327.81,894.7 1328.2,903.963 1328.58,893.352 1328.97,908.188 1329.36,892.677 1329.75,844.816 1330.15,832.8 1330.54,838.803 1330.94,831.639 1331.34,819.839 1331.74,833.564 1332.14,822.125 1332.55,798.582 1332.96,780.318 1333.36,768.725 1333.78,737.756 1334.19,715.862 1334.61,730.621 1335.02,729.75 1335.44,711.425 1335.86,695.264 1336.29,695.139 1336.72,696.516 1337.14,688.152 1337.58,674.154 1338.01,689.787 1338.44,705.552 1338.88,683.543 1339.32,680.789 1339.77,673.256 1340.21,635.747 1340.66,619.391 1341.11,618.561 1341.57,601.363 1342.02,592.205 1342.48,582.754 1342.94,569.632 1343.41,559.554 1343.87,549.315 1344.34,535.657 1344.82,535.261 1345.29,523.118 1345.77,481.698 1346.25,472.826 1346.74,470.727 1347.22,468.692 1347.72,477.125 1348.21,462.312 1348.71,423.743 1349.21,405.674 1349.71,398.585 1350.22,387.595 1350.73,376.829 1351.24,351.982 1351.76,336.826 1352.28,325.818 1352.81,321.614 1353.34,307.565 1353.87,283.105 1354.4,275.88 1354.94,276.64 1355.49,283.433 1356.03,261.698 1356.59,252.672 1357.14,257.397 1357.7,249.299 1358.26,250.73 1358.83,245.368 1359.4,245.01 1359.98,246.976 1360.56,237.969 1361.15,218.246 1361.74,210.503 1362.33,206.973 1362.93,190.815 1363.54,186.65 1364.15,189.972 1364.76,183.684 1365.38,179.182 1366,177.983 1366.63,174.384 1367.27,170.652 1367.91,167.353 1368.55,169.419 1369.2,161.706 1369.86,162.141 1370.52,167.523 1371.19,166.595 1371.86,166.044 1372.54,160.256 1373.23,163.574 1373.92,172 1374.62,172.507 1375.32,167.648 1376.04,170.191 1376.75,174.017 1377.48,176.619 1378.21,186.366 1378.95,195.519 1379.69,204.477 1380.45,209.426 1381.21,214.524 1381.97,224.859 1382.75,231.347 1383.53,234.051 1384.32,236.496 1385.12,241.192 1385.93,244.42 1386.74,250.709 1387.56,262.085 1388.4,267.363 1389.24,272.625 1390.09,279.778 1390.94,286.267 1391.81,292.003 1392.69,297.576 1393.58,304.879 1394.47,311.748 1395.38,317.494 1396.3,322.413 1397.22,329.713 1398.16,336.82 1399.11,342.643 1400.07,347.984 1401.04,354.33 1402.02,363.085 1403.02,369.686 1404.02,375.074 1405.04,381.823 1406.07,389.153 1407.11,395.536 1408.17,401.308 1409.24,407.004 1410.32,413.085 1411.41,418.951 1412.52,423.367 1413.65,428.858 1414.79,434.957 1415.94,440.373 1417.11,445.569 1418.3,450.659 1419.5,455.527 1420.72,460.366 1421.95,465.228 1423.2,469.602 1424.47,474.033 1425.76,478.637 1427.06,482.863 1428.39,486.894 1429.73,490.841 1431.09,494.664 1432.48,498.552 1433.88,502.421 1435.3,506.149 1436.75,509.635 1438.22,512.992 1439.71,516.39 1441.23,519.829 1442.76,523.167 1444.33,526.357 1445.92,529.453 1447.53,532.507 1449.17,535.46 1450.84,538.302 1452.54,541.151 1454.26,543.904 1456.02,546.582 1457.8,549.255 1459.62,551.867 1461.46,554.436 1463.34,556.964 1465.26,559.448 1467.21,561.885 1469.2,564.279 1471.22,566.632 1473.28,568.946 1475.38,571.223 1477.52,573.463 1479.7,575.669 1481.93,577.841 1484.2,579.981 1486.51,582.089 1488.87,584.167 1491.28,586.215 1493.74,588.235 1496.26,590.227 1498.82,592.191 1501.44,594.13 1504.12,596.043 1506.86,597.931 1509.66,599.795 1512.53,601.636 1515.46,603.454 1518.45,605.25 1521.52,607.023 1524.66,608.776 1527.88,610.508 1531.18,612.22 1534.56,613.913 1538.02,615.586 1541.57,617.241 1545.22,618.878 1548.96,620.496 1552.8,622.098 1556.74,623.682 1560.8,625.25 1564.96,626.802 1569.25,628.338 1573.65,629.859 1578.19,631.364 1582.86,632.855 1587.67,634.331 1592.63,635.794 1597.74,637.242 1603.02,638.677 1608.46,640.099 1614.08,641.508 1619.89,642.904 1625.9,644.288 1632.11,645.66 1638.55,647.02 1645.21,648.368 1652.12,649.705 1659.28,651.031 1666.71,652.346 1674.44,653.651 1682.46,654.945 1690.82,656.229 1699.51,657.503 1708.57,658.767 1718.03,660.022 1727.89,661.267 1738.2,662.503 1748.99,663.73 1760.29,664.949 1772.13,666.159 1784.56,667.36 1797.62,668.554 1811.37,669.739 1825.85,670.916 1841.13,672.086 1857.28,673.248 1874.37,674.403 1892.5,675.551 1911.75,676.692 1932.24,677.826 1954.08,678.953 1977.43,680.073 2002.44,681.188 2029.29,682.296 2058.2,683.398 2089.42,684.494 2123.23,685.584 2159.97,686.669 2200.04,687.748 2243.92,688.822 2292.18,689.891 "></polyline>
<path clip-path="url(#clip280)" d="M283.802 322.316 L1176.67 322.316 L1176.67 166.796 L283.802 166.796  Z" fill="#ffffff" fill-rule="evenodd" fill-opacity="1"></path>
<polyline clip-path="url(#clip280)" style="stroke:#000000; stroke-linecap:round; stroke-linejoin:round; stroke-width:4; stroke-opacity:1; fill:none" points="283.802,322.316 1176.67,322.316 1176.67,166.796 283.802,166.796 283.802,322.316 "></polyline>
<polyline clip-path="url(#clip280)" style="stroke:#009af9; stroke-linecap:round; stroke-linejoin:round; stroke-width:4; stroke-opacity:1; fill:none" points="307.583,218.636 450.27,218.636 "></polyline>
<path clip-path="url(#clip280)" d="M485.949 212.976 Q482.523 212.976 480.532 215.661 Q478.541 218.323 478.541 222.976 Q478.541 227.629 480.509 230.314 Q482.5 232.976 485.949 232.976 Q489.352 232.976 491.342 230.291 Q493.333 227.606 493.333 222.976 Q493.333 218.37 491.342 215.684 Q489.352 212.976 485.949 212.976 M485.949 209.365 Q491.504 209.365 494.676 212.976 Q497.847 216.587 497.847 222.976 Q497.847 229.342 494.676 232.976 Q491.504 236.587 485.949 236.587 Q480.37 236.587 477.199 232.976 Q474.051 229.342 474.051 222.976 Q474.051 216.587 477.199 212.976 Q480.37 209.365 485.949 209.365 Z" fill="#000000" fill-rule="nonzero" fill-opacity="1"></path><path clip-path="url(#clip280)" d="M519.93 213.971 Q519.213 213.555 518.356 213.37 Q517.523 213.161 516.504 213.161 Q512.893 213.161 510.949 215.522 Q509.027 217.86 509.027 222.258 L509.027 235.916 L504.745 235.916 L504.745 209.99 L509.027 209.99 L509.027 214.018 Q510.37 211.657 512.523 210.522 Q514.676 209.365 517.754 209.365 Q518.194 209.365 518.726 209.434 Q519.259 209.481 519.907 209.596 L519.93 213.971 Z" fill="#000000" fill-rule="nonzero" fill-opacity="1"></path><path clip-path="url(#clip280)" d="M524.398 209.99 L528.657 209.99 L528.657 235.916 L524.398 235.916 L524.398 209.99 M524.398 199.897 L528.657 199.897 L528.657 205.291 L524.398 205.291 L524.398 199.897 Z" fill="#000000" fill-rule="nonzero" fill-opacity="1"></path><path clip-path="url(#clip280)" d="M554.629 222.652 Q554.629 218.022 552.708 215.476 Q550.81 212.93 547.361 212.93 Q543.935 212.93 542.013 215.476 Q540.115 218.022 540.115 222.652 Q540.115 227.258 542.013 229.805 Q543.935 232.351 547.361 232.351 Q550.81 232.351 552.708 229.805 Q554.629 227.258 554.629 222.652 M558.888 232.698 Q558.888 239.318 555.948 242.536 Q553.009 245.777 546.944 245.777 Q544.699 245.777 542.708 245.43 Q540.717 245.105 538.842 244.411 L538.842 240.268 Q540.717 241.286 542.546 241.772 Q544.374 242.258 546.273 242.258 Q550.462 242.258 552.546 240.059 Q554.629 237.883 554.629 233.462 L554.629 231.356 Q553.31 233.647 551.249 234.781 Q549.189 235.916 546.319 235.916 Q541.55 235.916 538.634 232.281 Q535.717 228.647 535.717 222.652 Q535.717 216.633 538.634 212.999 Q541.55 209.365 546.319 209.365 Q549.189 209.365 551.249 210.499 Q553.31 211.633 554.629 213.925 L554.629 209.99 L558.888 209.99 L558.888 232.698 Z" fill="#000000" fill-rule="nonzero" fill-opacity="1"></path><path clip-path="url(#clip280)" d="M567.661 209.99 L571.921 209.99 L571.921 235.916 L567.661 235.916 L567.661 209.99 M567.661 199.897 L571.921 199.897 L571.921 205.291 L567.661 205.291 L567.661 199.897 Z" fill="#000000" fill-rule="nonzero" fill-opacity="1"></path><path clip-path="url(#clip280)" d="M602.383 220.268 L602.383 235.916 L598.124 235.916 L598.124 220.407 Q598.124 216.726 596.689 214.897 Q595.254 213.069 592.383 213.069 Q588.934 213.069 586.944 215.268 Q584.953 217.467 584.953 221.263 L584.953 235.916 L580.671 235.916 L580.671 209.99 L584.953 209.99 L584.953 214.018 Q586.481 211.68 588.541 210.522 Q590.624 209.365 593.333 209.365 Q597.8 209.365 600.092 212.143 Q602.383 214.897 602.383 220.268 Z" fill="#000000" fill-rule="nonzero" fill-opacity="1"></path><path clip-path="url(#clip280)" d="M637.684 205.962 L631.342 223.161 L644.05 223.161 L637.684 205.962 M635.045 201.356 L640.346 201.356 L653.517 235.916 L648.656 235.916 L645.508 227.05 L629.93 227.05 L626.781 235.916 L621.851 235.916 L635.045 201.356 Z" fill="#000000" fill-rule="nonzero" fill-opacity="1"></path><path clip-path="url(#clip280)" d="M668.61 199.944 Q665.508 205.268 664.003 210.476 Q662.499 215.684 662.499 221.032 Q662.499 226.379 664.003 231.633 Q665.531 236.865 668.61 242.166 L664.906 242.166 Q661.434 236.726 659.698 231.471 Q657.985 226.217 657.985 221.032 Q657.985 215.87 659.698 210.638 Q661.411 205.407 664.906 199.944 L668.61 199.944 Z" fill="#000000" fill-rule="nonzero" fill-opacity="1"></path><path clip-path="url(#clip280)" d="M674.397 209.99 L678.656 209.99 L683.98 230.221 L689.281 209.99 L694.304 209.99 L699.628 230.221 L704.929 209.99 L709.188 209.99 L702.406 235.916 L697.383 235.916 L691.804 214.666 L686.202 235.916 L681.179 235.916 L674.397 209.99 Z" fill="#000000" fill-rule="nonzero" fill-opacity="1"></path><path clip-path="url(#clip280)" d="M714.975 199.944 L718.679 199.944 Q722.151 205.407 723.864 210.638 Q725.6 215.87 725.6 221.032 Q725.6 226.217 723.864 231.471 Q722.151 236.726 718.679 242.166 L714.975 242.166 Q718.054 236.865 719.559 231.633 Q721.086 226.379 721.086 221.032 Q721.086 215.684 719.559 210.476 Q718.054 205.268 714.975 199.944 Z" fill="#000000" fill-rule="nonzero" fill-opacity="1"></path><polyline clip-path="url(#clip280)" style="stroke:#e26f46; stroke-linecap:round; stroke-linejoin:round; stroke-width:2; stroke-opacity:1; fill:none" points="307.583,270.476 450.27,270.476 "></polyline>
<path clip-path="url(#clip280)" d="M489.236 265.811 Q488.518 265.395 487.662 265.21 Q486.828 265.001 485.81 265.001 Q482.199 265.001 480.254 267.362 Q478.333 269.7 478.333 274.098 L478.333 287.756 L474.051 287.756 L474.051 261.83 L478.333 261.83 L478.333 265.858 Q479.676 263.497 481.828 262.362 Q483.981 261.205 487.06 261.205 Q487.5 261.205 488.032 261.274 Q488.565 261.321 489.213 261.436 L489.236 265.811 Z" fill="#000000" fill-rule="nonzero" fill-opacity="1"></path><path clip-path="url(#clip280)" d="M514.838 273.728 L514.838 275.811 L495.254 275.811 Q495.532 280.209 497.893 282.524 Q500.277 284.816 504.514 284.816 Q506.967 284.816 509.259 284.214 Q511.574 283.612 513.842 282.409 L513.842 286.436 Q511.551 287.408 509.143 287.918 Q506.736 288.427 504.259 288.427 Q498.055 288.427 494.421 284.816 Q490.81 281.205 490.81 275.047 Q490.81 268.682 494.236 264.955 Q497.685 261.205 503.518 261.205 Q508.75 261.205 511.782 264.585 Q514.838 267.941 514.838 273.728 M510.578 272.478 Q510.532 268.983 508.611 266.899 Q506.713 264.816 503.564 264.816 Q500 264.816 497.847 266.83 Q495.717 268.844 495.393 272.501 L510.578 272.478 Z" fill="#000000" fill-rule="nonzero" fill-opacity="1"></path><path clip-path="url(#clip280)" d="M540.486 262.825 L540.486 266.807 Q538.68 265.811 536.851 265.325 Q535.046 264.816 533.194 264.816 Q529.05 264.816 526.759 267.455 Q524.467 270.071 524.467 274.816 Q524.467 279.561 526.759 282.2 Q529.05 284.816 533.194 284.816 Q535.046 284.816 536.851 284.33 Q538.68 283.821 540.486 282.825 L540.486 286.76 Q538.703 287.594 536.782 288.01 Q534.884 288.427 532.731 288.427 Q526.875 288.427 523.425 284.746 Q519.976 281.066 519.976 274.816 Q519.976 268.473 523.449 264.839 Q526.944 261.205 533.009 261.205 Q534.976 261.205 536.851 261.622 Q538.726 262.015 540.486 262.825 Z" fill="#000000" fill-rule="nonzero" fill-opacity="1"></path><path clip-path="url(#clip280)" d="M557.939 264.816 Q554.513 264.816 552.523 267.501 Q550.532 270.163 550.532 274.816 Q550.532 279.469 552.499 282.154 Q554.49 284.816 557.939 284.816 Q561.342 284.816 563.333 282.131 Q565.323 279.446 565.323 274.816 Q565.323 270.21 563.333 267.524 Q561.342 264.816 557.939 264.816 M557.939 261.205 Q563.495 261.205 566.666 264.816 Q569.837 268.427 569.837 274.816 Q569.837 281.182 566.666 284.816 Q563.495 288.427 557.939 288.427 Q552.361 288.427 549.189 284.816 Q546.041 281.182 546.041 274.816 Q546.041 268.427 549.189 264.816 Q552.361 261.205 557.939 261.205 Z" fill="#000000" fill-rule="nonzero" fill-opacity="1"></path><path clip-path="url(#clip280)" d="M598.448 272.108 L598.448 287.756 L594.189 287.756 L594.189 272.247 Q594.189 268.566 592.754 266.737 Q591.319 264.909 588.448 264.909 Q584.999 264.909 583.009 267.108 Q581.018 269.307 581.018 273.103 L581.018 287.756 L576.735 287.756 L576.735 261.83 L581.018 261.83 L581.018 265.858 Q582.546 263.52 584.606 262.362 Q586.689 261.205 589.397 261.205 Q593.865 261.205 596.157 263.983 Q598.448 266.737 598.448 272.108 Z" fill="#000000" fill-rule="nonzero" fill-opacity="1"></path><path clip-path="url(#clip280)" d="M623.471 262.594 L623.471 266.622 Q621.666 265.696 619.721 265.233 Q617.777 264.77 615.694 264.77 Q612.522 264.77 610.925 265.742 Q609.351 266.714 609.351 268.659 Q609.351 270.14 610.485 270.997 Q611.619 271.83 615.045 272.594 L616.504 272.918 Q621.041 273.89 622.939 275.672 Q624.86 277.432 624.86 280.603 Q624.86 284.214 621.99 286.321 Q619.143 288.427 614.143 288.427 Q612.059 288.427 609.791 288.01 Q607.545 287.617 605.045 286.807 L605.045 282.409 Q607.407 283.635 609.698 284.26 Q611.99 284.862 614.235 284.862 Q617.244 284.862 618.865 283.844 Q620.485 282.802 620.485 280.927 Q620.485 279.191 619.305 278.265 Q618.147 277.339 614.189 276.483 L612.707 276.135 Q608.749 275.302 606.99 273.589 Q605.231 271.853 605.231 268.844 Q605.231 265.186 607.823 263.196 Q610.416 261.205 615.184 261.205 Q617.545 261.205 619.629 261.552 Q621.712 261.899 623.471 262.594 Z" fill="#000000" fill-rule="nonzero" fill-opacity="1"></path><path clip-path="url(#clip280)" d="M635.855 254.469 L635.855 261.83 L644.629 261.83 L644.629 265.14 L635.855 265.14 L635.855 279.214 Q635.855 282.385 636.712 283.288 Q637.592 284.191 640.254 284.191 L644.629 284.191 L644.629 287.756 L640.254 287.756 Q635.323 287.756 633.448 285.927 Q631.573 284.075 631.573 279.214 L631.573 265.14 L628.448 265.14 L628.448 261.83 L631.573 261.83 L631.573 254.469 L635.855 254.469 Z" fill="#000000" fill-rule="nonzero" fill-opacity="1"></path><path clip-path="url(#clip280)" d="M665.253 265.811 Q664.536 265.395 663.679 265.21 Q662.846 265.001 661.828 265.001 Q658.216 265.001 656.272 267.362 Q654.351 269.7 654.351 274.098 L654.351 287.756 L650.068 287.756 L650.068 261.83 L654.351 261.83 L654.351 265.858 Q655.693 263.497 657.846 262.362 Q659.999 261.205 663.078 261.205 Q663.517 261.205 664.05 261.274 Q664.582 261.321 665.23 261.436 L665.253 265.811 Z" fill="#000000" fill-rule="nonzero" fill-opacity="1"></path><path clip-path="url(#clip280)" d="M669.281 277.524 L669.281 261.83 L673.54 261.83 L673.54 277.362 Q673.54 281.043 674.976 282.895 Q676.411 284.723 679.281 284.723 Q682.73 284.723 684.721 282.524 Q686.735 280.325 686.735 276.529 L686.735 261.83 L690.994 261.83 L690.994 287.756 L686.735 287.756 L686.735 283.774 Q685.184 286.135 683.124 287.293 Q681.087 288.427 678.378 288.427 Q673.911 288.427 671.596 285.649 Q669.281 282.871 669.281 277.524 M679.999 261.205 L679.999 261.205 Z" fill="#000000" fill-rule="nonzero" fill-opacity="1"></path><path clip-path="url(#clip280)" d="M718.424 262.825 L718.424 266.807 Q716.619 265.811 714.79 265.325 Q712.985 264.816 711.133 264.816 Q706.989 264.816 704.698 267.455 Q702.406 270.071 702.406 274.816 Q702.406 279.561 704.698 282.2 Q706.989 284.816 711.133 284.816 Q712.985 284.816 714.79 284.33 Q716.619 283.821 718.424 282.825 L718.424 286.76 Q716.642 287.594 714.721 288.01 Q712.823 288.427 710.67 288.427 Q704.813 288.427 701.364 284.746 Q697.915 281.066 697.915 274.816 Q697.915 268.473 701.387 264.839 Q704.883 261.205 710.948 261.205 Q712.915 261.205 714.79 261.622 Q716.665 262.015 718.424 262.825 Z" fill="#000000" fill-rule="nonzero" fill-opacity="1"></path><path clip-path="url(#clip280)" d="M730.045 254.469 L730.045 261.83 L738.818 261.83 L738.818 265.14 L730.045 265.14 L730.045 279.214 Q730.045 282.385 730.901 283.288 Q731.781 284.191 734.443 284.191 L738.818 284.191 L738.818 287.756 L734.443 287.756 Q729.512 287.756 727.637 285.927 Q725.762 284.075 725.762 279.214 L725.762 265.14 L722.637 265.14 L722.637 261.83 L725.762 261.83 L725.762 254.469 L730.045 254.469 Z" fill="#000000" fill-rule="nonzero" fill-opacity="1"></path><path clip-path="url(#clip280)" d="M771.225 257.802 L764.883 275.001 L777.591 275.001 L771.225 257.802 M768.586 253.196 L773.887 253.196 L787.058 287.756 L782.197 287.756 L779.049 278.89 L763.471 278.89 L760.322 287.756 L755.392 287.756 L768.586 253.196 Z" fill="#000000" fill-rule="nonzero" fill-opacity="1"></path><path clip-path="url(#clip280)" d="M793.331 283.821 L800.97 283.821 L800.97 257.455 L792.66 259.122 L792.66 254.862 L800.924 253.196 L805.6 253.196 L805.6 283.821 L813.239 283.821 L813.239 287.756 L793.331 287.756 L793.331 283.821 Z" fill="#000000" fill-rule="nonzero" fill-opacity="1"></path><path clip-path="url(#clip280)" d="M832.313 251.784 Q829.211 257.108 827.706 262.316 Q826.202 267.524 826.202 272.872 Q826.202 278.219 827.706 283.473 Q829.234 288.705 832.313 294.006 L828.609 294.006 Q825.137 288.566 823.401 283.311 Q821.688 278.057 821.688 272.872 Q821.688 267.71 823.401 262.478 Q825.114 257.247 828.609 251.784 L832.313 251.784 Z" fill="#000000" fill-rule="nonzero" fill-opacity="1"></path><path clip-path="url(#clip280)" d="M838.1 261.83 L842.359 261.83 L847.683 282.061 L852.984 261.83 L858.007 261.83 L863.331 282.061 L868.632 261.83 L872.891 261.83 L866.109 287.756 L861.086 287.756 L855.507 266.506 L849.905 287.756 L844.882 287.756 L838.1 261.83 Z" fill="#000000" fill-rule="nonzero" fill-opacity="1"></path><path clip-path="url(#clip280)" d="M878.678 251.784 L882.382 251.784 Q885.854 257.247 887.567 262.478 Q889.303 267.71 889.303 272.872 Q889.303 278.057 887.567 283.311 Q885.854 288.566 882.382 294.006 L878.678 294.006 Q881.757 288.705 883.262 283.473 Q884.789 278.219 884.789 272.872 Q884.789 267.524 883.262 262.316 Q881.757 257.108 878.678 251.784 Z" fill="#000000" fill-rule="nonzero" fill-opacity="1"></path><path clip-path="url(#clip280)" d="M898.933 281.876 L903.817 281.876 L903.817 285.858 L900.021 293.265 L897.035 293.265 L898.933 285.858 L898.933 281.876 Z" fill="#000000" fill-rule="nonzero" fill-opacity="1"></path><path clip-path="url(#clip280)" d="M949.534 272.108 L949.534 287.756 L945.275 287.756 L945.275 272.247 Q945.275 268.566 943.84 266.737 Q942.405 264.909 939.534 264.909 Q936.085 264.909 934.095 267.108 Q932.104 269.307 932.104 273.103 L932.104 287.756 L927.821 287.756 L927.821 261.83 L932.104 261.83 L932.104 265.858 Q933.632 263.52 935.692 262.362 Q937.775 261.205 940.483 261.205 Q944.951 261.205 947.243 263.983 Q949.534 266.737 949.534 272.108 Z" fill="#000000" fill-rule="nonzero" fill-opacity="1"></path><path clip-path="url(#clip280)" d="M968.076 264.816 Q964.65 264.816 962.659 267.501 Q960.669 270.163 960.669 274.816 Q960.669 279.469 962.636 282.154 Q964.627 284.816 968.076 284.816 Q971.479 284.816 973.469 282.131 Q975.46 279.446 975.46 274.816 Q975.46 270.21 973.469 267.524 Q971.479 264.816 968.076 264.816 M968.076 261.205 Q973.631 261.205 976.803 264.816 Q979.974 268.427 979.974 274.816 Q979.974 281.182 976.803 284.816 Q973.631 288.427 968.076 288.427 Q962.497 288.427 959.326 284.816 Q956.178 281.182 956.178 274.816 Q956.178 268.427 959.326 264.816 Q962.497 261.205 968.076 261.205 Z" fill="#000000" fill-rule="nonzero" fill-opacity="1"></path><path clip-path="url(#clip280)" d="M987.034 261.83 L991.293 261.83 L991.293 287.756 L987.034 287.756 L987.034 261.83 M987.034 251.737 L991.293 251.737 L991.293 257.131 L987.034 257.131 L987.034 251.737 Z" fill="#000000" fill-rule="nonzero" fill-opacity="1"></path><path clip-path="url(#clip280)" d="M1016.73 262.594 L1016.73 266.622 Q1014.93 265.696 1012.98 265.233 Q1011.04 264.77 1008.96 264.77 Q1005.78 264.77 1004.19 265.742 Q1002.61 266.714 1002.61 268.659 Q1002.61 270.14 1003.75 270.997 Q1004.88 271.83 1008.31 272.594 L1009.77 272.918 Q1014.3 273.89 1016.2 275.672 Q1018.12 277.432 1018.12 280.603 Q1018.12 284.214 1015.25 286.321 Q1012.4 288.427 1007.4 288.427 Q1005.32 288.427 1003.05 288.01 Q1000.81 287.617 998.307 286.807 L998.307 282.409 Q1000.67 283.635 1002.96 284.26 Q1005.25 284.862 1007.5 284.862 Q1010.51 284.862 1012.13 283.844 Q1013.75 282.802 1013.75 280.927 Q1013.75 279.191 1012.57 278.265 Q1011.41 277.339 1007.45 276.483 L1005.97 276.135 Q1002.01 275.302 1000.25 273.589 Q998.492 271.853 998.492 268.844 Q998.492 265.186 1001.08 263.196 Q1003.68 261.205 1008.45 261.205 Q1010.81 261.205 1012.89 261.552 Q1014.97 261.899 1016.73 262.594 Z" fill="#000000" fill-rule="nonzero" fill-opacity="1"></path><path clip-path="url(#clip280)" d="M1047.08 273.728 L1047.08 275.811 L1027.5 275.811 Q1027.77 280.209 1030.14 282.524 Q1032.52 284.816 1036.76 284.816 Q1039.21 284.816 1041.5 284.214 Q1043.82 283.612 1046.08 282.409 L1046.08 286.436 Q1043.79 287.408 1041.39 287.918 Q1038.98 288.427 1036.5 288.427 Q1030.3 288.427 1026.66 284.816 Q1023.05 281.205 1023.05 275.047 Q1023.05 268.682 1026.48 264.955 Q1029.93 261.205 1035.76 261.205 Q1040.99 261.205 1044.02 264.585 Q1047.08 267.941 1047.08 273.728 M1042.82 272.478 Q1042.77 268.983 1040.85 266.899 Q1038.96 264.816 1035.81 264.816 Q1032.24 264.816 1030.09 266.83 Q1027.96 268.844 1027.64 272.501 L1042.82 272.478 Z" fill="#000000" fill-rule="nonzero" fill-opacity="1"></path><path clip-path="url(#clip280)" d="M1055.16 281.876 L1060.04 281.876 L1060.04 287.756 L1055.16 287.756 L1055.16 281.876 M1055.16 263.242 L1060.04 263.242 L1060.04 269.122 L1055.16 269.122 L1055.16 263.242 Z" fill="#000000" fill-rule="nonzero" fill-opacity="1"></path><path clip-path="url(#clip280)" d="M1095.71 256.274 Q1092.1 256.274 1090.27 259.839 Q1088.47 263.381 1088.47 270.51 Q1088.47 277.617 1090.27 281.182 Q1092.1 284.723 1095.71 284.723 Q1099.35 284.723 1101.15 281.182 Q1102.98 277.617 1102.98 270.51 Q1102.98 263.381 1101.15 259.839 Q1099.35 256.274 1095.71 256.274 M1095.71 252.571 Q1101.52 252.571 1104.58 257.177 Q1107.66 261.76 1107.66 270.51 Q1107.66 279.237 1104.58 283.844 Q1101.52 288.427 1095.71 288.427 Q1089.9 288.427 1086.83 283.844 Q1083.77 279.237 1083.77 270.51 Q1083.77 261.76 1086.83 257.177 Q1089.9 252.571 1095.71 252.571 Z" fill="#000000" fill-rule="nonzero" fill-opacity="1"></path><path clip-path="url(#clip280)" d="M1115.88 281.876 L1120.76 281.876 L1120.76 287.756 L1115.88 287.756 L1115.88 281.876 Z" fill="#000000" fill-rule="nonzero" fill-opacity="1"></path><path clip-path="url(#clip280)" d="M1140.95 256.274 Q1137.33 256.274 1135.51 259.839 Q1133.7 263.381 1133.7 270.51 Q1133.7 277.617 1135.51 281.182 Q1137.33 284.723 1140.95 284.723 Q1144.58 284.723 1146.39 281.182 Q1148.21 277.617 1148.21 270.51 Q1148.21 263.381 1146.39 259.839 Q1144.58 256.274 1140.95 256.274 M1140.95 252.571 Q1146.76 252.571 1149.81 257.177 Q1152.89 261.76 1152.89 270.51 Q1152.89 279.237 1149.81 283.844 Q1146.76 288.427 1140.95 288.427 Q1135.14 288.427 1132.06 283.844 Q1129 279.237 1129 270.51 Q1129 261.76 1132.06 257.177 Q1135.14 252.571 1140.95 252.571 Z" fill="#000000" fill-rule="nonzero" fill-opacity="1"></path></svg>