<svg xmlns="http://www.w3.org/2000/svg" xmlns:xlink="http://www.w3.org/1999/xlink" width="600" height="400" viewBox="0 0 2400 1600">
<defs>
  <clipPath id="clip670">
    <rect x="0" y="0" width="2400" height="1600"></rect>
  </clipPath>
</defs>
<path clip-path="url(#clip670)" d="M0 1600 L2400 1600 L2400 8.88178e-14 L0 8.88178e-14  Z" fill="#ffffff" fill-rule="evenodd" fill-opacity="1"></path>
<defs>
  <clipPath id="clip671">
    <rect x="480" y="0" width="1681" height="1600"></rect>
  </clipPath>
</defs>
<path clip-path="url(#clip670)" d="M262.551 1423.18 L2352.76 1423.18 L2352.76 123.472 L262.551 123.472  Z" fill="#ffffff" fill-rule="evenodd" fill-opacity="1"></path>
<defs>
  <clipPath id="clip672">
    <rect x="262" y="123" width="2091" height="1301"></rect>
  </clipPath>
</defs>
<polyline clip-path="url(#clip672)" style="stroke:#000000; stroke-linecap:round; stroke-linejoin:round; stroke-width:2; stroke-opacity:0.1; fill:none" points="568.194,1423.18 568.194,123.472 "></polyline>
<polyline clip-path="url(#clip672)" style="stroke:#000000; stroke-linecap:round; stroke-linejoin:round; stroke-width:2; stroke-opacity:0.1; fill:none" points="937.924,1423.18 937.924,123.472 "></polyline>
<polyline clip-path="url(#clip672)" style="stroke:#000000; stroke-linecap:round; stroke-linejoin:round; stroke-width:2; stroke-opacity:0.1; fill:none" points="1307.65,1423.18 1307.65,123.472 "></polyline>
<polyline clip-path="url(#clip672)" style="stroke:#000000; stroke-linecap:round; stroke-linejoin:round; stroke-width:2; stroke-opacity:0.1; fill:none" points="1677.38,1423.18 1677.38,123.472 "></polyline>
<polyline clip-path="url(#clip672)" style="stroke:#000000; stroke-linecap:round; stroke-linejoin:round; stroke-width:2; stroke-opacity:0.1; fill:none" points="2047.11,1423.18 2047.11,123.472 "></polyline>
<polyline clip-path="url(#clip672)" style="stroke:#000000; stroke-linecap:round; stroke-linejoin:round; stroke-width:2; stroke-opacity:0.1; fill:none" points="262.551,1386.4 2352.76,1386.4 "></polyline>
<polyline clip-path="url(#clip672)" style="stroke:#000000; stroke-linecap:round; stroke-linejoin:round; stroke-width:2; stroke-opacity:0.1; fill:none" points="262.551,1204.04 2352.76,1204.04 "></polyline>
<polyline clip-path="url(#clip672)" style="stroke:#000000; stroke-linecap:round; stroke-linejoin:round; stroke-width:2; stroke-opacity:0.1; fill:none" points="262.551,1021.69 2352.76,1021.69 "></polyline>
<polyline clip-path="url(#clip672)" style="stroke:#000000; stroke-linecap:round; stroke-linejoin:round; stroke-width:2; stroke-opacity:0.1; fill:none" points="262.551,839.342 2352.76,839.342 "></polyline>
<polyline clip-path="url(#clip672)" style="stroke:#000000; stroke-linecap:round; stroke-linejoin:round; stroke-width:2; stroke-opacity:0.1; fill:none" points="262.551,656.991 2352.76,656.991 "></polyline>
<polyline clip-path="url(#clip672)" style="stroke:#000000; stroke-linecap:round; stroke-linejoin:round; stroke-width:2; stroke-opacity:0.1; fill:none" points="262.551,474.64 2352.76,474.64 "></polyline>
<polyline clip-path="url(#clip672)" style="stroke:#000000; stroke-linecap:round; stroke-linejoin:round; stroke-width:2; stroke-opacity:0.1; fill:none" points="262.551,292.289 2352.76,292.289 "></polyline>
<polyline clip-path="url(#clip670)" style="stroke:#000000; stroke-linecap:round; stroke-linejoin:round; stroke-width:4; stroke-opacity:1; fill:none" points="262.551,1423.18 2352.76,1423.18 "></polyline>
<polyline clip-path="url(#clip670)" style="stroke:#000000; stroke-linecap:round; stroke-linejoin:round; stroke-width:4; stroke-opacity:1; fill:none" points="568.194,1423.18 568.194,1404.28 "></polyline>
<polyline clip-path="url(#clip670)" style="stroke:#000000; stroke-linecap:round; stroke-linejoin:round; stroke-width:4; stroke-opacity:1; fill:none" points="937.924,1423.18 937.924,1404.28 "></polyline>
<polyline clip-path="url(#clip670)" style="stroke:#000000; stroke-linecap:round; stroke-linejoin:round; stroke-width:4; stroke-opacity:1; fill:none" points="1307.65,1423.18 1307.65,1404.28 "></polyline>
<polyline clip-path="url(#clip670)" style="stroke:#000000; stroke-linecap:round; stroke-linejoin:round; stroke-width:4; stroke-opacity:1; fill:none" points="1677.38,1423.18 1677.38,1404.28 "></polyline>
<polyline clip-path="url(#clip670)" style="stroke:#000000; stroke-linecap:round; stroke-linejoin:round; stroke-width:4; stroke-opacity:1; fill:none" points="2047.11,1423.18 2047.11,1404.28 "></polyline>
<path clip-path="url(#clip670)" d="M537.257 1468.75 L566.933 1468.75 L566.933 1472.69 L537.257 1472.69 L537.257 1468.75 Z" fill="#000000" fill-rule="nonzero" fill-opacity="1"></path><path clip-path="url(#clip670)" d="M587.604 1466.44 Q584.456 1466.44 582.604 1468.59 Q580.775 1470.74 580.775 1474.49 Q580.775 1478.22 582.604 1480.39 Q584.456 1482.55 587.604 1482.55 Q590.752 1482.55 592.581 1480.39 Q594.433 1478.22 594.433 1474.49 Q594.433 1470.74 592.581 1468.59 Q590.752 1466.44 587.604 1466.44 M596.886 1451.78 L596.886 1456.04 Q595.127 1455.21 593.322 1454.77 Q591.539 1454.33 589.78 1454.33 Q585.15 1454.33 582.697 1457.45 Q580.266 1460.58 579.919 1466.9 Q581.285 1464.89 583.345 1463.82 Q585.405 1462.73 587.882 1462.73 Q593.09 1462.73 596.099 1465.9 Q599.132 1469.05 599.132 1474.49 Q599.132 1479.82 595.984 1483.03 Q592.835 1486.25 587.604 1486.25 Q581.609 1486.25 578.437 1481.67 Q575.266 1477.06 575.266 1468.33 Q575.266 1460.14 579.155 1455.28 Q583.044 1450.39 589.595 1450.39 Q591.354 1450.39 593.136 1450.74 Q594.942 1451.09 596.886 1451.78 Z" fill="#000000" fill-rule="nonzero" fill-opacity="1"></path><path clip-path="url(#clip670)" d="M907.392 1468.75 L937.067 1468.75 L937.067 1472.69 L907.392 1472.69 L907.392 1468.75 Z" fill="#000000" fill-rule="nonzero" fill-opacity="1"></path><path clip-path="url(#clip670)" d="M961.327 1466.95 Q964.683 1467.66 966.558 1469.93 Q968.456 1472.2 968.456 1475.53 Q968.456 1480.65 964.938 1483.45 Q961.419 1486.25 954.938 1486.25 Q952.762 1486.25 950.447 1485.81 Q948.155 1485.39 945.702 1484.54 L945.702 1480.02 Q947.646 1481.16 949.961 1481.74 Q952.276 1482.32 954.799 1482.32 Q959.197 1482.32 961.489 1480.58 Q963.803 1478.84 963.803 1475.53 Q963.803 1472.48 961.651 1470.77 Q959.521 1469.03 955.702 1469.03 L951.674 1469.03 L951.674 1465.19 L955.887 1465.19 Q959.336 1465.19 961.165 1463.82 Q962.993 1462.43 962.993 1459.84 Q962.993 1457.18 961.095 1455.77 Q959.22 1454.33 955.702 1454.33 Q953.78 1454.33 951.581 1454.75 Q949.382 1455.16 946.743 1456.04 L946.743 1451.88 Q949.405 1451.14 951.72 1450.77 Q954.058 1450.39 956.118 1450.39 Q961.442 1450.39 964.544 1452.83 Q967.646 1455.23 967.646 1459.35 Q967.646 1462.22 966.003 1464.21 Q964.359 1466.18 961.327 1466.95 Z" fill="#000000" fill-rule="nonzero" fill-opacity="1"></path><path clip-path="url(#clip670)" d="M1307.65 1454.1 Q1304.04 1454.1 1302.21 1457.66 Q1300.41 1461.2 1300.41 1468.33 Q1300.41 1475.44 1302.21 1479.01 Q1304.04 1482.55 1307.65 1482.55 Q1311.29 1482.55 1313.09 1479.01 Q1314.92 1475.44 1314.92 1468.33 Q1314.92 1461.2 1313.09 1457.66 Q1311.29 1454.1 1307.65 1454.1 M1307.65 1450.39 Q1313.46 1450.39 1316.52 1455 Q1319.6 1459.58 1319.6 1468.33 Q1319.6 1477.06 1316.52 1481.67 Q1313.46 1486.25 1307.65 1486.25 Q1301.84 1486.25 1298.76 1481.67 Q1295.71 1477.06 1295.71 1468.33 Q1295.71 1459.58 1298.76 1455 Q1301.84 1450.39 1307.65 1450.39 Z" fill="#000000" fill-rule="nonzero" fill-opacity="1"></path><path clip-path="url(#clip670)" d="M1681.63 1466.95 Q1684.99 1467.66 1686.86 1469.93 Q1688.76 1472.2 1688.76 1475.53 Q1688.76 1480.65 1685.24 1483.45 Q1681.72 1486.25 1675.24 1486.25 Q1673.07 1486.25 1670.75 1485.81 Q1668.46 1485.39 1666.01 1484.54 L1666.01 1480.02 Q1667.95 1481.16 1670.27 1481.74 Q1672.58 1482.32 1675.1 1482.32 Q1679.5 1482.32 1681.79 1480.58 Q1684.11 1478.84 1684.11 1475.53 Q1684.11 1472.48 1681.95 1470.77 Q1679.83 1469.03 1676.01 1469.03 L1671.98 1469.03 L1671.98 1465.19 L1676.19 1465.19 Q1679.64 1465.19 1681.47 1463.82 Q1683.3 1462.43 1683.3 1459.84 Q1683.3 1457.18 1681.4 1455.77 Q1679.52 1454.33 1676.01 1454.33 Q1674.08 1454.33 1671.89 1454.75 Q1669.69 1455.16 1667.05 1456.04 L1667.05 1451.88 Q1669.71 1451.14 1672.02 1450.77 Q1674.36 1450.39 1676.42 1450.39 Q1681.75 1450.39 1684.85 1452.83 Q1687.95 1455.23 1687.95 1459.35 Q1687.95 1462.22 1686.31 1464.21 Q1684.66 1466.18 1681.63 1466.95 Z" fill="#000000" fill-rule="nonzero" fill-opacity="1"></path><path clip-path="url(#clip670)" d="M2047.52 1466.44 Q2044.37 1466.44 2042.52 1468.59 Q2040.69 1470.74 2040.69 1474.49 Q2040.69 1478.22 2042.52 1480.39 Q2044.37 1482.55 2047.52 1482.55 Q2050.67 1482.55 2052.49 1480.39 Q2054.35 1478.22 2054.35 1474.49 Q2054.35 1470.74 2052.49 1468.59 Q2050.67 1466.44 2047.52 1466.44 M2056.8 1451.78 L2056.8 1456.04 Q2055.04 1455.21 2053.24 1454.77 Q2051.45 1454.33 2049.69 1454.33 Q2045.06 1454.33 2042.61 1457.45 Q2040.18 1460.58 2039.83 1466.9 Q2041.2 1464.89 2043.26 1463.82 Q2045.32 1462.73 2047.8 1462.73 Q2053 1462.73 2056.01 1465.9 Q2059.05 1469.05 2059.05 1474.49 Q2059.05 1479.82 2055.9 1483.03 Q2052.75 1486.25 2047.52 1486.25 Q2041.52 1486.25 2038.35 1481.67 Q2035.18 1477.06 2035.18 1468.33 Q2035.18 1460.14 2039.07 1455.28 Q2042.96 1450.39 2049.51 1450.39 Q2051.27 1450.39 2053.05 1450.74 Q2054.86 1451.09 2056.8 1451.78 Z" fill="#000000" fill-rule="nonzero" fill-opacity="1"></path><path clip-path="url(#clip670)" d="M1283.73 1532.4 L1289.59 1532.4 L1296.91 1560.21 L1304.2 1532.4 L1311.11 1532.4 L1318.43 1560.21 L1325.72 1532.4 L1331.57 1532.4 L1322.25 1568.04 L1315.34 1568.04 L1307.67 1538.83 L1299.97 1568.04 L1293.06 1568.04 L1283.73 1532.4 Z" fill="#000000" fill-rule="nonzero" fill-opacity="1"></path><polyline clip-path="url(#clip670)" style="stroke:#000000; stroke-linecap:round; stroke-linejoin:round; stroke-width:4; stroke-opacity:1; fill:none" points="262.551,1423.18 262.551,123.472 "></polyline>
<polyline clip-path="url(#clip670)" style="stroke:#000000; stroke-linecap:round; stroke-linejoin:round; stroke-width:4; stroke-opacity:1; fill:none" points="262.551,1386.4 281.449,1386.4 "></polyline>
<polyline clip-path="url(#clip670)" style="stroke:#000000; stroke-linecap:round; stroke-linejoin:round; stroke-width:4; stroke-opacity:1; fill:none" points="262.551,1204.04 281.449,1204.04 "></polyline>
<polyline clip-path="url(#clip670)" style="stroke:#000000; stroke-linecap:round; stroke-linejoin:round; stroke-width:4; stroke-opacity:1; fill:none" points="262.551,1021.69 281.449,1021.69 "></polyline>
<polyline clip-path="url(#clip670)" style="stroke:#000000; stroke-linecap:round; stroke-linejoin:round; stroke-width:4; stroke-opacity:1; fill:none" points="262.551,839.342 281.449,839.342 "></polyline>
<polyline clip-path="url(#clip670)" style="stroke:#000000; stroke-linecap:round; stroke-linejoin:round; stroke-width:4; stroke-opacity:1; fill:none" points="262.551,656.991 281.449,656.991 "></polyline>
<polyline clip-path="url(#clip670)" style="stroke:#000000; stroke-linecap:round; stroke-linejoin:round; stroke-width:4; stroke-opacity:1; fill:none" points="262.551,474.64 281.449,474.64 "></polyline>
<polyline clip-path="url(#clip670)" style="stroke:#000000; stroke-linecap:round; stroke-linejoin:round; stroke-width:4; stroke-opacity:1; fill:none" points="262.551,292.289 281.449,292.289 "></polyline>
<path clip-path="url(#clip670)" d="M214.607 1372.19 Q210.996 1372.19 209.167 1375.76 Q207.362 1379.3 207.362 1386.43 Q207.362 1393.54 209.167 1397.1 Q210.996 1400.64 214.607 1400.64 Q218.241 1400.64 220.047 1397.1 Q221.875 1393.54 221.875 1386.43 Q221.875 1379.3 220.047 1375.76 Q218.241 1372.19 214.607 1372.19 M214.607 1368.49 Q220.417 1368.49 223.473 1373.1 Q226.551 1377.68 226.551 1386.43 Q226.551 1395.16 223.473 1399.76 Q220.417 1404.35 214.607 1404.35 Q208.797 1404.35 205.718 1399.76 Q202.662 1395.16 202.662 1386.43 Q202.662 1377.68 205.718 1373.1 Q208.797 1368.49 214.607 1368.49 Z" fill="#000000" fill-rule="nonzero" fill-opacity="1"></path><path clip-path="url(#clip670)" d="M148.311 1217.39 L164.63 1217.39 L164.63 1221.32 L142.686 1221.32 L142.686 1217.39 Q145.348 1214.63 149.931 1210.01 Q154.538 1205.35 155.718 1204.01 Q157.964 1201.49 158.843 1199.75 Q159.746 1197.99 159.746 1196.3 Q159.746 1193.55 157.802 1191.81 Q155.88 1190.07 152.778 1190.07 Q150.579 1190.07 148.126 1190.84 Q145.695 1191.6 142.917 1193.15 L142.917 1188.43 Q145.741 1187.3 148.195 1186.72 Q150.649 1186.14 152.686 1186.14 Q158.056 1186.14 161.251 1188.82 Q164.445 1191.51 164.445 1196 Q164.445 1198.13 163.635 1200.05 Q162.848 1201.95 160.741 1204.54 Q160.163 1205.21 157.061 1208.43 Q153.959 1211.63 148.311 1217.39 Z" fill="#000000" fill-rule="nonzero" fill-opacity="1"></path><path clip-path="url(#clip670)" d="M184.445 1189.84 Q180.834 1189.84 179.005 1193.41 Q177.2 1196.95 177.2 1204.08 Q177.2 1211.19 179.005 1214.75 Q180.834 1218.29 184.445 1218.29 Q188.079 1218.29 189.885 1214.75 Q191.713 1211.19 191.713 1204.08 Q191.713 1196.95 189.885 1193.41 Q188.079 1189.84 184.445 1189.84 M184.445 1186.14 Q190.255 1186.14 193.311 1190.75 Q196.389 1195.33 196.389 1204.08 Q196.389 1212.81 193.311 1217.41 Q190.255 1222 184.445 1222 Q178.635 1222 175.556 1217.41 Q172.501 1212.81 172.501 1204.08 Q172.501 1195.33 175.556 1190.75 Q178.635 1186.14 184.445 1186.14 Z" fill="#000000" fill-rule="nonzero" fill-opacity="1"></path><path clip-path="url(#clip670)" d="M214.607 1189.84 Q210.996 1189.84 209.167 1193.41 Q207.362 1196.95 207.362 1204.08 Q207.362 1211.19 209.167 1214.75 Q210.996 1218.29 214.607 1218.29 Q218.241 1218.29 220.047 1214.75 Q221.875 1211.19 221.875 1204.08 Q221.875 1196.95 220.047 1193.41 Q218.241 1189.84 214.607 1189.84 M214.607 1186.14 Q220.417 1186.14 223.473 1190.75 Q226.551 1195.33 226.551 1204.08 Q226.551 1212.81 223.473 1217.41 Q220.417 1222 214.607 1222 Q208.797 1222 205.718 1217.41 Q202.662 1212.81 202.662 1204.08 Q202.662 1195.33 205.718 1190.75 Q208.797 1186.14 214.607 1186.14 Z" fill="#000000" fill-rule="nonzero" fill-opacity="1"></path><path clip-path="url(#clip670)" d="M157.13 1008.49 L145.325 1026.94 L157.13 1026.94 L157.13 1008.49 M155.903 1004.41 L161.783 1004.41 L161.783 1026.94 L166.714 1026.94 L166.714 1030.83 L161.783 1030.83 L161.783 1038.97 L157.13 1038.97 L157.13 1030.83 L141.529 1030.83 L141.529 1026.31 L155.903 1004.41 Z" fill="#000000" fill-rule="nonzero" fill-opacity="1"></path><path clip-path="url(#clip670)" d="M184.445 1007.49 Q180.834 1007.49 179.005 1011.06 Q177.2 1014.6 177.2 1021.73 Q177.2 1028.83 179.005 1032.4 Q180.834 1035.94 184.445 1035.94 Q188.079 1035.94 189.885 1032.4 Q191.713 1028.83 191.713 1021.73 Q191.713 1014.6 189.885 1011.06 Q188.079 1007.49 184.445 1007.49 M184.445 1003.79 Q190.255 1003.79 193.311 1008.39 Q196.389 1012.98 196.389 1021.73 Q196.389 1030.46 193.311 1035.06 Q190.255 1039.64 184.445 1039.64 Q178.635 1039.64 175.556 1035.06 Q172.501 1030.46 172.501 1021.73 Q172.501 1012.98 175.556 1008.39 Q178.635 1003.79 184.445 1003.79 Z" fill="#000000" fill-rule="nonzero" fill-opacity="1"></path><path clip-path="url(#clip670)" d="M214.607 1007.49 Q210.996 1007.49 209.167 1011.06 Q207.362 1014.6 207.362 1021.73 Q207.362 1028.83 209.167 1032.4 Q210.996 1035.94 214.607 1035.94 Q218.241 1035.94 220.047 1032.4 Q221.875 1028.83 221.875 1021.73 Q221.875 1014.6 220.047 1011.06 Q218.241 1007.49 214.607 1007.49 M214.607 1003.79 Q220.417 1003.79 223.473 1008.39 Q226.551 1012.98 226.551 1021.73 Q226.551 1030.46 223.473 1035.06 Q220.417 1039.64 214.607 1039.64 Q208.797 1039.64 205.718 1035.06 Q202.662 1030.46 202.662 1021.73 Q202.662 1012.98 205.718 1008.39 Q208.797 1003.79 214.607 1003.79 Z" fill="#000000" fill-rule="nonzero" fill-opacity="1"></path><path clip-path="url(#clip670)" d="M154.862 837.479 Q151.714 837.479 149.862 839.632 Q148.033 841.784 148.033 845.534 Q148.033 849.261 149.862 851.437 Q151.714 853.59 154.862 853.59 Q158.01 853.59 159.839 851.437 Q161.69 849.261 161.69 845.534 Q161.69 841.784 159.839 839.632 Q158.01 837.479 154.862 837.479 M164.144 822.826 L164.144 827.086 Q162.385 826.252 160.579 825.812 Q158.797 825.373 157.038 825.373 Q152.408 825.373 149.954 828.498 Q147.524 831.623 147.177 837.942 Q148.542 835.928 150.603 834.863 Q152.663 833.775 155.14 833.775 Q160.348 833.775 163.357 836.947 Q166.39 840.095 166.39 845.534 Q166.39 850.859 163.241 854.076 Q160.093 857.294 154.862 857.294 Q148.866 857.294 145.695 852.71 Q142.524 848.104 142.524 839.377 Q142.524 831.183 146.413 826.322 Q150.302 821.437 156.853 821.437 Q158.612 821.437 160.394 821.785 Q162.2 822.132 164.144 822.826 Z" fill="#000000" fill-rule="nonzero" fill-opacity="1"></path><path clip-path="url(#clip670)" d="M184.445 825.141 Q180.834 825.141 179.005 828.706 Q177.2 832.248 177.2 839.377 Q177.2 846.484 179.005 850.048 Q180.834 853.59 184.445 853.59 Q188.079 853.59 189.885 850.048 Q191.713 846.484 191.713 839.377 Q191.713 832.248 189.885 828.706 Q188.079 825.141 184.445 825.141 M184.445 821.437 Q190.255 821.437 193.311 826.044 Q196.389 830.627 196.389 839.377 Q196.389 848.104 193.311 852.71 Q190.255 857.294 184.445 857.294 Q178.635 857.294 175.556 852.71 Q172.501 848.104 172.501 839.377 Q172.501 830.627 175.556 826.044 Q178.635 821.437 184.445 821.437 Z" fill="#000000" fill-rule="nonzero" fill-opacity="1"></path><path clip-path="url(#clip670)" d="M214.607 825.141 Q210.996 825.141 209.167 828.706 Q207.362 832.248 207.362 839.377 Q207.362 846.484 209.167 850.048 Q210.996 853.59 214.607 853.59 Q218.241 853.59 220.047 850.048 Q221.875 846.484 221.875 839.377 Q221.875 832.248 220.047 828.706 Q218.241 825.141 214.607 825.141 M214.607 821.437 Q220.417 821.437 223.473 826.044 Q226.551 830.627 226.551 839.377 Q226.551 848.104 223.473 852.71 Q220.417 857.294 214.607 857.294 Q208.797 857.294 205.718 852.71 Q202.662 848.104 202.662 839.377 Q202.662 830.627 205.718 826.044 Q208.797 821.437 214.607 821.437 Z" fill="#000000" fill-rule="nonzero" fill-opacity="1"></path><path clip-path="url(#clip670)" d="M154.283 657.859 Q150.95 657.859 149.028 659.642 Q147.13 661.424 147.13 664.549 Q147.13 667.674 149.028 669.456 Q150.95 671.239 154.283 671.239 Q157.616 671.239 159.538 669.456 Q161.459 667.651 161.459 664.549 Q161.459 661.424 159.538 659.642 Q157.64 657.859 154.283 657.859 M149.607 655.869 Q146.598 655.128 144.908 653.068 Q143.241 651.008 143.241 648.045 Q143.241 643.901 146.181 641.494 Q149.144 639.086 154.283 639.086 Q159.445 639.086 162.385 641.494 Q165.325 643.901 165.325 648.045 Q165.325 651.008 163.635 653.068 Q161.968 655.128 158.982 655.869 Q162.362 656.656 164.237 658.947 Q166.135 661.239 166.135 664.549 Q166.135 669.572 163.056 672.257 Q160.001 674.943 154.283 674.943 Q148.566 674.943 145.487 672.257 Q142.431 669.572 142.431 664.549 Q142.431 661.239 144.329 658.947 Q146.228 656.656 149.607 655.869 M147.894 648.484 Q147.894 651.17 149.561 652.674 Q151.251 654.179 154.283 654.179 Q157.292 654.179 158.982 652.674 Q160.695 651.17 160.695 648.484 Q160.695 645.799 158.982 644.295 Q157.292 642.79 154.283 642.79 Q151.251 642.79 149.561 644.295 Q147.894 645.799 147.894 648.484 Z" fill="#000000" fill-rule="nonzero" fill-opacity="1"></path><path clip-path="url(#clip670)" d="M184.445 642.79 Q180.834 642.79 179.005 646.355 Q177.2 649.896 177.2 657.026 Q177.2 664.132 179.005 667.697 Q180.834 671.239 184.445 671.239 Q188.079 671.239 189.885 667.697 Q191.713 664.132 191.713 657.026 Q191.713 649.896 189.885 646.355 Q188.079 642.79 184.445 642.79 M184.445 639.086 Q190.255 639.086 193.311 643.693 Q196.389 648.276 196.389 657.026 Q196.389 665.753 193.311 670.359 Q190.255 674.943 184.445 674.943 Q178.635 674.943 175.556 670.359 Q172.501 665.753 172.501 657.026 Q172.501 648.276 175.556 643.693 Q178.635 639.086 184.445 639.086 Z" fill="#000000" fill-rule="nonzero" fill-opacity="1"></path><path clip-path="url(#clip670)" d="M214.607 642.79 Q210.996 642.79 209.167 646.355 Q207.362 649.896 207.362 657.026 Q207.362 664.132 209.167 667.697 Q210.996 671.239 214.607 671.239 Q218.241 671.239 220.047 667.697 Q221.875 664.132 221.875 657.026 Q221.875 649.896 220.047 646.355 Q218.241 642.79 214.607 642.79 M214.607 639.086 Q220.417 639.086 223.473 643.693 Q226.551 648.276 226.551 657.026 Q226.551 665.753 223.473 670.359 Q220.417 674.943 214.607 674.943 Q208.797 674.943 205.718 670.359 Q202.662 665.753 202.662 657.026 Q202.662 648.276 205.718 643.693 Q208.797 639.086 214.607 639.086 Z" fill="#000000" fill-rule="nonzero" fill-opacity="1"></path><path clip-path="url(#clip670)" d="M114.931 487.985 L122.57 487.985 L122.57 461.619 L114.26 463.286 L114.26 459.027 L122.524 457.36 L127.2 457.36 L127.2 487.985 L134.839 487.985 L134.839 491.92 L114.931 491.92 L114.931 487.985 Z" fill="#000000" fill-rule="nonzero" fill-opacity="1"></path><path clip-path="url(#clip670)" d="M154.283 460.439 Q150.672 460.439 148.843 464.004 Q147.038 467.545 147.038 474.675 Q147.038 481.781 148.843 485.346 Q150.672 488.888 154.283 488.888 Q157.917 488.888 159.723 485.346 Q161.552 481.781 161.552 474.675 Q161.552 467.545 159.723 464.004 Q157.917 460.439 154.283 460.439 M154.283 456.735 Q160.093 456.735 163.149 461.342 Q166.227 465.925 166.227 474.675 Q166.227 483.402 163.149 488.008 Q160.093 492.591 154.283 492.591 Q148.473 492.591 145.394 488.008 Q142.339 483.402 142.339 474.675 Q142.339 465.925 145.394 461.342 Q148.473 456.735 154.283 456.735 Z" fill="#000000" fill-rule="nonzero" fill-opacity="1"></path><path clip-path="url(#clip670)" d="M184.445 460.439 Q180.834 460.439 179.005 464.004 Q177.2 467.545 177.2 474.675 Q177.2 481.781 179.005 485.346 Q180.834 488.888 184.445 488.888 Q188.079 488.888 189.885 485.346 Q191.713 481.781 191.713 474.675 Q191.713 467.545 189.885 464.004 Q188.079 460.439 184.445 460.439 M184.445 456.735 Q190.255 456.735 193.311 461.342 Q196.389 465.925 196.389 474.675 Q196.389 483.402 193.311 488.008 Q190.255 492.591 184.445 492.591 Q178.635 492.591 175.556 488.008 Q172.501 483.402 172.501 474.675 Q172.501 465.925 175.556 461.342 Q178.635 456.735 184.445 456.735 Z" fill="#000000" fill-rule="nonzero" fill-opacity="1"></path><path clip-path="url(#clip670)" d="M214.607 460.439 Q210.996 460.439 209.167 464.004 Q207.362 467.545 207.362 474.675 Q207.362 481.781 209.167 485.346 Q210.996 488.888 214.607 488.888 Q218.241 488.888 220.047 485.346 Q221.875 481.781 221.875 474.675 Q221.875 467.545 220.047 464.004 Q218.241 460.439 214.607 460.439 M214.607 456.735 Q220.417 456.735 223.473 461.342 Q226.551 465.925 226.551 474.675 Q226.551 483.402 223.473 488.008 Q220.417 492.591 214.607 492.591 Q208.797 492.591 205.718 488.008 Q202.662 483.402 202.662 474.675 Q202.662 465.925 205.718 461.342 Q208.797 456.735 214.607 456.735 Z" fill="#000000" fill-rule="nonzero" fill-opacity="1"></path><path clip-path="url(#clip670)" d="M114.931 305.634 L122.57 305.634 L122.57 279.268 L114.26 280.935 L114.26 276.676 L122.524 275.009 L127.2 275.009 L127.2 305.634 L134.839 305.634 L134.839 309.569 L114.931 309.569 L114.931 305.634 Z" fill="#000000" fill-rule="nonzero" fill-opacity="1"></path><path clip-path="url(#clip670)" d="M148.311 305.634 L164.63 305.634 L164.63 309.569 L142.686 309.569 L142.686 305.634 Q145.348 302.879 149.931 298.25 Q154.538 293.597 155.718 292.254 Q157.964 289.731 158.843 287.995 Q159.746 286.236 159.746 284.546 Q159.746 281.791 157.802 280.055 Q155.88 278.319 152.778 278.319 Q150.579 278.319 148.126 279.083 Q145.695 279.847 142.917 281.398 L142.917 276.676 Q145.741 275.542 148.195 274.963 Q150.649 274.384 152.686 274.384 Q158.056 274.384 161.251 277.069 Q164.445 279.754 164.445 284.245 Q164.445 286.375 163.635 288.296 Q162.848 290.194 160.741 292.787 Q160.163 293.458 157.061 296.676 Q153.959 299.87 148.311 305.634 Z" fill="#000000" fill-rule="nonzero" fill-opacity="1"></path><path clip-path="url(#clip670)" d="M184.445 278.088 Q180.834 278.088 179.005 281.653 Q177.2 285.194 177.2 292.324 Q177.2 299.43 179.005 302.995 Q180.834 306.537 184.445 306.537 Q188.079 306.537 189.885 302.995 Q191.713 299.43 191.713 292.324 Q191.713 285.194 189.885 281.653 Q188.079 278.088 184.445 278.088 M184.445 274.384 Q190.255 274.384 193.311 278.991 Q196.389 283.574 196.389 292.324 Q196.389 301.051 193.311 305.657 Q190.255 310.24 184.445 310.24 Q178.635 310.24 175.556 305.657 Q172.501 301.051 172.501 292.324 Q172.501 283.574 175.556 278.991 Q178.635 274.384 184.445 274.384 Z" fill="#000000" fill-rule="nonzero" fill-opacity="1"></path><path clip-path="url(#clip670)" d="M214.607 278.088 Q210.996 278.088 209.167 281.653 Q207.362 285.194 207.362 292.324 Q207.362 299.43 209.167 302.995 Q210.996 306.537 214.607 306.537 Q218.241 306.537 220.047 302.995 Q221.875 299.43 221.875 292.324 Q221.875 285.194 220.047 281.653 Q218.241 278.088 214.607 278.088 M214.607 274.384 Q220.417 274.384 223.473 278.991 Q226.551 283.574 226.551 292.324 Q226.551 301.051 223.473 305.657 Q220.417 310.24 214.607 310.24 Q208.797 310.24 205.718 305.657 Q202.662 301.051 202.662 292.324 Q202.662 283.574 205.718 278.991 Q208.797 274.384 214.607 274.384 Z" fill="#000000" fill-rule="nonzero" fill-opacity="1"></path><path clip-path="url(#clip670)" d="M22.818 822.883 L46.4666 831.604 L46.4666 814.13 L22.818 822.883 M16.4842 826.511 L16.4842 819.223 L64.0042 801.112 L64.0042 807.796 L51.8138 812.125 L51.8138 833.546 L64.0042 837.874 L64.0042 844.654 L16.4842 826.511 Z" fill="#000000" fill-rule="nonzero" fill-opacity="1"></path><path clip-path="url(#clip670)" d="M14.5426 780.36 Q21.8632 784.625 29.0246 786.694 Q36.186 788.763 43.5384 788.763 Q50.8908 788.763 58.1159 786.694 Q65.3091 784.593 72.5979 780.36 L72.5979 785.453 Q65.1182 790.227 57.8931 792.614 Q50.668 794.969 43.5384 794.969 Q36.4406 794.969 29.2474 792.614 Q22.0542 790.259 14.5426 785.453 L14.5426 780.36 Z" fill="#000000" fill-rule="nonzero" fill-opacity="1"></path><path clip-path="url(#clip670)" d="M28.3562 772.403 L28.3562 766.547 L56.1743 759.226 L28.3562 751.937 L28.3562 745.03 L56.1743 737.71 L28.3562 730.421 L28.3562 724.565 L64.0042 733.89 L64.0042 740.797 L34.7856 748.468 L64.0042 756.17 L64.0042 763.077 L28.3562 772.403 Z" fill="#000000" fill-rule="nonzero" fill-opacity="1"></path><path clip-path="url(#clip670)" d="M14.5426 716.608 L14.5426 711.515 Q22.0542 706.741 29.2474 704.385 Q36.4406 701.998 43.5384 701.998 Q50.668 701.998 57.8931 704.385 Q65.1182 706.741 72.5979 711.515 L72.5979 716.608 Q65.3091 712.374 58.1159 710.305 Q50.8908 708.205 43.5384 708.205 Q36.186 708.205 29.0246 710.305 Q21.8632 712.374 14.5426 716.608 Z" fill="#000000" fill-rule="nonzero" fill-opacity="1"></path><path clip-path="url(#clip670)" d="M978.295 12.096 L990.488 12.096 L1005.92 53.2532 L1021.44 12.096 L1033.63 12.096 L1033.63 72.576 L1025.65 72.576 L1025.65 19.4686 L1010.05 60.9499 L1001.83 60.9499 L986.235 19.4686 L986.235 72.576 L978.295 72.576 L978.295 12.096 Z" fill="#000000" fill-rule="nonzero" fill-opacity="1"></path><path clip-path="url(#clip670)" d="M1070.17 49.7694 Q1061.14 49.7694 1057.65 51.8354 Q1054.17 53.9013 1054.17 58.8839 Q1054.17 62.8538 1056.76 65.2034 Q1059.39 67.5124 1063.89 67.5124 Q1070.09 67.5124 1073.82 63.1374 Q1077.58 58.7219 1077.58 51.4303 L1077.58 49.7694 L1070.17 49.7694 M1085.04 46.6907 L1085.04 72.576 L1077.58 72.576 L1077.58 65.6895 Q1075.03 69.8214 1071.22 71.8063 Q1067.41 73.7508 1061.91 73.7508 Q1054.94 73.7508 1050.81 69.8619 Q1046.71 65.9325 1046.71 59.3701 Q1046.71 51.7138 1051.82 47.825 Q1056.96 43.9361 1067.13 43.9361 L1077.58 43.9361 L1077.58 43.2069 Q1077.58 38.0623 1074.18 35.2672 Q1070.82 32.4315 1064.7 32.4315 Q1060.81 32.4315 1057.13 33.3632 Q1053.44 34.295 1050.04 36.1584 L1050.04 29.2718 Q1054.13 27.692 1057.98 26.9223 Q1061.82 26.1121 1065.47 26.1121 Q1075.31 26.1121 1080.18 31.2163 Q1085.04 36.3204 1085.04 46.6907 Z" fill="#000000" fill-rule="nonzero" fill-opacity="1"></path><path clip-path="url(#clip670)" d="M1138.1 27.2059 L1121.7 49.2833 L1138.95 72.576 L1130.16 72.576 L1116.96 54.752 L1103.75 72.576 L1094.96 72.576 L1112.58 48.8377 L1096.46 27.2059 L1105.25 27.2059 L1117.28 43.369 L1129.31 27.2059 L1138.1 27.2059 Z" fill="#000000" fill-rule="nonzero" fill-opacity="1"></path><path clip-path="url(#clip670)" d="M1149.81 12.096 L1188.05 12.096 L1188.05 18.9825 L1157.99 18.9825 L1157.99 36.8875 L1186.79 36.8875 L1186.79 43.7741 L1157.99 43.7741 L1157.99 65.6895 L1188.78 65.6895 L1188.78 72.576 L1149.81 72.576 L1149.81 12.096 Z" fill="#000000" fill-rule="nonzero" fill-opacity="1"></path><path clip-path="url(#clip670)" d="M1239.62 45.1919 L1239.62 72.576 L1232.16 72.576 L1232.16 45.4349 Q1232.16 38.994 1229.65 35.7938 Q1227.14 32.5936 1222.12 32.5936 Q1216.08 32.5936 1212.6 36.4419 Q1209.12 40.2903 1209.12 46.9338 L1209.12 72.576 L1201.62 72.576 L1201.62 27.2059 L1209.12 27.2059 L1209.12 34.2544 Q1211.79 30.163 1215.39 28.1376 Q1219.04 26.1121 1223.78 26.1121 Q1231.6 26.1121 1235.61 30.9732 Q1239.62 35.7938 1239.62 45.1919 Z" fill="#000000" fill-rule="nonzero" fill-opacity="1"></path><path clip-path="url(#clip670)" d="M1261.86 14.324 L1261.86 27.2059 L1277.21 27.2059 L1277.21 32.9987 L1261.86 32.9987 L1261.86 57.6282 Q1261.86 63.1779 1263.36 64.7578 Q1264.9 66.3376 1269.55 66.3376 L1277.21 66.3376 L1277.21 72.576 L1269.55 72.576 Q1260.93 72.576 1257.65 69.3758 Q1254.36 66.1351 1254.36 57.6282 L1254.36 32.9987 L1248.9 32.9987 L1248.9 27.2059 L1254.36 27.2059 L1254.36 14.324 L1261.86 14.324 Z" fill="#000000" fill-rule="nonzero" fill-opacity="1"></path><path clip-path="url(#clip670)" d="M1332.63 16.7545 L1332.63 25.383 Q1328.5 21.5346 1323.8 19.6307 Q1319.14 17.7268 1313.87 17.7268 Q1303.5 17.7268 1297.99 24.0867 Q1292.48 30.4061 1292.48 42.3968 Q1292.48 54.3469 1297.99 60.7069 Q1303.5 67.0263 1313.87 67.0263 Q1319.14 67.0263 1323.8 65.1223 Q1328.5 63.2184 1332.63 59.3701 L1332.63 67.9175 Q1328.33 70.8341 1323.51 72.2924 Q1318.73 73.7508 1313.39 73.7508 Q1299.65 73.7508 1291.75 65.3654 Q1283.85 56.9395 1283.85 42.3968 Q1283.85 27.8135 1291.75 19.4281 Q1299.65 11.0023 1313.39 11.0023 Q1318.81 11.0023 1323.59 12.4606 Q1328.41 13.8784 1332.63 16.7545 Z" fill="#000000" fill-rule="nonzero" fill-opacity="1"></path><path clip-path="url(#clip670)" d="M1382.66 45.1919 L1382.66 72.576 L1375.2 72.576 L1375.2 45.4349 Q1375.2 38.994 1372.69 35.7938 Q1370.18 32.5936 1365.16 32.5936 Q1359.12 32.5936 1355.64 36.4419 Q1352.15 40.2903 1352.15 46.9338 L1352.15 72.576 L1344.66 72.576 L1344.66 9.54393 L1352.15 9.54393 L1352.15 34.2544 Q1354.83 30.163 1358.43 28.1376 Q1362.08 26.1121 1366.82 26.1121 Q1374.64 26.1121 1378.65 30.9732 Q1382.66 35.7938 1382.66 45.1919 Z" fill="#000000" fill-rule="nonzero" fill-opacity="1"></path><path clip-path="url(#clip670)" d="M1397.52 27.2059 L1404.98 27.2059 L1404.98 72.576 L1397.52 72.576 L1397.52 27.2059 M1397.52 9.54393 L1404.98 9.54393 L1404.98 18.9825 L1397.52 18.9825 L1397.52 9.54393 Z" fill="#000000" fill-rule="nonzero" fill-opacity="1"></path><path clip-path="url(#clip670)" d="M1428.67 65.6895 L1457.23 65.6895 L1457.23 72.576 L1418.83 72.576 L1418.83 65.6895 Q1423.49 60.8689 1431.51 52.7671 Q1439.57 44.6248 1441.64 42.2752 Q1445.57 37.8598 1447.11 34.8216 Q1448.69 31.7429 1448.69 28.7857 Q1448.69 23.9651 1445.28 20.927 Q1441.92 17.8888 1436.49 17.8888 Q1432.64 17.8888 1428.35 19.2256 Q1424.1 20.5624 1419.24 23.2765 L1419.24 15.0127 Q1424.18 13.0277 1428.47 12.015 Q1432.77 11.0023 1436.33 11.0023 Q1445.73 11.0023 1451.32 15.7013 Q1456.91 20.4004 1456.91 28.2591 Q1456.91 31.9859 1455.49 35.3482 Q1454.11 38.6699 1450.43 43.2069 Q1449.41 44.3817 1443.99 50.0125 Q1438.56 55.6027 1428.67 65.6895 Z" fill="#000000" fill-rule="nonzero" fill-opacity="1"></path><path clip-path="url(#clip670)" d="M1473.07 9.54393 L1480.57 9.54393 L1480.57 46.7717 L1502.81 27.2059 L1512.33 27.2059 L1488.26 48.4326 L1513.34 72.576 L1503.62 72.576 L1480.57 50.4176 L1480.57 72.576 L1473.07 72.576 L1473.07 9.54393 Z" fill="#000000" fill-rule="nonzero" fill-opacity="1"></path><path clip-path="url(#clip670)" d="M1521.4 27.2059 L1528.85 27.2059 L1528.85 72.576 L1521.4 72.576 L1521.4 27.2059 M1521.4 9.54393 L1528.85 9.54393 L1528.85 18.9825 L1521.4 18.9825 L1521.4 9.54393 Z" fill="#000000" fill-rule="nonzero" fill-opacity="1"></path><path clip-path="url(#clip670)" d="M1582.16 45.1919 L1582.16 72.576 L1574.71 72.576 L1574.71 45.4349 Q1574.71 38.994 1572.2 35.7938 Q1569.69 32.5936 1564.66 32.5936 Q1558.63 32.5936 1555.14 36.4419 Q1551.66 40.2903 1551.66 46.9338 L1551.66 72.576 L1544.17 72.576 L1544.17 27.2059 L1551.66 27.2059 L1551.66 34.2544 Q1554.33 30.163 1557.94 28.1376 Q1561.58 26.1121 1566.32 26.1121 Q1574.14 26.1121 1578.15 30.9732 Q1582.16 35.7938 1582.16 45.1919 Z" fill="#000000" fill-rule="nonzero" fill-opacity="1"></path><path clip-path="url(#clip670)" d="M1596.75 9.54393 L1604.24 9.54393 L1604.24 46.7717 L1626.48 27.2059 L1636 27.2059 L1611.94 48.4326 L1637.01 72.576 L1627.29 72.576 L1604.24 50.4176 L1604.24 72.576 L1596.75 72.576 L1596.75 9.54393 Z" fill="#000000" fill-rule="nonzero" fill-opacity="1"></path><polyline clip-path="url(#clip672)" style="stroke:#009af9; stroke-linecap:round; stroke-linejoin:round; stroke-width:4; stroke-opacity:1; fill:none" points="321.708,1386.4 324.173,1386.4 326.638,1386.4 329.103,1386.4 331.567,1386.4 334.032,1386.4 336.497,1386.4 338.962,1386.4 341.427,1386.4 343.892,1386.4 346.357,1386.4 348.821,1386.4 351.286,1386.4 353.751,1386.4 356.216,1386.4 358.681,1386.4 361.146,1386.4 363.611,1386.4 366.076,1386.4 368.54,1386.4 371.005,1386.4 373.47,1386.4 375.935,1386.4 378.4,1386.4 380.865,1386.4 383.33,1386.4 385.794,1386.4 388.259,1386.4 390.724,1386.4 393.189,1386.4 395.654,1386.4 398.119,1386.4 400.584,1386.4 403.048,1386.4 405.513,1386.4 407.978,1386.4 410.443,1386.4 412.908,1386.4 415.373,1386.4 417.838,1386.4 420.303,1386.4 422.767,1386.4 425.232,1386.4 427.697,1386.4 430.162,1386.4 432.627,1386.4 435.092,1386.4 437.557,1386.4 440.021,1386.4 442.486,1386.4 444.951,1386.4 447.416,1386.4 449.881,1386.4 452.346,1386.4 454.811,1386.4 457.275,1386.4 459.74,1386.4 462.205,1386.4 464.67,1386.4 467.135,1386.4 469.6,1386.4 472.065,1386.4 474.53,1386.4 476.994,1386.4 479.459,1386.4 481.924,1386.4 484.389,1386.4 486.854,1386.4 489.319,1386.4 491.784,1386.4 494.248,1386.4 496.713,1386.4 499.178,1386.4 501.643,1386.4 504.108,1386.4 506.573,1386.4 509.038,1386.4 511.502,1386.4 513.967,1386.4 516.432,1386.4 518.897,1386.4 521.362,1386.4 523.827,1386.4 526.292,1386.4 528.757,1386.4 531.221,1386.4 533.686,1386.4 536.151,1386.4 538.616,1386.4 541.081,1386.4 543.546,1386.4 546.011,1386.4 548.475,1386.4 550.94,1386.4 553.405,1386.4 555.87,1386.4 558.335,1386.4 560.8,1386.4 563.265,1386.4 565.729,1386.4 568.194,1386.4 570.659,1386.4 573.124,1386.4 575.589,1386.4 578.054,1386.4 580.519,1386.4 582.984,1386.4 585.448,1386.4 587.913,1386.4 590.378,1386.39 592.843,1386.39 595.308,1386.39 597.773,1386.39 600.238,1386.39 602.702,1386.39 605.167,1386.39 607.632,1386.39 610.097,1386.39 612.562,1386.39 615.027,1386.39 617.492,1386.39 619.957,1386.39 622.421,1386.39 624.886,1386.39 627.351,1386.39 629.816,1386.39 632.281,1386.39 634.746,1386.39 637.211,1386.39 639.675,1386.39 642.14,1386.39 644.605,1386.39 647.07,1386.38 649.535,1386.38 652,1386.38 654.465,1386.38 656.929,1386.38 659.394,1386.38 661.859,1386.38 664.324,1386.37 666.789,1386.37 669.254,1386.37 671.719,1386.37 674.184,1386.37 676.648,1386.36 679.113,1386.36 681.578,1386.36 684.043,1386.36 686.508,1386.36 688.973,1386.35 691.438,1386.35 693.902,1386.35 696.367,1386.35 698.832,1386.34 701.297,1386.34 703.762,1386.34 706.227,1386.34 708.692,1386.34 711.156,1386.34 713.621,1386.33 716.086,1386.33 718.551,1386.33 721.016,1386.33 723.481,1386.33 725.946,1386.33 728.411,1386.33 730.875,1386.33 733.34,1386.33 735.805,1386.33 738.27,1386.33 740.735,1386.33 743.2,1386.34 745.665,1386.34 748.129,1386.34 750.594,1386.34 753.059,1386.34 755.524,1386.35 757.989,1386.35 760.454,1386.35 762.919,1386.35 765.383,1386.35 767.848,1386.36 770.313,1386.36 772.778,1386.36 775.243,1386.36 777.708,1386.37 780.173,1386.37 782.638,1386.37 785.102,1386.37 787.567,1386.37 790.032,1386.38 792.497,1386.38 794.962,1386.38 797.427,1386.38 799.892,1386.38 802.356,1386.38 804.821,1386.39 807.286,1386.39 809.751,1386.39 812.216,1386.39 814.681,1386.39 817.146,1386.39 819.61,1386.39 822.075,1386.39 824.54,1386.39 827.005,1386.39 829.47,1386.39 831.935,1386.39 834.4,1386.39 836.865,1386.39 839.329,1386.39 841.794,1386.39 844.259,1386.39 846.724,1386.39 849.189,1386.4 851.654,1386.4 854.119,1386.4 856.583,1386.4 859.048,1386.4 861.513,1386.4 863.978,1386.4 866.443,1386.4 868.908,1386.4 871.373,1386.4 873.837,1386.4 876.302,1386.4 878.767,1386.4 881.232,1386.4 883.697,1386.4 886.162,1386.4 888.627,1386.4 891.092,1386.4 893.556,1386.4 896.021,1386.4 898.486,1386.4 900.951,1386.4 903.416,1386.4 905.881,1386.4 908.346,1386.4 910.81,1386.4 913.275,1386.4 915.74,1386.4 918.205,1386.4 920.67,1386.4 923.135,1386.4 925.6,1386.4 928.065,1386.4 930.529,1386.4 932.994,1386.4 935.459,1386.4 937.924,1386.4 940.389,1386.4 942.854,1386.4 945.319,1386.4 947.783,1386.4 950.248,1386.4 952.713,1386.4 955.178,1386.4 957.643,1386.4 960.108,1386.4 962.573,1386.4 965.037,1386.4 967.502,1386.4 969.967,1386.4 972.432,1386.4 974.897,1386.4 977.362,1386.4 979.827,1386.4 982.292,1386.4 984.756,1386.4 987.221,1386.4 989.686,1386.4 992.151,1386.4 994.616,1386.4 997.081,1386.4 999.546,1386.4 1002.01,1386.4 1004.48,1386.4 1006.94,1386.4 1009.41,1386.4 1011.87,1386.4 1014.33,1386.4 1016.8,1386.4 1019.26,1386.4 1021.73,1386.4 1024.19,1386.4 1026.66,1386.4 1029.12,1386.4 1031.59,1386.4 1034.05,1386.4 1036.52,1386.4 1038.98,1386.4 1041.45,1386.4 1043.91,1386.4 1046.38,1386.4 1048.84,1386.4 1051.31,1386.4 1053.77,1386.4 1056.24,1386.4 1058.7,1386.4 1061.17,1386.4 1063.63,1386.4 1066.1,1386.4 1068.56,1386.4 1071.03,1386.4 1073.49,1386.4 1075.96,1386.39 1078.42,1386.39 1080.89,1386.39 1083.35,1386.39 1085.82,1386.39 1088.28,1386.38 1090.75,1386.36 1093.21,1386.34 1095.68,1386.29 1098.14,1386.21 1100.6,1386.05 1103.07,1385.79 1105.53,1385.35 1108,1384.63 1110.46,1383.47 1112.93,1381.71 1115.39,1379.15 1117.86,1375.64 1120.32,1371.13 1122.79,1365.83 1125.25,1360.24 1127.72,1355.18 1130.18,1351.67 1132.65,1350.65 1135.11,1352.59 1137.58,1357.25 1140.04,1363.66 1142.51,1370.5 1144.97,1376.51 1147.44,1380.98 1149.9,1383.8 1152.37,1385.32 1154.83,1386.02 1157.3,1386.28 1159.76,1386.37 1162.23,1386.39 1164.69,1386.39 1167.16,1386.4 1169.62,1386.4 1172.09,1386.4 1174.55,1386.4 1177.02,1386.4 1179.48,1386.4 1181.95,1386.4 1184.41,1386.4 1186.88,1386.4 1189.34,1386.4 1191.8,1386.4 1194.27,1386.4 1196.73,1386.4 1199.2,1386.4 1201.66,1386.4 1204.13,1386.4 1206.59,1386.4 1209.06,1386.4 1211.52,1386.4 1213.99,1386.4 1216.45,1386.4 1218.92,1386.4 1221.38,1386.4 1223.85,1386.4 1226.31,1386.4 1228.78,1386.4 1231.24,1386.4 1233.71,1386.4 1236.17,1386.4 1238.64,1386.4 1241.1,1386.4 1243.57,1386.4 1246.03,1386.4 1248.5,1386.4 1250.96,1386.4 1253.43,1386.4 1255.89,1386.4 1258.36,1386.4 1260.82,1386.4 1263.29,1386.4 1265.75,1386.4 1268.22,1386.4 1270.68,1386.4 1273.15,1386.4 1275.61,1386.4 1278.08,1386.4 1280.54,1386.4 1283,1386.4 1285.47,1386.4 1287.93,1386.4 1290.4,1386.4 1292.86,1386.4 1295.33,1386.4 1297.79,1386.4 1300.26,1386.4 1302.72,1386.18 1305.19,1250.2 1307.65,160.256 1310.12,1250.19 1312.58,1386.18 1315.05,1386.4 1317.51,1386.4 1319.98,1386.4 1322.44,1386.4 1324.91,1386.4 1327.37,1386.4 1329.84,1386.4 1332.3,1386.4 1334.77,1386.4 1337.23,1386.4 1339.7,1386.4 1342.16,1386.4 1344.63,1386.4 1347.09,1386.4 1349.56,1386.4 1352.02,1386.4 1354.49,1386.4 1356.95,1386.4 1359.42,1386.4 1361.88,1386.4 1364.35,1386.4 1366.81,1386.4 1369.28,1386.4 1371.74,1386.4 1374.2,1386.4 1376.67,1386.4 1379.13,1386.4 1381.6,1386.4 1384.06,1386.4 1386.53,1386.4 1388.99,1386.4 1391.46,1386.4 1393.92,1386.4 1396.39,1386.4 1398.85,1386.4 1401.32,1386.4 1403.78,1386.4 1406.25,1386.4 1408.71,1386.4 1411.18,1386.4 1413.64,1386.4 1416.11,1386.4 1418.57,1386.4 1421.04,1386.4 1423.5,1386.4 1425.97,1386.4 1428.43,1386.4 1430.9,1386.4 1433.36,1386.4 1435.83,1386.4 1438.29,1386.4 1440.76,1386.4 1443.22,1386.4 1445.69,1386.4 1448.15,1386.4 1450.62,1386.39 1453.08,1386.39 1455.55,1386.37 1458.01,1386.28 1460.48,1386.01 1462.94,1385.32 1465.4,1383.8 1467.87,1380.97 1470.33,1376.5 1472.8,1370.5 1475.26,1363.68 1477.73,1357.27 1480.19,1352.62 1482.66,1350.68 1485.12,1351.7 1487.59,1355.19 1490.05,1360.24 1492.52,1365.82 1494.98,1371.11 1497.45,1375.61 1499.91,1379.13 1502.38,1381.69 1504.84,1383.46 1507.31,1384.61 1509.77,1385.34 1512.24,1385.79 1514.7,1386.05 1517.17,1386.2 1519.63,1386.29 1522.1,1386.34 1524.56,1386.36 1527.03,1386.38 1529.49,1386.39 1531.96,1386.39 1534.42,1386.39 1536.89,1386.39 1539.35,1386.39 1541.82,1386.4 1544.28,1386.4 1546.75,1386.4 1549.21,1386.4 1551.68,1386.4 1554.14,1386.4 1556.6,1386.4 1559.07,1386.4 1561.53,1386.4 1564,1386.4 1566.46,1386.4 1568.93,1386.4 1571.39,1386.4 1573.86,1386.4 1576.32,1386.4 1578.79,1386.4 1581.25,1386.4 1583.72,1386.4 1586.18,1386.4 1588.65,1386.4 1591.11,1386.4 1593.58,1386.4 1596.04,1386.4 1598.51,1386.4 1600.97,1386.4 1603.44,1386.4 1605.9,1386.4 1608.37,1386.4 1610.83,1386.4 1613.3,1386.4 1615.76,1386.4 1618.23,1386.4 1620.69,1386.4 1623.16,1386.4 1625.62,1386.4 1628.09,1386.4 1630.55,1386.4 1633.02,1386.4 1635.48,1386.4 1637.95,1386.4 1640.41,1386.4 1642.88,1386.4 1645.34,1386.4 1647.8,1386.4 1650.27,1386.4 1652.73,1386.4 1655.2,1386.4 1657.66,1386.4 1660.13,1386.4 1662.59,1386.4 1665.06,1386.4 1667.52,1386.4 1669.99,1386.4 1672.45,1386.4 1674.92,1386.4 1677.38,1386.4 1679.85,1386.4 1682.31,1386.4 1684.78,1386.4 1687.24,1386.4 1689.71,1386.4 1692.17,1386.4 1694.64,1386.4 1697.1,1386.4 1699.57,1386.4 1702.03,1386.4 1704.5,1386.4 1706.96,1386.4 1709.43,1386.4 1711.89,1386.4 1714.36,1386.4 1716.82,1386.4 1719.29,1386.4 1721.75,1386.4 1724.22,1386.4 1726.68,1386.4 1729.15,1386.4 1731.61,1386.4 1734.08,1386.4 1736.54,1386.4 1739,1386.4 1741.47,1386.4 1743.93,1386.4 1746.4,1386.4 1748.86,1386.4 1751.33,1386.4 1753.79,1386.4 1756.26,1386.4 1758.72,1386.4 1761.19,1386.4 1763.65,1386.4 1766.12,1386.4 1768.58,1386.39 1771.05,1386.39 1773.51,1386.39 1775.98,1386.39 1778.44,1386.39 1780.91,1386.39 1783.37,1386.39 1785.84,1386.39 1788.3,1386.39 1790.77,1386.39 1793.23,1386.39 1795.7,1386.39 1798.16,1386.39 1800.63,1386.39 1803.09,1386.39 1805.56,1386.39 1808.02,1386.39 1810.49,1386.39 1812.95,1386.39 1815.42,1386.38 1817.88,1386.38 1820.35,1386.38 1822.81,1386.38 1825.28,1386.38 1827.74,1386.38 1830.2,1386.37 1832.67,1386.37 1835.13,1386.37 1837.6,1386.37 1840.06,1386.36 1842.53,1386.36 1844.99,1386.36 1847.46,1386.36 1849.92,1386.36 1852.39,1386.35 1854.85,1386.35 1857.32,1386.35 1859.78,1386.35 1862.25,1386.34 1864.71,1386.34 1867.18,1386.34 1869.64,1386.34 1872.11,1386.34 1874.57,1386.34 1877.04,1386.33 1879.5,1386.33 1881.97,1386.33 1884.43,1386.33 1886.9,1386.33 1889.36,1386.33 1891.83,1386.33 1894.29,1386.33 1896.76,1386.33 1899.22,1386.33 1901.69,1386.33 1904.15,1386.34 1906.62,1386.34 1909.08,1386.34 1911.55,1386.34 1914.01,1386.34 1916.47,1386.34 1918.94,1386.35 1921.4,1386.35 1923.87,1386.35 1926.33,1386.35 1928.8,1386.35 1931.26,1386.36 1933.73,1386.36 1936.19,1386.36 1938.66,1386.36 1941.12,1386.36 1943.59,1386.37 1946.05,1386.37 1948.52,1386.37 1950.98,1386.37 1953.45,1386.37 1955.91,1386.38 1958.38,1386.38 1960.84,1386.38 1963.31,1386.38 1965.77,1386.38 1968.24,1386.38 1970.7,1386.38 1973.17,1386.39 1975.63,1386.39 1978.1,1386.39 1980.56,1386.39 1983.03,1386.39 1985.49,1386.39 1987.96,1386.39 1990.42,1386.39 1992.89,1386.39 1995.35,1386.39 1997.82,1386.39 2000.28,1386.39 2002.75,1386.39 2005.21,1386.39 2007.67,1386.39 2010.14,1386.39 2012.6,1386.39 2015.07,1386.39 2017.53,1386.39 2020,1386.39 2022.46,1386.39 2024.93,1386.39 2027.39,1386.39 2029.86,1386.4 2032.32,1386.4 2034.79,1386.4 2037.25,1386.4 2039.72,1386.4 2042.18,1386.4 2044.65,1386.4 2047.11,1386.4 2049.58,1386.4 2052.04,1386.4 2054.51,1386.4 2056.97,1386.4 2059.44,1386.4 2061.9,1386.4 2064.37,1386.4 2066.83,1386.4 2069.3,1386.4 2071.76,1386.4 2074.23,1386.4 2076.69,1386.4 2079.16,1386.4 2081.62,1386.4 2084.09,1386.4 2086.55,1386.4 2089.02,1386.4 2091.48,1386.4 2093.95,1386.4 2096.41,1386.4 2098.87,1386.4 2101.34,1386.4 2103.8,1386.4 2106.27,1386.4 2108.73,1386.4 2111.2,1386.4 2113.66,1386.4 2116.13,1386.4 2118.59,1386.4 2121.06,1386.4 2123.52,1386.4 2125.99,1386.4 2128.45,1386.4 2130.92,1386.4 2133.38,1386.4 2135.85,1386.4 2138.31,1386.4 2140.78,1386.4 2143.24,1386.4 2145.71,1386.4 2148.17,1386.4 2150.64,1386.4 2153.1,1386.4 2155.57,1386.4 2158.03,1386.4 2160.5,1386.4 2162.96,1386.4 2165.43,1386.4 2167.89,1386.4 2170.36,1386.4 2172.82,1386.4 2175.29,1386.4 2177.75,1386.4 2180.22,1386.4 2182.68,1386.4 2185.15,1386.4 2187.61,1386.4 2190.07,1386.4 2192.54,1386.4 2195,1386.4 2197.47,1386.4 2199.93,1386.4 2202.4,1386.4 2204.86,1386.4 2207.33,1386.4 2209.79,1386.4 2212.26,1386.4 2214.72,1386.4 2217.19,1386.4 2219.65,1386.4 2222.12,1386.4 2224.58,1386.4 2227.05,1386.4 2229.51,1386.4 2231.98,1386.4 2234.44,1386.4 2236.91,1386.4 2239.37,1386.4 2241.84,1386.4 2244.3,1386.4 2246.77,1386.4 2249.23,1386.4 2251.7,1386.4 2254.16,1386.4 2256.63,1386.4 2259.09,1386.4 2261.56,1386.4 2264.02,1386.4 2266.49,1386.4 2268.95,1386.4 2271.42,1386.4 2273.88,1386.4 2276.35,1386.4 2278.81,1386.4 2281.27,1386.4 2283.74,1386.4 2286.2,1386.4 2288.67,1386.4 2291.13,1386.4 2293.6,1386.4 "></polyline>
<path clip-path="url(#clip670)" d="M1629.71 270.476 L2283.08 270.476 L2283.08 166.796 L1629.71 166.796  Z" fill="#ffffff" fill-rule="evenodd" fill-opacity="1"></path>
<polyline clip-path="url(#clip670)" style="stroke:#000000; stroke-linecap:round; stroke-linejoin:round; stroke-width:4; stroke-opacity:1; fill:none" points="1629.71,270.476 2283.08,270.476 2283.08,166.796 1629.71,166.796 1629.71,270.476 "></polyline>
<polyline clip-path="url(#clip670)" style="stroke:#009af9; stroke-linecap:round; stroke-linejoin:round; stroke-width:4; stroke-opacity:1; fill:none" points="1652.94,218.636 1792.28,218.636 "></polyline>
<path clip-path="url(#clip670)" d="M1830.69 213.971 Q1829.98 213.555 1829.12 213.37 Q1828.29 213.161 1827.27 213.161 Q1823.66 213.161 1821.71 215.522 Q1819.79 217.86 1819.79 222.258 L1819.79 235.916 L1815.51 235.916 L1815.51 209.99 L1819.79 209.99 L1819.79 214.018 Q1821.13 211.657 1823.29 210.522 Q1825.44 209.365 1828.52 209.365 Q1828.96 209.365 1829.49 209.434 Q1830.02 209.481 1830.67 209.596 L1830.69 213.971 Z" fill="#000000" fill-rule="nonzero" fill-opacity="1"></path><path clip-path="url(#clip670)" d="M1856.3 221.888 L1856.3 223.971 L1836.71 223.971 Q1836.99 228.369 1839.35 230.684 Q1841.74 232.976 1845.97 232.976 Q1848.42 232.976 1850.72 232.374 Q1853.03 231.772 1855.3 230.569 L1855.3 234.596 Q1853.01 235.568 1850.6 236.078 Q1848.19 236.587 1845.72 236.587 Q1839.51 236.587 1835.88 232.976 Q1832.27 229.365 1832.27 223.207 Q1832.27 216.842 1835.69 213.115 Q1839.14 209.365 1844.98 209.365 Q1850.21 209.365 1853.24 212.745 Q1856.3 216.101 1856.3 221.888 M1852.04 220.638 Q1851.99 217.143 1850.07 215.059 Q1848.17 212.976 1845.02 212.976 Q1841.46 212.976 1839.3 214.99 Q1837.17 217.004 1836.85 220.661 L1852.04 220.638 Z" fill="#000000" fill-rule="nonzero" fill-opacity="1"></path><path clip-path="url(#clip670)" d="M1881.94 210.985 L1881.94 214.967 Q1880.14 213.971 1878.31 213.485 Q1876.5 212.976 1874.65 212.976 Q1870.51 212.976 1868.22 215.615 Q1865.92 218.231 1865.92 222.976 Q1865.92 227.721 1868.22 230.36 Q1870.51 232.976 1874.65 232.976 Q1876.5 232.976 1878.31 232.49 Q1880.14 231.981 1881.94 230.985 L1881.94 234.92 Q1880.16 235.754 1878.24 236.17 Q1876.34 236.587 1874.19 236.587 Q1868.33 236.587 1864.88 232.906 Q1861.43 229.226 1861.43 222.976 Q1861.43 216.633 1864.91 212.999 Q1868.4 209.365 1874.47 209.365 Q1876.43 209.365 1878.31 209.782 Q1880.18 210.175 1881.94 210.985 Z" fill="#000000" fill-rule="nonzero" fill-opacity="1"></path><path clip-path="url(#clip670)" d="M1899.4 212.976 Q1895.97 212.976 1893.98 215.661 Q1891.99 218.323 1891.99 222.976 Q1891.99 227.629 1893.96 230.314 Q1895.95 232.976 1899.4 232.976 Q1902.8 232.976 1904.79 230.291 Q1906.78 227.606 1906.78 222.976 Q1906.78 218.37 1904.79 215.684 Q1902.8 212.976 1899.4 212.976 M1899.4 209.365 Q1904.95 209.365 1908.12 212.976 Q1911.29 216.587 1911.29 222.976 Q1911.29 229.342 1908.12 232.976 Q1904.95 236.587 1899.4 236.587 Q1893.82 236.587 1890.65 232.976 Q1887.5 229.342 1887.5 222.976 Q1887.5 216.587 1890.65 212.976 Q1893.82 209.365 1899.4 209.365 Z" fill="#000000" fill-rule="nonzero" fill-opacity="1"></path><path clip-path="url(#clip670)" d="M1939.91 220.268 L1939.91 235.916 L1935.65 235.916 L1935.65 220.407 Q1935.65 216.726 1934.21 214.897 Q1932.78 213.069 1929.91 213.069 Q1926.46 213.069 1924.47 215.268 Q1922.48 217.467 1922.48 221.263 L1922.48 235.916 L1918.19 235.916 L1918.19 209.99 L1922.48 209.99 L1922.48 214.018 Q1924 211.68 1926.06 210.522 Q1928.15 209.365 1930.86 209.365 Q1935.32 209.365 1937.61 212.143 Q1939.91 214.897 1939.91 220.268 Z" fill="#000000" fill-rule="nonzero" fill-opacity="1"></path><path clip-path="url(#clip670)" d="M1964.93 210.754 L1964.93 214.782 Q1963.12 213.856 1961.18 213.393 Q1959.23 212.93 1957.15 212.93 Q1953.98 212.93 1952.38 213.902 Q1950.81 214.874 1950.81 216.819 Q1950.81 218.3 1951.94 219.157 Q1953.08 219.99 1956.5 220.754 L1957.96 221.078 Q1962.5 222.05 1964.4 223.832 Q1966.32 225.592 1966.32 228.763 Q1966.32 232.374 1963.45 234.481 Q1960.6 236.587 1955.6 236.587 Q1953.52 236.587 1951.25 236.17 Q1949 235.777 1946.5 234.967 L1946.5 230.569 Q1948.86 231.795 1951.16 232.42 Q1953.45 233.022 1955.69 233.022 Q1958.7 233.022 1960.32 232.004 Q1961.94 230.962 1961.94 229.087 Q1961.94 227.351 1960.76 226.425 Q1959.6 225.499 1955.65 224.643 L1954.17 224.295 Q1950.21 223.462 1948.45 221.749 Q1946.69 220.013 1946.69 217.004 Q1946.69 213.346 1949.28 211.356 Q1951.87 209.365 1956.64 209.365 Q1959 209.365 1961.09 209.712 Q1963.17 210.059 1964.93 210.754 Z" fill="#000000" fill-rule="nonzero" fill-opacity="1"></path><path clip-path="url(#clip670)" d="M1977.31 202.629 L1977.31 209.99 L1986.09 209.99 L1986.09 213.3 L1977.31 213.3 L1977.31 227.374 Q1977.31 230.545 1978.17 231.448 Q1979.05 232.351 1981.71 232.351 L1986.09 232.351 L1986.09 235.916 L1981.71 235.916 Q1976.78 235.916 1974.91 234.087 Q1973.03 232.235 1973.03 227.374 L1973.03 213.3 L1969.91 213.3 L1969.91 209.99 L1973.03 209.99 L1973.03 202.629 L1977.31 202.629 Z" fill="#000000" fill-rule="nonzero" fill-opacity="1"></path><path clip-path="url(#clip670)" d="M2006.71 213.971 Q2005.99 213.555 2005.14 213.37 Q2004.3 213.161 2003.29 213.161 Q1999.67 213.161 1997.73 215.522 Q1995.81 217.86 1995.81 222.258 L1995.81 235.916 L1991.53 235.916 L1991.53 209.99 L1995.81 209.99 L1995.81 214.018 Q1997.15 211.657 1999.3 210.522 Q2001.46 209.365 2004.54 209.365 Q2004.98 209.365 2005.51 209.434 Q2006.04 209.481 2006.69 209.596 L2006.71 213.971 Z" fill="#000000" fill-rule="nonzero" fill-opacity="1"></path><path clip-path="url(#clip670)" d="M2010.74 225.684 L2010.74 209.99 L2015 209.99 L2015 225.522 Q2015 229.203 2016.43 231.055 Q2017.87 232.883 2020.74 232.883 Q2024.19 232.883 2026.18 230.684 Q2028.19 228.485 2028.19 224.689 L2028.19 209.99 L2032.45 209.99 L2032.45 235.916 L2028.19 235.916 L2028.19 231.934 Q2026.64 234.295 2024.58 235.453 Q2022.54 236.587 2019.84 236.587 Q2015.37 236.587 2013.05 233.809 Q2010.74 231.031 2010.74 225.684 M2021.46 209.365 L2021.46 209.365 Z" fill="#000000" fill-rule="nonzero" fill-opacity="1"></path><path clip-path="url(#clip670)" d="M2059.88 210.985 L2059.88 214.967 Q2058.08 213.971 2056.25 213.485 Q2054.44 212.976 2052.59 212.976 Q2048.45 212.976 2046.16 215.615 Q2043.86 218.231 2043.86 222.976 Q2043.86 227.721 2046.16 230.36 Q2048.45 232.976 2052.59 232.976 Q2054.44 232.976 2056.25 232.49 Q2058.08 231.981 2059.88 230.985 L2059.88 234.92 Q2058.1 235.754 2056.18 236.17 Q2054.28 236.587 2052.13 236.587 Q2046.27 236.587 2042.82 232.906 Q2039.37 229.226 2039.37 222.976 Q2039.37 216.633 2042.85 212.999 Q2046.34 209.365 2052.41 209.365 Q2054.37 209.365 2056.25 209.782 Q2058.12 210.175 2059.88 210.985 Z" fill="#000000" fill-rule="nonzero" fill-opacity="1"></path><path clip-path="url(#clip670)" d="M2071.5 202.629 L2071.5 209.99 L2080.28 209.99 L2080.28 213.3 L2071.5 213.3 L2071.5 227.374 Q2071.5 230.545 2072.36 231.448 Q2073.24 232.351 2075.9 232.351 L2080.28 232.351 L2080.28 235.916 L2075.9 235.916 Q2070.97 235.916 2069.1 234.087 Q2067.22 232.235 2067.22 227.374 L2067.22 213.3 L2064.1 213.3 L2064.1 209.99 L2067.22 209.99 L2067.22 202.629 L2071.5 202.629 Z" fill="#000000" fill-rule="nonzero" fill-opacity="1"></path><path clip-path="url(#clip670)" d="M2108.05 221.888 L2108.05 223.971 L2088.47 223.971 Q2088.75 228.369 2091.11 230.684 Q2093.49 232.976 2097.73 232.976 Q2100.18 232.976 2102.47 232.374 Q2104.79 231.772 2107.06 230.569 L2107.06 234.596 Q2104.77 235.568 2102.36 236.078 Q2099.95 236.587 2097.47 236.587 Q2091.27 236.587 2087.64 232.976 Q2084.03 229.365 2084.03 223.207 Q2084.03 216.842 2087.45 213.115 Q2090.9 209.365 2096.73 209.365 Q2101.97 209.365 2105 212.745 Q2108.05 216.101 2108.05 221.888 M2103.79 220.638 Q2103.75 217.143 2101.83 215.059 Q2099.93 212.976 2096.78 212.976 Q2093.22 212.976 2091.06 214.99 Q2088.93 217.004 2088.61 220.661 L2103.79 220.638 Z" fill="#000000" fill-rule="nonzero" fill-opacity="1"></path><path clip-path="url(#clip670)" d="M2132.1 213.925 L2132.1 199.897 L2136.36 199.897 L2136.36 235.916 L2132.1 235.916 L2132.1 232.027 Q2130.76 234.342 2128.7 235.476 Q2126.66 236.587 2123.79 236.587 Q2119.09 236.587 2116.13 232.837 Q2113.19 229.087 2113.19 222.976 Q2113.19 216.865 2116.13 213.115 Q2119.09 209.365 2123.79 209.365 Q2126.66 209.365 2128.7 210.499 Q2130.76 211.61 2132.1 213.925 M2117.59 222.976 Q2117.59 227.675 2119.51 230.36 Q2121.46 233.022 2124.84 233.022 Q2128.22 233.022 2130.16 230.36 Q2132.1 227.675 2132.1 222.976 Q2132.1 218.277 2130.16 215.615 Q2128.22 212.93 2124.84 212.93 Q2121.46 212.93 2119.51 215.615 Q2117.59 218.277 2117.59 222.976 Z" fill="#000000" fill-rule="nonzero" fill-opacity="1"></path><path clip-path="url(#clip670)" d="M2171.94 205.962 L2165.6 223.161 L2178.31 223.161 L2171.94 205.962 M2169.3 201.356 L2174.6 201.356 L2187.77 235.916 L2182.91 235.916 L2179.77 227.05 L2164.19 227.05 L2161.04 235.916 L2156.11 235.916 L2169.3 201.356 Z" fill="#000000" fill-rule="nonzero" fill-opacity="1"></path><path clip-path="url(#clip670)" d="M2202.87 199.944 Q2199.77 205.268 2198.26 210.476 Q2196.76 215.684 2196.76 221.032 Q2196.76 226.379 2198.26 231.633 Q2199.79 236.865 2202.87 242.166 L2199.16 242.166 Q2195.69 236.726 2193.96 231.471 Q2192.24 226.217 2192.24 221.032 Q2192.24 215.87 2193.96 210.638 Q2195.67 205.407 2199.16 199.944 L2202.87 199.944 Z" fill="#000000" fill-rule="nonzero" fill-opacity="1"></path><path clip-path="url(#clip670)" d="M2208.65 209.99 L2212.91 209.99 L2218.24 230.221 L2223.54 209.99 L2228.56 209.99 L2233.89 230.221 L2239.19 209.99 L2243.45 209.99 L2236.66 235.916 L2231.64 235.916 L2226.06 214.666 L2220.46 235.916 L2215.44 235.916 L2208.65 209.99 Z" fill="#000000" fill-rule="nonzero" fill-opacity="1"></path><path clip-path="url(#clip670)" d="M2249.23 199.944 L2252.94 199.944 Q2256.41 205.407 2258.12 210.638 Q2259.86 215.87 2259.86 221.032 Q2259.86 226.217 2258.12 231.471 Q2256.41 236.726 2252.94 242.166 L2249.23 242.166 Q2252.31 236.865 2253.82 231.633 Q2255.34 226.379 2255.34 221.032 Q2255.34 215.684 2253.82 210.476 Q2252.31 205.268 2249.23 199.944 Z" fill="#000000" fill-rule="nonzero" fill-opacity="1"></path></svg>