<svg xmlns="http://www.w3.org/2000/svg" xmlns:xlink="http://www.w3.org/1999/xlink" width="600" height="400" viewBox="0 0 2400 1600">
<defs>
  <clipPath id="clip160">
    <rect x="0" y="0" width="2400" height="1600"></rect>
  </clipPath>
</defs>
<path clip-path="url(#clip160)" d="M0 1600 L2400 1600 L2400 8.88178e-14 L0 8.88178e-14  Z" fill="#ffffff" fill-rule="evenodd" fill-opacity="1"></path>
<defs>
  <clipPath id="clip161">
    <rect x="480" y="0" width="1681" height="1600"></rect>
  </clipPath>
</defs>
<path clip-path="url(#clip160)" d="M170.857 1486.45 L2352.76 1486.45 L2352.76 123.472 L170.857 123.472  Z" fill="#ffffff" fill-rule="evenodd" fill-opacity="1"></path>
<defs>
  <clipPath id="clip162">
    <rect x="170" y="123" width="2183" height="1364"></rect>
  </clipPath>
</defs>
<polyline clip-path="url(#clip162)" style="stroke:#000000; stroke-linecap:round; stroke-linejoin:round; stroke-width:2; stroke-opacity:0.1; fill:none" points="489.909,1486.45 489.909,123.472 "></polyline>
<polyline clip-path="url(#clip162)" style="stroke:#000000; stroke-linecap:round; stroke-linejoin:round; stroke-width:2; stroke-opacity:0.1; fill:none" points="875.858,1486.45 875.858,123.472 "></polyline>
<polyline clip-path="url(#clip162)" style="stroke:#000000; stroke-linecap:round; stroke-linejoin:round; stroke-width:2; stroke-opacity:0.1; fill:none" points="1261.81,1486.45 1261.81,123.472 "></polyline>
<polyline clip-path="url(#clip162)" style="stroke:#000000; stroke-linecap:round; stroke-linejoin:round; stroke-width:2; stroke-opacity:0.1; fill:none" points="1647.76,1486.45 1647.76,123.472 "></polyline>
<polyline clip-path="url(#clip162)" style="stroke:#000000; stroke-linecap:round; stroke-linejoin:round; stroke-width:2; stroke-opacity:0.1; fill:none" points="2033.7,1486.45 2033.7,123.472 "></polyline>
<polyline clip-path="url(#clip162)" style="stroke:#000000; stroke-linecap:round; stroke-linejoin:round; stroke-width:2; stroke-opacity:0.1; fill:none" points="170.857,1447.87 2352.76,1447.87 "></polyline>
<polyline clip-path="url(#clip162)" style="stroke:#000000; stroke-linecap:round; stroke-linejoin:round; stroke-width:2; stroke-opacity:0.1; fill:none" points="170.857,1053.95 2352.76,1053.95 "></polyline>
<polyline clip-path="url(#clip162)" style="stroke:#000000; stroke-linecap:round; stroke-linejoin:round; stroke-width:2; stroke-opacity:0.1; fill:none" points="170.857,660.023 2352.76,660.023 "></polyline>
<polyline clip-path="url(#clip162)" style="stroke:#000000; stroke-linecap:round; stroke-linejoin:round; stroke-width:2; stroke-opacity:0.1; fill:none" points="170.857,266.099 2352.76,266.099 "></polyline>
<polyline clip-path="url(#clip160)" style="stroke:#000000; stroke-linecap:round; stroke-linejoin:round; stroke-width:4; stroke-opacity:1; fill:none" points="170.857,1486.45 2352.76,1486.45 "></polyline>
<polyline clip-path="url(#clip160)" style="stroke:#000000; stroke-linecap:round; stroke-linejoin:round; stroke-width:4; stroke-opacity:1; fill:none" points="489.909,1486.45 489.909,1467.55 "></polyline>
<polyline clip-path="url(#clip160)" style="stroke:#000000; stroke-linecap:round; stroke-linejoin:round; stroke-width:4; stroke-opacity:1; fill:none" points="875.858,1486.45 875.858,1467.55 "></polyline>
<polyline clip-path="url(#clip160)" style="stroke:#000000; stroke-linecap:round; stroke-linejoin:round; stroke-width:4; stroke-opacity:1; fill:none" points="1261.81,1486.45 1261.81,1467.55 "></polyline>
<polyline clip-path="url(#clip160)" style="stroke:#000000; stroke-linecap:round; stroke-linejoin:round; stroke-width:4; stroke-opacity:1; fill:none" points="1647.76,1486.45 1647.76,1467.55 "></polyline>
<polyline clip-path="url(#clip160)" style="stroke:#000000; stroke-linecap:round; stroke-linejoin:round; stroke-width:4; stroke-opacity:1; fill:none" points="2033.7,1486.45 2033.7,1467.55 "></polyline>
<path clip-path="url(#clip160)" d="M458.971 1532.02 L488.647 1532.02 L488.647 1535.95 L458.971 1535.95 L458.971 1532.02 Z" fill="#000000" fill-rule="nonzero" fill-opacity="1"></path><path clip-path="url(#clip160)" d="M509.318 1529.7 Q506.17 1529.7 504.318 1531.86 Q502.49 1534.01 502.49 1537.76 Q502.49 1541.49 504.318 1543.66 Q506.17 1545.82 509.318 1545.82 Q512.466 1545.82 514.295 1543.66 Q516.147 1541.49 516.147 1537.76 Q516.147 1534.01 514.295 1531.86 Q512.466 1529.7 509.318 1529.7 M518.601 1515.05 L518.601 1519.31 Q516.841 1518.48 515.036 1518.04 Q513.253 1517.6 511.494 1517.6 Q506.865 1517.6 504.411 1520.72 Q501.98 1523.85 501.633 1530.17 Q502.999 1528.15 505.059 1527.09 Q507.119 1526 509.596 1526 Q514.804 1526 517.814 1529.17 Q520.846 1532.32 520.846 1537.76 Q520.846 1543.08 517.698 1546.3 Q514.55 1549.52 509.318 1549.52 Q503.323 1549.52 500.152 1544.94 Q496.98 1540.33 496.98 1531.6 Q496.98 1523.41 500.869 1518.55 Q504.758 1513.66 511.309 1513.66 Q513.068 1513.66 514.851 1514.01 Q516.656 1514.36 518.601 1515.05 Z" fill="#000000" fill-rule="nonzero" fill-opacity="1"></path><path clip-path="url(#clip160)" d="M845.325 1532.02 L875.001 1532.02 L875.001 1535.95 L845.325 1535.95 L845.325 1532.02 Z" fill="#000000" fill-rule="nonzero" fill-opacity="1"></path><path clip-path="url(#clip160)" d="M899.26 1530.21 Q902.617 1530.93 904.492 1533.2 Q906.39 1535.47 906.39 1538.8 Q906.39 1543.92 902.871 1546.72 Q899.353 1549.52 892.871 1549.52 Q890.696 1549.52 888.381 1549.08 Q886.089 1548.66 883.635 1547.81 L883.635 1543.29 Q885.58 1544.43 887.895 1545.01 Q890.209 1545.58 892.733 1545.58 Q897.131 1545.58 899.422 1543.85 Q901.737 1542.11 901.737 1538.8 Q901.737 1535.75 899.584 1534.03 Q897.455 1532.3 893.635 1532.3 L889.608 1532.3 L889.608 1528.45 L893.821 1528.45 Q897.27 1528.45 899.098 1527.09 Q900.927 1525.7 900.927 1523.11 Q900.927 1520.45 899.029 1519.03 Q897.154 1517.6 893.635 1517.6 Q891.714 1517.6 889.515 1518.01 Q887.316 1518.43 884.677 1519.31 L884.677 1515.14 Q887.339 1514.4 889.654 1514.03 Q891.992 1513.66 894.052 1513.66 Q899.376 1513.66 902.478 1516.09 Q905.58 1518.5 905.58 1522.62 Q905.58 1525.49 903.936 1527.48 Q902.293 1529.45 899.26 1530.21 Z" fill="#000000" fill-rule="nonzero" fill-opacity="1"></path><path clip-path="url(#clip160)" d="M1261.81 1517.37 Q1258.2 1517.37 1256.37 1520.93 Q1254.56 1524.47 1254.56 1531.6 Q1254.56 1538.71 1256.37 1542.27 Q1258.2 1545.82 1261.81 1545.82 Q1265.44 1545.82 1267.25 1542.27 Q1269.08 1538.71 1269.08 1531.6 Q1269.08 1524.47 1267.25 1520.93 Q1265.44 1517.37 1261.81 1517.37 M1261.81 1513.66 Q1267.62 1513.66 1270.67 1518.27 Q1273.75 1522.85 1273.75 1531.6 Q1273.75 1540.33 1270.67 1544.94 Q1267.62 1549.52 1261.81 1549.52 Q1256 1549.52 1252.92 1544.94 Q1249.86 1540.33 1249.86 1531.6 Q1249.86 1522.85 1252.92 1518.27 Q1256 1513.66 1261.81 1513.66 Z" fill="#000000" fill-rule="nonzero" fill-opacity="1"></path><path clip-path="url(#clip160)" d="M1652 1530.21 Q1655.36 1530.93 1657.23 1533.2 Q1659.13 1535.47 1659.13 1538.8 Q1659.13 1543.92 1655.61 1546.72 Q1652.1 1549.52 1645.61 1549.52 Q1643.44 1549.52 1641.12 1549.08 Q1638.83 1548.66 1636.38 1547.81 L1636.38 1543.29 Q1638.32 1544.43 1640.64 1545.01 Q1642.95 1545.58 1645.48 1545.58 Q1649.87 1545.58 1652.17 1543.85 Q1654.48 1542.11 1654.48 1538.8 Q1654.48 1535.75 1652.33 1534.03 Q1650.2 1532.3 1646.38 1532.3 L1642.35 1532.3 L1642.35 1528.45 L1646.56 1528.45 Q1650.01 1528.45 1651.84 1527.09 Q1653.67 1525.7 1653.67 1523.11 Q1653.67 1520.45 1651.77 1519.03 Q1649.9 1517.6 1646.38 1517.6 Q1644.46 1517.6 1642.26 1518.01 Q1640.06 1518.43 1637.42 1519.31 L1637.42 1515.14 Q1640.08 1514.4 1642.4 1514.03 Q1644.73 1513.66 1646.8 1513.66 Q1652.12 1513.66 1655.22 1516.09 Q1658.32 1518.5 1658.32 1522.62 Q1658.32 1525.49 1656.68 1527.48 Q1655.04 1529.45 1652 1530.21 Z" fill="#000000" fill-rule="nonzero" fill-opacity="1"></path><path clip-path="url(#clip160)" d="M2034.11 1529.7 Q2030.96 1529.7 2029.11 1531.86 Q2027.28 1534.01 2027.28 1537.76 Q2027.28 1541.49 2029.11 1543.66 Q2030.96 1545.82 2034.11 1545.82 Q2037.26 1545.82 2039.09 1543.66 Q2040.94 1541.49 2040.94 1537.76 Q2040.94 1534.01 2039.09 1531.86 Q2037.26 1529.7 2034.11 1529.7 M2043.39 1515.05 L2043.39 1519.31 Q2041.63 1518.48 2039.83 1518.04 Q2038.04 1517.6 2036.29 1517.6 Q2031.66 1517.6 2029.2 1520.72 Q2026.77 1523.85 2026.42 1530.17 Q2027.79 1528.15 2029.85 1527.09 Q2031.91 1526 2034.39 1526 Q2039.6 1526 2042.61 1529.17 Q2045.64 1532.32 2045.64 1537.76 Q2045.64 1543.08 2042.49 1546.3 Q2039.34 1549.52 2034.11 1549.52 Q2028.11 1549.52 2024.94 1544.94 Q2021.77 1540.33 2021.77 1531.6 Q2021.77 1523.41 2025.66 1518.55 Q2029.55 1513.66 2036.1 1513.66 Q2037.86 1513.66 2039.64 1514.01 Q2041.45 1514.36 2043.39 1515.05 Z" fill="#000000" fill-rule="nonzero" fill-opacity="1"></path><polyline clip-path="url(#clip160)" style="stroke:#000000; stroke-linecap:round; stroke-linejoin:round; stroke-width:4; stroke-opacity:1; fill:none" points="170.857,1486.45 170.857,123.472 "></polyline>
<polyline clip-path="url(#clip160)" style="stroke:#000000; stroke-linecap:round; stroke-linejoin:round; stroke-width:4; stroke-opacity:1; fill:none" points="170.857,1447.87 189.755,1447.87 "></polyline>
<polyline clip-path="url(#clip160)" style="stroke:#000000; stroke-linecap:round; stroke-linejoin:round; stroke-width:4; stroke-opacity:1; fill:none" points="170.857,1053.95 189.755,1053.95 "></polyline>
<polyline clip-path="url(#clip160)" style="stroke:#000000; stroke-linecap:round; stroke-linejoin:round; stroke-width:4; stroke-opacity:1; fill:none" points="170.857,660.023 189.755,660.023 "></polyline>
<polyline clip-path="url(#clip160)" style="stroke:#000000; stroke-linecap:round; stroke-linejoin:round; stroke-width:4; stroke-opacity:1; fill:none" points="170.857,266.099 189.755,266.099 "></polyline>
<path clip-path="url(#clip160)" d="M122.913 1433.67 Q119.302 1433.67 117.473 1437.24 Q115.668 1440.78 115.668 1447.91 Q115.668 1455.01 117.473 1458.58 Q119.302 1462.12 122.913 1462.12 Q126.547 1462.12 128.353 1458.58 Q130.182 1455.01 130.182 1447.91 Q130.182 1440.78 128.353 1437.24 Q126.547 1433.67 122.913 1433.67 M122.913 1429.97 Q128.723 1429.97 131.779 1434.57 Q134.857 1439.16 134.857 1447.91 Q134.857 1456.63 131.779 1461.24 Q128.723 1465.82 122.913 1465.82 Q117.103 1465.82 114.024 1461.24 Q110.969 1456.63 110.969 1447.91 Q110.969 1439.16 114.024 1434.57 Q117.103 1429.97 122.913 1429.97 Z" fill="#000000" fill-rule="nonzero" fill-opacity="1"></path><path clip-path="url(#clip160)" d="M53.3995 1067.29 L61.0384 1067.29 L61.0384 1040.93 L52.7282 1042.59 L52.7282 1038.33 L60.9921 1036.67 L65.668 1036.67 L65.668 1067.29 L73.3068 1067.29 L73.3068 1071.23 L53.3995 1071.23 L53.3995 1067.29 Z" fill="#000000" fill-rule="nonzero" fill-opacity="1"></path><path clip-path="url(#clip160)" d="M92.7512 1039.75 Q89.1401 1039.75 87.3114 1043.31 Q85.5058 1046.85 85.5058 1053.98 Q85.5058 1061.09 87.3114 1064.65 Q89.1401 1068.2 92.7512 1068.2 Q96.3854 1068.2 98.1909 1064.65 Q100.02 1061.09 100.02 1053.98 Q100.02 1046.85 98.1909 1043.31 Q96.3854 1039.75 92.7512 1039.75 M92.7512 1036.04 Q98.5613 1036.04 101.617 1040.65 Q104.696 1045.23 104.696 1053.98 Q104.696 1062.71 101.617 1067.32 Q98.5613 1071.9 92.7512 1071.9 Q86.941 1071.9 83.8623 1067.32 Q80.8068 1062.71 80.8068 1053.98 Q80.8068 1045.23 83.8623 1040.65 Q86.941 1036.04 92.7512 1036.04 Z" fill="#000000" fill-rule="nonzero" fill-opacity="1"></path><path clip-path="url(#clip160)" d="M122.913 1039.75 Q119.302 1039.75 117.473 1043.31 Q115.668 1046.85 115.668 1053.98 Q115.668 1061.09 117.473 1064.65 Q119.302 1068.2 122.913 1068.2 Q126.547 1068.2 128.353 1064.65 Q130.182 1061.09 130.182 1053.98 Q130.182 1046.85 128.353 1043.31 Q126.547 1039.75 122.913 1039.75 M122.913 1036.04 Q128.723 1036.04 131.779 1040.65 Q134.857 1045.23 134.857 1053.98 Q134.857 1062.71 131.779 1067.32 Q128.723 1071.9 122.913 1071.9 Q117.103 1071.9 114.024 1067.32 Q110.969 1062.71 110.969 1053.98 Q110.969 1045.23 114.024 1040.65 Q117.103 1036.04 122.913 1036.04 Z" fill="#000000" fill-rule="nonzero" fill-opacity="1"></path><path clip-path="url(#clip160)" d="M56.6171 673.368 L72.9365 673.368 L72.9365 677.303 L50.9921 677.303 L50.9921 673.368 Q53.6541 670.614 58.2375 665.984 Q62.8439 661.331 64.0245 659.989 Q66.2698 657.466 67.1494 655.73 Q68.0522 653.97 68.0522 652.28 Q68.0522 649.526 66.1078 647.79 Q64.1865 646.054 61.0847 646.054 Q58.8856 646.054 56.4319 646.818 Q54.0014 647.581 51.2236 649.132 L51.2236 644.41 Q54.0477 643.276 56.5014 642.697 Q58.955 642.118 60.9921 642.118 Q66.3624 642.118 69.5568 644.804 Q72.7513 647.489 72.7513 651.98 Q72.7513 654.109 71.9411 656.03 Q71.1541 657.929 69.0476 660.521 Q68.4689 661.192 65.367 664.41 Q62.2652 667.604 56.6171 673.368 Z" fill="#000000" fill-rule="nonzero" fill-opacity="1"></path><path clip-path="url(#clip160)" d="M92.7512 645.822 Q89.1401 645.822 87.3114 649.387 Q85.5058 652.929 85.5058 660.058 Q85.5058 667.165 87.3114 670.729 Q89.1401 674.271 92.7512 674.271 Q96.3854 674.271 98.1909 670.729 Q100.02 667.165 100.02 660.058 Q100.02 652.929 98.1909 649.387 Q96.3854 645.822 92.7512 645.822 M92.7512 642.118 Q98.5613 642.118 101.617 646.725 Q104.696 651.308 104.696 660.058 Q104.696 668.785 101.617 673.391 Q98.5613 677.975 92.7512 677.975 Q86.941 677.975 83.8623 673.391 Q80.8068 668.785 80.8068 660.058 Q80.8068 651.308 83.8623 646.725 Q86.941 642.118 92.7512 642.118 Z" fill="#000000" fill-rule="nonzero" fill-opacity="1"></path><path clip-path="url(#clip160)" d="M122.913 645.822 Q119.302 645.822 117.473 649.387 Q115.668 652.929 115.668 660.058 Q115.668 667.165 117.473 670.729 Q119.302 674.271 122.913 674.271 Q126.547 674.271 128.353 670.729 Q130.182 667.165 130.182 660.058 Q130.182 652.929 128.353 649.387 Q126.547 645.822 122.913 645.822 M122.913 642.118 Q128.723 642.118 131.779 646.725 Q134.857 651.308 134.857 660.058 Q134.857 668.785 131.779 673.391 Q128.723 677.975 122.913 677.975 Q117.103 677.975 114.024 673.391 Q110.969 668.785 110.969 660.058 Q110.969 651.308 114.024 646.725 Q117.103 642.118 122.913 642.118 Z" fill="#000000" fill-rule="nonzero" fill-opacity="1"></path><path clip-path="url(#clip160)" d="M66.7559 264.745 Q70.1124 265.462 71.9874 267.731 Q73.8855 269.999 73.8855 273.332 Q73.8855 278.448 70.367 281.249 Q66.8485 284.05 60.3671 284.05 Q58.1912 284.05 55.8764 283.61 Q53.5847 283.193 51.131 282.337 L51.131 277.823 Q53.0754 278.957 55.3903 279.536 Q57.7051 280.115 60.2282 280.115 Q64.6263 280.115 66.918 278.379 Q69.2328 276.643 69.2328 273.332 Q69.2328 270.277 67.08 268.564 Q64.9504 266.828 61.131 266.828 L57.1032 266.828 L57.1032 262.985 L61.3161 262.985 Q64.7652 262.985 66.5939 261.62 Q68.4226 260.231 68.4226 257.638 Q68.4226 254.976 66.5245 253.564 Q64.6495 252.129 61.131 252.129 Q59.2097 252.129 57.0106 252.546 Q54.8115 252.962 52.1727 253.842 L52.1727 249.675 Q54.8347 248.934 57.1495 248.564 Q59.4875 248.194 61.5476 248.194 Q66.8717 248.194 69.9735 250.624 Q73.0753 253.032 73.0753 257.152 Q73.0753 260.022 71.4318 262.013 Q69.7883 263.981 66.7559 264.745 Z" fill="#000000" fill-rule="nonzero" fill-opacity="1"></path><path clip-path="url(#clip160)" d="M92.7512 251.897 Q89.1401 251.897 87.3114 255.462 Q85.5058 259.004 85.5058 266.133 Q85.5058 273.24 87.3114 276.805 Q89.1401 280.346 92.7512 280.346 Q96.3854 280.346 98.1909 276.805 Q100.02 273.24 100.02 266.133 Q100.02 259.004 98.1909 255.462 Q96.3854 251.897 92.7512 251.897 M92.7512 248.194 Q98.5613 248.194 101.617 252.8 Q104.696 257.383 104.696 266.133 Q104.696 274.86 101.617 279.467 Q98.5613 284.05 92.7512 284.05 Q86.941 284.05 83.8623 279.467 Q80.8068 274.86 80.8068 266.133 Q80.8068 257.383 83.8623 252.8 Q86.941 248.194 92.7512 248.194 Z" fill="#000000" fill-rule="nonzero" fill-opacity="1"></path><path clip-path="url(#clip160)" d="M122.913 251.897 Q119.302 251.897 117.473 255.462 Q115.668 259.004 115.668 266.133 Q115.668 273.24 117.473 276.805 Q119.302 280.346 122.913 280.346 Q126.547 280.346 128.353 276.805 Q130.182 273.24 130.182 266.133 Q130.182 259.004 128.353 255.462 Q126.547 251.897 122.913 251.897 M122.913 248.194 Q128.723 248.194 131.779 252.8 Q134.857 257.383 134.857 266.133 Q134.857 274.86 131.779 279.467 Q128.723 284.05 122.913 284.05 Q117.103 284.05 114.024 279.467 Q110.969 274.86 110.969 266.133 Q110.969 257.383 114.024 252.8 Q117.103 248.194 122.913 248.194 Z" fill="#000000" fill-rule="nonzero" fill-opacity="1"></path><path clip-path="url(#clip160)" d="M919.262 12.096 L931.455 12.096 L946.889 53.2532 L962.404 12.096 L974.598 12.096 L974.598 72.576 L966.617 72.576 L966.617 19.4686 L951.021 60.9499 L942.798 60.9499 L927.202 19.4686 L927.202 72.576 L919.262 72.576 L919.262 12.096 Z" fill="#000000" fill-rule="nonzero" fill-opacity="1"></path><path clip-path="url(#clip160)" d="M1011.14 49.7694 Q1002.1 49.7694 998.619 51.8354 Q995.136 53.9013 995.136 58.8839 Q995.136 62.8538 997.728 65.2034 Q1000.36 67.5124 1004.86 67.5124 Q1011.06 67.5124 1014.78 63.1374 Q1018.55 58.7219 1018.55 51.4303 L1018.55 49.7694 L1011.14 49.7694 M1026 46.6907 L1026 72.576 L1018.55 72.576 L1018.55 65.6895 Q1016 69.8214 1012.19 71.8063 Q1008.38 73.7508 1002.87 73.7508 Q995.905 73.7508 991.773 69.8619 Q987.682 65.9325 987.682 59.3701 Q987.682 51.7138 992.786 47.825 Q997.931 43.9361 1008.1 43.9361 L1018.55 43.9361 L1018.55 43.2069 Q1018.55 38.0623 1015.15 35.2672 Q1011.78 32.4315 1005.67 32.4315 Q1001.78 32.4315 998.093 33.3632 Q994.406 34.295 991.004 36.1584 L991.004 29.2718 Q995.095 27.692 998.943 26.9223 Q1002.79 26.1121 1006.44 26.1121 Q1016.28 26.1121 1021.14 31.2163 Q1026 36.3204 1026 46.6907 Z" fill="#000000" fill-rule="nonzero" fill-opacity="1"></path><path clip-path="url(#clip160)" d="M1079.07 27.2059 L1062.66 49.2833 L1079.92 72.576 L1071.13 72.576 L1057.92 54.752 L1044.72 72.576 L1035.93 72.576 L1053.55 48.8377 L1037.43 27.2059 L1046.22 27.2059 L1058.25 43.369 L1070.28 27.2059 L1079.07 27.2059 Z" fill="#000000" fill-rule="nonzero" fill-opacity="1"></path><path clip-path="url(#clip160)" d="M1090.78 12.096 L1129.02 12.096 L1129.02 18.9825 L1098.96 18.9825 L1098.96 36.8875 L1127.76 36.8875 L1127.76 43.7741 L1098.96 43.7741 L1098.96 65.6895 L1129.75 65.6895 L1129.75 72.576 L1090.78 72.576 L1090.78 12.096 Z" fill="#000000" fill-rule="nonzero" fill-opacity="1"></path><path clip-path="url(#clip160)" d="M1180.59 45.1919 L1180.59 72.576 L1173.13 72.576 L1173.13 45.4349 Q1173.13 38.994 1170.62 35.7938 Q1168.11 32.5936 1163.09 32.5936 Q1157.05 32.5936 1153.57 36.4419 Q1150.08 40.2903 1150.08 46.9338 L1150.08 72.576 L1142.59 72.576 L1142.59 27.2059 L1150.08 27.2059 L1150.08 34.2544 Q1152.76 30.163 1156.36 28.1376 Q1160.01 26.1121 1164.75 26.1121 Q1172.57 26.1121 1176.58 30.9732 Q1180.59 35.7938 1180.59 45.1919 Z" fill="#000000" fill-rule="nonzero" fill-opacity="1"></path><path clip-path="url(#clip160)" d="M1202.83 14.324 L1202.83 27.2059 L1218.18 27.2059 L1218.18 32.9987 L1202.83 32.9987 L1202.83 57.6282 Q1202.83 63.1779 1204.32 64.7578 Q1205.86 66.3376 1210.52 66.3376 L1218.18 66.3376 L1218.18 72.576 L1210.52 72.576 Q1201.89 72.576 1198.61 69.3758 Q1195.33 66.1351 1195.33 57.6282 L1195.33 32.9987 L1189.86 32.9987 L1189.86 27.2059 L1195.33 27.2059 L1195.33 14.324 L1202.83 14.324 Z" fill="#000000" fill-rule="nonzero" fill-opacity="1"></path><path clip-path="url(#clip160)" d="M1299.97 16.7545 L1299.97 25.383 Q1295.83 21.5346 1291.14 19.6307 Q1286.48 17.7268 1281.21 17.7268 Q1270.84 17.7268 1265.33 24.0867 Q1259.82 30.4061 1259.82 42.3968 Q1259.82 54.3469 1265.33 60.7069 Q1270.84 67.0263 1281.21 67.0263 Q1286.48 67.0263 1291.14 65.1223 Q1295.83 63.2184 1299.97 59.3701 L1299.97 67.9175 Q1295.67 70.8341 1290.85 72.2924 Q1286.07 73.7508 1280.72 73.7508 Q1266.99 73.7508 1259.09 65.3654 Q1251.19 56.9395 1251.19 42.3968 Q1251.19 27.8135 1259.09 19.4281 Q1266.99 11.0023 1280.72 11.0023 Q1286.15 11.0023 1290.93 12.4606 Q1295.75 13.8784 1299.97 16.7545 Z" fill="#000000" fill-rule="nonzero" fill-opacity="1"></path><path clip-path="url(#clip160)" d="M1349.99 45.1919 L1349.99 72.576 L1342.54 72.576 L1342.54 45.4349 Q1342.54 38.994 1340.03 35.7938 Q1337.52 32.5936 1332.49 32.5936 Q1326.46 32.5936 1322.98 36.4419 Q1319.49 40.2903 1319.49 46.9338 L1319.49 72.576 L1312 72.576 L1312 9.54393 L1319.49 9.54393 L1319.49 34.2544 Q1322.17 30.163 1325.77 28.1376 Q1329.42 26.1121 1334.16 26.1121 Q1341.97 26.1121 1345.98 30.9732 Q1349.99 35.7938 1349.99 45.1919 Z" fill="#000000" fill-rule="nonzero" fill-opacity="1"></path><path clip-path="url(#clip160)" d="M1364.86 27.2059 L1372.32 27.2059 L1372.32 72.576 L1364.86 72.576 L1364.86 27.2059 M1364.86 9.54393 L1372.32 9.54393 L1372.32 18.9825 L1364.86 18.9825 L1364.86 9.54393 Z" fill="#000000" fill-rule="nonzero" fill-opacity="1"></path><path clip-path="url(#clip160)" d="M1396.01 65.6895 L1424.57 65.6895 L1424.57 72.576 L1386.17 72.576 L1386.17 65.6895 Q1390.83 60.8689 1398.85 52.7671 Q1406.91 44.6248 1408.98 42.2752 Q1412.91 37.8598 1414.44 34.8216 Q1416.02 31.7429 1416.02 28.7857 Q1416.02 23.9651 1412.62 20.927 Q1409.26 17.8888 1403.83 17.8888 Q1399.98 17.8888 1395.69 19.2256 Q1391.44 20.5624 1386.57 23.2765 L1386.57 15.0127 Q1391.52 13.0277 1395.81 12.015 Q1400.1 11.0023 1403.67 11.0023 Q1413.07 11.0023 1418.66 15.7013 Q1424.25 20.4004 1424.25 28.2591 Q1424.25 31.9859 1422.83 35.3482 Q1421.45 38.6699 1417.77 43.2069 Q1416.75 44.3817 1411.33 50.0125 Q1405.9 55.6027 1396.01 65.6895 Z" fill="#000000" fill-rule="nonzero" fill-opacity="1"></path><path clip-path="url(#clip160)" d="M1440.41 9.54393 L1447.91 9.54393 L1447.91 46.7717 L1470.14 27.2059 L1479.66 27.2059 L1455.6 48.4326 L1480.68 72.576 L1470.95 72.576 L1447.91 50.4176 L1447.91 72.576 L1440.41 72.576 L1440.41 9.54393 Z" fill="#000000" fill-rule="nonzero" fill-opacity="1"></path><path clip-path="url(#clip160)" d="M1488.74 27.2059 L1496.19 27.2059 L1496.19 72.576 L1488.74 72.576 L1488.74 27.2059 M1488.74 9.54393 L1496.19 9.54393 L1496.19 18.9825 L1488.74 18.9825 L1488.74 9.54393 Z" fill="#000000" fill-rule="nonzero" fill-opacity="1"></path><path clip-path="url(#clip160)" d="M1549.5 45.1919 L1549.5 72.576 L1542.05 72.576 L1542.05 45.4349 Q1542.05 38.994 1539.54 35.7938 Q1537.03 32.5936 1532 32.5936 Q1525.97 32.5936 1522.48 36.4419 Q1519 40.2903 1519 46.9338 L1519 72.576 L1511.5 72.576 L1511.5 27.2059 L1519 27.2059 L1519 34.2544 Q1521.67 30.163 1525.28 28.1376 Q1528.92 26.1121 1533.66 26.1121 Q1541.48 26.1121 1545.49 30.9732 Q1549.5 35.7938 1549.5 45.1919 Z" fill="#000000" fill-rule="nonzero" fill-opacity="1"></path><path clip-path="url(#clip160)" d="M1564.09 9.54393 L1571.58 9.54393 L1571.58 46.7717 L1593.82 27.2059 L1603.34 27.2059 L1579.28 48.4326 L1604.35 72.576 L1594.63 72.576 L1571.58 50.4176 L1571.58 72.576 L1564.09 72.576 L1564.09 9.54393 Z" fill="#000000" fill-rule="nonzero" fill-opacity="1"></path><polyline clip-path="url(#clip162)" style="stroke:#009af9; stroke-linecap:round; stroke-linejoin:round; stroke-width:4; stroke-opacity:1; fill:none" points="232.609,1447.87 235.182,1447.87 237.755,1447.87 240.328,1447.87 242.901,1447.87 245.474,1447.87 248.047,1447.87 250.62,1447.87 253.193,1447.87 255.766,1447.87 258.339,1447.87 260.912,1447.87 263.485,1447.87 266.058,1447.87 268.631,1447.87 271.204,1447.87 273.777,1447.87 276.35,1447.87 278.923,1447.87 281.496,1447.87 284.069,1447.87 286.642,1447.87 289.215,1447.87 291.788,1447.87 294.361,1447.87 296.934,1447.87 299.507,1447.87 302.08,1447.87 304.653,1447.87 307.226,1447.87 309.799,1447.87 312.372,1447.87 314.945,1447.87 317.518,1447.87 320.091,1447.87 322.664,1447.87 325.237,1447.87 327.81,1447.87 330.383,1447.87 332.956,1447.87 335.529,1447.87 338.102,1447.87 340.675,1447.87 343.248,1447.87 345.821,1447.87 348.394,1447.87 350.967,1447.87 353.54,1447.87 356.113,1447.87 358.686,1447.87 361.259,1447.87 363.832,1447.87 366.405,1447.87 368.978,1447.87 371.551,1447.87 374.124,1447.87 376.697,1447.87 379.27,1447.87 381.843,1447.87 384.416,1447.87 386.989,1447.87 389.562,1447.87 392.135,1447.87 394.708,1447.87 397.281,1447.87 399.854,1447.87 402.427,1447.87 405,1447.87 407.573,1447.87 410.146,1447.87 412.719,1447.87 415.292,1447.87 417.865,1447.87 420.438,1447.87 423.011,1447.87 425.584,1447.87 428.157,1447.87 430.73,1447.87 433.303,1447.87 435.876,1447.87 438.449,1447.87 441.022,1447.87 443.595,1447.87 446.168,1447.87 448.741,1447.87 451.314,1447.87 453.887,1447.87 456.46,1447.87 459.033,1447.87 461.606,1447.87 464.179,1447.87 466.752,1447.87 469.325,1447.87 471.898,1447.87 474.471,1447.87 477.044,1447.87 479.617,1447.87 482.19,1447.87 484.763,1447.87 487.336,1447.87 489.909,1447.87 492.482,1447.87 495.055,1447.87 497.628,1447.87 500.201,1447.87 502.774,1447.87 505.347,1447.87 507.92,1447.87 510.493,1447.87 513.066,1447.87 515.639,1447.87 518.212,1447.87 520.785,1447.87 523.358,1447.87 525.931,1447.87 528.504,1447.87 531.077,1447.87 533.65,1447.87 536.222,1447.87 538.795,1447.87 541.368,1447.87 543.941,1447.87 546.514,1447.87 549.087,1447.87 551.66,1447.87 554.233,1447.87 556.806,1447.87 559.379,1447.87 561.952,1447.87 564.525,1447.87 567.098,1447.87 569.671,1447.87 572.244,1447.87 574.817,1447.87 577.39,1447.87 579.963,1447.87 582.536,1447.87 585.109,1447.87 587.682,1447.87 590.255,1447.87 592.828,1447.87 595.401,1447.87 597.974,1447.87 600.547,1447.87 603.12,1447.87 605.693,1447.87 608.266,1447.87 610.839,1447.87 613.412,1447.87 615.985,1447.87 618.558,1447.87 621.131,1447.87 623.704,1447.87 626.277,1447.87 628.85,1447.87 631.423,1447.87 633.996,1447.87 636.569,1447.87 639.142,1447.87 641.715,1447.87 644.288,1447.87 646.861,1447.87 649.434,1447.87 652.007,1447.87 654.58,1447.87 657.153,1447.87 659.726,1447.87 662.299,1447.87 664.872,1447.87 667.445,1447.87 670.018,1447.87 672.591,1447.87 675.164,1447.87 677.737,1447.87 680.31,1447.87 682.883,1447.87 685.456,1447.87 688.029,1447.87 690.602,1447.87 693.175,1447.87 695.748,1447.87 698.321,1447.87 700.894,1447.87 703.467,1447.87 706.04,1447.87 708.613,1447.87 711.186,1447.87 713.759,1447.87 716.332,1447.87 718.905,1447.87 721.478,1447.87 724.051,1447.87 726.624,1447.87 729.197,1447.87 731.77,1447.87 734.343,1447.87 736.916,1447.87 739.489,1447.87 742.062,1447.87 744.635,1433.01 747.208,1256.02 749.781,1432.86 752.354,1447.87 754.927,1447.87 757.5,1447.87 760.073,1447.87 762.646,1447.87 765.219,1447.87 767.792,1447.87 770.365,1447.87 772.938,1447.87 775.511,1447.87 778.084,1447.87 780.657,1447.87 783.23,1447.87 785.803,1447.87 788.376,1447.87 790.949,1447.87 793.522,1447.87 796.095,1447.87 798.668,1447.87 801.241,1447.87 803.814,1447.87 806.387,1447.87 808.96,1447.87 811.533,1447.87 814.106,1447.87 816.679,1447.87 819.252,1447.87 821.825,1447.87 824.398,1447.87 826.971,1447.87 829.544,1447.87 832.117,1447.87 834.69,1447.87 837.263,1447.87 839.836,1447.87 842.409,1447.87 844.982,1447.87 847.555,1447.87 850.128,1447.87 852.701,1447.87 855.274,1447.87 857.847,1447.87 860.42,1447.87 862.993,1447.87 865.566,1447.87 868.139,1447.87 870.712,1447.87 873.285,1447.87 875.858,1447.87 878.431,1447.87 881.004,1447.87 883.577,1447.87 886.15,1447.87 888.723,1447.87 891.296,1447.87 893.869,1447.87 896.442,1447.87 899.015,1447.87 901.588,1447.87 904.161,1447.87 906.734,1447.87 909.307,1447.87 911.88,1447.87 914.453,1447.87 917.026,1447.87 919.599,1447.87 922.172,1447.87 924.745,1447.87 927.318,1447.87 929.89,1447.87 932.463,1447.87 935.036,1447.87 937.609,1447.87 940.182,1447.87 942.755,1447.87 945.328,1447.87 947.901,1447.87 950.474,1447.87 953.047,1447.87 955.62,1447.87 958.193,1447.87 960.766,1447.87 963.339,1447.87 965.912,1447.87 968.485,1447.87 971.058,1447.87 973.631,1447.87 976.204,1447.87 978.777,1447.87 981.35,1447.87 983.923,1447.87 986.496,1447.87 989.069,1447.87 991.642,1447.87 994.215,1447.87 996.788,1447.87 999.361,1447.87 1001.93,1447.5 1004.51,162.048 1007.08,1447.47 1009.65,1447.87 1012.23,1447.87 1014.8,1447.87 1017.37,1447.87 1019.95,1447.87 1022.52,1447.87 1025.09,1447.87 1027.66,1447.87 1030.24,1447.87 1032.81,1447.87 1035.38,1447.87 1037.96,1447.87 1040.53,1447.87 1043.1,1447.87 1045.68,1447.87 1048.25,1447.87 1050.82,1447.87 1053.39,1447.87 1055.97,1447.87 1058.54,1447.87 1061.11,1447.87 1063.69,1447.87 1066.26,1447.87 1068.83,1447.87 1071.41,1447.87 1073.98,1447.87 1076.55,1447.87 1079.12,1447.87 1081.7,1447.87 1084.27,1447.87 1086.84,1447.87 1089.42,1447.87 1091.99,1447.87 1094.56,1447.87 1097.14,1447.87 1099.71,1447.87 1102.28,1447.87 1104.85,1447.87 1107.43,1447.87 1110,1447.87 1112.57,1447.87 1115.15,1447.87 1117.72,1447.87 1120.29,1447.87 1122.87,1447.87 1125.44,1447.87 1128.01,1447.87 1130.58,1447.87 1133.16,1447.87 1135.73,1447.87 1138.3,1447.87 1140.88,1447.87 1143.45,1447.87 1146.02,1447.87 1148.59,1447.87 1151.17,1447.87 1153.74,1447.87 1156.31,1447.87 1158.89,1447.87 1161.46,1447.87 1164.03,1447.87 1166.61,1447.87 1169.18,1447.87 1171.75,1447.87 1174.32,1447.87 1176.9,1447.87 1179.47,1447.87 1182.04,1447.87 1184.62,1447.87 1187.19,1447.87 1189.76,1447.87 1192.34,1447.87 1194.91,1447.87 1197.48,1447.87 1200.05,1447.87 1202.63,1447.87 1205.2,1447.87 1207.77,1447.87 1210.35,1447.87 1212.92,1447.87 1215.49,1447.87 1218.07,1447.87 1220.64,1447.87 1223.21,1447.87 1225.78,1447.87 1228.36,1447.87 1230.93,1447.87 1233.5,1447.87 1236.08,1447.87 1238.65,1447.87 1241.22,1447.87 1243.8,1447.87 1246.37,1447.87 1248.94,1447.87 1251.51,1447.87 1254.09,1447.87 1256.66,1447.87 1259.23,1447.87 1261.81,1127.21 1264.38,1447.87 1266.95,1447.87 1269.53,1447.87 1272.1,1447.87 1274.67,1447.87 1277.24,1447.87 1279.82,1447.87 1282.39,1447.87 1284.96,1447.87 1287.54,1447.87 1290.11,1447.87 1292.68,1447.87 1295.26,1447.87 1297.83,1447.87 1300.4,1447.87 1302.97,1447.87 1305.55,1447.87 1308.12,1447.87 1310.69,1447.87 1313.27,1447.87 1315.84,1447.87 1318.41,1447.87 1320.99,1447.87 1323.56,1447.87 1326.13,1447.87 1328.7,1447.87 1331.28,1447.87 1333.85,1447.87 1336.42,1447.87 1339,1447.87 1341.57,1447.87 1344.14,1447.87 1346.72,1447.87 1349.29,1447.87 1351.86,1447.87 1354.43,1447.87 1357.01,1447.87 1359.58,1447.87 1362.15,1447.87 1364.73,1447.87 1367.3,1447.87 1369.87,1447.87 1372.45,1447.87 1375.02,1447.87 1377.59,1447.87 1380.16,1447.87 1382.74,1447.87 1385.31,1447.87 1387.88,1447.87 1390.46,1447.87 1393.03,1447.87 1395.6,1447.87 1398.18,1447.87 1400.75,1447.87 1403.32,1447.87 1405.89,1447.87 1408.47,1447.87 1411.04,1447.87 1413.61,1447.87 1416.19,1447.87 1418.76,1447.87 1421.33,1447.87 1423.91,1447.87 1426.48,1447.87 1429.05,1447.87 1431.62,1447.87 1434.2,1447.87 1436.77,1447.87 1439.34,1447.87 1441.92,1447.87 1444.49,1447.87 1447.06,1447.87 1449.64,1447.87 1452.21,1447.87 1454.78,1447.87 1457.35,1447.87 1459.93,1447.87 1462.5,1447.87 1465.07,1447.87 1467.65,1447.87 1470.22,1447.87 1472.79,1447.87 1475.37,1447.87 1477.94,1447.87 1480.51,1447.87 1483.08,1447.87 1485.66,1447.87 1488.23,1447.87 1490.8,1447.87 1493.38,1447.87 1495.95,1447.87 1498.52,1447.87 1501.1,1447.87 1503.67,1447.87 1506.24,1447.87 1508.81,1447.87 1511.39,1447.87 1513.96,1447.87 1516.53,1447.47 1519.11,162.047 1521.68,1447.5 1524.25,1447.87 1526.82,1447.87 1529.4,1447.87 1531.97,1447.87 1534.54,1447.87 1537.12,1447.87 1539.69,1447.87 1542.26,1447.87 1544.84,1447.87 1547.41,1447.87 1549.98,1447.87 1552.55,1447.87 1555.13,1447.87 1557.7,1447.87 1560.27,1447.87 1562.85,1447.87 1565.42,1447.87 1567.99,1447.87 1570.57,1447.87 1573.14,1447.87 1575.71,1447.87 1578.28,1447.87 1580.86,1447.87 1583.43,1447.87 1586,1447.87 1588.58,1447.87 1591.15,1447.87 1593.72,1447.87 1596.3,1447.87 1598.87,1447.87 1601.44,1447.87 1604.01,1447.87 1606.59,1447.87 1609.16,1447.87 1611.73,1447.87 1614.31,1447.87 1616.88,1447.87 1619.45,1447.87 1622.03,1447.87 1624.6,1447.87 1627.17,1447.87 1629.74,1447.87 1632.32,1447.87 1634.89,1447.87 1637.46,1447.87 1640.04,1447.87 1642.61,1447.87 1645.18,1447.87 1647.76,1447.87 1650.33,1447.87 1652.9,1447.87 1655.47,1447.87 1658.05,1447.87 1660.62,1447.87 1663.19,1447.87 1665.77,1447.87 1668.34,1447.87 1670.91,1447.87 1673.49,1447.87 1676.06,1447.87 1678.63,1447.87 1681.2,1447.87 1683.78,1447.87 1686.35,1447.87 1688.92,1447.87 1691.5,1447.87 1694.07,1447.87 1696.64,1447.87 1699.22,1447.87 1701.79,1447.87 1704.36,1447.87 1706.93,1447.87 1709.51,1447.87 1712.08,1447.87 1714.65,1447.87 1717.23,1447.87 1719.8,1447.87 1722.37,1447.87 1724.95,1447.87 1727.52,1447.87 1730.09,1447.87 1732.66,1447.87 1735.24,1447.87 1737.81,1447.87 1740.38,1447.87 1742.96,1447.87 1745.53,1447.87 1748.1,1447.87 1750.68,1447.87 1753.25,1447.87 1755.82,1447.87 1758.39,1447.87 1760.97,1447.87 1763.54,1447.87 1766.11,1447.87 1768.69,1447.87 1771.26,1447.87 1773.83,1432.85 1776.41,1256.03 1778.98,1433 1781.55,1447.87 1784.12,1447.87 1786.7,1447.87 1789.27,1447.87 1791.84,1447.87 1794.42,1447.87 1796.99,1447.87 1799.56,1447.87 1802.14,1447.87 1804.71,1447.87 1807.28,1447.87 1809.85,1447.87 1812.43,1447.87 1815,1447.87 1817.57,1447.87 1820.15,1447.87 1822.72,1447.87 1825.29,1447.87 1827.87,1447.87 1830.44,1447.87 1833.01,1447.87 1835.58,1447.87 1838.16,1447.87 1840.73,1447.87 1843.3,1447.87 1845.88,1447.87 1848.45,1447.87 1851.02,1447.87 1853.6,1447.87 1856.17,1447.87 1858.74,1447.87 1861.31,1447.87 1863.89,1447.87 1866.46,1447.87 1869.03,1447.87 1871.61,1447.87 1874.18,1447.87 1876.75,1447.87 1879.33,1447.87 1881.9,1447.87 1884.47,1447.87 1887.04,1447.87 1889.62,1447.87 1892.19,1447.87 1894.76,1447.87 1897.34,1447.87 1899.91,1447.87 1902.48,1447.87 1905.06,1447.87 1907.63,1447.87 1910.2,1447.87 1912.77,1447.87 1915.35,1447.87 1917.92,1447.87 1920.49,1447.87 1923.07,1447.87 1925.64,1447.87 1928.21,1447.87 1930.78,1447.87 1933.36,1447.87 1935.93,1447.87 1938.5,1447.87 1941.08,1447.87 1943.65,1447.87 1946.22,1447.87 1948.8,1447.87 1951.37,1447.87 1953.94,1447.87 1956.51,1447.87 1959.09,1447.87 1961.66,1447.87 1964.23,1447.87 1966.81,1447.87 1969.38,1447.87 1971.95,1447.87 1974.53,1447.87 1977.1,1447.87 1979.67,1447.87 1982.24,1447.87 1984.82,1447.87 1987.39,1447.87 1989.96,1447.87 1992.54,1447.87 1995.11,1447.87 1997.68,1447.87 2000.26,1447.87 2002.83,1447.87 2005.4,1447.87 2007.97,1447.87 2010.55,1447.87 2013.12,1447.87 2015.69,1447.87 2018.27,1447.87 2020.84,1447.87 2023.41,1447.87 2025.99,1447.87 2028.56,1447.87 2031.13,1447.87 2033.7,1447.87 2036.28,1447.87 2038.85,1447.87 2041.42,1447.87 2044,1447.87 2046.57,1447.87 2049.14,1447.87 2051.72,1447.87 2054.29,1447.87 2056.86,1447.87 2059.43,1447.87 2062.01,1447.87 2064.58,1447.87 2067.15,1447.87 2069.73,1447.87 2072.3,1447.87 2074.87,1447.87 2077.45,1447.87 2080.02,1447.87 2082.59,1447.87 2085.16,1447.87 2087.74,1447.87 2090.31,1447.87 2092.88,1447.87 2095.46,1447.87 2098.03,1447.87 2100.6,1447.87 2103.18,1447.87 2105.75,1447.87 2108.32,1447.87 2110.89,1447.87 2113.47,1447.87 2116.04,1447.87 2118.61,1447.87 2121.19,1447.87 2123.76,1447.87 2126.33,1447.87 2128.91,1447.87 2131.48,1447.87 2134.05,1447.87 2136.62,1447.87 2139.2,1447.87 2141.77,1447.87 2144.34,1447.87 2146.92,1447.87 2149.49,1447.87 2152.06,1447.87 2154.64,1447.87 2157.21,1447.87 2159.78,1447.87 2162.35,1447.87 2164.93,1447.87 2167.5,1447.87 2170.07,1447.87 2172.65,1447.87 2175.22,1447.87 2177.79,1447.87 2180.37,1447.87 2182.94,1447.87 2185.51,1447.87 2188.08,1447.87 2190.66,1447.87 2193.23,1447.87 2195.8,1447.87 2198.38,1447.87 2200.95,1447.87 2203.52,1447.87 2206.1,1447.87 2208.67,1447.87 2211.24,1447.87 2213.81,1447.87 2216.39,1447.87 2218.96,1447.87 2221.53,1447.87 2224.11,1447.87 2226.68,1447.87 2229.25,1447.87 2231.83,1447.87 2234.4,1447.87 2236.97,1447.87 2239.54,1447.87 2242.12,1447.87 2244.69,1447.87 2247.26,1447.87 2249.84,1447.87 2252.41,1447.87 2254.98,1447.87 2257.56,1447.87 2260.13,1447.87 2262.7,1447.87 2265.27,1447.87 2267.85,1447.87 2270.42,1447.87 2272.99,1447.87 2275.57,1447.87 2278.14,1447.87 2280.71,1447.87 2283.29,1447.87 2285.86,1447.87 2288.43,1447.87 2291,1447.87 "></polyline>
<path clip-path="url(#clip160)" d="M1617.49 272.585 L2280.03 272.585 L2280.03 168.905 L1617.49 168.905  Z" fill="#ffffff" fill-rule="evenodd" fill-opacity="1"></path>
<polyline clip-path="url(#clip160)" style="stroke:#000000; stroke-linecap:round; stroke-linejoin:round; stroke-width:4; stroke-opacity:1; fill:none" points="1617.49,272.585 2280.03,272.585 2280.03,168.905 1617.49,168.905 1617.49,272.585 "></polyline>
<polyline clip-path="url(#clip160)" style="stroke:#009af9; stroke-linecap:round; stroke-linejoin:round; stroke-width:4; stroke-opacity:1; fill:none" points="1641.73,220.745 1787.19,220.745 "></polyline>
<path clip-path="url(#clip160)" d="M1826.62 216.08 Q1825.9 215.664 1825.04 215.478 Q1824.21 215.27 1823.19 215.27 Q1819.58 215.27 1817.64 217.631 Q1815.72 219.969 1815.72 224.367 L1815.72 238.025 L1811.43 238.025 L1811.43 212.099 L1815.72 212.099 L1815.72 216.127 Q1817.06 213.766 1819.21 212.631 Q1821.36 211.474 1824.44 211.474 Q1824.88 211.474 1825.41 211.543 Q1825.95 211.59 1826.6 211.705 L1826.62 216.08 Z" fill="#000000" fill-rule="nonzero" fill-opacity="1"></path><path clip-path="url(#clip160)" d="M1852.22 223.997 L1852.22 226.08 L1832.64 226.08 Q1832.91 230.478 1835.28 232.793 Q1837.66 235.085 1841.9 235.085 Q1844.35 235.085 1846.64 234.483 Q1848.96 233.881 1851.22 232.677 L1851.22 236.705 Q1848.93 237.677 1846.53 238.187 Q1844.12 238.696 1841.64 238.696 Q1835.44 238.696 1831.8 235.085 Q1828.19 231.474 1828.19 225.316 Q1828.19 218.951 1831.62 215.224 Q1835.07 211.474 1840.9 211.474 Q1846.13 211.474 1849.16 214.853 Q1852.22 218.21 1852.22 223.997 M1847.96 222.747 Q1847.91 219.252 1845.99 217.168 Q1844.1 215.085 1840.95 215.085 Q1837.38 215.085 1835.23 217.099 Q1833.1 219.113 1832.78 222.77 L1847.96 222.747 Z" fill="#000000" fill-rule="nonzero" fill-opacity="1"></path><path clip-path="url(#clip160)" d="M1877.87 213.094 L1877.87 217.076 Q1876.06 216.08 1874.23 215.594 Q1872.43 215.085 1870.58 215.085 Q1866.43 215.085 1864.14 217.724 Q1861.85 220.34 1861.85 225.085 Q1861.85 229.83 1864.14 232.469 Q1866.43 235.085 1870.58 235.085 Q1872.43 235.085 1874.23 234.599 Q1876.06 234.089 1877.87 233.094 L1877.87 237.029 Q1876.09 237.863 1874.16 238.279 Q1872.27 238.696 1870.11 238.696 Q1864.26 238.696 1860.81 235.015 Q1857.36 231.335 1857.36 225.085 Q1857.36 218.742 1860.83 215.108 Q1864.33 211.474 1870.39 211.474 Q1872.36 211.474 1874.23 211.891 Q1876.11 212.284 1877.87 213.094 Z" fill="#000000" fill-rule="nonzero" fill-opacity="1"></path><path clip-path="url(#clip160)" d="M1895.32 215.085 Q1891.9 215.085 1889.9 217.77 Q1887.91 220.432 1887.91 225.085 Q1887.91 229.738 1889.88 232.423 Q1891.87 235.085 1895.32 235.085 Q1898.72 235.085 1900.72 232.4 Q1902.71 229.715 1902.71 225.085 Q1902.71 220.478 1900.72 217.793 Q1898.72 215.085 1895.32 215.085 M1895.32 211.474 Q1900.88 211.474 1904.05 215.085 Q1907.22 218.696 1907.22 225.085 Q1907.22 231.451 1904.05 235.085 Q1900.88 238.696 1895.32 238.696 Q1889.74 238.696 1886.57 235.085 Q1883.42 231.451 1883.42 225.085 Q1883.42 218.696 1886.57 215.085 Q1889.74 211.474 1895.32 211.474 Z" fill="#000000" fill-rule="nonzero" fill-opacity="1"></path><path clip-path="url(#clip160)" d="M1935.83 222.377 L1935.83 238.025 L1931.57 238.025 L1931.57 222.515 Q1931.57 218.835 1930.14 217.006 Q1928.7 215.178 1925.83 215.178 Q1922.38 215.178 1920.39 217.377 Q1918.4 219.576 1918.4 223.372 L1918.4 238.025 L1914.12 238.025 L1914.12 212.099 L1918.4 212.099 L1918.4 216.127 Q1919.93 213.789 1921.99 212.631 Q1924.07 211.474 1926.78 211.474 Q1931.25 211.474 1933.54 214.252 Q1935.83 217.006 1935.83 222.377 Z" fill="#000000" fill-rule="nonzero" fill-opacity="1"></path><path clip-path="url(#clip160)" d="M1960.85 212.863 L1960.85 216.891 Q1959.05 215.965 1957.1 215.502 Q1955.16 215.039 1953.08 215.039 Q1949.9 215.039 1948.31 216.011 Q1946.73 216.983 1946.73 218.928 Q1946.73 220.409 1947.87 221.265 Q1949 222.099 1952.43 222.863 L1953.89 223.187 Q1958.42 224.159 1960.32 225.941 Q1962.24 227.701 1962.24 230.872 Q1962.24 234.483 1959.37 236.589 Q1956.52 238.696 1951.53 238.696 Q1949.44 238.696 1947.17 238.279 Q1944.93 237.886 1942.43 237.076 L1942.43 232.677 Q1944.79 233.904 1947.08 234.529 Q1949.37 235.131 1951.62 235.131 Q1954.63 235.131 1956.25 234.113 Q1957.87 233.071 1957.87 231.196 Q1957.87 229.46 1956.69 228.534 Q1955.53 227.608 1951.57 226.752 L1950.09 226.404 Q1946.13 225.571 1944.37 223.858 Q1942.61 222.122 1942.61 219.113 Q1942.61 215.455 1945.21 213.465 Q1947.8 211.474 1952.57 211.474 Q1954.93 211.474 1957.01 211.821 Q1959.09 212.168 1960.85 212.863 Z" fill="#000000" fill-rule="nonzero" fill-opacity="1"></path><path clip-path="url(#clip160)" d="M1973.24 204.738 L1973.24 212.099 L1982.01 212.099 L1982.01 215.409 L1973.24 215.409 L1973.24 229.483 Q1973.24 232.654 1974.09 233.557 Q1974.97 234.46 1977.64 234.46 L1982.01 234.46 L1982.01 238.025 L1977.64 238.025 Q1972.71 238.025 1970.83 236.196 Q1968.96 234.344 1968.96 229.483 L1968.96 215.409 L1965.83 215.409 L1965.83 212.099 L1968.96 212.099 L1968.96 204.738 L1973.24 204.738 Z" fill="#000000" fill-rule="nonzero" fill-opacity="1"></path><path clip-path="url(#clip160)" d="M2002.64 216.08 Q2001.92 215.664 2001.06 215.478 Q2000.23 215.27 1999.21 215.27 Q1995.6 215.27 1993.65 217.631 Q1991.73 219.969 1991.73 224.367 L1991.73 238.025 L1987.45 238.025 L1987.45 212.099 L1991.73 212.099 L1991.73 216.127 Q1993.08 213.766 1995.23 212.631 Q1997.38 211.474 2000.46 211.474 Q2000.9 211.474 2001.43 211.543 Q2001.96 211.59 2002.61 211.705 L2002.64 216.08 Z" fill="#000000" fill-rule="nonzero" fill-opacity="1"></path><path clip-path="url(#clip160)" d="M2006.66 227.793 L2006.66 212.099 L2010.92 212.099 L2010.92 227.631 Q2010.92 231.312 2012.36 233.164 Q2013.79 234.992 2016.66 234.992 Q2020.11 234.992 2022.1 232.793 Q2024.12 230.594 2024.12 226.798 L2024.12 212.099 L2028.38 212.099 L2028.38 238.025 L2024.12 238.025 L2024.12 234.043 Q2022.57 236.404 2020.51 237.562 Q2018.47 238.696 2015.76 238.696 Q2011.29 238.696 2008.98 235.918 Q2006.66 233.14 2006.66 227.793 M2017.38 211.474 L2017.38 211.474 Z" fill="#000000" fill-rule="nonzero" fill-opacity="1"></path><path clip-path="url(#clip160)" d="M2055.81 213.094 L2055.81 217.076 Q2054 216.08 2052.17 215.594 Q2050.37 215.085 2048.52 215.085 Q2044.37 215.085 2042.08 217.724 Q2039.79 220.34 2039.79 225.085 Q2039.79 229.83 2042.08 232.469 Q2044.37 235.085 2048.52 235.085 Q2050.37 235.085 2052.17 234.599 Q2054 234.089 2055.81 233.094 L2055.81 237.029 Q2054.02 237.863 2052.1 238.279 Q2050.21 238.696 2048.05 238.696 Q2042.2 238.696 2038.75 235.015 Q2035.3 231.335 2035.3 225.085 Q2035.3 218.742 2038.77 215.108 Q2042.27 211.474 2048.33 211.474 Q2050.3 211.474 2052.17 211.891 Q2054.05 212.284 2055.81 213.094 Z" fill="#000000" fill-rule="nonzero" fill-opacity="1"></path><path clip-path="url(#clip160)" d="M2067.43 204.738 L2067.43 212.099 L2076.2 212.099 L2076.2 215.409 L2067.43 215.409 L2067.43 229.483 Q2067.43 232.654 2068.28 233.557 Q2069.16 234.46 2071.83 234.46 L2076.2 234.46 L2076.2 238.025 L2071.83 238.025 Q2066.89 238.025 2065.02 236.196 Q2063.14 234.344 2063.14 229.483 L2063.14 215.409 L2060.02 215.409 L2060.02 212.099 L2063.14 212.099 L2063.14 204.738 L2067.43 204.738 Z" fill="#000000" fill-rule="nonzero" fill-opacity="1"></path><path clip-path="url(#clip160)" d="M2103.98 223.997 L2103.98 226.08 L2084.39 226.08 Q2084.67 230.478 2087.03 232.793 Q2089.42 235.085 2093.65 235.085 Q2096.11 235.085 2098.4 234.483 Q2100.71 233.881 2102.98 232.677 L2102.98 236.705 Q2100.69 237.677 2098.28 238.187 Q2095.88 238.696 2093.4 238.696 Q2087.2 238.696 2083.56 235.085 Q2079.95 231.474 2079.95 225.316 Q2079.95 218.951 2083.38 215.224 Q2086.83 211.474 2092.66 211.474 Q2097.89 211.474 2100.92 214.853 Q2103.98 218.21 2103.98 223.997 M2099.72 222.747 Q2099.67 219.252 2097.75 217.168 Q2095.85 215.085 2092.7 215.085 Q2089.14 215.085 2086.99 217.099 Q2084.86 219.113 2084.53 222.77 L2099.72 222.747 Z" fill="#000000" fill-rule="nonzero" fill-opacity="1"></path><path clip-path="url(#clip160)" d="M2128.03 216.034 L2128.03 202.006 L2132.29 202.006 L2132.29 238.025 L2128.03 238.025 L2128.03 234.136 Q2126.69 236.451 2124.63 237.585 Q2122.59 238.696 2119.72 238.696 Q2115.02 238.696 2112.06 234.946 Q2109.12 231.196 2109.12 225.085 Q2109.12 218.974 2112.06 215.224 Q2115.02 211.474 2119.72 211.474 Q2122.59 211.474 2124.63 212.608 Q2126.69 213.719 2128.03 216.034 M2113.51 225.085 Q2113.51 229.784 2115.44 232.469 Q2117.38 235.131 2120.76 235.131 Q2124.14 235.131 2126.08 232.469 Q2128.03 229.784 2128.03 225.085 Q2128.03 220.386 2126.08 217.724 Q2124.14 215.039 2120.76 215.039 Q2117.38 215.039 2115.44 217.724 Q2113.51 220.386 2113.51 225.085 Z" fill="#000000" fill-rule="nonzero" fill-opacity="1"></path><path clip-path="url(#clip160)" d="M2167.87 208.071 L2161.52 225.27 L2174.23 225.27 L2167.87 208.071 M2165.23 203.465 L2170.53 203.465 L2183.7 238.025 L2178.84 238.025 L2175.69 229.159 L2160.11 229.159 L2156.96 238.025 L2152.03 238.025 L2165.23 203.465 Z" fill="#000000" fill-rule="nonzero" fill-opacity="1"></path><path clip-path="url(#clip160)" d="M2198.79 202.053 Q2195.69 207.377 2194.19 212.585 Q2192.68 217.793 2192.68 223.14 Q2192.68 228.488 2194.19 233.742 Q2195.71 238.974 2198.79 244.275 L2195.09 244.275 Q2191.62 238.835 2189.88 233.58 Q2188.17 228.326 2188.17 223.14 Q2188.17 217.978 2189.88 212.747 Q2191.59 207.516 2195.09 202.053 L2198.79 202.053 Z" fill="#000000" fill-rule="nonzero" fill-opacity="1"></path><path clip-path="url(#clip160)" d="M2204.58 212.099 L2208.84 212.099 L2214.16 232.33 L2219.46 212.099 L2224.49 212.099 L2229.81 232.33 L2235.11 212.099 L2239.37 212.099 L2232.59 238.025 L2227.57 238.025 L2221.99 216.775 L2216.38 238.025 L2211.36 238.025 L2204.58 212.099 Z" fill="#000000" fill-rule="nonzero" fill-opacity="1"></path><path clip-path="url(#clip160)" d="M2245.16 202.053 L2248.86 202.053 Q2252.33 207.516 2254.05 212.747 Q2255.78 217.978 2255.78 223.14 Q2255.78 228.326 2254.05 233.58 Q2252.33 238.835 2248.86 244.275 L2245.16 244.275 Q2248.24 238.974 2249.74 233.742 Q2251.27 228.488 2251.27 223.14 Q2251.27 217.793 2249.74 212.585 Q2248.24 207.377 2245.16 202.053 Z" fill="#000000" fill-rule="nonzero" fill-opacity="1"></path></svg>