<svg xmlns="http://www.w3.org/2000/svg" xmlns:xlink="http://www.w3.org/1999/xlink" width="600" height="400" viewBox="0 0 2400 1600">
<defs>
  <clipPath id="clip670">
    <rect x="0" y="0" width="2400" height="1600"></rect>
  </clipPath>
</defs>
<path clip-path="url(#clip670)" d="M0 1600 L2400 1600 L2400 8.88178e-14 L0 8.88178e-14  Z" fill="#ffffff" fill-rule="evenodd" fill-opacity="1"></path>
<defs>
  <clipPath id="clip671">
    <rect x="480" y="0" width="1681" height="1600"></rect>
  </clipPath>
</defs>
<path clip-path="url(#clip670)" d="M202.227 1423.18 L2352.76 1423.18 L2352.76 123.472 L202.227 123.472  Z" fill="#ffffff" fill-rule="evenodd" fill-opacity="1"></path>
<defs>
  <clipPath id="clip672">
    <rect x="202" y="123" width="2152" height="1301"></rect>
  </clipPath>
</defs>
<polyline clip-path="url(#clip672)" style="stroke:#000000; stroke-linecap:round; stroke-linejoin:round; stroke-width:2; stroke-opacity:0.1; fill:none" points="465.972,1423.18 465.972,123.472 "></polyline>
<polyline clip-path="url(#clip672)" style="stroke:#000000; stroke-linecap:round; stroke-linejoin:round; stroke-width:2; stroke-opacity:0.1; fill:none" points="871.732,1423.18 871.732,123.472 "></polyline>
<polyline clip-path="url(#clip672)" style="stroke:#000000; stroke-linecap:round; stroke-linejoin:round; stroke-width:2; stroke-opacity:0.1; fill:none" points="1277.49,1423.18 1277.49,123.472 "></polyline>
<polyline clip-path="url(#clip672)" style="stroke:#000000; stroke-linecap:round; stroke-linejoin:round; stroke-width:2; stroke-opacity:0.1; fill:none" points="1683.25,1423.18 1683.25,123.472 "></polyline>
<polyline clip-path="url(#clip672)" style="stroke:#000000; stroke-linecap:round; stroke-linejoin:round; stroke-width:2; stroke-opacity:0.1; fill:none" points="2089.01,1423.18 2089.01,123.472 "></polyline>
<polyline clip-path="url(#clip672)" style="stroke:#000000; stroke-linecap:round; stroke-linejoin:round; stroke-width:2; stroke-opacity:0.1; fill:none" points="202.227,1386.4 2352.76,1386.4 "></polyline>
<polyline clip-path="url(#clip672)" style="stroke:#000000; stroke-linecap:round; stroke-linejoin:round; stroke-width:2; stroke-opacity:0.1; fill:none" points="202.227,1063.89 2352.76,1063.89 "></polyline>
<polyline clip-path="url(#clip672)" style="stroke:#000000; stroke-linecap:round; stroke-linejoin:round; stroke-width:2; stroke-opacity:0.1; fill:none" points="202.227,741.385 2352.76,741.385 "></polyline>
<polyline clip-path="url(#clip672)" style="stroke:#000000; stroke-linecap:round; stroke-linejoin:round; stroke-width:2; stroke-opacity:0.1; fill:none" points="202.227,418.879 2352.76,418.879 "></polyline>
<polyline clip-path="url(#clip670)" style="stroke:#000000; stroke-linecap:round; stroke-linejoin:round; stroke-width:4; stroke-opacity:1; fill:none" points="202.227,1423.18 2352.76,1423.18 "></polyline>
<polyline clip-path="url(#clip670)" style="stroke:#000000; stroke-linecap:round; stroke-linejoin:round; stroke-width:4; stroke-opacity:1; fill:none" points="465.972,1423.18 465.972,1404.28 "></polyline>
<polyline clip-path="url(#clip670)" style="stroke:#000000; stroke-linecap:round; stroke-linejoin:round; stroke-width:4; stroke-opacity:1; fill:none" points="871.732,1423.18 871.732,1404.28 "></polyline>
<polyline clip-path="url(#clip670)" style="stroke:#000000; stroke-linecap:round; stroke-linejoin:round; stroke-width:4; stroke-opacity:1; fill:none" points="1277.49,1423.18 1277.49,1404.28 "></polyline>
<polyline clip-path="url(#clip670)" style="stroke:#000000; stroke-linecap:round; stroke-linejoin:round; stroke-width:4; stroke-opacity:1; fill:none" points="1683.25,1423.18 1683.25,1404.28 "></polyline>
<polyline clip-path="url(#clip670)" style="stroke:#000000; stroke-linecap:round; stroke-linejoin:round; stroke-width:4; stroke-opacity:1; fill:none" points="2089.01,1423.18 2089.01,1404.28 "></polyline>
<path clip-path="url(#clip670)" d="M434.872 1468.75 L464.548 1468.75 L464.548 1472.69 L434.872 1472.69 L434.872 1468.75 Z" fill="#000000" fill-rule="nonzero" fill-opacity="1"></path><path clip-path="url(#clip670)" d="M487.488 1455.09 L475.682 1473.54 L487.488 1473.54 L487.488 1455.09 M486.261 1451.02 L492.14 1451.02 L492.14 1473.54 L497.071 1473.54 L497.071 1477.43 L492.14 1477.43 L492.14 1485.58 L487.488 1485.58 L487.488 1477.43 L471.886 1477.43 L471.886 1472.92 L486.261 1451.02 Z" fill="#000000" fill-rule="nonzero" fill-opacity="1"></path><path clip-path="url(#clip670)" d="M841.674 1468.75 L871.35 1468.75 L871.35 1472.69 L841.674 1472.69 L841.674 1468.75 Z" fill="#000000" fill-rule="nonzero" fill-opacity="1"></path><path clip-path="url(#clip670)" d="M885.47 1481.64 L901.789 1481.64 L901.789 1485.58 L879.845 1485.58 L879.845 1481.64 Q882.507 1478.89 887.09 1474.26 Q891.697 1469.61 892.877 1468.27 Q895.123 1465.74 896.002 1464.01 Q896.905 1462.25 896.905 1460.56 Q896.905 1457.8 894.961 1456.07 Q893.039 1454.33 889.938 1454.33 Q887.738 1454.33 885.285 1455.09 Q882.854 1455.86 880.076 1457.41 L880.076 1452.69 Q882.901 1451.55 885.354 1450.97 Q887.808 1450.39 889.845 1450.39 Q895.215 1450.39 898.41 1453.08 Q901.604 1455.77 901.604 1460.26 Q901.604 1462.39 900.794 1464.31 Q900.007 1466.2 897.9 1468.8 Q897.322 1469.47 894.22 1472.69 Q891.118 1475.88 885.47 1481.64 Z" fill="#000000" fill-rule="nonzero" fill-opacity="1"></path><path clip-path="url(#clip670)" d="M1277.49 1454.1 Q1273.88 1454.1 1272.05 1457.66 Q1270.25 1461.2 1270.25 1468.33 Q1270.25 1475.44 1272.05 1479.01 Q1273.88 1482.55 1277.49 1482.55 Q1281.13 1482.55 1282.93 1479.01 Q1284.76 1475.44 1284.76 1468.33 Q1284.76 1461.2 1282.93 1457.66 Q1281.13 1454.1 1277.49 1454.1 M1277.49 1450.39 Q1283.3 1450.39 1286.36 1455 Q1289.44 1459.58 1289.44 1468.33 Q1289.44 1477.06 1286.36 1481.67 Q1283.3 1486.25 1277.49 1486.25 Q1271.68 1486.25 1268.6 1481.67 Q1265.55 1477.06 1265.55 1468.33 Q1265.55 1459.58 1268.6 1455 Q1271.68 1450.39 1277.49 1450.39 Z" fill="#000000" fill-rule="nonzero" fill-opacity="1"></path><path clip-path="url(#clip670)" d="M1677.9 1481.64 L1694.22 1481.64 L1694.22 1485.58 L1672.28 1485.58 L1672.28 1481.64 Q1674.94 1478.89 1679.52 1474.26 Q1684.13 1469.61 1685.31 1468.27 Q1687.56 1465.74 1688.44 1464.01 Q1689.34 1462.25 1689.34 1460.56 Q1689.34 1457.8 1687.4 1456.07 Q1685.47 1454.33 1682.37 1454.33 Q1680.17 1454.33 1677.72 1455.09 Q1675.29 1455.86 1672.51 1457.41 L1672.51 1452.69 Q1675.34 1451.55 1677.79 1450.97 Q1680.24 1450.39 1682.28 1450.39 Q1687.65 1450.39 1690.84 1453.08 Q1694.04 1455.77 1694.04 1460.26 Q1694.04 1462.39 1693.23 1464.31 Q1692.44 1466.2 1690.34 1468.8 Q1689.76 1469.47 1686.65 1472.69 Q1683.55 1475.88 1677.9 1481.64 Z" fill="#000000" fill-rule="nonzero" fill-opacity="1"></path><path clip-path="url(#clip670)" d="M2092.02 1455.09 L2080.22 1473.54 L2092.02 1473.54 L2092.02 1455.09 M2090.79 1451.02 L2096.67 1451.02 L2096.67 1473.54 L2101.6 1473.54 L2101.6 1477.43 L2096.67 1477.43 L2096.67 1485.58 L2092.02 1485.58 L2092.02 1477.43 L2076.42 1477.43 L2076.42 1472.92 L2090.79 1451.02 Z" fill="#000000" fill-rule="nonzero" fill-opacity="1"></path><path clip-path="url(#clip670)" d="M1267.78 1568.97 Q1254.58 1568.97 1254.58 1550.06 Q1254.58 1542.58 1259.51 1532.4 L1265.81 1532.4 Q1261.26 1542.58 1261.26 1550.22 Q1261.26 1564 1268.33 1564 Q1274.79 1564 1274.79 1546.88 L1280.2 1546.88 Q1280.2 1564 1286.66 1564 Q1293.72 1564 1293.72 1550.22 Q1293.72 1542.58 1289.17 1532.4 L1295.47 1532.4 Q1300.41 1542.58 1300.41 1550.06 Q1300.41 1568.97 1287.2 1568.97 Q1278.54 1568.97 1277.49 1559.45 Q1276.19 1568.97 1267.78 1568.97 Z" fill="#000000" fill-rule="nonzero" fill-opacity="1"></path><polyline clip-path="url(#clip670)" style="stroke:#000000; stroke-linecap:round; stroke-linejoin:round; stroke-width:4; stroke-opacity:1; fill:none" points="202.227,1423.18 202.227,123.472 "></polyline>
<polyline clip-path="url(#clip670)" style="stroke:#000000; stroke-linecap:round; stroke-linejoin:round; stroke-width:4; stroke-opacity:1; fill:none" points="202.227,1386.4 221.125,1386.4 "></polyline>
<polyline clip-path="url(#clip670)" style="stroke:#000000; stroke-linecap:round; stroke-linejoin:round; stroke-width:4; stroke-opacity:1; fill:none" points="202.227,1063.89 221.125,1063.89 "></polyline>
<polyline clip-path="url(#clip670)" style="stroke:#000000; stroke-linecap:round; stroke-linejoin:round; stroke-width:4; stroke-opacity:1; fill:none" points="202.227,741.385 221.125,741.385 "></polyline>
<polyline clip-path="url(#clip670)" style="stroke:#000000; stroke-linecap:round; stroke-linejoin:round; stroke-width:4; stroke-opacity:1; fill:none" points="202.227,418.879 221.125,418.879 "></polyline>
<path clip-path="url(#clip670)" d="M154.283 1372.19 Q150.672 1372.19 148.843 1375.76 Q147.038 1379.3 147.038 1386.43 Q147.038 1393.54 148.843 1397.1 Q150.672 1400.64 154.283 1400.64 Q157.917 1400.64 159.723 1397.1 Q161.552 1393.54 161.552 1386.43 Q161.552 1379.3 159.723 1375.76 Q157.917 1372.19 154.283 1372.19 M154.283 1368.49 Q160.093 1368.49 163.149 1373.1 Q166.227 1377.68 166.227 1386.43 Q166.227 1395.16 163.149 1399.76 Q160.093 1404.35 154.283 1404.35 Q148.473 1404.35 145.394 1399.76 Q142.339 1395.16 142.339 1386.43 Q142.339 1377.68 145.394 1373.1 Q148.473 1368.49 154.283 1368.49 Z" fill="#000000" fill-rule="nonzero" fill-opacity="1"></path><path clip-path="url(#clip670)" d="M145.325 1046.61 L163.681 1046.61 L163.681 1050.55 L149.607 1050.55 L149.607 1059.02 Q150.626 1058.67 151.644 1058.51 Q152.663 1058.32 153.681 1058.32 Q159.468 1058.32 162.848 1061.49 Q166.227 1064.67 166.227 1070.08 Q166.227 1075.66 162.755 1078.76 Q159.283 1081.84 152.964 1081.84 Q150.788 1081.84 148.519 1081.47 Q146.274 1081.1 143.866 1080.36 L143.866 1075.66 Q145.95 1076.8 148.172 1077.35 Q150.394 1077.91 152.871 1077.91 Q156.876 1077.91 159.214 1075.8 Q161.552 1073.69 161.552 1070.08 Q161.552 1066.47 159.214 1064.36 Q156.876 1062.26 152.871 1062.26 Q150.996 1062.26 149.121 1062.67 Q147.269 1063.09 145.325 1063.97 L145.325 1046.61 Z" fill="#000000" fill-rule="nonzero" fill-opacity="1"></path><path clip-path="url(#clip670)" d="M114.931 754.73 L122.57 754.73 L122.57 728.364 L114.26 730.031 L114.26 725.771 L122.524 724.105 L127.2 724.105 L127.2 754.73 L134.839 754.73 L134.839 758.665 L114.931 758.665 L114.931 754.73 Z" fill="#000000" fill-rule="nonzero" fill-opacity="1"></path><path clip-path="url(#clip670)" d="M154.283 727.183 Q150.672 727.183 148.843 730.748 Q147.038 734.29 147.038 741.419 Q147.038 748.526 148.843 752.091 Q150.672 755.632 154.283 755.632 Q157.917 755.632 159.723 752.091 Q161.552 748.526 161.552 741.419 Q161.552 734.29 159.723 730.748 Q157.917 727.183 154.283 727.183 M154.283 723.48 Q160.093 723.48 163.149 728.086 Q166.227 732.669 166.227 741.419 Q166.227 750.146 163.149 754.753 Q160.093 759.336 154.283 759.336 Q148.473 759.336 145.394 754.753 Q142.339 750.146 142.339 741.419 Q142.339 732.669 145.394 728.086 Q148.473 723.48 154.283 723.48 Z" fill="#000000" fill-rule="nonzero" fill-opacity="1"></path><path clip-path="url(#clip670)" d="M115.927 432.224 L123.566 432.224 L123.566 405.858 L115.256 407.525 L115.256 403.266 L123.519 401.599 L128.195 401.599 L128.195 432.224 L135.834 432.224 L135.834 436.159 L115.927 436.159 L115.927 432.224 Z" fill="#000000" fill-rule="nonzero" fill-opacity="1"></path><path clip-path="url(#clip670)" d="M145.325 401.599 L163.681 401.599 L163.681 405.534 L149.607 405.534 L149.607 414.007 Q150.626 413.659 151.644 413.497 Q152.663 413.312 153.681 413.312 Q159.468 413.312 162.848 416.483 Q166.227 419.655 166.227 425.071 Q166.227 430.65 162.755 433.752 Q159.283 436.83 152.964 436.83 Q150.788 436.83 148.519 436.46 Q146.274 436.09 143.866 435.349 L143.866 430.65 Q145.95 431.784 148.172 432.34 Q150.394 432.895 152.871 432.895 Q156.876 432.895 159.214 430.789 Q161.552 428.682 161.552 425.071 Q161.552 421.46 159.214 419.354 Q156.876 417.247 152.871 417.247 Q150.996 417.247 149.121 417.664 Q147.269 418.081 145.325 418.96 L145.325 401.599 Z" fill="#000000" fill-rule="nonzero" fill-opacity="1"></path><path clip-path="url(#clip670)" d="M22.818 823.52 L46.4666 832.241 L46.4666 814.767 L22.818 823.52 M16.4842 827.148 L16.4842 819.859 L64.0042 801.749 L64.0042 808.433 L51.8138 812.762 L51.8138 834.182 L64.0042 838.511 L64.0042 845.29 L16.4842 827.148 Z" fill="#000000" fill-rule="nonzero" fill-opacity="1"></path><path clip-path="url(#clip670)" d="M14.5426 780.997 Q21.8632 785.262 29.0246 787.331 Q36.186 789.399 43.5384 789.399 Q50.8908 789.399 58.1159 787.331 Q65.3091 785.23 72.5979 780.997 L72.5979 786.089 Q65.1182 790.864 57.8931 793.251 Q50.668 795.606 43.5384 795.606 Q36.4406 795.606 29.2474 793.251 Q22.0542 790.895 14.5426 786.089 L14.5426 780.997 Z" fill="#000000" fill-rule="nonzero" fill-opacity="1"></path><path clip-path="url(#clip670)" d="M64.9272 758.271 Q64.9272 771.48 46.021 771.48 Q38.5413 771.48 28.3562 766.547 L28.3562 760.244 Q38.5413 764.796 46.1802 764.796 Q59.9619 764.796 59.9619 757.73 Q59.9619 751.269 42.8382 751.269 L42.8382 745.858 Q59.9619 745.858 59.9619 739.397 Q59.9619 732.331 46.1802 732.331 Q38.5413 732.331 28.3562 736.882 L28.3562 730.58 Q38.5413 725.647 46.021 725.647 Q64.9272 725.647 64.9272 738.856 Q64.9272 747.513 55.4105 748.563 Q64.9272 749.868 64.9272 758.271 Z" fill="#000000" fill-rule="nonzero" fill-opacity="1"></path><path clip-path="url(#clip670)" d="M14.5426 715.971 L14.5426 710.878 Q22.0542 706.104 29.2474 703.749 Q36.4406 701.362 43.5384 701.362 Q50.668 701.362 57.8931 703.749 Q65.1182 706.104 72.5979 710.878 L72.5979 715.971 Q65.3091 711.738 58.1159 709.669 Q50.8908 707.568 43.5384 707.568 Q36.186 707.568 29.0246 709.669 Q21.8632 711.738 14.5426 715.971 Z" fill="#000000" fill-rule="nonzero" fill-opacity="1"></path><path clip-path="url(#clip670)" d="M913.579 14.0809 L913.579 22.0612 Q908.92 19.8332 904.788 18.7395 Q900.656 17.6457 896.808 17.6457 Q890.124 17.6457 886.478 20.2383 Q882.873 22.8309 882.873 27.611 Q882.873 31.6214 885.263 33.6873 Q887.693 35.7128 894.418 36.9686 L899.36 37.9813 Q908.515 39.7232 912.85 44.1387 Q917.225 48.5136 917.225 55.8863 Q917.225 64.6767 911.31 69.2137 Q905.436 73.7508 894.053 73.7508 Q889.759 73.7508 884.898 72.7785 Q880.078 71.8063 874.893 69.9024 L874.893 61.4765 Q879.875 64.2716 884.655 65.6895 Q889.435 67.1073 894.053 67.1073 Q901.061 67.1073 904.869 64.3527 Q908.677 61.598 908.677 56.4939 Q908.677 52.0379 905.922 49.5264 Q903.208 47.0148 896.97 45.759 L891.987 44.7868 Q882.832 42.9639 878.741 39.075 Q874.65 35.1862 874.65 28.2591 Q874.65 20.2383 880.28 15.6203 Q885.952 11.0023 895.876 11.0023 Q900.13 11.0023 904.545 11.7719 Q908.961 12.5416 913.579 14.0809 Z" fill="#000000" fill-rule="nonzero" fill-opacity="1"></path><path clip-path="url(#clip670)" d="M937.033 14.324 L937.033 27.2059 L952.386 27.2059 L952.386 32.9987 L937.033 32.9987 L937.033 57.6282 Q937.033 63.1779 938.532 64.7578 Q940.072 66.3376 944.73 66.3376 L952.386 66.3376 L952.386 72.576 L944.73 72.576 Q936.102 72.576 932.821 69.3758 Q929.539 66.1351 929.539 57.6282 L929.539 32.9987 L924.071 32.9987 L924.071 27.2059 L929.539 27.2059 L929.539 14.324 L937.033 14.324 Z" fill="#000000" fill-rule="nonzero" fill-opacity="1"></path><path clip-path="url(#clip670)" d="M979.77 32.4315 Q973.775 32.4315 970.291 37.1306 Q966.808 41.7891 966.808 49.9314 Q966.808 58.0738 970.251 62.7728 Q973.735 67.4314 979.77 67.4314 Q985.725 67.4314 989.209 62.7323 Q992.693 58.0333 992.693 49.9314 Q992.693 41.8701 989.209 37.1711 Q985.725 32.4315 979.77 32.4315 M979.77 26.1121 Q989.493 26.1121 995.042 32.4315 Q1000.59 38.7509 1000.59 49.9314 Q1000.59 61.0714 995.042 67.4314 Q989.493 73.7508 979.77 73.7508 Q970.008 73.7508 964.458 67.4314 Q958.949 61.0714 958.949 49.9314 Q958.949 38.7509 964.458 32.4315 Q970.008 26.1121 979.77 26.1121 Z" fill="#000000" fill-rule="nonzero" fill-opacity="1"></path><path clip-path="url(#clip670)" d="M1045.6 28.9478 L1045.6 35.9153 Q1042.44 34.1734 1039.24 33.3227 Q1036.08 32.4315 1032.84 32.4315 Q1025.59 32.4315 1021.58 37.0496 Q1017.57 41.6271 1017.57 49.9314 Q1017.57 58.2358 1021.58 62.8538 Q1025.59 67.4314 1032.84 67.4314 Q1036.08 67.4314 1039.24 66.5807 Q1042.44 65.6895 1045.6 63.9476 L1045.6 70.8341 Q1042.48 72.2924 1039.12 73.0216 Q1035.79 73.7508 1032.03 73.7508 Q1021.78 73.7508 1015.74 67.3098 Q1009.71 60.8689 1009.71 49.9314 Q1009.71 38.832 1015.78 32.472 Q1021.9 26.1121 1032.51 26.1121 Q1035.96 26.1121 1039.24 26.8413 Q1042.52 27.5299 1045.6 28.9478 Z" fill="#000000" fill-rule="nonzero" fill-opacity="1"></path><path clip-path="url(#clip670)" d="M1096.27 45.1919 L1096.27 72.576 L1088.82 72.576 L1088.82 45.4349 Q1088.82 38.994 1086.31 35.7938 Q1083.8 32.5936 1078.77 32.5936 Q1072.74 32.5936 1069.25 36.4419 Q1065.77 40.2903 1065.77 46.9338 L1065.77 72.576 L1058.28 72.576 L1058.28 9.54393 L1065.77 9.54393 L1065.77 34.2544 Q1068.44 30.163 1072.05 28.1376 Q1075.7 26.1121 1080.44 26.1121 Q1088.25 26.1121 1092.26 30.9732 Q1096.27 35.7938 1096.27 45.1919 Z" fill="#000000" fill-rule="nonzero" fill-opacity="1"></path><path clip-path="url(#clip670)" d="M1119.65 18.8205 L1119.65 41.5461 L1129.94 41.5461 Q1135.65 41.5461 1138.77 38.5889 Q1141.89 35.6318 1141.89 30.163 Q1141.89 24.7348 1138.77 21.7777 Q1135.65 18.8205 1129.94 18.8205 L1119.65 18.8205 M1111.47 12.096 L1129.94 12.096 Q1140.11 12.096 1145.29 16.714 Q1150.52 21.2916 1150.52 30.163 Q1150.52 39.1155 1145.29 43.6931 Q1140.11 48.2706 1129.94 48.2706 L1119.65 48.2706 L1119.65 72.576 L1111.47 72.576 L1111.47 12.096 Z" fill="#000000" fill-rule="nonzero" fill-opacity="1"></path><path clip-path="url(#clip670)" d="M1158.58 12.096 L1167.37 12.096 L1182.4 34.5785 L1197.51 12.096 L1206.3 12.096 L1186.85 41.141 L1207.59 72.576 L1198.8 72.576 L1181.79 46.8528 L1164.65 72.576 L1155.82 72.576 L1177.41 40.2903 L1158.58 12.096 Z" fill="#000000" fill-rule="nonzero" fill-opacity="1"></path><path clip-path="url(#clip670)" d="M1219.91 62.2867 L1228.46 62.2867 L1228.46 69.2543 L1221.81 82.2172 L1216.59 82.2172 L1219.91 69.2543 L1219.91 62.2867 Z" fill="#000000" fill-rule="nonzero" fill-opacity="1"></path><path clip-path="url(#clip670)" d="M1300.6 34.0924 L1300.6 9.54393 L1308.06 9.54393 L1308.06 72.576 L1300.6 72.576 L1300.6 65.7705 Q1298.25 69.8214 1294.65 71.8063 Q1291.08 73.7508 1286.06 73.7508 Q1277.84 73.7508 1272.65 67.1883 Q1267.51 60.6258 1267.51 49.9314 Q1267.51 39.2371 1272.65 32.6746 Q1277.84 26.1121 1286.06 26.1121 Q1291.08 26.1121 1294.65 28.0971 Q1298.25 30.0415 1300.6 34.0924 M1275.2 49.9314 Q1275.2 58.1548 1278.57 62.8538 Q1281.97 67.5124 1287.88 67.5124 Q1293.8 67.5124 1297.2 62.8538 Q1300.6 58.1548 1300.6 49.9314 Q1300.6 41.7081 1297.2 37.0496 Q1293.8 32.3505 1287.88 32.3505 Q1281.97 32.3505 1278.57 37.0496 Q1275.2 41.7081 1275.2 49.9314 Z" fill="#000000" fill-rule="nonzero" fill-opacity="1"></path><path clip-path="url(#clip670)" d="M1362.22 48.0275 L1362.22 51.6733 L1327.95 51.6733 Q1328.43 59.3701 1332.56 63.421 Q1336.74 67.4314 1344.15 67.4314 Q1348.44 67.4314 1352.45 66.3781 Q1356.5 65.3249 1360.47 63.2184 L1360.47 70.267 Q1356.46 71.9684 1352.25 72.8596 Q1348.04 73.7508 1343.7 73.7508 Q1332.85 73.7508 1326.49 67.4314 Q1320.17 61.1119 1320.17 50.3365 Q1320.17 39.1965 1326.16 32.6746 Q1332.2 26.1121 1342.41 26.1121 Q1351.56 26.1121 1356.87 32.0264 Q1362.22 37.9003 1362.22 48.0275 M1354.76 45.84 Q1354.68 39.7232 1351.32 36.0774 Q1348 32.4315 1342.49 32.4315 Q1336.25 32.4315 1332.48 35.9558 Q1328.76 39.4801 1328.19 45.8805 L1354.76 45.84 Z" fill="#000000" fill-rule="nonzero" fill-opacity="1"></path><path clip-path="url(#clip670)" d="M1374.45 9.54393 L1381.9 9.54393 L1381.9 72.576 L1374.45 72.576 L1374.45 9.54393 Z" fill="#000000" fill-rule="nonzero" fill-opacity="1"></path><path clip-path="url(#clip670)" d="M1404.87 14.324 L1404.87 27.2059 L1420.23 27.2059 L1420.23 32.9987 L1404.87 32.9987 L1404.87 57.6282 Q1404.87 63.1779 1406.37 64.7578 Q1407.91 66.3376 1412.57 66.3376 L1420.23 66.3376 L1420.23 72.576 L1412.57 72.576 Q1403.94 72.576 1400.66 69.3758 Q1397.38 66.1351 1397.38 57.6282 L1397.38 32.9987 L1391.91 32.9987 L1391.91 27.2059 L1397.38 27.2059 L1397.38 14.324 L1404.87 14.324 Z" fill="#000000" fill-rule="nonzero" fill-opacity="1"></path><path clip-path="url(#clip670)" d="M1450.65 49.7694 Q1441.61 49.7694 1438.13 51.8354 Q1434.65 53.9013 1434.65 58.8839 Q1434.65 62.8538 1437.24 65.2034 Q1439.87 67.5124 1444.37 67.5124 Q1450.57 67.5124 1454.29 63.1374 Q1458.06 58.7219 1458.06 51.4303 L1458.06 49.7694 L1450.65 49.7694 M1465.51 46.6907 L1465.51 72.576 L1458.06 72.576 L1458.06 65.6895 Q1455.51 69.8214 1451.7 71.8063 Q1447.89 73.7508 1442.38 73.7508 Q1435.42 73.7508 1431.28 69.8619 Q1427.19 65.9325 1427.19 59.3701 Q1427.19 51.7138 1432.3 47.825 Q1437.44 43.9361 1447.61 43.9361 L1458.06 43.9361 L1458.06 43.2069 Q1458.06 38.0623 1454.66 35.2672 Q1451.3 32.4315 1445.18 32.4315 Q1441.29 32.4315 1437.6 33.3632 Q1433.92 34.295 1430.51 36.1584 L1430.51 29.2718 Q1434.61 27.692 1438.45 26.9223 Q1442.3 26.1121 1445.95 26.1121 Q1455.79 26.1121 1460.65 31.2163 Q1465.51 36.3204 1465.51 46.6907 Z" fill="#000000" fill-rule="nonzero" fill-opacity="1"></path><path clip-path="url(#clip670)" d="M1514.61 14.324 L1514.61 27.2059 L1529.96 27.2059 L1529.96 32.9987 L1514.61 32.9987 L1514.61 57.6282 Q1514.61 63.1779 1516.11 64.7578 Q1517.65 66.3376 1522.31 66.3376 L1529.96 66.3376 L1529.96 72.576 L1522.31 72.576 Q1513.68 72.576 1510.4 69.3758 Q1507.12 66.1351 1507.12 57.6282 L1507.12 32.9987 L1501.65 32.9987 L1501.65 27.2059 L1507.12 27.2059 L1507.12 14.324 L1514.61 14.324 Z" fill="#000000" fill-rule="nonzero" fill-opacity="1"></path><path clip-path="url(#clip670)" d="M1558.64 76.7889 Q1555.48 84.8907 1552.49 87.3618 Q1549.49 89.8329 1544.47 89.8329 L1538.51 89.8329 L1538.51 83.5945 L1542.89 83.5945 Q1545.97 83.5945 1547.67 82.1361 Q1549.37 80.6778 1551.43 75.2496 L1552.77 71.8468 L1534.42 27.2059 L1542.32 27.2059 L1556.5 62.6918 L1570.68 27.2059 L1578.58 27.2059 L1558.64 76.7889 Z" fill="#000000" fill-rule="nonzero" fill-opacity="1"></path><path clip-path="url(#clip670)" d="M1596.08 65.7705 L1596.08 89.8329 L1588.58 89.8329 L1588.58 27.2059 L1596.08 27.2059 L1596.08 34.0924 Q1598.42 30.0415 1601.99 28.0971 Q1605.59 26.1121 1610.58 26.1121 Q1618.84 26.1121 1623.99 32.6746 Q1629.17 39.2371 1629.17 49.9314 Q1629.17 60.6258 1623.99 67.1883 Q1618.84 73.7508 1610.58 73.7508 Q1605.59 73.7508 1601.99 71.8063 Q1598.42 69.8214 1596.08 65.7705 M1621.43 49.9314 Q1621.43 41.7081 1618.03 37.0496 Q1614.67 32.3505 1608.75 32.3505 Q1602.84 32.3505 1599.44 37.0496 Q1596.08 41.7081 1596.08 49.9314 Q1596.08 58.1548 1599.44 62.8538 Q1602.84 67.5124 1608.75 67.5124 Q1614.67 67.5124 1618.03 62.8538 Q1621.43 58.1548 1621.43 49.9314 Z" fill="#000000" fill-rule="nonzero" fill-opacity="1"></path><path clip-path="url(#clip670)" d="M1680.33 48.0275 L1680.33 51.6733 L1646.06 51.6733 Q1646.55 59.3701 1650.68 63.421 Q1654.85 67.4314 1662.27 67.4314 Q1666.56 67.4314 1670.57 66.3781 Q1674.62 65.3249 1678.59 63.2184 L1678.59 70.267 Q1674.58 71.9684 1670.37 72.8596 Q1666.16 73.7508 1661.82 73.7508 Q1650.96 73.7508 1644.6 67.4314 Q1638.29 61.1119 1638.29 50.3365 Q1638.29 39.1965 1644.28 32.6746 Q1650.32 26.1121 1660.52 26.1121 Q1669.68 26.1121 1674.99 32.0264 Q1680.33 37.9003 1680.33 48.0275 M1672.88 45.84 Q1672.8 39.7232 1669.44 36.0774 Q1666.12 32.4315 1660.61 32.4315 Q1654.37 32.4315 1650.6 35.9558 Q1646.87 39.4801 1646.31 45.8805 L1672.88 45.84 Z" fill="#000000" fill-rule="nonzero" fill-opacity="1"></path><polyline clip-path="url(#clip672)" style="stroke:#009af9; stroke-linecap:round; stroke-linejoin:round; stroke-width:4; stroke-opacity:1; fill:none" points="263.091,1386.4 311.581,1386.4 355.672,1386.4 395.937,1386.4 432.854,1386.4 466.825,1386.4 498.191,1386.4 527.24,1386.4 554.221,1386.4 579.348,1386.4 602.806,1386.4 624.757,1386.4 645.342,1386.4 664.685,1386.4 682.896,1386.4 700.072,1386.4 716.298,1386.4 731.653,1386.4 746.205,1386.4 760.015,1386.4 773.14,1386.4 785.629,1386.4 797.528,1386.4 808.878,1386.4 819.716,1386.4 830.077,1386.4 839.992,1386.4 849.489,1386.4 858.594,1386.4 867.331,1386.4 875.723,1386.4 883.789,1386.4 891.549,1386.4 899.02,1386.4 906.217,1386.4 913.156,1386.4 919.851,1386.4 926.315,1386.4 932.559,1386.4 938.594,1386.4 944.432,1386.4 950.081,1386.4 955.551,1386.4 960.851,1386.4 965.988,1386.4 970.97,1386.4 975.803,1386.4 980.496,1386.4 985.053,1386.4 989.481,1386.4 993.786,1386.4 997.972,1386.4 1002.04,1386.4 1006.01,1386.4 1009.87,1386.4 1013.62,1386.4 1017.29,1386.4 1020.86,1386.4 1024.34,1386.4 1027.73,1386.4 1031.04,1386.4 1034.28,1386.4 1037.43,1386.4 1040.52,1386.4 1043.53,1386.4 1046.47,1386.4 1049.35,1386.4 1052.16,1386.4 1054.92,1386.4 1057.61,1386.4 1060.24,1386.4 1062.82,1386.4 1065.35,1386.4 1067.82,1386.4 1070.24,1386.4 1072.61,1386.4 1074.94,1386.4 1077.22,1386.4 1079.46,1386.4 1081.65,1386.4 1083.8,1386.4 1085.91,1386.4 1087.98,1386.4 1090.01,1386.4 1092.01,1386.4 1093.97,1386.4 1095.89,1386.4 1097.78,1386.4 1099.64,1386.4 1101.46,1386.4 1103.25,1386.4 1105.02,1386.4 1106.75,1386.4 1108.45,1386.4 1110.13,1386.4 1111.78,1386.4 1113.4,1386.4 1115,1386.4 1116.57,1386.4 1118.11,1386.4 1119.64,1386.4 1121.14,1386.4 1122.61,1386.4 1124.06,1386.4 1125.5,1386.4 1126.91,1386.4 1128.3,1386.4 1129.67,1386.4 1131.02,1386.4 1132.35,1386.4 1133.66,1386.4 1134.95,1386.4 1136.23,1386.4 1137.48,1386.4 1138.72,1386.4 1139.95,1386.4 1141.15,1386.4 1142.34,1386.4 1143.52,1386.4 1144.68,1386.4 1145.82,1386.4 1146.95,1386.4 1148.07,1386.4 1149.17,1386.4 1150.26,1386.4 1151.33,1386.4 1152.39,1386.4 1153.44,1386.4 1154.48,1386.4 1155.5,1386.4 1156.51,1386.4 1157.51,1386.4 1158.49,1386.4 1159.47,1386.4 1160.43,1386.4 1161.39,1386.4 1162.33,1386.4 1163.26,1386.4 1164.18,1386.4 1165.09,1386.4 1165.99,1386.4 1166.88,1386.4 1167.77,1386.4 1168.64,1386.4 1169.5,1386.4 1170.35,1386.4 1171.2,1386.4 1172.03,1386.4 1172.86,1386.4 1173.68,1386.4 1174.49,1386.4 1175.29,1386.4 1176.09,1386.4 1176.87,1386.4 1177.65,1386.4 1178.42,1386.4 1179.19,1386.4 1179.94,1386.4 1180.69,1386.4 1181.43,1386.4 1182.17,1386.4 1182.9,1386.4 1183.62,1386.4 1184.33,1386.4 1185.04,1386.4 1185.74,1386.4 1186.44,1386.4 1187.13,1386.4 1187.81,1386.4 1188.49,1386.4 1189.16,1386.4 1189.82,1386.4 1190.48,1386.4 1191.14,1386.4 1191.78,1386.4 1192.43,1386.4 1193.06,1386.4 1193.7,1386.4 1194.32,1386.4 1194.95,1386.4 1195.56,1386.4 1196.18,1386.4 1196.78,1386.4 1197.38,1386.4 1197.98,1386.4 1198.58,1386.4 1199.16,1386.4 1199.75,1386.4 1200.33,1386.4 1200.9,1386.4 1201.47,1386.4 1202.04,1386.4 1202.6,1386.4 1203.16,1386.4 1203.71,1386.4 1204.26,1386.4 1204.81,1386.4 1205.35,1386.4 1205.89,1386.4 1206.43,1386.4 1206.96,1386.4 1207.48,1386.4 1208.01,1386.4 1208.53,1386.4 1209.04,1386.4 1209.56,1386.4 1210.07,1386.4 1210.57,1386.4 1211.08,1386.4 1211.58,1386.4 1212.07,1386.4 1212.57,1386.4 1213.06,1386.4 1213.54,1386.4 1214.03,1386.4 1214.51,1386.4 1214.99,1386.4 1215.46,1386.4 1215.93,1386.4 1216.4,1386.4 1216.87,1386.4 1217.33,1386.4 1217.79,1386.4 1218.25,1386.4 1218.71,1386.4 1219.16,1386.4 1219.61,1386.4 1220.06,1386.4 1220.5,1386.4 1220.95,1386.4 1221.39,1386.4 1221.83,1386.4 1222.26,1386.4 1222.69,1386.4 1223.12,1386.4 1223.55,1386.4 1223.98,1386.4 1224.4,1386.4 1224.83,1386.4 1225.25,1386.4 1225.66,1386.4 1226.08,1386.4 1226.49,1386.4 1226.9,1386.4 1227.31,1386.4 1227.72,1386.4 1228.12,1386.4 1228.53,1386.4 1228.93,1386.4 1229.33,1386.4 1229.73,1386.4 1230.12,1386.4 1230.52,1386.4 1230.91,1386.4 1231.3,1386.4 1231.69,1386.4 1232.07,1386.4 1232.46,1386.4 1232.84,1386.4 1233.22,1386.4 1233.6,1386.4 1233.98,1386.4 1234.36,1386.4 1234.73,1386.4 1235.11,1386.4 1235.48,1386.4 1235.85,1386.4 1236.22,1386.4 1236.58,1386.4 1236.95,1386.4 1237.31,1386.4 1237.68,1386.4 1238.04,1386.4 1238.4,1386.4 1238.76,1386.4 1239.12,1386.4 1239.47,1386.4 1239.83,1386.4 1240.18,1386.4 1240.53,1386.4 1240.88,1386.4 1241.23,1386.4 1241.58,1386.4 1241.93,1386.4 1242.27,1386.4 1242.62,1386.4 1242.96,1386.4 1243.3,1386.4 1243.65,1386.4 1243.99,1386.4 1244.33,1386.4 1244.66,1386.4 1245,1386.4 1245.34,1386.4 1245.67,1386.4 1246,1386.4 1246.34,1386.4 1246.67,1386.4 1247,1386.4 1247.33,1386.4 1247.66,1386.4 1247.98,1386.4 1248.31,1386.4 1248.64,1386.4 1248.96,1386.4 1249.29,1386.4 1249.61,1386.4 1249.93,1386.4 1250.25,1386.4 1250.57,1386.4 1250.89,1386.4 1251.21,1386.4 1251.53,1386.4 1251.85,1386.4 1252.16,1386.4 1252.48,1386.4 1252.79,1386.4 1253.11,1386.4 1253.42,1386.4 1253.73,1386.4 1254.04,1386.4 1254.35,1386.4 1254.66,1386.4 1254.97,1386.4 1255.28,1386.4 1255.59,1386.4 1255.9,1386.39 1256.21,1386.39 1256.51,1386.39 1256.82,1386.39 1257.12,1386.39 1257.43,1386.39 1257.73,1386.39 1258.03,1386.39 1258.34,1386.39 1258.64,1386.39 1258.94,1386.39 1259.24,1386.39 1259.54,1386.39 1259.84,1386.39 1260.14,1386.39 1260.44,1386.39 1260.74,1386.39 1261.04,1386.39 1261.33,1386.39 1261.63,1386.39 1261.93,1386.39 1262.22,1386.39 1262.52,1386.39 1262.81,1386.39 1263.11,1386.39 1263.4,1386.39 1263.7,1386.39 1263.99,1386.39 1264.28,1386.39 1264.58,1386.39 1264.87,1386.39 1265.16,1386.39 1265.45,1386.39 1265.74,1386.39 1266.03,1386.39 1266.32,1386.39 1266.61,1386.39 1266.9,1386.39 1267.19,1386.39 1267.48,1386.39 1267.77,1386.39 1268.06,1386.39 1268.35,1386.39 1268.64,1386.39 1268.93,1386.39 1269.21,1386.39 1269.5,1386.39 1269.79,1386.39 1270.08,1386.39 1270.36,1386.39 1270.65,1386.39 1270.94,1386.39 1271.22,1386.39 1271.51,1386.39 1271.79,1386.39 1272.08,1386.39 1272.37,1386.39 1272.65,1386.39 1272.94,1386.39 1273.22,1386.39 1273.51,1386.39 1273.79,1386.39 1274.08,1386.39 1274.36,1386.39 1274.65,1386.39 1274.93,1386.39 1275.22,1386.39 1275.5,1386.39 1275.79,1386.39 1276.07,1386.39 1276.35,1386.39 1276.64,1386.39 1276.92,1386.39 1277.21,1386.39 1277.49,1386.39 1277.78,1386.39 1278.06,1386.39 1278.34,1386.39 1278.63,1386.39 1278.91,1386.39 1279.2,1386.39 1279.48,1386.39 1279.77,1386.39 1280.05,1386.39 1280.34,1386.39 1280.62,1386.39 1280.91,1386.39 1281.19,1386.39 1281.48,1386.39 1281.76,1386.39 1282.05,1386.39 1282.33,1386.39 1282.62,1386.39 1282.9,1386.39 1283.19,1386.39 1283.47,1386.39 1283.76,1386.39 1284.05,1386.39 1284.33,1386.39 1284.62,1386.39 1284.91,1386.39 1285.19,1386.39 1285.48,1386.39 1285.77,1386.39 1286.06,1386.39 1286.34,1386.39 1286.63,1386.39 1286.92,1386.39 1287.21,1386.39 1287.5,1386.39 1287.79,1386.39 1288.08,1386.39 1288.37,1386.39 1288.66,1386.39 1288.95,1386.39 1289.24,1386.39 1289.53,1386.39 1289.82,1386.39 1290.12,1386.39 1290.41,1386.39 1290.7,1386.39 1290.99,1386.39 1291.29,1386.39 1291.58,1386.39 1291.88,1386.39 1292.17,1386.39 1292.47,1386.39 1292.76,1386.39 1293.06,1386.39 1293.35,1386.39 1293.65,1386.39 1293.95,1386.39 1294.25,1386.39 1294.54,1386.39 1294.84,1386.39 1295.14,1386.39 1295.44,1386.39 1295.74,1386.39 1296.04,1386.39 1296.34,1386.39 1296.65,1386.39 1296.95,1386.39 1297.25,1386.39 1297.56,1386.39 1297.86,1386.39 1298.17,1386.39 1298.47,1386.39 1298.78,1386.39 1299.08,1386.39 1299.39,1386.39 1299.7,1386.39 1300.01,1386.39 1300.32,1386.39 1300.63,1386.39 1300.94,1386.39 1301.25,1386.39 1301.56,1386.39 1301.88,1386.39 1302.19,1386.39 1302.51,1386.39 1302.82,1386.39 1303.14,1386.39 1303.46,1386.39 1303.77,1386.39 1304.09,1386.39 1304.41,1386.39 1304.73,1386.39 1305.05,1386.39 1305.38,1386.39 1305.7,1386.39 1306.02,1386.39 1306.35,1386.39 1306.67,1386.39 1307,1386.39 1307.33,1386.39 1307.66,1386.39 1307.99,1386.39 1308.32,1386.39 1308.65,1386.39 1308.98,1386.39 1309.31,1386.39 1309.65,1386.39 1309.98,1386.39 1310.32,1386.39 1310.66,1386.39 1311,1386.39 1311.34,1386.39 1311.68,1386.39 1312.02,1386.39 1312.36,1386.39 1312.71,1386.39 1313.06,1386.39 1313.4,1386.39 1313.75,1386.39 1314.1,1386.39 1314.45,1386.39 1314.8,1386.39 1315.16,1386.39 1315.51,1386.39 1315.87,1386.39 1316.23,1386.39 1316.58,1386.39 1316.94,1386.39 1317.31,1386.39 1317.67,1386.39 1318.03,1386.39 1318.4,1386.39 1318.77,1386.39 1319.14,1386.39 1319.51,1386.39 1319.88,1386.39 1320.25,1386.39 1320.63,1386.39 1321,1386.39 1321.38,1386.39 1321.76,1386.39 1322.14,1386.39 1322.53,1386.39 1322.91,1386.39 1323.3,1386.39 1323.69,1386.39 1324.08,1386.39 1324.47,1386.39 1324.86,1386.39 1325.26,1386.39 1325.65,1386.39 1326.05,1386.39 1326.46,1386.39 1326.86,1386.39 1327.26,1386.39 1327.67,1386.39 1328.08,1386.39 1328.49,1386.39 1328.91,1386.39 1329.32,1386.39 1329.74,1386.39 1330.16,1386.39 1330.58,1386.39 1331,1386.39 1331.43,1386.39 1331.86,1386.39 1332.29,1386.39 1332.72,1386.39 1333.16,1386.39 1333.6,1386.39 1334.04,1386.39 1334.48,1386.39 1334.92,1386.39 1335.37,1386.39 1335.82,1386.39 1336.28,1386.39 1336.73,1386.39 1337.19,1386.39 1337.65,1386.39 1338.11,1386.39 1338.58,1386.39 1339.05,1386.39 1339.52,1386.39 1340,1386.39 1340.48,1386.39 1340.96,1386.39 1341.44,1386.39 1341.93,1386.39 1342.42,1386.39 1342.91,1386.39 1343.41,1386.39 1343.91,1386.39 1344.41,1386.39 1344.92,1386.39 1345.43,1386.39 1345.94,1386.39 1346.46,1386.39 1346.98,1386.39 1347.5,1386.39 1348.03,1386.39 1348.56,1386.39 1349.09,1386.39 1349.63,1386.39 1350.17,1386.39 1350.72,1386.39 1351.27,1386.39 1351.82,1386.39 1352.38,1386.39 1352.94,1386.39 1353.51,1386.39 1354.08,1386.39 1354.66,1386.39 1355.24,1386.39 1355.82,1386.39 1356.41,1386.39 1357,1386.39 1357.6,1386.39 1358.2,1386.39 1358.81,1386.39 1359.42,1386.39 1360.04,1386.39 1360.66,1386.39 1361.29,1386.39 1361.92,1386.39 1362.56,1386.39 1363.2,1386.39 1363.85,1386.39 1364.5,1386.39 1365.16,1386.39 1365.83,1386.39 1366.5,1386.39 1367.18,1386.39 1367.86,1386.39 1368.55,1386.39 1369.24,1386.39 1369.94,1386.39 1370.65,1386.39 1371.37,1386.39 1372.09,1386.39 1372.82,1386.39 1373.55,1386.39 1374.29,1386.39 1375.04,1386.39 1375.8,1386.39 1376.56,1386.39 1377.33,1386.39 1378.11,1386.39 1378.9,1386.39 1379.69,1386.39 1380.49,1386.39 1381.3,1386.39 1382.12,1386.39 1382.95,1386.39 1383.79,1386.39 1384.63,1386.39 1385.48,1386.39 1386.35,1386.39 1387.22,1386.39 1388.1,1386.39 1388.99,1386.39 1389.89,1386.39 1390.8,1386.39 1391.72,1386.39 1392.66,1386.39 1393.6,1386.39 1394.55,1386.39 1395.51,1386.39 1396.49,1386.39 1397.48,1386.39 1398.47,1386.39 1399.49,1386.39 1400.51,1386.39 1401.54,1386.39 1402.59,1386.39 1403.65,1386.39 1404.73,1386.39 1405.81,1386.39 1406.91,1386.39 1408.03,1386.39 1409.16,1386.39 1410.3,1386.39 1411.46,1386.39 1412.64,1386.39 1413.83,1386.39 1415.04,1386.39 1416.26,1386.39 1417.5,1386.39 1418.76,1386.39 1420.03,1386.39 1421.33,1386.39 1422.64,1386.39 1423.97,1386.39 1425.32,1386.39 1426.69,1386.39 1428.08,1386.39 1429.49,1386.39 1430.92,1386.38 1432.37,1386.1 1433.85,1386.34 1435.35,1386.35 1436.87,1374.71 1438.41,1386.3 1439.99,1386.36 1441.58,1370.91 1443.2,1386.13 1444.85,1383.3 1446.53,1386.19 1448.23,1386.37 1449.97,1380.24 1451.73,1386.32 1453.52,1386.11 1455.35,1385.63 1457.2,1382.09 1459.09,1386.24 1461.02,1386.3 1462.98,1386.2 1464.97,1386.35 1467,1386.21 1469.07,1385.55 1471.18,1386.07 1473.33,1385.34 1475.53,1385.68 1477.76,1386.09 1480.04,1386.36 1482.37,1384.97 1484.74,1386.33 1487.16,1386.16 1489.64,1386.29 1492.16,1386.31 1494.74,1386.38 1497.38,1386.37 1500.07,1385.62 1502.82,1386.32 1505.63,1386.06 1508.51,1386.22 1511.45,1386.25 1514.47,1386.04 1517.55,1386.31 1520.71,1386.11 1523.94,1386.34 1527.25,1386.31 1530.65,1386.33 1534.13,1361.99 1537.7,1250.03 1541.36,1386.1 1545.12,1278.69 1548.98,1383.22 1552.94,1314.58 1557.01,1283.07 1561.2,1378.61 1565.5,1377.27 1569.93,1378.73 1574.49,1381.37 1579.18,1339.25 1584.01,1384.8 1589,1350.38 1594.13,1342.23 1599.43,802.879 1604.9,160.256 1610.55,1385.09 1616.39,1386.08 1622.42,1386.18 1628.67,1385.88 1635.13,949.881 1641.83,1051.87 1648.77,1382.64 1655.96,1381.95 1663.43,1382.97 1671.19,1080.55 1679.26,1380.92 1687.65,1386.02 1696.39,1385.78 1705.49,1386.16 1714.99,1376.96 1724.91,1385.73 1735.27,1386.38 1746.11,1384.85 1757.46,1386.27 1769.35,1385.76 1781.84,1386.36 1794.97,1385.32 1808.78,1386.36 1823.33,1386.39 1838.68,1386.34 1854.91,1386.36 1872.09,1384.27 1890.3,1386.36 1909.64,1364.24 1930.23,1386.29 1952.18,1386.23 1975.64,1386.18 2000.76,1386.32 2027.74,1386.38 2056.79,1385.35 2088.16,1386.36 2122.13,1386.4 2159.05,1386.4 2199.31,1386.4 2243.4,1386.4 2291.89,1386.4 "></polyline>
<circle clip-path="url(#clip672)" cx="1565.07" cy="1386.4" r="14.4" fill="#ff0000" fill-rule="evenodd" fill-opacity="1" stroke="#000000" stroke-opacity="1" stroke-width="3.2"></circle>
<circle clip-path="url(#clip672)" cx="1691.6" cy="1386.4" r="14.4" fill="#ff0000" fill-rule="evenodd" fill-opacity="1" stroke="#000000" stroke-opacity="1" stroke-width="3.2"></circle>
<path clip-path="url(#clip670)" d="M1620.74 322.316 L2281.07 322.316 L2281.07 166.796 L1620.74 166.796  Z" fill="#ffffff" fill-rule="evenodd" fill-opacity="1"></path>
<polyline clip-path="url(#clip670)" style="stroke:#000000; stroke-linecap:round; stroke-linejoin:round; stroke-width:4; stroke-opacity:1; fill:none" points="1620.74,322.316 2281.07,322.316 2281.07,166.796 1620.74,166.796 1620.74,322.316 "></polyline>
<polyline clip-path="url(#clip670)" style="stroke:#009af9; stroke-linecap:round; stroke-linejoin:round; stroke-width:4; stroke-opacity:1; fill:none" points="1644.64,218.636 1788.01,218.636 "></polyline>
<path clip-path="url(#clip670)" d="M1827.09 213.971 Q1826.37 213.555 1825.51 213.37 Q1824.68 213.161 1823.66 213.161 Q1820.05 213.161 1818.11 215.522 Q1816.18 217.86 1816.18 222.258 L1816.18 235.916 L1811.9 235.916 L1811.9 209.99 L1816.18 209.99 L1816.18 214.018 Q1817.53 211.657 1819.68 210.522 Q1821.83 209.365 1824.91 209.365 Q1825.35 209.365 1825.88 209.434 Q1826.42 209.481 1827.06 209.596 L1827.09 213.971 Z" fill="#000000" fill-rule="nonzero" fill-opacity="1"></path><path clip-path="url(#clip670)" d="M1852.69 221.888 L1852.69 223.971 L1833.11 223.971 Q1833.38 228.369 1835.74 230.684 Q1838.13 232.976 1842.36 232.976 Q1844.82 232.976 1847.11 232.374 Q1849.42 231.772 1851.69 230.569 L1851.69 234.596 Q1849.4 235.568 1846.99 236.078 Q1844.59 236.587 1842.11 236.587 Q1835.91 236.587 1832.27 232.976 Q1828.66 229.365 1828.66 223.207 Q1828.66 216.842 1832.09 213.115 Q1835.54 209.365 1841.37 209.365 Q1846.6 209.365 1849.63 212.745 Q1852.69 216.101 1852.69 221.888 M1848.43 220.638 Q1848.38 217.143 1846.46 215.059 Q1844.56 212.976 1841.42 212.976 Q1837.85 212.976 1835.7 214.99 Q1833.57 217.004 1833.24 220.661 L1848.43 220.638 Z" fill="#000000" fill-rule="nonzero" fill-opacity="1"></path><path clip-path="url(#clip670)" d="M1878.34 210.985 L1878.34 214.967 Q1876.53 213.971 1874.7 213.485 Q1872.9 212.976 1871.04 212.976 Q1866.9 212.976 1864.61 215.615 Q1862.32 218.231 1862.32 222.976 Q1862.32 227.721 1864.61 230.36 Q1866.9 232.976 1871.04 232.976 Q1872.9 232.976 1874.7 232.49 Q1876.53 231.981 1878.34 230.985 L1878.34 234.92 Q1876.55 235.754 1874.63 236.17 Q1872.73 236.587 1870.58 236.587 Q1864.73 236.587 1861.28 232.906 Q1857.83 229.226 1857.83 222.976 Q1857.83 216.633 1861.3 212.999 Q1864.79 209.365 1870.86 209.365 Q1872.83 209.365 1874.7 209.782 Q1876.58 210.175 1878.34 210.985 Z" fill="#000000" fill-rule="nonzero" fill-opacity="1"></path><path clip-path="url(#clip670)" d="M1895.79 212.976 Q1892.36 212.976 1890.37 215.661 Q1888.38 218.323 1888.38 222.976 Q1888.38 227.629 1890.35 230.314 Q1892.34 232.976 1895.79 232.976 Q1899.19 232.976 1901.18 230.291 Q1903.17 227.606 1903.17 222.976 Q1903.17 218.37 1901.18 215.684 Q1899.19 212.976 1895.79 212.976 M1895.79 209.365 Q1901.35 209.365 1904.52 212.976 Q1907.69 216.587 1907.69 222.976 Q1907.69 229.342 1904.52 232.976 Q1901.35 236.587 1895.79 236.587 Q1890.21 236.587 1887.04 232.976 Q1883.89 229.342 1883.89 222.976 Q1883.89 216.587 1887.04 212.976 Q1890.21 209.365 1895.79 209.365 Z" fill="#000000" fill-rule="nonzero" fill-opacity="1"></path><path clip-path="url(#clip670)" d="M1936.3 220.268 L1936.3 235.916 L1932.04 235.916 L1932.04 220.407 Q1932.04 216.726 1930.6 214.897 Q1929.17 213.069 1926.3 213.069 Q1922.85 213.069 1920.86 215.268 Q1918.87 217.467 1918.87 221.263 L1918.87 235.916 L1914.59 235.916 L1914.59 209.99 L1918.87 209.99 L1918.87 214.018 Q1920.4 211.68 1922.46 210.522 Q1924.54 209.365 1927.25 209.365 Q1931.72 209.365 1934.01 212.143 Q1936.3 214.897 1936.3 220.268 Z" fill="#000000" fill-rule="nonzero" fill-opacity="1"></path><path clip-path="url(#clip670)" d="M1961.32 210.754 L1961.32 214.782 Q1959.52 213.856 1957.57 213.393 Q1955.63 212.93 1953.54 212.93 Q1950.37 212.93 1948.78 213.902 Q1947.2 214.874 1947.2 216.819 Q1947.2 218.3 1948.34 219.157 Q1949.47 219.99 1952.9 220.754 L1954.35 221.078 Q1958.89 222.05 1960.79 223.832 Q1962.71 225.592 1962.71 228.763 Q1962.71 232.374 1959.84 234.481 Q1956.99 236.587 1951.99 236.587 Q1949.91 236.587 1947.64 236.17 Q1945.4 235.777 1942.9 234.967 L1942.9 230.569 Q1945.26 231.795 1947.55 232.42 Q1949.84 233.022 1952.09 233.022 Q1955.1 233.022 1956.72 232.004 Q1958.34 230.962 1958.34 229.087 Q1958.34 227.351 1957.16 226.425 Q1956 225.499 1952.04 224.643 L1950.56 224.295 Q1946.6 223.462 1944.84 221.749 Q1943.08 220.013 1943.08 217.004 Q1943.08 213.346 1945.67 211.356 Q1948.27 209.365 1953.03 209.365 Q1955.4 209.365 1957.48 209.712 Q1959.56 210.059 1961.32 210.754 Z" fill="#000000" fill-rule="nonzero" fill-opacity="1"></path><path clip-path="url(#clip670)" d="M1973.71 202.629 L1973.71 209.99 L1982.48 209.99 L1982.48 213.3 L1973.71 213.3 L1973.71 227.374 Q1973.71 230.545 1974.56 231.448 Q1975.44 232.351 1978.1 232.351 L1982.48 232.351 L1982.48 235.916 L1978.1 235.916 Q1973.17 235.916 1971.3 234.087 Q1969.42 232.235 1969.42 227.374 L1969.42 213.3 L1966.3 213.3 L1966.3 209.99 L1969.42 209.99 L1969.42 202.629 L1973.71 202.629 Z" fill="#000000" fill-rule="nonzero" fill-opacity="1"></path><path clip-path="url(#clip670)" d="M2003.1 213.971 Q2002.39 213.555 2001.53 213.37 Q2000.7 213.161 1999.68 213.161 Q1996.07 213.161 1994.12 215.522 Q1992.2 217.86 1992.2 222.258 L1992.2 235.916 L1987.92 235.916 L1987.92 209.99 L1992.2 209.99 L1992.2 214.018 Q1993.54 211.657 1995.7 210.522 Q1997.85 209.365 2000.93 209.365 Q2001.37 209.365 2001.9 209.434 Q2002.43 209.481 2003.08 209.596 L2003.1 213.971 Z" fill="#000000" fill-rule="nonzero" fill-opacity="1"></path><path clip-path="url(#clip670)" d="M2007.13 225.684 L2007.13 209.99 L2011.39 209.99 L2011.39 225.522 Q2011.39 229.203 2012.83 231.055 Q2014.26 232.883 2017.13 232.883 Q2020.58 232.883 2022.57 230.684 Q2024.59 228.485 2024.59 224.689 L2024.59 209.99 L2028.84 209.99 L2028.84 235.916 L2024.59 235.916 L2024.59 231.934 Q2023.03 234.295 2020.97 235.453 Q2018.94 236.587 2016.23 236.587 Q2011.76 236.587 2009.45 233.809 Q2007.13 231.031 2007.13 225.684 M2017.85 209.365 L2017.85 209.365 Z" fill="#000000" fill-rule="nonzero" fill-opacity="1"></path><path clip-path="url(#clip670)" d="M2056.28 210.985 L2056.28 214.967 Q2054.47 213.971 2052.64 213.485 Q2050.84 212.976 2048.98 212.976 Q2044.84 212.976 2042.55 215.615 Q2040.26 218.231 2040.26 222.976 Q2040.26 227.721 2042.55 230.36 Q2044.84 232.976 2048.98 232.976 Q2050.84 232.976 2052.64 232.49 Q2054.47 231.981 2056.28 230.985 L2056.28 234.92 Q2054.49 235.754 2052.57 236.17 Q2050.67 236.587 2048.52 236.587 Q2042.66 236.587 2039.22 232.906 Q2035.77 229.226 2035.77 222.976 Q2035.77 216.633 2039.24 212.999 Q2042.73 209.365 2048.8 209.365 Q2050.77 209.365 2052.64 209.782 Q2054.52 210.175 2056.28 210.985 Z" fill="#000000" fill-rule="nonzero" fill-opacity="1"></path><path clip-path="url(#clip670)" d="M2067.9 202.629 L2067.9 209.99 L2076.67 209.99 L2076.67 213.3 L2067.9 213.3 L2067.9 227.374 Q2067.9 230.545 2068.75 231.448 Q2069.63 232.351 2072.29 232.351 L2076.67 232.351 L2076.67 235.916 L2072.29 235.916 Q2067.36 235.916 2065.49 234.087 Q2063.61 232.235 2063.61 227.374 L2063.61 213.3 L2060.49 213.3 L2060.49 209.99 L2063.61 209.99 L2063.61 202.629 L2067.9 202.629 Z" fill="#000000" fill-rule="nonzero" fill-opacity="1"></path><path clip-path="url(#clip670)" d="M2104.45 221.888 L2104.45 223.971 L2084.86 223.971 Q2085.14 228.369 2087.5 230.684 Q2089.89 232.976 2094.12 232.976 Q2096.58 232.976 2098.87 232.374 Q2101.18 231.772 2103.45 230.569 L2103.45 234.596 Q2101.16 235.568 2098.75 236.078 Q2096.34 236.587 2093.87 236.587 Q2087.66 236.587 2084.03 232.976 Q2080.42 229.365 2080.42 223.207 Q2080.42 216.842 2083.84 213.115 Q2087.29 209.365 2093.13 209.365 Q2098.36 209.365 2101.39 212.745 Q2104.45 216.101 2104.45 221.888 M2100.19 220.638 Q2100.14 217.143 2098.22 215.059 Q2096.32 212.976 2093.17 212.976 Q2089.61 212.976 2087.46 214.99 Q2085.33 217.004 2085 220.661 L2100.19 220.638 Z" fill="#000000" fill-rule="nonzero" fill-opacity="1"></path><path clip-path="url(#clip670)" d="M2128.5 213.925 L2128.5 199.897 L2132.76 199.897 L2132.76 235.916 L2128.5 235.916 L2128.5 232.027 Q2127.15 234.342 2125.09 235.476 Q2123.06 236.587 2120.19 236.587 Q2115.49 236.587 2112.52 232.837 Q2109.59 229.087 2109.59 222.976 Q2109.59 216.865 2112.52 213.115 Q2115.49 209.365 2120.19 209.365 Q2123.06 209.365 2125.09 210.499 Q2127.15 211.61 2128.5 213.925 M2113.98 222.976 Q2113.98 227.675 2115.9 230.36 Q2117.85 233.022 2121.23 233.022 Q2124.61 233.022 2126.55 230.36 Q2128.5 227.675 2128.5 222.976 Q2128.5 218.277 2126.55 215.615 Q2124.61 212.93 2121.23 212.93 Q2117.85 212.93 2115.9 215.615 Q2113.98 218.277 2113.98 222.976 Z" fill="#000000" fill-rule="nonzero" fill-opacity="1"></path><path clip-path="url(#clip670)" d="M2168.33 205.962 L2161.99 223.161 L2174.7 223.161 L2168.33 205.962 M2165.7 201.356 L2171 201.356 L2184.17 235.916 L2179.31 235.916 L2176.16 227.05 L2160.58 227.05 L2157.43 235.916 L2152.5 235.916 L2165.7 201.356 Z" fill="#000000" fill-rule="nonzero" fill-opacity="1"></path><path clip-path="url(#clip670)" d="M2199.26 199.944 Q2196.16 205.268 2194.65 210.476 Q2193.15 215.684 2193.15 221.032 Q2193.15 226.379 2194.65 231.633 Q2196.18 236.865 2199.26 242.166 L2195.56 242.166 Q2192.08 236.726 2190.35 231.471 Q2188.64 226.217 2188.64 221.032 Q2188.64 215.87 2190.35 210.638 Q2192.06 205.407 2195.56 199.944 L2199.26 199.944 Z" fill="#000000" fill-rule="nonzero" fill-opacity="1"></path><path clip-path="url(#clip670)" d="M2215.79 236.587 Q2206.18 236.587 2206.18 222.837 Q2206.18 217.397 2209.77 209.99 L2214.35 209.99 Q2211.04 217.397 2211.04 222.953 Q2211.04 232.976 2216.18 232.976 Q2220.88 232.976 2220.88 220.522 L2224.82 220.522 Q2224.82 232.976 2229.51 232.976 Q2234.65 232.976 2234.65 222.953 Q2234.65 217.397 2231.34 209.99 L2235.93 209.99 Q2239.51 217.397 2239.51 222.837 Q2239.51 236.587 2229.91 236.587 Q2223.61 236.587 2222.85 229.666 Q2221.9 236.587 2215.79 236.587 Z" fill="#000000" fill-rule="nonzero" fill-opacity="1"></path><path clip-path="url(#clip670)" d="M2246.55 199.944 L2250.26 199.944 Q2253.73 205.407 2255.44 210.638 Q2257.18 215.87 2257.18 221.032 Q2257.18 226.217 2255.44 231.471 Q2253.73 236.726 2250.26 242.166 L2246.55 242.166 Q2249.63 236.865 2251.14 231.633 Q2252.66 226.379 2252.66 221.032 Q2252.66 215.684 2251.14 210.476 Q2249.63 205.268 2246.55 199.944 Z" fill="#000000" fill-rule="nonzero" fill-opacity="1"></path><circle clip-path="url(#clip670)" cx="1716.32" cy="270.476" r="20.48" fill="#ff0000" fill-rule="evenodd" fill-opacity="1" stroke="#000000" stroke-opacity="1" stroke-width="4.55111"></circle>
<path clip-path="url(#clip670)" d="M1823.8 264.816 Q1820.37 264.816 1818.38 267.501 Q1816.39 270.163 1816.39 274.816 Q1816.39 279.469 1818.36 282.154 Q1820.35 284.816 1823.8 284.816 Q1827.2 284.816 1829.19 282.131 Q1831.18 279.446 1831.18 274.816 Q1831.18 270.21 1829.19 267.524 Q1827.2 264.816 1823.8 264.816 M1823.8 261.205 Q1829.36 261.205 1832.53 264.816 Q1835.7 268.427 1835.7 274.816 Q1835.7 281.182 1832.53 284.816 Q1829.36 288.427 1823.8 288.427 Q1818.22 288.427 1815.05 284.816 Q1811.9 281.182 1811.9 274.816 Q1811.9 268.427 1815.05 264.816 Q1818.22 261.205 1823.8 261.205 Z" fill="#000000" fill-rule="nonzero" fill-opacity="1"></path><path clip-path="url(#clip670)" d="M1857.78 265.811 Q1857.06 265.395 1856.21 265.21 Q1855.37 265.001 1854.35 265.001 Q1850.74 265.001 1848.8 267.362 Q1846.88 269.7 1846.88 274.098 L1846.88 287.756 L1842.6 287.756 L1842.6 261.83 L1846.88 261.83 L1846.88 265.858 Q1848.22 263.497 1850.37 262.362 Q1852.53 261.205 1855.6 261.205 Q1856.04 261.205 1856.58 261.274 Q1857.11 261.321 1857.76 261.436 L1857.78 265.811 Z" fill="#000000" fill-rule="nonzero" fill-opacity="1"></path><path clip-path="url(#clip670)" d="M1862.25 261.83 L1866.51 261.83 L1866.51 287.756 L1862.25 287.756 L1862.25 261.83 M1862.25 251.737 L1866.51 251.737 L1866.51 257.131 L1862.25 257.131 L1862.25 251.737 Z" fill="#000000" fill-rule="nonzero" fill-opacity="1"></path><path clip-path="url(#clip670)" d="M1892.48 274.492 Q1892.48 269.862 1890.56 267.316 Q1888.66 264.77 1885.21 264.77 Q1881.79 264.77 1879.86 267.316 Q1877.97 269.862 1877.97 274.492 Q1877.97 279.098 1879.86 281.645 Q1881.79 284.191 1885.21 284.191 Q1888.66 284.191 1890.56 281.645 Q1892.48 279.098 1892.48 274.492 M1896.74 284.538 Q1896.74 291.158 1893.8 294.376 Q1890.86 297.617 1884.79 297.617 Q1882.55 297.617 1880.56 297.27 Q1878.57 296.945 1876.69 296.251 L1876.69 292.108 Q1878.57 293.126 1880.4 293.612 Q1882.23 294.098 1884.12 294.098 Q1888.31 294.098 1890.4 291.899 Q1892.48 289.723 1892.48 285.302 L1892.48 283.196 Q1891.16 285.487 1889.1 286.621 Q1887.04 287.756 1884.17 287.756 Q1879.4 287.756 1876.48 284.121 Q1873.57 280.487 1873.57 274.492 Q1873.57 268.473 1876.48 264.839 Q1879.4 261.205 1884.17 261.205 Q1887.04 261.205 1889.1 262.339 Q1891.16 263.473 1892.48 265.765 L1892.48 261.83 L1896.74 261.83 L1896.74 284.538 Z" fill="#000000" fill-rule="nonzero" fill-opacity="1"></path><path clip-path="url(#clip670)" d="M1905.51 261.83 L1909.77 261.83 L1909.77 287.756 L1905.51 287.756 L1905.51 261.83 M1905.51 251.737 L1909.77 251.737 L1909.77 257.131 L1905.51 257.131 L1905.51 251.737 Z" fill="#000000" fill-rule="nonzero" fill-opacity="1"></path><path clip-path="url(#clip670)" d="M1940.23 272.108 L1940.23 287.756 L1935.97 287.756 L1935.97 272.247 Q1935.97 268.566 1934.54 266.737 Q1933.1 264.909 1930.23 264.909 Q1926.79 264.909 1924.79 267.108 Q1922.8 269.307 1922.8 273.103 L1922.8 287.756 L1918.52 287.756 L1918.52 261.83 L1922.8 261.83 L1922.8 265.858 Q1924.33 263.52 1926.39 262.362 Q1928.47 261.205 1931.18 261.205 Q1935.65 261.205 1937.94 263.983 Q1940.23 266.737 1940.23 272.108 Z" fill="#000000" fill-rule="nonzero" fill-opacity="1"></path><path clip-path="url(#clip670)" d="M1960.51 274.723 Q1955.35 274.723 1953.36 275.904 Q1951.37 277.084 1951.37 279.932 Q1951.37 282.2 1952.85 283.543 Q1954.35 284.862 1956.92 284.862 Q1960.47 284.862 1962.6 282.362 Q1964.75 279.839 1964.75 275.672 L1964.75 274.723 L1960.51 274.723 M1969.01 272.964 L1969.01 287.756 L1964.75 287.756 L1964.75 283.821 Q1963.29 286.182 1961.11 287.316 Q1958.94 288.427 1955.79 288.427 Q1951.81 288.427 1949.45 286.205 Q1947.11 283.959 1947.11 280.209 Q1947.11 275.834 1950.03 273.612 Q1952.97 271.39 1958.78 271.39 L1964.75 271.39 L1964.75 270.973 Q1964.75 268.034 1962.8 266.436 Q1960.88 264.816 1957.39 264.816 Q1955.16 264.816 1953.06 265.348 Q1950.95 265.881 1949.01 266.946 L1949.01 263.01 Q1951.35 262.108 1953.54 261.668 Q1955.74 261.205 1957.83 261.205 Q1963.45 261.205 1966.23 264.122 Q1969.01 267.038 1969.01 272.964 Z" fill="#000000" fill-rule="nonzero" fill-opacity="1"></path><path clip-path="url(#clip670)" d="M1977.78 251.737 L1982.04 251.737 L1982.04 287.756 L1977.78 287.756 L1977.78 251.737 Z" fill="#000000" fill-rule="nonzero" fill-opacity="1"></path><path clip-path="url(#clip670)" d="M2010.14 283.867 L2010.14 297.617 L2005.86 297.617 L2005.86 261.83 L2010.14 261.83 L2010.14 265.765 Q2011.48 263.45 2013.52 262.339 Q2015.58 261.205 2018.43 261.205 Q2023.15 261.205 2026.09 264.955 Q2029.05 268.705 2029.05 274.816 Q2029.05 280.927 2026.09 284.677 Q2023.15 288.427 2018.43 288.427 Q2015.58 288.427 2013.52 287.316 Q2011.48 286.182 2010.14 283.867 M2024.63 274.816 Q2024.63 270.117 2022.69 267.455 Q2020.77 264.77 2017.39 264.77 Q2014.01 264.77 2012.06 267.455 Q2010.14 270.117 2010.14 274.816 Q2010.14 279.515 2012.06 282.2 Q2014.01 284.862 2017.39 284.862 Q2020.77 284.862 2022.69 282.2 Q2024.63 279.515 2024.63 274.816 Z" fill="#000000" fill-rule="nonzero" fill-opacity="1"></path><path clip-path="url(#clip670)" d="M2046.16 264.816 Q2042.73 264.816 2040.74 267.501 Q2038.75 270.163 2038.75 274.816 Q2038.75 279.469 2040.72 282.154 Q2042.71 284.816 2046.16 284.816 Q2049.56 284.816 2051.55 282.131 Q2053.54 279.446 2053.54 274.816 Q2053.54 270.21 2051.55 267.524 Q2049.56 264.816 2046.16 264.816 M2046.16 261.205 Q2051.72 261.205 2054.89 264.816 Q2058.06 268.427 2058.06 274.816 Q2058.06 281.182 2054.89 284.816 Q2051.72 288.427 2046.16 288.427 Q2040.58 288.427 2037.41 284.816 Q2034.26 281.182 2034.26 274.816 Q2034.26 268.427 2037.41 264.816 Q2040.58 261.205 2046.16 261.205 Z" fill="#000000" fill-rule="nonzero" fill-opacity="1"></path><path clip-path="url(#clip670)" d="M2065.12 251.737 L2069.38 251.737 L2069.38 287.756 L2065.12 287.756 L2065.12 251.737 Z" fill="#000000" fill-rule="nonzero" fill-opacity="1"></path><path clip-path="url(#clip670)" d="M2100.46 273.728 L2100.46 275.811 L2080.88 275.811 Q2081.16 280.209 2083.52 282.524 Q2085.9 284.816 2090.14 284.816 Q2092.59 284.816 2094.89 284.214 Q2097.2 283.612 2099.47 282.409 L2099.47 286.436 Q2097.18 287.408 2094.77 287.918 Q2092.36 288.427 2089.89 288.427 Q2083.68 288.427 2080.05 284.816 Q2076.44 281.205 2076.44 275.047 Q2076.44 268.682 2079.86 264.955 Q2083.31 261.205 2089.15 261.205 Q2094.38 261.205 2097.41 264.585 Q2100.46 267.941 2100.46 273.728 M2096.21 272.478 Q2096.16 268.983 2094.24 266.899 Q2092.34 264.816 2089.19 264.816 Q2085.63 264.816 2083.47 266.83 Q2081.34 268.844 2081.02 272.501 L2096.21 272.478 Z" fill="#000000" fill-rule="nonzero" fill-opacity="1"></path><path clip-path="url(#clip670)" d="M2123.98 262.594 L2123.98 266.622 Q2122.18 265.696 2120.23 265.233 Q2118.29 264.77 2116.21 264.77 Q2113.03 264.77 2111.44 265.742 Q2109.86 266.714 2109.86 268.659 Q2109.86 270.14 2111 270.997 Q2112.13 271.83 2115.56 272.594 L2117.02 272.918 Q2121.55 273.89 2123.45 275.672 Q2125.37 277.432 2125.37 280.603 Q2125.37 284.214 2122.5 286.321 Q2119.65 288.427 2114.65 288.427 Q2112.57 288.427 2110.3 288.01 Q2108.06 287.617 2105.56 286.807 L2105.56 282.409 Q2107.92 283.635 2110.21 284.26 Q2112.5 284.862 2114.75 284.862 Q2117.76 284.862 2119.38 283.844 Q2121 282.802 2121 280.927 Q2121 279.191 2119.82 278.265 Q2118.66 277.339 2114.7 276.483 L2113.22 276.135 Q2109.26 275.302 2107.5 273.589 Q2105.74 271.853 2105.74 268.844 Q2105.74 265.186 2108.34 263.196 Q2110.93 261.205 2115.7 261.205 Q2118.06 261.205 2120.14 261.552 Q2122.22 261.899 2123.98 262.594 Z" fill="#000000" fill-rule="nonzero" fill-opacity="1"></path></svg>