<svg xmlns="http://www.w3.org/2000/svg" xmlns:xlink="http://www.w3.org/1999/xlink" width="600" height="400" viewBox="0 0 2400 1600">
<defs>
  <clipPath id="clip140">
    <rect x="0" y="0" width="2400" height="1600"></rect>
  </clipPath>
</defs>
<path clip-path="url(#clip140)" d="M0 1600 L2400 1600 L2400 8.88178e-14 L0 8.88178e-14  Z" fill="#ffffff" fill-rule="evenodd" fill-opacity="1"></path>
<defs>
  <clipPath id="clip141">
    <rect x="480" y="0" width="1681" height="1600"></rect>
  </clipPath>
</defs>
<path clip-path="url(#clip140)" d="M175.445 1423.18 L2352.76 1423.18 L2352.76 123.472 L175.445 123.472  Z" fill="#ffffff" fill-rule="evenodd" fill-opacity="1"></path>
<defs>
  <clipPath id="clip142">
    <rect x="175" y="123" width="2178" height="1301"></rect>
  </clipPath>
</defs>
<polyline clip-path="url(#clip142)" style="stroke:#000000; stroke-linecap:round; stroke-linejoin:round; stroke-width:2; stroke-opacity:0.1; fill:none" points="442.474,1423.18 442.474,123.472 "></polyline>
<polyline clip-path="url(#clip142)" style="stroke:#000000; stroke-linecap:round; stroke-linejoin:round; stroke-width:2; stroke-opacity:0.1; fill:none" points="853.287,1423.18 853.287,123.472 "></polyline>
<polyline clip-path="url(#clip142)" style="stroke:#000000; stroke-linecap:round; stroke-linejoin:round; stroke-width:2; stroke-opacity:0.1; fill:none" points="1264.1,1423.18 1264.1,123.472 "></polyline>
<polyline clip-path="url(#clip142)" style="stroke:#000000; stroke-linecap:round; stroke-linejoin:round; stroke-width:2; stroke-opacity:0.1; fill:none" points="1674.91,1423.18 1674.91,123.472 "></polyline>
<polyline clip-path="url(#clip142)" style="stroke:#000000; stroke-linecap:round; stroke-linejoin:round; stroke-width:2; stroke-opacity:0.1; fill:none" points="2085.73,1423.18 2085.73,123.472 "></polyline>
<polyline clip-path="url(#clip142)" style="stroke:#000000; stroke-linecap:round; stroke-linejoin:round; stroke-width:2; stroke-opacity:0.1; fill:none" points="175.445,1386.4 2352.76,1386.4 "></polyline>
<polyline clip-path="url(#clip142)" style="stroke:#000000; stroke-linecap:round; stroke-linejoin:round; stroke-width:2; stroke-opacity:0.1; fill:none" points="175.445,1119.01 2352.76,1119.01 "></polyline>
<polyline clip-path="url(#clip142)" style="stroke:#000000; stroke-linecap:round; stroke-linejoin:round; stroke-width:2; stroke-opacity:0.1; fill:none" points="175.445,851.633 2352.76,851.633 "></polyline>
<polyline clip-path="url(#clip142)" style="stroke:#000000; stroke-linecap:round; stroke-linejoin:round; stroke-width:2; stroke-opacity:0.1; fill:none" points="175.445,584.252 2352.76,584.252 "></polyline>
<polyline clip-path="url(#clip142)" style="stroke:#000000; stroke-linecap:round; stroke-linejoin:round; stroke-width:2; stroke-opacity:0.1; fill:none" points="175.445,316.871 2352.76,316.871 "></polyline>
<polyline clip-path="url(#clip140)" style="stroke:#000000; stroke-linecap:round; stroke-linejoin:round; stroke-width:4; stroke-opacity:1; fill:none" points="175.445,1423.18 2352.76,1423.18 "></polyline>
<polyline clip-path="url(#clip140)" style="stroke:#000000; stroke-linecap:round; stroke-linejoin:round; stroke-width:4; stroke-opacity:1; fill:none" points="442.474,1423.18 442.474,1404.28 "></polyline>
<polyline clip-path="url(#clip140)" style="stroke:#000000; stroke-linecap:round; stroke-linejoin:round; stroke-width:4; stroke-opacity:1; fill:none" points="853.287,1423.18 853.287,1404.28 "></polyline>
<polyline clip-path="url(#clip140)" style="stroke:#000000; stroke-linecap:round; stroke-linejoin:round; stroke-width:4; stroke-opacity:1; fill:none" points="1264.1,1423.18 1264.1,1404.28 "></polyline>
<polyline clip-path="url(#clip140)" style="stroke:#000000; stroke-linecap:round; stroke-linejoin:round; stroke-width:4; stroke-opacity:1; fill:none" points="1674.91,1423.18 1674.91,1404.28 "></polyline>
<polyline clip-path="url(#clip140)" style="stroke:#000000; stroke-linecap:round; stroke-linejoin:round; stroke-width:4; stroke-opacity:1; fill:none" points="2085.73,1423.18 2085.73,1404.28 "></polyline>
<path clip-path="url(#clip140)" d="M411.375 1468.75 L441.05 1468.75 L441.05 1472.69 L411.375 1472.69 L411.375 1468.75 Z" fill="#000000" fill-rule="nonzero" fill-opacity="1"></path><path clip-path="url(#clip140)" d="M463.99 1455.09 L452.184 1473.54 L463.99 1473.54 L463.99 1455.09 M462.763 1451.02 L468.643 1451.02 L468.643 1473.54 L473.573 1473.54 L473.573 1477.43 L468.643 1477.43 L468.643 1485.58 L463.99 1485.58 L463.99 1477.43 L448.388 1477.43 L448.388 1472.92 L462.763 1451.02 Z" fill="#000000" fill-rule="nonzero" fill-opacity="1"></path><path clip-path="url(#clip140)" d="M823.23 1468.75 L852.905 1468.75 L852.905 1472.69 L823.23 1472.69 L823.23 1468.75 Z" fill="#000000" fill-rule="nonzero" fill-opacity="1"></path><path clip-path="url(#clip140)" d="M867.026 1481.64 L883.345 1481.64 L883.345 1485.58 L861.401 1485.58 L861.401 1481.64 Q864.063 1478.89 868.646 1474.26 Q873.252 1469.61 874.433 1468.27 Q876.678 1465.74 877.558 1464.01 Q878.461 1462.25 878.461 1460.56 Q878.461 1457.8 876.516 1456.07 Q874.595 1454.33 871.493 1454.33 Q869.294 1454.33 866.84 1455.09 Q864.41 1455.86 861.632 1457.41 L861.632 1452.69 Q864.456 1451.55 866.91 1450.97 Q869.364 1450.39 871.401 1450.39 Q876.771 1450.39 879.965 1453.08 Q883.16 1455.77 883.16 1460.26 Q883.16 1462.39 882.35 1464.31 Q881.563 1466.2 879.456 1468.8 Q878.877 1469.47 875.776 1472.69 Q872.674 1475.88 867.026 1481.64 Z" fill="#000000" fill-rule="nonzero" fill-opacity="1"></path><path clip-path="url(#clip140)" d="M1264.1 1454.1 Q1260.49 1454.1 1258.66 1457.66 Q1256.86 1461.2 1256.86 1468.33 Q1256.86 1475.44 1258.66 1479.01 Q1260.49 1482.55 1264.1 1482.55 Q1267.73 1482.55 1269.54 1479.01 Q1271.37 1475.44 1271.37 1468.33 Q1271.37 1461.2 1269.54 1457.66 Q1267.73 1454.1 1264.1 1454.1 M1264.1 1450.39 Q1269.91 1450.39 1272.97 1455 Q1276.04 1459.58 1276.04 1468.33 Q1276.04 1477.06 1272.97 1481.67 Q1269.91 1486.25 1264.1 1486.25 Q1258.29 1486.25 1255.21 1481.67 Q1252.16 1477.06 1252.16 1468.33 Q1252.16 1459.58 1255.21 1455 Q1258.29 1450.39 1264.1 1450.39 Z" fill="#000000" fill-rule="nonzero" fill-opacity="1"></path><path clip-path="url(#clip140)" d="M1669.57 1481.64 L1685.89 1481.64 L1685.89 1485.58 L1663.94 1485.58 L1663.94 1481.64 Q1666.6 1478.89 1671.19 1474.26 Q1675.79 1469.61 1676.97 1468.27 Q1679.22 1465.74 1680.1 1464.01 Q1681 1462.25 1681 1460.56 Q1681 1457.8 1679.06 1456.07 Q1677.14 1454.33 1674.03 1454.33 Q1671.84 1454.33 1669.38 1455.09 Q1666.95 1455.86 1664.17 1457.41 L1664.17 1452.69 Q1667 1451.55 1669.45 1450.97 Q1671.9 1450.39 1673.94 1450.39 Q1679.31 1450.39 1682.51 1453.08 Q1685.7 1455.77 1685.7 1460.26 Q1685.7 1462.39 1684.89 1464.31 Q1684.1 1466.2 1682 1468.8 Q1681.42 1469.47 1678.32 1472.69 Q1675.21 1475.88 1669.57 1481.64 Z" fill="#000000" fill-rule="nonzero" fill-opacity="1"></path><path clip-path="url(#clip140)" d="M2088.74 1455.09 L2076.93 1473.54 L2088.74 1473.54 L2088.74 1455.09 M2087.51 1451.02 L2093.39 1451.02 L2093.39 1473.54 L2098.32 1473.54 L2098.32 1477.43 L2093.39 1477.43 L2093.39 1485.58 L2088.74 1485.58 L2088.74 1477.43 L2073.13 1477.43 L2073.13 1472.92 L2087.51 1451.02 Z" fill="#000000" fill-rule="nonzero" fill-opacity="1"></path><path clip-path="url(#clip140)" d="M1254.39 1568.97 Q1241.18 1568.97 1241.18 1550.06 Q1241.18 1542.58 1246.12 1532.4 L1252.42 1532.4 Q1247.87 1542.58 1247.87 1550.22 Q1247.87 1564 1254.93 1564 Q1261.4 1564 1261.4 1546.88 L1266.81 1546.88 Q1266.81 1564 1273.27 1564 Q1280.33 1564 1280.33 1550.22 Q1280.33 1542.58 1275.78 1532.4 L1282.08 1532.4 Q1287.02 1542.58 1287.02 1550.06 Q1287.02 1568.97 1273.81 1568.97 Q1265.15 1568.97 1264.1 1559.45 Q1262.8 1568.97 1254.39 1568.97 Z" fill="#000000" fill-rule="nonzero" fill-opacity="1"></path><polyline clip-path="url(#clip140)" style="stroke:#000000; stroke-linecap:round; stroke-linejoin:round; stroke-width:4; stroke-opacity:1; fill:none" points="175.445,1423.18 175.445,123.472 "></polyline>
<polyline clip-path="url(#clip140)" style="stroke:#000000; stroke-linecap:round; stroke-linejoin:round; stroke-width:4; stroke-opacity:1; fill:none" points="175.445,1386.4 194.343,1386.4 "></polyline>
<polyline clip-path="url(#clip140)" style="stroke:#000000; stroke-linecap:round; stroke-linejoin:round; stroke-width:4; stroke-opacity:1; fill:none" points="175.445,1119.01 194.343,1119.01 "></polyline>
<polyline clip-path="url(#clip140)" style="stroke:#000000; stroke-linecap:round; stroke-linejoin:round; stroke-width:4; stroke-opacity:1; fill:none" points="175.445,851.633 194.343,851.633 "></polyline>
<polyline clip-path="url(#clip140)" style="stroke:#000000; stroke-linecap:round; stroke-linejoin:round; stroke-width:4; stroke-opacity:1; fill:none" points="175.445,584.252 194.343,584.252 "></polyline>
<polyline clip-path="url(#clip140)" style="stroke:#000000; stroke-linecap:round; stroke-linejoin:round; stroke-width:4; stroke-opacity:1; fill:none" points="175.445,316.871 194.343,316.871 "></polyline>
<path clip-path="url(#clip140)" d="M127.501 1372.19 Q123.89 1372.19 122.061 1375.76 Q120.255 1379.3 120.255 1386.43 Q120.255 1393.54 122.061 1397.1 Q123.89 1400.64 127.501 1400.64 Q131.135 1400.64 132.941 1397.1 Q134.769 1393.54 134.769 1386.43 Q134.769 1379.3 132.941 1375.76 Q131.135 1372.19 127.501 1372.19 M127.501 1368.49 Q133.311 1368.49 136.367 1373.1 Q139.445 1377.68 139.445 1386.43 Q139.445 1395.16 136.367 1399.76 Q133.311 1404.35 127.501 1404.35 Q121.691 1404.35 118.612 1399.76 Q115.556 1395.16 115.556 1386.43 Q115.556 1377.68 118.612 1373.1 Q121.691 1368.49 127.501 1368.49 Z" fill="#000000" fill-rule="nonzero" fill-opacity="1"></path><path clip-path="url(#clip140)" d="M119.538 1132.36 L127.177 1132.36 L127.177 1105.99 L118.867 1107.66 L118.867 1103.4 L127.13 1101.73 L131.806 1101.73 L131.806 1132.36 L139.445 1132.36 L139.445 1136.29 L119.538 1136.29 L119.538 1132.36 Z" fill="#000000" fill-rule="nonzero" fill-opacity="1"></path><path clip-path="url(#clip140)" d="M123.126 864.978 L139.445 864.978 L139.445 868.913 L117.501 868.913 L117.501 864.978 Q120.163 862.224 124.746 857.594 Q129.353 852.941 130.533 851.599 Q132.779 849.076 133.658 847.339 Q134.561 845.58 134.561 843.89 Q134.561 841.136 132.617 839.4 Q130.695 837.664 127.593 837.664 Q125.394 837.664 122.941 838.427 Q120.51 839.191 117.732 840.742 L117.732 836.02 Q120.556 834.886 123.01 834.307 Q125.464 833.728 127.501 833.728 Q132.871 833.728 136.066 836.414 Q139.26 839.099 139.26 843.589 Q139.26 845.719 138.45 847.64 Q137.663 849.538 135.556 852.131 Q134.978 852.802 131.876 856.02 Q128.774 859.214 123.126 864.978 Z" fill="#000000" fill-rule="nonzero" fill-opacity="1"></path><path clip-path="url(#clip140)" d="M132.316 582.898 Q135.672 583.616 137.547 585.884 Q139.445 588.153 139.445 591.486 Q139.445 596.602 135.927 599.403 Q132.408 602.204 125.927 602.204 Q123.751 602.204 121.436 601.764 Q119.144 601.347 116.691 600.491 L116.691 595.977 Q118.635 597.111 120.95 597.69 Q123.265 598.268 125.788 598.268 Q130.186 598.268 132.478 596.532 Q134.792 594.796 134.792 591.486 Q134.792 588.43 132.64 586.718 Q130.51 584.981 126.691 584.981 L122.663 584.981 L122.663 581.139 L126.876 581.139 Q130.325 581.139 132.154 579.773 Q133.982 578.384 133.982 575.792 Q133.982 573.13 132.084 571.718 Q130.209 570.282 126.691 570.282 Q124.769 570.282 122.57 570.699 Q120.371 571.116 117.732 571.995 L117.732 567.829 Q120.394 567.088 122.709 566.718 Q125.047 566.347 127.107 566.347 Q132.431 566.347 135.533 568.778 Q138.635 571.185 138.635 575.306 Q138.635 578.176 136.992 580.167 Q135.348 582.134 132.316 582.898 Z" fill="#000000" fill-rule="nonzero" fill-opacity="1"></path><path clip-path="url(#clip140)" d="M129.862 303.665 L118.056 322.114 L129.862 322.114 L129.862 303.665 M128.635 299.591 L134.515 299.591 L134.515 322.114 L139.445 322.114 L139.445 326.003 L134.515 326.003 L134.515 334.151 L129.862 334.151 L129.862 326.003 L114.26 326.003 L114.26 321.489 L128.635 299.591 Z" fill="#000000" fill-rule="nonzero" fill-opacity="1"></path><path clip-path="url(#clip140)" d="M22.818 823.52 L46.4666 832.241 L46.4666 814.767 L22.818 823.52 M16.4842 827.148 L16.4842 819.859 L64.0042 801.749 L64.0042 808.433 L51.8138 812.762 L51.8138 834.182 L64.0042 838.511 L64.0042 845.29 L16.4842 827.148 Z" fill="#000000" fill-rule="nonzero" fill-opacity="1"></path><path clip-path="url(#clip140)" d="M14.5426 780.997 Q21.8632 785.262 29.0246 787.331 Q36.186 789.399 43.5384 789.399 Q50.8908 789.399 58.1159 787.331 Q65.3091 785.23 72.5979 780.997 L72.5979 786.089 Q65.1182 790.864 57.8931 793.251 Q50.668 795.606 43.5384 795.606 Q36.4406 795.606 29.2474 793.251 Q22.0542 790.895 14.5426 786.089 L14.5426 780.997 Z" fill="#000000" fill-rule="nonzero" fill-opacity="1"></path><path clip-path="url(#clip140)" d="M64.9272 758.271 Q64.9272 771.48 46.021 771.48 Q38.5413 771.48 28.3562 766.547 L28.3562 760.244 Q38.5413 764.796 46.1802 764.796 Q59.9619 764.796 59.9619 757.73 Q59.9619 751.269 42.8382 751.269 L42.8382 745.858 Q59.9619 745.858 59.9619 739.397 Q59.9619 732.331 46.1802 732.331 Q38.5413 732.331 28.3562 736.882 L28.3562 730.58 Q38.5413 725.647 46.021 725.647 Q64.9272 725.647 64.9272 738.856 Q64.9272 747.513 55.4105 748.563 Q64.9272 749.868 64.9272 758.271 Z" fill="#000000" fill-rule="nonzero" fill-opacity="1"></path><path clip-path="url(#clip140)" d="M14.5426 715.971 L14.5426 710.878 Q22.0542 706.104 29.2474 703.749 Q36.4406 701.362 43.5384 701.362 Q50.668 701.362 57.8931 703.749 Q65.1182 706.104 72.5979 710.878 L72.5979 715.971 Q65.3091 711.738 58.1159 709.669 Q50.8908 707.568 43.5384 707.568 Q36.186 707.568 29.0246 709.669 Q21.8632 711.738 14.5426 715.971 Z" fill="#000000" fill-rule="nonzero" fill-opacity="1"></path><path clip-path="url(#clip140)" d="M899.499 14.0809 L899.499 22.0612 Q894.84 19.8332 890.708 18.7395 Q886.577 17.6457 882.728 17.6457 Q876.044 17.6457 872.398 20.2383 Q868.793 22.8309 868.793 27.611 Q868.793 31.6214 871.183 33.6873 Q873.614 35.7128 880.338 36.9686 L885.28 37.9813 Q894.435 39.7232 898.77 44.1387 Q903.145 48.5136 903.145 55.8863 Q903.145 64.6767 897.23 69.2137 Q891.357 73.7508 879.974 73.7508 Q875.68 73.7508 870.819 72.7785 Q865.998 71.8063 860.813 69.9024 L860.813 61.4765 Q865.795 64.2716 870.575 65.6895 Q875.356 67.1073 879.974 67.1073 Q886.982 67.1073 890.789 64.3527 Q894.597 61.598 894.597 56.4939 Q894.597 52.0379 891.843 49.5264 Q889.129 47.0148 882.89 45.759 L877.908 44.7868 Q868.753 42.9639 864.661 39.075 Q860.57 35.1862 860.57 28.2591 Q860.57 20.2383 866.2 15.6203 Q871.872 11.0023 881.796 11.0023 Q886.05 11.0023 890.465 11.7719 Q894.881 12.5416 899.499 14.0809 Z" fill="#000000" fill-rule="nonzero" fill-opacity="1"></path><path clip-path="url(#clip140)" d="M922.954 14.324 L922.954 27.2059 L938.307 27.2059 L938.307 32.9987 L922.954 32.9987 L922.954 57.6282 Q922.954 63.1779 924.452 64.7578 Q925.992 66.3376 930.65 66.3376 L938.307 66.3376 L938.307 72.576 L930.65 72.576 Q922.022 72.576 918.741 69.3758 Q915.459 66.1351 915.459 57.6282 L915.459 32.9987 L909.991 32.9987 L909.991 27.2059 L915.459 27.2059 L915.459 14.324 L922.954 14.324 Z" fill="#000000" fill-rule="nonzero" fill-opacity="1"></path><path clip-path="url(#clip140)" d="M965.691 32.4315 Q959.695 32.4315 956.212 37.1306 Q952.728 41.7891 952.728 49.9314 Q952.728 58.0738 956.171 62.7728 Q959.655 67.4314 965.691 67.4314 Q971.646 67.4314 975.129 62.7323 Q978.613 58.0333 978.613 49.9314 Q978.613 41.8701 975.129 37.1711 Q971.646 32.4315 965.691 32.4315 M965.691 26.1121 Q975.413 26.1121 980.963 32.4315 Q986.512 38.7509 986.512 49.9314 Q986.512 61.0714 980.963 67.4314 Q975.413 73.7508 965.691 73.7508 Q955.928 73.7508 950.378 67.4314 Q944.869 61.0714 944.869 49.9314 Q944.869 38.7509 950.378 32.4315 Q955.928 26.1121 965.691 26.1121 Z" fill="#000000" fill-rule="nonzero" fill-opacity="1"></path><path clip-path="url(#clip140)" d="M1031.52 28.9478 L1031.52 35.9153 Q1028.36 34.1734 1025.16 33.3227 Q1022 32.4315 1018.76 32.4315 Q1011.51 32.4315 1007.5 37.0496 Q1003.49 41.6271 1003.49 49.9314 Q1003.49 58.2358 1007.5 62.8538 Q1011.51 67.4314 1018.76 67.4314 Q1022 67.4314 1025.16 66.5807 Q1028.36 65.6895 1031.52 63.9476 L1031.52 70.8341 Q1028.4 72.2924 1025.04 73.0216 Q1021.71 73.7508 1017.95 73.7508 Q1007.7 73.7508 1001.66 67.3098 Q995.627 60.8689 995.627 49.9314 Q995.627 38.832 1001.7 32.472 Q1007.82 26.1121 1018.43 26.1121 Q1021.88 26.1121 1025.16 26.8413 Q1028.44 27.5299 1031.52 28.9478 Z" fill="#000000" fill-rule="nonzero" fill-opacity="1"></path><path clip-path="url(#clip140)" d="M1082.19 45.1919 L1082.19 72.576 L1074.74 72.576 L1074.74 45.4349 Q1074.74 38.994 1072.23 35.7938 Q1069.72 32.5936 1064.69 32.5936 Q1058.66 32.5936 1055.18 36.4419 Q1051.69 40.2903 1051.69 46.9338 L1051.69 72.576 L1044.2 72.576 L1044.2 9.54393 L1051.69 9.54393 L1051.69 34.2544 Q1054.36 30.163 1057.97 28.1376 Q1061.62 26.1121 1066.36 26.1121 Q1074.17 26.1121 1078.18 30.9732 Q1082.19 35.7938 1082.19 45.1919 Z" fill="#000000" fill-rule="nonzero" fill-opacity="1"></path><path clip-path="url(#clip140)" d="M1121.93 17.6457 Q1113.02 17.6457 1107.76 24.2892 Q1102.53 30.9327 1102.53 42.3968 Q1102.53 53.8203 1107.76 60.4638 Q1113.02 67.1073 1121.93 67.1073 Q1130.85 67.1073 1136.03 60.4638 Q1141.26 53.8203 1141.26 42.3968 Q1141.26 30.9327 1136.03 24.2892 Q1130.85 17.6457 1121.93 17.6457 M1121.93 11.0023 Q1134.65 11.0023 1142.27 19.5497 Q1149.89 28.0566 1149.89 42.3968 Q1149.89 56.6965 1142.27 65.2439 Q1134.65 73.7508 1121.93 73.7508 Q1109.17 73.7508 1101.52 65.2439 Q1093.9 56.737 1093.9 42.3968 Q1093.9 28.0566 1101.52 19.5497 Q1109.17 11.0023 1121.93 11.0023 Z" fill="#000000" fill-rule="nonzero" fill-opacity="1"></path><path clip-path="url(#clip140)" d="M1162.69 12.096 L1174.88 12.096 L1190.31 53.2532 L1205.83 12.096 L1218.02 12.096 L1218.02 72.576 L1210.04 72.576 L1210.04 19.4686 L1194.45 60.9499 L1186.22 60.9499 L1170.63 19.4686 L1170.63 72.576 L1162.69 72.576 L1162.69 12.096 Z" fill="#000000" fill-rule="nonzero" fill-opacity="1"></path><path clip-path="url(#clip140)" d="M1235.85 62.2867 L1244.39 62.2867 L1244.39 69.2543 L1237.75 82.2172 L1232.52 82.2172 L1235.85 69.2543 L1235.85 62.2867 Z" fill="#000000" fill-rule="nonzero" fill-opacity="1"></path><path clip-path="url(#clip140)" d="M1319.33 28.9478 L1319.33 35.9153 Q1316.17 34.1734 1312.97 33.3227 Q1309.82 32.4315 1306.57 32.4315 Q1299.32 32.4315 1295.31 37.0496 Q1291.3 41.6271 1291.3 49.9314 Q1291.3 58.2358 1295.31 62.8538 Q1299.32 67.4314 1306.57 67.4314 Q1309.82 67.4314 1312.97 66.5807 Q1316.17 65.6895 1319.33 63.9476 L1319.33 70.8341 Q1316.22 72.2924 1312.85 73.0216 Q1309.53 73.7508 1305.76 73.7508 Q1295.52 73.7508 1289.48 67.3098 Q1283.44 60.8689 1283.44 49.9314 Q1283.44 38.832 1289.52 32.472 Q1295.64 26.1121 1306.25 26.1121 Q1309.69 26.1121 1312.97 26.8413 Q1316.26 27.5299 1319.33 28.9478 Z" fill="#000000" fill-rule="nonzero" fill-opacity="1"></path><path clip-path="url(#clip140)" d="M1349.88 32.4315 Q1343.88 32.4315 1340.4 37.1306 Q1336.92 41.7891 1336.92 49.9314 Q1336.92 58.0738 1340.36 62.7728 Q1343.84 67.4314 1349.88 67.4314 Q1355.83 67.4314 1359.32 62.7323 Q1362.8 58.0333 1362.8 49.9314 Q1362.8 41.8701 1359.32 37.1711 Q1355.83 32.4315 1349.88 32.4315 M1349.88 26.1121 Q1359.6 26.1121 1365.15 32.4315 Q1370.7 38.7509 1370.7 49.9314 Q1370.7 61.0714 1365.15 67.4314 Q1359.6 73.7508 1349.88 73.7508 Q1340.12 73.7508 1334.57 67.4314 Q1329.06 61.0714 1329.06 49.9314 Q1329.06 38.7509 1334.57 32.4315 Q1340.12 26.1121 1349.88 26.1121 Z" fill="#000000" fill-rule="nonzero" fill-opacity="1"></path><path clip-path="url(#clip140)" d="M1420.77 45.1919 L1420.77 72.576 L1413.32 72.576 L1413.32 45.4349 Q1413.32 38.994 1410.8 35.7938 Q1408.29 32.5936 1403.27 32.5936 Q1397.23 32.5936 1393.75 36.4419 Q1390.27 40.2903 1390.27 46.9338 L1390.27 72.576 L1382.77 72.576 L1382.77 27.2059 L1390.27 27.2059 L1390.27 34.2544 Q1392.94 30.163 1396.54 28.1376 Q1400.19 26.1121 1404.93 26.1121 Q1412.75 26.1121 1416.76 30.9732 Q1420.77 35.7938 1420.77 45.1919 Z" fill="#000000" fill-rule="nonzero" fill-opacity="1"></path><path clip-path="url(#clip140)" d="M1443.01 14.324 L1443.01 27.2059 L1458.36 27.2059 L1458.36 32.9987 L1443.01 32.9987 L1443.01 57.6282 Q1443.01 63.1779 1444.51 64.7578 Q1446.05 66.3376 1450.71 66.3376 L1458.36 66.3376 L1458.36 72.576 L1450.71 72.576 Q1442.08 72.576 1438.8 69.3758 Q1435.51 66.1351 1435.51 57.6282 L1435.51 32.9987 L1430.05 32.9987 L1430.05 27.2059 L1435.51 27.2059 L1435.51 14.324 L1443.01 14.324 Z" fill="#000000" fill-rule="nonzero" fill-opacity="1"></path><path clip-path="url(#clip140)" d="M1501.91 14.324 L1501.91 27.2059 L1517.26 27.2059 L1517.26 32.9987 L1501.91 32.9987 L1501.91 57.6282 Q1501.91 63.1779 1503.41 64.7578 Q1504.95 66.3376 1509.61 66.3376 L1517.26 66.3376 L1517.26 72.576 L1509.61 72.576 Q1500.98 72.576 1497.7 69.3758 Q1494.41 66.1351 1494.41 57.6282 L1494.41 32.9987 L1488.95 32.9987 L1488.95 27.2059 L1494.41 27.2059 L1494.41 14.324 L1501.91 14.324 Z" fill="#000000" fill-rule="nonzero" fill-opacity="1"></path><path clip-path="url(#clip140)" d="M1545.94 76.7889 Q1542.78 84.8907 1539.78 87.3618 Q1536.79 89.8329 1531.76 89.8329 L1525.81 89.8329 L1525.81 83.5945 L1530.18 83.5945 Q1533.26 83.5945 1534.96 82.1361 Q1536.67 80.6778 1538.73 75.2496 L1540.07 71.8468 L1521.72 27.2059 L1529.62 27.2059 L1543.8 62.6918 L1557.97 27.2059 L1565.87 27.2059 L1545.94 76.7889 Z" fill="#000000" fill-rule="nonzero" fill-opacity="1"></path><path clip-path="url(#clip140)" d="M1583.37 65.7705 L1583.37 89.8329 L1575.88 89.8329 L1575.88 27.2059 L1583.37 27.2059 L1583.37 34.0924 Q1585.72 30.0415 1589.29 28.0971 Q1592.89 26.1121 1597.87 26.1121 Q1606.14 26.1121 1611.28 32.6746 Q1616.47 39.2371 1616.47 49.9314 Q1616.47 60.6258 1611.28 67.1883 Q1606.14 73.7508 1597.87 73.7508 Q1592.89 73.7508 1589.29 71.8063 Q1585.72 69.8214 1583.37 65.7705 M1608.73 49.9314 Q1608.73 41.7081 1605.33 37.0496 Q1601.97 32.3505 1596.05 32.3505 Q1590.14 32.3505 1586.73 37.0496 Q1583.37 41.7081 1583.37 49.9314 Q1583.37 58.1548 1586.73 62.8538 Q1590.14 67.5124 1596.05 67.5124 Q1601.97 67.5124 1605.33 62.8538 Q1608.73 58.1548 1608.73 49.9314 Z" fill="#000000" fill-rule="nonzero" fill-opacity="1"></path><path clip-path="url(#clip140)" d="M1667.63 48.0275 L1667.63 51.6733 L1633.36 51.6733 Q1633.85 59.3701 1637.98 63.421 Q1642.15 67.4314 1649.56 67.4314 Q1653.86 67.4314 1657.87 66.3781 Q1661.92 65.3249 1665.89 63.2184 L1665.89 70.267 Q1661.88 71.9684 1657.67 72.8596 Q1653.45 73.7508 1649.12 73.7508 Q1638.26 73.7508 1631.9 67.4314 Q1625.58 61.1119 1625.58 50.3365 Q1625.58 39.1965 1631.58 32.6746 Q1637.61 26.1121 1647.82 26.1121 Q1656.98 26.1121 1662.28 32.0264 Q1667.63 37.9003 1667.63 48.0275 M1660.18 45.84 Q1660.1 39.7232 1656.73 36.0774 Q1653.41 32.4315 1647.9 32.4315 Q1641.67 32.4315 1637.9 35.9558 Q1634.17 39.4801 1633.6 45.8805 L1660.18 45.84 Z" fill="#000000" fill-rule="nonzero" fill-opacity="1"></path><polyline clip-path="url(#clip142)" style="stroke:#009af9; stroke-linecap:round; stroke-linejoin:round; stroke-width:4; stroke-opacity:1; fill:none" points="237.067,1386.4 286.161,1386.4 330.801,1386.4 371.567,1386.4 408.944,1386.4 443.338,1386.4 475.094,1386.4 504.506,1386.4 531.823,1386.4 557.262,1386.4 581.013,1386.4 603.237,1386.4 624.078,1384.67 643.662,1384.67 662.1,1384.67 679.489,1384.45 695.918,1384.45 711.464,1384.24 726.197,1384.24 740.18,1384.24 753.468,1384.24 766.112,1384.24 778.159,1353.16 789.651,1318.57 800.624,1318.57 811.114,1320.29 821.152,1255.41 830.767,1219.84 839.986,578.043 848.832,724.311 857.328,950.23 865.495,1068.89 873.351,1234.49 880.915,1234.49 888.202,1289.77 895.228,1334.07 902.006,1334.07 908.55,1334.07 914.872,1334.07 920.982,1350.96 926.893,1350.96 932.612,1385.52 938.151,1385.52 943.516,1385.52 948.717,1385.52 953.761,1385.52 958.655,1385.52 963.406,1385.52 968.02,1385.52 972.503,1385.52 976.861,1385.52 981.099,1385.52 985.222,1385.52 989.235,1385.52 993.142,1385.52 996.947,1385.52 1000.66,1385.52 1004.27,1385.52 1007.79,1385.52 1011.23,1385.52 1014.58,1385.52 1017.86,1385.52 1021.05,1385.52 1024.18,1385.52 1027.23,1385.52 1030.21,1385.52 1033.12,1385.52 1035.97,1385.52 1038.75,1385.52 1041.48,1385.52 1044.15,1385.52 1046.76,1385.52 1049.31,1385.52 1051.82,1385.52 1054.27,1385.52 1056.67,1385.52 1059.03,1385.52 1061.34,1385.52 1063.6,1385.52 1065.82,1385.52 1068,1385.52 1070.13,1385.52 1072.23,1385.52 1074.29,1385.52 1076.31,1385.52 1078.29,1385.52 1080.24,1381.72 1082.15,1381.72 1084.03,1381.96 1085.88,1381.96 1087.69,1381.96 1089.48,1385.76 1091.23,1385.76 1092.96,1385.76 1094.66,1385.76 1096.32,1385.76 1097.97,1385.76 1099.58,1385.76 1101.17,1385.76 1102.74,1385.76 1104.28,1385.76 1105.8,1385.76 1107.29,1385.76 1108.76,1385.76 1110.21,1385.76 1111.64,1385.76 1113.05,1385.76 1114.43,1385.76 1115.8,1385.76 1117.15,1385.76 1118.47,1385.76 1119.78,1385.97 1121.07,1385.97 1122.35,1385.97 1123.6,1385.97 1124.84,1385.97 1126.06,1385.97 1127.27,1385.97 1128.46,1385.97 1129.63,1385.97 1130.79,1385.97 1131.94,1385.97 1133.07,1385.97 1134.18,1385.97 1135.28,1385.97 1136.37,1385.97 1137.44,1385.97 1138.5,1385.97 1139.55,1385.97 1140.59,1385.97 1141.61,1385.97 1142.62,1385.97 1143.62,1385.97 1144.61,1385.97 1145.58,1385.97 1146.55,1385.97 1147.5,1385.97 1148.45,1385.97 1149.38,1385.97 1150.3,1385.97 1151.21,1385.97 1152.12,1385.97 1153.01,1385.97 1153.89,1385.97 1154.76,1385.97 1155.63,1385.97 1156.48,1385.97 1157.33,1385.97 1158.17,1385.97 1159,1385.97 1159.82,1385.97 1160.63,1385.97 1161.43,1385.97 1162.23,1385.97 1163.02,1385.97 1163.8,1385.97 1164.57,1385.97 1165.34,1385.97 1166.09,1385.97 1166.84,1385.97 1167.59,1385.97 1168.33,1385.97 1169.06,1385.97 1169.78,1385.97 1170.5,1385.97 1171.21,1386.19 1171.91,1386.19 1172.61,1378.17 1173.3,1378.17 1173.99,1378.17 1174.67,1378.17 1175.34,1378.17 1176.01,1378.17 1176.67,1386.19 1177.33,1386.19 1177.98,1386.19 1178.62,1386.19 1179.26,1386.19 1179.9,1386.19 1180.53,1386.19 1181.15,1386.19 1181.77,1386.19 1182.39,1384.78 1183,1384.78 1183.6,1384.78 1184.2,1384.78 1184.8,1384.78 1185.39,1384.78 1185.97,1384.78 1186.56,1384.78 1187.14,1384.78 1187.71,1384.78 1188.28,1384.78 1188.84,1384.78 1189.4,1384.78 1189.96,1384.78 1190.51,1384.78 1191.06,1384.78 1191.61,1384.78 1192.15,1384.78 1192.69,1384.78 1193.22,1384.78 1193.75,1384.78 1194.28,1384.78 1194.8,1384.78 1195.32,1384.78 1195.84,1384.78 1196.35,1384.78 1196.86,1384.78 1197.36,1384.78 1197.87,1384.78 1198.37,1384.78 1198.86,1384.78 1199.36,1384.78 1199.85,1384.78 1200.33,1384.78 1200.82,1384.78 1201.3,1384.78 1201.78,1384.78 1202.25,1384.78 1202.72,1384.78 1203.19,1384.78 1203.66,1384.78 1204.12,1384.78 1204.58,1384.78 1205.04,1384.78 1205.5,1384.78 1205.95,1384.78 1206.4,1384.78 1206.85,1384.78 1207.3,1384.78 1207.74,1384.78 1208.18,1384.78 1208.62,1384.78 1209.06,1384.78 1209.49,1384.78 1209.92,1384.78 1210.35,1384.78 1210.78,1384.78 1211.2,1384.78 1211.63,1384.78 1212.05,1384.78 1212.47,1384.78 1212.88,1384.78 1213.3,1384.78 1213.71,1384.78 1214.12,1384.78 1214.53,1384.78 1214.93,1384.78 1215.34,1380.06 1215.74,1380.06 1216.14,1380.06 1216.54,1380.06 1216.94,1380.06 1217.33,1380.06 1217.72,1380.06 1218.12,1380.06 1218.51,1380.06 1218.89,1380.06 1219.28,1380.06 1219.66,1380.06 1220.05,1380.06 1220.43,1380.06 1220.81,1380.06 1221.19,1380.06 1221.56,1380.06 1221.94,1378.39 1222.31,1378.39 1222.68,1378.39 1223.05,1378.39 1223.42,1378.39 1223.79,1378.39 1224.16,1378.39 1224.52,1378.39 1224.88,1378.39 1225.25,1378.39 1225.61,1378.39 1225.97,1378.39 1226.32,1378.39 1226.68,1378.39 1227.04,1378.39 1227.39,1378.39 1227.74,1378.39 1228.09,1378.39 1228.44,1378.39 1228.79,1378.39 1229.14,1378.39 1229.49,1378.39 1229.83,1378.39 1230.18,1378.39 1230.52,1378.39 1230.86,1378.39 1231.2,1378.39 1231.54,1378.39 1231.88,1378.39 1232.22,1378.39 1232.56,1378.39 1232.89,1378.39 1233.23,1383.12 1233.56,1383.12 1233.89,1383.12 1234.23,1383.12 1234.56,1383.12 1234.89,1383.12 1235.21,1383.12 1235.54,1383.12 1235.87,1383.32 1236.2,1383.32 1236.52,1383.32 1236.85,1383.32 1237.17,1383.32 1237.49,1383.32 1237.81,1383.32 1238.13,1383.32 1238.45,1368.33 1238.77,1368.33 1239.09,1368.33 1239.41,1368.33 1239.73,1368.33 1240.04,1368.33 1240.36,1368.33 1240.67,1368.33 1240.99,1368.33 1241.3,1368.33 1241.62,1368.33 1241.93,1368.33 1242.24,1368.33 1242.55,1368.33 1242.86,1368.33 1243.17,1368.33 1243.48,1383.32 1243.79,1383.32 1244.09,1383.32 1244.4,1383.32 1244.71,1383.32 1245.01,1383.32 1245.32,1383.32 1245.62,1383.32 1245.93,1383.32 1246.23,1378.39 1246.53,1378.39 1246.84,1378.39 1247.14,1378.39 1247.44,1378.39 1247.74,1378.39 1248.04,1378.39 1248.34,1378.39 1248.64,1378.39 1248.94,1376.01 1249.24,1376.01 1249.54,1376.01 1249.84,1376.01 1250.13,1376.01 1250.43,1376.01 1250.73,1376.01 1251.02,1376.01 1251.32,1376.01 1251.62,1376.01 1251.91,1376.01 1252.21,1376.01 1252.5,1376.01 1252.79,1376.01 1253.09,1376.01 1253.38,1376.01 1253.67,1376.01 1253.97,1376.01 1254.26,1376.01 1254.55,1376.01 1254.85,1347.72 1255.14,1347.72 1255.43,1347.72 1255.72,1347.72 1256.01,1347.72 1256.3,1347.72 1256.59,1347.72 1256.88,1347.72 1257.17,1347.72 1257.46,1347.72 1257.75,1347.72 1258.04,1347.72 1258.33,1347.72 1258.62,1347.72 1258.91,1347.72 1259.2,1347.72 1259.49,1347.72 1259.78,1347.72 1260.07,1376.01 1260.36,1376.01 1260.64,1376.01 1260.93,1376.01 1261.22,1376.01 1261.51,1376.01 1261.8,1376.01 1262.09,1376.01 1262.37,1376.01 1262.66,1376.01 1262.95,1376.01 1263.24,1376.01 1263.52,1376.01 1263.81,1371.17 1264.1,1371.17 1264.39,1371.17 1264.68,1371.17 1264.96,1371.17 1265.25,1371.17 1265.54,1371.17 1265.83,1371.17 1266.12,1371.17 1266.4,1371.17 1266.69,1371.17 1266.98,1371.17 1267.27,1371.17 1267.56,1371.17 1267.85,1371.17 1268.13,1371.17 1268.42,1371.17 1268.71,1371.17 1269,1371.17 1269.29,1371.17 1269.58,1371.17 1269.87,1371.17 1270.16,1371.17 1270.45,1371.17 1270.74,1371.17 1271.03,1371.17 1271.32,1371.17 1271.61,1373.55 1271.9,1373.55 1272.19,1373.55 1272.48,1373.55 1272.77,1373.55 1273.06,1373.55 1273.36,1373.55 1273.65,1373.55 1273.94,1373.55 1274.23,1367.04 1274.53,1367.04 1274.82,1367.04 1275.11,1367.04 1275.41,1338.53 1275.7,1338.53 1276,1338.53 1276.29,1338.53 1276.59,1338.53 1276.88,1338.53 1277.18,1338.53 1277.47,1338.53 1277.77,1338.53 1278.07,1338.53 1278.37,1338.53 1278.66,1338.53 1278.96,1338.53 1279.26,1338.53 1279.56,1338.53 1279.86,1338.53 1280.16,1338.53 1280.46,1338.53 1280.76,1338.53 1281.06,1338.53 1281.36,1338.53 1281.67,1338.53 1281.97,1343.46 1282.27,1343.46 1282.58,1343.46 1282.88,1371.97 1283.19,1371.97 1283.49,1371.97 1283.8,1371.97 1284.11,1371.97 1284.42,1371.97 1284.72,1371.97 1285.03,1371.97 1285.34,1371.97 1285.65,1371.97 1285.96,1371.97 1286.27,1371.97 1286.59,1371.97 1286.9,1371.97 1287.21,1371.97 1287.53,1371.97 1287.84,1371.97 1288.16,1359.02 1288.47,1359.02 1288.79,1359.02 1289.11,1359.02 1289.43,1359.02 1289.75,1359.02 1290.07,1359.02 1290.39,1359.02 1290.71,1359.02 1291.03,1359.02 1291.36,1359.02 1291.68,1359.02 1292.01,1359.02 1292.33,1359.02 1292.66,1359.02 1292.99,1359.02 1293.32,1359.02 1293.64,1359.02 1293.98,1359.02 1294.31,1359.02 1294.64,1359.02 1294.97,1359.02 1295.31,1359.02 1295.64,1359.02 1295.98,1359.02 1296.32,1359.02 1296.66,1359.02 1297,1277.71 1297.34,1277.71 1297.68,1277.71 1298.02,1277.71 1298.37,1277.71 1298.71,1277.71 1299.06,1277.71 1299.41,1277.71 1299.76,1277.71 1300.11,1277.71 1300.46,1277.71 1300.81,1277.71 1301.17,1277.71 1301.52,1277.71 1301.88,1277.71 1302.23,1277.71 1302.59,1359.02 1302.95,1359.02 1303.32,1359.02 1303.68,1359.02 1304.04,1359.02 1304.41,1359.02 1304.78,1359.02 1305.15,1359.02 1305.52,1359.02 1305.89,1359.02 1306.26,1359.02 1306.64,1359.02 1307.01,1359.02 1307.39,1359.02 1307.77,1359.02 1308.15,1359.02 1308.54,1359.02 1308.92,1359.02 1309.31,1359.02 1309.7,1359.02 1310.09,1359.02 1310.48,1359.02 1310.87,1359.02 1311.27,1359.02 1311.66,1359.02 1312.06,1359.02 1312.46,1359.02 1312.86,1359.02 1313.27,1359.02 1313.67,1359.02 1314.08,1359.02 1314.49,1359.02 1314.91,1359.02 1315.32,1359.02 1315.74,1359.02 1316.15,1359.02 1316.57,1342.21 1317,1342.21 1317.42,1342.21 1317.85,1342.21 1318.28,1342.21 1318.71,1342.21 1319.14,1342.21 1319.58,1342.21 1320.02,1342.21 1320.46,1342.21 1320.9,1342.21 1321.35,1342.21 1321.8,1342.21 1322.25,1342.21 1322.7,1342.21 1323.16,1342.21 1323.62,1342.21 1324.08,1342.21 1324.54,1355.16 1325.01,1355.16 1325.48,1355.16 1325.95,1355.16 1326.43,1355.16 1326.9,1317.87 1327.39,1317.87 1327.87,1317.87 1328.36,1317.87 1328.85,1317.87 1329.34,1317.87 1329.84,1317.87 1330.33,1317.87 1330.84,1317.87 1331.34,1317.87 1331.85,1317.87 1332.37,1317.87 1332.88,1317.87 1333.4,1317.87 1333.92,1274.58 1334.45,1274.58 1334.98,1274.58 1335.51,1274.58 1336.05,1274.58 1336.59,1274.58 1337.14,1274.58 1337.69,1274.58 1338.24,1274.58 1338.8,1274.58 1339.36,1274.58 1339.92,1274.58 1340.49,1274.58 1341.07,1274.58 1341.64,1274.58 1342.23,1274.58 1342.81,1274.58 1343.4,1274.58 1344,1274.58 1344.6,1274.58 1345.21,1274.58 1345.82,1274.58 1346.43,1164.02 1347.05,1093.62 1347.67,1093.62 1348.3,1093.62 1348.94,1093.62 1349.58,1050.28 1350.23,885.421 1350.88,885.421 1351.53,885.421 1352.19,885.421 1352.86,885.421 1353.54,885.421 1354.22,885.421 1354.9,885.421 1355.59,885.421 1356.29,824.489 1356.99,824.489 1357.7,824.489 1358.42,824.489 1359.15,824.489 1359.88,342.325 1360.61,342.325 1361.36,342.325 1362.11,342.325 1362.87,342.325 1363.63,160.256 1364.4,642.42 1365.18,659.228 1365.97,659.228 1366.77,769.784 1367.57,769.784 1368.39,769.784 1369.21,882.723 1370.03,882.723 1370.87,926.523 1371.72,926.523 1372.57,926.523 1373.44,862.572 1374.31,862.572 1375.19,862.572 1376.09,862.572 1376.99,862.572 1377.9,862.572 1378.82,862.572 1379.76,932.972 1380.7,1089.55 1381.65,1089.55 1382.62,1089.55 1383.59,1153.5 1384.58,1153.5 1385.58,1288.06 1386.59,1288.06 1387.61,1339.98 1388.65,1339.98 1389.7,1383.32 1390.76,1383.32 1391.83,1384.74 1392.92,1384.74 1394.02,1384.74 1395.14,1384.74 1396.26,1384.74 1397.41,1384.74 1398.57,1384.74 1399.74,1384.74 1400.93,1384.74 1402.14,1384.74 1403.36,1384.74 1404.6,1384.74 1405.85,1384.74 1407.13,1384.74 1408.42,1384.74 1409.73,1384.74 1411.05,1384.74 1412.4,1384.74 1413.77,1384.74 1415.15,1384.74 1416.56,1384.74 1417.99,1384.74 1419.44,1384.74 1420.91,1384.74 1422.4,1384.74 1423.92,1384.74 1425.46,1384.74 1427.03,1384.74 1428.62,1384.74 1430.23,1384.74 1431.88,1384.74 1433.55,1384.74 1435.24,1384.74 1436.97,1384.74 1438.72,1384.74 1440.51,1384.74 1442.32,1384.74 1444.17,1384.74 1446.05,1384.74 1447.96,1384.74 1449.91,1384.74 1451.9,1384.74 1453.92,1384.74 1455.97,1384.74 1458.07,1384.74 1460.21,1386.4 1462.38,1386.4 1464.6,1386.4 1466.87,1386.4 1469.17,1386.4 1471.53,1386.4 1473.93,1386.4 1476.38,1386.4 1478.89,1386.4 1481.44,1386.4 1484.06,1386.4 1486.72,1386.4 1489.45,1386.4 1492.23,1386.4 1495.08,1386.4 1498,1386.4 1500.98,1386.4 1504.03,1386.4 1507.15,1386.4 1510.34,1386.4 1513.62,1386.4 1516.97,1386.4 1520.41,1386.4 1523.93,1386.4 1527.55,1386.4 1531.25,1386.4 1535.06,1386.4 1538.97,1386.4 1542.98,1386.4 1547.1,1386.4 1551.34,1386.4 1555.7,1386.4 1560.18,1386.4 1564.79,1386.4 1569.55,1386.4 1574.44,1386.4 1579.48,1386.4 1584.68,1386.4 1590.05,1386.4 1595.59,1386.4 1601.31,1386.4 1607.22,1386.4 1613.33,1386.4 1619.65,1386.4 1626.19,1386.4 1632.97,1386.4 1640,1386.4 1647.29,1386.4 1654.85,1386.4 1662.71,1386.4 1670.87,1386.4 1679.37,1386.4 1688.22,1386.4 1697.43,1386.4 1707.05,1386.4 1717.09,1386.4 1727.58,1386.4 1738.55,1386.4 1750.04,1386.4 1762.09,1386.4 1774.73,1386.4 1788.02,1386.4 1802,1386.4 1816.74,1386.4 1832.28,1386.4 1848.71,1386.4 1866.1,1386.4 1884.54,1386.4 1904.12,1386.4 1924.96,1386.4 1947.19,1386.4 1970.94,1386.4 1996.38,1386.4 2023.7,1386.4 2053.11,1386.4 2084.86,1386.4 2119.26,1386.4 2156.63,1386.4 2197.4,1386.4 2242.04,1386.4 2291.13,1386.4 "></polyline>
<polyline clip-path="url(#clip142)" style="stroke:#e26f46; stroke-linecap:round; stroke-linejoin:round; stroke-width:4; stroke-opacity:1; fill:none" points="237.067,1385.79 286.161,1384.92 330.801,1383.33 371.567,1380.78 408.944,1377.16 443.338,1372.43 475.094,1366.72 504.506,1360.26 531.823,1353.33 557.262,1346.24 581.013,1339.3 603.237,1332.73 624.078,1326.75 643.662,1321.48 662.1,1317.01 679.489,1313.35 695.918,1310.5 711.464,1308.42 726.197,1307.06 740.18,1306.34 753.468,1306.19 766.112,1306.54 778.159,1307.3 789.651,1308.42 800.624,1309.82 811.114,1311.44 821.152,1313.25 830.767,1315.18 839.986,1317.22 848.832,1319.31 857.328,1321.44 865.495,1323.58 873.351,1325.72 880.915,1327.83 888.202,1329.91 895.228,1331.94 902.006,1333.93 908.55,1335.86 914.872,1337.73 920.982,1339.54 926.893,1341.29 932.612,1342.96 938.151,1344.58 943.516,1346.13 948.717,1347.62 953.761,1349.05 958.655,1350.41 963.406,1351.72 968.02,1352.97 972.503,1354.17 976.861,1355.31 981.099,1356.41 985.222,1357.45 989.235,1358.45 993.142,1359.41 996.947,1360.32 1000.66,1361.2 1004.27,1362.03 1007.79,1362.83 1011.23,1363.6 1014.58,1364.33 1017.86,1365.03 1021.05,1365.7 1024.18,1366.34 1027.23,1366.95 1030.21,1367.54 1033.12,1368.1 1035.97,1368.64 1038.75,1369.16 1041.48,1369.66 1044.15,1370.13 1046.76,1370.59 1049.31,1371.03 1051.82,1371.45 1054.27,1371.85 1056.67,1372.24 1059.03,1372.62 1061.34,1372.98 1063.6,1373.32 1065.82,1373.66 1068,1373.98 1070.13,1374.29 1072.23,1374.58 1074.29,1374.87 1076.31,1375.15 1078.29,1375.41 1080.24,1375.67 1082.15,1375.92 1084.03,1376.16 1085.88,1376.39 1087.69,1376.61 1089.48,1376.83 1091.23,1377.04 1092.96,1377.24 1094.66,1377.44 1096.32,1377.63 1097.97,1377.81 1099.58,1377.99 1101.17,1378.16 1102.74,1378.32 1104.28,1378.48 1105.8,1378.64 1107.29,1378.79 1108.76,1378.94 1110.21,1379.08 1111.64,1379.22 1113.05,1379.35 1114.43,1379.48 1115.8,1379.61 1117.15,1379.73 1118.47,1379.85 1119.78,1379.97 1121.07,1380.08 1122.35,1380.19 1123.6,1380.3 1124.84,1380.4 1126.06,1380.5 1127.27,1380.6 1128.46,1380.69 1129.63,1380.79 1130.79,1380.88 1131.94,1380.97 1133.07,1381.05 1134.18,1381.14 1135.28,1381.22 1136.37,1381.3 1137.44,1381.38 1138.5,1381.45 1139.55,1381.53 1140.59,1381.6 1141.61,1381.67 1142.62,1381.74 1143.62,1381.8 1144.61,1381.87 1145.58,1381.93 1146.55,1382 1147.5,1382.06 1148.45,1382.12 1149.38,1382.18 1150.3,1382.23 1151.21,1382.29 1152.12,1382.34 1153.01,1382.4 1153.89,1382.45 1154.76,1382.5 1155.63,1382.55 1156.48,1382.6 1157.33,1382.65 1158.17,1382.69 1159,1382.74 1159.82,1382.78 1160.63,1382.83 1161.43,1382.87 1162.23,1382.91 1163.02,1382.96 1163.8,1383 1164.57,1383.04 1165.34,1383.08 1166.09,1383.11 1166.84,1383.15 1167.59,1383.19 1168.33,1383.22 1169.06,1383.26 1169.78,1383.29 1170.5,1383.33 1171.21,1383.36 1171.91,1383.39 1172.61,1383.43 1173.3,1383.46 1173.99,1383.49 1174.67,1383.52 1175.34,1383.55 1176.01,1383.58 1176.67,1383.61 1177.33,1383.64 1177.98,1383.66 1178.62,1383.69 1179.26,1383.72 1179.9,1383.74 1180.53,1383.77 1181.15,1383.8 1181.77,1383.82 1182.39,1383.84 1183,1383.87 1183.6,1383.89 1184.2,1383.91 1184.8,1383.94 1185.39,1383.96 1185.97,1383.98 1186.56,1384 1187.14,1384.02 1187.71,1384.04 1188.28,1384.06 1188.84,1384.08 1189.4,1384.1 1189.96,1384.12 1190.51,1384.14 1191.06,1384.16 1191.61,1384.18 1192.15,1384.19 1192.69,1384.21 1193.22,1384.23 1193.75,1384.25 1194.28,1384.26 1194.8,1384.28 1195.32,1384.29 1195.84,1384.31 1196.35,1384.32 1196.86,1384.34 1197.36,1384.35 1197.87,1384.36 1198.37,1384.38 1198.86,1384.39 1199.36,1384.4 1199.85,1384.42 1200.33,1384.43 1200.82,1384.44 1201.3,1384.45 1201.78,1384.46 1202.25,1384.47 1202.72,1384.48 1203.19,1384.49 1203.66,1384.5 1204.12,1384.51 1204.58,1384.52 1205.04,1384.53 1205.5,1384.54 1205.95,1384.55 1206.4,1384.55 1206.85,1384.56 1207.3,1384.57 1207.74,1384.57 1208.18,1384.58 1208.62,1384.59 1209.06,1384.59 1209.49,1384.6 1209.92,1384.6 1210.35,1384.61 1210.78,1384.61 1211.2,1384.61 1211.63,1384.62 1212.05,1384.62 1212.47,1384.62 1212.88,1384.62 1213.3,1384.62 1213.71,1384.63 1214.12,1384.63 1214.53,1384.63 1214.93,1384.63 1215.34,1384.63 1215.74,1384.63 1216.14,1384.62 1216.54,1384.62 1216.94,1384.62 1217.33,1384.62 1217.72,1384.62 1218.12,1384.61 1218.51,1384.61 1218.89,1384.6 1219.28,1384.6 1219.66,1384.59 1220.05,1384.59 1220.43,1384.58 1220.81,1384.57 1221.19,1384.57 1221.56,1384.56 1221.94,1384.55 1222.31,1384.54 1222.68,1384.53 1223.05,1384.52 1223.42,1384.51 1223.79,1384.5 1224.16,1384.49 1224.52,1384.48 1224.88,1384.47 1225.25,1384.45 1225.61,1384.44 1225.97,1384.42 1226.32,1384.41 1226.68,1384.39 1227.04,1384.38 1227.39,1384.36 1227.74,1384.34 1228.09,1384.32 1228.44,1384.31 1228.79,1384.29 1229.14,1384.27 1229.49,1384.25 1229.83,1384.22 1230.18,1384.2 1230.52,1384.18 1230.86,1384.16 1231.2,1384.13 1231.54,1384.11 1231.88,1384.08 1232.22,1384.05 1232.56,1384.03 1232.89,1384 1233.23,1383.97 1233.56,1383.94 1233.89,1383.91 1234.23,1383.88 1234.56,1383.84 1234.89,1383.81 1235.21,1383.78 1235.54,1383.74 1235.87,1383.71 1236.2,1383.67 1236.52,1383.63 1236.85,1383.59 1237.17,1383.55 1237.49,1383.51 1237.81,1383.47 1238.13,1383.43 1238.45,1383.39 1238.77,1383.34 1239.09,1383.3 1239.41,1383.25 1239.73,1383.2 1240.04,1383.16 1240.36,1383.11 1240.67,1383.06 1240.99,1383 1241.3,1382.95 1241.62,1382.9 1241.93,1382.84 1242.24,1382.79 1242.55,1382.73 1242.86,1382.67 1243.17,1382.61 1243.48,1382.55 1243.79,1382.49 1244.09,1382.43 1244.4,1382.36 1244.71,1382.29 1245.01,1382.23 1245.32,1382.16 1245.62,1382.09 1245.93,1382.02 1246.23,1381.94 1246.53,1381.87 1246.84,1381.8 1247.14,1381.72 1247.44,1381.64 1247.74,1381.56 1248.04,1381.48 1248.34,1381.4 1248.64,1381.31 1248.94,1381.23 1249.24,1381.14 1249.54,1381.05 1249.84,1380.96 1250.13,1380.87 1250.43,1380.77 1250.73,1380.68 1251.02,1380.58 1251.32,1380.48 1251.62,1380.38 1251.91,1380.28 1252.21,1380.17 1252.5,1380.07 1252.79,1379.96 1253.09,1379.85 1253.38,1379.74 1253.67,1379.62 1253.97,1379.51 1254.26,1379.39 1254.55,1379.27 1254.85,1379.15 1255.14,1379.03 1255.43,1378.9 1255.72,1378.77 1256.01,1378.64 1256.3,1378.51 1256.59,1378.38 1256.88,1378.24 1257.17,1378.1 1257.46,1377.96 1257.75,1377.82 1258.04,1377.68 1258.33,1377.53 1258.62,1377.38 1258.91,1377.23 1259.2,1377.07 1259.49,1376.91 1259.78,1376.76 1260.07,1376.59 1260.36,1376.43 1260.64,1376.26 1260.93,1376.09 1261.22,1375.92 1261.51,1375.74 1261.8,1375.57 1262.09,1375.38 1262.37,1375.2 1262.66,1375.02 1262.95,1374.83 1263.24,1374.63 1263.52,1374.44 1263.81,1374.24 1264.1,1374.04 1264.39,1373.84 1264.68,1373.63 1264.96,1373.42 1265.25,1373.21 1265.54,1372.99 1265.83,1372.77 1266.12,1372.55 1266.4,1372.32 1266.69,1372.09 1266.98,1371.86 1267.27,1371.62 1267.56,1371.38 1267.85,1371.14 1268.13,1370.89 1268.42,1370.64 1268.71,1370.38 1269,1370.13 1269.29,1369.86 1269.58,1369.6 1269.87,1369.33 1270.16,1369.05 1270.45,1368.78 1270.74,1368.49 1271.03,1368.21 1271.32,1367.92 1271.61,1367.62 1271.9,1367.33 1272.19,1367.02 1272.48,1366.72 1272.77,1366.41 1273.06,1366.09 1273.36,1365.77 1273.65,1365.45 1273.94,1365.12 1274.23,1364.78 1274.53,1364.44 1274.82,1364.1 1275.11,1363.75 1275.41,1363.4 1275.7,1363.04 1276,1362.68 1276.29,1362.31 1276.59,1361.94 1276.88,1361.56 1277.18,1361.17 1277.47,1360.78 1277.77,1360.39 1278.07,1359.99 1278.37,1359.58 1278.66,1359.17 1278.96,1358.76 1279.26,1358.33 1279.56,1357.9 1279.86,1357.47 1280.16,1357.03 1280.46,1356.58 1280.76,1356.13 1281.06,1355.67 1281.36,1355.21 1281.67,1354.74 1281.97,1354.26 1282.27,1353.77 1282.58,1353.28 1282.88,1352.79 1283.19,1352.28 1283.49,1351.77 1283.8,1351.25 1284.11,1350.73 1284.42,1350.2 1284.72,1349.66 1285.03,1349.11 1285.34,1348.56 1285.65,1348 1285.96,1347.43 1286.27,1346.85 1286.59,1346.27 1286.9,1345.68 1287.21,1345.08 1287.53,1344.47 1287.84,1343.85 1288.16,1343.23 1288.47,1342.6 1288.79,1341.96 1289.11,1341.31 1289.43,1340.65 1289.75,1339.99 1290.07,1339.31 1290.39,1338.63 1290.71,1337.94 1291.03,1337.24 1291.36,1336.53 1291.68,1335.81 1292.01,1335.08 1292.33,1334.34 1292.66,1333.59 1292.99,1332.84 1293.32,1332.07 1293.64,1331.29 1293.98,1330.51 1294.31,1329.71 1294.64,1328.9 1294.97,1328.09 1295.31,1327.26 1295.64,1326.42 1295.98,1325.57 1296.32,1324.71 1296.66,1323.84 1297,1322.96 1297.34,1322.07 1297.68,1321.17 1298.02,1320.25 1298.37,1319.32 1298.71,1318.39 1299.06,1317.44 1299.41,1316.48 1299.76,1315.51 1300.11,1314.52 1300.46,1313.53 1300.81,1312.52 1301.17,1311.5 1301.52,1310.46 1301.88,1309.42 1302.23,1308.36 1302.59,1307.29 1302.95,1306.21 1303.32,1305.11 1303.68,1304 1304.04,1302.88 1304.41,1301.74 1304.78,1300.59 1305.15,1299.43 1305.52,1298.25 1305.89,1297.07 1306.26,1295.86 1306.64,1294.65 1307.01,1293.42 1307.39,1292.17 1307.77,1290.91 1308.15,1289.64 1308.54,1288.35 1308.92,1287.05 1309.31,1285.74 1309.7,1284.41 1310.09,1283.06 1310.48,1281.7 1310.87,1280.33 1311.27,1278.94 1311.66,1277.54 1312.06,1276.12 1312.46,1274.69 1312.86,1273.25 1313.27,1271.78 1313.67,1270.31 1314.08,1268.82 1314.49,1267.31 1314.91,1265.79 1315.32,1264.26 1315.74,1262.71 1316.15,1261.14 1316.57,1259.56 1317,1257.97 1317.42,1256.36 1317.85,1254.73 1318.28,1253.09 1318.71,1251.44 1319.14,1249.78 1319.58,1248.09 1320.02,1246.4 1320.46,1244.69 1320.9,1242.97 1321.35,1241.23 1321.8,1239.48 1322.25,1237.71 1322.7,1235.94 1323.16,1234.15 1323.62,1232.34 1324.08,1230.53 1324.54,1228.7 1325.01,1226.86 1325.48,1225.01 1325.95,1223.15 1326.43,1221.27 1326.9,1219.39 1327.39,1217.49 1327.87,1215.59 1328.36,1213.67 1328.85,1211.75 1329.34,1209.82 1329.84,1207.88 1330.33,1205.93 1330.84,1203.98 1331.34,1202.02 1331.85,1200.05 1332.37,1198.08 1332.88,1196.11 1333.4,1194.13 1333.92,1192.15 1334.45,1190.16 1334.98,1188.18 1335.51,1186.19 1336.05,1184.21 1336.59,1182.23 1337.14,1180.24 1337.69,1178.27 1338.24,1176.29 1338.8,1174.33 1339.36,1172.37 1339.92,1170.41 1340.49,1168.47 1341.07,1166.54 1341.64,1164.61 1342.23,1162.71 1342.81,1160.81 1343.4,1158.93 1344,1157.07 1344.6,1155.23 1345.21,1153.41 1345.82,1151.62 1346.43,1149.84 1347.05,1148.1 1347.67,1146.38 1348.3,1144.69 1348.94,1143.03 1349.58,1141.41 1350.23,1139.82 1350.88,1138.27 1351.53,1136.76 1352.19,1135.3 1352.86,1133.88 1353.54,1132.51 1354.22,1131.18 1354.9,1129.91 1355.59,1128.7 1356.29,1127.54 1356.99,1126.44 1357.7,1125.41 1358.42,1124.44 1359.15,1123.54 1359.88,1122.71 1360.61,1121.95 1361.36,1121.27 1362.11,1120.68 1362.87,1120.16 1363.63,1119.73 1364.4,1119.4 1365.18,1119.15 1365.97,1119 1366.77,1118.94 1367.57,1118.99 1368.39,1119.14 1369.21,1119.4 1370.03,1119.77 1370.87,1120.26 1371.72,1120.86 1372.57,1121.58 1373.44,1122.42 1374.31,1123.38 1375.19,1124.47 1376.09,1125.7 1376.99,1127.05 1377.9,1128.54 1378.82,1130.16 1379.76,1131.92 1380.7,1133.83 1381.65,1135.87 1382.62,1138.06 1383.59,1140.39 1384.58,1142.86 1385.58,1145.49 1386.59,1148.25 1387.61,1151.17 1388.65,1154.22 1389.7,1157.43 1390.76,1160.77 1391.83,1164.26 1392.92,1167.89 1394.02,1171.66 1395.14,1175.57 1396.26,1179.61 1397.41,1183.77 1398.57,1188.07 1399.74,1192.48 1400.93,1197.01 1402.14,1201.65 1403.36,1206.4 1404.6,1211.24 1405.85,1216.18 1407.13,1221.2 1408.42,1226.29 1409.73,1231.46 1411.05,1236.68 1412.4,1241.95 1413.77,1247.27 1415.15,1252.61 1416.56,1257.97 1417.99,1263.34 1419.44,1268.7 1420.91,1274.05 1422.4,1279.38 1423.92,1284.67 1425.46,1289.9 1427.03,1295.08 1428.62,1300.18 1430.23,1305.2 1431.88,1310.12 1433.55,1314.93 1435.24,1319.63 1436.97,1324.19 1438.72,1328.62 1440.51,1332.9 1442.32,1337.03 1444.17,1340.99 1446.05,1344.78 1447.96,1348.4 1449.91,1351.84 1451.9,1355.09 1453.92,1358.15 1455.97,1361.03 1458.07,1363.72 1460.21,1366.22 1462.38,1368.54 1464.6,1370.67 1466.87,1372.62 1469.17,1374.4 1471.53,1376.02 1473.93,1377.47 1476.38,1378.77 1478.89,1379.92 1481.44,1380.94 1484.06,1381.84 1486.72,1382.62 1489.45,1383.29 1492.23,1383.86 1495.08,1384.35 1498,1384.76 1500.98,1385.1 1504.03,1385.38 1507.15,1385.61 1510.34,1385.8 1513.62,1385.94 1516.97,1386.06 1520.41,1386.15 1523.93,1386.22 1527.55,1386.27 1531.25,1386.31 1535.06,1386.33 1538.97,1386.35 1542.98,1386.37 1547.1,1386.38 1551.34,1386.38 1555.7,1386.39 1560.18,1386.39 1564.79,1386.39 1569.55,1386.39 1574.44,1386.39 1579.48,1386.4 1584.68,1386.4 1590.05,1386.4 1595.59,1386.4 1601.31,1386.4 1607.22,1386.4 1613.33,1386.4 1619.65,1386.4 1626.19,1386.4 1632.97,1386.4 1640,1386.4 1647.29,1386.4 1654.85,1386.4 1662.71,1386.4 1670.87,1386.4 1679.37,1386.4 1688.22,1386.4 1697.43,1386.4 1707.05,1386.4 1717.09,1386.4 1727.58,1386.4 1738.55,1386.4 1750.04,1386.4 1762.09,1386.4 1774.73,1386.4 1788.02,1386.4 1802,1386.4 1816.74,1386.4 1832.28,1386.4 1848.71,1386.4 1866.1,1386.4 1884.54,1386.4 1904.12,1386.4 1924.96,1386.4 1947.19,1386.4 1970.94,1386.4 1996.38,1386.4 2023.7,1386.4 2053.11,1386.4 2084.86,1386.4 2119.26,1386.4 2156.63,1386.4 2197.4,1386.4 2242.04,1386.4 2291.13,1386.4 "></polyline>
<path clip-path="url(#clip140)" d="M1617.17 322.316 L2280.18 322.316 L2280.18 166.796 L1617.17 166.796  Z" fill="#ffffff" fill-rule="evenodd" fill-opacity="1"></path>
<polyline clip-path="url(#clip140)" style="stroke:#000000; stroke-linecap:round; stroke-linejoin:round; stroke-width:4; stroke-opacity:1; fill:none" points="1617.17,322.316 2280.18,322.316 2280.18,166.796 1617.17,166.796 1617.17,322.316 "></polyline>
<polyline clip-path="url(#clip140)" style="stroke:#009af9; stroke-linecap:round; stroke-linejoin:round; stroke-width:4; stroke-opacity:1; fill:none" points="1641.36,218.636 1786.52,218.636 "></polyline>
<path clip-path="url(#clip140)" d="M1825.9 213.971 Q1825.18 213.555 1824.32 213.37 Q1823.49 213.161 1822.47 213.161 Q1818.86 213.161 1816.91 215.522 Q1814.99 217.86 1814.99 222.258 L1814.99 235.916 L1810.71 235.916 L1810.71 209.99 L1814.99 209.99 L1814.99 214.018 Q1816.34 211.657 1818.49 210.522 Q1820.64 209.365 1823.72 209.365 Q1824.16 209.365 1824.69 209.434 Q1825.22 209.481 1825.87 209.596 L1825.9 213.971 Z" fill="#000000" fill-rule="nonzero" fill-opacity="1"></path><path clip-path="url(#clip140)" d="M1851.5 221.888 L1851.5 223.971 L1831.91 223.971 Q1832.19 228.369 1834.55 230.684 Q1836.94 232.976 1841.17 232.976 Q1843.63 232.976 1845.92 232.374 Q1848.23 231.772 1850.5 230.569 L1850.5 234.596 Q1848.21 235.568 1845.8 236.078 Q1843.4 236.587 1840.92 236.587 Q1834.72 236.587 1831.08 232.976 Q1827.47 229.365 1827.47 223.207 Q1827.47 216.842 1830.9 213.115 Q1834.35 209.365 1840.18 209.365 Q1845.41 209.365 1848.44 212.745 Q1851.5 216.101 1851.5 221.888 M1847.24 220.638 Q1847.19 217.143 1845.27 215.059 Q1843.37 212.976 1840.22 212.976 Q1836.66 212.976 1834.51 214.99 Q1832.38 217.004 1832.05 220.661 L1847.24 220.638 Z" fill="#000000" fill-rule="nonzero" fill-opacity="1"></path><path clip-path="url(#clip140)" d="M1877.15 210.985 L1877.15 214.967 Q1875.34 213.971 1873.51 213.485 Q1871.71 212.976 1869.85 212.976 Q1865.71 212.976 1863.42 215.615 Q1861.13 218.231 1861.13 222.976 Q1861.13 227.721 1863.42 230.36 Q1865.71 232.976 1869.85 232.976 Q1871.71 232.976 1873.51 232.49 Q1875.34 231.981 1877.15 230.985 L1877.15 234.92 Q1875.36 235.754 1873.44 236.17 Q1871.54 236.587 1869.39 236.587 Q1863.53 236.587 1860.09 232.906 Q1856.64 229.226 1856.64 222.976 Q1856.64 216.633 1860.11 212.999 Q1863.6 209.365 1869.67 209.365 Q1871.64 209.365 1873.51 209.782 Q1875.39 210.175 1877.15 210.985 Z" fill="#000000" fill-rule="nonzero" fill-opacity="1"></path><path clip-path="url(#clip140)" d="M1894.6 212.976 Q1891.17 212.976 1889.18 215.661 Q1887.19 218.323 1887.19 222.976 Q1887.19 227.629 1889.16 230.314 Q1891.15 232.976 1894.6 232.976 Q1898 232.976 1899.99 230.291 Q1901.98 227.606 1901.98 222.976 Q1901.98 218.37 1899.99 215.684 Q1898 212.976 1894.6 212.976 M1894.6 209.365 Q1900.16 209.365 1903.33 212.976 Q1906.5 216.587 1906.5 222.976 Q1906.5 229.342 1903.33 232.976 Q1900.16 236.587 1894.6 236.587 Q1889.02 236.587 1885.85 232.976 Q1882.7 229.342 1882.7 222.976 Q1882.7 216.587 1885.85 212.976 Q1889.02 209.365 1894.6 209.365 Z" fill="#000000" fill-rule="nonzero" fill-opacity="1"></path><path clip-path="url(#clip140)" d="M1935.11 220.268 L1935.11 235.916 L1930.85 235.916 L1930.85 220.407 Q1930.85 216.726 1929.41 214.897 Q1927.98 213.069 1925.11 213.069 Q1921.66 213.069 1919.67 215.268 Q1917.68 217.467 1917.68 221.263 L1917.68 235.916 L1913.4 235.916 L1913.4 209.99 L1917.68 209.99 L1917.68 214.018 Q1919.21 211.68 1921.27 210.522 Q1923.35 209.365 1926.06 209.365 Q1930.53 209.365 1932.82 212.143 Q1935.11 214.897 1935.11 220.268 Z" fill="#000000" fill-rule="nonzero" fill-opacity="1"></path><path clip-path="url(#clip140)" d="M1960.13 210.754 L1960.13 214.782 Q1958.33 213.856 1956.38 213.393 Q1954.44 212.93 1952.35 212.93 Q1949.18 212.93 1947.59 213.902 Q1946.01 214.874 1946.01 216.819 Q1946.01 218.3 1947.15 219.157 Q1948.28 219.99 1951.71 220.754 L1953.16 221.078 Q1957.7 222.05 1959.6 223.832 Q1961.52 225.592 1961.52 228.763 Q1961.52 232.374 1958.65 234.481 Q1955.8 236.587 1950.8 236.587 Q1948.72 236.587 1946.45 236.17 Q1944.21 235.777 1941.71 234.967 L1941.71 230.569 Q1944.07 231.795 1946.36 232.42 Q1948.65 233.022 1950.9 233.022 Q1953.9 233.022 1955.53 232.004 Q1957.15 230.962 1957.15 229.087 Q1957.15 227.351 1955.97 226.425 Q1954.81 225.499 1950.85 224.643 L1949.37 224.295 Q1945.41 223.462 1943.65 221.749 Q1941.89 220.013 1941.89 217.004 Q1941.89 213.346 1944.48 211.356 Q1947.08 209.365 1951.84 209.365 Q1954.21 209.365 1956.29 209.712 Q1958.37 210.059 1960.13 210.754 Z" fill="#000000" fill-rule="nonzero" fill-opacity="1"></path><path clip-path="url(#clip140)" d="M1972.52 202.629 L1972.52 209.99 L1981.29 209.99 L1981.29 213.3 L1972.52 213.3 L1972.52 227.374 Q1972.52 230.545 1973.37 231.448 Q1974.25 232.351 1976.91 232.351 L1981.29 232.351 L1981.29 235.916 L1976.91 235.916 Q1971.98 235.916 1970.11 234.087 Q1968.23 232.235 1968.23 227.374 L1968.23 213.3 L1965.11 213.3 L1965.11 209.99 L1968.23 209.99 L1968.23 202.629 L1972.52 202.629 Z" fill="#000000" fill-rule="nonzero" fill-opacity="1"></path><path clip-path="url(#clip140)" d="M2001.91 213.971 Q2001.2 213.555 2000.34 213.37 Q1999.51 213.161 1998.49 213.161 Q1994.88 213.161 1992.93 215.522 Q1991.01 217.86 1991.01 222.258 L1991.01 235.916 L1986.73 235.916 L1986.73 209.99 L1991.01 209.99 L1991.01 214.018 Q1992.35 211.657 1994.51 210.522 Q1996.66 209.365 1999.74 209.365 Q2000.18 209.365 2000.71 209.434 Q2001.24 209.481 2001.89 209.596 L2001.91 213.971 Z" fill="#000000" fill-rule="nonzero" fill-opacity="1"></path><path clip-path="url(#clip140)" d="M2005.94 225.684 L2005.94 209.99 L2010.2 209.99 L2010.2 225.522 Q2010.2 229.203 2011.64 231.055 Q2013.07 232.883 2015.94 232.883 Q2019.39 232.883 2021.38 230.684 Q2023.4 228.485 2023.4 224.689 L2023.4 209.99 L2027.65 209.99 L2027.65 235.916 L2023.4 235.916 L2023.4 231.934 Q2021.84 234.295 2019.78 235.453 Q2017.75 236.587 2015.04 236.587 Q2010.57 236.587 2008.26 233.809 Q2005.94 231.031 2005.94 225.684 M2016.66 209.365 L2016.66 209.365 Z" fill="#000000" fill-rule="nonzero" fill-opacity="1"></path><path clip-path="url(#clip140)" d="M2055.08 210.985 L2055.08 214.967 Q2053.28 213.971 2051.45 213.485 Q2049.65 212.976 2047.79 212.976 Q2043.65 212.976 2041.36 215.615 Q2039.07 218.231 2039.07 222.976 Q2039.07 227.721 2041.36 230.36 Q2043.65 232.976 2047.79 232.976 Q2049.65 232.976 2051.45 232.49 Q2053.28 231.981 2055.08 230.985 L2055.08 234.92 Q2053.3 235.754 2051.38 236.17 Q2049.48 236.587 2047.33 236.587 Q2041.47 236.587 2038.02 232.906 Q2034.58 229.226 2034.58 222.976 Q2034.58 216.633 2038.05 212.999 Q2041.54 209.365 2047.61 209.365 Q2049.58 209.365 2051.45 209.782 Q2053.33 210.175 2055.08 210.985 Z" fill="#000000" fill-rule="nonzero" fill-opacity="1"></path><path clip-path="url(#clip140)" d="M2066.71 202.629 L2066.71 209.99 L2075.48 209.99 L2075.48 213.3 L2066.71 213.3 L2066.71 227.374 Q2066.71 230.545 2067.56 231.448 Q2068.44 232.351 2071.1 232.351 L2075.48 232.351 L2075.48 235.916 L2071.1 235.916 Q2066.17 235.916 2064.3 234.087 Q2062.42 232.235 2062.42 227.374 L2062.42 213.3 L2059.3 213.3 L2059.3 209.99 L2062.42 209.99 L2062.42 202.629 L2066.71 202.629 Z" fill="#000000" fill-rule="nonzero" fill-opacity="1"></path><path clip-path="url(#clip140)" d="M2103.26 221.888 L2103.26 223.971 L2083.67 223.971 Q2083.95 228.369 2086.31 230.684 Q2088.7 232.976 2092.93 232.976 Q2095.39 232.976 2097.68 232.374 Q2099.99 231.772 2102.26 230.569 L2102.26 234.596 Q2099.97 235.568 2097.56 236.078 Q2095.15 236.587 2092.68 236.587 Q2086.47 236.587 2082.84 232.976 Q2079.23 229.365 2079.23 223.207 Q2079.23 216.842 2082.65 213.115 Q2086.1 209.365 2091.94 209.365 Q2097.17 209.365 2100.2 212.745 Q2103.26 216.101 2103.26 221.888 M2099 220.638 Q2098.95 217.143 2097.03 215.059 Q2095.13 212.976 2091.98 212.976 Q2088.42 212.976 2086.27 214.99 Q2084.14 217.004 2083.81 220.661 L2099 220.638 Z" fill="#000000" fill-rule="nonzero" fill-opacity="1"></path><path clip-path="url(#clip140)" d="M2127.31 213.925 L2127.31 199.897 L2131.57 199.897 L2131.57 235.916 L2127.31 235.916 L2127.31 232.027 Q2125.96 234.342 2123.9 235.476 Q2121.87 236.587 2119 236.587 Q2114.3 236.587 2111.33 232.837 Q2108.39 229.087 2108.39 222.976 Q2108.39 216.865 2111.33 213.115 Q2114.3 209.365 2119 209.365 Q2121.87 209.365 2123.9 210.499 Q2125.96 211.61 2127.31 213.925 M2112.79 222.976 Q2112.79 227.675 2114.71 230.36 Q2116.66 233.022 2120.04 233.022 Q2123.42 233.022 2125.36 230.36 Q2127.31 227.675 2127.31 222.976 Q2127.31 218.277 2125.36 215.615 Q2123.42 212.93 2120.04 212.93 Q2116.66 212.93 2114.71 215.615 Q2112.79 218.277 2112.79 222.976 Z" fill="#000000" fill-rule="nonzero" fill-opacity="1"></path><path clip-path="url(#clip140)" d="M2167.14 205.962 L2160.8 223.161 L2173.51 223.161 L2167.14 205.962 M2164.51 201.356 L2169.81 201.356 L2182.98 235.916 L2178.12 235.916 L2174.97 227.05 L2159.39 227.05 L2156.24 235.916 L2151.31 235.916 L2164.51 201.356 Z" fill="#000000" fill-rule="nonzero" fill-opacity="1"></path><path clip-path="url(#clip140)" d="M2198.07 199.944 Q2194.97 205.268 2193.46 210.476 Q2191.96 215.684 2191.96 221.032 Q2191.96 226.379 2193.46 231.633 Q2194.99 236.865 2198.07 242.166 L2194.37 242.166 Q2190.89 236.726 2189.16 231.471 Q2187.45 226.217 2187.45 221.032 Q2187.45 215.87 2189.16 210.638 Q2190.87 205.407 2194.37 199.944 L2198.07 199.944 Z" fill="#000000" fill-rule="nonzero" fill-opacity="1"></path><path clip-path="url(#clip140)" d="M2214.6 236.587 Q2204.99 236.587 2204.99 222.837 Q2204.99 217.397 2208.58 209.99 L2213.16 209.99 Q2209.85 217.397 2209.85 222.953 Q2209.85 232.976 2214.99 232.976 Q2219.69 232.976 2219.69 220.522 L2223.63 220.522 Q2223.63 232.976 2228.32 232.976 Q2233.46 232.976 2233.46 222.953 Q2233.46 217.397 2230.15 209.99 L2234.74 209.99 Q2238.32 217.397 2238.32 222.837 Q2238.32 236.587 2228.72 236.587 Q2222.42 236.587 2221.66 229.666 Q2220.71 236.587 2214.6 236.587 Z" fill="#000000" fill-rule="nonzero" fill-opacity="1"></path><path clip-path="url(#clip140)" d="M2245.36 199.944 L2249.07 199.944 Q2252.54 205.407 2254.25 210.638 Q2255.99 215.87 2255.99 221.032 Q2255.99 226.217 2254.25 231.471 Q2252.54 236.726 2249.07 242.166 L2245.36 242.166 Q2248.44 236.865 2249.94 231.633 Q2251.47 226.379 2251.47 221.032 Q2251.47 215.684 2249.94 210.476 Q2248.44 205.268 2245.36 199.944 Z" fill="#000000" fill-rule="nonzero" fill-opacity="1"></path><polyline clip-path="url(#clip140)" style="stroke:#e26f46; stroke-linecap:round; stroke-linejoin:round; stroke-width:4; stroke-opacity:1; fill:none" points="1641.36,270.476 1786.52,270.476 "></polyline>
<path clip-path="url(#clip140)" d="M1822.61 264.816 Q1819.18 264.816 1817.19 267.501 Q1815.2 270.163 1815.2 274.816 Q1815.2 279.469 1817.17 282.154 Q1819.16 284.816 1822.61 284.816 Q1826.01 284.816 1828 282.131 Q1829.99 279.446 1829.99 274.816 Q1829.99 270.21 1828 267.524 Q1826.01 264.816 1822.61 264.816 M1822.61 261.205 Q1828.16 261.205 1831.34 264.816 Q1834.51 268.427 1834.51 274.816 Q1834.51 281.182 1831.34 284.816 Q1828.16 288.427 1822.61 288.427 Q1817.03 288.427 1813.86 284.816 Q1810.71 281.182 1810.71 274.816 Q1810.71 268.427 1813.86 264.816 Q1817.03 261.205 1822.61 261.205 Z" fill="#000000" fill-rule="nonzero" fill-opacity="1"></path><path clip-path="url(#clip140)" d="M1856.59 265.811 Q1855.87 265.395 1855.02 265.21 Q1854.18 265.001 1853.16 265.001 Q1849.55 265.001 1847.61 267.362 Q1845.69 269.7 1845.69 274.098 L1845.69 287.756 L1841.41 287.756 L1841.41 261.83 L1845.69 261.83 L1845.69 265.858 Q1847.03 263.497 1849.18 262.362 Q1851.34 261.205 1854.41 261.205 Q1854.85 261.205 1855.39 261.274 Q1855.92 261.321 1856.57 261.436 L1856.59 265.811 Z" fill="#000000" fill-rule="nonzero" fill-opacity="1"></path><path clip-path="url(#clip140)" d="M1861.06 261.83 L1865.32 261.83 L1865.32 287.756 L1861.06 287.756 L1861.06 261.83 M1861.06 251.737 L1865.32 251.737 L1865.32 257.131 L1861.06 257.131 L1861.06 251.737 Z" fill="#000000" fill-rule="nonzero" fill-opacity="1"></path><path clip-path="url(#clip140)" d="M1891.29 274.492 Q1891.29 269.862 1889.37 267.316 Q1887.47 264.77 1884.02 264.77 Q1880.6 264.77 1878.67 267.316 Q1876.78 269.862 1876.78 274.492 Q1876.78 279.098 1878.67 281.645 Q1880.6 284.191 1884.02 284.191 Q1887.47 284.191 1889.37 281.645 Q1891.29 279.098 1891.29 274.492 M1895.55 284.538 Q1895.55 291.158 1892.61 294.376 Q1889.67 297.617 1883.6 297.617 Q1881.36 297.617 1879.37 297.27 Q1877.38 296.945 1875.5 296.251 L1875.5 292.108 Q1877.38 293.126 1879.21 293.612 Q1881.03 294.098 1882.93 294.098 Q1887.12 294.098 1889.21 291.899 Q1891.29 289.723 1891.29 285.302 L1891.29 283.196 Q1889.97 285.487 1887.91 286.621 Q1885.85 287.756 1882.98 287.756 Q1878.21 287.756 1875.29 284.121 Q1872.38 280.487 1872.38 274.492 Q1872.38 268.473 1875.29 264.839 Q1878.21 261.205 1882.98 261.205 Q1885.85 261.205 1887.91 262.339 Q1889.97 263.473 1891.29 265.765 L1891.29 261.83 L1895.55 261.83 L1895.55 284.538 Z" fill="#000000" fill-rule="nonzero" fill-opacity="1"></path><path clip-path="url(#clip140)" d="M1904.32 261.83 L1908.58 261.83 L1908.58 287.756 L1904.32 287.756 L1904.32 261.83 M1904.32 251.737 L1908.58 251.737 L1908.58 257.131 L1904.32 257.131 L1904.32 251.737 Z" fill="#000000" fill-rule="nonzero" fill-opacity="1"></path><path clip-path="url(#clip140)" d="M1939.04 272.108 L1939.04 287.756 L1934.78 287.756 L1934.78 272.247 Q1934.78 268.566 1933.35 266.737 Q1931.91 264.909 1929.04 264.909 Q1925.59 264.909 1923.6 267.108 Q1921.61 269.307 1921.61 273.103 L1921.61 287.756 L1917.33 287.756 L1917.33 261.83 L1921.61 261.83 L1921.61 265.858 Q1923.14 263.52 1925.2 262.362 Q1927.28 261.205 1929.99 261.205 Q1934.46 261.205 1936.75 263.983 Q1939.04 266.737 1939.04 272.108 Z" fill="#000000" fill-rule="nonzero" fill-opacity="1"></path><path clip-path="url(#clip140)" d="M1959.32 274.723 Q1954.16 274.723 1952.17 275.904 Q1950.18 277.084 1950.18 279.932 Q1950.18 282.2 1951.66 283.543 Q1953.16 284.862 1955.73 284.862 Q1959.28 284.862 1961.4 282.362 Q1963.56 279.839 1963.56 275.672 L1963.56 274.723 L1959.32 274.723 M1967.82 272.964 L1967.82 287.756 L1963.56 287.756 L1963.56 283.821 Q1962.1 286.182 1959.92 287.316 Q1957.75 288.427 1954.6 288.427 Q1950.62 288.427 1948.26 286.205 Q1945.92 283.959 1945.92 280.209 Q1945.92 275.834 1948.84 273.612 Q1951.78 271.39 1957.59 271.39 L1963.56 271.39 L1963.56 270.973 Q1963.56 268.034 1961.61 266.436 Q1959.69 264.816 1956.2 264.816 Q1953.97 264.816 1951.87 265.348 Q1949.76 265.881 1947.82 266.946 L1947.82 263.01 Q1950.15 262.108 1952.35 261.668 Q1954.55 261.205 1956.64 261.205 Q1962.26 261.205 1965.04 264.122 Q1967.82 267.038 1967.82 272.964 Z" fill="#000000" fill-rule="nonzero" fill-opacity="1"></path><path clip-path="url(#clip140)" d="M1976.59 251.737 L1980.85 251.737 L1980.85 287.756 L1976.59 287.756 L1976.59 251.737 Z" fill="#000000" fill-rule="nonzero" fill-opacity="1"></path><path clip-path="url(#clip140)" d="M2016.57 257.802 L2010.22 275.001 L2022.93 275.001 L2016.57 257.802 M2013.93 253.196 L2019.23 253.196 L2032.4 287.756 L2027.54 287.756 L2024.39 278.89 L2008.81 278.89 L2005.66 287.756 L2000.73 287.756 L2013.93 253.196 Z" fill="#000000" fill-rule="nonzero" fill-opacity="1"></path><path clip-path="url(#clip140)" d="M2047.49 251.784 Q2044.39 257.108 2042.89 262.316 Q2041.38 267.524 2041.38 272.872 Q2041.38 278.219 2042.89 283.473 Q2044.41 288.705 2047.49 294.006 L2043.79 294.006 Q2040.32 288.566 2038.58 283.311 Q2036.87 278.057 2036.87 272.872 Q2036.87 267.71 2038.58 262.478 Q2040.29 257.247 2043.79 251.784 L2047.49 251.784 Z" fill="#000000" fill-rule="nonzero" fill-opacity="1"></path><path clip-path="url(#clip140)" d="M2064.02 288.427 Q2054.41 288.427 2054.41 274.677 Q2054.41 269.237 2058 261.83 L2062.58 261.83 Q2059.27 269.237 2059.27 274.793 Q2059.27 284.816 2064.41 284.816 Q2069.11 284.816 2069.11 272.362 L2073.05 272.362 Q2073.05 284.816 2077.75 284.816 Q2082.89 284.816 2082.89 274.793 Q2082.89 269.237 2079.58 261.83 L2084.16 261.83 Q2087.75 269.237 2087.75 274.677 Q2087.75 288.427 2078.14 288.427 Q2071.84 288.427 2071.08 281.506 Q2070.13 288.427 2064.02 288.427 Z" fill="#000000" fill-rule="nonzero" fill-opacity="1"></path><path clip-path="url(#clip140)" d="M2094.78 251.784 L2098.49 251.784 Q2101.96 257.247 2103.67 262.478 Q2105.41 267.71 2105.41 272.872 Q2105.41 278.057 2103.67 283.311 Q2101.96 288.566 2098.49 294.006 L2094.78 294.006 Q2097.86 288.705 2099.37 283.473 Q2100.89 278.219 2100.89 272.872 Q2100.89 267.524 2099.37 262.316 Q2097.86 257.108 2094.78 251.784 Z" fill="#000000" fill-rule="nonzero" fill-opacity="1"></path></svg>