<svg xmlns="http://www.w3.org/2000/svg" xmlns:xlink="http://www.w3.org/1999/xlink" width="600" height="400" viewBox="0 0 2400 1600">
<defs>
  <clipPath id="clip470">
    <rect x="0" y="0" width="2400" height="1600"></rect>
  </clipPath>
</defs>
<path clip-path="url(#clip470)" d="M0 1600 L2400 1600 L2400 8.88178e-14 L0 8.88178e-14  Z" fill="#ffffff" fill-rule="evenodd" fill-opacity="1"></path>
<defs>
  <clipPath id="clip471">
    <rect x="480" y="0" width="1681" height="1600"></rect>
  </clipPath>
</defs>
<path clip-path="url(#clip470)" d="M219.866 1423.18 L2352.76 1423.18 L2352.76 123.472 L219.866 123.472  Z" fill="#ffffff" fill-rule="evenodd" fill-opacity="1"></path>
<defs>
  <clipPath id="clip472">
    <rect x="219" y="123" width="2134" height="1301"></rect>
  </clipPath>
</defs>
<polyline clip-path="url(#clip472)" style="stroke:#000000; stroke-linecap:round; stroke-linejoin:round; stroke-width:2; stroke-opacity:0.1; fill:none" points="481.447,1423.18 481.447,123.472 "></polyline>
<polyline clip-path="url(#clip472)" style="stroke:#000000; stroke-linecap:round; stroke-linejoin:round; stroke-width:2; stroke-opacity:0.1; fill:none" points="883.879,1423.18 883.879,123.472 "></polyline>
<polyline clip-path="url(#clip472)" style="stroke:#000000; stroke-linecap:round; stroke-linejoin:round; stroke-width:2; stroke-opacity:0.1; fill:none" points="1286.31,1423.18 1286.31,123.472 "></polyline>
<polyline clip-path="url(#clip472)" style="stroke:#000000; stroke-linecap:round; stroke-linejoin:round; stroke-width:2; stroke-opacity:0.1; fill:none" points="1688.74,1423.18 1688.74,123.472 "></polyline>
<polyline clip-path="url(#clip472)" style="stroke:#000000; stroke-linecap:round; stroke-linejoin:round; stroke-width:2; stroke-opacity:0.1; fill:none" points="2091.18,1423.18 2091.18,123.472 "></polyline>
<polyline clip-path="url(#clip472)" style="stroke:#000000; stroke-linecap:round; stroke-linejoin:round; stroke-width:2; stroke-opacity:0.1; fill:none" points="219.866,1386.4 2352.76,1386.4 "></polyline>
<polyline clip-path="url(#clip472)" style="stroke:#000000; stroke-linecap:round; stroke-linejoin:round; stroke-width:2; stroke-opacity:0.1; fill:none" points="219.866,1192.94 2352.76,1192.94 "></polyline>
<polyline clip-path="url(#clip472)" style="stroke:#000000; stroke-linecap:round; stroke-linejoin:round; stroke-width:2; stroke-opacity:0.1; fill:none" points="219.866,999.481 2352.76,999.481 "></polyline>
<polyline clip-path="url(#clip472)" style="stroke:#000000; stroke-linecap:round; stroke-linejoin:round; stroke-width:2; stroke-opacity:0.1; fill:none" points="219.866,806.023 2352.76,806.023 "></polyline>
<polyline clip-path="url(#clip472)" style="stroke:#000000; stroke-linecap:round; stroke-linejoin:round; stroke-width:2; stroke-opacity:0.1; fill:none" points="219.866,612.566 2352.76,612.566 "></polyline>
<polyline clip-path="url(#clip472)" style="stroke:#000000; stroke-linecap:round; stroke-linejoin:round; stroke-width:2; stroke-opacity:0.1; fill:none" points="219.866,419.109 2352.76,419.109 "></polyline>
<polyline clip-path="url(#clip472)" style="stroke:#000000; stroke-linecap:round; stroke-linejoin:round; stroke-width:2; stroke-opacity:0.1; fill:none" points="219.866,225.651 2352.76,225.651 "></polyline>
<polyline clip-path="url(#clip470)" style="stroke:#000000; stroke-linecap:round; stroke-linejoin:round; stroke-width:4; stroke-opacity:1; fill:none" points="219.866,1423.18 2352.76,1423.18 "></polyline>
<polyline clip-path="url(#clip470)" style="stroke:#000000; stroke-linecap:round; stroke-linejoin:round; stroke-width:4; stroke-opacity:1; fill:none" points="481.447,1423.18 481.447,1404.28 "></polyline>
<polyline clip-path="url(#clip470)" style="stroke:#000000; stroke-linecap:round; stroke-linejoin:round; stroke-width:4; stroke-opacity:1; fill:none" points="883.879,1423.18 883.879,1404.28 "></polyline>
<polyline clip-path="url(#clip470)" style="stroke:#000000; stroke-linecap:round; stroke-linejoin:round; stroke-width:4; stroke-opacity:1; fill:none" points="1286.31,1423.18 1286.31,1404.28 "></polyline>
<polyline clip-path="url(#clip470)" style="stroke:#000000; stroke-linecap:round; stroke-linejoin:round; stroke-width:4; stroke-opacity:1; fill:none" points="1688.74,1423.18 1688.74,1404.28 "></polyline>
<polyline clip-path="url(#clip470)" style="stroke:#000000; stroke-linecap:round; stroke-linejoin:round; stroke-width:4; stroke-opacity:1; fill:none" points="2091.18,1423.18 2091.18,1404.28 "></polyline>
<path clip-path="url(#clip470)" d="M450.348 1468.75 L480.023 1468.75 L480.023 1472.69 L450.348 1472.69 L450.348 1468.75 Z" fill="#000000" fill-rule="nonzero" fill-opacity="1"></path><path clip-path="url(#clip470)" d="M502.963 1455.09 L491.158 1473.54 L502.963 1473.54 L502.963 1455.09 M501.736 1451.02 L507.616 1451.02 L507.616 1473.54 L512.546 1473.54 L512.546 1477.43 L507.616 1477.43 L507.616 1485.58 L502.963 1485.58 L502.963 1477.43 L487.361 1477.43 L487.361 1472.92 L501.736 1451.02 Z" fill="#000000" fill-rule="nonzero" fill-opacity="1"></path><path clip-path="url(#clip470)" d="M853.821 1468.75 L883.497 1468.75 L883.497 1472.69 L853.821 1472.69 L853.821 1468.75 Z" fill="#000000" fill-rule="nonzero" fill-opacity="1"></path><path clip-path="url(#clip470)" d="M897.617 1481.64 L913.937 1481.64 L913.937 1485.58 L891.992 1485.58 L891.992 1481.64 Q894.654 1478.89 899.238 1474.26 Q903.844 1469.61 905.025 1468.27 Q907.27 1465.74 908.15 1464.01 Q909.053 1462.25 909.053 1460.56 Q909.053 1457.8 907.108 1456.07 Q905.187 1454.33 902.085 1454.33 Q899.886 1454.33 897.432 1455.09 Q895.002 1455.86 892.224 1457.41 L892.224 1452.69 Q895.048 1451.55 897.502 1450.97 Q899.955 1450.39 901.992 1450.39 Q907.363 1450.39 910.557 1453.08 Q913.752 1455.77 913.752 1460.26 Q913.752 1462.39 912.941 1464.31 Q912.154 1466.2 910.048 1468.8 Q909.469 1469.47 906.367 1472.69 Q903.266 1475.88 897.617 1481.64 Z" fill="#000000" fill-rule="nonzero" fill-opacity="1"></path><path clip-path="url(#clip470)" d="M1286.31 1454.1 Q1282.7 1454.1 1280.87 1457.66 Q1279.07 1461.2 1279.07 1468.33 Q1279.07 1475.44 1280.87 1479.01 Q1282.7 1482.55 1286.31 1482.55 Q1289.95 1482.55 1291.75 1479.01 Q1293.58 1475.44 1293.58 1468.33 Q1293.58 1461.2 1291.75 1457.66 Q1289.95 1454.1 1286.31 1454.1 M1286.31 1450.39 Q1292.12 1450.39 1295.18 1455 Q1298.26 1459.58 1298.26 1468.33 Q1298.26 1477.06 1295.18 1481.67 Q1292.12 1486.25 1286.31 1486.25 Q1280.5 1486.25 1277.42 1481.67 Q1274.37 1477.06 1274.37 1468.33 Q1274.37 1459.58 1277.42 1455 Q1280.5 1450.39 1286.31 1450.39 Z" fill="#000000" fill-rule="nonzero" fill-opacity="1"></path><path clip-path="url(#clip470)" d="M1683.4 1481.64 L1699.72 1481.64 L1699.72 1485.58 L1677.77 1485.58 L1677.77 1481.64 Q1680.43 1478.89 1685.02 1474.26 Q1689.62 1469.61 1690.8 1468.27 Q1693.05 1465.74 1693.93 1464.01 Q1694.83 1462.25 1694.83 1460.56 Q1694.83 1457.8 1692.89 1456.07 Q1690.97 1454.33 1687.86 1454.33 Q1685.66 1454.33 1683.21 1455.09 Q1680.78 1455.86 1678 1457.41 L1678 1452.69 Q1680.83 1451.55 1683.28 1450.97 Q1685.73 1450.39 1687.77 1450.39 Q1693.14 1450.39 1696.34 1453.08 Q1699.53 1455.77 1699.53 1460.26 Q1699.53 1462.39 1698.72 1464.31 Q1697.93 1466.2 1695.83 1468.8 Q1695.25 1469.47 1692.15 1472.69 Q1689.04 1475.88 1683.4 1481.64 Z" fill="#000000" fill-rule="nonzero" fill-opacity="1"></path><path clip-path="url(#clip470)" d="M2094.18 1455.09 L2082.38 1473.54 L2094.18 1473.54 L2094.18 1455.09 M2092.96 1451.02 L2098.84 1451.02 L2098.84 1473.54 L2103.77 1473.54 L2103.77 1477.43 L2098.84 1477.43 L2098.84 1485.58 L2094.18 1485.58 L2094.18 1477.43 L2078.58 1477.43 L2078.58 1472.92 L2092.96 1451.02 Z" fill="#000000" fill-rule="nonzero" fill-opacity="1"></path><path clip-path="url(#clip470)" d="M1276.6 1568.97 Q1263.39 1568.97 1263.39 1550.06 Q1263.39 1542.58 1268.33 1532.4 L1274.63 1532.4 Q1270.08 1542.58 1270.08 1550.22 Q1270.08 1564 1277.14 1564 Q1283.61 1564 1283.61 1546.88 L1289.02 1546.88 Q1289.02 1564 1295.48 1564 Q1302.54 1564 1302.54 1550.22 Q1302.54 1542.58 1297.99 1532.4 L1304.29 1532.4 Q1309.23 1542.58 1309.23 1550.06 Q1309.23 1568.97 1296.02 1568.97 Q1287.36 1568.97 1286.31 1559.45 Q1285.01 1568.97 1276.6 1568.97 Z" fill="#000000" fill-rule="nonzero" fill-opacity="1"></path><polyline clip-path="url(#clip470)" style="stroke:#000000; stroke-linecap:round; stroke-linejoin:round; stroke-width:4; stroke-opacity:1; fill:none" points="219.866,1423.18 219.866,123.472 "></polyline>
<polyline clip-path="url(#clip470)" style="stroke:#000000; stroke-linecap:round; stroke-linejoin:round; stroke-width:4; stroke-opacity:1; fill:none" points="219.866,1386.4 238.764,1386.4 "></polyline>
<polyline clip-path="url(#clip470)" style="stroke:#000000; stroke-linecap:round; stroke-linejoin:round; stroke-width:4; stroke-opacity:1; fill:none" points="219.866,1192.94 238.764,1192.94 "></polyline>
<polyline clip-path="url(#clip470)" style="stroke:#000000; stroke-linecap:round; stroke-linejoin:round; stroke-width:4; stroke-opacity:1; fill:none" points="219.866,999.481 238.764,999.481 "></polyline>
<polyline clip-path="url(#clip470)" style="stroke:#000000; stroke-linecap:round; stroke-linejoin:round; stroke-width:4; stroke-opacity:1; fill:none" points="219.866,806.023 238.764,806.023 "></polyline>
<polyline clip-path="url(#clip470)" style="stroke:#000000; stroke-linecap:round; stroke-linejoin:round; stroke-width:4; stroke-opacity:1; fill:none" points="219.866,612.566 238.764,612.566 "></polyline>
<polyline clip-path="url(#clip470)" style="stroke:#000000; stroke-linecap:round; stroke-linejoin:round; stroke-width:4; stroke-opacity:1; fill:none" points="219.866,419.109 238.764,419.109 "></polyline>
<polyline clip-path="url(#clip470)" style="stroke:#000000; stroke-linecap:round; stroke-linejoin:round; stroke-width:4; stroke-opacity:1; fill:none" points="219.866,225.651 238.764,225.651 "></polyline>
<path clip-path="url(#clip470)" d="M126.691 1372.19 Q123.08 1372.19 121.251 1375.76 Q119.445 1379.3 119.445 1386.43 Q119.445 1393.54 121.251 1397.1 Q123.08 1400.64 126.691 1400.64 Q130.325 1400.64 132.13 1397.1 Q133.959 1393.54 133.959 1386.43 Q133.959 1379.3 132.13 1375.76 Q130.325 1372.19 126.691 1372.19 M126.691 1368.49 Q132.501 1368.49 135.556 1373.1 Q138.635 1377.68 138.635 1386.43 Q138.635 1395.16 135.556 1399.76 Q132.501 1404.35 126.691 1404.35 Q120.88 1404.35 117.802 1399.76 Q114.746 1395.16 114.746 1386.43 Q114.746 1377.68 117.802 1373.1 Q120.88 1368.49 126.691 1368.49 Z" fill="#000000" fill-rule="nonzero" fill-opacity="1"></path><path clip-path="url(#clip470)" d="M146.853 1397.8 L151.737 1397.8 L151.737 1403.68 L146.853 1403.68 L146.853 1397.8 Z" fill="#000000" fill-rule="nonzero" fill-opacity="1"></path><path clip-path="url(#clip470)" d="M171.922 1372.19 Q168.311 1372.19 166.482 1375.76 Q164.677 1379.3 164.677 1386.43 Q164.677 1393.54 166.482 1397.1 Q168.311 1400.64 171.922 1400.64 Q175.556 1400.64 177.362 1397.1 Q179.19 1393.54 179.19 1386.43 Q179.19 1379.3 177.362 1375.76 Q175.556 1372.19 171.922 1372.19 M171.922 1368.49 Q177.732 1368.49 180.788 1373.1 Q183.866 1377.68 183.866 1386.43 Q183.866 1395.16 180.788 1399.76 Q177.732 1404.35 171.922 1404.35 Q166.112 1404.35 163.033 1399.76 Q159.978 1395.16 159.978 1386.43 Q159.978 1377.68 163.033 1373.1 Q166.112 1368.49 171.922 1368.49 Z" fill="#000000" fill-rule="nonzero" fill-opacity="1"></path><path clip-path="url(#clip470)" d="M128.288 1178.74 Q124.677 1178.74 122.848 1182.3 Q121.043 1185.84 121.043 1192.97 Q121.043 1200.08 122.848 1203.64 Q124.677 1207.19 128.288 1207.19 Q131.922 1207.19 133.728 1203.64 Q135.556 1200.08 135.556 1192.97 Q135.556 1185.84 133.728 1182.3 Q131.922 1178.74 128.288 1178.74 M128.288 1175.03 Q134.098 1175.03 137.154 1179.64 Q140.232 1184.22 140.232 1192.97 Q140.232 1201.7 137.154 1206.31 Q134.098 1210.89 128.288 1210.89 Q122.478 1210.89 119.399 1206.31 Q116.343 1201.7 116.343 1192.97 Q116.343 1184.22 119.399 1179.64 Q122.478 1175.03 128.288 1175.03 Z" fill="#000000" fill-rule="nonzero" fill-opacity="1"></path><path clip-path="url(#clip470)" d="M148.45 1204.34 L153.334 1204.34 L153.334 1210.22 L148.45 1210.22 L148.45 1204.34 Z" fill="#000000" fill-rule="nonzero" fill-opacity="1"></path><path clip-path="url(#clip470)" d="M167.547 1206.28 L183.866 1206.28 L183.866 1210.22 L161.922 1210.22 L161.922 1206.28 Q164.584 1203.53 169.167 1198.9 Q173.774 1194.25 174.954 1192.9 Q177.2 1190.38 178.079 1188.64 Q178.982 1186.89 178.982 1185.2 Q178.982 1182.44 177.038 1180.7 Q175.116 1178.97 172.014 1178.97 Q169.815 1178.97 167.362 1179.73 Q164.931 1180.5 162.153 1182.05 L162.153 1177.32 Q164.977 1176.19 167.431 1175.61 Q169.885 1175.03 171.922 1175.03 Q177.292 1175.03 180.487 1177.72 Q183.681 1180.4 183.681 1184.89 Q183.681 1187.02 182.871 1188.95 Q182.084 1190.84 179.977 1193.44 Q179.399 1194.11 176.297 1197.32 Q173.195 1200.52 167.547 1206.28 Z" fill="#000000" fill-rule="nonzero" fill-opacity="1"></path><path clip-path="url(#clip470)" d="M126.205 985.28 Q122.593 985.28 120.765 988.844 Q118.959 992.386 118.959 999.516 Q118.959 1006.62 120.765 1010.19 Q122.593 1013.73 126.205 1013.73 Q129.839 1013.73 131.644 1010.19 Q133.473 1006.62 133.473 999.516 Q133.473 992.386 131.644 988.844 Q129.839 985.28 126.205 985.28 M126.205 981.576 Q132.015 981.576 135.07 986.182 Q138.149 990.766 138.149 999.516 Q138.149 1008.24 135.07 1012.85 Q132.015 1017.43 126.205 1017.43 Q120.394 1017.43 117.316 1012.85 Q114.26 1008.24 114.26 999.516 Q114.26 990.766 117.316 986.182 Q120.394 981.576 126.205 981.576 Z" fill="#000000" fill-rule="nonzero" fill-opacity="1"></path><path clip-path="url(#clip470)" d="M146.366 1010.88 L151.251 1010.88 L151.251 1016.76 L146.366 1016.76 L146.366 1010.88 Z" fill="#000000" fill-rule="nonzero" fill-opacity="1"></path><path clip-path="url(#clip470)" d="M174.283 986.275 L162.477 1004.72 L174.283 1004.72 L174.283 986.275 M173.056 982.201 L178.936 982.201 L178.936 1004.72 L183.866 1004.72 L183.866 1008.61 L178.936 1008.61 L178.936 1016.76 L174.283 1016.76 L174.283 1008.61 L158.681 1008.61 L158.681 1004.1 L173.056 982.201 Z" fill="#000000" fill-rule="nonzero" fill-opacity="1"></path><path clip-path="url(#clip470)" d="M126.529 791.822 Q122.918 791.822 121.089 795.387 Q119.283 798.929 119.283 806.058 Q119.283 813.165 121.089 816.729 Q122.918 820.271 126.529 820.271 Q130.163 820.271 131.968 816.729 Q133.797 813.165 133.797 806.058 Q133.797 798.929 131.968 795.387 Q130.163 791.822 126.529 791.822 M126.529 788.118 Q132.339 788.118 135.394 792.725 Q138.473 797.308 138.473 806.058 Q138.473 814.785 135.394 819.391 Q132.339 823.975 126.529 823.975 Q120.718 823.975 117.64 819.391 Q114.584 814.785 114.584 806.058 Q114.584 797.308 117.64 792.725 Q120.718 788.118 126.529 788.118 Z" fill="#000000" fill-rule="nonzero" fill-opacity="1"></path><path clip-path="url(#clip470)" d="M146.691 817.424 L151.575 817.424 L151.575 823.303 L146.691 823.303 L146.691 817.424 Z" fill="#000000" fill-rule="nonzero" fill-opacity="1"></path><path clip-path="url(#clip470)" d="M172.339 804.16 Q169.19 804.16 167.339 806.313 Q165.51 808.466 165.51 812.216 Q165.51 815.942 167.339 818.118 Q169.19 820.271 172.339 820.271 Q175.487 820.271 177.315 818.118 Q179.167 815.942 179.167 812.216 Q179.167 808.466 177.315 806.313 Q175.487 804.16 172.339 804.16 M181.621 789.507 L181.621 793.767 Q179.862 792.933 178.056 792.493 Q176.274 792.054 174.514 792.054 Q169.885 792.054 167.431 795.179 Q165.001 798.304 164.653 804.623 Q166.019 802.609 168.079 801.544 Q170.139 800.456 172.616 800.456 Q177.825 800.456 180.834 803.628 Q183.866 806.776 183.866 812.216 Q183.866 817.54 180.718 820.757 Q177.57 823.975 172.339 823.975 Q166.343 823.975 163.172 819.391 Q160.001 814.785 160.001 806.058 Q160.001 797.864 163.89 793.003 Q167.778 788.118 174.329 788.118 Q176.089 788.118 177.871 788.466 Q179.676 788.813 181.621 789.507 Z" fill="#000000" fill-rule="nonzero" fill-opacity="1"></path><path clip-path="url(#clip470)" d="M126.783 598.365 Q123.172 598.365 121.343 601.93 Q119.538 605.471 119.538 612.601 Q119.538 619.707 121.343 623.272 Q123.172 626.814 126.783 626.814 Q130.417 626.814 132.223 623.272 Q134.052 619.707 134.052 612.601 Q134.052 605.471 132.223 601.93 Q130.417 598.365 126.783 598.365 M126.783 594.661 Q132.593 594.661 135.649 599.268 Q138.728 603.851 138.728 612.601 Q138.728 621.328 135.649 625.934 Q132.593 630.517 126.783 630.517 Q120.973 630.517 117.894 625.934 Q114.839 621.328 114.839 612.601 Q114.839 603.851 117.894 599.268 Q120.973 594.661 126.783 594.661 Z" fill="#000000" fill-rule="nonzero" fill-opacity="1"></path><path clip-path="url(#clip470)" d="M146.945 623.966 L151.829 623.966 L151.829 629.846 L146.945 629.846 L146.945 623.966 Z" fill="#000000" fill-rule="nonzero" fill-opacity="1"></path><path clip-path="url(#clip470)" d="M172.014 613.434 Q168.681 613.434 166.76 615.216 Q164.862 616.999 164.862 620.124 Q164.862 623.249 166.76 625.031 Q168.681 626.814 172.014 626.814 Q175.348 626.814 177.269 625.031 Q179.19 623.226 179.19 620.124 Q179.19 616.999 177.269 615.216 Q175.371 613.434 172.014 613.434 M167.339 611.443 Q164.329 610.703 162.64 608.642 Q160.973 606.582 160.973 603.619 Q160.973 599.476 163.913 597.068 Q166.876 594.661 172.014 594.661 Q177.176 594.661 180.116 597.068 Q183.056 599.476 183.056 603.619 Q183.056 606.582 181.366 608.642 Q179.7 610.703 176.714 611.443 Q180.093 612.23 181.968 614.522 Q183.866 616.814 183.866 620.124 Q183.866 625.147 180.788 627.832 Q177.732 630.517 172.014 630.517 Q166.297 630.517 163.218 627.832 Q160.163 625.147 160.163 620.124 Q160.163 616.814 162.061 614.522 Q163.959 612.23 167.339 611.443 M165.626 604.059 Q165.626 606.744 167.292 608.249 Q168.982 609.754 172.014 609.754 Q175.024 609.754 176.714 608.249 Q178.426 606.744 178.426 604.059 Q178.426 601.374 176.714 599.869 Q175.024 598.365 172.014 598.365 Q168.982 598.365 167.292 599.869 Q165.626 601.374 165.626 604.059 Z" fill="#000000" fill-rule="nonzero" fill-opacity="1"></path><path clip-path="url(#clip470)" d="M117.501 432.453 L125.14 432.453 L125.14 406.088 L116.83 407.755 L116.83 403.495 L125.093 401.829 L129.769 401.829 L129.769 432.453 L137.408 432.453 L137.408 436.389 L117.501 436.389 L117.501 432.453 Z" fill="#000000" fill-rule="nonzero" fill-opacity="1"></path><path clip-path="url(#clip470)" d="M146.853 430.509 L151.737 430.509 L151.737 436.389 L146.853 436.389 L146.853 430.509 Z" fill="#000000" fill-rule="nonzero" fill-opacity="1"></path><path clip-path="url(#clip470)" d="M171.922 404.907 Q168.311 404.907 166.482 408.472 Q164.677 412.014 164.677 419.143 Q164.677 426.25 166.482 429.815 Q168.311 433.356 171.922 433.356 Q175.556 433.356 177.362 429.815 Q179.19 426.25 179.19 419.143 Q179.19 412.014 177.362 408.472 Q175.556 404.907 171.922 404.907 M171.922 401.204 Q177.732 401.204 180.788 405.81 Q183.866 410.393 183.866 419.143 Q183.866 427.87 180.788 432.477 Q177.732 437.06 171.922 437.06 Q166.112 437.06 163.033 432.477 Q159.978 427.87 159.978 419.143 Q159.978 410.393 163.033 405.81 Q166.112 401.204 171.922 401.204 Z" fill="#000000" fill-rule="nonzero" fill-opacity="1"></path><path clip-path="url(#clip470)" d="M119.098 238.996 L126.737 238.996 L126.737 212.63 L118.427 214.297 L118.427 210.038 L126.691 208.371 L131.367 208.371 L131.367 238.996 L139.005 238.996 L139.005 242.931 L119.098 242.931 L119.098 238.996 Z" fill="#000000" fill-rule="nonzero" fill-opacity="1"></path><path clip-path="url(#clip470)" d="M148.45 237.052 L153.334 237.052 L153.334 242.931 L148.45 242.931 L148.45 237.052 Z" fill="#000000" fill-rule="nonzero" fill-opacity="1"></path><path clip-path="url(#clip470)" d="M167.547 238.996 L183.866 238.996 L183.866 242.931 L161.922 242.931 L161.922 238.996 Q164.584 236.241 169.167 231.612 Q173.774 226.959 174.954 225.617 Q177.2 223.093 178.079 221.357 Q178.982 219.598 178.982 217.908 Q178.982 215.154 177.038 213.418 Q175.116 211.681 172.014 211.681 Q169.815 211.681 167.362 212.445 Q164.931 213.209 162.153 214.76 L162.153 210.038 Q164.977 208.904 167.431 208.325 Q169.885 207.746 171.922 207.746 Q177.292 207.746 180.487 210.431 Q183.681 213.117 183.681 217.607 Q183.681 219.737 182.871 221.658 Q182.084 223.556 179.977 226.149 Q179.399 226.82 176.297 230.038 Q173.195 233.232 167.547 238.996 Z" fill="#000000" fill-rule="nonzero" fill-opacity="1"></path><path clip-path="url(#clip470)" d="M22.818 823.52 L46.4666 832.241 L46.4666 814.767 L22.818 823.52 M16.4842 827.148 L16.4842 819.859 L64.0042 801.749 L64.0042 808.433 L51.8138 812.762 L51.8138 834.182 L64.0042 838.511 L64.0042 845.29 L16.4842 827.148 Z" fill="#000000" fill-rule="nonzero" fill-opacity="1"></path><path clip-path="url(#clip470)" d="M14.5426 780.997 Q21.8632 785.262 29.0246 787.331 Q36.186 789.399 43.5384 789.399 Q50.8908 789.399 58.1159 787.331 Q65.3091 785.23 72.5979 780.997 L72.5979 786.089 Q65.1182 790.864 57.8931 793.251 Q50.668 795.606 43.5384 795.606 Q36.4406 795.606 29.2474 793.251 Q22.0542 790.895 14.5426 786.089 L14.5426 780.997 Z" fill="#000000" fill-rule="nonzero" fill-opacity="1"></path><path clip-path="url(#clip470)" d="M64.9272 758.271 Q64.9272 771.48 46.021 771.48 Q38.5413 771.48 28.3562 766.547 L28.3562 760.244 Q38.5413 764.796 46.1802 764.796 Q59.9619 764.796 59.9619 757.73 Q59.9619 751.269 42.8382 751.269 L42.8382 745.858 Q59.9619 745.858 59.9619 739.397 Q59.9619 732.331 46.1802 732.331 Q38.5413 732.331 28.3562 736.882 L28.3562 730.58 Q38.5413 725.647 46.021 725.647 Q64.9272 725.647 64.9272 738.856 Q64.9272 747.513 55.4105 748.563 Q64.9272 749.868 64.9272 758.271 Z" fill="#000000" fill-rule="nonzero" fill-opacity="1"></path><path clip-path="url(#clip470)" d="M14.5426 715.971 L14.5426 710.878 Q22.0542 706.104 29.2474 703.749 Q36.4406 701.362 43.5384 701.362 Q50.668 701.362 57.8931 703.749 Q65.1182 706.104 72.5979 710.878 L72.5979 715.971 Q65.3091 711.738 58.1159 709.669 Q50.8908 707.568 43.5384 707.568 Q36.186 707.568 29.0246 709.669 Q21.8632 711.738 14.5426 715.971 Z" fill="#000000" fill-rule="nonzero" fill-opacity="1"></path><path clip-path="url(#clip470)" d="M907.39 14.0809 L907.39 22.0612 Q902.731 19.8332 898.599 18.7395 Q894.467 17.6457 890.619 17.6457 Q883.935 17.6457 880.289 20.2383 Q876.684 22.8309 876.684 27.611 Q876.684 31.6214 879.074 33.6873 Q881.504 35.7128 888.229 36.9686 L893.171 37.9813 Q902.326 39.7232 906.66 44.1387 Q911.035 48.5136 911.035 55.8863 Q911.035 64.6767 905.121 69.2137 Q899.247 73.7508 887.864 73.7508 Q883.57 73.7508 878.709 72.7785 Q873.889 71.8063 868.703 69.9024 L868.703 61.4765 Q873.686 64.2716 878.466 65.6895 Q883.246 67.1073 887.864 67.1073 Q894.872 67.1073 898.68 64.3527 Q902.488 61.598 902.488 56.4939 Q902.488 52.0379 899.733 49.5264 Q897.019 47.0148 890.781 45.759 L885.798 44.7868 Q876.643 42.9639 872.552 39.075 Q868.46 35.1862 868.46 28.2591 Q868.46 20.2383 874.091 15.6203 Q879.762 11.0023 889.687 11.0023 Q893.941 11.0023 898.356 11.7719 Q902.771 12.5416 907.39 14.0809 Z" fill="#000000" fill-rule="nonzero" fill-opacity="1"></path><path clip-path="url(#clip470)" d="M930.844 14.324 L930.844 27.2059 L946.197 27.2059 L946.197 32.9987 L930.844 32.9987 L930.844 57.6282 Q930.844 63.1779 932.343 64.7578 Q933.882 66.3376 938.541 66.3376 L946.197 66.3376 L946.197 72.576 L938.541 72.576 Q929.913 72.576 926.631 69.3758 Q923.35 66.1351 923.35 57.6282 L923.35 32.9987 L917.881 32.9987 L917.881 27.2059 L923.35 27.2059 L923.35 14.324 L930.844 14.324 Z" fill="#000000" fill-rule="nonzero" fill-opacity="1"></path><path clip-path="url(#clip470)" d="M973.581 32.4315 Q967.586 32.4315 964.102 37.1306 Q960.618 41.7891 960.618 49.9314 Q960.618 58.0738 964.062 62.7728 Q967.545 67.4314 973.581 67.4314 Q979.536 67.4314 983.02 62.7323 Q986.504 58.0333 986.504 49.9314 Q986.504 41.8701 983.02 37.1711 Q979.536 32.4315 973.581 32.4315 M973.581 26.1121 Q983.303 26.1121 988.853 32.4315 Q994.403 38.7509 994.403 49.9314 Q994.403 61.0714 988.853 67.4314 Q983.303 73.7508 973.581 73.7508 Q963.819 73.7508 958.269 67.4314 Q952.76 61.0714 952.76 49.9314 Q952.76 38.7509 958.269 32.4315 Q963.819 26.1121 973.581 26.1121 Z" fill="#000000" fill-rule="nonzero" fill-opacity="1"></path><path clip-path="url(#clip470)" d="M1039.41 28.9478 L1039.41 35.9153 Q1036.25 34.1734 1033.05 33.3227 Q1029.89 32.4315 1026.65 32.4315 Q1019.4 32.4315 1015.39 37.0496 Q1011.38 41.6271 1011.38 49.9314 Q1011.38 58.2358 1015.39 62.8538 Q1019.4 67.4314 1026.65 67.4314 Q1029.89 67.4314 1033.05 66.5807 Q1036.25 65.6895 1039.41 63.9476 L1039.41 70.8341 Q1036.29 72.2924 1032.93 73.0216 Q1029.61 73.7508 1025.84 73.7508 Q1015.59 73.7508 1009.55 67.3098 Q1003.52 60.8689 1003.52 49.9314 Q1003.52 38.832 1009.59 32.472 Q1015.71 26.1121 1026.32 26.1121 Q1029.77 26.1121 1033.05 26.8413 Q1036.33 27.5299 1039.41 28.9478 Z" fill="#000000" fill-rule="nonzero" fill-opacity="1"></path><path clip-path="url(#clip470)" d="M1090.09 45.1919 L1090.09 72.576 L1082.63 72.576 L1082.63 45.4349 Q1082.63 38.994 1080.12 35.7938 Q1077.61 32.5936 1072.59 32.5936 Q1066.55 32.5936 1063.07 36.4419 Q1059.58 40.2903 1059.58 46.9338 L1059.58 72.576 L1052.09 72.576 L1052.09 9.54393 L1059.58 9.54393 L1059.58 34.2544 Q1062.26 30.163 1065.86 28.1376 Q1069.51 26.1121 1074.25 26.1121 Q1082.06 26.1121 1086.07 30.9732 Q1090.09 35.7938 1090.09 45.1919 Z" fill="#000000" fill-rule="nonzero" fill-opacity="1"></path><path clip-path="url(#clip470)" d="M1129.82 17.6457 Q1120.91 17.6457 1115.65 24.2892 Q1110.42 30.9327 1110.42 42.3968 Q1110.42 53.8203 1115.65 60.4638 Q1120.91 67.1073 1129.82 67.1073 Q1138.74 67.1073 1143.92 60.4638 Q1149.15 53.8203 1149.15 42.3968 Q1149.15 30.9327 1143.92 24.2892 Q1138.74 17.6457 1129.82 17.6457 M1129.82 11.0023 Q1142.54 11.0023 1150.16 19.5497 Q1157.78 28.0566 1157.78 42.3968 Q1157.78 56.6965 1150.16 65.2439 Q1142.54 73.7508 1129.82 73.7508 Q1117.06 73.7508 1109.41 65.2439 Q1101.79 56.737 1101.79 42.3968 Q1101.79 28.0566 1109.41 19.5497 Q1117.06 11.0023 1129.82 11.0023 Z" fill="#000000" fill-rule="nonzero" fill-opacity="1"></path><path clip-path="url(#clip470)" d="M1170.58 12.096 L1182.77 12.096 L1198.2 53.2532 L1213.72 12.096 L1225.91 12.096 L1225.91 72.576 L1217.93 72.576 L1217.93 19.4686 L1202.34 60.9499 L1194.11 60.9499 L1178.52 19.4686 L1178.52 72.576 L1170.58 72.576 L1170.58 12.096 Z" fill="#000000" fill-rule="nonzero" fill-opacity="1"></path><path clip-path="url(#clip470)" d="M1243.74 62.2867 L1252.28 62.2867 L1252.28 69.2543 L1245.64 82.2172 L1240.41 82.2172 L1243.74 69.2543 L1243.74 62.2867 Z" fill="#000000" fill-rule="nonzero" fill-opacity="1"></path><path clip-path="url(#clip470)" d="M1324.43 34.0924 L1324.43 9.54393 L1331.88 9.54393 L1331.88 72.576 L1324.43 72.576 L1324.43 65.7705 Q1322.08 69.8214 1318.48 71.8063 Q1314.91 73.7508 1309.89 73.7508 Q1301.66 73.7508 1296.48 67.1883 Q1291.33 60.6258 1291.33 49.9314 Q1291.33 39.2371 1296.48 32.6746 Q1301.66 26.1121 1309.89 26.1121 Q1314.91 26.1121 1318.48 28.0971 Q1322.08 30.0415 1324.43 34.0924 M1299.03 49.9314 Q1299.03 58.1548 1302.39 62.8538 Q1305.8 67.5124 1311.71 67.5124 Q1317.62 67.5124 1321.03 62.8538 Q1324.43 58.1548 1324.43 49.9314 Q1324.43 41.7081 1321.03 37.0496 Q1317.62 32.3505 1311.71 32.3505 Q1305.8 32.3505 1302.39 37.0496 Q1299.03 41.7081 1299.03 49.9314 Z" fill="#000000" fill-rule="nonzero" fill-opacity="1"></path><path clip-path="url(#clip470)" d="M1386.04 48.0275 L1386.04 51.6733 L1351.77 51.6733 Q1352.26 59.3701 1356.39 63.421 Q1360.56 67.4314 1367.98 67.4314 Q1372.27 67.4314 1376.28 66.3781 Q1380.33 65.3249 1384.3 63.2184 L1384.3 70.267 Q1380.29 71.9684 1376.08 72.8596 Q1371.87 73.7508 1367.53 73.7508 Q1356.68 73.7508 1350.32 67.4314 Q1344 61.1119 1344 50.3365 Q1344 39.1965 1349.99 32.6746 Q1356.03 26.1121 1366.24 26.1121 Q1375.39 26.1121 1380.7 32.0264 Q1386.04 37.9003 1386.04 48.0275 M1378.59 45.84 Q1378.51 39.7232 1375.15 36.0774 Q1371.83 32.4315 1366.32 32.4315 Q1360.08 32.4315 1356.31 35.9558 Q1352.58 39.4801 1352.02 45.8805 L1378.59 45.84 Z" fill="#000000" fill-rule="nonzero" fill-opacity="1"></path><path clip-path="url(#clip470)" d="M1398.28 9.54393 L1405.73 9.54393 L1405.73 72.576 L1398.28 72.576 L1398.28 9.54393 Z" fill="#000000" fill-rule="nonzero" fill-opacity="1"></path><path clip-path="url(#clip470)" d="M1428.7 14.324 L1428.7 27.2059 L1444.05 27.2059 L1444.05 32.9987 L1428.7 32.9987 L1428.7 57.6282 Q1428.7 63.1779 1430.2 64.7578 Q1431.74 66.3376 1436.4 66.3376 L1444.05 66.3376 L1444.05 72.576 L1436.4 72.576 Q1427.77 72.576 1424.49 69.3758 Q1421.21 66.1351 1421.21 57.6282 L1421.21 32.9987 L1415.74 32.9987 L1415.74 27.2059 L1421.21 27.2059 L1421.21 14.324 L1428.7 14.324 Z" fill="#000000" fill-rule="nonzero" fill-opacity="1"></path><path clip-path="url(#clip470)" d="M1474.48 49.7694 Q1465.44 49.7694 1461.96 51.8354 Q1458.47 53.9013 1458.47 58.8839 Q1458.47 62.8538 1461.07 65.2034 Q1463.7 67.5124 1468.2 67.5124 Q1474.39 67.5124 1478.12 63.1374 Q1481.89 58.7219 1481.89 51.4303 L1481.89 49.7694 L1474.48 49.7694 M1489.34 46.6907 L1489.34 72.576 L1481.89 72.576 L1481.89 65.6895 Q1479.34 69.8214 1475.53 71.8063 Q1471.72 73.7508 1466.21 73.7508 Q1459.24 73.7508 1455.11 69.8619 Q1451.02 65.9325 1451.02 59.3701 Q1451.02 51.7138 1456.12 47.825 Q1461.27 43.9361 1471.44 43.9361 L1481.89 43.9361 L1481.89 43.2069 Q1481.89 38.0623 1478.49 35.2672 Q1475.12 32.4315 1469.01 32.4315 Q1465.12 32.4315 1461.43 33.3632 Q1457.75 34.295 1454.34 36.1584 L1454.34 29.2718 Q1458.43 27.692 1462.28 26.9223 Q1466.13 26.1121 1469.78 26.1121 Q1479.62 26.1121 1484.48 31.2163 Q1489.34 36.3204 1489.34 46.6907 Z" fill="#000000" fill-rule="nonzero" fill-opacity="1"></path><path clip-path="url(#clip470)" d="M1538.44 14.324 L1538.44 27.2059 L1553.79 27.2059 L1553.79 32.9987 L1538.44 32.9987 L1538.44 57.6282 Q1538.44 63.1779 1539.94 64.7578 Q1541.48 66.3376 1546.14 66.3376 L1553.79 66.3376 L1553.79 72.576 L1546.14 72.576 Q1537.51 72.576 1534.23 69.3758 Q1530.95 66.1351 1530.95 57.6282 L1530.95 32.9987 L1525.48 32.9987 L1525.48 27.2059 L1530.95 27.2059 L1530.95 14.324 L1538.44 14.324 Z" fill="#000000" fill-rule="nonzero" fill-opacity="1"></path><path clip-path="url(#clip470)" d="M1582.47 76.7889 Q1579.31 84.8907 1576.32 87.3618 Q1573.32 89.8329 1568.29 89.8329 L1562.34 89.8329 L1562.34 83.5945 L1566.71 83.5945 Q1569.79 83.5945 1571.49 82.1361 Q1573.2 80.6778 1575.26 75.2496 L1576.6 71.8468 L1558.25 27.2059 L1566.15 27.2059 L1580.33 62.6918 L1594.5 27.2059 L1602.4 27.2059 L1582.47 76.7889 Z" fill="#000000" fill-rule="nonzero" fill-opacity="1"></path><path clip-path="url(#clip470)" d="M1619.9 65.7705 L1619.9 89.8329 L1612.41 89.8329 L1612.41 27.2059 L1619.9 27.2059 L1619.9 34.0924 Q1622.25 30.0415 1625.82 28.0971 Q1629.42 26.1121 1634.41 26.1121 Q1642.67 26.1121 1647.81 32.6746 Q1653 39.2371 1653 49.9314 Q1653 60.6258 1647.81 67.1883 Q1642.67 73.7508 1634.41 73.7508 Q1629.42 73.7508 1625.82 71.8063 Q1622.25 69.8214 1619.9 65.7705 M1645.26 49.9314 Q1645.26 41.7081 1641.86 37.0496 Q1638.5 32.3505 1632.58 32.3505 Q1626.67 32.3505 1623.27 37.0496 Q1619.9 41.7081 1619.9 49.9314 Q1619.9 58.1548 1623.27 62.8538 Q1626.67 67.5124 1632.58 67.5124 Q1638.5 67.5124 1641.86 62.8538 Q1645.26 58.1548 1645.26 49.9314 Z" fill="#000000" fill-rule="nonzero" fill-opacity="1"></path><path clip-path="url(#clip470)" d="M1704.16 48.0275 L1704.16 51.6733 L1669.89 51.6733 Q1670.38 59.3701 1674.51 63.421 Q1678.68 67.4314 1686.09 67.4314 Q1690.39 67.4314 1694.4 66.3781 Q1698.45 65.3249 1702.42 63.2184 L1702.42 70.267 Q1698.41 71.9684 1694.2 72.8596 Q1689.98 73.7508 1685.65 73.7508 Q1674.79 73.7508 1668.43 67.4314 Q1662.11 61.1119 1662.11 50.3365 Q1662.11 39.1965 1668.11 32.6746 Q1674.14 26.1121 1684.35 26.1121 Q1693.51 26.1121 1698.81 32.0264 Q1704.16 37.9003 1704.16 48.0275 M1696.71 45.84 Q1696.63 39.7232 1693.26 36.0774 Q1689.94 32.4315 1684.43 32.4315 Q1678.2 32.4315 1674.43 35.9558 Q1670.7 39.4801 1670.13 45.8805 L1696.71 45.84 Z" fill="#000000" fill-rule="nonzero" fill-opacity="1"></path><polyline clip-path="url(#clip472)" style="stroke:#009af9; stroke-linecap:round; stroke-linejoin:round; stroke-width:4; stroke-opacity:1; fill:none" points="280.231,1386.4 328.323,1386.4 372.052,1386.4 411.987,1386.4 448.601,1386.4 482.294,1386.4 513.402,1386.4 542.213,1386.4 568.973,1386.4 593.894,1386.4 617.16,1386.4 638.93,1386.4 659.346,1386.4 678.531,1386.4 696.592,1386.4 713.627,1386.4 729.721,1386.4 744.95,1386.4 759.382,1386.4 773.079,1386.4 786.096,1386.4 798.483,1386.4 810.284,1386.4 821.541,1386.4 832.29,1386.4 842.566,1386.4 852.4,1386.4 861.818,1386.4 870.849,1386.4 879.515,1386.4 887.837,1386.4 895.838,1386.4 903.534,1386.4 910.943,1386.4 918.082,1386.4 924.964,1386.4 931.604,1386.4 938.015,1386.4 944.207,1386.4 950.193,1386.4 955.983,1386.4 961.586,1386.4 967.011,1386.4 972.267,1386.4 977.362,1386.4 982.303,1386.4 987.097,1386.4 991.751,1386.4 996.271,1386.4 1000.66,1386.4 1004.93,1386.4 1009.08,1386.4 1013.12,1386.4 1017.05,1386.4 1020.88,1386.4 1024.61,1386.4 1028.24,1386.4 1031.78,1386.4 1035.23,1386.4 1038.6,1386.4 1041.89,1386.4 1045.09,1386.4 1048.22,1386.4 1051.28,1386.4 1054.27,1386.4 1057.19,1386.4 1060.04,1386.4 1062.83,1386.4 1065.56,1386.4 1068.23,1386.4 1070.84,1386.4 1073.4,1386.4 1075.91,1386.4 1078.36,1386.4 1080.76,1386.4 1083.11,1386.4 1085.42,1386.4 1087.68,1386.4 1089.9,1386.4 1092.07,1386.4 1094.21,1386.4 1096.3,1386.4 1098.35,1386.4 1100.37,1386.4 1102.35,1386.4 1104.29,1386.4 1106.2,1386.4 1108.07,1386.4 1109.92,1386.4 1111.72,1386.4 1113.5,1386.4 1115.25,1386.4 1116.97,1386.4 1118.66,1386.4 1120.32,1386.4 1121.96,1386.4 1123.57,1386.4 1125.15,1386.4 1126.71,1386.4 1128.24,1386.4 1129.75,1386.4 1131.24,1386.4 1132.7,1386.4 1134.14,1386.4 1135.56,1386.4 1136.96,1386.4 1138.34,1386.4 1139.7,1386.4 1141.04,1386.4 1142.36,1386.4 1143.66,1386.4 1144.94,1386.4 1146.2,1386.4 1147.45,1386.4 1148.68,1386.4 1149.89,1386.4 1151.09,1386.4 1152.27,1386.4 1153.44,1386.4 1154.59,1386.4 1155.72,1386.4 1156.84,1386.4 1157.95,1386.4 1159.04,1386.4 1160.12,1386.4 1161.19,1386.4 1162.24,1386.4 1163.28,1386.4 1164.3,1386.4 1165.32,1386.4 1166.32,1386.4 1167.31,1386.4 1168.29,1386.4 1169.26,1386.4 1170.21,1386.4 1171.16,1386.4 1172.09,1386.4 1173.02,1386.4 1173.93,1386.4 1174.83,1386.4 1175.73,1386.4 1176.61,1386.4 1177.48,1386.4 1178.35,1386.4 1179.2,1386.4 1180.05,1386.4 1180.89,1386.4 1181.72,1386.4 1182.54,1386.4 1183.35,1386.4 1184.15,1386.4 1184.95,1386.4 1185.74,1386.4 1186.52,1386.4 1187.29,1386.4 1188.05,1386.4 1188.81,1386.4 1189.56,1386.4 1190.3,1386.4 1191.04,1386.4 1191.77,1386.4 1192.49,1386.4 1193.21,1386.4 1193.91,1386.4 1194.62,1386.4 1195.31,1386.4 1196,1386.4 1196.69,1386.4 1197.36,1386.4 1198.03,1386.4 1198.7,1386.4 1199.36,1386.4 1200.01,1386.4 1200.66,1386.4 1201.31,1386.4 1201.94,1386.4 1202.58,1386.4 1203.2,1386.4 1203.83,1386.4 1204.44,1386.4 1205.05,1386.4 1205.66,1386.4 1206.26,1386.4 1206.86,1386.4 1207.45,1386.4 1208.04,1386.4 1208.63,1386.4 1209.2,1386.4 1209.78,1386.4 1210.35,1386.4 1210.92,1386.4 1211.48,1386.4 1212.04,1386.4 1212.59,1386.4 1213.14,1386.4 1213.68,1386.4 1214.23,1386.4 1214.76,1386.4 1215.3,1386.4 1215.83,1386.4 1216.35,1386.4 1216.88,1386.4 1217.4,1386.4 1217.91,1386.4 1218.42,1386.4 1218.93,1386.4 1219.44,1386.4 1219.94,1386.4 1220.44,1386.4 1220.94,1386.4 1221.43,1386.4 1221.92,1386.4 1222.4,1386.4 1222.89,1386.4 1223.37,1386.4 1223.84,1386.4 1224.32,1386.4 1224.79,1386.4 1225.26,1386.4 1225.72,1386.4 1226.19,1386.4 1226.65,1386.4 1227.1,1386.4 1227.56,1386.4 1228.01,1386.4 1228.46,1386.4 1228.9,1386.4 1229.35,1386.4 1229.79,1386.4 1230.23,1386.4 1230.67,1386.4 1231.1,1386.4 1231.53,1386.4 1231.96,1386.4 1232.39,1386.4 1232.82,1386.4 1233.24,1386.4 1233.66,1386.4 1234.08,1386.4 1234.49,1386.4 1234.91,1386.4 1235.32,1386.4 1235.73,1386.4 1236.14,1386.4 1236.54,1386.4 1236.95,1386.4 1237.35,1386.4 1237.75,1386.4 1238.15,1386.4 1238.54,1386.4 1238.94,1386.4 1239.33,1386.4 1239.72,1386.4 1240.11,1386.4 1240.5,1386.4 1240.88,1386.4 1241.26,1386.4 1241.65,1386.4 1242.03,1386.4 1242.4,1386.4 1242.78,1386.4 1243.16,1386.4 1243.53,1386.4 1243.9,1386.4 1244.27,1386.4 1244.64,1386.4 1245.01,1386.4 1245.37,1386.4 1245.74,1386.4 1246.1,1386.4 1246.46,1386.4 1246.82,1386.4 1247.18,1386.4 1247.54,1386.4 1247.9,1386.4 1248.25,1386.4 1248.6,1386.4 1248.95,1386.4 1249.31,1386.4 1249.65,1386.4 1250,1386.4 1250.35,1386.4 1250.69,1386.4 1251.04,1386.4 1251.38,1386.4 1251.72,1386.4 1252.06,1386.4 1252.4,1386.4 1252.74,1386.4 1253.08,1386.4 1253.42,1386.4 1253.75,1386.4 1254.09,1386.4 1254.42,1386.4 1254.75,1386.4 1255.08,1386.4 1255.41,1386.4 1255.74,1386.4 1256.07,1386.4 1256.39,1386.4 1256.72,1386.4 1257.05,1386.4 1257.37,1386.4 1257.69,1386.4 1258.01,1386.4 1258.34,1386.4 1258.66,1386.4 1258.98,1386.4 1259.29,1386.4 1259.61,1386.4 1259.93,1386.4 1260.25,1386.4 1260.56,1386.4 1260.87,1386.4 1261.19,1386.4 1261.5,1386.4 1261.81,1386.4 1262.13,1386.4 1262.44,1386.4 1262.75,1386.4 1263.05,1386.4 1263.36,1386.4 1263.67,1386.4 1263.98,1386.4 1264.28,1386.4 1264.59,1386.4 1264.9,1386.4 1265.2,1386.4 1265.5,1386.4 1265.81,1386.4 1266.11,1386.4 1266.41,1386.4 1266.71,1386.4 1267.01,1386.4 1267.31,1386.4 1267.61,1386.4 1267.91,1386.4 1268.21,1386.4 1268.51,1386.4 1268.81,1386.4 1269.1,1386.4 1269.4,1386.4 1269.69,1386.4 1269.99,1386.4 1270.29,1386.4 1270.58,1386.4 1270.87,1386.4 1271.17,1386.4 1271.46,1386.4 1271.75,1386.4 1272.05,1386.4 1272.34,1386.4 1272.63,1386.4 1272.92,1386.4 1273.21,1386.4 1273.5,1386.4 1273.79,1386.4 1274.08,1386.4 1274.37,1386.4 1274.66,1386.4 1274.95,1386.4 1275.24,1386.4 1275.52,1386.4 1275.81,1386.4 1276.1,1386.4 1276.39,1386.4 1276.67,1386.4 1276.96,1386.4 1277.24,1386.4 1277.53,1386.4 1277.82,1386.4 1278.1,1386.4 1278.39,1386.4 1278.67,1386.4 1278.96,1386.4 1279.24,1386.4 1279.53,1386.4 1279.81,1386.4 1280.09,1386.4 1280.38,1386.4 1280.66,1386.4 1280.94,1386.4 1281.23,1386.4 1281.51,1386.4 1281.79,1386.4 1282.08,1386.4 1282.36,1386.4 1282.64,1386.4 1282.93,1386.4 1283.21,1386.4 1283.49,1386.4 1283.77,1386.4 1284.05,1386.4 1284.34,1386.4 1284.62,1386.4 1284.9,1386.4 1285.18,1386.4 1285.47,1386.4 1285.75,1386.4 1286.03,1386.4 1286.31,1386.4 1286.59,1386.4 1286.88,1386.4 1287.16,1386.4 1287.44,1386.4 1287.72,1386.4 1288,1386.4 1288.29,1386.4 1288.57,1386.4 1288.85,1386.4 1289.13,1386.4 1289.41,1386.4 1289.7,1386.4 1289.98,1386.4 1290.26,1386.4 1290.55,1386.4 1290.83,1386.4 1291.11,1386.4 1291.39,1386.4 1291.68,1386.4 1291.96,1386.4 1292.24,1386.4 1292.53,1386.4 1292.81,1386.4 1293.1,1386.4 1293.38,1386.4 1293.67,1386.4 1293.95,1386.4 1294.24,1386.4 1294.52,1386.4 1294.81,1386.4 1295.09,1386.4 1295.38,1386.4 1295.66,1386.4 1295.95,1386.4 1296.24,1386.4 1296.52,1386.4 1296.81,1386.4 1297.1,1386.4 1297.39,1386.4 1297.68,1386.4 1297.96,1386.4 1298.25,1386.4 1298.54,1386.4 1298.83,1386.4 1299.12,1386.4 1299.41,1386.4 1299.7,1386.4 1299.99,1386.4 1300.28,1386.4 1300.58,1386.4 1300.87,1386.4 1301.16,1386.4 1301.45,1386.4 1301.75,1386.4 1302.04,1386.4 1302.34,1386.4 1302.63,1386.4 1302.93,1386.4 1303.22,1386.4 1303.52,1386.4 1303.82,1386.4 1304.11,1386.4 1304.41,1386.4 1304.71,1386.4 1305.01,1386.4 1305.31,1386.4 1305.61,1386.4 1305.91,1386.4 1306.21,1386.4 1306.51,1386.4 1306.82,1386.4 1307.12,1386.4 1307.42,1386.4 1307.73,1386.4 1308.03,1386.4 1308.34,1386.4 1308.64,1386.4 1308.95,1386.4 1309.26,1386.4 1309.57,1386.4 1309.88,1386.4 1310.19,1386.4 1310.5,1386.4 1310.81,1386.4 1311.12,1386.4 1311.43,1386.4 1311.75,1386.4 1312.06,1386.4 1312.38,1386.4 1312.69,1386.4 1313.01,1386.4 1313.33,1386.4 1313.65,1386.4 1313.97,1386.4 1314.29,1386.4 1314.61,1386.4 1314.93,1386.4 1315.25,1386.4 1315.58,1386.4 1315.9,1386.4 1316.23,1386.4 1316.55,1386.4 1316.88,1386.4 1317.21,1386.4 1317.54,1386.4 1317.87,1386.4 1318.2,1386.4 1318.54,1386.4 1318.87,1386.4 1319.21,1386.4 1319.54,1386.4 1319.88,1386.4 1320.22,1386.4 1320.56,1386.4 1320.9,1386.4 1321.24,1386.4 1321.58,1386.4 1321.93,1386.4 1322.27,1386.4 1322.62,1386.4 1322.97,1386.4 1323.32,1386.4 1323.67,1386.4 1324.02,1386.4 1324.37,1386.4 1324.73,1386.4 1325.08,1386.4 1325.44,1386.4 1325.8,1386.4 1326.16,1386.4 1326.52,1386.4 1326.88,1386.4 1327.25,1386.4 1327.61,1386.4 1327.98,1386.4 1328.35,1386.4 1328.72,1386.4 1329.09,1386.4 1329.47,1386.4 1329.84,1386.4 1330.22,1386.4 1330.6,1386.4 1330.98,1386.4 1331.36,1386.4 1331.74,1386.4 1332.13,1386.4 1332.51,1386.4 1332.9,1386.4 1333.29,1386.4 1333.69,1386.4 1334.08,1386.4 1334.48,1386.4 1334.87,1386.4 1335.27,1386.4 1335.68,1386.4 1336.08,1386.4 1336.48,1386.4 1336.89,1386.4 1337.3,1386.4 1337.71,1386.4 1338.13,1386.4 1338.55,1386.4 1338.96,1386.4 1339.38,1386.4 1339.81,1386.4 1340.23,1386.4 1340.66,1386.4 1341.09,1386.4 1341.52,1386.4 1341.96,1386.4 1342.39,1386.4 1342.83,1386.4 1343.27,1386.4 1343.72,1386.4 1344.16,1386.4 1344.61,1386.4 1345.07,1386.4 1345.52,1386.4 1345.98,1386.4 1346.44,1386.39 1346.9,1386.39 1347.36,1386.39 1347.83,1386.39 1348.3,1386.39 1348.78,1386.39 1349.26,1386.39 1349.74,1386.39 1350.22,1386.39 1350.7,1386.39 1351.19,1386.39 1351.69,1386.39 1352.18,1386.39 1352.68,1386.39 1353.18,1386.39 1353.69,1386.39 1354.2,1386.39 1354.71,1386.39 1355.23,1386.39 1355.74,1386.39 1356.27,1386.39 1356.79,1386.39 1357.32,1386.39 1357.86,1386.39 1358.4,1386.39 1358.94,1386.39 1359.48,1386.39 1360.03,1386.39 1360.59,1386.39 1361.14,1386.39 1361.71,1386.39 1362.27,1386.39 1362.84,1386.39 1363.42,1386.39 1364,1386.39 1364.58,1386.39 1365.17,1386.39 1365.76,1386.39 1366.36,1386.39 1366.96,1386.39 1367.57,1386.39 1368.18,1386.39 1368.8,1386.39 1369.42,1386.39 1370.05,1386.39 1370.68,1386.39 1371.32,1386.39 1371.96,1386.39 1372.61,1386.39 1373.26,1386.39 1373.92,1386.39 1374.59,1386.39 1375.26,1386.39 1375.94,1386.39 1376.62,1386.39 1377.31,1386.39 1378.01,1386.39 1378.71,1386.39 1379.42,1386.39 1380.13,1386.39 1380.85,1386.39 1381.58,1386.39 1382.32,1386.39 1383.06,1386.39 1383.81,1386.38 1384.57,1386.38 1385.33,1386.38 1386.1,1386.38 1386.88,1386.38 1387.67,1386.38 1388.47,1386.38 1389.27,1386.38 1390.08,1386.38 1390.9,1386.38 1391.73,1386.38 1392.57,1386.38 1393.42,1386.37 1394.27,1386.37 1395.14,1386.36 1396.01,1386.35 1396.9,1386.35 1397.79,1386.35 1398.69,1386.35 1399.61,1386.35 1400.53,1386.33 1401.46,1386.33 1402.41,1386.33 1403.37,1386.33 1404.33,1386.33 1405.31,1386.33 1406.3,1386.32 1407.3,1386.31 1408.32,1386.31 1409.34,1386.31 1410.38,1386.3 1411.44,1386.3 1412.5,1386.3 1413.58,1386.28 1414.67,1386.28 1415.78,1386.24 1416.9,1386.24 1418.03,1386.23 1419.19,1386.22 1420.35,1386.22 1421.53,1386.21 1422.73,1386.23 1423.94,1386.23 1425.17,1386.21 1426.42,1386.2 1427.68,1386.19 1428.97,1386.09 1430.27,1386.06 1431.59,1386.04 1432.92,1386.04 1434.28,1386.03 1435.66,1386.01 1437.06,1385.96 1438.48,1385.89 1439.92,1385.94 1441.38,1385.9 1442.87,1385.81 1444.38,1385.78 1445.91,1385.72 1447.47,1385.65 1449.05,1385.61 1450.66,1385.53 1452.3,1385.44 1453.96,1385.28 1455.65,1385.01 1457.37,1384.84 1459.12,1384.72 1460.9,1384.41 1462.71,1383.99 1464.55,1383.76 1466.42,1383.2 1468.33,1382.61 1470.27,1382.13 1472.25,1381.74 1474.27,1381.43 1476.32,1380.77 1478.42,1380.34 1480.55,1379.47 1482.72,1378.75 1484.94,1377.82 1487.2,1376.66 1489.51,1376.58 1491.86,1373.65 1494.26,1370.62 1496.72,1369.6 1499.22,1366.18 1501.78,1362.51 1504.39,1359.21 1507.06,1350.84 1509.79,1345.99 1512.58,1335 1515.43,1321.48 1518.35,1303.47 1521.34,1285.79 1524.4,1259.02 1527.53,1203.25 1530.74,1139.79 1534.02,1060.77 1537.39,959.9 1540.84,833.32 1544.38,717.072 1548.01,603.421 1551.74,562.818 1555.57,411.044 1559.5,160.256 1563.54,202.591 1567.69,222.67 1571.96,178.726 1576.35,211.936 1580.87,247.775 1585.52,219.265 1590.32,195.627 1595.26,226.696 1600.36,271.192 1605.61,365.711 1611.04,365.796 1616.64,388.728 1622.43,420.758 1628.41,491.144 1634.61,488.749 1641.02,454.728 1647.66,489.437 1654.54,525.431 1661.68,490.708 1669.09,454.921 1676.78,499.079 1684.78,521.801 1693.11,572.445 1701.77,681.707 1710.8,651.689 1720.22,786.023 1730.06,918.395 1740.33,1061.76 1751.08,1176.65 1762.34,1248.91 1774.14,1278.66 1786.53,1326.55 1799.54,1344.19 1813.24,1355.1 1827.67,1364.79 1842.9,1371.28 1859,1375.27 1876.03,1379.23 1894.09,1381.53 1913.28,1383.42 1933.69,1384.11 1955.46,1384.83 1978.73,1385.53 2003.65,1385.84 2030.41,1386.1 2059.22,1386.27 2090.33,1386.31 2124.02,1386.35 2160.64,1386.36 2200.57,1386.39 2244.3,1386.39 2292.39,1386.4 "></polyline>
<circle clip-path="url(#clip472)" cx="1571.53" cy="1386.4" r="14.4" fill="#ff0000" fill-rule="evenodd" fill-opacity="1" stroke="#000000" stroke-opacity="1" stroke-width="3.2"></circle>
<circle clip-path="url(#clip472)" cx="1697.02" cy="1386.4" r="14.4" fill="#ff0000" fill-rule="evenodd" fill-opacity="1" stroke="#000000" stroke-opacity="1" stroke-width="3.2"></circle>
<path clip-path="url(#clip470)" d="M1623.1 322.316 L2281.66 322.316 L2281.66 166.796 L1623.1 166.796  Z" fill="#ffffff" fill-rule="evenodd" fill-opacity="1"></path>
<polyline clip-path="url(#clip470)" style="stroke:#000000; stroke-linecap:round; stroke-linejoin:round; stroke-width:4; stroke-opacity:1; fill:none" points="1623.1,322.316 2281.66,322.316 2281.66,166.796 1623.1,166.796 1623.1,322.316 "></polyline>
<polyline clip-path="url(#clip470)" style="stroke:#009af9; stroke-linecap:round; stroke-linejoin:round; stroke-width:4; stroke-opacity:1; fill:none" points="1646.79,218.636 1788.99,218.636 "></polyline>
<path clip-path="url(#clip470)" d="M1827.87 213.971 Q1827.15 213.555 1826.3 213.37 Q1825.46 213.161 1824.44 213.161 Q1820.83 213.161 1818.89 215.522 Q1816.97 217.86 1816.97 222.258 L1816.97 235.916 L1812.69 235.916 L1812.69 209.99 L1816.97 209.99 L1816.97 214.018 Q1818.31 211.657 1820.46 210.522 Q1822.62 209.365 1825.69 209.365 Q1826.13 209.365 1826.67 209.434 Q1827.2 209.481 1827.85 209.596 L1827.87 213.971 Z" fill="#000000" fill-rule="nonzero" fill-opacity="1"></path><path clip-path="url(#clip470)" d="M1853.47 221.888 L1853.47 223.971 L1833.89 223.971 Q1834.17 228.369 1836.53 230.684 Q1838.91 232.976 1843.15 232.976 Q1845.6 232.976 1847.89 232.374 Q1850.21 231.772 1852.48 230.569 L1852.48 234.596 Q1850.19 235.568 1847.78 236.078 Q1845.37 236.587 1842.89 236.587 Q1836.69 236.587 1833.06 232.976 Q1829.44 229.365 1829.44 223.207 Q1829.44 216.842 1832.87 213.115 Q1836.32 209.365 1842.15 209.365 Q1847.38 209.365 1850.42 212.745 Q1853.47 216.101 1853.47 221.888 M1849.21 220.638 Q1849.17 217.143 1847.25 215.059 Q1845.35 212.976 1842.2 212.976 Q1838.63 212.976 1836.48 214.99 Q1834.35 217.004 1834.03 220.661 L1849.21 220.638 Z" fill="#000000" fill-rule="nonzero" fill-opacity="1"></path><path clip-path="url(#clip470)" d="M1879.12 210.985 L1879.12 214.967 Q1877.31 213.971 1875.49 213.485 Q1873.68 212.976 1871.83 212.976 Q1867.69 212.976 1865.39 215.615 Q1863.1 218.231 1863.1 222.976 Q1863.1 227.721 1865.39 230.36 Q1867.69 232.976 1871.83 232.976 Q1873.68 232.976 1875.49 232.49 Q1877.31 231.981 1879.12 230.985 L1879.12 234.92 Q1877.34 235.754 1875.42 236.17 Q1873.52 236.587 1871.37 236.587 Q1865.51 236.587 1862.06 232.906 Q1858.61 229.226 1858.61 222.976 Q1858.61 216.633 1862.08 212.999 Q1865.58 209.365 1871.64 209.365 Q1873.61 209.365 1875.49 209.782 Q1877.36 210.175 1879.12 210.985 Z" fill="#000000" fill-rule="nonzero" fill-opacity="1"></path><path clip-path="url(#clip470)" d="M1896.57 212.976 Q1893.15 212.976 1891.16 215.661 Q1889.17 218.323 1889.17 222.976 Q1889.17 227.629 1891.13 230.314 Q1893.12 232.976 1896.57 232.976 Q1899.98 232.976 1901.97 230.291 Q1903.96 227.606 1903.96 222.976 Q1903.96 218.37 1901.97 215.684 Q1899.98 212.976 1896.57 212.976 M1896.57 209.365 Q1902.13 209.365 1905.3 212.976 Q1908.47 216.587 1908.47 222.976 Q1908.47 229.342 1905.3 232.976 Q1902.13 236.587 1896.57 236.587 Q1891 236.587 1887.82 232.976 Q1884.68 229.342 1884.68 222.976 Q1884.68 216.587 1887.82 212.976 Q1891 209.365 1896.57 209.365 Z" fill="#000000" fill-rule="nonzero" fill-opacity="1"></path><path clip-path="url(#clip470)" d="M1937.08 220.268 L1937.08 235.916 L1932.82 235.916 L1932.82 220.407 Q1932.82 216.726 1931.39 214.897 Q1929.95 213.069 1927.08 213.069 Q1923.63 213.069 1921.64 215.268 Q1919.65 217.467 1919.65 221.263 L1919.65 235.916 L1915.37 235.916 L1915.37 209.99 L1919.65 209.99 L1919.65 214.018 Q1921.18 211.68 1923.24 210.522 Q1925.32 209.365 1928.03 209.365 Q1932.5 209.365 1934.79 212.143 Q1937.08 214.897 1937.08 220.268 Z" fill="#000000" fill-rule="nonzero" fill-opacity="1"></path><path clip-path="url(#clip470)" d="M1962.11 210.754 L1962.11 214.782 Q1960.3 213.856 1958.36 213.393 Q1956.41 212.93 1954.33 212.93 Q1951.16 212.93 1949.56 213.902 Q1947.99 214.874 1947.99 216.819 Q1947.99 218.3 1949.12 219.157 Q1950.25 219.99 1953.68 220.754 L1955.14 221.078 Q1959.68 222.05 1961.57 223.832 Q1963.49 225.592 1963.49 228.763 Q1963.49 232.374 1960.62 234.481 Q1957.78 236.587 1952.78 236.587 Q1950.69 236.587 1948.43 236.17 Q1946.18 235.777 1943.68 234.967 L1943.68 230.569 Q1946.04 231.795 1948.33 232.42 Q1950.62 233.022 1952.87 233.022 Q1955.88 233.022 1957.5 232.004 Q1959.12 230.962 1959.12 229.087 Q1959.12 227.351 1957.94 226.425 Q1956.78 225.499 1952.82 224.643 L1951.34 224.295 Q1947.38 223.462 1945.62 221.749 Q1943.87 220.013 1943.87 217.004 Q1943.87 213.346 1946.46 211.356 Q1949.05 209.365 1953.82 209.365 Q1956.18 209.365 1958.26 209.712 Q1960.35 210.059 1962.11 210.754 Z" fill="#000000" fill-rule="nonzero" fill-opacity="1"></path><path clip-path="url(#clip470)" d="M1974.49 202.629 L1974.49 209.99 L1983.26 209.99 L1983.26 213.3 L1974.49 213.3 L1974.49 227.374 Q1974.49 230.545 1975.35 231.448 Q1976.23 232.351 1978.89 232.351 L1983.26 232.351 L1983.26 235.916 L1978.89 235.916 Q1973.96 235.916 1972.08 234.087 Q1970.21 232.235 1970.21 227.374 L1970.21 213.3 L1967.08 213.3 L1967.08 209.99 L1970.21 209.99 L1970.21 202.629 L1974.49 202.629 Z" fill="#000000" fill-rule="nonzero" fill-opacity="1"></path><path clip-path="url(#clip470)" d="M2003.89 213.971 Q2003.17 213.555 2002.31 213.37 Q2001.48 213.161 2000.46 213.161 Q1996.85 213.161 1994.91 215.522 Q1992.99 217.86 1992.99 222.258 L1992.99 235.916 L1988.7 235.916 L1988.7 209.99 L1992.99 209.99 L1992.99 214.018 Q1994.33 211.657 1996.48 210.522 Q1998.63 209.365 2001.71 209.365 Q2002.15 209.365 2002.68 209.434 Q2003.22 209.481 2003.86 209.596 L2003.89 213.971 Z" fill="#000000" fill-rule="nonzero" fill-opacity="1"></path><path clip-path="url(#clip470)" d="M2007.92 225.684 L2007.92 209.99 L2012.18 209.99 L2012.18 225.522 Q2012.18 229.203 2013.61 231.055 Q2015.05 232.883 2017.92 232.883 Q2021.36 232.883 2023.36 230.684 Q2025.37 228.485 2025.37 224.689 L2025.37 209.99 L2029.63 209.99 L2029.63 235.916 L2025.37 235.916 L2025.37 231.934 Q2023.82 234.295 2021.76 235.453 Q2019.72 236.587 2017.01 236.587 Q2012.55 236.587 2010.23 233.809 Q2007.92 231.031 2007.92 225.684 M2018.63 209.365 L2018.63 209.365 Z" fill="#000000" fill-rule="nonzero" fill-opacity="1"></path><path clip-path="url(#clip470)" d="M2057.06 210.985 L2057.06 214.967 Q2055.25 213.971 2053.42 213.485 Q2051.62 212.976 2049.77 212.976 Q2045.62 212.976 2043.33 215.615 Q2041.04 218.231 2041.04 222.976 Q2041.04 227.721 2043.33 230.36 Q2045.62 232.976 2049.77 232.976 Q2051.62 232.976 2053.42 232.49 Q2055.25 231.981 2057.06 230.985 L2057.06 234.92 Q2055.28 235.754 2053.36 236.17 Q2051.46 236.587 2049.3 236.587 Q2043.45 236.587 2040 232.906 Q2036.55 229.226 2036.55 222.976 Q2036.55 216.633 2040.02 212.999 Q2043.52 209.365 2049.58 209.365 Q2051.55 209.365 2053.42 209.782 Q2055.3 210.175 2057.06 210.985 Z" fill="#000000" fill-rule="nonzero" fill-opacity="1"></path><path clip-path="url(#clip470)" d="M2068.68 202.629 L2068.68 209.99 L2077.45 209.99 L2077.45 213.3 L2068.68 213.3 L2068.68 227.374 Q2068.68 230.545 2069.54 231.448 Q2070.42 232.351 2073.08 232.351 L2077.45 232.351 L2077.45 235.916 L2073.08 235.916 Q2068.15 235.916 2066.27 234.087 Q2064.4 232.235 2064.4 227.374 L2064.4 213.3 L2061.27 213.3 L2061.27 209.99 L2064.4 209.99 L2064.4 202.629 L2068.68 202.629 Z" fill="#000000" fill-rule="nonzero" fill-opacity="1"></path><path clip-path="url(#clip470)" d="M2105.23 221.888 L2105.23 223.971 L2085.65 223.971 Q2085.92 228.369 2088.29 230.684 Q2090.67 232.976 2094.91 232.976 Q2097.36 232.976 2099.65 232.374 Q2101.97 231.772 2104.23 230.569 L2104.23 234.596 Q2101.94 235.568 2099.54 236.078 Q2097.13 236.587 2094.65 236.587 Q2088.45 236.587 2084.81 232.976 Q2081.2 229.365 2081.2 223.207 Q2081.2 216.842 2084.63 213.115 Q2088.08 209.365 2093.91 209.365 Q2099.14 209.365 2102.17 212.745 Q2105.23 216.101 2105.23 221.888 M2100.97 220.638 Q2100.92 217.143 2099 215.059 Q2097.11 212.976 2093.96 212.976 Q2090.39 212.976 2088.24 214.99 Q2086.11 217.004 2085.79 220.661 L2100.97 220.638 Z" fill="#000000" fill-rule="nonzero" fill-opacity="1"></path><path clip-path="url(#clip470)" d="M2129.28 213.925 L2129.28 199.897 L2133.54 199.897 L2133.54 235.916 L2129.28 235.916 L2129.28 232.027 Q2127.94 234.342 2125.88 235.476 Q2123.84 236.587 2120.97 236.587 Q2116.27 236.587 2113.31 232.837 Q2110.37 229.087 2110.37 222.976 Q2110.37 216.865 2113.31 213.115 Q2116.27 209.365 2120.97 209.365 Q2123.84 209.365 2125.88 210.499 Q2127.94 211.61 2129.28 213.925 M2114.77 222.976 Q2114.77 227.675 2116.69 230.36 Q2118.63 233.022 2122.01 233.022 Q2125.39 233.022 2127.34 230.36 Q2129.28 227.675 2129.28 222.976 Q2129.28 218.277 2127.34 215.615 Q2125.39 212.93 2122.01 212.93 Q2118.63 212.93 2116.69 215.615 Q2114.77 218.277 2114.77 222.976 Z" fill="#000000" fill-rule="nonzero" fill-opacity="1"></path><path clip-path="url(#clip470)" d="M2169.12 205.962 L2162.78 223.161 L2175.48 223.161 L2169.12 205.962 M2166.48 201.356 L2171.78 201.356 L2184.95 235.916 L2180.09 235.916 L2176.94 227.05 L2161.36 227.05 L2158.22 235.916 L2153.29 235.916 L2166.48 201.356 Z" fill="#000000" fill-rule="nonzero" fill-opacity="1"></path><path clip-path="url(#clip470)" d="M2200.04 199.944 Q2196.94 205.268 2195.44 210.476 Q2193.93 215.684 2193.93 221.032 Q2193.93 226.379 2195.44 231.633 Q2196.97 236.865 2200.04 242.166 L2196.34 242.166 Q2192.87 236.726 2191.13 231.471 Q2189.42 226.217 2189.42 221.032 Q2189.42 215.87 2191.13 210.638 Q2192.85 205.407 2196.34 199.944 L2200.04 199.944 Z" fill="#000000" fill-rule="nonzero" fill-opacity="1"></path><path clip-path="url(#clip470)" d="M2216.57 236.587 Q2206.97 236.587 2206.97 222.837 Q2206.97 217.397 2210.55 209.99 L2215.14 209.99 Q2211.83 217.397 2211.83 222.953 Q2211.83 232.976 2216.97 232.976 Q2221.66 232.976 2221.66 220.522 L2225.6 220.522 Q2225.6 232.976 2230.3 232.976 Q2235.44 232.976 2235.44 222.953 Q2235.44 217.397 2232.13 209.99 L2236.71 209.99 Q2240.3 217.397 2240.3 222.837 Q2240.3 236.587 2230.69 236.587 Q2224.4 236.587 2223.63 229.666 Q2222.68 236.587 2216.57 236.587 Z" fill="#000000" fill-rule="nonzero" fill-opacity="1"></path><path clip-path="url(#clip470)" d="M2247.34 199.944 L2251.04 199.944 Q2254.51 205.407 2256.22 210.638 Q2257.96 215.87 2257.96 221.032 Q2257.96 226.217 2256.22 231.471 Q2254.51 236.726 2251.04 242.166 L2247.34 242.166 Q2250.41 236.865 2251.92 231.633 Q2253.45 226.379 2253.45 221.032 Q2253.45 215.684 2251.92 210.476 Q2250.41 205.268 2247.34 199.944 Z" fill="#000000" fill-rule="nonzero" fill-opacity="1"></path><circle clip-path="url(#clip470)" cx="1717.89" cy="270.476" r="20.48" fill="#ff0000" fill-rule="evenodd" fill-opacity="1" stroke="#000000" stroke-opacity="1" stroke-width="4.55111"></circle>
<path clip-path="url(#clip470)" d="M1824.58 264.816 Q1821.16 264.816 1819.17 267.501 Q1817.18 270.163 1817.18 274.816 Q1817.18 279.469 1819.14 282.154 Q1821.13 284.816 1824.58 284.816 Q1827.99 284.816 1829.98 282.131 Q1831.97 279.446 1831.97 274.816 Q1831.97 270.21 1829.98 267.524 Q1827.99 264.816 1824.58 264.816 M1824.58 261.205 Q1830.14 261.205 1833.31 264.816 Q1836.48 268.427 1836.48 274.816 Q1836.48 281.182 1833.31 284.816 Q1830.14 288.427 1824.58 288.427 Q1819 288.427 1815.83 284.816 Q1812.69 281.182 1812.69 274.816 Q1812.69 268.427 1815.83 264.816 Q1819 261.205 1824.58 261.205 Z" fill="#000000" fill-rule="nonzero" fill-opacity="1"></path><path clip-path="url(#clip470)" d="M1858.56 265.811 Q1857.85 265.395 1856.99 265.21 Q1856.16 265.001 1855.14 265.001 Q1851.53 265.001 1849.58 267.362 Q1847.66 269.7 1847.66 274.098 L1847.66 287.756 L1843.38 287.756 L1843.38 261.83 L1847.66 261.83 L1847.66 265.858 Q1849 263.497 1851.16 262.362 Q1853.31 261.205 1856.39 261.205 Q1856.83 261.205 1857.36 261.274 Q1857.89 261.321 1858.54 261.436 L1858.56 265.811 Z" fill="#000000" fill-rule="nonzero" fill-opacity="1"></path><path clip-path="url(#clip470)" d="M1863.03 261.83 L1867.29 261.83 L1867.29 287.756 L1863.03 287.756 L1863.03 261.83 M1863.03 251.737 L1867.29 251.737 L1867.29 257.131 L1863.03 257.131 L1863.03 251.737 Z" fill="#000000" fill-rule="nonzero" fill-opacity="1"></path><path clip-path="url(#clip470)" d="M1893.26 274.492 Q1893.26 269.862 1891.34 267.316 Q1889.44 264.77 1886 264.77 Q1882.57 264.77 1880.65 267.316 Q1878.75 269.862 1878.75 274.492 Q1878.75 279.098 1880.65 281.645 Q1882.57 284.191 1886 284.191 Q1889.44 284.191 1891.34 281.645 Q1893.26 279.098 1893.26 274.492 M1897.52 284.538 Q1897.52 291.158 1894.58 294.376 Q1891.64 297.617 1885.58 297.617 Q1883.33 297.617 1881.34 297.27 Q1879.35 296.945 1877.48 296.251 L1877.48 292.108 Q1879.35 293.126 1881.18 293.612 Q1883.01 294.098 1884.91 294.098 Q1889.1 294.098 1891.18 291.899 Q1893.26 289.723 1893.26 285.302 L1893.26 283.196 Q1891.94 285.487 1889.88 286.621 Q1887.82 287.756 1884.95 287.756 Q1880.19 287.756 1877.27 284.121 Q1874.35 280.487 1874.35 274.492 Q1874.35 268.473 1877.27 264.839 Q1880.19 261.205 1884.95 261.205 Q1887.82 261.205 1889.88 262.339 Q1891.94 263.473 1893.26 265.765 L1893.26 261.83 L1897.52 261.83 L1897.52 284.538 Z" fill="#000000" fill-rule="nonzero" fill-opacity="1"></path><path clip-path="url(#clip470)" d="M1906.3 261.83 L1910.56 261.83 L1910.56 287.756 L1906.3 287.756 L1906.3 261.83 M1906.3 251.737 L1910.56 251.737 L1910.56 257.131 L1906.3 257.131 L1906.3 251.737 Z" fill="#000000" fill-rule="nonzero" fill-opacity="1"></path><path clip-path="url(#clip470)" d="M1941.02 272.108 L1941.02 287.756 L1936.76 287.756 L1936.76 272.247 Q1936.76 268.566 1935.32 266.737 Q1933.89 264.909 1931.02 264.909 Q1927.57 264.909 1925.58 267.108 Q1923.59 269.307 1923.59 273.103 L1923.59 287.756 L1919.31 287.756 L1919.31 261.83 L1923.59 261.83 L1923.59 265.858 Q1925.12 263.52 1927.18 262.362 Q1929.26 261.205 1931.97 261.205 Q1936.43 261.205 1938.73 263.983 Q1941.02 266.737 1941.02 272.108 Z" fill="#000000" fill-rule="nonzero" fill-opacity="1"></path><path clip-path="url(#clip470)" d="M1961.3 274.723 Q1956.13 274.723 1954.14 275.904 Q1952.15 277.084 1952.15 279.932 Q1952.15 282.2 1953.63 283.543 Q1955.14 284.862 1957.71 284.862 Q1961.25 284.862 1963.38 282.362 Q1965.53 279.839 1965.53 275.672 L1965.53 274.723 L1961.3 274.723 M1969.79 272.964 L1969.79 287.756 L1965.53 287.756 L1965.53 283.821 Q1964.07 286.182 1961.9 287.316 Q1959.72 288.427 1956.57 288.427 Q1952.59 288.427 1950.23 286.205 Q1947.89 283.959 1947.89 280.209 Q1947.89 275.834 1950.81 273.612 Q1953.75 271.39 1959.56 271.39 L1965.53 271.39 L1965.53 270.973 Q1965.53 268.034 1963.59 266.436 Q1961.67 264.816 1958.17 264.816 Q1955.95 264.816 1953.84 265.348 Q1951.74 265.881 1949.79 266.946 L1949.79 263.01 Q1952.13 262.108 1954.33 261.668 Q1956.53 261.205 1958.61 261.205 Q1964.24 261.205 1967.01 264.122 Q1969.79 267.038 1969.79 272.964 Z" fill="#000000" fill-rule="nonzero" fill-opacity="1"></path><path clip-path="url(#clip470)" d="M1978.56 251.737 L1982.82 251.737 L1982.82 287.756 L1978.56 287.756 L1978.56 251.737 Z" fill="#000000" fill-rule="nonzero" fill-opacity="1"></path><path clip-path="url(#clip470)" d="M2010.93 283.867 L2010.93 297.617 L2006.64 297.617 L2006.64 261.83 L2010.93 261.83 L2010.93 265.765 Q2012.27 263.45 2014.3 262.339 Q2016.36 261.205 2019.21 261.205 Q2023.93 261.205 2026.87 264.955 Q2029.84 268.705 2029.84 274.816 Q2029.84 280.927 2026.87 284.677 Q2023.93 288.427 2019.21 288.427 Q2016.36 288.427 2014.3 287.316 Q2012.27 286.182 2010.93 283.867 M2025.42 274.816 Q2025.42 270.117 2023.47 267.455 Q2021.55 264.77 2018.17 264.77 Q2014.79 264.77 2012.85 267.455 Q2010.93 270.117 2010.93 274.816 Q2010.93 279.515 2012.85 282.2 Q2014.79 284.862 2018.17 284.862 Q2021.55 284.862 2023.47 282.2 Q2025.42 279.515 2025.42 274.816 Z" fill="#000000" fill-rule="nonzero" fill-opacity="1"></path><path clip-path="url(#clip470)" d="M2046.94 264.816 Q2043.52 264.816 2041.53 267.501 Q2039.54 270.163 2039.54 274.816 Q2039.54 279.469 2041.5 282.154 Q2043.49 284.816 2046.94 284.816 Q2050.35 284.816 2052.34 282.131 Q2054.33 279.446 2054.33 274.816 Q2054.33 270.21 2052.34 267.524 Q2050.35 264.816 2046.94 264.816 M2046.94 261.205 Q2052.5 261.205 2055.67 264.816 Q2058.84 268.427 2058.84 274.816 Q2058.84 281.182 2055.67 284.816 Q2052.5 288.427 2046.94 288.427 Q2041.36 288.427 2038.19 284.816 Q2035.05 281.182 2035.05 274.816 Q2035.05 268.427 2038.19 264.816 Q2041.36 261.205 2046.94 261.205 Z" fill="#000000" fill-rule="nonzero" fill-opacity="1"></path><path clip-path="url(#clip470)" d="M2065.9 251.737 L2070.16 251.737 L2070.16 287.756 L2065.9 287.756 L2065.9 251.737 Z" fill="#000000" fill-rule="nonzero" fill-opacity="1"></path><path clip-path="url(#clip470)" d="M2101.25 273.728 L2101.25 275.811 L2081.67 275.811 Q2081.94 280.209 2084.3 282.524 Q2086.69 284.816 2090.92 284.816 Q2093.38 284.816 2095.67 284.214 Q2097.98 283.612 2100.25 282.409 L2100.25 286.436 Q2097.96 287.408 2095.55 287.918 Q2093.15 288.427 2090.67 288.427 Q2084.47 288.427 2080.83 284.816 Q2077.22 281.205 2077.22 275.047 Q2077.22 268.682 2080.65 264.955 Q2084.1 261.205 2089.93 261.205 Q2095.16 261.205 2098.19 264.585 Q2101.25 267.941 2101.25 273.728 M2096.99 272.478 Q2096.94 268.983 2095.02 266.899 Q2093.12 264.816 2089.98 264.816 Q2086.41 264.816 2084.26 266.83 Q2082.13 268.844 2081.8 272.501 L2096.99 272.478 Z" fill="#000000" fill-rule="nonzero" fill-opacity="1"></path><path clip-path="url(#clip470)" d="M2124.77 262.594 L2124.77 266.622 Q2122.96 265.696 2121.02 265.233 Q2119.07 264.77 2116.99 264.77 Q2113.82 264.77 2112.22 265.742 Q2110.65 266.714 2110.65 268.659 Q2110.65 270.14 2111.78 270.997 Q2112.92 271.83 2116.34 272.594 L2117.8 272.918 Q2122.34 273.89 2124.23 275.672 Q2126.16 277.432 2126.16 280.603 Q2126.16 284.214 2123.29 286.321 Q2120.44 288.427 2115.44 288.427 Q2113.36 288.427 2111.09 288.01 Q2108.84 287.617 2106.34 286.807 L2106.34 282.409 Q2108.7 283.635 2110.99 284.26 Q2113.29 284.862 2115.53 284.862 Q2118.54 284.862 2120.16 283.844 Q2121.78 282.802 2121.78 280.927 Q2121.78 279.191 2120.6 278.265 Q2119.44 277.339 2115.48 276.483 L2114 276.135 Q2110.04 275.302 2108.29 273.589 Q2106.53 271.853 2106.53 268.844 Q2106.53 265.186 2109.12 263.196 Q2111.71 261.205 2116.48 261.205 Q2118.84 261.205 2120.92 261.552 Q2123.01 261.899 2124.77 262.594 Z" fill="#000000" fill-rule="nonzero" fill-opacity="1"></path></svg>