<svg xmlns="http://www.w3.org/2000/svg" xmlns:xlink="http://www.w3.org/1999/xlink" width="600" height="400" viewBox="0 0 2400 1600">
<defs>
  <clipPath id="clip590">
    <rect x="0" y="0" width="2400" height="1600"></rect>
  </clipPath>
</defs>
<path clip-path="url(#clip590)" d="M0 1600 L2400 1600 L2400 8.88178e-14 L0 8.88178e-14  Z" fill="#ffffff" fill-rule="evenodd" fill-opacity="1"></path>
<defs>
  <clipPath id="clip591">
    <rect x="480" y="0" width="1681" height="1600"></rect>
  </clipPath>
</defs>
<path clip-path="url(#clip590)" d="M219.866 1423.18 L2352.76 1423.18 L2352.76 123.472 L219.866 123.472  Z" fill="#ffffff" fill-rule="evenodd" fill-opacity="1"></path>
<defs>
  <clipPath id="clip592">
    <rect x="219" y="123" width="2134" height="1301"></rect>
  </clipPath>
</defs>
<polyline clip-path="url(#clip592)" style="stroke:#000000; stroke-linecap:round; stroke-linejoin:round; stroke-width:2; stroke-opacity:0.1; fill:none" points="481.447,1423.18 481.447,123.472 "></polyline>
<polyline clip-path="url(#clip592)" style="stroke:#000000; stroke-linecap:round; stroke-linejoin:round; stroke-width:2; stroke-opacity:0.1; fill:none" points="883.879,1423.18 883.879,123.472 "></polyline>
<polyline clip-path="url(#clip592)" style="stroke:#000000; stroke-linecap:round; stroke-linejoin:round; stroke-width:2; stroke-opacity:0.1; fill:none" points="1286.31,1423.18 1286.31,123.472 "></polyline>
<polyline clip-path="url(#clip592)" style="stroke:#000000; stroke-linecap:round; stroke-linejoin:round; stroke-width:2; stroke-opacity:0.1; fill:none" points="1688.74,1423.18 1688.74,123.472 "></polyline>
<polyline clip-path="url(#clip592)" style="stroke:#000000; stroke-linecap:round; stroke-linejoin:round; stroke-width:2; stroke-opacity:0.1; fill:none" points="2091.18,1423.18 2091.18,123.472 "></polyline>
<polyline clip-path="url(#clip592)" style="stroke:#000000; stroke-linecap:round; stroke-linejoin:round; stroke-width:2; stroke-opacity:0.1; fill:none" points="219.866,1386.4 2352.76,1386.4 "></polyline>
<polyline clip-path="url(#clip592)" style="stroke:#000000; stroke-linecap:round; stroke-linejoin:round; stroke-width:2; stroke-opacity:0.1; fill:none" points="219.866,1196.55 2352.76,1196.55 "></polyline>
<polyline clip-path="url(#clip592)" style="stroke:#000000; stroke-linecap:round; stroke-linejoin:round; stroke-width:2; stroke-opacity:0.1; fill:none" points="219.866,1006.71 2352.76,1006.71 "></polyline>
<polyline clip-path="url(#clip592)" style="stroke:#000000; stroke-linecap:round; stroke-linejoin:round; stroke-width:2; stroke-opacity:0.1; fill:none" points="219.866,816.872 2352.76,816.872 "></polyline>
<polyline clip-path="url(#clip592)" style="stroke:#000000; stroke-linecap:round; stroke-linejoin:round; stroke-width:2; stroke-opacity:0.1; fill:none" points="219.866,627.031 2352.76,627.031 "></polyline>
<polyline clip-path="url(#clip592)" style="stroke:#000000; stroke-linecap:round; stroke-linejoin:round; stroke-width:2; stroke-opacity:0.1; fill:none" points="219.866,437.19 2352.76,437.19 "></polyline>
<polyline clip-path="url(#clip592)" style="stroke:#000000; stroke-linecap:round; stroke-linejoin:round; stroke-width:2; stroke-opacity:0.1; fill:none" points="219.866,247.349 2352.76,247.349 "></polyline>
<polyline clip-path="url(#clip590)" style="stroke:#000000; stroke-linecap:round; stroke-linejoin:round; stroke-width:4; stroke-opacity:1; fill:none" points="219.866,1423.18 2352.76,1423.18 "></polyline>
<polyline clip-path="url(#clip590)" style="stroke:#000000; stroke-linecap:round; stroke-linejoin:round; stroke-width:4; stroke-opacity:1; fill:none" points="481.447,1423.18 481.447,1404.28 "></polyline>
<polyline clip-path="url(#clip590)" style="stroke:#000000; stroke-linecap:round; stroke-linejoin:round; stroke-width:4; stroke-opacity:1; fill:none" points="883.879,1423.18 883.879,1404.28 "></polyline>
<polyline clip-path="url(#clip590)" style="stroke:#000000; stroke-linecap:round; stroke-linejoin:round; stroke-width:4; stroke-opacity:1; fill:none" points="1286.31,1423.18 1286.31,1404.28 "></polyline>
<polyline clip-path="url(#clip590)" style="stroke:#000000; stroke-linecap:round; stroke-linejoin:round; stroke-width:4; stroke-opacity:1; fill:none" points="1688.74,1423.18 1688.74,1404.28 "></polyline>
<polyline clip-path="url(#clip590)" style="stroke:#000000; stroke-linecap:round; stroke-linejoin:round; stroke-width:4; stroke-opacity:1; fill:none" points="2091.18,1423.18 2091.18,1404.28 "></polyline>
<path clip-path="url(#clip590)" d="M450.348 1468.75 L480.023 1468.75 L480.023 1472.69 L450.348 1472.69 L450.348 1468.75 Z" fill="#000000" fill-rule="nonzero" fill-opacity="1"></path><path clip-path="url(#clip590)" d="M502.963 1455.09 L491.158 1473.54 L502.963 1473.54 L502.963 1455.09 M501.736 1451.02 L507.616 1451.02 L507.616 1473.54 L512.546 1473.54 L512.546 1477.43 L507.616 1477.43 L507.616 1485.58 L502.963 1485.58 L502.963 1477.43 L487.361 1477.43 L487.361 1472.92 L501.736 1451.02 Z" fill="#000000" fill-rule="nonzero" fill-opacity="1"></path><path clip-path="url(#clip590)" d="M853.821 1468.75 L883.497 1468.75 L883.497 1472.69 L853.821 1472.69 L853.821 1468.75 Z" fill="#000000" fill-rule="nonzero" fill-opacity="1"></path><path clip-path="url(#clip590)" d="M897.617 1481.64 L913.937 1481.64 L913.937 1485.58 L891.992 1485.58 L891.992 1481.64 Q894.654 1478.89 899.238 1474.26 Q903.844 1469.61 905.025 1468.27 Q907.27 1465.74 908.15 1464.01 Q909.053 1462.25 909.053 1460.56 Q909.053 1457.8 907.108 1456.07 Q905.187 1454.33 902.085 1454.33 Q899.886 1454.33 897.432 1455.09 Q895.002 1455.86 892.224 1457.41 L892.224 1452.69 Q895.048 1451.55 897.502 1450.97 Q899.955 1450.39 901.992 1450.39 Q907.363 1450.39 910.557 1453.08 Q913.752 1455.77 913.752 1460.26 Q913.752 1462.39 912.941 1464.31 Q912.154 1466.2 910.048 1468.8 Q909.469 1469.47 906.367 1472.69 Q903.266 1475.88 897.617 1481.64 Z" fill="#000000" fill-rule="nonzero" fill-opacity="1"></path><path clip-path="url(#clip590)" d="M1286.31 1454.1 Q1282.7 1454.1 1280.87 1457.66 Q1279.07 1461.2 1279.07 1468.33 Q1279.07 1475.44 1280.87 1479.01 Q1282.7 1482.55 1286.31 1482.55 Q1289.95 1482.55 1291.75 1479.01 Q1293.58 1475.44 1293.58 1468.33 Q1293.58 1461.2 1291.75 1457.66 Q1289.95 1454.1 1286.31 1454.1 M1286.31 1450.39 Q1292.12 1450.39 1295.18 1455 Q1298.26 1459.58 1298.26 1468.33 Q1298.26 1477.06 1295.18 1481.67 Q1292.12 1486.25 1286.31 1486.25 Q1280.5 1486.25 1277.42 1481.67 Q1274.37 1477.06 1274.37 1468.33 Q1274.37 1459.58 1277.42 1455 Q1280.5 1450.39 1286.31 1450.39 Z" fill="#000000" fill-rule="nonzero" fill-opacity="1"></path><path clip-path="url(#clip590)" d="M1683.4 1481.64 L1699.72 1481.64 L1699.72 1485.58 L1677.77 1485.58 L1677.77 1481.64 Q1680.43 1478.89 1685.02 1474.26 Q1689.62 1469.61 1690.8 1468.27 Q1693.05 1465.74 1693.93 1464.01 Q1694.83 1462.25 1694.83 1460.56 Q1694.83 1457.8 1692.89 1456.07 Q1690.97 1454.33 1687.86 1454.33 Q1685.66 1454.33 1683.21 1455.09 Q1680.78 1455.86 1678 1457.41 L1678 1452.69 Q1680.83 1451.55 1683.28 1450.97 Q1685.73 1450.39 1687.77 1450.39 Q1693.14 1450.39 1696.34 1453.08 Q1699.53 1455.77 1699.53 1460.26 Q1699.53 1462.39 1698.72 1464.31 Q1697.93 1466.2 1695.83 1468.8 Q1695.25 1469.47 1692.15 1472.69 Q1689.04 1475.88 1683.4 1481.64 Z" fill="#000000" fill-rule="nonzero" fill-opacity="1"></path><path clip-path="url(#clip590)" d="M2094.18 1455.09 L2082.38 1473.54 L2094.18 1473.54 L2094.18 1455.09 M2092.96 1451.02 L2098.84 1451.02 L2098.84 1473.54 L2103.77 1473.54 L2103.77 1477.43 L2098.84 1477.43 L2098.84 1485.58 L2094.18 1485.58 L2094.18 1477.43 L2078.58 1477.43 L2078.58 1472.92 L2092.96 1451.02 Z" fill="#000000" fill-rule="nonzero" fill-opacity="1"></path><path clip-path="url(#clip590)" d="M1276.6 1568.97 Q1263.39 1568.97 1263.39 1550.06 Q1263.39 1542.58 1268.33 1532.4 L1274.63 1532.4 Q1270.08 1542.58 1270.08 1550.22 Q1270.08 1564 1277.14 1564 Q1283.61 1564 1283.61 1546.88 L1289.02 1546.88 Q1289.02 1564 1295.48 1564 Q1302.54 1564 1302.54 1550.22 Q1302.54 1542.58 1297.99 1532.4 L1304.29 1532.4 Q1309.23 1542.58 1309.23 1550.06 Q1309.23 1568.97 1296.02 1568.97 Q1287.36 1568.97 1286.31 1559.45 Q1285.01 1568.97 1276.6 1568.97 Z" fill="#000000" fill-rule="nonzero" fill-opacity="1"></path><polyline clip-path="url(#clip590)" style="stroke:#000000; stroke-linecap:round; stroke-linejoin:round; stroke-width:4; stroke-opacity:1; fill:none" points="219.866,1423.18 219.866,123.472 "></polyline>
<polyline clip-path="url(#clip590)" style="stroke:#000000; stroke-linecap:round; stroke-linejoin:round; stroke-width:4; stroke-opacity:1; fill:none" points="219.866,1386.4 238.764,1386.4 "></polyline>
<polyline clip-path="url(#clip590)" style="stroke:#000000; stroke-linecap:round; stroke-linejoin:round; stroke-width:4; stroke-opacity:1; fill:none" points="219.866,1196.55 238.764,1196.55 "></polyline>
<polyline clip-path="url(#clip590)" style="stroke:#000000; stroke-linecap:round; stroke-linejoin:round; stroke-width:4; stroke-opacity:1; fill:none" points="219.866,1006.71 238.764,1006.71 "></polyline>
<polyline clip-path="url(#clip590)" style="stroke:#000000; stroke-linecap:round; stroke-linejoin:round; stroke-width:4; stroke-opacity:1; fill:none" points="219.866,816.872 238.764,816.872 "></polyline>
<polyline clip-path="url(#clip590)" style="stroke:#000000; stroke-linecap:round; stroke-linejoin:round; stroke-width:4; stroke-opacity:1; fill:none" points="219.866,627.031 238.764,627.031 "></polyline>
<polyline clip-path="url(#clip590)" style="stroke:#000000; stroke-linecap:round; stroke-linejoin:round; stroke-width:4; stroke-opacity:1; fill:none" points="219.866,437.19 238.764,437.19 "></polyline>
<polyline clip-path="url(#clip590)" style="stroke:#000000; stroke-linecap:round; stroke-linejoin:round; stroke-width:4; stroke-opacity:1; fill:none" points="219.866,247.349 238.764,247.349 "></polyline>
<path clip-path="url(#clip590)" d="M126.691 1372.19 Q123.08 1372.19 121.251 1375.76 Q119.445 1379.3 119.445 1386.43 Q119.445 1393.54 121.251 1397.1 Q123.08 1400.64 126.691 1400.64 Q130.325 1400.64 132.13 1397.1 Q133.959 1393.54 133.959 1386.43 Q133.959 1379.3 132.13 1375.76 Q130.325 1372.19 126.691 1372.19 M126.691 1368.49 Q132.501 1368.49 135.556 1373.1 Q138.635 1377.68 138.635 1386.43 Q138.635 1395.16 135.556 1399.76 Q132.501 1404.35 126.691 1404.35 Q120.88 1404.35 117.802 1399.76 Q114.746 1395.16 114.746 1386.43 Q114.746 1377.68 117.802 1373.1 Q120.88 1368.49 126.691 1368.49 Z" fill="#000000" fill-rule="nonzero" fill-opacity="1"></path><path clip-path="url(#clip590)" d="M146.853 1397.8 L151.737 1397.8 L151.737 1403.68 L146.853 1403.68 L146.853 1397.8 Z" fill="#000000" fill-rule="nonzero" fill-opacity="1"></path><path clip-path="url(#clip590)" d="M171.922 1372.19 Q168.311 1372.19 166.482 1375.76 Q164.677 1379.3 164.677 1386.43 Q164.677 1393.54 166.482 1397.1 Q168.311 1400.64 171.922 1400.64 Q175.556 1400.64 177.362 1397.1 Q179.19 1393.54 179.19 1386.43 Q179.19 1379.3 177.362 1375.76 Q175.556 1372.19 171.922 1372.19 M171.922 1368.49 Q177.732 1368.49 180.788 1373.1 Q183.866 1377.68 183.866 1386.43 Q183.866 1395.16 180.788 1399.76 Q177.732 1404.35 171.922 1404.35 Q166.112 1404.35 163.033 1399.76 Q159.978 1395.16 159.978 1386.43 Q159.978 1377.68 163.033 1373.1 Q166.112 1368.49 171.922 1368.49 Z" fill="#000000" fill-rule="nonzero" fill-opacity="1"></path><path clip-path="url(#clip590)" d="M128.288 1182.35 Q124.677 1182.35 122.848 1185.92 Q121.043 1189.46 121.043 1196.59 Q121.043 1203.7 122.848 1207.26 Q124.677 1210.8 128.288 1210.8 Q131.922 1210.8 133.728 1207.26 Q135.556 1203.7 135.556 1196.59 Q135.556 1189.46 133.728 1185.92 Q131.922 1182.35 128.288 1182.35 M128.288 1178.65 Q134.098 1178.65 137.154 1183.26 Q140.232 1187.84 140.232 1196.59 Q140.232 1205.32 137.154 1209.92 Q134.098 1214.51 128.288 1214.51 Q122.478 1214.51 119.399 1209.92 Q116.343 1205.32 116.343 1196.59 Q116.343 1187.84 119.399 1183.26 Q122.478 1178.65 128.288 1178.65 Z" fill="#000000" fill-rule="nonzero" fill-opacity="1"></path><path clip-path="url(#clip590)" d="M148.45 1207.95 L153.334 1207.95 L153.334 1213.83 L148.45 1213.83 L148.45 1207.95 Z" fill="#000000" fill-rule="nonzero" fill-opacity="1"></path><path clip-path="url(#clip590)" d="M167.547 1209.9 L183.866 1209.9 L183.866 1213.83 L161.922 1213.83 L161.922 1209.9 Q164.584 1207.14 169.167 1202.52 Q173.774 1197.86 174.954 1196.52 Q177.2 1194 178.079 1192.26 Q178.982 1190.5 178.982 1188.81 Q178.982 1186.06 177.038 1184.32 Q175.116 1182.58 172.014 1182.58 Q169.815 1182.58 167.362 1183.35 Q164.931 1184.11 162.153 1185.66 L162.153 1180.94 Q164.977 1179.81 167.431 1179.23 Q169.885 1178.65 171.922 1178.65 Q177.292 1178.65 180.487 1181.33 Q183.681 1184.02 183.681 1188.51 Q183.681 1190.64 182.871 1192.56 Q182.084 1194.46 179.977 1197.05 Q179.399 1197.72 176.297 1200.94 Q173.195 1204.14 167.547 1209.9 Z" fill="#000000" fill-rule="nonzero" fill-opacity="1"></path><path clip-path="url(#clip590)" d="M126.205 992.512 Q122.593 992.512 120.765 996.077 Q118.959 999.618 118.959 1006.75 Q118.959 1013.85 120.765 1017.42 Q122.593 1020.96 126.205 1020.96 Q129.839 1020.96 131.644 1017.42 Q133.473 1013.85 133.473 1006.75 Q133.473 999.618 131.644 996.077 Q129.839 992.512 126.205 992.512 M126.205 988.808 Q132.015 988.808 135.07 993.415 Q138.149 997.998 138.149 1006.75 Q138.149 1015.47 135.07 1020.08 Q132.015 1024.66 126.205 1024.66 Q120.394 1024.66 117.316 1020.08 Q114.26 1015.47 114.26 1006.75 Q114.26 997.998 117.316 993.415 Q120.394 988.808 126.205 988.808 Z" fill="#000000" fill-rule="nonzero" fill-opacity="1"></path><path clip-path="url(#clip590)" d="M146.366 1018.11 L151.251 1018.11 L151.251 1023.99 L146.366 1023.99 L146.366 1018.11 Z" fill="#000000" fill-rule="nonzero" fill-opacity="1"></path><path clip-path="url(#clip590)" d="M174.283 993.507 L162.477 1011.96 L174.283 1011.96 L174.283 993.507 M173.056 989.433 L178.936 989.433 L178.936 1011.96 L183.866 1011.96 L183.866 1015.85 L178.936 1015.85 L178.936 1023.99 L174.283 1023.99 L174.283 1015.85 L158.681 1015.85 L158.681 1011.33 L173.056 989.433 Z" fill="#000000" fill-rule="nonzero" fill-opacity="1"></path><path clip-path="url(#clip590)" d="M126.529 802.671 Q122.918 802.671 121.089 806.236 Q119.283 809.777 119.283 816.907 Q119.283 824.013 121.089 827.578 Q122.918 831.12 126.529 831.12 Q130.163 831.12 131.968 827.578 Q133.797 824.013 133.797 816.907 Q133.797 809.777 131.968 806.236 Q130.163 802.671 126.529 802.671 M126.529 798.967 Q132.339 798.967 135.394 803.574 Q138.473 808.157 138.473 816.907 Q138.473 825.634 135.394 830.24 Q132.339 834.823 126.529 834.823 Q120.718 834.823 117.64 830.24 Q114.584 825.634 114.584 816.907 Q114.584 808.157 117.64 803.574 Q120.718 798.967 126.529 798.967 Z" fill="#000000" fill-rule="nonzero" fill-opacity="1"></path><path clip-path="url(#clip590)" d="M146.691 828.273 L151.575 828.273 L151.575 834.152 L146.691 834.152 L146.691 828.273 Z" fill="#000000" fill-rule="nonzero" fill-opacity="1"></path><path clip-path="url(#clip590)" d="M172.339 815.009 Q169.19 815.009 167.339 817.161 Q165.51 819.314 165.51 823.064 Q165.51 826.791 167.339 828.967 Q169.19 831.12 172.339 831.12 Q175.487 831.12 177.315 828.967 Q179.167 826.791 179.167 823.064 Q179.167 819.314 177.315 817.161 Q175.487 815.009 172.339 815.009 M181.621 800.356 L181.621 804.615 Q179.862 803.782 178.056 803.342 Q176.274 802.902 174.514 802.902 Q169.885 802.902 167.431 806.027 Q165.001 809.152 164.653 815.472 Q166.019 813.458 168.079 812.393 Q170.139 811.305 172.616 811.305 Q177.825 811.305 180.834 814.476 Q183.866 817.624 183.866 823.064 Q183.866 828.388 180.718 831.606 Q177.57 834.823 172.339 834.823 Q166.343 834.823 163.172 830.24 Q160.001 825.634 160.001 816.907 Q160.001 808.712 163.89 803.851 Q167.778 798.967 174.329 798.967 Q176.089 798.967 177.871 799.314 Q179.676 799.662 181.621 800.356 Z" fill="#000000" fill-rule="nonzero" fill-opacity="1"></path><path clip-path="url(#clip590)" d="M126.783 612.83 Q123.172 612.83 121.343 616.394 Q119.538 619.936 119.538 627.066 Q119.538 634.172 121.343 637.737 Q123.172 641.279 126.783 641.279 Q130.417 641.279 132.223 637.737 Q134.052 634.172 134.052 627.066 Q134.052 619.936 132.223 616.394 Q130.417 612.83 126.783 612.83 M126.783 609.126 Q132.593 609.126 135.649 613.732 Q138.728 618.316 138.728 627.066 Q138.728 635.792 135.649 640.399 Q132.593 644.982 126.783 644.982 Q120.973 644.982 117.894 640.399 Q114.839 635.792 114.839 627.066 Q114.839 618.316 117.894 613.732 Q120.973 609.126 126.783 609.126 Z" fill="#000000" fill-rule="nonzero" fill-opacity="1"></path><path clip-path="url(#clip590)" d="M146.945 638.431 L151.829 638.431 L151.829 644.311 L146.945 644.311 L146.945 638.431 Z" fill="#000000" fill-rule="nonzero" fill-opacity="1"></path><path clip-path="url(#clip590)" d="M172.014 627.899 Q168.681 627.899 166.76 629.681 Q164.862 631.464 164.862 634.589 Q164.862 637.714 166.76 639.496 Q168.681 641.279 172.014 641.279 Q175.348 641.279 177.269 639.496 Q179.19 637.691 179.19 634.589 Q179.19 631.464 177.269 629.681 Q175.371 627.899 172.014 627.899 M167.339 625.908 Q164.329 625.167 162.64 623.107 Q160.973 621.047 160.973 618.084 Q160.973 613.941 163.913 611.533 Q166.876 609.126 172.014 609.126 Q177.176 609.126 180.116 611.533 Q183.056 613.941 183.056 618.084 Q183.056 621.047 181.366 623.107 Q179.7 625.167 176.714 625.908 Q180.093 626.695 181.968 628.987 Q183.866 631.279 183.866 634.589 Q183.866 639.612 180.788 642.297 Q177.732 644.982 172.014 644.982 Q166.297 644.982 163.218 642.297 Q160.163 639.612 160.163 634.589 Q160.163 631.279 162.061 628.987 Q163.959 626.695 167.339 625.908 M165.626 618.524 Q165.626 621.209 167.292 622.714 Q168.982 624.218 172.014 624.218 Q175.024 624.218 176.714 622.714 Q178.426 621.209 178.426 618.524 Q178.426 615.839 176.714 614.334 Q175.024 612.83 172.014 612.83 Q168.982 612.83 167.292 614.334 Q165.626 615.839 165.626 618.524 Z" fill="#000000" fill-rule="nonzero" fill-opacity="1"></path><path clip-path="url(#clip590)" d="M117.501 450.535 L125.14 450.535 L125.14 424.169 L116.83 425.836 L116.83 421.576 L125.093 419.91 L129.769 419.91 L129.769 450.535 L137.408 450.535 L137.408 454.47 L117.501 454.47 L117.501 450.535 Z" fill="#000000" fill-rule="nonzero" fill-opacity="1"></path><path clip-path="url(#clip590)" d="M146.853 448.59 L151.737 448.59 L151.737 454.47 L146.853 454.47 L146.853 448.59 Z" fill="#000000" fill-rule="nonzero" fill-opacity="1"></path><path clip-path="url(#clip590)" d="M171.922 422.988 Q168.311 422.988 166.482 426.553 Q164.677 430.095 164.677 437.224 Q164.677 444.331 166.482 447.896 Q168.311 451.437 171.922 451.437 Q175.556 451.437 177.362 447.896 Q179.19 444.331 179.19 437.224 Q179.19 430.095 177.362 426.553 Q175.556 422.988 171.922 422.988 M171.922 419.285 Q177.732 419.285 180.788 423.891 Q183.866 428.474 183.866 437.224 Q183.866 445.951 180.788 450.558 Q177.732 455.141 171.922 455.141 Q166.112 455.141 163.033 450.558 Q159.978 445.951 159.978 437.224 Q159.978 428.474 163.033 423.891 Q166.112 419.285 171.922 419.285 Z" fill="#000000" fill-rule="nonzero" fill-opacity="1"></path><path clip-path="url(#clip590)" d="M119.098 260.693 L126.737 260.693 L126.737 234.328 L118.427 235.994 L118.427 231.735 L126.691 230.069 L131.367 230.069 L131.367 260.693 L139.005 260.693 L139.005 264.629 L119.098 264.629 L119.098 260.693 Z" fill="#000000" fill-rule="nonzero" fill-opacity="1"></path><path clip-path="url(#clip590)" d="M148.45 258.749 L153.334 258.749 L153.334 264.629 L148.45 264.629 L148.45 258.749 Z" fill="#000000" fill-rule="nonzero" fill-opacity="1"></path><path clip-path="url(#clip590)" d="M167.547 260.693 L183.866 260.693 L183.866 264.629 L161.922 264.629 L161.922 260.693 Q164.584 257.939 169.167 253.309 Q173.774 248.656 174.954 247.314 Q177.2 244.791 178.079 243.055 Q178.982 241.295 178.982 239.606 Q178.982 236.851 177.038 235.115 Q175.116 233.379 172.014 233.379 Q169.815 233.379 167.362 234.143 Q164.931 234.906 162.153 236.457 L162.153 231.735 Q164.977 230.601 167.431 230.022 Q169.885 229.444 171.922 229.444 Q177.292 229.444 180.487 232.129 Q183.681 234.814 183.681 239.305 Q183.681 241.434 182.871 243.356 Q182.084 245.254 179.977 247.846 Q179.399 248.518 176.297 251.735 Q173.195 254.93 167.547 260.693 Z" fill="#000000" fill-rule="nonzero" fill-opacity="1"></path><path clip-path="url(#clip590)" d="M22.818 823.52 L46.4666 832.241 L46.4666 814.767 L22.818 823.52 M16.4842 827.148 L16.4842 819.859 L64.0042 801.749 L64.0042 808.433 L51.8138 812.762 L51.8138 834.182 L64.0042 838.511 L64.0042 845.29 L16.4842 827.148 Z" fill="#000000" fill-rule="nonzero" fill-opacity="1"></path><path clip-path="url(#clip590)" d="M14.5426 780.997 Q21.8632 785.262 29.0246 787.331 Q36.186 789.399 43.5384 789.399 Q50.8908 789.399 58.1159 787.331 Q65.3091 785.23 72.5979 780.997 L72.5979 786.089 Q65.1182 790.864 57.8931 793.251 Q50.668 795.606 43.5384 795.606 Q36.4406 795.606 29.2474 793.251 Q22.0542 790.895 14.5426 786.089 L14.5426 780.997 Z" fill="#000000" fill-rule="nonzero" fill-opacity="1"></path><path clip-path="url(#clip590)" d="M64.9272 758.271 Q64.9272 771.48 46.021 771.48 Q38.5413 771.48 28.3562 766.547 L28.3562 760.244 Q38.5413 764.796 46.1802 764.796 Q59.9619 764.796 59.9619 757.73 Q59.9619 751.269 42.8382 751.269 L42.8382 745.858 Q59.9619 745.858 59.9619 739.397 Q59.9619 732.331 46.1802 732.331 Q38.5413 732.331 28.3562 736.882 L28.3562 730.58 Q38.5413 725.647 46.021 725.647 Q64.9272 725.647 64.9272 738.856 Q64.9272 747.513 55.4105 748.563 Q64.9272 749.868 64.9272 758.271 Z" fill="#000000" fill-rule="nonzero" fill-opacity="1"></path><path clip-path="url(#clip590)" d="M14.5426 715.971 L14.5426 710.878 Q22.0542 706.104 29.2474 703.749 Q36.4406 701.362 43.5384 701.362 Q50.668 701.362 57.8931 703.749 Q65.1182 706.104 72.5979 710.878 L72.5979 715.971 Q65.3091 711.738 58.1159 709.669 Q50.8908 707.568 43.5384 707.568 Q36.186 707.568 29.0246 709.669 Q21.8632 711.738 14.5426 715.971 Z" fill="#000000" fill-rule="nonzero" fill-opacity="1"></path><path clip-path="url(#clip590)" d="M919.218 14.0809 L919.218 22.0612 Q914.56 19.8332 910.428 18.7395 Q906.296 17.6457 902.447 17.6457 Q895.763 17.6457 892.118 20.2383 Q888.512 22.8309 888.512 27.611 Q888.512 31.6214 890.902 33.6873 Q893.333 35.7128 900.057 36.9686 L904.999 37.9813 Q914.155 39.7232 918.489 44.1387 Q922.864 48.5136 922.864 55.8863 Q922.864 64.6767 916.95 69.2137 Q911.076 73.7508 899.693 73.7508 Q895.399 73.7508 890.538 72.7785 Q885.717 71.8063 880.532 69.9024 L880.532 61.4765 Q885.515 64.2716 890.295 65.6895 Q895.075 67.1073 899.693 67.1073 Q906.701 67.1073 910.509 64.3527 Q914.317 61.598 914.317 56.4939 Q914.317 52.0379 911.562 49.5264 Q908.848 47.0148 902.609 45.759 L897.627 44.7868 Q888.472 42.9639 884.38 39.075 Q880.289 35.1862 880.289 28.2591 Q880.289 20.2383 885.92 15.6203 Q891.591 11.0023 901.516 11.0023 Q905.769 11.0023 910.185 11.7719 Q914.6 12.5416 919.218 14.0809 Z" fill="#000000" fill-rule="nonzero" fill-opacity="1"></path><path clip-path="url(#clip590)" d="M942.673 14.324 L942.673 27.2059 L958.026 27.2059 L958.026 32.9987 L942.673 32.9987 L942.673 57.6282 Q942.673 63.1779 944.172 64.7578 Q945.711 66.3376 950.37 66.3376 L958.026 66.3376 L958.026 72.576 L950.37 72.576 Q941.741 72.576 938.46 69.3758 Q935.179 66.1351 935.179 57.6282 L935.179 32.9987 L929.71 32.9987 L929.71 27.2059 L935.179 27.2059 L935.179 14.324 L942.673 14.324 Z" fill="#000000" fill-rule="nonzero" fill-opacity="1"></path><path clip-path="url(#clip590)" d="M985.41 32.4315 Q979.415 32.4315 975.931 37.1306 Q972.447 41.7891 972.447 49.9314 Q972.447 58.0738 975.89 62.7728 Q979.374 67.4314 985.41 67.4314 Q991.365 67.4314 994.849 62.7323 Q998.332 58.0333 998.332 49.9314 Q998.332 41.8701 994.849 37.1711 Q991.365 32.4315 985.41 32.4315 M985.41 26.1121 Q995.132 26.1121 1000.68 32.4315 Q1006.23 38.7509 1006.23 49.9314 Q1006.23 61.0714 1000.68 67.4314 Q995.132 73.7508 985.41 73.7508 Q975.647 73.7508 970.098 67.4314 Q964.588 61.0714 964.588 49.9314 Q964.588 38.7509 970.098 32.4315 Q975.647 26.1121 985.41 26.1121 Z" fill="#000000" fill-rule="nonzero" fill-opacity="1"></path><path clip-path="url(#clip590)" d="M1051.24 28.9478 L1051.24 35.9153 Q1048.08 34.1734 1044.88 33.3227 Q1041.72 32.4315 1038.48 32.4315 Q1031.23 32.4315 1027.22 37.0496 Q1023.2 41.6271 1023.2 49.9314 Q1023.2 58.2358 1027.22 62.8538 Q1031.23 67.4314 1038.48 67.4314 Q1041.72 67.4314 1044.88 66.5807 Q1048.08 65.6895 1051.24 63.9476 L1051.24 70.8341 Q1048.12 72.2924 1044.76 73.0216 Q1041.43 73.7508 1037.67 73.7508 Q1027.42 73.7508 1021.38 67.3098 Q1015.35 60.8689 1015.35 49.9314 Q1015.35 38.832 1021.42 32.472 Q1027.54 26.1121 1038.15 26.1121 Q1041.6 26.1121 1044.88 26.8413 Q1048.16 27.5299 1051.24 28.9478 Z" fill="#000000" fill-rule="nonzero" fill-opacity="1"></path><path clip-path="url(#clip590)" d="M1101.91 45.1919 L1101.91 72.576 L1094.46 72.576 L1094.46 45.4349 Q1094.46 38.994 1091.95 35.7938 Q1089.44 32.5936 1084.41 32.5936 Q1078.38 32.5936 1074.89 36.4419 Q1071.41 40.2903 1071.41 46.9338 L1071.41 72.576 L1063.92 72.576 L1063.92 9.54393 L1071.41 9.54393 L1071.41 34.2544 Q1074.08 30.163 1077.69 28.1376 Q1081.34 26.1121 1086.07 26.1121 Q1093.89 26.1121 1097.9 30.9732 Q1101.91 35.7938 1101.91 45.1919 Z" fill="#000000" fill-rule="nonzero" fill-opacity="1"></path><path clip-path="url(#clip590)" d="M1137.32 20.1573 L1126.22 50.2555 L1148.46 50.2555 L1137.32 20.1573 M1132.7 12.096 L1141.98 12.096 L1165.03 72.576 L1156.52 72.576 L1151.01 57.061 L1123.75 57.061 L1118.24 72.576 L1109.61 72.576 L1132.7 12.096 Z" fill="#000000" fill-rule="nonzero" fill-opacity="1"></path><path clip-path="url(#clip590)" d="M1217.69 16.7545 L1217.69 25.383 Q1213.56 21.5346 1208.86 19.6307 Q1204.2 17.7268 1198.93 17.7268 Q1188.56 17.7268 1183.05 24.0867 Q1177.54 30.4061 1177.54 42.3968 Q1177.54 54.3469 1183.05 60.7069 Q1188.56 67.0263 1198.93 67.0263 Q1204.2 67.0263 1208.86 65.1223 Q1213.56 63.2184 1217.69 59.3701 L1217.69 67.9175 Q1213.39 70.8341 1208.57 72.2924 Q1203.79 73.7508 1198.45 73.7508 Q1184.71 73.7508 1176.82 65.3654 Q1168.92 56.9395 1168.92 42.3968 Q1168.92 27.8135 1176.82 19.4281 Q1184.71 11.0023 1198.45 11.0023 Q1203.88 11.0023 1208.66 12.4606 Q1213.48 13.8784 1217.69 16.7545 Z" fill="#000000" fill-rule="nonzero" fill-opacity="1"></path><path clip-path="url(#clip590)" d="M1231.91 62.2867 L1240.45 62.2867 L1240.45 69.2543 L1233.81 82.2172 L1228.59 82.2172 L1231.91 69.2543 L1231.91 62.2867 Z" fill="#000000" fill-rule="nonzero" fill-opacity="1"></path><path clip-path="url(#clip590)" d="M1312.6 34.0924 L1312.6 9.54393 L1320.06 9.54393 L1320.06 72.576 L1312.6 72.576 L1312.6 65.7705 Q1310.25 69.8214 1306.65 71.8063 Q1303.08 73.7508 1298.06 73.7508 Q1289.84 73.7508 1284.65 67.1883 Q1279.51 60.6258 1279.51 49.9314 Q1279.51 39.2371 1284.65 32.6746 Q1289.84 26.1121 1298.06 26.1121 Q1303.08 26.1121 1306.65 28.0971 Q1310.25 30.0415 1312.6 34.0924 M1287.2 49.9314 Q1287.2 58.1548 1290.56 62.8538 Q1293.97 67.5124 1299.88 67.5124 Q1305.8 67.5124 1309.2 62.8538 Q1312.6 58.1548 1312.6 49.9314 Q1312.6 41.7081 1309.2 37.0496 Q1305.8 32.3505 1299.88 32.3505 Q1293.97 32.3505 1290.56 37.0496 Q1287.2 41.7081 1287.2 49.9314 Z" fill="#000000" fill-rule="nonzero" fill-opacity="1"></path><path clip-path="url(#clip590)" d="M1374.22 48.0275 L1374.22 51.6733 L1339.95 51.6733 Q1340.43 59.3701 1344.56 63.421 Q1348.74 67.4314 1356.15 67.4314 Q1360.44 67.4314 1364.45 66.3781 Q1368.5 65.3249 1372.47 63.2184 L1372.47 70.267 Q1368.46 71.9684 1364.25 72.8596 Q1360.04 73.7508 1355.7 73.7508 Q1344.85 73.7508 1338.49 67.4314 Q1332.17 61.1119 1332.17 50.3365 Q1332.17 39.1965 1338.16 32.6746 Q1344.2 26.1121 1354.41 26.1121 Q1363.56 26.1121 1368.87 32.0264 Q1374.22 37.9003 1374.22 48.0275 M1366.76 45.84 Q1366.68 39.7232 1363.32 36.0774 Q1360 32.4315 1354.49 32.4315 Q1348.25 32.4315 1344.48 35.9558 Q1340.76 39.4801 1340.19 45.8805 L1366.76 45.84 Z" fill="#000000" fill-rule="nonzero" fill-opacity="1"></path><path clip-path="url(#clip590)" d="M1386.45 9.54393 L1393.9 9.54393 L1393.9 72.576 L1386.45 72.576 L1386.45 9.54393 Z" fill="#000000" fill-rule="nonzero" fill-opacity="1"></path><path clip-path="url(#clip590)" d="M1416.87 14.324 L1416.87 27.2059 L1432.22 27.2059 L1432.22 32.9987 L1416.87 32.9987 L1416.87 57.6282 Q1416.87 63.1779 1418.37 64.7578 Q1419.91 66.3376 1424.57 66.3376 L1432.22 66.3376 L1432.22 72.576 L1424.57 72.576 Q1415.94 72.576 1412.66 69.3758 Q1409.38 66.1351 1409.38 57.6282 L1409.38 32.9987 L1403.91 32.9987 L1403.91 27.2059 L1409.38 27.2059 L1409.38 14.324 L1416.87 14.324 Z" fill="#000000" fill-rule="nonzero" fill-opacity="1"></path><path clip-path="url(#clip590)" d="M1462.65 49.7694 Q1453.61 49.7694 1450.13 51.8354 Q1446.65 53.9013 1446.65 58.8839 Q1446.65 62.8538 1449.24 65.2034 Q1451.87 67.5124 1456.37 67.5124 Q1462.57 67.5124 1466.29 63.1374 Q1470.06 58.7219 1470.06 51.4303 L1470.06 49.7694 L1462.65 49.7694 M1477.51 46.6907 L1477.51 72.576 L1470.06 72.576 L1470.06 65.6895 Q1467.51 69.8214 1463.7 71.8063 Q1459.89 73.7508 1454.38 73.7508 Q1447.42 73.7508 1443.28 69.8619 Q1439.19 65.9325 1439.19 59.3701 Q1439.19 51.7138 1444.3 47.825 Q1449.44 43.9361 1459.61 43.9361 L1470.06 43.9361 L1470.06 43.2069 Q1470.06 38.0623 1466.66 35.2672 Q1463.3 32.4315 1457.18 32.4315 Q1453.29 32.4315 1449.6 33.3632 Q1445.92 34.295 1442.51 36.1584 L1442.51 29.2718 Q1446.61 27.692 1450.45 26.9223 Q1454.3 26.1121 1457.95 26.1121 Q1467.79 26.1121 1472.65 31.2163 Q1477.51 36.3204 1477.51 46.6907 Z" fill="#000000" fill-rule="nonzero" fill-opacity="1"></path><path clip-path="url(#clip590)" d="M1526.61 14.324 L1526.61 27.2059 L1541.96 27.2059 L1541.96 32.9987 L1526.61 32.9987 L1526.61 57.6282 Q1526.61 63.1779 1528.11 64.7578 Q1529.65 66.3376 1534.31 66.3376 L1541.96 66.3376 L1541.96 72.576 L1534.31 72.576 Q1525.68 72.576 1522.4 69.3758 Q1519.12 66.1351 1519.12 57.6282 L1519.12 32.9987 L1513.65 32.9987 L1513.65 27.2059 L1519.12 27.2059 L1519.12 14.324 L1526.61 14.324 Z" fill="#000000" fill-rule="nonzero" fill-opacity="1"></path><path clip-path="url(#clip590)" d="M1570.64 76.7889 Q1567.48 84.8907 1564.49 87.3618 Q1561.49 89.8329 1556.47 89.8329 L1550.51 89.8329 L1550.51 83.5945 L1554.89 83.5945 Q1557.96 83.5945 1559.67 82.1361 Q1561.37 80.6778 1563.43 75.2496 L1564.77 71.8468 L1546.42 27.2059 L1554.32 27.2059 L1568.5 62.6918 L1582.68 27.2059 L1590.57 27.2059 L1570.64 76.7889 Z" fill="#000000" fill-rule="nonzero" fill-opacity="1"></path><path clip-path="url(#clip590)" d="M1608.07 65.7705 L1608.07 89.8329 L1600.58 89.8329 L1600.58 27.2059 L1608.07 27.2059 L1608.07 34.0924 Q1610.42 30.0415 1613.99 28.0971 Q1617.59 26.1121 1622.58 26.1121 Q1630.84 26.1121 1635.99 32.6746 Q1641.17 39.2371 1641.17 49.9314 Q1641.17 60.6258 1635.99 67.1883 Q1630.84 73.7508 1622.58 73.7508 Q1617.59 73.7508 1613.99 71.8063 Q1610.42 69.8214 1608.07 65.7705 M1633.43 49.9314 Q1633.43 41.7081 1630.03 37.0496 Q1626.67 32.3505 1620.75 32.3505 Q1614.84 32.3505 1611.44 37.0496 Q1608.07 41.7081 1608.07 49.9314 Q1608.07 58.1548 1611.44 62.8538 Q1614.84 67.5124 1620.75 67.5124 Q1626.67 67.5124 1630.03 62.8538 Q1633.43 58.1548 1633.43 49.9314 Z" fill="#000000" fill-rule="nonzero" fill-opacity="1"></path><path clip-path="url(#clip590)" d="M1692.33 48.0275 L1692.33 51.6733 L1658.06 51.6733 Q1658.55 59.3701 1662.68 63.421 Q1666.85 67.4314 1674.27 67.4314 Q1678.56 67.4314 1682.57 66.3781 Q1686.62 65.3249 1690.59 63.2184 L1690.59 70.267 Q1686.58 71.9684 1682.37 72.8596 Q1678.16 73.7508 1673.82 73.7508 Q1662.96 73.7508 1656.6 67.4314 Q1650.28 61.1119 1650.28 50.3365 Q1650.28 39.1965 1656.28 32.6746 Q1662.32 26.1121 1672.52 26.1121 Q1681.68 26.1121 1686.99 32.0264 Q1692.33 37.9003 1692.33 48.0275 M1684.88 45.84 Q1684.8 39.7232 1681.44 36.0774 Q1678.11 32.4315 1672.61 32.4315 Q1666.37 32.4315 1662.6 35.9558 Q1658.87 39.4801 1658.31 45.8805 L1684.88 45.84 Z" fill="#000000" fill-rule="nonzero" fill-opacity="1"></path><polyline clip-path="url(#clip592)" style="stroke:#009af9; stroke-linecap:round; stroke-linejoin:round; stroke-width:4; stroke-opacity:1; fill:none" points="280.231,1386.32 328.323,1386.31 372.052,1386.31 411.987,1386.3 448.601,1386.3 482.294,1386.29 513.402,1386.29 542.213,1386.28 568.973,1386.28 593.894,1386.27 617.16,1386.27 638.93,1386.26 659.346,1386.26 678.531,1386.25 696.592,1386.25 713.627,1386.24 729.721,1386.24 744.95,1386.23 759.382,1386.22 773.079,1386.22 786.096,1386.22 798.483,1386.21 810.284,1386.2 821.541,1386.2 832.29,1386.19 842.566,1386.19 852.4,1386.18 861.818,1386.18 870.849,1386.17 879.515,1386.17 887.837,1386.16 895.838,1386.16 903.534,1386.15 910.943,1386.15 918.082,1386.14 924.964,1386.14 931.604,1386.13 938.015,1386.13 944.207,1386.13 950.193,1386.12 955.983,1386.12 961.586,1386.11 967.011,1386.11 972.267,1386.1 977.362,1386.1 982.303,1386.09 987.097,1386.09 991.751,1386.08 996.271,1386.08 1000.66,1386.08 1004.93,1386.07 1009.08,1386.07 1013.12,1386.06 1017.05,1386.06 1020.88,1386.05 1024.61,1386.05 1028.24,1386.05 1031.78,1386.04 1035.23,1386.04 1038.6,1386.03 1041.89,1386.03 1045.09,1386.03 1048.22,1386.02 1051.28,1386.02 1054.27,1386.01 1057.19,1386.01 1060.04,1386.01 1062.83,1386 1065.56,1386 1068.23,1385.99 1070.84,1385.99 1073.4,1385.99 1075.91,1385.98 1078.36,1385.98 1080.76,1385.98 1083.11,1385.97 1085.42,1385.97 1087.68,1385.96 1089.9,1385.96 1092.07,1385.96 1094.21,1385.95 1096.3,1385.95 1098.35,1385.95 1100.37,1385.94 1102.35,1385.94 1104.29,1385.94 1106.2,1385.93 1108.07,1385.93 1109.92,1385.93 1111.72,1385.92 1113.5,1385.92 1115.25,1385.92 1116.97,1385.91 1118.66,1385.91 1120.32,1385.91 1121.96,1385.9 1123.57,1385.9 1125.15,1385.9 1126.71,1385.89 1128.24,1385.89 1129.75,1385.89 1131.24,1385.88 1132.7,1385.88 1134.14,1385.88 1135.56,1385.88 1136.96,1385.87 1138.34,1385.87 1139.7,1385.87 1141.04,1385.86 1142.36,1385.86 1143.66,1385.86 1144.94,1385.85 1146.2,1385.85 1147.45,1385.85 1148.68,1385.85 1149.89,1385.84 1151.09,1385.84 1152.27,1385.84 1153.44,1385.83 1154.59,1385.83 1155.72,1385.83 1156.84,1385.83 1157.95,1385.82 1159.04,1385.82 1160.12,1385.82 1161.19,1385.82 1162.24,1385.81 1163.28,1385.81 1164.3,1385.81 1165.32,1385.81 1166.32,1385.8 1167.31,1385.8 1168.29,1385.8 1169.26,1385.79 1170.21,1385.79 1171.16,1385.79 1172.09,1385.79 1173.02,1385.78 1173.93,1385.78 1174.83,1385.78 1175.73,1385.78 1176.61,1385.77 1177.48,1385.77 1178.35,1385.77 1179.2,1385.77 1180.05,1385.76 1180.89,1385.76 1181.72,1385.76 1182.54,1385.76 1183.35,1385.75 1184.15,1385.75 1184.95,1385.75 1185.74,1385.75 1186.52,1385.75 1187.29,1385.74 1188.05,1385.74 1188.81,1385.74 1189.56,1385.74 1190.3,1385.73 1191.04,1385.73 1191.77,1385.73 1192.49,1385.73 1193.21,1385.72 1193.91,1385.72 1194.62,1385.72 1195.31,1385.72 1196,1385.72 1196.69,1385.71 1197.36,1385.71 1198.03,1385.71 1198.7,1385.71 1199.36,1385.7 1200.01,1385.7 1200.66,1385.7 1201.31,1385.7 1201.94,1385.7 1202.58,1385.69 1203.2,1385.69 1203.83,1385.69 1204.44,1385.69 1205.05,1385.68 1205.66,1385.68 1206.26,1385.68 1206.86,1385.68 1207.45,1385.68 1208.04,1385.67 1208.63,1385.67 1209.2,1385.67 1209.78,1385.67 1210.35,1385.67 1210.92,1385.66 1211.48,1385.66 1212.04,1385.66 1212.59,1385.66 1213.14,1385.66 1213.68,1385.65 1214.23,1385.65 1214.76,1385.65 1215.3,1385.65 1215.83,1385.65 1216.35,1385.64 1216.88,1385.64 1217.4,1385.64 1217.91,1385.64 1218.42,1385.64 1218.93,1385.63 1219.44,1385.63 1219.94,1385.63 1220.44,1385.63 1220.94,1385.63 1221.43,1385.62 1221.92,1385.62 1222.4,1385.62 1222.89,1385.62 1223.37,1385.62 1223.84,1385.61 1224.32,1385.61 1224.79,1385.61 1225.26,1385.61 1225.72,1385.61 1226.19,1385.6 1226.65,1385.6 1227.1,1385.6 1227.56,1385.6 1228.01,1385.6 1228.46,1385.59 1228.9,1385.59 1229.35,1385.59 1229.79,1385.59 1230.23,1385.59 1230.67,1385.59 1231.1,1385.58 1231.53,1385.58 1231.96,1385.58 1232.39,1385.58 1232.82,1385.58 1233.24,1385.57 1233.66,1385.57 1234.08,1385.57 1234.49,1385.57 1234.91,1385.57 1235.32,1385.57 1235.73,1385.56 1236.14,1385.56 1236.54,1385.56 1236.95,1385.56 1237.35,1385.56 1237.75,1385.55 1238.15,1385.55 1238.54,1385.55 1238.94,1385.55 1239.33,1385.55 1239.72,1385.55 1240.11,1385.54 1240.5,1385.54 1240.88,1385.54 1241.26,1385.54 1241.65,1385.54 1242.03,1385.53 1242.4,1385.53 1242.78,1385.53 1243.16,1385.53 1243.53,1385.53 1243.9,1385.53 1244.27,1385.52 1244.64,1385.52 1245.01,1385.52 1245.37,1385.52 1245.74,1385.52 1246.1,1385.51 1246.46,1385.51 1246.82,1385.51 1247.18,1385.51 1247.54,1385.51 1247.9,1385.51 1248.25,1385.5 1248.6,1385.5 1248.95,1385.5 1249.31,1385.5 1249.65,1385.5 1250,1385.5 1250.35,1385.49 1250.69,1385.49 1251.04,1385.49 1251.38,1385.49 1251.72,1385.49 1252.06,1385.48 1252.4,1385.48 1252.74,1385.48 1253.08,1385.48 1253.42,1385.48 1253.75,1385.48 1254.09,1385.47 1254.42,1385.47 1254.75,1385.47 1255.08,1385.47 1255.41,1385.47 1255.74,1385.47 1256.07,1385.46 1256.39,1385.46 1256.72,1385.46 1257.05,1385.46 1257.37,1385.46 1257.69,1385.46 1258.01,1385.45 1258.34,1385.45 1258.66,1385.45 1258.98,1385.45 1259.29,1385.45 1259.61,1385.44 1259.93,1385.44 1260.25,1385.44 1260.56,1385.44 1260.87,1385.44 1261.19,1385.44 1261.5,1385.43 1261.81,1385.43 1262.13,1385.43 1262.44,1385.43 1262.75,1385.43 1263.05,1385.43 1263.36,1385.42 1263.67,1385.42 1263.98,1385.42 1264.28,1385.42 1264.59,1385.42 1264.9,1385.41 1265.2,1385.41 1265.5,1385.41 1265.81,1385.41 1266.11,1385.41 1266.41,1385.41 1266.71,1385.4 1267.01,1385.4 1267.31,1385.4 1267.61,1385.4 1267.91,1385.4 1268.21,1385.4 1268.51,1385.39 1268.81,1385.39 1269.1,1385.39 1269.4,1385.39 1269.69,1385.39 1269.99,1385.38 1270.29,1385.38 1270.58,1385.38 1270.87,1385.38 1271.17,1385.38 1271.46,1385.38 1271.75,1385.37 1272.05,1385.37 1272.34,1385.37 1272.63,1385.37 1272.92,1385.37 1273.21,1385.36 1273.5,1385.36 1273.79,1385.36 1274.08,1385.36 1274.37,1385.36 1274.66,1385.36 1274.95,1385.35 1275.24,1385.35 1275.52,1385.35 1275.81,1385.35 1276.1,1385.35 1276.39,1385.34 1276.67,1385.34 1276.96,1385.34 1277.24,1385.34 1277.53,1385.34 1277.82,1385.34 1278.1,1385.33 1278.39,1385.33 1278.67,1385.33 1278.96,1385.33 1279.24,1385.33 1279.53,1385.32 1279.81,1385.32 1280.09,1385.32 1280.38,1385.32 1280.66,1385.32 1280.94,1385.31 1281.23,1385.31 1281.51,1385.31 1281.79,1385.31 1282.08,1385.31 1282.36,1385.31 1282.64,1385.3 1282.93,1385.3 1283.21,1385.3 1283.49,1385.3 1283.77,1385.3 1284.05,1385.29 1284.34,1385.29 1284.62,1385.29 1284.9,1385.29 1285.18,1385.29 1285.47,1385.28 1285.75,1385.28 1286.03,1385.28 1286.31,1385.28 1286.59,1385.28 1286.88,1385.27 1287.16,1385.27 1287.44,1385.27 1287.72,1385.27 1288,1385.27 1288.29,1385.26 1288.57,1385.26 1288.85,1385.26 1289.13,1385.26 1289.41,1385.26 1289.7,1385.25 1289.98,1385.25 1290.26,1385.25 1290.55,1385.25 1290.83,1385.24 1291.11,1385.24 1291.39,1385.24 1291.68,1385.24 1291.96,1385.24 1292.24,1385.23 1292.53,1385.23 1292.81,1385.23 1293.1,1385.23 1293.38,1385.23 1293.67,1385.22 1293.95,1385.22 1294.24,1385.22 1294.52,1385.22 1294.81,1385.21 1295.09,1385.21 1295.38,1385.21 1295.66,1385.21 1295.95,1385.2 1296.24,1385.2 1296.52,1385.2 1296.81,1385.2 1297.1,1385.2 1297.39,1385.19 1297.68,1385.19 1297.96,1385.19 1298.25,1385.19 1298.54,1385.18 1298.83,1385.18 1299.12,1385.18 1299.41,1385.18 1299.7,1385.18 1299.99,1385.17 1300.28,1385.17 1300.58,1385.17 1300.87,1385.17 1301.16,1385.16 1301.45,1385.16 1301.75,1385.16 1302.04,1385.16 1302.34,1385.15 1302.63,1385.15 1302.93,1385.15 1303.22,1385.15 1303.52,1385.14 1303.82,1385.14 1304.11,1385.14 1304.41,1385.14 1304.71,1385.13 1305.01,1385.13 1305.31,1385.13 1305.61,1385.13 1305.91,1385.12 1306.21,1385.12 1306.51,1385.12 1306.82,1385.12 1307.12,1385.11 1307.42,1385.11 1307.73,1385.11 1308.03,1385.1 1308.34,1385.1 1308.64,1385.1 1308.95,1385.1 1309.26,1385.09 1309.57,1385.09 1309.88,1385.09 1310.19,1385.08 1310.5,1385.08 1310.81,1385.08 1311.12,1385.08 1311.43,1385.07 1311.75,1385.07 1312.06,1385.07 1312.38,1385.06 1312.69,1385.06 1313.01,1385.06 1313.33,1385.06 1313.65,1385.05 1313.97,1385.05 1314.29,1385.05 1314.61,1385.04 1314.93,1385.04 1315.25,1385.04 1315.58,1385.03 1315.9,1385.03 1316.23,1385.03 1316.55,1385.02 1316.88,1385.02 1317.21,1385.02 1317.54,1385.01 1317.87,1385.01 1318.2,1385.01 1318.54,1385 1318.87,1385 1319.21,1385 1319.54,1384.99 1319.88,1384.99 1320.22,1384.99 1320.56,1384.98 1320.9,1384.98 1321.24,1384.98 1321.58,1384.97 1321.93,1384.97 1322.27,1384.97 1322.62,1384.96 1322.97,1384.96 1323.32,1384.95 1323.67,1384.95 1324.02,1384.95 1324.37,1384.94 1324.73,1384.94 1325.08,1384.94 1325.44,1384.93 1325.8,1384.93 1326.16,1384.92 1326.52,1384.92 1326.88,1384.92 1327.25,1384.91 1327.61,1384.91 1327.98,1384.9 1328.35,1384.9 1328.72,1384.9 1329.09,1384.89 1329.47,1384.89 1329.84,1384.88 1330.22,1384.88 1330.6,1384.87 1330.98,1384.87 1331.36,1384.87 1331.74,1384.86 1332.13,1384.86 1332.51,1384.85 1332.9,1384.85 1333.29,1384.84 1333.69,1384.84 1334.08,1384.83 1334.48,1384.83 1334.87,1384.82 1335.27,1384.82 1335.68,1384.81 1336.08,1384.81 1336.48,1384.8 1336.89,1384.8 1337.3,1384.79 1337.71,1384.79 1338.13,1384.78 1338.55,1384.78 1338.96,1384.77 1339.38,1384.76 1339.81,1384.76 1340.23,1384.75 1340.66,1384.75 1341.09,1384.74 1341.52,1384.74 1341.96,1384.73 1342.39,1384.72 1342.83,1384.72 1343.27,1384.71 1343.72,1384.71 1344.16,1384.7 1344.61,1384.69 1345.07,1384.69 1345.52,1384.68 1345.98,1384.67 1346.44,1384.67 1346.9,1384.66 1347.36,1384.65 1347.83,1384.64 1348.3,1384.64 1348.78,1384.63 1349.26,1384.62 1349.74,1384.61 1350.22,1384.61 1350.7,1384.6 1351.19,1384.59 1351.69,1384.58 1352.18,1384.58 1352.68,1384.57 1353.18,1384.56 1353.69,1384.55 1354.2,1384.55 1354.71,1384.54 1355.23,1384.53 1355.74,1384.52 1356.27,1384.51 1356.79,1384.5 1357.32,1384.49 1357.86,1384.49 1358.4,1384.48 1358.94,1384.47 1359.48,1384.46 1360.03,1384.45 1360.59,1384.44 1361.14,1384.43 1361.71,1384.42 1362.27,1384.41 1362.84,1384.4 1363.42,1384.39 1364,1384.37 1364.58,1384.36 1365.17,1384.35 1365.76,1384.34 1366.36,1384.33 1366.96,1384.32 1367.57,1384.31 1368.18,1384.29 1368.8,1384.28 1369.42,1384.27 1370.05,1384.25 1370.68,1384.24 1371.32,1384.22 1371.96,1384.21 1372.61,1384.19 1373.26,1384.18 1373.92,1384.17 1374.59,1384.15 1375.26,1384.14 1375.94,1384.12 1376.62,1384.1 1377.31,1384.09 1378.01,1384.07 1378.71,1384.05 1379.42,1384.03 1380.13,1384.01 1380.85,1384 1381.58,1383.98 1382.32,1383.96 1383.06,1383.94 1383.81,1383.92 1384.57,1383.9 1385.33,1383.88 1386.1,1383.85 1386.88,1383.82 1387.67,1383.8 1388.47,1383.78 1389.27,1383.76 1390.08,1383.74 1390.9,1383.72 1391.73,1383.69 1392.57,1383.66 1393.42,1383.63 1394.27,1383.6 1395.14,1383.58 1396.01,1383.55 1396.9,1383.52 1397.79,1383.48 1398.69,1383.44 1399.61,1383.4 1400.53,1383.36 1401.46,1383.32 1402.41,1383.28 1403.37,1383.24 1404.33,1383.19 1405.31,1383.14 1406.3,1383.09 1407.3,1383.04 1408.32,1382.99 1409.34,1382.94 1410.38,1382.89 1411.44,1382.85 1412.5,1382.8 1413.58,1382.74 1414.67,1382.69 1415.78,1382.63 1416.9,1382.55 1418.03,1382.47 1419.19,1382.39 1420.35,1382.31 1421.53,1382.22 1422.73,1382.14 1423.94,1382.05 1425.17,1381.95 1426.42,1381.84 1427.68,1381.73 1428.97,1381.61 1430.27,1381.47 1431.59,1381.32 1432.92,1381.17 1434.28,1381.01 1435.66,1380.84 1437.06,1380.67 1438.48,1380.5 1439.92,1380.32 1441.38,1380.1 1442.87,1379.87 1444.38,1379.54 1445.91,1379.19 1447.47,1378.89 1449.05,1378.55 1450.66,1378.13 1452.3,1377.64 1453.96,1377.15 1455.65,1376.62 1457.37,1376.12 1459.12,1375.49 1460.9,1374.77 1462.71,1374.17 1464.55,1373.21 1466.42,1372.28 1468.33,1371.31 1470.27,1370.04 1472.25,1368.96 1474.27,1367.68 1476.32,1365.38 1478.42,1363.45 1480.55,1361.49 1482.72,1358.55 1484.94,1355.63 1487.2,1352.1 1489.51,1347.19 1491.86,1341.81 1494.26,1335.19 1496.72,1327.35 1499.22,1320.88 1501.78,1312.2 1504.39,1301.48 1507.06,1285.4 1509.79,1263.45 1512.58,1246.99 1515.43,1230.74 1518.35,1210.19 1521.34,1184.08 1524.4,1151.81 1527.53,1113.47 1530.74,1058.55 1534.02,1001.85 1537.39,959.707 1540.84,907.067 1544.38,854.701 1548.01,777.801 1551.74,731.77 1555.57,673.453 1559.5,553.701 1563.54,485.918 1567.69,440.135 1571.96,468.972 1576.35,440.187 1580.87,366.084 1585.52,247.169 1590.32,234.767 1595.26,214.201 1600.36,160.256 1605.61,205.219 1611.04,168.612 1616.64,172.723 1622.43,239.866 1628.41,264.631 1634.61,300.137 1641.02,342.804 1647.66,373.304 1654.54,417.786 1661.68,470.484 1669.09,520.083 1676.78,617.84 1684.78,664.473 1693.11,757.083 1701.77,814.03 1710.8,933.024 1720.22,1026.49 1730.06,1078.85 1740.33,1152.33 1751.08,1207.72 1762.34,1251.79 1774.14,1278.31 1786.53,1309.99 1799.54,1331.86 1813.24,1347.44 1827.67,1356.48 1842.9,1364.31 1859,1369.83 1876.03,1373.85 1894.09,1376.35 1913.28,1378.75 1933.69,1380.62 1955.46,1381.97 1978.73,1382.84 2003.65,1383.59 2030.41,1384.16 2059.22,1384.59 2090.33,1384.92 2124.02,1385.2 2160.64,1385.44 2200.57,1385.58 2244.3,1385.74 2292.39,1385.95 "></polyline>
<circle clip-path="url(#clip592)" cx="1571.53" cy="1386.4" r="14.4" fill="#ff0000" fill-rule="evenodd" fill-opacity="1" stroke="#000000" stroke-opacity="1" stroke-width="3.2"></circle>
<circle clip-path="url(#clip592)" cx="1697.02" cy="1386.4" r="14.4" fill="#ff0000" fill-rule="evenodd" fill-opacity="1" stroke="#000000" stroke-opacity="1" stroke-width="3.2"></circle>
<path clip-path="url(#clip590)" d="M1623.1 322.316 L2281.66 322.316 L2281.66 166.796 L1623.1 166.796  Z" fill="#ffffff" fill-rule="evenodd" fill-opacity="1"></path>
<polyline clip-path="url(#clip590)" style="stroke:#000000; stroke-linecap:round; stroke-linejoin:round; stroke-width:4; stroke-opacity:1; fill:none" points="1623.1,322.316 2281.66,322.316 2281.66,166.796 1623.1,166.796 1623.1,322.316 "></polyline>
<polyline clip-path="url(#clip590)" style="stroke:#009af9; stroke-linecap:round; stroke-linejoin:round; stroke-width:4; stroke-opacity:1; fill:none" points="1646.79,218.636 1788.99,218.636 "></polyline>
<path clip-path="url(#clip590)" d="M1827.87 213.971 Q1827.15 213.555 1826.3 213.37 Q1825.46 213.161 1824.44 213.161 Q1820.83 213.161 1818.89 215.522 Q1816.97 217.86 1816.97 222.258 L1816.97 235.916 L1812.69 235.916 L1812.69 209.99 L1816.97 209.99 L1816.97 214.018 Q1818.31 211.657 1820.46 210.522 Q1822.62 209.365 1825.69 209.365 Q1826.13 209.365 1826.67 209.434 Q1827.2 209.481 1827.85 209.596 L1827.87 213.971 Z" fill="#000000" fill-rule="nonzero" fill-opacity="1"></path><path clip-path="url(#clip590)" d="M1853.47 221.888 L1853.47 223.971 L1833.89 223.971 Q1834.17 228.369 1836.53 230.684 Q1838.91 232.976 1843.15 232.976 Q1845.6 232.976 1847.89 232.374 Q1850.21 231.772 1852.48 230.569 L1852.48 234.596 Q1850.19 235.568 1847.78 236.078 Q1845.37 236.587 1842.89 236.587 Q1836.69 236.587 1833.06 232.976 Q1829.44 229.365 1829.44 223.207 Q1829.44 216.842 1832.87 213.115 Q1836.32 209.365 1842.15 209.365 Q1847.38 209.365 1850.42 212.745 Q1853.47 216.101 1853.47 221.888 M1849.21 220.638 Q1849.17 217.143 1847.25 215.059 Q1845.35 212.976 1842.2 212.976 Q1838.63 212.976 1836.48 214.99 Q1834.35 217.004 1834.03 220.661 L1849.21 220.638 Z" fill="#000000" fill-rule="nonzero" fill-opacity="1"></path><path clip-path="url(#clip590)" d="M1879.12 210.985 L1879.12 214.967 Q1877.31 213.971 1875.49 213.485 Q1873.68 212.976 1871.83 212.976 Q1867.69 212.976 1865.39 215.615 Q1863.1 218.231 1863.1 222.976 Q1863.1 227.721 1865.39 230.36 Q1867.69 232.976 1871.83 232.976 Q1873.68 232.976 1875.49 232.49 Q1877.31 231.981 1879.12 230.985 L1879.12 234.92 Q1877.34 235.754 1875.42 236.17 Q1873.52 236.587 1871.37 236.587 Q1865.51 236.587 1862.06 232.906 Q1858.61 229.226 1858.61 222.976 Q1858.61 216.633 1862.08 212.999 Q1865.58 209.365 1871.64 209.365 Q1873.61 209.365 1875.49 209.782 Q1877.36 210.175 1879.12 210.985 Z" fill="#000000" fill-rule="nonzero" fill-opacity="1"></path><path clip-path="url(#clip590)" d="M1896.57 212.976 Q1893.15 212.976 1891.16 215.661 Q1889.17 218.323 1889.17 222.976 Q1889.17 227.629 1891.13 230.314 Q1893.12 232.976 1896.57 232.976 Q1899.98 232.976 1901.97 230.291 Q1903.96 227.606 1903.96 222.976 Q1903.96 218.37 1901.97 215.684 Q1899.98 212.976 1896.57 212.976 M1896.57 209.365 Q1902.13 209.365 1905.3 212.976 Q1908.47 216.587 1908.47 222.976 Q1908.47 229.342 1905.3 232.976 Q1902.13 236.587 1896.57 236.587 Q1891 236.587 1887.82 232.976 Q1884.68 229.342 1884.68 222.976 Q1884.68 216.587 1887.82 212.976 Q1891 209.365 1896.57 209.365 Z" fill="#000000" fill-rule="nonzero" fill-opacity="1"></path><path clip-path="url(#clip590)" d="M1937.08 220.268 L1937.08 235.916 L1932.82 235.916 L1932.82 220.407 Q1932.82 216.726 1931.39 214.897 Q1929.95 213.069 1927.08 213.069 Q1923.63 213.069 1921.64 215.268 Q1919.65 217.467 1919.65 221.263 L1919.65 235.916 L1915.37 235.916 L1915.37 209.99 L1919.65 209.99 L1919.65 214.018 Q1921.18 211.68 1923.24 210.522 Q1925.32 209.365 1928.03 209.365 Q1932.5 209.365 1934.79 212.143 Q1937.08 214.897 1937.08 220.268 Z" fill="#000000" fill-rule="nonzero" fill-opacity="1"></path><path clip-path="url(#clip590)" d="M1962.11 210.754 L1962.11 214.782 Q1960.3 213.856 1958.36 213.393 Q1956.41 212.93 1954.33 212.93 Q1951.16 212.93 1949.56 213.902 Q1947.99 214.874 1947.99 216.819 Q1947.99 218.3 1949.12 219.157 Q1950.25 219.99 1953.68 220.754 L1955.14 221.078 Q1959.68 222.05 1961.57 223.832 Q1963.49 225.592 1963.49 228.763 Q1963.49 232.374 1960.62 234.481 Q1957.78 236.587 1952.78 236.587 Q1950.69 236.587 1948.43 236.17 Q1946.18 235.777 1943.68 234.967 L1943.68 230.569 Q1946.04 231.795 1948.33 232.42 Q1950.62 233.022 1952.87 233.022 Q1955.88 233.022 1957.5 232.004 Q1959.12 230.962 1959.12 229.087 Q1959.12 227.351 1957.94 226.425 Q1956.78 225.499 1952.82 224.643 L1951.34 224.295 Q1947.38 223.462 1945.62 221.749 Q1943.87 220.013 1943.87 217.004 Q1943.87 213.346 1946.46 211.356 Q1949.05 209.365 1953.82 209.365 Q1956.18 209.365 1958.26 209.712 Q1960.35 210.059 1962.11 210.754 Z" fill="#000000" fill-rule="nonzero" fill-opacity="1"></path><path clip-path="url(#clip590)" d="M1974.49 202.629 L1974.49 209.99 L1983.26 209.99 L1983.26 213.3 L1974.49 213.3 L1974.49 227.374 Q1974.49 230.545 1975.35 231.448 Q1976.23 232.351 1978.89 232.351 L1983.26 232.351 L1983.26 235.916 L1978.89 235.916 Q1973.96 235.916 1972.08 234.087 Q1970.21 232.235 1970.21 227.374 L1970.21 213.3 L1967.08 213.3 L1967.08 209.99 L1970.21 209.99 L1970.21 202.629 L1974.49 202.629 Z" fill="#000000" fill-rule="nonzero" fill-opacity="1"></path><path clip-path="url(#clip590)" d="M2003.89 213.971 Q2003.17 213.555 2002.31 213.37 Q2001.48 213.161 2000.46 213.161 Q1996.85 213.161 1994.91 215.522 Q1992.99 217.86 1992.99 222.258 L1992.99 235.916 L1988.7 235.916 L1988.7 209.99 L1992.99 209.99 L1992.99 214.018 Q1994.33 211.657 1996.48 210.522 Q1998.63 209.365 2001.71 209.365 Q2002.15 209.365 2002.68 209.434 Q2003.22 209.481 2003.86 209.596 L2003.89 213.971 Z" fill="#000000" fill-rule="nonzero" fill-opacity="1"></path><path clip-path="url(#clip590)" d="M2007.92 225.684 L2007.92 209.99 L2012.18 209.99 L2012.18 225.522 Q2012.18 229.203 2013.61 231.055 Q2015.05 232.883 2017.92 232.883 Q2021.36 232.883 2023.36 230.684 Q2025.37 228.485 2025.37 224.689 L2025.37 209.99 L2029.63 209.99 L2029.63 235.916 L2025.37 235.916 L2025.37 231.934 Q2023.82 234.295 2021.76 235.453 Q2019.72 236.587 2017.01 236.587 Q2012.55 236.587 2010.23 233.809 Q2007.92 231.031 2007.92 225.684 M2018.63 209.365 L2018.63 209.365 Z" fill="#000000" fill-rule="nonzero" fill-opacity="1"></path><path clip-path="url(#clip590)" d="M2057.06 210.985 L2057.06 214.967 Q2055.25 213.971 2053.42 213.485 Q2051.62 212.976 2049.77 212.976 Q2045.62 212.976 2043.33 215.615 Q2041.04 218.231 2041.04 222.976 Q2041.04 227.721 2043.33 230.36 Q2045.62 232.976 2049.77 232.976 Q2051.62 232.976 2053.42 232.49 Q2055.25 231.981 2057.06 230.985 L2057.06 234.92 Q2055.28 235.754 2053.36 236.17 Q2051.46 236.587 2049.3 236.587 Q2043.45 236.587 2040 232.906 Q2036.55 229.226 2036.55 222.976 Q2036.55 216.633 2040.02 212.999 Q2043.52 209.365 2049.58 209.365 Q2051.55 209.365 2053.42 209.782 Q2055.3 210.175 2057.06 210.985 Z" fill="#000000" fill-rule="nonzero" fill-opacity="1"></path><path clip-path="url(#clip590)" d="M2068.68 202.629 L2068.68 209.99 L2077.45 209.99 L2077.45 213.3 L2068.68 213.3 L2068.68 227.374 Q2068.68 230.545 2069.54 231.448 Q2070.42 232.351 2073.08 232.351 L2077.45 232.351 L2077.45 235.916 L2073.08 235.916 Q2068.15 235.916 2066.27 234.087 Q2064.4 232.235 2064.4 227.374 L2064.4 213.3 L2061.27 213.3 L2061.27 209.99 L2064.4 209.99 L2064.4 202.629 L2068.68 202.629 Z" fill="#000000" fill-rule="nonzero" fill-opacity="1"></path><path clip-path="url(#clip590)" d="M2105.23 221.888 L2105.23 223.971 L2085.65 223.971 Q2085.92 228.369 2088.29 230.684 Q2090.67 232.976 2094.91 232.976 Q2097.36 232.976 2099.65 232.374 Q2101.97 231.772 2104.23 230.569 L2104.23 234.596 Q2101.94 235.568 2099.54 236.078 Q2097.13 236.587 2094.65 236.587 Q2088.45 236.587 2084.81 232.976 Q2081.2 229.365 2081.2 223.207 Q2081.2 216.842 2084.63 213.115 Q2088.08 209.365 2093.91 209.365 Q2099.14 209.365 2102.17 212.745 Q2105.23 216.101 2105.23 221.888 M2100.97 220.638 Q2100.92 217.143 2099 215.059 Q2097.11 212.976 2093.96 212.976 Q2090.39 212.976 2088.24 214.99 Q2086.11 217.004 2085.79 220.661 L2100.97 220.638 Z" fill="#000000" fill-rule="nonzero" fill-opacity="1"></path><path clip-path="url(#clip590)" d="M2129.28 213.925 L2129.28 199.897 L2133.54 199.897 L2133.54 235.916 L2129.28 235.916 L2129.28 232.027 Q2127.94 234.342 2125.88 235.476 Q2123.84 236.587 2120.97 236.587 Q2116.27 236.587 2113.31 232.837 Q2110.37 229.087 2110.37 222.976 Q2110.37 216.865 2113.31 213.115 Q2116.27 209.365 2120.97 209.365 Q2123.84 209.365 2125.88 210.499 Q2127.94 211.61 2129.28 213.925 M2114.77 222.976 Q2114.77 227.675 2116.69 230.36 Q2118.63 233.022 2122.01 233.022 Q2125.39 233.022 2127.34 230.36 Q2129.28 227.675 2129.28 222.976 Q2129.28 218.277 2127.34 215.615 Q2125.39 212.93 2122.01 212.93 Q2118.63 212.93 2116.69 215.615 Q2114.77 218.277 2114.77 222.976 Z" fill="#000000" fill-rule="nonzero" fill-opacity="1"></path><path clip-path="url(#clip590)" d="M2169.12 205.962 L2162.78 223.161 L2175.48 223.161 L2169.12 205.962 M2166.48 201.356 L2171.78 201.356 L2184.95 235.916 L2180.09 235.916 L2176.94 227.05 L2161.36 227.05 L2158.22 235.916 L2153.29 235.916 L2166.48 201.356 Z" fill="#000000" fill-rule="nonzero" fill-opacity="1"></path><path clip-path="url(#clip590)" d="M2200.04 199.944 Q2196.94 205.268 2195.44 210.476 Q2193.93 215.684 2193.93 221.032 Q2193.93 226.379 2195.44 231.633 Q2196.97 236.865 2200.04 242.166 L2196.34 242.166 Q2192.87 236.726 2191.13 231.471 Q2189.42 226.217 2189.42 221.032 Q2189.42 215.87 2191.13 210.638 Q2192.85 205.407 2196.34 199.944 L2200.04 199.944 Z" fill="#000000" fill-rule="nonzero" fill-opacity="1"></path><path clip-path="url(#clip590)" d="M2216.57 236.587 Q2206.97 236.587 2206.97 222.837 Q2206.97 217.397 2210.55 209.99 L2215.14 209.99 Q2211.83 217.397 2211.83 222.953 Q2211.83 232.976 2216.97 232.976 Q2221.66 232.976 2221.66 220.522 L2225.6 220.522 Q2225.6 232.976 2230.3 232.976 Q2235.44 232.976 2235.44 222.953 Q2235.44 217.397 2232.13 209.99 L2236.71 209.99 Q2240.3 217.397 2240.3 222.837 Q2240.3 236.587 2230.69 236.587 Q2224.4 236.587 2223.63 229.666 Q2222.68 236.587 2216.57 236.587 Z" fill="#000000" fill-rule="nonzero" fill-opacity="1"></path><path clip-path="url(#clip590)" d="M2247.34 199.944 L2251.04 199.944 Q2254.51 205.407 2256.22 210.638 Q2257.96 215.87 2257.96 221.032 Q2257.96 226.217 2256.22 231.471 Q2254.51 236.726 2251.04 242.166 L2247.34 242.166 Q2250.41 236.865 2251.92 231.633 Q2253.45 226.379 2253.45 221.032 Q2253.45 215.684 2251.92 210.476 Q2250.41 205.268 2247.34 199.944 Z" fill="#000000" fill-rule="nonzero" fill-opacity="1"></path><circle clip-path="url(#clip590)" cx="1717.89" cy="270.476" r="20.48" fill="#ff0000" fill-rule="evenodd" fill-opacity="1" stroke="#000000" stroke-opacity="1" stroke-width="4.55111"></circle>
<path clip-path="url(#clip590)" d="M1824.58 264.816 Q1821.16 264.816 1819.17 267.501 Q1817.18 270.163 1817.18 274.816 Q1817.18 279.469 1819.14 282.154 Q1821.13 284.816 1824.58 284.816 Q1827.99 284.816 1829.98 282.131 Q1831.97 279.446 1831.97 274.816 Q1831.97 270.21 1829.98 267.524 Q1827.99 264.816 1824.58 264.816 M1824.58 261.205 Q1830.14 261.205 1833.31 264.816 Q1836.48 268.427 1836.48 274.816 Q1836.48 281.182 1833.31 284.816 Q1830.14 288.427 1824.58 288.427 Q1819 288.427 1815.83 284.816 Q1812.69 281.182 1812.69 274.816 Q1812.69 268.427 1815.83 264.816 Q1819 261.205 1824.58 261.205 Z" fill="#000000" fill-rule="nonzero" fill-opacity="1"></path><path clip-path="url(#clip590)" d="M1858.56 265.811 Q1857.85 265.395 1856.99 265.21 Q1856.16 265.001 1855.14 265.001 Q1851.53 265.001 1849.58 267.362 Q1847.66 269.7 1847.66 274.098 L1847.66 287.756 L1843.38 287.756 L1843.38 261.83 L1847.66 261.83 L1847.66 265.858 Q1849 263.497 1851.16 262.362 Q1853.31 261.205 1856.39 261.205 Q1856.83 261.205 1857.36 261.274 Q1857.89 261.321 1858.54 261.436 L1858.56 265.811 Z" fill="#000000" fill-rule="nonzero" fill-opacity="1"></path><path clip-path="url(#clip590)" d="M1863.03 261.83 L1867.29 261.83 L1867.29 287.756 L1863.03 287.756 L1863.03 261.83 M1863.03 251.737 L1867.29 251.737 L1867.29 257.131 L1863.03 257.131 L1863.03 251.737 Z" fill="#000000" fill-rule="nonzero" fill-opacity="1"></path><path clip-path="url(#clip590)" d="M1893.26 274.492 Q1893.26 269.862 1891.34 267.316 Q1889.44 264.77 1886 264.77 Q1882.57 264.77 1880.65 267.316 Q1878.75 269.862 1878.75 274.492 Q1878.75 279.098 1880.65 281.645 Q1882.57 284.191 1886 284.191 Q1889.44 284.191 1891.34 281.645 Q1893.26 279.098 1893.26 274.492 M1897.52 284.538 Q1897.52 291.158 1894.58 294.376 Q1891.64 297.617 1885.58 297.617 Q1883.33 297.617 1881.34 297.27 Q1879.35 296.945 1877.48 296.251 L1877.48 292.108 Q1879.35 293.126 1881.18 293.612 Q1883.01 294.098 1884.91 294.098 Q1889.1 294.098 1891.18 291.899 Q1893.26 289.723 1893.26 285.302 L1893.26 283.196 Q1891.94 285.487 1889.88 286.621 Q1887.82 287.756 1884.95 287.756 Q1880.19 287.756 1877.27 284.121 Q1874.35 280.487 1874.35 274.492 Q1874.35 268.473 1877.27 264.839 Q1880.19 261.205 1884.95 261.205 Q1887.82 261.205 1889.88 262.339 Q1891.94 263.473 1893.26 265.765 L1893.26 261.83 L1897.52 261.83 L1897.52 284.538 Z" fill="#000000" fill-rule="nonzero" fill-opacity="1"></path><path clip-path="url(#clip590)" d="M1906.3 261.83 L1910.56 261.83 L1910.56 287.756 L1906.3 287.756 L1906.3 261.83 M1906.3 251.737 L1910.56 251.737 L1910.56 257.131 L1906.3 257.131 L1906.3 251.737 Z" fill="#000000" fill-rule="nonzero" fill-opacity="1"></path><path clip-path="url(#clip590)" d="M1941.02 272.108 L1941.02 287.756 L1936.76 287.756 L1936.76 272.247 Q1936.76 268.566 1935.32 266.737 Q1933.89 264.909 1931.02 264.909 Q1927.57 264.909 1925.58 267.108 Q1923.59 269.307 1923.59 273.103 L1923.59 287.756 L1919.31 287.756 L1919.31 261.83 L1923.59 261.83 L1923.59 265.858 Q1925.12 263.52 1927.18 262.362 Q1929.26 261.205 1931.97 261.205 Q1936.43 261.205 1938.73 263.983 Q1941.02 266.737 1941.02 272.108 Z" fill="#000000" fill-rule="nonzero" fill-opacity="1"></path><path clip-path="url(#clip590)" d="M1961.3 274.723 Q1956.13 274.723 1954.14 275.904 Q1952.15 277.084 1952.15 279.932 Q1952.15 282.2 1953.63 283.543 Q1955.14 284.862 1957.71 284.862 Q1961.25 284.862 1963.38 282.362 Q1965.53 279.839 1965.53 275.672 L1965.53 274.723 L1961.3 274.723 M1969.79 272.964 L1969.79 287.756 L1965.53 287.756 L1965.53 283.821 Q1964.07 286.182 1961.9 287.316 Q1959.72 288.427 1956.57 288.427 Q1952.59 288.427 1950.23 286.205 Q1947.89 283.959 1947.89 280.209 Q1947.89 275.834 1950.81 273.612 Q1953.75 271.39 1959.56 271.39 L1965.53 271.39 L1965.53 270.973 Q1965.53 268.034 1963.59 266.436 Q1961.67 264.816 1958.17 264.816 Q1955.95 264.816 1953.84 265.348 Q1951.74 265.881 1949.79 266.946 L1949.79 263.01 Q1952.13 262.108 1954.33 261.668 Q1956.53 261.205 1958.61 261.205 Q1964.24 261.205 1967.01 264.122 Q1969.79 267.038 1969.79 272.964 Z" fill="#000000" fill-rule="nonzero" fill-opacity="1"></path><path clip-path="url(#clip590)" d="M1978.56 251.737 L1982.82 251.737 L1982.82 287.756 L1978.56 287.756 L1978.56 251.737 Z" fill="#000000" fill-rule="nonzero" fill-opacity="1"></path><path clip-path="url(#clip590)" d="M2010.93 283.867 L2010.93 297.617 L2006.64 297.617 L2006.64 261.83 L2010.93 261.83 L2010.93 265.765 Q2012.27 263.45 2014.3 262.339 Q2016.36 261.205 2019.21 261.205 Q2023.93 261.205 2026.87 264.955 Q2029.84 268.705 2029.84 274.816 Q2029.84 280.927 2026.87 284.677 Q2023.93 288.427 2019.21 288.427 Q2016.36 288.427 2014.3 287.316 Q2012.27 286.182 2010.93 283.867 M2025.42 274.816 Q2025.42 270.117 2023.47 267.455 Q2021.55 264.77 2018.17 264.77 Q2014.79 264.77 2012.85 267.455 Q2010.93 270.117 2010.93 274.816 Q2010.93 279.515 2012.85 282.2 Q2014.79 284.862 2018.17 284.862 Q2021.55 284.862 2023.47 282.2 Q2025.42 279.515 2025.42 274.816 Z" fill="#000000" fill-rule="nonzero" fill-opacity="1"></path><path clip-path="url(#clip590)" d="M2046.94 264.816 Q2043.52 264.816 2041.53 267.501 Q2039.54 270.163 2039.54 274.816 Q2039.54 279.469 2041.5 282.154 Q2043.49 284.816 2046.94 284.816 Q2050.35 284.816 2052.34 282.131 Q2054.33 279.446 2054.33 274.816 Q2054.33 270.21 2052.34 267.524 Q2050.35 264.816 2046.94 264.816 M2046.94 261.205 Q2052.5 261.205 2055.67 264.816 Q2058.84 268.427 2058.84 274.816 Q2058.84 281.182 2055.67 284.816 Q2052.5 288.427 2046.94 288.427 Q2041.36 288.427 2038.19 284.816 Q2035.05 281.182 2035.05 274.816 Q2035.05 268.427 2038.19 264.816 Q2041.36 261.205 2046.94 261.205 Z" fill="#000000" fill-rule="nonzero" fill-opacity="1"></path><path clip-path="url(#clip590)" d="M2065.9 251.737 L2070.16 251.737 L2070.16 287.756 L2065.9 287.756 L2065.9 251.737 Z" fill="#000000" fill-rule="nonzero" fill-opacity="1"></path><path clip-path="url(#clip590)" d="M2101.25 273.728 L2101.25 275.811 L2081.67 275.811 Q2081.94 280.209 2084.3 282.524 Q2086.69 284.816 2090.92 284.816 Q2093.38 284.816 2095.67 284.214 Q2097.98 283.612 2100.25 282.409 L2100.25 286.436 Q2097.96 287.408 2095.55 287.918 Q2093.15 288.427 2090.67 288.427 Q2084.47 288.427 2080.83 284.816 Q2077.22 281.205 2077.22 275.047 Q2077.22 268.682 2080.65 264.955 Q2084.1 261.205 2089.93 261.205 Q2095.16 261.205 2098.19 264.585 Q2101.25 267.941 2101.25 273.728 M2096.99 272.478 Q2096.94 268.983 2095.02 266.899 Q2093.12 264.816 2089.98 264.816 Q2086.41 264.816 2084.26 266.83 Q2082.13 268.844 2081.8 272.501 L2096.99 272.478 Z" fill="#000000" fill-rule="nonzero" fill-opacity="1"></path><path clip-path="url(#clip590)" d="M2124.77 262.594 L2124.77 266.622 Q2122.96 265.696 2121.02 265.233 Q2119.07 264.77 2116.99 264.77 Q2113.82 264.77 2112.22 265.742 Q2110.65 266.714 2110.65 268.659 Q2110.65 270.14 2111.78 270.997 Q2112.92 271.83 2116.34 272.594 L2117.8 272.918 Q2122.34 273.89 2124.23 275.672 Q2126.16 277.432 2126.16 280.603 Q2126.16 284.214 2123.29 286.321 Q2120.44 288.427 2115.44 288.427 Q2113.36 288.427 2111.09 288.01 Q2108.84 287.617 2106.34 286.807 L2106.34 282.409 Q2108.7 283.635 2110.99 284.26 Q2113.29 284.862 2115.53 284.862 Q2118.54 284.862 2120.16 283.844 Q2121.78 282.802 2121.78 280.927 Q2121.78 279.191 2120.6 278.265 Q2119.44 277.339 2115.48 276.483 L2114 276.135 Q2110.04 275.302 2108.29 273.589 Q2106.53 271.853 2106.53 268.844 Q2106.53 265.186 2109.12 263.196 Q2111.71 261.205 2116.48 261.205 Q2118.84 261.205 2120.92 261.552 Q2123.01 261.899 2124.77 262.594 Z" fill="#000000" fill-rule="nonzero" fill-opacity="1"></path></svg>