<svg xmlns="http://www.w3.org/2000/svg" xmlns:xlink="http://www.w3.org/1999/xlink" width="600" height="400" viewBox="0 0 2400 1600">
<defs>
  <clipPath id="clip360">
    <rect x="0" y="0" width="2400" height="1600"></rect>
  </clipPath>
</defs>
<path clip-path="url(#clip360)" d="M0 1600 L2400 1600 L2400 8.88178e-14 L0 8.88178e-14  Z" fill="#ffffff" fill-rule="evenodd" fill-opacity="1"></path>
<defs>
  <clipPath id="clip361">
    <rect x="480" y="0" width="1681" height="1600"></rect>
  </clipPath>
</defs>
<path clip-path="url(#clip360)" d="M175.445 1423.18 L2352.76 1423.18 L2352.76 123.472 L175.445 123.472  Z" fill="#ffffff" fill-rule="evenodd" fill-opacity="1"></path>
<defs>
  <clipPath id="clip362">
    <rect x="175" y="123" width="2178" height="1301"></rect>
  </clipPath>
</defs>
<polyline clip-path="url(#clip362)" style="stroke:#000000; stroke-linecap:round; stroke-linejoin:round; stroke-width:2; stroke-opacity:0.1; fill:none" points="442.474,1423.18 442.474,123.472 "></polyline>
<polyline clip-path="url(#clip362)" style="stroke:#000000; stroke-linecap:round; stroke-linejoin:round; stroke-width:2; stroke-opacity:0.1; fill:none" points="853.287,1423.18 853.287,123.472 "></polyline>
<polyline clip-path="url(#clip362)" style="stroke:#000000; stroke-linecap:round; stroke-linejoin:round; stroke-width:2; stroke-opacity:0.1; fill:none" points="1264.1,1423.18 1264.1,123.472 "></polyline>
<polyline clip-path="url(#clip362)" style="stroke:#000000; stroke-linecap:round; stroke-linejoin:round; stroke-width:2; stroke-opacity:0.1; fill:none" points="1674.91,1423.18 1674.91,123.472 "></polyline>
<polyline clip-path="url(#clip362)" style="stroke:#000000; stroke-linecap:round; stroke-linejoin:round; stroke-width:2; stroke-opacity:0.1; fill:none" points="2085.73,1423.18 2085.73,123.472 "></polyline>
<polyline clip-path="url(#clip362)" style="stroke:#000000; stroke-linecap:round; stroke-linejoin:round; stroke-width:2; stroke-opacity:0.1; fill:none" points="175.445,1386.4 2352.76,1386.4 "></polyline>
<polyline clip-path="url(#clip362)" style="stroke:#000000; stroke-linecap:round; stroke-linejoin:round; stroke-width:2; stroke-opacity:0.1; fill:none" points="175.445,1154.12 2352.76,1154.12 "></polyline>
<polyline clip-path="url(#clip362)" style="stroke:#000000; stroke-linecap:round; stroke-linejoin:round; stroke-width:2; stroke-opacity:0.1; fill:none" points="175.445,921.84 2352.76,921.84 "></polyline>
<polyline clip-path="url(#clip362)" style="stroke:#000000; stroke-linecap:round; stroke-linejoin:round; stroke-width:2; stroke-opacity:0.1; fill:none" points="175.445,689.562 2352.76,689.562 "></polyline>
<polyline clip-path="url(#clip362)" style="stroke:#000000; stroke-linecap:round; stroke-linejoin:round; stroke-width:2; stroke-opacity:0.1; fill:none" points="175.445,457.285 2352.76,457.285 "></polyline>
<polyline clip-path="url(#clip362)" style="stroke:#000000; stroke-linecap:round; stroke-linejoin:round; stroke-width:2; stroke-opacity:0.1; fill:none" points="175.445,225.007 2352.76,225.007 "></polyline>
<polyline clip-path="url(#clip360)" style="stroke:#000000; stroke-linecap:round; stroke-linejoin:round; stroke-width:4; stroke-opacity:1; fill:none" points="175.445,1423.18 2352.76,1423.18 "></polyline>
<polyline clip-path="url(#clip360)" style="stroke:#000000; stroke-linecap:round; stroke-linejoin:round; stroke-width:4; stroke-opacity:1; fill:none" points="442.474,1423.18 442.474,1404.28 "></polyline>
<polyline clip-path="url(#clip360)" style="stroke:#000000; stroke-linecap:round; stroke-linejoin:round; stroke-width:4; stroke-opacity:1; fill:none" points="853.287,1423.18 853.287,1404.28 "></polyline>
<polyline clip-path="url(#clip360)" style="stroke:#000000; stroke-linecap:round; stroke-linejoin:round; stroke-width:4; stroke-opacity:1; fill:none" points="1264.1,1423.18 1264.1,1404.28 "></polyline>
<polyline clip-path="url(#clip360)" style="stroke:#000000; stroke-linecap:round; stroke-linejoin:round; stroke-width:4; stroke-opacity:1; fill:none" points="1674.91,1423.18 1674.91,1404.28 "></polyline>
<polyline clip-path="url(#clip360)" style="stroke:#000000; stroke-linecap:round; stroke-linejoin:round; stroke-width:4; stroke-opacity:1; fill:none" points="2085.73,1423.18 2085.73,1404.28 "></polyline>
<path clip-path="url(#clip360)" d="M411.375 1468.75 L441.05 1468.75 L441.05 1472.69 L411.375 1472.69 L411.375 1468.75 Z" fill="#000000" fill-rule="nonzero" fill-opacity="1"></path><path clip-path="url(#clip360)" d="M463.99 1455.09 L452.184 1473.54 L463.99 1473.54 L463.99 1455.09 M462.763 1451.02 L468.643 1451.02 L468.643 1473.54 L473.573 1473.54 L473.573 1477.43 L468.643 1477.43 L468.643 1485.58 L463.99 1485.58 L463.99 1477.43 L448.388 1477.43 L448.388 1472.92 L462.763 1451.02 Z" fill="#000000" fill-rule="nonzero" fill-opacity="1"></path><path clip-path="url(#clip360)" d="M823.23 1468.75 L852.905 1468.75 L852.905 1472.69 L823.23 1472.69 L823.23 1468.75 Z" fill="#000000" fill-rule="nonzero" fill-opacity="1"></path><path clip-path="url(#clip360)" d="M867.026 1481.64 L883.345 1481.64 L883.345 1485.58 L861.401 1485.58 L861.401 1481.64 Q864.063 1478.89 868.646 1474.26 Q873.252 1469.61 874.433 1468.27 Q876.678 1465.74 877.558 1464.01 Q878.461 1462.25 878.461 1460.56 Q878.461 1457.8 876.516 1456.07 Q874.595 1454.33 871.493 1454.33 Q869.294 1454.33 866.84 1455.09 Q864.41 1455.86 861.632 1457.41 L861.632 1452.69 Q864.456 1451.55 866.91 1450.97 Q869.364 1450.39 871.401 1450.39 Q876.771 1450.39 879.965 1453.08 Q883.16 1455.77 883.16 1460.26 Q883.16 1462.39 882.35 1464.31 Q881.563 1466.2 879.456 1468.8 Q878.877 1469.47 875.776 1472.69 Q872.674 1475.88 867.026 1481.64 Z" fill="#000000" fill-rule="nonzero" fill-opacity="1"></path><path clip-path="url(#clip360)" d="M1264.1 1454.1 Q1260.49 1454.1 1258.66 1457.66 Q1256.86 1461.2 1256.86 1468.33 Q1256.86 1475.44 1258.66 1479.01 Q1260.49 1482.55 1264.1 1482.55 Q1267.73 1482.55 1269.54 1479.01 Q1271.37 1475.44 1271.37 1468.33 Q1271.37 1461.2 1269.54 1457.66 Q1267.73 1454.1 1264.1 1454.1 M1264.1 1450.39 Q1269.91 1450.39 1272.97 1455 Q1276.04 1459.58 1276.04 1468.33 Q1276.04 1477.06 1272.97 1481.67 Q1269.91 1486.25 1264.1 1486.25 Q1258.29 1486.25 1255.21 1481.67 Q1252.16 1477.06 1252.16 1468.33 Q1252.16 1459.58 1255.21 1455 Q1258.29 1450.39 1264.1 1450.39 Z" fill="#000000" fill-rule="nonzero" fill-opacity="1"></path><path clip-path="url(#clip360)" d="M1669.57 1481.64 L1685.89 1481.64 L1685.89 1485.58 L1663.94 1485.58 L1663.94 1481.64 Q1666.6 1478.89 1671.19 1474.26 Q1675.79 1469.61 1676.97 1468.27 Q1679.22 1465.74 1680.1 1464.01 Q1681 1462.25 1681 1460.56 Q1681 1457.8 1679.06 1456.07 Q1677.14 1454.33 1674.03 1454.33 Q1671.84 1454.33 1669.38 1455.09 Q1666.95 1455.86 1664.17 1457.41 L1664.17 1452.69 Q1667 1451.55 1669.45 1450.97 Q1671.9 1450.39 1673.94 1450.39 Q1679.31 1450.39 1682.51 1453.08 Q1685.7 1455.77 1685.7 1460.26 Q1685.7 1462.39 1684.89 1464.31 Q1684.1 1466.2 1682 1468.8 Q1681.42 1469.47 1678.32 1472.69 Q1675.21 1475.88 1669.57 1481.64 Z" fill="#000000" fill-rule="nonzero" fill-opacity="1"></path><path clip-path="url(#clip360)" d="M2088.74 1455.09 L2076.93 1473.54 L2088.74 1473.54 L2088.74 1455.09 M2087.51 1451.02 L2093.39 1451.02 L2093.39 1473.54 L2098.32 1473.54 L2098.32 1477.43 L2093.39 1477.43 L2093.39 1485.58 L2088.74 1485.58 L2088.74 1477.43 L2073.13 1477.43 L2073.13 1472.92 L2087.51 1451.02 Z" fill="#000000" fill-rule="nonzero" fill-opacity="1"></path><path clip-path="url(#clip360)" d="M1254.39 1568.97 Q1241.18 1568.97 1241.18 1550.06 Q1241.18 1542.58 1246.12 1532.4 L1252.42 1532.4 Q1247.87 1542.58 1247.87 1550.22 Q1247.87 1564 1254.93 1564 Q1261.4 1564 1261.4 1546.88 L1266.81 1546.88 Q1266.81 1564 1273.27 1564 Q1280.33 1564 1280.33 1550.22 Q1280.33 1542.58 1275.78 1532.4 L1282.08 1532.4 Q1287.02 1542.58 1287.02 1550.06 Q1287.02 1568.97 1273.81 1568.97 Q1265.15 1568.97 1264.1 1559.45 Q1262.8 1568.97 1254.39 1568.97 Z" fill="#000000" fill-rule="nonzero" fill-opacity="1"></path><polyline clip-path="url(#clip360)" style="stroke:#000000; stroke-linecap:round; stroke-linejoin:round; stroke-width:4; stroke-opacity:1; fill:none" points="175.445,1423.18 175.445,123.472 "></polyline>
<polyline clip-path="url(#clip360)" style="stroke:#000000; stroke-linecap:round; stroke-linejoin:round; stroke-width:4; stroke-opacity:1; fill:none" points="175.445,1386.4 194.343,1386.4 "></polyline>
<polyline clip-path="url(#clip360)" style="stroke:#000000; stroke-linecap:round; stroke-linejoin:round; stroke-width:4; stroke-opacity:1; fill:none" points="175.445,1154.12 194.343,1154.12 "></polyline>
<polyline clip-path="url(#clip360)" style="stroke:#000000; stroke-linecap:round; stroke-linejoin:round; stroke-width:4; stroke-opacity:1; fill:none" points="175.445,921.84 194.343,921.84 "></polyline>
<polyline clip-path="url(#clip360)" style="stroke:#000000; stroke-linecap:round; stroke-linejoin:round; stroke-width:4; stroke-opacity:1; fill:none" points="175.445,689.562 194.343,689.562 "></polyline>
<polyline clip-path="url(#clip360)" style="stroke:#000000; stroke-linecap:round; stroke-linejoin:round; stroke-width:4; stroke-opacity:1; fill:none" points="175.445,457.285 194.343,457.285 "></polyline>
<polyline clip-path="url(#clip360)" style="stroke:#000000; stroke-linecap:round; stroke-linejoin:round; stroke-width:4; stroke-opacity:1; fill:none" points="175.445,225.007 194.343,225.007 "></polyline>
<path clip-path="url(#clip360)" d="M127.501 1372.19 Q123.89 1372.19 122.061 1375.76 Q120.255 1379.3 120.255 1386.43 Q120.255 1393.54 122.061 1397.1 Q123.89 1400.64 127.501 1400.64 Q131.135 1400.64 132.941 1397.1 Q134.769 1393.54 134.769 1386.43 Q134.769 1379.3 132.941 1375.76 Q131.135 1372.19 127.501 1372.19 M127.501 1368.49 Q133.311 1368.49 136.367 1373.1 Q139.445 1377.68 139.445 1386.43 Q139.445 1395.16 136.367 1399.76 Q133.311 1404.35 127.501 1404.35 Q121.691 1404.35 118.612 1399.76 Q115.556 1395.16 115.556 1386.43 Q115.556 1377.68 118.612 1373.1 Q121.691 1368.49 127.501 1368.49 Z" fill="#000000" fill-rule="nonzero" fill-opacity="1"></path><path clip-path="url(#clip360)" d="M119.538 1167.46 L127.177 1167.46 L127.177 1141.1 L118.867 1142.76 L118.867 1138.5 L127.13 1136.84 L131.806 1136.84 L131.806 1167.46 L139.445 1167.46 L139.445 1171.4 L119.538 1171.4 L119.538 1167.46 Z" fill="#000000" fill-rule="nonzero" fill-opacity="1"></path><path clip-path="url(#clip360)" d="M123.126 935.185 L139.445 935.185 L139.445 939.12 L117.501 939.12 L117.501 935.185 Q120.163 932.43 124.746 927.801 Q129.353 923.148 130.533 921.805 Q132.779 919.282 133.658 917.546 Q134.561 915.787 134.561 914.097 Q134.561 911.343 132.617 909.606 Q130.695 907.87 127.593 907.87 Q125.394 907.87 122.941 908.634 Q120.51 909.398 117.732 910.949 L117.732 906.227 Q120.556 905.093 123.01 904.514 Q125.464 903.935 127.501 903.935 Q132.871 903.935 136.066 906.62 Q139.26 909.306 139.26 913.796 Q139.26 915.926 138.45 917.847 Q137.663 919.745 135.556 922.338 Q134.978 923.009 131.876 926.227 Q128.774 929.421 123.126 935.185 Z" fill="#000000" fill-rule="nonzero" fill-opacity="1"></path><path clip-path="url(#clip360)" d="M132.316 688.208 Q135.672 688.926 137.547 691.194 Q139.445 693.463 139.445 696.796 Q139.445 701.912 135.927 704.713 Q132.408 707.514 125.927 707.514 Q123.751 707.514 121.436 707.074 Q119.144 706.657 116.691 705.801 L116.691 701.287 Q118.635 702.421 120.95 703 Q123.265 703.579 125.788 703.579 Q130.186 703.579 132.478 701.842 Q134.792 700.106 134.792 696.796 Q134.792 693.741 132.64 692.028 Q130.51 690.292 126.691 690.292 L122.663 690.292 L122.663 686.449 L126.876 686.449 Q130.325 686.449 132.154 685.083 Q133.982 683.694 133.982 681.102 Q133.982 678.44 132.084 677.028 Q130.209 675.593 126.691 675.593 Q124.769 675.593 122.57 676.009 Q120.371 676.426 117.732 677.306 L117.732 673.139 Q120.394 672.398 122.709 672.028 Q125.047 671.657 127.107 671.657 Q132.431 671.657 135.533 674.088 Q138.635 676.495 138.635 680.616 Q138.635 683.486 136.992 685.477 Q135.348 687.444 132.316 688.208 Z" fill="#000000" fill-rule="nonzero" fill-opacity="1"></path><path clip-path="url(#clip360)" d="M129.862 444.079 L118.056 462.528 L129.862 462.528 L129.862 444.079 M128.635 440.005 L134.515 440.005 L134.515 462.528 L139.445 462.528 L139.445 466.417 L134.515 466.417 L134.515 474.565 L129.862 474.565 L129.862 466.417 L114.26 466.417 L114.26 461.903 L128.635 440.005 Z" fill="#000000" fill-rule="nonzero" fill-opacity="1"></path><path clip-path="url(#clip360)" d="M118.543 207.727 L136.899 207.727 L136.899 211.662 L122.825 211.662 L122.825 220.134 Q123.843 219.787 124.862 219.625 Q125.88 219.44 126.899 219.44 Q132.686 219.44 136.066 222.611 Q139.445 225.782 139.445 231.199 Q139.445 236.778 135.973 239.88 Q132.501 242.958 126.181 242.958 Q124.005 242.958 121.737 242.588 Q119.492 242.218 117.084 241.477 L117.084 236.778 Q119.168 237.912 121.39 238.468 Q123.612 239.023 126.089 239.023 Q130.093 239.023 132.431 236.917 Q134.769 234.81 134.769 231.199 Q134.769 227.588 132.431 225.482 Q130.093 223.375 126.089 223.375 Q124.214 223.375 122.339 223.792 Q120.487 224.208 118.543 225.088 L118.543 207.727 Z" fill="#000000" fill-rule="nonzero" fill-opacity="1"></path><path clip-path="url(#clip360)" d="M22.818 823.52 L46.4666 832.241 L46.4666 814.767 L22.818 823.52 M16.4842 827.148 L16.4842 819.859 L64.0042 801.749 L64.0042 808.433 L51.8138 812.762 L51.8138 834.182 L64.0042 838.511 L64.0042 845.29 L16.4842 827.148 Z" fill="#000000" fill-rule="nonzero" fill-opacity="1"></path><path clip-path="url(#clip360)" d="M14.5426 780.997 Q21.8632 785.262 29.0246 787.331 Q36.186 789.399 43.5384 789.399 Q50.8908 789.399 58.1159 787.331 Q65.3091 785.23 72.5979 780.997 L72.5979 786.089 Q65.1182 790.864 57.8931 793.251 Q50.668 795.606 43.5384 795.606 Q36.4406 795.606 29.2474 793.251 Q22.0542 790.895 14.5426 786.089 L14.5426 780.997 Z" fill="#000000" fill-rule="nonzero" fill-opacity="1"></path><path clip-path="url(#clip360)" d="M64.9272 758.271 Q64.9272 771.48 46.021 771.48 Q38.5413 771.48 28.3562 766.547 L28.3562 760.244 Q38.5413 764.796 46.1802 764.796 Q59.9619 764.796 59.9619 757.73 Q59.9619 751.269 42.8382 751.269 L42.8382 745.858 Q59.9619 745.858 59.9619 739.397 Q59.9619 732.331 46.1802 732.331 Q38.5413 732.331 28.3562 736.882 L28.3562 730.58 Q38.5413 725.647 46.021 725.647 Q64.9272 725.647 64.9272 738.856 Q64.9272 747.513 55.4105 748.563 Q64.9272 749.868 64.9272 758.271 Z" fill="#000000" fill-rule="nonzero" fill-opacity="1"></path><path clip-path="url(#clip360)" d="M14.5426 715.971 L14.5426 710.878 Q22.0542 706.104 29.2474 703.749 Q36.4406 701.362 43.5384 701.362 Q50.668 701.362 57.8931 703.749 Q65.1182 706.104 72.5979 710.878 L72.5979 715.971 Q65.3091 711.738 58.1159 709.669 Q50.8908 707.568 43.5384 707.568 Q36.186 707.568 29.0246 709.669 Q21.8632 711.738 14.5426 715.971 Z" fill="#000000" fill-rule="nonzero" fill-opacity="1"></path><path clip-path="url(#clip360)" d="M897.008 14.0809 L897.008 22.0612 Q892.349 19.8332 888.217 18.7395 Q884.085 17.6457 880.237 17.6457 Q873.553 17.6457 869.907 20.2383 Q866.302 22.8309 866.302 27.611 Q866.302 31.6214 868.692 33.6873 Q871.122 35.7128 877.847 36.9686 L882.789 37.9813 Q891.944 39.7232 896.278 44.1387 Q900.653 48.5136 900.653 55.8863 Q900.653 64.6767 894.739 69.2137 Q888.865 73.7508 877.482 73.7508 Q873.188 73.7508 868.327 72.7785 Q863.507 71.8063 858.321 69.9024 L858.321 61.4765 Q863.304 64.2716 868.084 65.6895 Q872.864 67.1073 877.482 67.1073 Q884.49 67.1073 888.298 64.3527 Q892.106 61.598 892.106 56.4939 Q892.106 52.0379 889.351 49.5264 Q886.637 47.0148 880.399 45.759 L875.416 44.7868 Q866.261 42.9639 862.17 39.075 Q858.078 35.1862 858.078 28.2591 Q858.078 20.2383 863.709 15.6203 Q869.38 11.0023 879.305 11.0023 Q883.559 11.0023 887.974 11.7719 Q892.39 12.5416 897.008 14.0809 Z" fill="#000000" fill-rule="nonzero" fill-opacity="1"></path><path clip-path="url(#clip360)" d="M920.462 14.324 L920.462 27.2059 L935.815 27.2059 L935.815 32.9987 L920.462 32.9987 L920.462 57.6282 Q920.462 63.1779 921.961 64.7578 Q923.501 66.3376 928.159 66.3376 L935.815 66.3376 L935.815 72.576 L928.159 72.576 Q919.531 72.576 916.249 69.3758 Q912.968 66.1351 912.968 57.6282 L912.968 32.9987 L907.499 32.9987 L907.499 27.2059 L912.968 27.2059 L912.968 14.324 L920.462 14.324 Z" fill="#000000" fill-rule="nonzero" fill-opacity="1"></path><path clip-path="url(#clip360)" d="M963.199 32.4315 Q957.204 32.4315 953.72 37.1306 Q950.236 41.7891 950.236 49.9314 Q950.236 58.0738 953.68 62.7728 Q957.164 67.4314 963.199 67.4314 Q969.154 67.4314 972.638 62.7323 Q976.122 58.0333 976.122 49.9314 Q976.122 41.8701 972.638 37.1711 Q969.154 32.4315 963.199 32.4315 M963.199 26.1121 Q972.922 26.1121 978.471 32.4315 Q984.021 38.7509 984.021 49.9314 Q984.021 61.0714 978.471 67.4314 Q972.922 73.7508 963.199 73.7508 Q953.437 73.7508 947.887 67.4314 Q942.378 61.0714 942.378 49.9314 Q942.378 38.7509 947.887 32.4315 Q953.437 26.1121 963.199 26.1121 Z" fill="#000000" fill-rule="nonzero" fill-opacity="1"></path><path clip-path="url(#clip360)" d="M1029.03 28.9478 L1029.03 35.9153 Q1025.87 34.1734 1022.67 33.3227 Q1019.51 32.4315 1016.27 32.4315 Q1009.02 32.4315 1005 37.0496 Q1000.99 41.6271 1000.99 49.9314 Q1000.99 58.2358 1005 62.8538 Q1009.02 67.4314 1016.27 67.4314 Q1019.51 67.4314 1022.67 66.5807 Q1025.87 65.6895 1029.03 63.9476 L1029.03 70.8341 Q1025.91 72.2924 1022.55 73.0216 Q1019.22 73.7508 1015.46 73.7508 Q1005.21 73.7508 999.171 67.3098 Q993.136 60.8689 993.136 49.9314 Q993.136 38.832 999.212 32.472 Q1005.33 26.1121 1015.94 26.1121 Q1019.39 26.1121 1022.67 26.8413 Q1025.95 27.5299 1029.03 28.9478 Z" fill="#000000" fill-rule="nonzero" fill-opacity="1"></path><path clip-path="url(#clip360)" d="M1079.7 45.1919 L1079.7 72.576 L1072.25 72.576 L1072.25 45.4349 Q1072.25 38.994 1069.74 35.7938 Q1067.23 32.5936 1062.2 32.5936 Q1056.17 32.5936 1052.68 36.4419 Q1049.2 40.2903 1049.2 46.9338 L1049.2 72.576 L1041.71 72.576 L1041.71 9.54393 L1049.2 9.54393 L1049.2 34.2544 Q1051.87 30.163 1055.48 28.1376 Q1059.12 26.1121 1063.86 26.1121 Q1071.68 26.1121 1075.69 30.9732 Q1079.7 35.7938 1079.7 45.1919 Z" fill="#000000" fill-rule="nonzero" fill-opacity="1"></path><path clip-path="url(#clip360)" d="M1115.11 20.1573 L1104.01 50.2555 L1126.25 50.2555 L1115.11 20.1573 M1110.49 12.096 L1119.77 12.096 L1142.82 72.576 L1134.31 72.576 L1128.8 57.061 L1101.54 57.061 L1096.03 72.576 L1087.4 72.576 L1110.49 12.096 Z" fill="#000000" fill-rule="nonzero" fill-opacity="1"></path><path clip-path="url(#clip360)" d="M1195.48 16.7545 L1195.48 25.383 Q1191.35 21.5346 1186.65 19.6307 Q1181.99 17.7268 1176.72 17.7268 Q1166.35 17.7268 1160.84 24.0867 Q1155.33 30.4061 1155.33 42.3968 Q1155.33 54.3469 1160.84 60.7069 Q1166.35 67.0263 1176.72 67.0263 Q1181.99 67.0263 1186.65 65.1223 Q1191.35 63.2184 1195.48 59.3701 L1195.48 67.9175 Q1191.18 70.8341 1186.36 72.2924 Q1181.58 73.7508 1176.24 73.7508 Q1162.5 73.7508 1154.6 65.3654 Q1146.71 56.9395 1146.71 42.3968 Q1146.71 27.8135 1154.6 19.4281 Q1162.5 11.0023 1176.24 11.0023 Q1181.66 11.0023 1186.44 12.4606 Q1191.27 13.8784 1195.48 16.7545 Z" fill="#000000" fill-rule="nonzero" fill-opacity="1"></path><path clip-path="url(#clip360)" d="M1209.7 62.2867 L1218.24 62.2867 L1218.24 69.2543 L1211.6 82.2172 L1206.38 82.2172 L1209.7 69.2543 L1209.7 62.2867 Z" fill="#000000" fill-rule="nonzero" fill-opacity="1"></path><path clip-path="url(#clip360)" d="M1290.39 34.0924 L1290.39 9.54393 L1297.84 9.54393 L1297.84 72.576 L1290.39 72.576 L1290.39 65.7705 Q1288.04 69.8214 1284.44 71.8063 Q1280.87 73.7508 1275.85 73.7508 Q1267.62 73.7508 1262.44 67.1883 Q1257.3 60.6258 1257.3 49.9314 Q1257.3 39.2371 1262.44 32.6746 Q1267.62 26.1121 1275.85 26.1121 Q1280.87 26.1121 1284.44 28.0971 Q1288.04 30.0415 1290.39 34.0924 M1264.99 49.9314 Q1264.99 58.1548 1268.35 62.8538 Q1271.76 67.5124 1277.67 67.5124 Q1283.59 67.5124 1286.99 62.8538 Q1290.39 58.1548 1290.39 49.9314 Q1290.39 41.7081 1286.99 37.0496 Q1283.59 32.3505 1277.67 32.3505 Q1271.76 32.3505 1268.35 37.0496 Q1264.99 41.7081 1264.99 49.9314 Z" fill="#000000" fill-rule="nonzero" fill-opacity="1"></path><path clip-path="url(#clip360)" d="M1352.01 48.0275 L1352.01 51.6733 L1317.73 51.6733 Q1318.22 59.3701 1322.35 63.421 Q1326.52 67.4314 1333.94 67.4314 Q1338.23 67.4314 1342.24 66.3781 Q1346.29 65.3249 1350.26 63.2184 L1350.26 70.267 Q1346.25 71.9684 1342.04 72.8596 Q1337.83 73.7508 1333.49 73.7508 Q1322.64 73.7508 1316.28 67.4314 Q1309.96 61.1119 1309.96 50.3365 Q1309.96 39.1965 1315.95 32.6746 Q1321.99 26.1121 1332.2 26.1121 Q1341.35 26.1121 1346.66 32.0264 Q1352.01 37.9003 1352.01 48.0275 M1344.55 45.84 Q1344.47 39.7232 1341.11 36.0774 Q1337.79 32.4315 1332.28 32.4315 Q1326.04 32.4315 1322.27 35.9558 Q1318.54 39.4801 1317.98 45.8805 L1344.55 45.84 Z" fill="#000000" fill-rule="nonzero" fill-opacity="1"></path><path clip-path="url(#clip360)" d="M1364.24 9.54393 L1371.69 9.54393 L1371.69 72.576 L1364.24 72.576 L1364.24 9.54393 Z" fill="#000000" fill-rule="nonzero" fill-opacity="1"></path><path clip-path="url(#clip360)" d="M1394.66 14.324 L1394.66 27.2059 L1410.01 27.2059 L1410.01 32.9987 L1394.66 32.9987 L1394.66 57.6282 Q1394.66 63.1779 1396.16 64.7578 Q1397.7 66.3376 1402.36 66.3376 L1410.01 66.3376 L1410.01 72.576 L1402.36 72.576 Q1393.73 72.576 1390.45 69.3758 Q1387.17 66.1351 1387.17 57.6282 L1387.17 32.9987 L1381.7 32.9987 L1381.7 27.2059 L1387.17 27.2059 L1387.17 14.324 L1394.66 14.324 Z" fill="#000000" fill-rule="nonzero" fill-opacity="1"></path><path clip-path="url(#clip360)" d="M1440.44 49.7694 Q1431.4 49.7694 1427.92 51.8354 Q1424.44 53.9013 1424.44 58.8839 Q1424.44 62.8538 1427.03 65.2034 Q1429.66 67.5124 1434.16 67.5124 Q1440.36 67.5124 1444.08 63.1374 Q1447.85 58.7219 1447.85 51.4303 L1447.85 49.7694 L1440.44 49.7694 M1455.3 46.6907 L1455.3 72.576 L1447.85 72.576 L1447.85 65.6895 Q1445.3 69.8214 1441.49 71.8063 Q1437.68 73.7508 1432.17 73.7508 Q1425.21 73.7508 1421.07 69.8619 Q1416.98 65.9325 1416.98 59.3701 Q1416.98 51.7138 1422.09 47.825 Q1427.23 43.9361 1437.4 43.9361 L1447.85 43.9361 L1447.85 43.2069 Q1447.85 38.0623 1444.45 35.2672 Q1441.08 32.4315 1434.97 32.4315 Q1431.08 32.4315 1427.39 33.3632 Q1423.71 34.295 1420.3 36.1584 L1420.3 29.2718 Q1424.39 27.692 1428.24 26.9223 Q1432.09 26.1121 1435.74 26.1121 Q1445.58 26.1121 1450.44 31.2163 Q1455.3 36.3204 1455.3 46.6907 Z" fill="#000000" fill-rule="nonzero" fill-opacity="1"></path><path clip-path="url(#clip360)" d="M1504.4 14.324 L1504.4 27.2059 L1519.75 27.2059 L1519.75 32.9987 L1504.4 32.9987 L1504.4 57.6282 Q1504.4 63.1779 1505.9 64.7578 Q1507.44 66.3376 1512.1 66.3376 L1519.75 66.3376 L1519.75 72.576 L1512.1 72.576 Q1503.47 72.576 1500.19 69.3758 Q1496.91 66.1351 1496.91 57.6282 L1496.91 32.9987 L1491.44 32.9987 L1491.44 27.2059 L1496.91 27.2059 L1496.91 14.324 L1504.4 14.324 Z" fill="#000000" fill-rule="nonzero" fill-opacity="1"></path><path clip-path="url(#clip360)" d="M1548.43 76.7889 Q1545.27 84.8907 1542.28 87.3618 Q1539.28 89.8329 1534.26 89.8329 L1528.3 89.8329 L1528.3 83.5945 L1532.68 83.5945 Q1535.75 83.5945 1537.46 82.1361 Q1539.16 80.6778 1541.22 75.2496 L1542.56 71.8468 L1524.21 27.2059 L1532.11 27.2059 L1546.29 62.6918 L1560.46 27.2059 L1568.36 27.2059 L1548.43 76.7889 Z" fill="#000000" fill-rule="nonzero" fill-opacity="1"></path><path clip-path="url(#clip360)" d="M1585.86 65.7705 L1585.86 89.8329 L1578.37 89.8329 L1578.37 27.2059 L1585.86 27.2059 L1585.86 34.0924 Q1588.21 30.0415 1591.78 28.0971 Q1595.38 26.1121 1600.37 26.1121 Q1608.63 26.1121 1613.77 32.6746 Q1618.96 39.2371 1618.96 49.9314 Q1618.96 60.6258 1613.77 67.1883 Q1608.63 73.7508 1600.37 73.7508 Q1595.38 73.7508 1591.78 71.8063 Q1588.21 69.8214 1585.86 65.7705 M1611.22 49.9314 Q1611.22 41.7081 1607.82 37.0496 Q1604.46 32.3505 1598.54 32.3505 Q1592.63 32.3505 1589.23 37.0496 Q1585.86 41.7081 1585.86 49.9314 Q1585.86 58.1548 1589.23 62.8538 Q1592.63 67.5124 1598.54 67.5124 Q1604.46 67.5124 1607.82 62.8538 Q1611.22 58.1548 1611.22 49.9314 Z" fill="#000000" fill-rule="nonzero" fill-opacity="1"></path><path clip-path="url(#clip360)" d="M1670.12 48.0275 L1670.12 51.6733 L1635.85 51.6733 Q1636.34 59.3701 1640.47 63.421 Q1644.64 67.4314 1652.06 67.4314 Q1656.35 67.4314 1660.36 66.3781 Q1664.41 65.3249 1668.38 63.2184 L1668.38 70.267 Q1664.37 71.9684 1660.16 72.8596 Q1655.94 73.7508 1651.61 73.7508 Q1640.75 73.7508 1634.39 67.4314 Q1628.07 61.1119 1628.07 50.3365 Q1628.07 39.1965 1634.07 32.6746 Q1640.11 26.1121 1650.31 26.1121 Q1659.47 26.1121 1664.78 32.0264 Q1670.12 37.9003 1670.12 48.0275 M1662.67 45.84 Q1662.59 39.7232 1659.23 36.0774 Q1655.9 32.4315 1650.39 32.4315 Q1644.16 32.4315 1640.39 35.9558 Q1636.66 39.4801 1636.1 45.8805 L1662.67 45.84 Z" fill="#000000" fill-rule="nonzero" fill-opacity="1"></path><polyline clip-path="url(#clip362)" style="stroke:#009af9; stroke-linecap:round; stroke-linejoin:round; stroke-width:4; stroke-opacity:1; fill:none" points="237.067,1386.38 286.161,1386.38 330.801,1386.38 371.567,1386.37 408.944,1386.37 443.338,1386.37 475.094,1386.37 504.506,1386.37 531.823,1386.37 557.262,1386.37 581.013,1386.37 603.237,1386.36 624.078,1386.36 643.662,1386.36 662.1,1386.36 679.489,1386.36 695.918,1386.36 711.464,1386.36 726.197,1386.36 740.18,1386.35 753.468,1386.35 766.112,1386.35 778.159,1386.35 789.651,1386.35 800.624,1386.35 811.114,1386.35 821.152,1386.35 830.767,1386.34 839.986,1386.34 848.832,1386.34 857.328,1386.34 865.495,1386.34 873.351,1386.34 880.915,1386.34 888.202,1386.34 895.228,1386.33 902.006,1386.33 908.55,1386.33 914.872,1386.33 920.982,1386.33 926.893,1386.33 932.612,1386.33 938.151,1386.33 943.516,1386.32 948.717,1386.32 953.761,1386.32 958.655,1386.32 963.406,1386.32 968.02,1386.32 972.503,1386.32 976.861,1386.32 981.099,1386.32 985.222,1386.32 989.235,1386.31 993.142,1386.31 996.947,1386.31 1000.66,1386.31 1004.27,1386.31 1007.79,1386.31 1011.23,1386.31 1014.58,1386.31 1017.86,1386.31 1021.05,1386.3 1024.18,1386.3 1027.23,1386.3 1030.21,1386.3 1033.12,1386.3 1035.97,1386.3 1038.75,1386.3 1041.48,1386.3 1044.15,1386.3 1046.76,1386.3 1049.31,1386.3 1051.82,1386.29 1054.27,1386.29 1056.67,1386.29 1059.03,1386.29 1061.34,1386.29 1063.6,1386.29 1065.82,1386.29 1068,1386.29 1070.13,1386.29 1072.23,1386.29 1074.29,1386.29 1076.31,1386.29 1078.29,1386.28 1080.24,1386.28 1082.15,1386.28 1084.03,1386.28 1085.88,1386.28 1087.69,1386.28 1089.48,1386.28 1091.23,1386.28 1092.96,1386.28 1094.66,1386.28 1096.32,1386.28 1097.97,1386.28 1099.58,1386.27 1101.17,1386.27 1102.74,1386.27 1104.28,1386.27 1105.8,1386.27 1107.29,1386.27 1108.76,1386.27 1110.21,1386.27 1111.64,1386.27 1113.05,1386.27 1114.43,1386.27 1115.8,1386.27 1117.15,1386.27 1118.47,1386.26 1119.78,1386.26 1121.07,1386.26 1122.35,1386.26 1123.6,1386.26 1124.84,1386.26 1126.06,1386.26 1127.27,1386.26 1128.46,1386.26 1129.63,1386.26 1130.79,1386.26 1131.94,1386.26 1133.07,1386.26 1134.18,1386.26 1135.28,1386.26 1136.37,1386.25 1137.44,1386.25 1138.5,1386.25 1139.55,1386.25 1140.59,1386.25 1141.61,1386.25 1142.62,1386.25 1143.62,1386.25 1144.61,1386.25 1145.58,1386.25 1146.55,1386.25 1147.5,1386.25 1148.45,1386.25 1149.38,1386.25 1150.3,1386.25 1151.21,1386.24 1152.12,1386.24 1153.01,1386.24 1153.89,1386.24 1154.76,1386.24 1155.63,1386.24 1156.48,1386.24 1157.33,1386.24 1158.17,1386.24 1159,1386.24 1159.82,1386.24 1160.63,1386.24 1161.43,1386.24 1162.23,1386.24 1163.02,1386.24 1163.8,1386.24 1164.57,1386.24 1165.34,1386.23 1166.09,1386.23 1166.84,1386.23 1167.59,1386.23 1168.33,1386.23 1169.06,1386.23 1169.78,1386.23 1170.5,1386.23 1171.21,1386.23 1171.91,1386.23 1172.61,1386.23 1173.3,1386.23 1173.99,1386.23 1174.67,1386.23 1175.34,1386.23 1176.01,1386.23 1176.67,1386.23 1177.33,1386.23 1177.98,1386.22 1178.62,1386.22 1179.26,1386.22 1179.9,1386.22 1180.53,1386.22 1181.15,1386.22 1181.77,1386.22 1182.39,1386.22 1183,1386.22 1183.6,1386.22 1184.2,1386.22 1184.8,1386.22 1185.39,1386.22 1185.97,1386.22 1186.56,1386.22 1187.14,1386.22 1187.71,1386.22 1188.28,1386.22 1188.84,1386.22 1189.4,1386.22 1189.96,1386.21 1190.51,1386.21 1191.06,1386.21 1191.61,1386.21 1192.15,1386.21 1192.69,1386.21 1193.22,1386.21 1193.75,1386.21 1194.28,1386.21 1194.8,1386.21 1195.32,1386.21 1195.84,1386.21 1196.35,1386.21 1196.86,1386.21 1197.36,1386.21 1197.87,1386.21 1198.37,1386.21 1198.86,1386.21 1199.36,1386.21 1199.85,1386.21 1200.33,1386.2 1200.82,1386.2 1201.3,1386.2 1201.78,1386.2 1202.25,1386.2 1202.72,1386.2 1203.19,1386.2 1203.66,1386.2 1204.12,1386.2 1204.58,1386.2 1205.04,1386.2 1205.5,1386.2 1205.95,1386.2 1206.4,1386.2 1206.85,1386.2 1207.3,1386.2 1207.74,1386.2 1208.18,1386.2 1208.62,1386.2 1209.06,1386.2 1209.49,1386.2 1209.92,1386.2 1210.35,1386.19 1210.78,1386.19 1211.2,1386.19 1211.63,1386.19 1212.05,1386.19 1212.47,1386.19 1212.88,1386.19 1213.3,1386.19 1213.71,1386.19 1214.12,1386.19 1214.53,1386.19 1214.93,1386.19 1215.34,1386.19 1215.74,1386.19 1216.14,1386.19 1216.54,1386.19 1216.94,1386.19 1217.33,1386.19 1217.72,1386.19 1218.12,1386.19 1218.51,1386.19 1218.89,1386.19 1219.28,1386.18 1219.66,1386.18 1220.05,1386.18 1220.43,1386.18 1220.81,1386.18 1221.19,1386.18 1221.56,1386.18 1221.94,1386.18 1222.31,1386.18 1222.68,1386.18 1223.05,1386.18 1223.42,1386.18 1223.79,1386.18 1224.16,1386.18 1224.52,1386.18 1224.88,1386.18 1225.25,1386.18 1225.61,1386.18 1225.97,1386.18 1226.32,1386.18 1226.68,1386.18 1227.04,1386.18 1227.39,1386.18 1227.74,1386.17 1228.09,1386.17 1228.44,1386.17 1228.79,1386.17 1229.14,1386.17 1229.49,1386.17 1229.83,1386.17 1230.18,1386.17 1230.52,1386.17 1230.86,1386.17 1231.2,1386.17 1231.54,1386.17 1231.88,1386.17 1232.22,1386.17 1232.56,1386.17 1232.89,1386.17 1233.23,1386.17 1233.56,1386.17 1233.89,1386.17 1234.23,1386.17 1234.56,1386.17 1234.89,1386.17 1235.21,1386.17 1235.54,1386.17 1235.87,1386.16 1236.2,1386.16 1236.52,1386.16 1236.85,1386.16 1237.17,1386.16 1237.49,1386.16 1237.81,1386.16 1238.13,1386.16 1238.45,1386.16 1238.77,1386.16 1239.09,1386.16 1239.41,1386.16 1239.73,1386.16 1240.04,1386.16 1240.36,1386.16 1240.67,1386.16 1240.99,1386.16 1241.3,1386.16 1241.62,1386.16 1241.93,1386.16 1242.24,1386.16 1242.55,1386.16 1242.86,1386.16 1243.17,1386.15 1243.48,1386.15 1243.79,1386.15 1244.09,1386.15 1244.4,1386.15 1244.71,1386.15 1245.01,1386.15 1245.32,1386.15 1245.62,1386.15 1245.93,1386.15 1246.23,1386.15 1246.53,1386.15 1246.84,1386.15 1247.14,1386.15 1247.44,1386.15 1247.74,1386.15 1248.04,1386.15 1248.34,1386.15 1248.64,1386.15 1248.94,1386.15 1249.24,1386.15 1249.54,1386.15 1249.84,1386.14 1250.13,1386.14 1250.43,1386.14 1250.73,1386.14 1251.02,1386.14 1251.32,1386.14 1251.62,1386.14 1251.91,1386.14 1252.21,1386.14 1252.5,1386.14 1252.79,1386.14 1253.09,1386.14 1253.38,1386.14 1253.67,1386.14 1253.97,1386.14 1254.26,1386.14 1254.55,1386.14 1254.85,1386.14 1255.14,1386.14 1255.43,1386.14 1255.72,1386.14 1256.01,1386.14 1256.3,1386.13 1256.59,1386.13 1256.88,1386.13 1257.17,1386.13 1257.46,1386.13 1257.75,1386.13 1258.04,1386.13 1258.33,1386.13 1258.62,1386.13 1258.91,1386.13 1259.2,1386.13 1259.49,1386.13 1259.78,1386.13 1260.07,1386.13 1260.36,1386.13 1260.64,1386.13 1260.93,1386.13 1261.22,1386.13 1261.51,1386.13 1261.8,1386.13 1262.09,1386.13 1262.37,1386.13 1262.66,1386.12 1262.95,1386.12 1263.24,1386.12 1263.52,1386.12 1263.81,1386.12 1264.1,1386.12 1264.39,1386.12 1264.68,1386.12 1264.96,1386.12 1265.25,1386.12 1265.54,1386.12 1265.83,1386.12 1266.12,1386.12 1266.4,1386.12 1266.69,1386.12 1266.98,1386.12 1267.27,1386.12 1267.56,1386.12 1267.85,1386.12 1268.13,1386.11 1268.42,1386.11 1268.71,1386.11 1269,1386.11 1269.29,1386.11 1269.58,1386.11 1269.87,1386.11 1270.16,1386.11 1270.45,1386.11 1270.74,1386.11 1271.03,1386.11 1271.32,1386.11 1271.61,1386.11 1271.9,1386.11 1272.19,1386.11 1272.48,1386.11 1272.77,1386.11 1273.06,1386.11 1273.36,1386.11 1273.65,1386.1 1273.94,1386.1 1274.23,1386.1 1274.53,1386.1 1274.82,1386.1 1275.11,1386.1 1275.41,1386.1 1275.7,1386.1 1276,1386.1 1276.29,1386.1 1276.59,1386.1 1276.88,1386.1 1277.18,1386.1 1277.47,1386.1 1277.77,1386.1 1278.07,1386.1 1278.37,1386.1 1278.66,1386.1 1278.96,1386.09 1279.26,1386.09 1279.56,1386.09 1279.86,1386.09 1280.16,1386.09 1280.46,1386.09 1280.76,1386.09 1281.06,1386.09 1281.36,1386.09 1281.67,1386.09 1281.97,1386.09 1282.27,1386.09 1282.58,1386.09 1282.88,1386.09 1283.19,1386.09 1283.49,1386.09 1283.8,1386.08 1284.11,1386.08 1284.42,1386.08 1284.72,1386.08 1285.03,1386.08 1285.34,1386.08 1285.65,1386.08 1285.96,1386.08 1286.27,1386.08 1286.59,1386.08 1286.9,1386.08 1287.21,1386.08 1287.53,1386.08 1287.84,1386.08 1288.16,1386.07 1288.47,1386.07 1288.79,1386.07 1289.11,1386.07 1289.43,1386.07 1289.75,1386.07 1290.07,1386.07 1290.39,1386.07 1290.71,1386.07 1291.03,1386.07 1291.36,1386.07 1291.68,1386.07 1292.01,1386.07 1292.33,1386.07 1292.66,1386.06 1292.99,1386.06 1293.32,1386.06 1293.64,1386.06 1293.98,1386.06 1294.31,1386.06 1294.64,1386.06 1294.97,1386.06 1295.31,1386.06 1295.64,1386.06 1295.98,1386.06 1296.32,1386.06 1296.66,1386.06 1297,1386.05 1297.34,1386.05 1297.68,1386.05 1298.02,1386.05 1298.37,1386.05 1298.71,1386.05 1299.06,1386.05 1299.41,1386.05 1299.76,1386.05 1300.11,1386.05 1300.46,1386.05 1300.81,1386.04 1301.17,1386.04 1301.52,1386.04 1301.88,1386.04 1302.23,1386.04 1302.59,1386.04 1302.95,1386.04 1303.32,1386.04 1303.68,1386.04 1304.04,1386.04 1304.41,1386.04 1304.78,1386.03 1305.15,1386.03 1305.52,1386.03 1305.89,1386.03 1306.26,1386.03 1306.64,1386.03 1307.01,1386.03 1307.39,1386.03 1307.77,1386.03 1308.15,1386.02 1308.54,1386.02 1308.92,1386.02 1309.31,1386.02 1309.7,1386.02 1310.09,1386.02 1310.48,1386.02 1310.87,1386.02 1311.27,1386.02 1311.66,1386.01 1312.06,1386.01 1312.46,1386.01 1312.86,1386.01 1313.27,1386.01 1313.67,1386.01 1314.08,1386.01 1314.49,1386.01 1314.91,1386 1315.32,1386 1315.74,1386 1316.15,1386 1316.57,1386 1317,1386 1317.42,1386 1317.85,1386 1318.28,1385.99 1318.71,1385.99 1319.14,1385.99 1319.58,1385.99 1320.02,1385.99 1320.46,1385.99 1320.9,1385.99 1321.35,1385.98 1321.8,1385.98 1322.25,1385.98 1322.7,1385.98 1323.16,1385.98 1323.62,1385.98 1324.08,1385.97 1324.54,1385.97 1325.01,1385.97 1325.48,1385.97 1325.95,1385.97 1326.43,1385.97 1326.9,1385.96 1327.39,1385.96 1327.87,1385.96 1328.36,1385.96 1328.85,1385.96 1329.34,1385.95 1329.84,1385.95 1330.33,1385.95 1330.84,1385.95 1331.34,1385.95 1331.85,1385.94 1332.37,1385.94 1332.88,1385.94 1333.4,1385.94 1333.92,1385.94 1334.45,1385.93 1334.98,1385.93 1335.51,1385.93 1336.05,1385.93 1336.59,1385.92 1337.14,1385.92 1337.69,1385.92 1338.24,1385.92 1338.8,1385.91 1339.36,1385.91 1339.92,1385.91 1340.49,1385.91 1341.07,1385.9 1341.64,1385.9 1342.23,1385.9 1342.81,1385.9 1343.4,1385.89 1344,1385.89 1344.6,1385.89 1345.21,1385.88 1345.82,1385.88 1346.43,1385.88 1347.05,1385.87 1347.67,1385.87 1348.3,1385.87 1348.94,1385.86 1349.58,1385.86 1350.23,1385.85 1350.88,1385.85 1351.53,1385.85 1352.19,1385.84 1352.86,1385.84 1353.54,1385.83 1354.22,1385.82 1354.9,1385.82 1355.59,1385.81 1356.29,1385.8 1356.99,1385.79 1357.7,1385.79 1358.42,1385.78 1359.15,1385.77 1359.88,1385.75 1360.61,1385.74 1361.36,1385.74 1362.11,1385.73 1362.87,1385.73 1363.63,1385.73 1364.4,1385.72 1365.18,1385.71 1365.97,1385.7 1366.77,1385.69 1367.57,1385.68 1368.39,1385.66 1369.21,1385.64 1370.03,1385.61 1370.87,1385.57 1371.72,1385.52 1372.57,1385.45 1373.44,1385.39 1374.31,1385.36 1375.19,1385.36 1376.09,1385.36 1376.99,1385.34 1377.9,1385.3 1378.82,1385.27 1379.76,1385.28 1380.7,1385.29 1381.65,1385.29 1382.62,1385.25 1383.59,1385.2 1384.58,1385.17 1385.58,1385.15 1386.59,1385.14 1387.61,1385.13 1388.65,1385.08 1389.7,1385.04 1390.76,1385.08 1391.83,1385.13 1392.92,1385.12 1394.02,1385.05 1395.14,1384.89 1396.26,1384.68 1397.41,1384.58 1398.57,1384.6 1399.74,1384.71 1400.93,1384.76 1402.14,1384.69 1403.36,1384.52 1404.6,1384.24 1405.85,1383.82 1407.13,1383.51 1408.42,1383.36 1409.73,1383.1 1411.05,1382.71 1412.4,1382.37 1413.77,1382.67 1415.15,1382.87 1416.56,1382.39 1417.99,1381.51 1419.44,1380.97 1420.91,1380.9 1422.4,1380.68 1423.92,1380.31 1425.46,1380.55 1427.03,1380.83 1428.62,1381.15 1430.23,1381.06 1431.88,1380.03 1433.55,1378.16 1435.24,1377.05 1436.97,1375.04 1438.72,1369.93 1440.51,1369.78 1442.32,1369.49 1444.17,1366.9 1446.05,1365.48 1447.96,1360.99 1449.91,1354.17 1451.9,1344.72 1453.92,1341.29 1455.97,1344.72 1458.07,1347.77 1460.21,1359.11 1462.38,1364.7 1464.6,1367.02 1466.87,1370.92 1469.17,1371.88 1471.53,1360.61 1473.93,1360.92 1476.38,1373.56 1478.89,1373.91 1481.44,1362.7 1484.06,1358.8 1486.72,1374.96 1489.45,1379.3 1492.23,1380.42 1495.08,1380.82 1498,1379.73 1500.98,1374.12 1504.03,1363.79 1507.15,1376 1510.34,1379.09 1513.62,1378.84 1516.97,1376.37 1520.41,1365.27 1523.93,1345.34 1527.55,1354.67 1531.25,1318.79 1535.06,1357.31 1538.97,1335.81 1542.98,1357.2 1547.1,1367.91 1551.34,1364.38 1555.7,1354.95 1560.18,1344.92 1564.79,1333.8 1569.55,1287.64 1574.44,1002.79 1579.48,788.343 1584.68,621.128 1590.05,160.256 1595.59,1136.58 1601.31,1295.31 1607.22,1301.79 1613.33,1158.19 1619.65,588.73 1626.19,183.253 1632.97,1055.06 1640,1261.15 1647.29,1236.67 1654.85,1239.31 1662.71,1293.05 1670.87,1367.2 1679.37,1376.22 1688.22,1379.59 1697.43,1380.99 1707.05,1382.34 1717.09,1382.07 1727.58,1379.22 1738.55,1328.49 1750.04,1369.83 1762.09,1367.97 1774.73,1361.5 1788.02,1367.67 1802,1375.69 1816.74,1383.99 1832.28,1378.43 1848.71,1365.41 1866.1,1370.91 1884.54,1376.76 1904.12,1383.07 1924.96,1383.8 1947.19,1385.21 1970.94,1385.55 1996.38,1386.01 2023.7,1386.17 2053.11,1386.22 2084.86,1386.25 2119.26,1386.27 2156.63,1386.29 2197.4,1386.3 2242.04,1386.32 2291.13,1386.32 "></polyline>
<circle clip-path="url(#clip362)" cx="1555.26" cy="1386.4" r="14.4" fill="#ff0000" fill-rule="evenodd" fill-opacity="1" stroke="#000000" stroke-opacity="1" stroke-width="3.2"></circle>
<circle clip-path="url(#clip362)" cx="1683.37" cy="1386.4" r="14.4" fill="#ff0000" fill-rule="evenodd" fill-opacity="1" stroke="#000000" stroke-opacity="1" stroke-width="3.2"></circle>
<path clip-path="url(#clip360)" d="M1617.17 322.316 L2280.18 322.316 L2280.18 166.796 L1617.17 166.796  Z" fill="#ffffff" fill-rule="evenodd" fill-opacity="1"></path>
<polyline clip-path="url(#clip360)" style="stroke:#000000; stroke-linecap:round; stroke-linejoin:round; stroke-width:4; stroke-opacity:1; fill:none" points="1617.17,322.316 2280.18,322.316 2280.18,166.796 1617.17,166.796 1617.17,322.316 "></polyline>
<polyline clip-path="url(#clip360)" style="stroke:#009af9; stroke-linecap:round; stroke-linejoin:round; stroke-width:4; stroke-opacity:1; fill:none" points="1641.36,218.636 1786.52,218.636 "></polyline>
<path clip-path="url(#clip360)" d="M1825.9 213.971 Q1825.18 213.555 1824.32 213.37 Q1823.49 213.161 1822.47 213.161 Q1818.86 213.161 1816.91 215.522 Q1814.99 217.86 1814.99 222.258 L1814.99 235.916 L1810.71 235.916 L1810.71 209.99 L1814.99 209.99 L1814.99 214.018 Q1816.34 211.657 1818.49 210.522 Q1820.64 209.365 1823.72 209.365 Q1824.16 209.365 1824.69 209.434 Q1825.22 209.481 1825.87 209.596 L1825.9 213.971 Z" fill="#000000" fill-rule="nonzero" fill-opacity="1"></path><path clip-path="url(#clip360)" d="M1851.5 221.888 L1851.5 223.971 L1831.91 223.971 Q1832.19 228.369 1834.55 230.684 Q1836.94 232.976 1841.17 232.976 Q1843.63 232.976 1845.92 232.374 Q1848.23 231.772 1850.5 230.569 L1850.5 234.596 Q1848.21 235.568 1845.8 236.078 Q1843.4 236.587 1840.92 236.587 Q1834.72 236.587 1831.08 232.976 Q1827.47 229.365 1827.47 223.207 Q1827.47 216.842 1830.9 213.115 Q1834.35 209.365 1840.18 209.365 Q1845.41 209.365 1848.44 212.745 Q1851.5 216.101 1851.5 221.888 M1847.24 220.638 Q1847.19 217.143 1845.27 215.059 Q1843.37 212.976 1840.22 212.976 Q1836.66 212.976 1834.51 214.99 Q1832.38 217.004 1832.05 220.661 L1847.24 220.638 Z" fill="#000000" fill-rule="nonzero" fill-opacity="1"></path><path clip-path="url(#clip360)" d="M1877.15 210.985 L1877.15 214.967 Q1875.34 213.971 1873.51 213.485 Q1871.71 212.976 1869.85 212.976 Q1865.71 212.976 1863.42 215.615 Q1861.13 218.231 1861.13 222.976 Q1861.13 227.721 1863.42 230.36 Q1865.71 232.976 1869.85 232.976 Q1871.71 232.976 1873.51 232.49 Q1875.34 231.981 1877.15 230.985 L1877.15 234.92 Q1875.36 235.754 1873.44 236.17 Q1871.54 236.587 1869.39 236.587 Q1863.53 236.587 1860.09 232.906 Q1856.64 229.226 1856.64 222.976 Q1856.64 216.633 1860.11 212.999 Q1863.6 209.365 1869.67 209.365 Q1871.64 209.365 1873.51 209.782 Q1875.39 210.175 1877.15 210.985 Z" fill="#000000" fill-rule="nonzero" fill-opacity="1"></path><path clip-path="url(#clip360)" d="M1894.6 212.976 Q1891.17 212.976 1889.18 215.661 Q1887.19 218.323 1887.19 222.976 Q1887.19 227.629 1889.16 230.314 Q1891.15 232.976 1894.6 232.976 Q1898 232.976 1899.99 230.291 Q1901.98 227.606 1901.98 222.976 Q1901.98 218.37 1899.99 215.684 Q1898 212.976 1894.6 212.976 M1894.6 209.365 Q1900.16 209.365 1903.33 212.976 Q1906.5 216.587 1906.5 222.976 Q1906.5 229.342 1903.33 232.976 Q1900.16 236.587 1894.6 236.587 Q1889.02 236.587 1885.85 232.976 Q1882.7 229.342 1882.7 222.976 Q1882.7 216.587 1885.85 212.976 Q1889.02 209.365 1894.6 209.365 Z" fill="#000000" fill-rule="nonzero" fill-opacity="1"></path><path clip-path="url(#clip360)" d="M1935.11 220.268 L1935.11 235.916 L1930.85 235.916 L1930.85 220.407 Q1930.85 216.726 1929.41 214.897 Q1927.98 213.069 1925.11 213.069 Q1921.66 213.069 1919.67 215.268 Q1917.68 217.467 1917.68 221.263 L1917.68 235.916 L1913.4 235.916 L1913.4 209.99 L1917.68 209.99 L1917.68 214.018 Q1919.21 211.68 1921.27 210.522 Q1923.35 209.365 1926.06 209.365 Q1930.53 209.365 1932.82 212.143 Q1935.11 214.897 1935.11 220.268 Z" fill="#000000" fill-rule="nonzero" fill-opacity="1"></path><path clip-path="url(#clip360)" d="M1960.13 210.754 L1960.13 214.782 Q1958.33 213.856 1956.38 213.393 Q1954.44 212.93 1952.35 212.93 Q1949.18 212.93 1947.59 213.902 Q1946.01 214.874 1946.01 216.819 Q1946.01 218.3 1947.15 219.157 Q1948.28 219.99 1951.71 220.754 L1953.16 221.078 Q1957.7 222.05 1959.6 223.832 Q1961.52 225.592 1961.52 228.763 Q1961.52 232.374 1958.65 234.481 Q1955.8 236.587 1950.8 236.587 Q1948.72 236.587 1946.45 236.17 Q1944.21 235.777 1941.71 234.967 L1941.71 230.569 Q1944.07 231.795 1946.36 232.42 Q1948.65 233.022 1950.9 233.022 Q1953.9 233.022 1955.53 232.004 Q1957.15 230.962 1957.15 229.087 Q1957.15 227.351 1955.97 226.425 Q1954.81 225.499 1950.85 224.643 L1949.37 224.295 Q1945.41 223.462 1943.65 221.749 Q1941.89 220.013 1941.89 217.004 Q1941.89 213.346 1944.48 211.356 Q1947.08 209.365 1951.84 209.365 Q1954.21 209.365 1956.29 209.712 Q1958.37 210.059 1960.13 210.754 Z" fill="#000000" fill-rule="nonzero" fill-opacity="1"></path><path clip-path="url(#clip360)" d="M1972.52 202.629 L1972.52 209.99 L1981.29 209.99 L1981.29 213.3 L1972.52 213.3 L1972.52 227.374 Q1972.52 230.545 1973.37 231.448 Q1974.25 232.351 1976.91 232.351 L1981.29 232.351 L1981.29 235.916 L1976.91 235.916 Q1971.98 235.916 1970.11 234.087 Q1968.23 232.235 1968.23 227.374 L1968.23 213.3 L1965.11 213.3 L1965.11 209.99 L1968.23 209.99 L1968.23 202.629 L1972.52 202.629 Z" fill="#000000" fill-rule="nonzero" fill-opacity="1"></path><path clip-path="url(#clip360)" d="M2001.91 213.971 Q2001.2 213.555 2000.34 213.37 Q1999.51 213.161 1998.49 213.161 Q1994.88 213.161 1992.93 215.522 Q1991.01 217.86 1991.01 222.258 L1991.01 235.916 L1986.73 235.916 L1986.73 209.99 L1991.01 209.99 L1991.01 214.018 Q1992.35 211.657 1994.51 210.522 Q1996.66 209.365 1999.74 209.365 Q2000.18 209.365 2000.71 209.434 Q2001.24 209.481 2001.89 209.596 L2001.91 213.971 Z" fill="#000000" fill-rule="nonzero" fill-opacity="1"></path><path clip-path="url(#clip360)" d="M2005.94 225.684 L2005.94 209.99 L2010.2 209.99 L2010.2 225.522 Q2010.2 229.203 2011.64 231.055 Q2013.07 232.883 2015.94 232.883 Q2019.39 232.883 2021.38 230.684 Q2023.4 228.485 2023.4 224.689 L2023.4 209.99 L2027.65 209.99 L2027.65 235.916 L2023.4 235.916 L2023.4 231.934 Q2021.84 234.295 2019.78 235.453 Q2017.75 236.587 2015.04 236.587 Q2010.57 236.587 2008.26 233.809 Q2005.94 231.031 2005.94 225.684 M2016.66 209.365 L2016.66 209.365 Z" fill="#000000" fill-rule="nonzero" fill-opacity="1"></path><path clip-path="url(#clip360)" d="M2055.08 210.985 L2055.08 214.967 Q2053.28 213.971 2051.45 213.485 Q2049.65 212.976 2047.79 212.976 Q2043.65 212.976 2041.36 215.615 Q2039.07 218.231 2039.07 222.976 Q2039.07 227.721 2041.36 230.36 Q2043.65 232.976 2047.79 232.976 Q2049.65 232.976 2051.45 232.49 Q2053.28 231.981 2055.08 230.985 L2055.08 234.92 Q2053.3 235.754 2051.38 236.17 Q2049.48 236.587 2047.33 236.587 Q2041.47 236.587 2038.02 232.906 Q2034.58 229.226 2034.58 222.976 Q2034.58 216.633 2038.05 212.999 Q2041.54 209.365 2047.61 209.365 Q2049.58 209.365 2051.45 209.782 Q2053.33 210.175 2055.08 210.985 Z" fill="#000000" fill-rule="nonzero" fill-opacity="1"></path><path clip-path="url(#clip360)" d="M2066.71 202.629 L2066.71 209.99 L2075.48 209.99 L2075.48 213.3 L2066.71 213.3 L2066.71 227.374 Q2066.71 230.545 2067.56 231.448 Q2068.44 232.351 2071.1 232.351 L2075.48 232.351 L2075.48 235.916 L2071.1 235.916 Q2066.17 235.916 2064.3 234.087 Q2062.42 232.235 2062.42 227.374 L2062.42 213.3 L2059.3 213.3 L2059.3 209.99 L2062.42 209.99 L2062.42 202.629 L2066.71 202.629 Z" fill="#000000" fill-rule="nonzero" fill-opacity="1"></path><path clip-path="url(#clip360)" d="M2103.26 221.888 L2103.26 223.971 L2083.67 223.971 Q2083.95 228.369 2086.31 230.684 Q2088.7 232.976 2092.93 232.976 Q2095.39 232.976 2097.68 232.374 Q2099.99 231.772 2102.26 230.569 L2102.26 234.596 Q2099.97 235.568 2097.56 236.078 Q2095.15 236.587 2092.68 236.587 Q2086.47 236.587 2082.84 232.976 Q2079.23 229.365 2079.23 223.207 Q2079.23 216.842 2082.65 213.115 Q2086.1 209.365 2091.94 209.365 Q2097.17 209.365 2100.2 212.745 Q2103.26 216.101 2103.26 221.888 M2099 220.638 Q2098.95 217.143 2097.03 215.059 Q2095.13 212.976 2091.98 212.976 Q2088.42 212.976 2086.27 214.99 Q2084.14 217.004 2083.81 220.661 L2099 220.638 Z" fill="#000000" fill-rule="nonzero" fill-opacity="1"></path><path clip-path="url(#clip360)" d="M2127.31 213.925 L2127.31 199.897 L2131.57 199.897 L2131.57 235.916 L2127.31 235.916 L2127.31 232.027 Q2125.96 234.342 2123.9 235.476 Q2121.87 236.587 2119 236.587 Q2114.3 236.587 2111.33 232.837 Q2108.39 229.087 2108.39 222.976 Q2108.39 216.865 2111.33 213.115 Q2114.3 209.365 2119 209.365 Q2121.87 209.365 2123.9 210.499 Q2125.96 211.61 2127.31 213.925 M2112.79 222.976 Q2112.79 227.675 2114.71 230.36 Q2116.66 233.022 2120.04 233.022 Q2123.42 233.022 2125.36 230.36 Q2127.31 227.675 2127.31 222.976 Q2127.31 218.277 2125.36 215.615 Q2123.42 212.93 2120.04 212.93 Q2116.66 212.93 2114.71 215.615 Q2112.79 218.277 2112.79 222.976 Z" fill="#000000" fill-rule="nonzero" fill-opacity="1"></path><path clip-path="url(#clip360)" d="M2167.14 205.962 L2160.8 223.161 L2173.51 223.161 L2167.14 205.962 M2164.51 201.356 L2169.81 201.356 L2182.98 235.916 L2178.12 235.916 L2174.97 227.05 L2159.39 227.05 L2156.24 235.916 L2151.31 235.916 L2164.51 201.356 Z" fill="#000000" fill-rule="nonzero" fill-opacity="1"></path><path clip-path="url(#clip360)" d="M2198.07 199.944 Q2194.97 205.268 2193.46 210.476 Q2191.96 215.684 2191.96 221.032 Q2191.96 226.379 2193.46 231.633 Q2194.99 236.865 2198.07 242.166 L2194.37 242.166 Q2190.89 236.726 2189.16 231.471 Q2187.45 226.217 2187.45 221.032 Q2187.45 215.87 2189.16 210.638 Q2190.87 205.407 2194.37 199.944 L2198.07 199.944 Z" fill="#000000" fill-rule="nonzero" fill-opacity="1"></path><path clip-path="url(#clip360)" d="M2214.6 236.587 Q2204.99 236.587 2204.99 222.837 Q2204.99 217.397 2208.58 209.99 L2213.16 209.99 Q2209.85 217.397 2209.85 222.953 Q2209.85 232.976 2214.99 232.976 Q2219.69 232.976 2219.69 220.522 L2223.63 220.522 Q2223.63 232.976 2228.32 232.976 Q2233.46 232.976 2233.46 222.953 Q2233.46 217.397 2230.15 209.99 L2234.74 209.99 Q2238.32 217.397 2238.32 222.837 Q2238.32 236.587 2228.72 236.587 Q2222.42 236.587 2221.66 229.666 Q2220.71 236.587 2214.6 236.587 Z" fill="#000000" fill-rule="nonzero" fill-opacity="1"></path><path clip-path="url(#clip360)" d="M2245.36 199.944 L2249.07 199.944 Q2252.54 205.407 2254.25 210.638 Q2255.99 215.87 2255.99 221.032 Q2255.99 226.217 2254.25 231.471 Q2252.54 236.726 2249.07 242.166 L2245.36 242.166 Q2248.44 236.865 2249.94 231.633 Q2251.47 226.379 2251.47 221.032 Q2251.47 215.684 2249.94 210.476 Q2248.44 205.268 2245.36 199.944 Z" fill="#000000" fill-rule="nonzero" fill-opacity="1"></path><circle clip-path="url(#clip360)" cx="1713.94" cy="270.476" r="20.48" fill="#ff0000" fill-rule="evenodd" fill-opacity="1" stroke="#000000" stroke-opacity="1" stroke-width="4.55111"></circle>
<path clip-path="url(#clip360)" d="M1822.61 264.816 Q1819.18 264.816 1817.19 267.501 Q1815.2 270.163 1815.2 274.816 Q1815.2 279.469 1817.17 282.154 Q1819.16 284.816 1822.61 284.816 Q1826.01 284.816 1828 282.131 Q1829.99 279.446 1829.99 274.816 Q1829.99 270.21 1828 267.524 Q1826.01 264.816 1822.61 264.816 M1822.61 261.205 Q1828.16 261.205 1831.34 264.816 Q1834.51 268.427 1834.51 274.816 Q1834.51 281.182 1831.34 284.816 Q1828.16 288.427 1822.61 288.427 Q1817.03 288.427 1813.86 284.816 Q1810.71 281.182 1810.71 274.816 Q1810.71 268.427 1813.86 264.816 Q1817.03 261.205 1822.61 261.205 Z" fill="#000000" fill-rule="nonzero" fill-opacity="1"></path><path clip-path="url(#clip360)" d="M1856.59 265.811 Q1855.87 265.395 1855.02 265.21 Q1854.18 265.001 1853.16 265.001 Q1849.55 265.001 1847.61 267.362 Q1845.69 269.7 1845.69 274.098 L1845.69 287.756 L1841.41 287.756 L1841.41 261.83 L1845.69 261.83 L1845.69 265.858 Q1847.03 263.497 1849.18 262.362 Q1851.34 261.205 1854.41 261.205 Q1854.85 261.205 1855.39 261.274 Q1855.92 261.321 1856.57 261.436 L1856.59 265.811 Z" fill="#000000" fill-rule="nonzero" fill-opacity="1"></path><path clip-path="url(#clip360)" d="M1861.06 261.83 L1865.32 261.83 L1865.32 287.756 L1861.06 287.756 L1861.06 261.83 M1861.06 251.737 L1865.32 251.737 L1865.32 257.131 L1861.06 257.131 L1861.06 251.737 Z" fill="#000000" fill-rule="nonzero" fill-opacity="1"></path><path clip-path="url(#clip360)" d="M1891.29 274.492 Q1891.29 269.862 1889.37 267.316 Q1887.47 264.77 1884.02 264.77 Q1880.6 264.77 1878.67 267.316 Q1876.78 269.862 1876.78 274.492 Q1876.78 279.098 1878.67 281.645 Q1880.6 284.191 1884.02 284.191 Q1887.47 284.191 1889.37 281.645 Q1891.29 279.098 1891.29 274.492 M1895.55 284.538 Q1895.55 291.158 1892.61 294.376 Q1889.67 297.617 1883.6 297.617 Q1881.36 297.617 1879.37 297.27 Q1877.38 296.945 1875.5 296.251 L1875.5 292.108 Q1877.38 293.126 1879.21 293.612 Q1881.03 294.098 1882.93 294.098 Q1887.12 294.098 1889.21 291.899 Q1891.29 289.723 1891.29 285.302 L1891.29 283.196 Q1889.97 285.487 1887.91 286.621 Q1885.85 287.756 1882.98 287.756 Q1878.21 287.756 1875.29 284.121 Q1872.38 280.487 1872.38 274.492 Q1872.38 268.473 1875.29 264.839 Q1878.21 261.205 1882.98 261.205 Q1885.85 261.205 1887.91 262.339 Q1889.97 263.473 1891.29 265.765 L1891.29 261.83 L1895.55 261.83 L1895.55 284.538 Z" fill="#000000" fill-rule="nonzero" fill-opacity="1"></path><path clip-path="url(#clip360)" d="M1904.32 261.83 L1908.58 261.83 L1908.58 287.756 L1904.32 287.756 L1904.32 261.83 M1904.32 251.737 L1908.58 251.737 L1908.58 257.131 L1904.32 257.131 L1904.32 251.737 Z" fill="#000000" fill-rule="nonzero" fill-opacity="1"></path><path clip-path="url(#clip360)" d="M1939.04 272.108 L1939.04 287.756 L1934.78 287.756 L1934.78 272.247 Q1934.78 268.566 1933.35 266.737 Q1931.91 264.909 1929.04 264.909 Q1925.59 264.909 1923.6 267.108 Q1921.61 269.307 1921.61 273.103 L1921.61 287.756 L1917.33 287.756 L1917.33 261.83 L1921.61 261.83 L1921.61 265.858 Q1923.14 263.52 1925.2 262.362 Q1927.28 261.205 1929.99 261.205 Q1934.46 261.205 1936.75 263.983 Q1939.04 266.737 1939.04 272.108 Z" fill="#000000" fill-rule="nonzero" fill-opacity="1"></path><path clip-path="url(#clip360)" d="M1959.32 274.723 Q1954.16 274.723 1952.17 275.904 Q1950.18 277.084 1950.18 279.932 Q1950.18 282.2 1951.66 283.543 Q1953.16 284.862 1955.73 284.862 Q1959.28 284.862 1961.4 282.362 Q1963.56 279.839 1963.56 275.672 L1963.56 274.723 L1959.32 274.723 M1967.82 272.964 L1967.82 287.756 L1963.56 287.756 L1963.56 283.821 Q1962.1 286.182 1959.92 287.316 Q1957.75 288.427 1954.6 288.427 Q1950.62 288.427 1948.26 286.205 Q1945.92 283.959 1945.92 280.209 Q1945.92 275.834 1948.84 273.612 Q1951.78 271.39 1957.59 271.39 L1963.56 271.39 L1963.56 270.973 Q1963.56 268.034 1961.61 266.436 Q1959.69 264.816 1956.2 264.816 Q1953.97 264.816 1951.87 265.348 Q1949.76 265.881 1947.82 266.946 L1947.82 263.01 Q1950.15 262.108 1952.35 261.668 Q1954.55 261.205 1956.64 261.205 Q1962.26 261.205 1965.04 264.122 Q1967.82 267.038 1967.82 272.964 Z" fill="#000000" fill-rule="nonzero" fill-opacity="1"></path><path clip-path="url(#clip360)" d="M1976.59 251.737 L1980.85 251.737 L1980.85 287.756 L1976.59 287.756 L1976.59 251.737 Z" fill="#000000" fill-rule="nonzero" fill-opacity="1"></path><path clip-path="url(#clip360)" d="M2008.95 283.867 L2008.95 297.617 L2004.67 297.617 L2004.67 261.83 L2008.95 261.83 L2008.95 265.765 Q2010.29 263.45 2012.33 262.339 Q2014.39 261.205 2017.24 261.205 Q2021.96 261.205 2024.9 264.955 Q2027.86 268.705 2027.86 274.816 Q2027.86 280.927 2024.9 284.677 Q2021.96 288.427 2017.24 288.427 Q2014.39 288.427 2012.33 287.316 Q2010.29 286.182 2008.95 283.867 M2023.44 274.816 Q2023.44 270.117 2021.5 267.455 Q2019.58 264.77 2016.2 264.77 Q2012.82 264.77 2010.87 267.455 Q2008.95 270.117 2008.95 274.816 Q2008.95 279.515 2010.87 282.2 Q2012.82 284.862 2016.2 284.862 Q2019.58 284.862 2021.5 282.2 Q2023.44 279.515 2023.44 274.816 Z" fill="#000000" fill-rule="nonzero" fill-opacity="1"></path><path clip-path="url(#clip360)" d="M2044.97 264.816 Q2041.54 264.816 2039.55 267.501 Q2037.56 270.163 2037.56 274.816 Q2037.56 279.469 2039.53 282.154 Q2041.52 284.816 2044.97 284.816 Q2048.37 284.816 2050.36 282.131 Q2052.35 279.446 2052.35 274.816 Q2052.35 270.21 2050.36 267.524 Q2048.37 264.816 2044.97 264.816 M2044.97 261.205 Q2050.52 261.205 2053.7 264.816 Q2056.87 268.427 2056.87 274.816 Q2056.87 281.182 2053.7 284.816 Q2050.52 288.427 2044.97 288.427 Q2039.39 288.427 2036.22 284.816 Q2033.07 281.182 2033.07 274.816 Q2033.07 268.427 2036.22 264.816 Q2039.39 261.205 2044.97 261.205 Z" fill="#000000" fill-rule="nonzero" fill-opacity="1"></path><path clip-path="url(#clip360)" d="M2063.93 251.737 L2068.19 251.737 L2068.19 287.756 L2063.93 287.756 L2063.93 251.737 Z" fill="#000000" fill-rule="nonzero" fill-opacity="1"></path><path clip-path="url(#clip360)" d="M2099.27 273.728 L2099.27 275.811 L2079.69 275.811 Q2079.97 280.209 2082.33 282.524 Q2084.71 284.816 2088.95 284.816 Q2091.4 284.816 2093.7 284.214 Q2096.01 283.612 2098.28 282.409 L2098.28 286.436 Q2095.99 287.408 2093.58 287.918 Q2091.17 288.427 2088.7 288.427 Q2082.49 288.427 2078.86 284.816 Q2075.25 281.205 2075.25 275.047 Q2075.25 268.682 2078.67 264.955 Q2082.12 261.205 2087.96 261.205 Q2093.19 261.205 2096.22 264.585 Q2099.27 267.941 2099.27 273.728 M2095.02 272.478 Q2094.97 268.983 2093.05 266.899 Q2091.15 264.816 2088 264.816 Q2084.44 264.816 2082.28 266.83 Q2080.15 268.844 2079.83 272.501 L2095.02 272.478 Z" fill="#000000" fill-rule="nonzero" fill-opacity="1"></path><path clip-path="url(#clip360)" d="M2122.79 262.594 L2122.79 266.622 Q2120.99 265.696 2119.04 265.233 Q2117.1 264.77 2115.02 264.77 Q2111.84 264.77 2110.25 265.742 Q2108.67 266.714 2108.67 268.659 Q2108.67 270.14 2109.81 270.997 Q2110.94 271.83 2114.37 272.594 L2115.83 272.918 Q2120.36 273.89 2122.26 275.672 Q2124.18 277.432 2124.18 280.603 Q2124.18 284.214 2121.31 286.321 Q2118.46 288.427 2113.46 288.427 Q2111.38 288.427 2109.11 288.01 Q2106.87 287.617 2104.37 286.807 L2104.37 282.409 Q2106.73 283.635 2109.02 284.26 Q2111.31 284.862 2113.56 284.862 Q2116.57 284.862 2118.19 283.844 Q2119.81 282.802 2119.81 280.927 Q2119.81 279.191 2118.63 278.265 Q2117.47 277.339 2113.51 276.483 L2112.03 276.135 Q2108.07 275.302 2106.31 273.589 Q2104.55 271.853 2104.55 268.844 Q2104.55 265.186 2107.14 263.196 Q2109.74 261.205 2114.51 261.205 Q2116.87 261.205 2118.95 261.552 Q2121.03 261.899 2122.79 262.594 Z" fill="#000000" fill-rule="nonzero" fill-opacity="1"></path></svg>