<svg xmlns="http://www.w3.org/2000/svg" xmlns:xlink="http://www.w3.org/1999/xlink" width="600" height="400" viewBox="0 0 2400 1600">
<defs>
  <clipPath id="clip440">
    <rect x="0" y="0" width="2400" height="1600"></rect>
  </clipPath>
</defs>
<path clip-path="url(#clip440)" d="M0 1600 L2400 1600 L2400 8.88178e-14 L0 8.88178e-14  Z" fill="#ffffff" fill-rule="evenodd" fill-opacity="1"></path>
<defs>
  <clipPath id="clip441">
    <rect x="480" y="0" width="1681" height="1600"></rect>
  </clipPath>
</defs>
<path clip-path="url(#clip440)" d="M247.459 1423.18 L2352.76 1423.18 L2352.76 123.472 L247.459 123.472  Z" fill="#ffffff" fill-rule="evenodd" fill-opacity="1"></path>
<defs>
  <clipPath id="clip442">
    <rect x="247" y="123" width="2106" height="1301"></rect>
  </clipPath>
</defs>
<polyline clip-path="url(#clip442)" style="stroke:#000000; stroke-linecap:round; stroke-linejoin:round; stroke-width:2; stroke-opacity:0.1; fill:none" points="505.656,1423.18 505.656,123.472 "></polyline>
<polyline clip-path="url(#clip442)" style="stroke:#000000; stroke-linecap:round; stroke-linejoin:round; stroke-width:2; stroke-opacity:0.1; fill:none" points="902.881,1423.18 902.881,123.472 "></polyline>
<polyline clip-path="url(#clip442)" style="stroke:#000000; stroke-linecap:round; stroke-linejoin:round; stroke-width:2; stroke-opacity:0.1; fill:none" points="1300.11,1423.18 1300.11,123.472 "></polyline>
<polyline clip-path="url(#clip442)" style="stroke:#000000; stroke-linecap:round; stroke-linejoin:round; stroke-width:2; stroke-opacity:0.1; fill:none" points="1697.33,1423.18 1697.33,123.472 "></polyline>
<polyline clip-path="url(#clip442)" style="stroke:#000000; stroke-linecap:round; stroke-linejoin:round; stroke-width:2; stroke-opacity:0.1; fill:none" points="2094.56,1423.18 2094.56,123.472 "></polyline>
<polyline clip-path="url(#clip442)" style="stroke:#000000; stroke-linecap:round; stroke-linejoin:round; stroke-width:2; stroke-opacity:0.1; fill:none" points="247.459,1386.4 2352.76,1386.4 "></polyline>
<polyline clip-path="url(#clip442)" style="stroke:#000000; stroke-linecap:round; stroke-linejoin:round; stroke-width:2; stroke-opacity:0.1; fill:none" points="247.459,1123.68 2352.76,1123.68 "></polyline>
<polyline clip-path="url(#clip442)" style="stroke:#000000; stroke-linecap:round; stroke-linejoin:round; stroke-width:2; stroke-opacity:0.1; fill:none" points="247.459,860.969 2352.76,860.969 "></polyline>
<polyline clip-path="url(#clip442)" style="stroke:#000000; stroke-linecap:round; stroke-linejoin:round; stroke-width:2; stroke-opacity:0.1; fill:none" points="247.459,598.256 2352.76,598.256 "></polyline>
<polyline clip-path="url(#clip442)" style="stroke:#000000; stroke-linecap:round; stroke-linejoin:round; stroke-width:2; stroke-opacity:0.1; fill:none" points="247.459,335.542 2352.76,335.542 "></polyline>
<polyline clip-path="url(#clip440)" style="stroke:#000000; stroke-linecap:round; stroke-linejoin:round; stroke-width:4; stroke-opacity:1; fill:none" points="247.459,1423.18 2352.76,1423.18 "></polyline>
<polyline clip-path="url(#clip440)" style="stroke:#000000; stroke-linecap:round; stroke-linejoin:round; stroke-width:4; stroke-opacity:1; fill:none" points="505.656,1423.18 505.656,1404.28 "></polyline>
<polyline clip-path="url(#clip440)" style="stroke:#000000; stroke-linecap:round; stroke-linejoin:round; stroke-width:4; stroke-opacity:1; fill:none" points="902.881,1423.18 902.881,1404.28 "></polyline>
<polyline clip-path="url(#clip440)" style="stroke:#000000; stroke-linecap:round; stroke-linejoin:round; stroke-width:4; stroke-opacity:1; fill:none" points="1300.11,1423.18 1300.11,1404.28 "></polyline>
<polyline clip-path="url(#clip440)" style="stroke:#000000; stroke-linecap:round; stroke-linejoin:round; stroke-width:4; stroke-opacity:1; fill:none" points="1697.33,1423.18 1697.33,1404.28 "></polyline>
<polyline clip-path="url(#clip440)" style="stroke:#000000; stroke-linecap:round; stroke-linejoin:round; stroke-width:4; stroke-opacity:1; fill:none" points="2094.56,1423.18 2094.56,1404.28 "></polyline>
<path clip-path="url(#clip440)" d="M474.556 1468.75 L504.232 1468.75 L504.232 1472.69 L474.556 1472.69 L474.556 1468.75 Z" fill="#000000" fill-rule="nonzero" fill-opacity="1"></path><path clip-path="url(#clip440)" d="M527.172 1455.09 L515.366 1473.54 L527.172 1473.54 L527.172 1455.09 M525.945 1451.02 L531.824 1451.02 L531.824 1473.54 L536.755 1473.54 L536.755 1477.43 L531.824 1477.43 L531.824 1485.58 L527.172 1485.58 L527.172 1477.43 L511.57 1477.43 L511.57 1472.92 L525.945 1451.02 Z" fill="#000000" fill-rule="nonzero" fill-opacity="1"></path><path clip-path="url(#clip440)" d="M872.824 1468.75 L902.499 1468.75 L902.499 1472.69 L872.824 1472.69 L872.824 1468.75 Z" fill="#000000" fill-rule="nonzero" fill-opacity="1"></path><path clip-path="url(#clip440)" d="M916.62 1481.64 L932.939 1481.64 L932.939 1485.58 L910.995 1485.58 L910.995 1481.64 Q913.657 1478.89 918.24 1474.26 Q922.847 1469.61 924.027 1468.27 Q926.273 1465.74 927.152 1464.01 Q928.055 1462.25 928.055 1460.56 Q928.055 1457.8 926.11 1456.07 Q924.189 1454.33 921.087 1454.33 Q918.888 1454.33 916.435 1455.09 Q914.004 1455.86 911.226 1457.41 L911.226 1452.69 Q914.05 1451.55 916.504 1450.97 Q918.958 1450.39 920.995 1450.39 Q926.365 1450.39 929.56 1453.08 Q932.754 1455.77 932.754 1460.26 Q932.754 1462.39 931.944 1464.31 Q931.157 1466.2 929.05 1468.8 Q928.472 1469.47 925.37 1472.69 Q922.268 1475.88 916.62 1481.64 Z" fill="#000000" fill-rule="nonzero" fill-opacity="1"></path><path clip-path="url(#clip440)" d="M1300.11 1454.1 Q1296.5 1454.1 1294.67 1457.66 Q1292.86 1461.2 1292.86 1468.33 Q1292.86 1475.44 1294.67 1479.01 Q1296.5 1482.55 1300.11 1482.55 Q1303.74 1482.55 1305.55 1479.01 Q1307.38 1475.44 1307.38 1468.33 Q1307.38 1461.2 1305.55 1457.66 Q1303.74 1454.1 1300.11 1454.1 M1300.11 1450.39 Q1305.92 1450.39 1308.97 1455 Q1312.05 1459.58 1312.05 1468.33 Q1312.05 1477.06 1308.97 1481.67 Q1305.92 1486.25 1300.11 1486.25 Q1294.3 1486.25 1291.22 1481.67 Q1288.16 1477.06 1288.16 1468.33 Q1288.16 1459.58 1291.22 1455 Q1294.3 1450.39 1300.11 1450.39 Z" fill="#000000" fill-rule="nonzero" fill-opacity="1"></path><path clip-path="url(#clip440)" d="M1691.99 1481.64 L1708.31 1481.64 L1708.31 1485.58 L1686.36 1485.58 L1686.36 1481.64 Q1689.02 1478.89 1693.61 1474.26 Q1698.21 1469.61 1699.39 1468.27 Q1701.64 1465.74 1702.52 1464.01 Q1703.42 1462.25 1703.42 1460.56 Q1703.42 1457.8 1701.48 1456.07 Q1699.56 1454.33 1696.45 1454.33 Q1694.25 1454.33 1691.8 1455.09 Q1689.37 1455.86 1686.59 1457.41 L1686.59 1452.69 Q1689.42 1451.55 1691.87 1450.97 Q1694.32 1450.39 1696.36 1450.39 Q1701.73 1450.39 1704.93 1453.08 Q1708.12 1455.77 1708.12 1460.26 Q1708.12 1462.39 1707.31 1464.31 Q1706.52 1466.2 1704.42 1468.8 Q1703.84 1469.47 1700.74 1472.69 Q1697.63 1475.88 1691.99 1481.64 Z" fill="#000000" fill-rule="nonzero" fill-opacity="1"></path><path clip-path="url(#clip440)" d="M2097.57 1455.09 L2085.76 1473.54 L2097.57 1473.54 L2097.57 1455.09 M2096.34 1451.02 L2102.22 1451.02 L2102.22 1473.54 L2107.15 1473.54 L2107.15 1477.43 L2102.22 1477.43 L2102.22 1485.58 L2097.57 1485.58 L2097.57 1477.43 L2081.97 1477.43 L2081.97 1472.92 L2096.34 1451.02 Z" fill="#000000" fill-rule="nonzero" fill-opacity="1"></path><path clip-path="url(#clip440)" d="M1290.4 1568.97 Q1277.19 1568.97 1277.19 1550.06 Q1277.19 1542.58 1282.12 1532.4 L1288.43 1532.4 Q1283.87 1542.58 1283.87 1550.22 Q1283.87 1564 1290.94 1564 Q1297.4 1564 1297.4 1546.88 L1302.81 1546.88 Q1302.81 1564 1309.27 1564 Q1316.34 1564 1316.34 1550.22 Q1316.34 1542.58 1311.79 1532.4 L1318.09 1532.4 Q1323.02 1542.58 1323.02 1550.06 Q1323.02 1568.97 1309.82 1568.97 Q1301.16 1568.97 1300.11 1559.45 Q1298.8 1568.97 1290.4 1568.97 Z" fill="#000000" fill-rule="nonzero" fill-opacity="1"></path><polyline clip-path="url(#clip440)" style="stroke:#000000; stroke-linecap:round; stroke-linejoin:round; stroke-width:4; stroke-opacity:1; fill:none" points="247.459,1423.18 247.459,123.472 "></polyline>
<polyline clip-path="url(#clip440)" style="stroke:#000000; stroke-linecap:round; stroke-linejoin:round; stroke-width:4; stroke-opacity:1; fill:none" points="247.459,1386.4 266.356,1386.4 "></polyline>
<polyline clip-path="url(#clip440)" style="stroke:#000000; stroke-linecap:round; stroke-linejoin:round; stroke-width:4; stroke-opacity:1; fill:none" points="247.459,1123.68 266.356,1123.68 "></polyline>
<polyline clip-path="url(#clip440)" style="stroke:#000000; stroke-linecap:round; stroke-linejoin:round; stroke-width:4; stroke-opacity:1; fill:none" points="247.459,860.969 266.356,860.969 "></polyline>
<polyline clip-path="url(#clip440)" style="stroke:#000000; stroke-linecap:round; stroke-linejoin:round; stroke-width:4; stroke-opacity:1; fill:none" points="247.459,598.256 266.356,598.256 "></polyline>
<polyline clip-path="url(#clip440)" style="stroke:#000000; stroke-linecap:round; stroke-linejoin:round; stroke-width:4; stroke-opacity:1; fill:none" points="247.459,335.542 266.356,335.542 "></polyline>
<path clip-path="url(#clip440)" d="M154.283 1372.19 Q150.672 1372.19 148.843 1375.76 Q147.038 1379.3 147.038 1386.43 Q147.038 1393.54 148.843 1397.1 Q150.672 1400.64 154.283 1400.64 Q157.917 1400.64 159.723 1397.1 Q161.552 1393.54 161.552 1386.43 Q161.552 1379.3 159.723 1375.76 Q157.917 1372.19 154.283 1372.19 M154.283 1368.49 Q160.093 1368.49 163.149 1373.1 Q166.227 1377.68 166.227 1386.43 Q166.227 1395.16 163.149 1399.76 Q160.093 1404.35 154.283 1404.35 Q148.473 1404.35 145.394 1399.76 Q142.339 1395.16 142.339 1386.43 Q142.339 1377.68 145.394 1373.1 Q148.473 1368.49 154.283 1368.49 Z" fill="#000000" fill-rule="nonzero" fill-opacity="1"></path><path clip-path="url(#clip440)" d="M174.445 1397.8 L179.329 1397.8 L179.329 1403.68 L174.445 1403.68 L174.445 1397.8 Z" fill="#000000" fill-rule="nonzero" fill-opacity="1"></path><path clip-path="url(#clip440)" d="M199.514 1372.19 Q195.903 1372.19 194.075 1375.76 Q192.269 1379.3 192.269 1386.43 Q192.269 1393.54 194.075 1397.1 Q195.903 1400.64 199.514 1400.64 Q203.149 1400.64 204.954 1397.1 Q206.783 1393.54 206.783 1386.43 Q206.783 1379.3 204.954 1375.76 Q203.149 1372.19 199.514 1372.19 M199.514 1368.49 Q205.324 1368.49 208.38 1373.1 Q211.459 1377.68 211.459 1386.43 Q211.459 1395.16 208.38 1399.76 Q205.324 1404.35 199.514 1404.35 Q193.704 1404.35 190.625 1399.76 Q187.57 1395.16 187.57 1386.43 Q187.57 1377.68 190.625 1373.1 Q193.704 1368.49 199.514 1368.49 Z" fill="#000000" fill-rule="nonzero" fill-opacity="1"></path><path clip-path="url(#clip440)" d="M149.306 1137.03 L165.626 1137.03 L165.626 1140.96 L143.681 1140.96 L143.681 1137.03 Q146.343 1134.27 150.927 1129.64 Q155.533 1124.99 156.714 1123.65 Q158.959 1121.12 159.839 1119.39 Q160.741 1117.63 160.741 1115.94 Q160.741 1113.18 158.797 1111.45 Q156.876 1109.71 153.774 1109.71 Q151.575 1109.71 149.121 1110.48 Q146.691 1111.24 143.913 1112.79 L143.913 1108.07 Q146.737 1106.93 149.191 1106.36 Q151.644 1105.78 153.681 1105.78 Q159.052 1105.78 162.246 1108.46 Q165.44 1111.15 165.44 1115.64 Q165.44 1117.77 164.63 1119.69 Q163.843 1121.59 161.737 1124.18 Q161.158 1124.85 158.056 1128.07 Q154.954 1131.26 149.306 1137.03 Z" fill="#000000" fill-rule="nonzero" fill-opacity="1"></path><path clip-path="url(#clip440)" d="M175.44 1135.08 L180.325 1135.08 L180.325 1140.96 L175.44 1140.96 L175.44 1135.08 Z" fill="#000000" fill-rule="nonzero" fill-opacity="1"></path><path clip-path="url(#clip440)" d="M190.556 1106.4 L208.912 1106.4 L208.912 1110.34 L194.838 1110.34 L194.838 1118.81 Q195.857 1118.46 196.875 1118.3 Q197.894 1118.12 198.912 1118.12 Q204.699 1118.12 208.079 1121.29 Q211.459 1124.46 211.459 1129.87 Q211.459 1135.45 207.987 1138.55 Q204.514 1141.63 198.195 1141.63 Q196.019 1141.63 193.75 1141.26 Q191.505 1140.89 189.098 1140.15 L189.098 1135.45 Q191.181 1136.59 193.403 1137.14 Q195.625 1137.7 198.102 1137.7 Q202.107 1137.7 204.445 1135.59 Q206.783 1133.49 206.783 1129.87 Q206.783 1126.26 204.445 1124.16 Q202.107 1122.05 198.102 1122.05 Q196.227 1122.05 194.352 1122.47 Q192.5 1122.88 190.556 1123.76 L190.556 1106.4 Z" fill="#000000" fill-rule="nonzero" fill-opacity="1"></path><path clip-path="url(#clip440)" d="M144.329 843.689 L162.686 843.689 L162.686 847.624 L148.612 847.624 L148.612 856.096 Q149.63 855.749 150.649 855.587 Q151.667 855.402 152.686 855.402 Q158.473 855.402 161.852 858.573 Q165.232 861.744 165.232 867.161 Q165.232 872.74 161.76 875.842 Q158.288 878.92 151.968 878.92 Q149.792 878.92 147.524 878.55 Q145.279 878.179 142.871 877.439 L142.871 872.74 Q144.954 873.874 147.177 874.43 Q149.399 874.985 151.876 874.985 Q155.88 874.985 158.218 872.879 Q160.556 870.772 160.556 867.161 Q160.556 863.55 158.218 861.443 Q155.88 859.337 151.876 859.337 Q150.001 859.337 148.126 859.754 Q146.274 860.17 144.329 861.05 L144.329 843.689 Z" fill="#000000" fill-rule="nonzero" fill-opacity="1"></path><path clip-path="url(#clip440)" d="M174.445 872.369 L179.329 872.369 L179.329 878.249 L174.445 878.249 L174.445 872.369 Z" fill="#000000" fill-rule="nonzero" fill-opacity="1"></path><path clip-path="url(#clip440)" d="M199.514 846.768 Q195.903 846.768 194.075 850.332 Q192.269 853.874 192.269 861.004 Q192.269 868.11 194.075 871.675 Q195.903 875.217 199.514 875.217 Q203.149 875.217 204.954 871.675 Q206.783 868.11 206.783 861.004 Q206.783 853.874 204.954 850.332 Q203.149 846.768 199.514 846.768 M199.514 843.064 Q205.324 843.064 208.38 847.67 Q211.459 852.254 211.459 861.004 Q211.459 869.73 208.38 874.337 Q205.324 878.92 199.514 878.92 Q193.704 878.92 190.625 874.337 Q187.57 869.73 187.57 861.004 Q187.57 852.254 190.625 847.67 Q193.704 843.064 199.514 843.064 Z" fill="#000000" fill-rule="nonzero" fill-opacity="1"></path><path clip-path="url(#clip440)" d="M144.098 580.976 L166.32 580.976 L166.32 582.966 L153.774 615.536 L148.89 615.536 L160.695 584.911 L144.098 584.911 L144.098 580.976 Z" fill="#000000" fill-rule="nonzero" fill-opacity="1"></path><path clip-path="url(#clip440)" d="M175.44 609.656 L180.325 609.656 L180.325 615.536 L175.44 615.536 L175.44 609.656 Z" fill="#000000" fill-rule="nonzero" fill-opacity="1"></path><path clip-path="url(#clip440)" d="M190.556 580.976 L208.912 580.976 L208.912 584.911 L194.838 584.911 L194.838 593.383 Q195.857 593.036 196.875 592.874 Q197.894 592.688 198.912 592.688 Q204.699 592.688 208.079 595.86 Q211.459 599.031 211.459 604.448 Q211.459 610.026 207.987 613.128 Q204.514 616.207 198.195 616.207 Q196.019 616.207 193.75 615.836 Q191.505 615.466 189.098 614.725 L189.098 610.026 Q191.181 611.161 193.403 611.716 Q195.625 612.272 198.102 612.272 Q202.107 612.272 204.445 610.165 Q206.783 608.059 206.783 604.448 Q206.783 600.837 204.445 598.73 Q202.107 596.624 198.102 596.624 Q196.227 596.624 194.352 597.04 Q192.5 597.457 190.556 598.337 L190.556 580.976 Z" fill="#000000" fill-rule="nonzero" fill-opacity="1"></path><path clip-path="url(#clip440)" d="M114.931 348.887 L122.57 348.887 L122.57 322.521 L114.26 324.188 L114.26 319.929 L122.524 318.262 L127.2 318.262 L127.2 348.887 L134.839 348.887 L134.839 352.822 L114.931 352.822 L114.931 348.887 Z" fill="#000000" fill-rule="nonzero" fill-opacity="1"></path><path clip-path="url(#clip440)" d="M154.283 321.341 Q150.672 321.341 148.843 324.906 Q147.038 328.447 147.038 335.577 Q147.038 342.683 148.843 346.248 Q150.672 349.79 154.283 349.79 Q157.917 349.79 159.723 346.248 Q161.552 342.683 161.552 335.577 Q161.552 328.447 159.723 324.906 Q157.917 321.341 154.283 321.341 M154.283 317.637 Q160.093 317.637 163.149 322.244 Q166.227 326.827 166.227 335.577 Q166.227 344.304 163.149 348.91 Q160.093 353.494 154.283 353.494 Q148.473 353.494 145.394 348.91 Q142.339 344.304 142.339 335.577 Q142.339 326.827 145.394 322.244 Q148.473 317.637 154.283 317.637 Z" fill="#000000" fill-rule="nonzero" fill-opacity="1"></path><path clip-path="url(#clip440)" d="M174.445 346.943 L179.329 346.943 L179.329 352.822 L174.445 352.822 L174.445 346.943 Z" fill="#000000" fill-rule="nonzero" fill-opacity="1"></path><path clip-path="url(#clip440)" d="M199.514 321.341 Q195.903 321.341 194.075 324.906 Q192.269 328.447 192.269 335.577 Q192.269 342.683 194.075 346.248 Q195.903 349.79 199.514 349.79 Q203.149 349.79 204.954 346.248 Q206.783 342.683 206.783 335.577 Q206.783 328.447 204.954 324.906 Q203.149 321.341 199.514 321.341 M199.514 317.637 Q205.324 317.637 208.38 322.244 Q211.459 326.827 211.459 335.577 Q211.459 344.304 208.38 348.91 Q205.324 353.494 199.514 353.494 Q193.704 353.494 190.625 348.91 Q187.57 344.304 187.57 335.577 Q187.57 326.827 190.625 322.244 Q193.704 317.637 199.514 317.637 Z" fill="#000000" fill-rule="nonzero" fill-opacity="1"></path><path clip-path="url(#clip440)" d="M22.818 823.52 L46.4666 832.241 L46.4666 814.767 L22.818 823.52 M16.4842 827.148 L16.4842 819.859 L64.0042 801.749 L64.0042 808.433 L51.8138 812.762 L51.8138 834.182 L64.0042 838.511 L64.0042 845.29 L16.4842 827.148 Z" fill="#000000" fill-rule="nonzero" fill-opacity="1"></path><path clip-path="url(#clip440)" d="M14.5426 780.997 Q21.8632 785.262 29.0246 787.331 Q36.186 789.399 43.5384 789.399 Q50.8908 789.399 58.1159 787.331 Q65.3091 785.23 72.5979 780.997 L72.5979 786.089 Q65.1182 790.864 57.8931 793.251 Q50.668 795.606 43.5384 795.606 Q36.4406 795.606 29.2474 793.251 Q22.0542 790.895 14.5426 786.089 L14.5426 780.997 Z" fill="#000000" fill-rule="nonzero" fill-opacity="1"></path><path clip-path="url(#clip440)" d="M64.9272 758.271 Q64.9272 771.48 46.021 771.48 Q38.5413 771.48 28.3562 766.547 L28.3562 760.244 Q38.5413 764.796 46.1802 764.796 Q59.9619 764.796 59.9619 757.73 Q59.9619 751.269 42.8382 751.269 L42.8382 745.858 Q59.9619 745.858 59.9619 739.397 Q59.9619 732.331 46.1802 732.331 Q38.5413 732.331 28.3562 736.882 L28.3562 730.58 Q38.5413 725.647 46.021 725.647 Q64.9272 725.647 64.9272 738.856 Q64.9272 747.513 55.4105 748.563 Q64.9272 749.868 64.9272 758.271 Z" fill="#000000" fill-rule="nonzero" fill-opacity="1"></path><path clip-path="url(#clip440)" d="M14.5426 715.971 L14.5426 710.878 Q22.0542 706.104 29.2474 703.749 Q36.4406 701.362 43.5384 701.362 Q50.668 701.362 57.8931 703.749 Q65.1182 706.104 72.5979 710.878 L72.5979 715.971 Q65.3091 711.738 58.1159 709.669 Q50.8908 707.568 43.5384 707.568 Q36.186 707.568 29.0246 709.669 Q21.8632 711.738 14.5426 715.971 Z" fill="#000000" fill-rule="nonzero" fill-opacity="1"></path><path clip-path="url(#clip440)" d="M947.334 14.0809 L947.334 22.0612 Q942.676 19.8332 938.544 18.7395 Q934.412 17.6457 930.564 17.6457 Q923.88 17.6457 920.234 20.2383 Q916.628 22.8309 916.628 27.611 Q916.628 31.6214 919.018 33.6873 Q921.449 35.7128 928.174 36.9686 L933.116 37.9813 Q942.271 39.7232 946.605 44.1387 Q950.98 48.5136 950.98 55.8863 Q950.98 64.6767 945.066 69.2137 Q939.192 73.7508 927.809 73.7508 Q923.515 73.7508 918.654 72.7785 Q913.833 71.8063 908.648 69.9024 L908.648 61.4765 Q913.631 64.2716 918.411 65.6895 Q923.191 67.1073 927.809 67.1073 Q934.817 67.1073 938.625 64.3527 Q942.433 61.598 942.433 56.4939 Q942.433 52.0379 939.678 49.5264 Q936.964 47.0148 930.726 45.759 L925.743 44.7868 Q916.588 42.9639 912.497 39.075 Q908.405 35.1862 908.405 28.2591 Q908.405 20.2383 914.036 15.6203 Q919.707 11.0023 929.632 11.0023 Q933.885 11.0023 938.301 11.7719 Q942.716 12.5416 947.334 14.0809 Z" fill="#000000" fill-rule="nonzero" fill-opacity="1"></path><path clip-path="url(#clip440)" d="M970.789 14.324 L970.789 27.2059 L986.142 27.2059 L986.142 32.9987 L970.789 32.9987 L970.789 57.6282 Q970.789 63.1779 972.288 64.7578 Q973.827 66.3376 978.486 66.3376 L986.142 66.3376 L986.142 72.576 L978.486 72.576 Q969.857 72.576 966.576 69.3758 Q963.295 66.1351 963.295 57.6282 L963.295 32.9987 L957.826 32.9987 L957.826 27.2059 L963.295 27.2059 L963.295 14.324 L970.789 14.324 Z" fill="#000000" fill-rule="nonzero" fill-opacity="1"></path><path clip-path="url(#clip440)" d="M1013.53 32.4315 Q1007.53 32.4315 1004.05 37.1306 Q1000.56 41.7891 1000.56 49.9314 Q1000.56 58.0738 1004.01 62.7728 Q1007.49 67.4314 1013.53 67.4314 Q1019.48 67.4314 1022.96 62.7323 Q1026.45 58.0333 1026.45 49.9314 Q1026.45 41.8701 1022.96 37.1711 Q1019.48 32.4315 1013.53 32.4315 M1013.53 26.1121 Q1023.25 26.1121 1028.8 32.4315 Q1034.35 38.7509 1034.35 49.9314 Q1034.35 61.0714 1028.8 67.4314 Q1023.25 73.7508 1013.53 73.7508 Q1003.76 73.7508 998.214 67.4314 Q992.704 61.0714 992.704 49.9314 Q992.704 38.7509 998.214 32.4315 Q1003.76 26.1121 1013.53 26.1121 Z" fill="#000000" fill-rule="nonzero" fill-opacity="1"></path><path clip-path="url(#clip440)" d="M1079.35 28.9478 L1079.35 35.9153 Q1076.19 34.1734 1072.99 33.3227 Q1069.83 32.4315 1066.59 32.4315 Q1059.34 32.4315 1055.33 37.0496 Q1051.32 41.6271 1051.32 49.9314 Q1051.32 58.2358 1055.33 62.8538 Q1059.34 67.4314 1066.59 67.4314 Q1069.83 67.4314 1072.99 66.5807 Q1076.19 65.6895 1079.35 63.9476 L1079.35 70.8341 Q1076.23 72.2924 1072.87 73.0216 Q1069.55 73.7508 1065.78 73.7508 Q1055.53 73.7508 1049.5 67.3098 Q1043.46 60.8689 1043.46 49.9314 Q1043.46 38.832 1049.54 32.472 Q1055.66 26.1121 1066.27 26.1121 Q1069.71 26.1121 1072.99 26.8413 Q1076.27 27.5299 1079.35 28.9478 Z" fill="#000000" fill-rule="nonzero" fill-opacity="1"></path><path clip-path="url(#clip440)" d="M1130.03 45.1919 L1130.03 72.576 L1122.58 72.576 L1122.58 45.4349 Q1122.58 38.994 1120.06 35.7938 Q1117.55 32.5936 1112.53 32.5936 Q1106.49 32.5936 1103.01 36.4419 Q1099.53 40.2903 1099.53 46.9338 L1099.53 72.576 L1092.03 72.576 L1092.03 9.54393 L1099.53 9.54393 L1099.53 34.2544 Q1102.2 30.163 1105.81 28.1376 Q1109.45 26.1121 1114.19 26.1121 Q1122.01 26.1121 1126.02 30.9732 Q1130.03 35.7938 1130.03 45.1919 Z" fill="#000000" fill-rule="nonzero" fill-opacity="1"></path><path clip-path="url(#clip440)" d="M1165.43 20.1573 L1154.34 50.2555 L1176.57 50.2555 L1165.43 20.1573 M1160.82 12.096 L1170.09 12.096 L1193.14 72.576 L1184.64 72.576 L1179.13 57.061 L1151.86 57.061 L1146.36 72.576 L1137.73 72.576 L1160.82 12.096 Z" fill="#000000" fill-rule="nonzero" fill-opacity="1"></path><path clip-path="url(#clip440)" d="M1245.8 16.7545 L1245.8 25.383 Q1241.67 21.5346 1236.97 19.6307 Q1232.32 17.7268 1227.05 17.7268 Q1216.68 17.7268 1211.17 24.0867 Q1205.66 30.4061 1205.66 42.3968 Q1205.66 54.3469 1211.17 60.7069 Q1216.68 67.0263 1227.05 67.0263 Q1232.32 67.0263 1236.97 65.1223 Q1241.67 63.2184 1245.8 59.3701 L1245.8 67.9175 Q1241.51 70.8341 1236.69 72.2924 Q1231.91 73.7508 1226.56 73.7508 Q1212.83 73.7508 1204.93 65.3654 Q1197.03 56.9395 1197.03 42.3968 Q1197.03 27.8135 1204.93 19.4281 Q1212.83 11.0023 1226.56 11.0023 Q1231.99 11.0023 1236.77 12.4606 Q1241.59 13.8784 1245.8 16.7545 Z" fill="#000000" fill-rule="nonzero" fill-opacity="1"></path><path clip-path="url(#clip440)" d="M1260.02 62.2867 L1268.57 62.2867 L1268.57 69.2543 L1261.93 82.2172 L1256.7 82.2172 L1260.02 69.2543 L1260.02 62.2867 Z" fill="#000000" fill-rule="nonzero" fill-opacity="1"></path><path clip-path="url(#clip440)" d="M1343.51 28.9478 L1343.51 35.9153 Q1340.35 34.1734 1337.15 33.3227 Q1333.99 32.4315 1330.75 32.4315 Q1323.5 32.4315 1319.49 37.0496 Q1315.48 41.6271 1315.48 49.9314 Q1315.48 58.2358 1319.49 62.8538 Q1323.5 67.4314 1330.75 67.4314 Q1333.99 67.4314 1337.15 66.5807 Q1340.35 65.6895 1343.51 63.9476 L1343.51 70.8341 Q1340.39 72.2924 1337.03 73.0216 Q1333.71 73.7508 1329.94 73.7508 Q1319.69 73.7508 1313.66 67.3098 Q1307.62 60.8689 1307.62 49.9314 Q1307.62 38.832 1313.7 32.472 Q1319.81 26.1121 1330.43 26.1121 Q1333.87 26.1121 1337.15 26.8413 Q1340.43 27.5299 1343.51 28.9478 Z" fill="#000000" fill-rule="nonzero" fill-opacity="1"></path><path clip-path="url(#clip440)" d="M1374.06 32.4315 Q1368.06 32.4315 1364.58 37.1306 Q1361.09 41.7891 1361.09 49.9314 Q1361.09 58.0738 1364.54 62.7728 Q1368.02 67.4314 1374.06 67.4314 Q1380.01 67.4314 1383.5 62.7323 Q1386.98 58.0333 1386.98 49.9314 Q1386.98 41.8701 1383.5 37.1711 Q1380.01 32.4315 1374.06 32.4315 M1374.06 26.1121 Q1383.78 26.1121 1389.33 32.4315 Q1394.88 38.7509 1394.88 49.9314 Q1394.88 61.0714 1389.33 67.4314 Q1383.78 73.7508 1374.06 73.7508 Q1364.29 73.7508 1358.74 67.4314 Q1353.23 61.0714 1353.23 49.9314 Q1353.23 38.7509 1358.74 32.4315 Q1364.29 26.1121 1374.06 26.1121 Z" fill="#000000" fill-rule="nonzero" fill-opacity="1"></path><path clip-path="url(#clip440)" d="M1444.95 45.1919 L1444.95 72.576 L1437.49 72.576 L1437.49 45.4349 Q1437.49 38.994 1434.98 35.7938 Q1432.47 32.5936 1427.45 32.5936 Q1421.41 32.5936 1417.93 36.4419 Q1414.44 40.2903 1414.44 46.9338 L1414.44 72.576 L1406.95 72.576 L1406.95 27.2059 L1414.44 27.2059 L1414.44 34.2544 Q1417.12 30.163 1420.72 28.1376 Q1424.37 26.1121 1429.11 26.1121 Q1436.93 26.1121 1440.94 30.9732 Q1444.95 35.7938 1444.95 45.1919 Z" fill="#000000" fill-rule="nonzero" fill-opacity="1"></path><path clip-path="url(#clip440)" d="M1467.19 14.324 L1467.19 27.2059 L1482.54 27.2059 L1482.54 32.9987 L1467.19 32.9987 L1467.19 57.6282 Q1467.19 63.1779 1468.69 64.7578 Q1470.23 66.3376 1474.88 66.3376 L1482.54 66.3376 L1482.54 72.576 L1474.88 72.576 Q1466.26 72.576 1462.97 69.3758 Q1459.69 66.1351 1459.69 57.6282 L1459.69 32.9987 L1454.22 32.9987 L1454.22 27.2059 L1459.69 27.2059 L1459.69 14.324 L1467.19 14.324 Z" fill="#000000" fill-rule="nonzero" fill-opacity="1"></path><path clip-path="url(#clip440)" d="M1526.09 14.324 L1526.09 27.2059 L1541.44 27.2059 L1541.44 32.9987 L1526.09 32.9987 L1526.09 57.6282 Q1526.09 63.1779 1527.59 64.7578 Q1529.13 66.3376 1533.78 66.3376 L1541.44 66.3376 L1541.44 72.576 L1533.78 72.576 Q1525.16 72.576 1521.87 69.3758 Q1518.59 66.1351 1518.59 57.6282 L1518.59 32.9987 L1513.12 32.9987 L1513.12 27.2059 L1518.59 27.2059 L1518.59 14.324 L1526.09 14.324 Z" fill="#000000" fill-rule="nonzero" fill-opacity="1"></path><path clip-path="url(#clip440)" d="M1570.12 76.7889 Q1566.96 84.8907 1563.96 87.3618 Q1560.97 89.8329 1555.94 89.8329 L1549.99 89.8329 L1549.99 83.5945 L1554.36 83.5945 Q1557.44 83.5945 1559.14 82.1361 Q1560.84 80.6778 1562.91 75.2496 L1564.25 71.8468 L1545.9 27.2059 L1553.8 27.2059 L1567.97 62.6918 L1582.15 27.2059 L1590.05 27.2059 L1570.12 76.7889 Z" fill="#000000" fill-rule="nonzero" fill-opacity="1"></path><path clip-path="url(#clip440)" d="M1607.55 65.7705 L1607.55 89.8329 L1600.06 89.8329 L1600.06 27.2059 L1607.55 27.2059 L1607.55 34.0924 Q1609.9 30.0415 1613.47 28.0971 Q1617.07 26.1121 1622.05 26.1121 Q1630.32 26.1121 1635.46 32.6746 Q1640.65 39.2371 1640.65 49.9314 Q1640.65 60.6258 1635.46 67.1883 Q1630.32 73.7508 1622.05 73.7508 Q1617.07 73.7508 1613.47 71.8063 Q1609.9 69.8214 1607.55 65.7705 M1632.91 49.9314 Q1632.91 41.7081 1629.51 37.0496 Q1626.14 32.3505 1620.23 32.3505 Q1614.32 32.3505 1610.91 37.0496 Q1607.55 41.7081 1607.55 49.9314 Q1607.55 58.1548 1610.91 62.8538 Q1614.32 67.5124 1620.23 67.5124 Q1626.14 67.5124 1629.51 62.8538 Q1632.91 58.1548 1632.91 49.9314 Z" fill="#000000" fill-rule="nonzero" fill-opacity="1"></path><path clip-path="url(#clip440)" d="M1691.81 48.0275 L1691.81 51.6733 L1657.54 51.6733 Q1658.02 59.3701 1662.16 63.421 Q1666.33 67.4314 1673.74 67.4314 Q1678.04 67.4314 1682.05 66.3781 Q1686.1 65.3249 1690.07 63.2184 L1690.07 70.267 Q1686.06 71.9684 1681.84 72.8596 Q1677.63 73.7508 1673.3 73.7508 Q1662.44 73.7508 1656.08 67.4314 Q1649.76 61.1119 1649.76 50.3365 Q1649.76 39.1965 1655.76 32.6746 Q1661.79 26.1121 1672 26.1121 Q1681.16 26.1121 1686.46 32.0264 Q1691.81 37.9003 1691.81 48.0275 M1684.36 45.84 Q1684.27 39.7232 1680.91 36.0774 Q1677.59 32.4315 1672.08 32.4315 Q1665.84 32.4315 1662.08 35.9558 Q1658.35 39.4801 1657.78 45.8805 L1684.36 45.84 Z" fill="#000000" fill-rule="nonzero" fill-opacity="1"></path><polyline clip-path="url(#clip442)" style="stroke:#009af9; stroke-linecap:round; stroke-linejoin:round; stroke-width:4; stroke-opacity:1; fill:none" points="307.043,1386.37 354.513,1386.36 397.676,1386.36 437.094,1386.35 473.234,1386.35 506.491,1386.34 537.197,1386.33 565.636,1386.31 592.049,1386.3 616.648,1386.29 639.612,1386.27 661.101,1386.24 681.253,1386.21 700.19,1386.18 718.018,1386.13 734.832,1386.07 750.717,1386 765.749,1385.9 779.995,1385.77 793.515,1385.61 806.363,1385.36 818.59,1384.98 830.238,1384.4 841.35,1383.44 851.96,1381.68 862.103,1377.85 871.809,1367.25 881.106,1317.12 890.02,706.368 898.573,1110.88 906.789,1340.24 914.685,1369 922.282,1377.12 929.596,1380.55 936.642,1382.28 943.435,1383.32 949.989,1383.98 956.317,1384.43 962.429,1384.76 968.338,1385.01 974.052,1385.18 979.583,1385.33 984.938,1385.44 990.126,1385.53 995.155,1385.61 1000.03,1385.68 1004.76,1385.73 1009.36,1385.79 1013.82,1385.83 1018.15,1385.86 1022.37,1385.89 1026.47,1385.92 1030.45,1385.94 1034.33,1385.96 1038.11,1385.98 1041.79,1386 1045.38,1386.01 1048.87,1386.02 1052.28,1386.04 1055.6,1386.05 1058.84,1386.06 1062.01,1386.07 1065.1,1386.08 1068.12,1386.09 1071.07,1386.1 1073.95,1386.1 1076.76,1386.1 1079.52,1386.11 1082.21,1386.12 1084.85,1386.12 1087.43,1386.13 1089.95,1386.13 1092.42,1386.13 1094.84,1386.14 1097.22,1386.14 1099.54,1386.14 1101.82,1386.14 1104.05,1386.14 1106.24,1386.15 1108.38,1386.15 1110.49,1386.15 1112.55,1386.16 1114.58,1386.16 1116.57,1386.16 1118.52,1386.16 1120.44,1386.16 1122.33,1386.16 1124.18,1386.16 1125.99,1386.16 1127.78,1386.16 1129.54,1386.17 1131.26,1386.17 1132.96,1386.17 1134.63,1386.17 1136.27,1386.17 1137.88,1386.17 1139.47,1386.17 1141.03,1386.17 1142.57,1386.17 1144.08,1386.17 1145.57,1386.17 1147.04,1386.17 1148.48,1386.17 1149.91,1386.17 1151.31,1386.17 1152.69,1386.16 1154.05,1386.16 1155.39,1386.16 1156.71,1386.16 1158.01,1386.16 1159.3,1386.16 1160.56,1386.16 1161.81,1386.16 1163.04,1386.16 1164.26,1386.16 1165.45,1386.16 1166.64,1386.16 1167.8,1386.16 1168.95,1386.15 1170.09,1386.15 1171.21,1386.15 1172.31,1386.15 1173.41,1386.15 1174.48,1386.15 1175.55,1386.15 1176.6,1386.15 1177.64,1386.15 1178.67,1386.15 1179.68,1386.14 1180.68,1386.14 1181.67,1386.14 1182.65,1386.14 1183.61,1386.14 1184.57,1386.14 1185.51,1386.14 1186.44,1386.13 1187.37,1386.13 1188.28,1386.13 1189.18,1386.13 1190.07,1386.13 1190.95,1386.13 1191.83,1386.13 1192.69,1386.12 1193.54,1386.12 1194.39,1386.12 1195.22,1386.12 1196.05,1386.12 1196.87,1386.11 1197.68,1386.11 1198.48,1386.11 1199.27,1386.11 1200.06,1386.11 1200.83,1386.11 1201.6,1386.11 1202.37,1386.1 1203.12,1386.1 1203.87,1386.1 1204.61,1386.1 1205.34,1386.1 1206.07,1386.09 1206.79,1386.09 1207.5,1386.09 1208.21,1386.09 1208.91,1386.08 1209.6,1386.08 1210.29,1386.08 1210.97,1386.08 1211.64,1386.08 1212.31,1386.07 1212.97,1386.07 1213.63,1386.07 1214.28,1386.07 1214.93,1386.06 1215.57,1386.06 1216.2,1386.06 1216.83,1386.06 1217.46,1386.05 1218.07,1386.05 1218.69,1386.05 1219.3,1386.04 1219.9,1386.04 1220.5,1386.04 1221.1,1386.03 1221.69,1386.03 1222.27,1386.03 1222.85,1386.03 1223.43,1386.02 1224,1386.02 1224.57,1386.02 1225.13,1386.02 1225.69,1386.01 1226.24,1386.01 1226.79,1386.01 1227.34,1386 1227.88,1386 1228.42,1386 1228.95,1385.99 1229.49,1385.99 1230.01,1385.99 1230.54,1385.99 1231.06,1385.98 1231.57,1385.98 1232.08,1385.98 1232.59,1385.97 1233.1,1385.97 1233.6,1385.97 1234.1,1385.96 1234.6,1385.96 1235.09,1385.96 1235.58,1385.95 1236.06,1385.95 1236.55,1385.94 1237.03,1385.94 1237.5,1385.94 1237.98,1385.93 1238.45,1385.93 1238.92,1385.93 1239.38,1385.92 1239.84,1385.92 1240.3,1385.91 1240.76,1385.91 1241.21,1385.9 1241.66,1385.9 1242.11,1385.89 1242.56,1385.89 1243,1385.88 1243.44,1385.88 1243.88,1385.87 1244.32,1385.87 1244.75,1385.86 1245.18,1385.86 1245.61,1385.85 1246.04,1385.85 1246.46,1385.84 1246.88,1385.84 1247.3,1385.83 1247.72,1385.83 1248.14,1385.82 1248.55,1385.82 1248.96,1385.81 1249.37,1385.8 1249.78,1385.8 1250.18,1385.79 1250.58,1385.78 1250.98,1385.78 1251.38,1385.77 1251.78,1385.76 1252.17,1385.75 1252.57,1385.75 1252.96,1385.74 1253.35,1385.73 1253.73,1385.72 1254.12,1385.71 1254.5,1385.71 1254.88,1385.7 1255.26,1385.69 1255.64,1385.68 1256.02,1385.67 1256.4,1385.66 1256.77,1385.65 1257.14,1385.64 1257.51,1385.62 1257.88,1385.61 1258.25,1385.6 1258.61,1385.6 1258.98,1385.59 1259.34,1385.58 1259.7,1385.57 1260.06,1385.56 1260.42,1385.54 1260.78,1385.53 1261.13,1385.52 1261.48,1385.5 1261.84,1385.49 1262.19,1385.48 1262.54,1385.46 1262.89,1385.45 1263.23,1385.44 1263.58,1385.43 1263.93,1385.41 1264.27,1385.4 1264.61,1385.39 1264.95,1385.37 1265.29,1385.36 1265.63,1385.34 1265.97,1385.32 1266.3,1385.31 1266.64,1385.29 1266.97,1385.27 1267.31,1385.25 1267.64,1385.23 1267.97,1385.21 1268.3,1385.19 1268.63,1385.17 1268.95,1385.14 1269.28,1385.12 1269.61,1385.1 1269.93,1385.07 1270.26,1385.05 1270.58,1385.02 1270.9,1385 1271.22,1384.97 1271.54,1384.94 1271.86,1384.91 1272.18,1384.87 1272.49,1384.84 1272.81,1384.8 1273.13,1384.77 1273.44,1384.73 1273.75,1384.69 1274.07,1384.64 1274.38,1384.6 1274.69,1384.55 1275,1384.5 1275.31,1384.45 1275.62,1384.4 1275.93,1384.35 1276.23,1384.3 1276.54,1384.24 1276.85,1384.18 1277.15,1384.11 1277.46,1384.05 1277.76,1383.97 1278.06,1383.9 1278.37,1383.82 1278.67,1383.74 1278.97,1383.66 1279.27,1383.57 1279.57,1383.48 1279.87,1383.38 1280.17,1383.28 1280.46,1383.17 1280.76,1383.05 1281.06,1382.93 1281.36,1382.79 1281.65,1382.65 1281.95,1382.49 1282.24,1382.33 1282.53,1382.15 1282.83,1381.96 1283.12,1381.76 1283.41,1381.54 1283.71,1381.31 1284,1381.06 1284.29,1380.79 1284.58,1380.5 1284.87,1380.19 1285.16,1379.85 1285.45,1379.47 1285.74,1379.05 1286.03,1378.6 1286.31,1378.1 1286.6,1377.55 1286.89,1376.95 1287.18,1376.3 1287.46,1375.59 1287.75,1374.81 1288.03,1373.96 1288.32,1373.02 1288.61,1371.98 1288.89,1370.83 1289.17,1369.56 1289.46,1368.15 1289.74,1366.58 1290.03,1364.84 1290.31,1362.91 1290.59,1360.77 1290.88,1358.4 1291.16,1355.8 1291.44,1352.94 1291.72,1349.8 1292,1346.4 1292.29,1342.71 1292.57,1338.75 1292.85,1334.55 1293.13,1330.19 1293.41,1325.76 1293.69,1321.41 1293.97,1317.37 1294.25,1313.88 1294.53,1311.24 1294.81,1309.71 1295.09,1309.49 1295.37,1310.66 1295.65,1313.17 1295.93,1316.82 1296.21,1321.31 1296.49,1326.31 1296.77,1331.52 1297.04,1336.68 1297.32,1341.61 1297.6,1346.21 1297.88,1350.4 1298.16,1354.18 1298.44,1357.53 1298.72,1360.49 1298.99,1363.09 1299.27,1365.37 1299.55,1367.36 1299.83,1369.11 1300.11,1370.64 1300.39,1371.98 1300.66,1373.17 1300.94,1374.21 1301.22,1375.14 1301.5,1375.96 1301.78,1376.69 1302.06,1377.35 1302.33,1377.94 1302.61,1378.46 1302.89,1378.94 1303.17,1379.37 1303.45,1379.76 1303.73,1380.12 1304.01,1380.44 1304.29,1380.74 1304.57,1381 1304.85,1381.25 1305.12,1381.47 1305.4,1381.68 1305.68,1381.87 1305.96,1382.05 1306.24,1382.21 1306.52,1382.36 1306.81,1382.5 1307.09,1382.63 1307.37,1382.74 1307.65,1382.86 1307.93,1382.96 1308.21,1383.05 1308.49,1383.14 1308.77,1383.22 1309.06,1383.3 1309.34,1383.37 1309.62,1383.44 1309.9,1383.5 1310.19,1383.56 1310.47,1383.61 1310.76,1383.66 1311.04,1383.71 1311.32,1383.75 1311.61,1383.79 1311.89,1383.83 1312.18,1383.86 1312.47,1383.89 1312.75,1383.92 1313.04,1383.95 1313.33,1383.98 1313.61,1384 1313.9,1384.03 1314.19,1384.05 1314.48,1384.07 1314.77,1384.09 1315.06,1384.11 1315.34,1384.13 1315.64,1384.14 1315.93,1384.16 1316.22,1384.17 1316.51,1384.18 1316.8,1384.19 1317.09,1384.19 1317.39,1384.2 1317.68,1384.19 1317.97,1384.19 1318.27,1384.18 1318.56,1384.16 1318.86,1384.15 1319.16,1384.12 1319.45,1384.09 1319.75,1384.06 1320.05,1384.03 1320.35,1383.99 1320.65,1383.95 1320.95,1383.91 1321.25,1383.87 1321.55,1383.83 1321.85,1383.79 1322.15,1383.75 1322.45,1383.7 1322.76,1383.65 1323.06,1383.59 1323.37,1383.52 1323.67,1383.45 1323.98,1383.37 1324.29,1383.29 1324.6,1383.22 1324.9,1383.16 1325.21,1383.11 1325.52,1383.08 1325.84,1383.06 1326.15,1383.04 1326.46,1383.03 1326.77,1383.01 1327.09,1382.98 1327.4,1382.95 1327.72,1382.91 1328.04,1382.87 1328.36,1382.82 1328.67,1382.76 1328.99,1382.7 1329.31,1382.63 1329.64,1382.55 1329.96,1382.49 1330.28,1382.43 1330.61,1382.38 1330.93,1382.34 1331.26,1382.31 1331.59,1382.3 1331.92,1382.29 1332.25,1382.3 1332.58,1382.3 1332.91,1382.3 1333.24,1382.31 1333.58,1382.34 1333.91,1382.38 1334.25,1382.43 1334.58,1382.49 1334.92,1382.55 1335.26,1382.61 1335.6,1382.65 1335.95,1382.68 1336.29,1382.7 1336.63,1382.7 1336.98,1382.69 1337.33,1382.67 1337.68,1382.66 1338.03,1382.64 1338.38,1382.62 1338.73,1382.6 1339.08,1382.58 1339.44,1382.56 1339.8,1382.55 1340.15,1382.52 1340.51,1382.49 1340.88,1382.46 1341.24,1382.42 1341.6,1382.37 1341.97,1382.32 1342.33,1382.27 1342.7,1382.23 1343.07,1382.19 1343.45,1382.16 1343.82,1382.11 1344.19,1382.06 1344.57,1382.02 1344.95,1381.97 1345.33,1381.91 1345.71,1381.86 1346.1,1381.79 1346.48,1381.72 1346.87,1381.64 1347.26,1381.56 1347.65,1381.48 1348.04,1381.4 1348.44,1381.34 1348.83,1381.29 1349.23,1381.24 1349.63,1381.18 1350.03,1381.1 1350.44,1380.98 1350.85,1380.82 1351.25,1380.63 1351.67,1380.43 1352.08,1380.23 1352.49,1380.08 1352.91,1379.99 1353.33,1379.94 1353.75,1379.94 1354.18,1379.96 1354.6,1379.97 1355.03,1379.95 1355.46,1379.89 1355.9,1379.79 1356.33,1379.65 1356.77,1379.5 1357.21,1379.36 1357.66,1379.27 1358.1,1379.2 1358.55,1379.15 1359,1379.1 1359.46,1379.03 1359.91,1378.95 1360.37,1378.86 1360.83,1378.76 1361.3,1378.64 1361.77,1378.51 1362.24,1378.36 1362.71,1378.18 1363.19,1377.99 1363.67,1377.79 1364.15,1377.56 1364.64,1377.32 1365.13,1377.05 1365.62,1376.76 1366.11,1376.45 1366.61,1376.12 1367.12,1375.76 1367.62,1375.37 1368.13,1374.94 1368.64,1374.46 1369.16,1373.94 1369.68,1373.36 1370.2,1372.73 1370.73,1372.06 1371.26,1371.36 1371.79,1370.63 1372.33,1369.85 1372.88,1368.99 1373.42,1368.04 1373.97,1367.01 1374.53,1365.91 1375.09,1364.72 1375.65,1363.41 1376.22,1361.92 1376.79,1360.24 1377.36,1358.32 1377.94,1356.12 1378.53,1353.61 1379.12,1350.72 1379.71,1347.4 1380.31,1343.56 1380.92,1339.08 1381.53,1333.82 1382.14,1327.59 1382.76,1320.12 1383.38,1311.05 1384.01,1299.93 1384.65,1286.15 1385.29,1268.76 1385.93,1246.39 1386.58,1216.92 1387.24,1177.21 1387.9,1122.56 1388.57,1046.1 1389.25,938.192 1389.93,787.204 1390.62,587.029 1391.31,359.638 1392.01,183.293 1392.71,160.256 1393.43,304.632 1394.15,526.248 1394.87,737.401 1395.61,903.927 1396.35,1025.5 1397.09,1112.03 1397.85,1173.65 1398.61,1218.14 1399.38,1250.88 1400.16,1275.35 1400.94,1293.97 1401.74,1308.42 1402.54,1319.8 1403.35,1328.93 1404.17,1336.45 1404.99,1342.76 1405.83,1348.08 1406.67,1352.54 1407.53,1356.26 1408.39,1359.41 1409.26,1362.14 1410.14,1364.57 1411.03,1366.72 1411.94,1368.56 1412.85,1370.17 1413.77,1371.61 1414.7,1372.85 1415.65,1373.92 1416.6,1374.88 1417.57,1375.73 1418.55,1376.51 1419.54,1377.23 1420.54,1377.92 1421.55,1378.55 1422.58,1379.11 1423.61,1379.6 1424.67,1380.03 1425.73,1380.41 1426.81,1380.78 1427.9,1381.15 1429.01,1381.48 1430.13,1381.79 1431.26,1382.06 1432.41,1382.31 1433.58,1382.54 1434.76,1382.75 1435.96,1382.94 1437.17,1383.11 1438.4,1383.29 1439.65,1383.47 1440.92,1383.63 1442.2,1383.77 1443.5,1383.91 1444.82,1384.05 1446.16,1384.16 1447.53,1384.27 1448.91,1384.37 1450.31,1384.47 1451.73,1384.56 1453.17,1384.65 1454.64,1384.73 1456.13,1384.82 1457.65,1384.9 1459.18,1384.97 1460.75,1385.04 1462.33,1385.1 1463.95,1385.16 1465.59,1385.21 1467.26,1385.26 1468.95,1385.31 1470.68,1385.36 1472.44,1385.4 1474.22,1385.44 1476.04,1385.48 1477.89,1385.52 1479.77,1385.56 1481.69,1385.6 1483.64,1385.63 1485.63,1385.66 1487.66,1385.7 1489.73,1385.73 1491.83,1385.76 1493.98,1385.78 1496.17,1385.81 1498.4,1385.83 1500.68,1385.86 1503,1385.88 1505.37,1385.9 1507.79,1385.92 1510.26,1385.94 1512.79,1385.96 1515.37,1385.98 1518,1385.99 1520.7,1386.01 1523.45,1386.02 1526.27,1386.04 1529.15,1386.05 1532.1,1386.07 1535.12,1386.08 1538.21,1386.09 1541.37,1386.11 1544.61,1386.12 1547.94,1386.13 1551.34,1386.14 1554.84,1386.15 1558.42,1386.16 1562.1,1386.17 1565.88,1386.18 1569.76,1386.19 1573.75,1386.2 1577.85,1386.2 1582.06,1386.21 1586.39,1386.22 1590.86,1386.23 1595.45,1386.23 1600.18,1386.24 1605.06,1386.25 1610.09,1386.25 1615.28,1386.26 1620.63,1386.27 1626.16,1386.27 1631.88,1386.28 1637.79,1386.28 1643.9,1386.29 1650.23,1386.29 1656.78,1386.3 1663.57,1386.3 1670.62,1386.31 1677.93,1386.31 1685.53,1386.31 1693.43,1386.32 1701.64,1386.32 1710.19,1386.33 1719.11,1386.33 1728.41,1386.33 1738.11,1386.34 1748.25,1386.34 1758.86,1386.34 1769.98,1386.34 1781.62,1386.35 1793.85,1386.35 1806.7,1386.35 1820.22,1386.35 1834.47,1386.36 1849.5,1386.36 1865.38,1386.36 1882.2,1386.36 1900.02,1386.37 1918.96,1386.37 1939.11,1386.37 1960.6,1386.37 1983.57,1386.37 2008.17,1386.37 2034.58,1386.38 2063.02,1386.38 2093.72,1386.38 2126.98,1386.38 2163.12,1386.38 2202.54,1386.38 2245.7,1386.38 2293.17,1386.38 "></polyline>
<polyline clip-path="url(#clip442)" style="stroke:#e26f46; stroke-linecap:round; stroke-linejoin:round; stroke-width:4; stroke-opacity:1; fill:none" points="307.043,1386.16 354.513,1385.81 397.676,1385.19 437.094,1384.19 473.234,1382.76 506.491,1380.91 537.197,1378.66 565.636,1376.12 592.049,1373.4 616.648,1370.62 639.612,1367.88 661.101,1365.31 681.253,1362.96 700.19,1360.88 718.018,1359.12 734.832,1357.69 750.717,1356.57 765.749,1355.75 779.995,1355.22 793.515,1354.93 806.363,1354.87 818.59,1355.01 830.238,1355.31 841.35,1355.75 851.96,1356.3 862.103,1356.94 871.809,1357.65 881.106,1358.41 890.02,1359.21 898.573,1360.03 906.789,1360.87 914.685,1361.71 922.282,1362.55 929.596,1363.38 936.642,1364.2 943.435,1365 949.989,1365.78 956.317,1366.53 962.429,1367.27 968.338,1367.98 974.052,1368.67 979.583,1369.33 984.938,1369.96 990.126,1370.57 995.155,1371.16 1000.03,1371.72 1004.76,1372.25 1009.36,1372.77 1013.82,1373.26 1018.15,1373.73 1022.37,1374.18 1026.47,1374.61 1030.45,1375.02 1034.33,1375.41 1038.11,1375.79 1041.79,1376.15 1045.38,1376.49 1048.87,1376.82 1052.28,1377.13 1055.6,1377.44 1058.84,1377.72 1062.01,1378 1065.1,1378.26 1068.12,1378.51 1071.07,1378.75 1073.95,1378.98 1076.76,1379.21 1079.52,1379.42 1082.21,1379.62 1084.85,1379.82 1087.43,1380 1089.95,1380.18 1092.42,1380.36 1094.84,1380.52 1097.22,1380.68 1099.54,1380.83 1101.82,1380.98 1104.05,1381.12 1106.24,1381.26 1108.38,1381.39 1110.49,1381.52 1112.55,1381.64 1114.58,1381.75 1116.57,1381.87 1118.52,1381.98 1120.44,1382.08 1122.33,1382.18 1124.18,1382.28 1125.99,1382.37 1127.78,1382.46 1129.54,1382.55 1131.26,1382.64 1132.96,1382.72 1134.63,1382.8 1136.27,1382.87 1137.88,1382.95 1139.47,1383.02 1141.03,1383.09 1142.57,1383.16 1144.08,1383.22 1145.57,1383.29 1147.04,1383.35 1148.48,1383.41 1149.91,1383.46 1151.31,1383.52 1152.69,1383.58 1154.05,1383.63 1155.39,1383.68 1156.71,1383.73 1158.01,1383.78 1159.3,1383.82 1160.56,1383.87 1161.81,1383.91 1163.04,1383.96 1164.26,1384 1165.45,1384.04 1166.64,1384.08 1167.8,1384.12 1168.95,1384.15 1170.09,1384.19 1171.21,1384.23 1172.31,1384.26 1173.41,1384.3 1174.48,1384.33 1175.55,1384.36 1176.6,1384.39 1177.64,1384.42 1178.67,1384.45 1179.68,1384.48 1180.68,1384.51 1181.67,1384.54 1182.65,1384.56 1183.61,1384.59 1184.57,1384.62 1185.51,1384.64 1186.44,1384.67 1187.37,1384.69 1188.28,1384.71 1189.18,1384.74 1190.07,1384.76 1190.95,1384.78 1191.83,1384.8 1192.69,1384.82 1193.54,1384.84 1194.39,1384.86 1195.22,1384.88 1196.05,1384.9 1196.87,1384.92 1197.68,1384.94 1198.48,1384.96 1199.27,1384.98 1200.06,1384.99 1200.83,1385.01 1201.6,1385.03 1202.37,1385.04 1203.12,1385.06 1203.87,1385.08 1204.61,1385.09 1205.34,1385.11 1206.07,1385.12 1206.79,1385.14 1207.5,1385.15 1208.21,1385.16 1208.91,1385.18 1209.6,1385.19 1210.29,1385.2 1210.97,1385.22 1211.64,1385.23 1212.31,1385.24 1212.97,1385.25 1213.63,1385.27 1214.28,1385.28 1214.93,1385.29 1215.57,1385.3 1216.2,1385.31 1216.83,1385.32 1217.46,1385.33 1218.07,1385.34 1218.69,1385.35 1219.3,1385.36 1219.9,1385.37 1220.5,1385.38 1221.1,1385.39 1221.69,1385.4 1222.27,1385.41 1222.85,1385.42 1223.43,1385.43 1224,1385.44 1224.57,1385.45 1225.13,1385.46 1225.69,1385.46 1226.24,1385.47 1226.79,1385.48 1227.34,1385.49 1227.88,1385.49 1228.42,1385.5 1228.95,1385.51 1229.49,1385.52 1230.01,1385.52 1230.54,1385.53 1231.06,1385.54 1231.57,1385.54 1232.08,1385.55 1232.59,1385.56 1233.1,1385.56 1233.6,1385.57 1234.1,1385.58 1234.6,1385.58 1235.09,1385.59 1235.58,1385.59 1236.06,1385.6 1236.55,1385.6 1237.03,1385.61 1237.5,1385.61 1237.98,1385.62 1238.45,1385.62 1238.92,1385.63 1239.38,1385.63 1239.84,1385.64 1240.3,1385.64 1240.76,1385.64 1241.21,1385.65 1241.66,1385.65 1242.11,1385.66 1242.56,1385.66 1243,1385.66 1243.44,1385.67 1243.88,1385.67 1244.32,1385.67 1244.75,1385.67 1245.18,1385.68 1245.61,1385.68 1246.04,1385.68 1246.46,1385.68 1246.88,1385.69 1247.3,1385.69 1247.72,1385.69 1248.14,1385.69 1248.55,1385.69 1248.96,1385.69 1249.37,1385.7 1249.78,1385.7 1250.18,1385.7 1250.58,1385.7 1250.98,1385.7 1251.38,1385.7 1251.78,1385.7 1252.17,1385.7 1252.57,1385.7 1252.96,1385.7 1253.35,1385.7 1253.73,1385.7 1254.12,1385.7 1254.5,1385.7 1254.88,1385.7 1255.26,1385.7 1255.64,1385.69 1256.02,1385.69 1256.4,1385.69 1256.77,1385.69 1257.14,1385.69 1257.51,1385.69 1257.88,1385.68 1258.25,1385.68 1258.61,1385.68 1258.98,1385.67 1259.34,1385.67 1259.7,1385.67 1260.06,1385.66 1260.42,1385.66 1260.78,1385.66 1261.13,1385.65 1261.48,1385.65 1261.84,1385.64 1262.19,1385.64 1262.54,1385.63 1262.89,1385.63 1263.23,1385.62 1263.58,1385.61 1263.93,1385.61 1264.27,1385.6 1264.61,1385.6 1264.95,1385.59 1265.29,1385.58 1265.63,1385.57 1265.97,1385.57 1266.3,1385.56 1266.64,1385.55 1266.97,1385.54 1267.31,1385.53 1267.64,1385.52 1267.97,1385.52 1268.3,1385.51 1268.63,1385.5 1268.95,1385.49 1269.28,1385.47 1269.61,1385.46 1269.93,1385.45 1270.26,1385.44 1270.58,1385.43 1270.9,1385.42 1271.22,1385.41 1271.54,1385.39 1271.86,1385.38 1272.18,1385.37 1272.49,1385.35 1272.81,1385.34 1273.13,1385.32 1273.44,1385.31 1273.75,1385.29 1274.07,1385.28 1274.38,1385.26 1274.69,1385.25 1275,1385.23 1275.31,1385.21 1275.62,1385.2 1275.93,1385.18 1276.23,1385.16 1276.54,1385.14 1276.85,1385.12 1277.15,1385.1 1277.46,1385.08 1277.76,1385.06 1278.06,1385.04 1278.37,1385.02 1278.67,1385 1278.97,1384.98 1279.27,1384.95 1279.57,1384.93 1279.87,1384.91 1280.17,1384.88 1280.46,1384.86 1280.76,1384.84 1281.06,1384.81 1281.36,1384.78 1281.65,1384.76 1281.95,1384.73 1282.24,1384.7 1282.53,1384.67 1282.83,1384.65 1283.12,1384.62 1283.41,1384.59 1283.71,1384.56 1284,1384.53 1284.29,1384.5 1284.58,1384.46 1284.87,1384.43 1285.16,1384.4 1285.45,1384.36 1285.74,1384.33 1286.03,1384.29 1286.31,1384.26 1286.6,1384.22 1286.89,1384.19 1287.18,1384.15 1287.46,1384.11 1287.75,1384.07 1288.03,1384.03 1288.32,1383.99 1288.61,1383.95 1288.89,1383.91 1289.17,1383.87 1289.46,1383.82 1289.74,1383.78 1290.03,1383.73 1290.31,1383.69 1290.59,1383.64 1290.88,1383.6 1291.16,1383.55 1291.44,1383.5 1291.72,1383.45 1292,1383.4 1292.29,1383.35 1292.57,1383.3 1292.85,1383.25 1293.13,1383.19 1293.41,1383.14 1293.69,1383.08 1293.97,1383.03 1294.25,1382.97 1294.53,1382.91 1294.81,1382.85 1295.09,1382.79 1295.37,1382.73 1295.65,1382.67 1295.93,1382.61 1296.21,1382.54 1296.49,1382.48 1296.77,1382.41 1297.04,1382.35 1297.32,1382.28 1297.6,1382.21 1297.88,1382.14 1298.16,1382.07 1298.44,1382 1298.72,1381.92 1298.99,1381.85 1299.27,1381.77 1299.55,1381.7 1299.83,1381.62 1300.11,1381.54 1300.39,1381.46 1300.66,1381.38 1300.94,1381.3 1301.22,1381.21 1301.5,1381.13 1301.78,1381.04 1302.06,1380.95 1302.33,1380.86 1302.61,1380.77 1302.89,1380.68 1303.17,1380.59 1303.45,1380.49 1303.73,1380.4 1304.01,1380.3 1304.29,1380.2 1304.57,1380.1 1304.85,1380 1305.12,1379.9 1305.4,1379.79 1305.68,1379.69 1305.96,1379.58 1306.24,1379.47 1306.52,1379.36 1306.81,1379.25 1307.09,1379.13 1307.37,1379.02 1307.65,1378.9 1307.93,1378.78 1308.21,1378.66 1308.49,1378.54 1308.77,1378.42 1309.06,1378.29 1309.34,1378.16 1309.62,1378.03 1309.9,1377.9 1310.19,1377.77 1310.47,1377.63 1310.76,1377.5 1311.04,1377.36 1311.32,1377.22 1311.61,1377.07 1311.89,1376.93 1312.18,1376.78 1312.47,1376.63 1312.75,1376.48 1313.04,1376.33 1313.33,1376.17 1313.61,1376.02 1313.9,1375.86 1314.19,1375.7 1314.48,1375.53 1314.77,1375.37 1315.06,1375.2 1315.34,1375.03 1315.64,1374.85 1315.93,1374.68 1316.22,1374.5 1316.51,1374.32 1316.8,1374.14 1317.09,1373.95 1317.39,1373.77 1317.68,1373.57 1317.97,1373.38 1318.27,1373.19 1318.56,1372.99 1318.86,1372.79 1319.16,1372.58 1319.45,1372.38 1319.75,1372.17 1320.05,1371.96 1320.35,1371.74 1320.65,1371.52 1320.95,1371.3 1321.25,1371.08 1321.55,1370.85 1321.85,1370.62 1322.15,1370.39 1322.45,1370.16 1322.76,1369.92 1323.06,1369.68 1323.37,1369.43 1323.67,1369.18 1323.98,1368.93 1324.29,1368.68 1324.6,1368.42 1324.9,1368.16 1325.21,1367.89 1325.52,1367.62 1325.84,1367.35 1326.15,1367.08 1326.46,1366.8 1326.77,1366.51 1327.09,1366.23 1327.4,1365.94 1327.72,1365.64 1328.04,1365.35 1328.36,1365.04 1328.67,1364.74 1328.99,1364.43 1329.31,1364.12 1329.64,1363.8 1329.96,1363.48 1330.28,1363.15 1330.61,1362.82 1330.93,1362.49 1331.26,1362.15 1331.59,1361.81 1331.92,1361.46 1332.25,1361.11 1332.58,1360.76 1332.91,1360.4 1333.24,1360.04 1333.58,1359.67 1333.91,1359.29 1334.25,1358.92 1334.58,1358.53 1334.92,1358.15 1335.26,1357.76 1335.6,1357.36 1335.95,1356.96 1336.29,1356.55 1336.63,1356.14 1336.98,1355.73 1337.33,1355.31 1337.68,1354.88 1338.03,1354.45 1338.38,1354.01 1338.73,1353.57 1339.08,1353.13 1339.44,1352.67 1339.8,1352.22 1340.15,1351.75 1340.51,1351.29 1340.88,1350.81 1341.24,1350.34 1341.6,1349.85 1341.97,1349.36 1342.33,1348.87 1342.7,1348.37 1343.07,1347.86 1343.45,1347.35 1343.82,1346.84 1344.19,1346.31 1344.57,1345.78 1344.95,1345.25 1345.33,1344.71 1345.71,1344.17 1346.1,1343.61 1346.48,1343.06 1346.87,1342.49 1347.26,1341.93 1347.65,1341.35 1348.04,1340.77 1348.44,1340.19 1348.83,1339.59 1349.23,1339 1349.63,1338.39 1350.03,1337.78 1350.44,1337.17 1350.85,1336.55 1351.25,1335.92 1351.67,1335.29 1352.08,1334.65 1352.49,1334.01 1352.91,1333.36 1353.33,1332.7 1353.75,1332.04 1354.18,1331.37 1354.6,1330.7 1355.03,1330.03 1355.46,1329.34 1355.9,1328.65 1356.33,1327.96 1356.77,1327.26 1357.21,1326.56 1357.66,1325.85 1358.1,1325.14 1358.55,1324.42 1359,1323.7 1359.46,1322.97 1359.91,1322.24 1360.37,1321.5 1360.83,1320.76 1361.3,1320.01 1361.77,1319.27 1362.24,1318.51 1362.71,1317.76 1363.19,1317 1363.67,1316.24 1364.15,1315.47 1364.64,1314.7 1365.13,1313.93 1365.62,1313.16 1366.11,1312.39 1366.61,1311.61 1367.12,1310.83 1367.62,1310.05 1368.13,1309.27 1368.64,1308.49 1369.16,1307.71 1369.68,1306.93 1370.2,1306.15 1370.73,1305.37 1371.26,1304.6 1371.79,1303.82 1372.33,1303.05 1372.88,1302.28 1373.42,1301.51 1373.97,1300.75 1374.53,1299.99 1375.09,1299.23 1375.65,1298.48 1376.22,1297.74 1376.79,1297 1377.36,1296.27 1377.94,1295.55 1378.53,1294.83 1379.12,1294.12 1379.71,1293.43 1380.31,1292.74 1380.92,1292.06 1381.53,1291.4 1382.14,1290.75 1382.76,1290.11 1383.38,1289.49 1384.01,1288.88 1384.65,1288.29 1385.29,1287.71 1385.93,1287.15 1386.58,1286.61 1387.24,1286.09 1387.9,1285.59 1388.57,1285.12 1389.25,1284.66 1389.93,1284.23 1390.62,1283.82 1391.31,1283.44 1392.01,1283.09 1392.71,1282.76 1393.43,1282.47 1394.15,1282.2 1394.87,1281.96 1395.61,1281.76 1396.35,1281.59 1397.09,1281.46 1397.85,1281.36 1398.61,1281.3 1399.38,1281.28 1400.16,1281.3 1400.94,1281.36 1401.74,1281.46 1402.54,1281.61 1403.35,1281.8 1404.17,1282.03 1404.99,1282.32 1405.83,1282.65 1406.67,1283.03 1407.53,1283.46 1408.39,1283.94 1409.26,1284.47 1410.14,1285.05 1411.03,1285.69 1411.94,1286.38 1412.85,1287.13 1413.77,1287.94 1414.7,1288.79 1415.65,1289.71 1416.6,1290.68 1417.57,1291.71 1418.55,1292.8 1419.54,1293.95 1420.54,1295.15 1421.55,1296.41 1422.58,1297.72 1423.61,1299.09 1424.67,1300.52 1425.73,1302 1426.81,1303.54 1427.9,1305.12 1429.01,1306.76 1430.13,1308.45 1431.26,1310.18 1432.41,1311.96 1433.58,1313.79 1434.76,1315.65 1435.96,1317.56 1437.17,1319.5 1438.4,1321.47 1439.65,1323.47 1440.92,1325.5 1442.2,1327.56 1443.5,1329.63 1444.82,1331.72 1446.16,1333.81 1447.53,1335.92 1448.91,1338.03 1450.31,1340.14 1451.73,1342.24 1453.17,1344.34 1454.64,1346.41 1456.13,1348.47 1457.65,1350.51 1459.18,1352.51 1460.75,1354.48 1462.33,1356.42 1463.95,1358.31 1465.59,1360.15 1467.26,1361.95 1468.95,1363.69 1470.68,1365.37 1472.44,1366.99 1474.22,1368.55 1476.04,1370.04 1477.89,1371.46 1479.77,1372.81 1481.69,1374.09 1483.64,1375.3 1485.63,1376.43 1487.66,1377.48 1489.73,1378.47 1491.83,1379.38 1493.98,1380.21 1496.17,1380.98 1498.4,1381.68 1500.68,1382.32 1503,1382.89 1505.37,1383.4 1507.79,1383.85 1510.26,1384.25 1512.79,1384.61 1515.37,1384.91 1518,1385.17 1520.7,1385.4 1523.45,1385.59 1526.27,1385.75 1529.15,1385.89 1532.1,1386 1535.12,1386.09 1538.21,1386.16 1541.37,1386.22 1544.61,1386.26 1547.94,1386.3 1551.34,1386.33 1554.84,1386.35 1558.42,1386.36 1562.1,1386.37 1565.88,1386.38 1569.76,1386.38 1573.75,1386.39 1577.85,1386.39 1582.06,1386.39 1586.39,1386.39 1590.86,1386.39 1595.45,1386.39 1600.18,1386.4 1605.06,1386.4 1610.09,1386.4 1615.28,1386.4 1620.63,1386.4 1626.16,1386.4 1631.88,1386.4 1637.79,1386.4 1643.9,1386.4 1650.23,1386.4 1656.78,1386.4 1663.57,1386.4 1670.62,1386.4 1677.93,1386.4 1685.53,1386.4 1693.43,1386.4 1701.64,1386.4 1710.19,1386.4 1719.11,1386.4 1728.41,1386.4 1738.11,1386.4 1748.25,1386.4 1758.86,1386.4 1769.98,1386.4 1781.62,1386.4 1793.85,1386.4 1806.7,1386.4 1820.22,1386.4 1834.47,1386.4 1849.5,1386.4 1865.38,1386.4 1882.2,1386.4 1900.02,1386.4 1918.96,1386.4 1939.11,1386.4 1960.6,1386.4 1983.57,1386.4 2008.17,1386.4 2034.58,1386.4 2063.02,1386.4 2093.72,1386.4 2126.98,1386.4 2163.12,1386.4 2202.54,1386.4 2245.7,1386.4 2293.17,1386.4 "></polyline>
<path clip-path="url(#clip440)" d="M1626.77 322.316 L2282.58 322.316 L2282.58 166.796 L1626.77 166.796  Z" fill="#ffffff" fill-rule="evenodd" fill-opacity="1"></path>
<polyline clip-path="url(#clip440)" style="stroke:#000000; stroke-linecap:round; stroke-linejoin:round; stroke-width:4; stroke-opacity:1; fill:none" points="1626.77,322.316 2282.58,322.316 2282.58,166.796 1626.77,166.796 1626.77,322.316 "></polyline>
<polyline clip-path="url(#clip440)" style="stroke:#009af9; stroke-linecap:round; stroke-linejoin:round; stroke-width:4; stroke-opacity:1; fill:none" points="1650.17,218.636 1790.52,218.636 "></polyline>
<path clip-path="url(#clip440)" d="M1829.1 213.971 Q1828.38 213.555 1827.52 213.37 Q1826.69 213.161 1825.67 213.161 Q1822.06 213.161 1820.12 215.522 Q1818.19 217.86 1818.19 222.258 L1818.19 235.916 L1813.91 235.916 L1813.91 209.99 L1818.19 209.99 L1818.19 214.018 Q1819.54 211.657 1821.69 210.522 Q1823.84 209.365 1826.92 209.365 Q1827.36 209.365 1827.89 209.434 Q1828.43 209.481 1829.07 209.596 L1829.1 213.971 Z" fill="#000000" fill-rule="nonzero" fill-opacity="1"></path><path clip-path="url(#clip440)" d="M1854.7 221.888 L1854.7 223.971 L1835.12 223.971 Q1835.39 228.369 1837.75 230.684 Q1840.14 232.976 1844.37 232.976 Q1846.83 232.976 1849.12 232.374 Q1851.43 231.772 1853.7 230.569 L1853.7 234.596 Q1851.41 235.568 1849 236.078 Q1846.6 236.587 1844.12 236.587 Q1837.92 236.587 1834.28 232.976 Q1830.67 229.365 1830.67 223.207 Q1830.67 216.842 1834.1 213.115 Q1837.55 209.365 1843.38 209.365 Q1848.61 209.365 1851.64 212.745 Q1854.7 216.101 1854.7 221.888 M1850.44 220.638 Q1850.39 217.143 1848.47 215.059 Q1846.57 212.976 1843.43 212.976 Q1839.86 212.976 1837.71 214.99 Q1835.58 217.004 1835.25 220.661 L1850.44 220.638 Z" fill="#000000" fill-rule="nonzero" fill-opacity="1"></path><path clip-path="url(#clip440)" d="M1880.35 210.985 L1880.35 214.967 Q1878.54 213.971 1876.71 213.485 Q1874.91 212.976 1873.05 212.976 Q1868.91 212.976 1866.62 215.615 Q1864.33 218.231 1864.33 222.976 Q1864.33 227.721 1866.62 230.36 Q1868.91 232.976 1873.05 232.976 Q1874.91 232.976 1876.71 232.49 Q1878.54 231.981 1880.35 230.985 L1880.35 234.92 Q1878.56 235.754 1876.64 236.17 Q1874.74 236.587 1872.59 236.587 Q1866.74 236.587 1863.29 232.906 Q1859.84 229.226 1859.84 222.976 Q1859.84 216.633 1863.31 212.999 Q1866.8 209.365 1872.87 209.365 Q1874.84 209.365 1876.71 209.782 Q1878.59 210.175 1880.35 210.985 Z" fill="#000000" fill-rule="nonzero" fill-opacity="1"></path><path clip-path="url(#clip440)" d="M1897.8 212.976 Q1894.37 212.976 1892.38 215.661 Q1890.39 218.323 1890.39 222.976 Q1890.39 227.629 1892.36 230.314 Q1894.35 232.976 1897.8 232.976 Q1901.2 232.976 1903.19 230.291 Q1905.18 227.606 1905.18 222.976 Q1905.18 218.37 1903.19 215.684 Q1901.2 212.976 1897.8 212.976 M1897.8 209.365 Q1903.36 209.365 1906.53 212.976 Q1909.7 216.587 1909.7 222.976 Q1909.7 229.342 1906.53 232.976 Q1903.36 236.587 1897.8 236.587 Q1892.22 236.587 1889.05 232.976 Q1885.9 229.342 1885.9 222.976 Q1885.9 216.587 1889.05 212.976 Q1892.22 209.365 1897.8 209.365 Z" fill="#000000" fill-rule="nonzero" fill-opacity="1"></path><path clip-path="url(#clip440)" d="M1938.31 220.268 L1938.31 235.916 L1934.05 235.916 L1934.05 220.407 Q1934.05 216.726 1932.61 214.897 Q1931.18 213.069 1928.31 213.069 Q1924.86 213.069 1922.87 215.268 Q1920.88 217.467 1920.88 221.263 L1920.88 235.916 L1916.6 235.916 L1916.6 209.99 L1920.88 209.99 L1920.88 214.018 Q1922.41 211.68 1924.47 210.522 Q1926.55 209.365 1929.26 209.365 Q1933.73 209.365 1936.02 212.143 Q1938.31 214.897 1938.31 220.268 Z" fill="#000000" fill-rule="nonzero" fill-opacity="1"></path><path clip-path="url(#clip440)" d="M1963.33 210.754 L1963.33 214.782 Q1961.53 213.856 1959.58 213.393 Q1957.64 212.93 1955.55 212.93 Q1952.38 212.93 1950.79 213.902 Q1949.21 214.874 1949.21 216.819 Q1949.21 218.3 1950.35 219.157 Q1951.48 219.99 1954.91 220.754 L1956.36 221.078 Q1960.9 222.05 1962.8 223.832 Q1964.72 225.592 1964.72 228.763 Q1964.72 232.374 1961.85 234.481 Q1959 236.587 1954 236.587 Q1951.92 236.587 1949.65 236.17 Q1947.41 235.777 1944.91 234.967 L1944.91 230.569 Q1947.27 231.795 1949.56 232.42 Q1951.85 233.022 1954.1 233.022 Q1957.11 233.022 1958.73 232.004 Q1960.35 230.962 1960.35 229.087 Q1960.35 227.351 1959.17 226.425 Q1958.01 225.499 1954.05 224.643 L1952.57 224.295 Q1948.61 223.462 1946.85 221.749 Q1945.09 220.013 1945.09 217.004 Q1945.09 213.346 1947.68 211.356 Q1950.28 209.365 1955.05 209.365 Q1957.41 209.365 1959.49 209.712 Q1961.57 210.059 1963.33 210.754 Z" fill="#000000" fill-rule="nonzero" fill-opacity="1"></path><path clip-path="url(#clip440)" d="M1975.72 202.629 L1975.72 209.99 L1984.49 209.99 L1984.49 213.3 L1975.72 213.3 L1975.72 227.374 Q1975.72 230.545 1976.57 231.448 Q1977.45 232.351 1980.11 232.351 L1984.49 232.351 L1984.49 235.916 L1980.11 235.916 Q1975.18 235.916 1973.31 234.087 Q1971.43 232.235 1971.43 227.374 L1971.43 213.3 L1968.31 213.3 L1968.31 209.99 L1971.43 209.99 L1971.43 202.629 L1975.72 202.629 Z" fill="#000000" fill-rule="nonzero" fill-opacity="1"></path><path clip-path="url(#clip440)" d="M2005.11 213.971 Q2004.4 213.555 2003.54 213.37 Q2002.71 213.161 2001.69 213.161 Q1998.08 213.161 1996.13 215.522 Q1994.21 217.86 1994.21 222.258 L1994.21 235.916 L1989.93 235.916 L1989.93 209.99 L1994.21 209.99 L1994.21 214.018 Q1995.55 211.657 1997.71 210.522 Q1999.86 209.365 2002.94 209.365 Q2003.38 209.365 2003.91 209.434 Q2004.44 209.481 2005.09 209.596 L2005.11 213.971 Z" fill="#000000" fill-rule="nonzero" fill-opacity="1"></path><path clip-path="url(#clip440)" d="M2009.14 225.684 L2009.14 209.99 L2013.4 209.99 L2013.4 225.522 Q2013.4 229.203 2014.84 231.055 Q2016.27 232.883 2019.14 232.883 Q2022.59 232.883 2024.58 230.684 Q2026.6 228.485 2026.6 224.689 L2026.6 209.99 L2030.86 209.99 L2030.86 235.916 L2026.6 235.916 L2026.6 231.934 Q2025.04 234.295 2022.98 235.453 Q2020.95 236.587 2018.24 236.587 Q2013.77 236.587 2011.46 233.809 Q2009.14 231.031 2009.14 225.684 M2019.86 209.365 L2019.86 209.365 Z" fill="#000000" fill-rule="nonzero" fill-opacity="1"></path><path clip-path="url(#clip440)" d="M2058.29 210.985 L2058.29 214.967 Q2056.48 213.971 2054.65 213.485 Q2052.85 212.976 2050.99 212.976 Q2046.85 212.976 2044.56 215.615 Q2042.27 218.231 2042.27 222.976 Q2042.27 227.721 2044.56 230.36 Q2046.85 232.976 2050.99 232.976 Q2052.85 232.976 2054.65 232.49 Q2056.48 231.981 2058.29 230.985 L2058.29 234.92 Q2056.5 235.754 2054.58 236.17 Q2052.68 236.587 2050.53 236.587 Q2044.67 236.587 2041.23 232.906 Q2037.78 229.226 2037.78 222.976 Q2037.78 216.633 2041.25 212.999 Q2044.74 209.365 2050.81 209.365 Q2052.78 209.365 2054.65 209.782 Q2056.53 210.175 2058.29 210.985 Z" fill="#000000" fill-rule="nonzero" fill-opacity="1"></path><path clip-path="url(#clip440)" d="M2069.91 202.629 L2069.91 209.99 L2078.68 209.99 L2078.68 213.3 L2069.91 213.3 L2069.91 227.374 Q2069.91 230.545 2070.76 231.448 Q2071.64 232.351 2074.3 232.351 L2078.68 232.351 L2078.68 235.916 L2074.3 235.916 Q2069.37 235.916 2067.5 234.087 Q2065.62 232.235 2065.62 227.374 L2065.62 213.3 L2062.5 213.3 L2062.5 209.99 L2065.62 209.99 L2065.62 202.629 L2069.91 202.629 Z" fill="#000000" fill-rule="nonzero" fill-opacity="1"></path><path clip-path="url(#clip440)" d="M2106.46 221.888 L2106.46 223.971 L2086.87 223.971 Q2087.15 228.369 2089.51 230.684 Q2091.9 232.976 2096.13 232.976 Q2098.59 232.976 2100.88 232.374 Q2103.19 231.772 2105.46 230.569 L2105.46 234.596 Q2103.17 235.568 2100.76 236.078 Q2098.35 236.587 2095.88 236.587 Q2089.67 236.587 2086.04 232.976 Q2082.43 229.365 2082.43 223.207 Q2082.43 216.842 2085.85 213.115 Q2089.3 209.365 2095.14 209.365 Q2100.37 209.365 2103.4 212.745 Q2106.46 216.101 2106.46 221.888 M2102.2 220.638 Q2102.15 217.143 2100.23 215.059 Q2098.33 212.976 2095.18 212.976 Q2091.62 212.976 2089.47 214.99 Q2087.34 217.004 2087.01 220.661 L2102.2 220.638 Z" fill="#000000" fill-rule="nonzero" fill-opacity="1"></path><path clip-path="url(#clip440)" d="M2130.51 213.925 L2130.51 199.897 L2134.77 199.897 L2134.77 235.916 L2130.51 235.916 L2130.51 232.027 Q2129.16 234.342 2127.1 235.476 Q2125.07 236.587 2122.2 236.587 Q2117.5 236.587 2114.54 232.837 Q2111.6 229.087 2111.6 222.976 Q2111.6 216.865 2114.54 213.115 Q2117.5 209.365 2122.2 209.365 Q2125.07 209.365 2127.1 210.499 Q2129.16 211.61 2130.51 213.925 M2115.99 222.976 Q2115.99 227.675 2117.91 230.36 Q2119.86 233.022 2123.24 233.022 Q2126.62 233.022 2128.56 230.36 Q2130.51 227.675 2130.51 222.976 Q2130.51 218.277 2128.56 215.615 Q2126.62 212.93 2123.24 212.93 Q2119.86 212.93 2117.91 215.615 Q2115.99 218.277 2115.99 222.976 Z" fill="#000000" fill-rule="nonzero" fill-opacity="1"></path><path clip-path="url(#clip440)" d="M2170.35 205.962 L2164 223.161 L2176.71 223.161 L2170.35 205.962 M2167.71 201.356 L2173.01 201.356 L2186.18 235.916 L2181.32 235.916 L2178.17 227.05 L2162.59 227.05 L2159.44 235.916 L2154.51 235.916 L2167.71 201.356 Z" fill="#000000" fill-rule="nonzero" fill-opacity="1"></path><path clip-path="url(#clip440)" d="M2201.27 199.944 Q2198.17 205.268 2196.66 210.476 Q2195.16 215.684 2195.16 221.032 Q2195.16 226.379 2196.66 231.633 Q2198.19 236.865 2201.27 242.166 L2197.57 242.166 Q2194.09 236.726 2192.36 231.471 Q2190.65 226.217 2190.65 221.032 Q2190.65 215.87 2192.36 210.638 Q2194.07 205.407 2197.57 199.944 L2201.27 199.944 Z" fill="#000000" fill-rule="nonzero" fill-opacity="1"></path><path clip-path="url(#clip440)" d="M2217.8 236.587 Q2208.19 236.587 2208.19 222.837 Q2208.19 217.397 2211.78 209.99 L2216.36 209.99 Q2213.05 217.397 2213.05 222.953 Q2213.05 232.976 2218.19 232.976 Q2222.89 232.976 2222.89 220.522 L2226.83 220.522 Q2226.83 232.976 2231.53 232.976 Q2236.66 232.976 2236.66 222.953 Q2236.66 217.397 2233.35 209.99 L2237.94 209.99 Q2241.53 217.397 2241.53 222.837 Q2241.53 236.587 2231.92 236.587 Q2225.62 236.587 2224.86 229.666 Q2223.91 236.587 2217.8 236.587 Z" fill="#000000" fill-rule="nonzero" fill-opacity="1"></path><path clip-path="url(#clip440)" d="M2248.56 199.944 L2252.27 199.944 Q2255.74 205.407 2257.45 210.638 Q2259.19 215.87 2259.19 221.032 Q2259.19 226.217 2257.45 231.471 Q2255.74 236.726 2252.27 242.166 L2248.56 242.166 Q2251.64 236.865 2253.15 231.633 Q2254.67 226.379 2254.67 221.032 Q2254.67 215.684 2253.15 210.476 Q2251.64 205.268 2248.56 199.944 Z" fill="#000000" fill-rule="nonzero" fill-opacity="1"></path><polyline clip-path="url(#clip440)" style="stroke:#e26f46; stroke-linecap:round; stroke-linejoin:round; stroke-width:4; stroke-opacity:1; fill:none" points="1650.17,270.476 1790.52,270.476 "></polyline>
<path clip-path="url(#clip440)" d="M1825.81 264.816 Q1822.38 264.816 1820.39 267.501 Q1818.4 270.163 1818.4 274.816 Q1818.4 279.469 1820.37 282.154 Q1822.36 284.816 1825.81 284.816 Q1829.21 284.816 1831.2 282.131 Q1833.19 279.446 1833.19 274.816 Q1833.19 270.21 1831.2 267.524 Q1829.21 264.816 1825.81 264.816 M1825.81 261.205 Q1831.37 261.205 1834.54 264.816 Q1837.71 268.427 1837.71 274.816 Q1837.71 281.182 1834.54 284.816 Q1831.37 288.427 1825.81 288.427 Q1820.23 288.427 1817.06 284.816 Q1813.91 281.182 1813.91 274.816 Q1813.91 268.427 1817.06 264.816 Q1820.23 261.205 1825.81 261.205 Z" fill="#000000" fill-rule="nonzero" fill-opacity="1"></path><path clip-path="url(#clip440)" d="M1859.79 265.811 Q1859.07 265.395 1858.22 265.21 Q1857.38 265.001 1856.37 265.001 Q1852.75 265.001 1850.81 267.362 Q1848.89 269.7 1848.89 274.098 L1848.89 287.756 L1844.61 287.756 L1844.61 261.83 L1848.89 261.83 L1848.89 265.858 Q1850.23 263.497 1852.38 262.362 Q1854.54 261.205 1857.62 261.205 Q1858.06 261.205 1858.59 261.274 Q1859.12 261.321 1859.77 261.436 L1859.79 265.811 Z" fill="#000000" fill-rule="nonzero" fill-opacity="1"></path><path clip-path="url(#clip440)" d="M1864.26 261.83 L1868.52 261.83 L1868.52 287.756 L1864.26 287.756 L1864.26 261.83 M1864.26 251.737 L1868.52 251.737 L1868.52 257.131 L1864.26 257.131 L1864.26 251.737 Z" fill="#000000" fill-rule="nonzero" fill-opacity="1"></path><path clip-path="url(#clip440)" d="M1894.49 274.492 Q1894.49 269.862 1892.57 267.316 Q1890.67 264.77 1887.22 264.77 Q1883.8 264.77 1881.87 267.316 Q1879.98 269.862 1879.98 274.492 Q1879.98 279.098 1881.87 281.645 Q1883.8 284.191 1887.22 284.191 Q1890.67 284.191 1892.57 281.645 Q1894.49 279.098 1894.49 274.492 M1898.75 284.538 Q1898.75 291.158 1895.81 294.376 Q1892.87 297.617 1886.8 297.617 Q1884.56 297.617 1882.57 297.27 Q1880.58 296.945 1878.7 296.251 L1878.7 292.108 Q1880.58 293.126 1882.41 293.612 Q1884.24 294.098 1886.13 294.098 Q1890.32 294.098 1892.41 291.899 Q1894.49 289.723 1894.49 285.302 L1894.49 283.196 Q1893.17 285.487 1891.11 286.621 Q1889.05 287.756 1886.18 287.756 Q1881.41 287.756 1878.49 284.121 Q1875.58 280.487 1875.58 274.492 Q1875.58 268.473 1878.49 264.839 Q1881.41 261.205 1886.18 261.205 Q1889.05 261.205 1891.11 262.339 Q1893.17 263.473 1894.49 265.765 L1894.49 261.83 L1898.75 261.83 L1898.75 284.538 Z" fill="#000000" fill-rule="nonzero" fill-opacity="1"></path><path clip-path="url(#clip440)" d="M1907.52 261.83 L1911.78 261.83 L1911.78 287.756 L1907.52 287.756 L1907.52 261.83 M1907.52 251.737 L1911.78 251.737 L1911.78 257.131 L1907.52 257.131 L1907.52 251.737 Z" fill="#000000" fill-rule="nonzero" fill-opacity="1"></path><path clip-path="url(#clip440)" d="M1942.24 272.108 L1942.24 287.756 L1937.99 287.756 L1937.99 272.247 Q1937.99 268.566 1936.55 266.737 Q1935.11 264.909 1932.24 264.909 Q1928.8 264.909 1926.8 267.108 Q1924.81 269.307 1924.81 273.103 L1924.81 287.756 L1920.53 287.756 L1920.53 261.83 L1924.81 261.83 L1924.81 265.858 Q1926.34 263.52 1928.4 262.362 Q1930.49 261.205 1933.19 261.205 Q1937.66 261.205 1939.95 263.983 Q1942.24 266.737 1942.24 272.108 Z" fill="#000000" fill-rule="nonzero" fill-opacity="1"></path><path clip-path="url(#clip440)" d="M1962.52 274.723 Q1957.36 274.723 1955.37 275.904 Q1953.38 277.084 1953.38 279.932 Q1953.38 282.2 1954.86 283.543 Q1956.36 284.862 1958.93 284.862 Q1962.48 284.862 1964.61 282.362 Q1966.76 279.839 1966.76 275.672 L1966.76 274.723 L1962.52 274.723 M1971.02 272.964 L1971.02 287.756 L1966.76 287.756 L1966.76 283.821 Q1965.3 286.182 1963.12 287.316 Q1960.95 288.427 1957.8 288.427 Q1953.82 288.427 1951.46 286.205 Q1949.12 283.959 1949.12 280.209 Q1949.12 275.834 1952.04 273.612 Q1954.98 271.39 1960.79 271.39 L1966.76 271.39 L1966.76 270.973 Q1966.76 268.034 1964.81 266.436 Q1962.89 264.816 1959.4 264.816 Q1957.17 264.816 1955.07 265.348 Q1952.96 265.881 1951.02 266.946 L1951.02 263.01 Q1953.36 262.108 1955.55 261.668 Q1957.75 261.205 1959.84 261.205 Q1965.46 261.205 1968.24 264.122 Q1971.02 267.038 1971.02 272.964 Z" fill="#000000" fill-rule="nonzero" fill-opacity="1"></path><path clip-path="url(#clip440)" d="M1979.79 251.737 L1984.05 251.737 L1984.05 287.756 L1979.79 287.756 L1979.79 251.737 Z" fill="#000000" fill-rule="nonzero" fill-opacity="1"></path><path clip-path="url(#clip440)" d="M2019.77 257.802 L2013.42 275.001 L2026.13 275.001 L2019.77 257.802 M2017.13 253.196 L2022.43 253.196 L2035.6 287.756 L2030.74 287.756 L2027.59 278.89 L2012.01 278.89 L2008.86 287.756 L2003.93 287.756 L2017.13 253.196 Z" fill="#000000" fill-rule="nonzero" fill-opacity="1"></path><path clip-path="url(#clip440)" d="M2050.69 251.784 Q2047.59 257.108 2046.09 262.316 Q2044.58 267.524 2044.58 272.872 Q2044.58 278.219 2046.09 283.473 Q2047.61 288.705 2050.69 294.006 L2046.99 294.006 Q2043.52 288.566 2041.78 283.311 Q2040.07 278.057 2040.07 272.872 Q2040.07 267.71 2041.78 262.478 Q2043.49 257.247 2046.99 251.784 L2050.69 251.784 Z" fill="#000000" fill-rule="nonzero" fill-opacity="1"></path><path clip-path="url(#clip440)" d="M2067.22 288.427 Q2057.61 288.427 2057.61 274.677 Q2057.61 269.237 2061.2 261.83 L2065.79 261.83 Q2062.48 269.237 2062.48 274.793 Q2062.48 284.816 2067.61 284.816 Q2072.31 284.816 2072.31 272.362 L2076.25 272.362 Q2076.25 284.816 2080.95 284.816 Q2086.09 284.816 2086.09 274.793 Q2086.09 269.237 2082.78 261.83 L2087.36 261.83 Q2090.95 269.237 2090.95 274.677 Q2090.95 288.427 2081.34 288.427 Q2075.04 288.427 2074.28 281.506 Q2073.33 288.427 2067.22 288.427 Z" fill="#000000" fill-rule="nonzero" fill-opacity="1"></path><path clip-path="url(#clip440)" d="M2097.98 251.784 L2101.69 251.784 Q2105.16 257.247 2106.87 262.478 Q2108.61 267.71 2108.61 272.872 Q2108.61 278.057 2106.87 283.311 Q2105.16 288.566 2101.69 294.006 L2097.98 294.006 Q2101.06 288.705 2102.57 283.473 Q2104.1 278.219 2104.1 272.872 Q2104.1 267.524 2102.57 262.316 Q2101.06 257.108 2097.98 251.784 Z" fill="#000000" fill-rule="nonzero" fill-opacity="1"></path></svg>