<svg xmlns="http://www.w3.org/2000/svg" xmlns:xlink="http://www.w3.org/1999/xlink" width="600" height="400" viewBox="0 0 2400 1600">
<defs>
  <clipPath id="clip730">
    <rect x="0" y="0" width="2400" height="1600"></rect>
  </clipPath>
</defs>
<path clip-path="url(#clip730)" d="M0 1600 L2400 1600 L2400 8.88178e-14 L0 8.88178e-14  Z" fill="#ffffff" fill-rule="evenodd" fill-opacity="1"></path>
<defs>
  <clipPath id="clip731">
    <rect x="480" y="0" width="1681" height="1600"></rect>
  </clipPath>
</defs>
<path clip-path="url(#clip730)" d="M219.38 1423.18 L2352.76 1423.18 L2352.76 123.472 L219.38 123.472  Z" fill="#ffffff" fill-rule="evenodd" fill-opacity="1"></path>
<defs>
  <clipPath id="clip732">
    <rect x="219" y="123" width="2134" height="1301"></rect>
  </clipPath>
</defs>
<polyline clip-path="url(#clip732)" style="stroke:#000000; stroke-linecap:round; stroke-linejoin:round; stroke-width:2; stroke-opacity:0.1; fill:none" points="279.759,1423.18 279.759,123.472 "></polyline>
<polyline clip-path="url(#clip732)" style="stroke:#000000; stroke-linecap:round; stroke-linejoin:round; stroke-width:2; stroke-opacity:0.1; fill:none" points="782.913,1423.18 782.913,123.472 "></polyline>
<polyline clip-path="url(#clip732)" style="stroke:#000000; stroke-linecap:round; stroke-linejoin:round; stroke-width:2; stroke-opacity:0.1; fill:none" points="1286.07,1423.18 1286.07,123.472 "></polyline>
<polyline clip-path="url(#clip732)" style="stroke:#000000; stroke-linecap:round; stroke-linejoin:round; stroke-width:2; stroke-opacity:0.1; fill:none" points="1789.22,1423.18 1789.22,123.472 "></polyline>
<polyline clip-path="url(#clip732)" style="stroke:#000000; stroke-linecap:round; stroke-linejoin:round; stroke-width:2; stroke-opacity:0.1; fill:none" points="2292.38,1423.18 2292.38,123.472 "></polyline>
<polyline clip-path="url(#clip732)" style="stroke:#000000; stroke-linecap:round; stroke-linejoin:round; stroke-width:2; stroke-opacity:0.1; fill:none" points="219.38,1386.4 2352.76,1386.4 "></polyline>
<polyline clip-path="url(#clip732)" style="stroke:#000000; stroke-linecap:round; stroke-linejoin:round; stroke-width:2; stroke-opacity:0.1; fill:none" points="219.38,1038.52 2352.76,1038.52 "></polyline>
<polyline clip-path="url(#clip732)" style="stroke:#000000; stroke-linecap:round; stroke-linejoin:round; stroke-width:2; stroke-opacity:0.1; fill:none" points="219.38,690.638 2352.76,690.638 "></polyline>
<polyline clip-path="url(#clip732)" style="stroke:#000000; stroke-linecap:round; stroke-linejoin:round; stroke-width:2; stroke-opacity:0.1; fill:none" points="219.38,342.758 2352.76,342.758 "></polyline>
<polyline clip-path="url(#clip730)" style="stroke:#000000; stroke-linecap:round; stroke-linejoin:round; stroke-width:4; stroke-opacity:1; fill:none" points="219.38,1423.18 2352.76,1423.18 "></polyline>
<polyline clip-path="url(#clip730)" style="stroke:#000000; stroke-linecap:round; stroke-linejoin:round; stroke-width:4; stroke-opacity:1; fill:none" points="279.759,1423.18 279.759,1404.28 "></polyline>
<polyline clip-path="url(#clip730)" style="stroke:#000000; stroke-linecap:round; stroke-linejoin:round; stroke-width:4; stroke-opacity:1; fill:none" points="782.913,1423.18 782.913,1404.28 "></polyline>
<polyline clip-path="url(#clip730)" style="stroke:#000000; stroke-linecap:round; stroke-linejoin:round; stroke-width:4; stroke-opacity:1; fill:none" points="1286.07,1423.18 1286.07,1404.28 "></polyline>
<polyline clip-path="url(#clip730)" style="stroke:#000000; stroke-linecap:round; stroke-linejoin:round; stroke-width:4; stroke-opacity:1; fill:none" points="1789.22,1423.18 1789.22,1404.28 "></polyline>
<polyline clip-path="url(#clip730)" style="stroke:#000000; stroke-linecap:round; stroke-linejoin:round; stroke-width:4; stroke-opacity:1; fill:none" points="2292.38,1423.18 2292.38,1404.28 "></polyline>
<path clip-path="url(#clip730)" d="M248.659 1468.75 L278.335 1468.75 L278.335 1472.69 L248.659 1472.69 L248.659 1468.75 Z" fill="#000000" fill-rule="nonzero" fill-opacity="1"></path><path clip-path="url(#clip730)" d="M301.275 1455.09 L289.469 1473.54 L301.275 1473.54 L301.275 1455.09 M300.048 1451.02 L305.928 1451.02 L305.928 1473.54 L310.858 1473.54 L310.858 1477.43 L305.928 1477.43 L305.928 1485.58 L301.275 1485.58 L301.275 1477.43 L285.673 1477.43 L285.673 1472.92 L300.048 1451.02 Z" fill="#000000" fill-rule="nonzero" fill-opacity="1"></path><path clip-path="url(#clip730)" d="M752.856 1468.75 L782.531 1468.75 L782.531 1472.69 L752.856 1472.69 L752.856 1468.75 Z" fill="#000000" fill-rule="nonzero" fill-opacity="1"></path><path clip-path="url(#clip730)" d="M796.652 1481.64 L812.971 1481.64 L812.971 1485.58 L791.027 1485.58 L791.027 1481.64 Q793.689 1478.89 798.272 1474.26 Q802.879 1469.61 804.059 1468.27 Q806.304 1465.74 807.184 1464.01 Q808.087 1462.25 808.087 1460.56 Q808.087 1457.8 806.142 1456.07 Q804.221 1454.33 801.119 1454.33 Q798.92 1454.33 796.467 1455.09 Q794.036 1455.86 791.258 1457.41 L791.258 1452.69 Q794.082 1451.55 796.536 1450.97 Q798.99 1450.39 801.027 1450.39 Q806.397 1450.39 809.591 1453.08 Q812.786 1455.77 812.786 1460.26 Q812.786 1462.39 811.976 1464.31 Q811.189 1466.2 809.082 1468.8 Q808.504 1469.47 805.402 1472.69 Q802.3 1475.88 796.652 1481.64 Z" fill="#000000" fill-rule="nonzero" fill-opacity="1"></path><path clip-path="url(#clip730)" d="M1286.07 1454.1 Q1282.46 1454.1 1280.63 1457.66 Q1278.82 1461.2 1278.82 1468.33 Q1278.82 1475.44 1280.63 1479.01 Q1282.46 1482.55 1286.07 1482.55 Q1289.7 1482.55 1291.51 1479.01 Q1293.34 1475.44 1293.34 1468.33 Q1293.34 1461.2 1291.51 1457.66 Q1289.7 1454.1 1286.07 1454.1 M1286.07 1450.39 Q1291.88 1450.39 1294.93 1455 Q1298.01 1459.58 1298.01 1468.33 Q1298.01 1477.06 1294.93 1481.67 Q1291.88 1486.25 1286.07 1486.25 Q1280.26 1486.25 1277.18 1481.67 Q1274.12 1477.06 1274.12 1468.33 Q1274.12 1459.58 1277.18 1455 Q1280.26 1450.39 1286.07 1450.39 Z" fill="#000000" fill-rule="nonzero" fill-opacity="1"></path><path clip-path="url(#clip730)" d="M1783.88 1481.64 L1800.19 1481.64 L1800.19 1485.58 L1778.25 1485.58 L1778.25 1481.64 Q1780.91 1478.89 1785.5 1474.26 Q1790.1 1469.61 1791.28 1468.27 Q1793.53 1465.74 1794.41 1464.01 Q1795.31 1462.25 1795.31 1460.56 Q1795.31 1457.8 1793.37 1456.07 Q1791.44 1454.33 1788.34 1454.33 Q1786.14 1454.33 1783.69 1455.09 Q1781.26 1455.86 1778.48 1457.41 L1778.48 1452.69 Q1781.31 1451.55 1783.76 1450.97 Q1786.21 1450.39 1788.25 1450.39 Q1793.62 1450.39 1796.82 1453.08 Q1800.01 1455.77 1800.01 1460.26 Q1800.01 1462.39 1799.2 1464.31 Q1798.41 1466.2 1796.31 1468.8 Q1795.73 1469.47 1792.63 1472.69 Q1789.52 1475.88 1783.88 1481.64 Z" fill="#000000" fill-rule="nonzero" fill-opacity="1"></path><path clip-path="url(#clip730)" d="M2295.39 1455.09 L2283.58 1473.54 L2295.39 1473.54 L2295.39 1455.09 M2294.16 1451.02 L2300.04 1451.02 L2300.04 1473.54 L2304.97 1473.54 L2304.97 1477.43 L2300.04 1477.43 L2300.04 1485.58 L2295.39 1485.58 L2295.39 1477.43 L2279.78 1477.43 L2279.78 1472.92 L2294.16 1451.02 Z" fill="#000000" fill-rule="nonzero" fill-opacity="1"></path><path clip-path="url(#clip730)" d="M1262.15 1532.4 L1268.01 1532.4 L1275.33 1560.21 L1282.61 1532.4 L1289.52 1532.4 L1296.84 1560.21 L1304.13 1532.4 L1309.99 1532.4 L1300.66 1568.04 L1293.75 1568.04 L1286.08 1538.83 L1278.38 1568.04 L1271.47 1568.04 L1262.15 1532.4 Z" fill="#000000" fill-rule="nonzero" fill-opacity="1"></path><polyline clip-path="url(#clip730)" style="stroke:#000000; stroke-linecap:round; stroke-linejoin:round; stroke-width:4; stroke-opacity:1; fill:none" points="219.38,1423.18 219.38,123.472 "></polyline>
<polyline clip-path="url(#clip730)" style="stroke:#000000; stroke-linecap:round; stroke-linejoin:round; stroke-width:4; stroke-opacity:1; fill:none" points="219.38,1386.4 238.278,1386.4 "></polyline>
<polyline clip-path="url(#clip730)" style="stroke:#000000; stroke-linecap:round; stroke-linejoin:round; stroke-width:4; stroke-opacity:1; fill:none" points="219.38,1038.52 238.278,1038.52 "></polyline>
<polyline clip-path="url(#clip730)" style="stroke:#000000; stroke-linecap:round; stroke-linejoin:round; stroke-width:4; stroke-opacity:1; fill:none" points="219.38,690.638 238.278,690.638 "></polyline>
<polyline clip-path="url(#clip730)" style="stroke:#000000; stroke-linecap:round; stroke-linejoin:round; stroke-width:4; stroke-opacity:1; fill:none" points="219.38,342.758 238.278,342.758 "></polyline>
<path clip-path="url(#clip730)" d="M126.205 1372.19 Q122.593 1372.19 120.765 1375.76 Q118.959 1379.3 118.959 1386.43 Q118.959 1393.54 120.765 1397.1 Q122.593 1400.64 126.205 1400.64 Q129.839 1400.64 131.644 1397.1 Q133.473 1393.54 133.473 1386.43 Q133.473 1379.3 131.644 1375.76 Q129.839 1372.19 126.205 1372.19 M126.205 1368.49 Q132.015 1368.49 135.07 1373.1 Q138.149 1377.68 138.149 1386.43 Q138.149 1395.16 135.07 1399.76 Q132.015 1404.35 126.205 1404.35 Q120.394 1404.35 117.316 1399.76 Q114.26 1395.16 114.26 1386.43 Q114.26 1377.68 117.316 1373.1 Q120.394 1368.49 126.205 1368.49 Z" fill="#000000" fill-rule="nonzero" fill-opacity="1"></path><path clip-path="url(#clip730)" d="M146.366 1397.8 L151.251 1397.8 L151.251 1403.68 L146.366 1403.68 L146.366 1397.8 Z" fill="#000000" fill-rule="nonzero" fill-opacity="1"></path><path clip-path="url(#clip730)" d="M171.436 1372.19 Q167.825 1372.19 165.996 1375.76 Q164.19 1379.3 164.19 1386.43 Q164.19 1393.54 165.996 1397.1 Q167.825 1400.64 171.436 1400.64 Q175.07 1400.64 176.876 1397.1 Q178.704 1393.54 178.704 1386.43 Q178.704 1379.3 176.876 1375.76 Q175.07 1372.19 171.436 1372.19 M171.436 1368.49 Q177.246 1368.49 180.301 1373.1 Q183.38 1377.68 183.38 1386.43 Q183.38 1395.16 180.301 1399.76 Q177.246 1404.35 171.436 1404.35 Q165.626 1404.35 162.547 1399.76 Q159.491 1395.16 159.491 1386.43 Q159.491 1377.68 162.547 1373.1 Q165.626 1368.49 171.436 1368.49 Z" fill="#000000" fill-rule="nonzero" fill-opacity="1"></path><path clip-path="url(#clip730)" d="M127.2 1024.32 Q123.589 1024.32 121.76 1027.88 Q119.955 1031.42 119.955 1038.55 Q119.955 1045.66 121.76 1049.22 Q123.589 1052.76 127.2 1052.76 Q130.834 1052.76 132.64 1049.22 Q134.468 1045.66 134.468 1038.55 Q134.468 1031.42 132.64 1027.88 Q130.834 1024.32 127.2 1024.32 M127.2 1020.61 Q133.01 1020.61 136.066 1025.22 Q139.144 1029.8 139.144 1038.55 Q139.144 1047.28 136.066 1051.88 Q133.01 1056.47 127.2 1056.47 Q121.39 1056.47 118.311 1051.88 Q115.256 1047.28 115.256 1038.55 Q115.256 1029.8 118.311 1025.22 Q121.39 1020.61 127.2 1020.61 Z" fill="#000000" fill-rule="nonzero" fill-opacity="1"></path><path clip-path="url(#clip730)" d="M147.362 1049.92 L152.246 1049.92 L152.246 1055.8 L147.362 1055.8 L147.362 1049.92 Z" fill="#000000" fill-rule="nonzero" fill-opacity="1"></path><path clip-path="url(#clip730)" d="M162.477 1021.24 L180.834 1021.24 L180.834 1025.17 L166.76 1025.17 L166.76 1033.64 Q167.778 1033.3 168.797 1033.13 Q169.815 1032.95 170.834 1032.95 Q176.621 1032.95 180.001 1036.12 Q183.38 1039.29 183.38 1044.71 Q183.38 1050.29 179.908 1053.39 Q176.436 1056.47 170.116 1056.47 Q167.94 1056.47 165.672 1056.1 Q163.427 1055.73 161.019 1054.99 L161.019 1050.29 Q163.102 1051.42 165.325 1051.98 Q167.547 1052.53 170.024 1052.53 Q174.028 1052.53 176.366 1050.43 Q178.704 1048.32 178.704 1044.71 Q178.704 1041.1 176.366 1038.99 Q174.028 1036.88 170.024 1036.88 Q168.149 1036.88 166.274 1037.3 Q164.422 1037.72 162.477 1038.6 L162.477 1021.24 Z" fill="#000000" fill-rule="nonzero" fill-opacity="1"></path><path clip-path="url(#clip730)" d="M117.015 703.982 L124.654 703.982 L124.654 677.617 L116.343 679.283 L116.343 675.024 L124.607 673.358 L129.283 673.358 L129.283 703.982 L136.922 703.982 L136.922 707.918 L117.015 707.918 L117.015 703.982 Z" fill="#000000" fill-rule="nonzero" fill-opacity="1"></path><path clip-path="url(#clip730)" d="M146.366 702.038 L151.251 702.038 L151.251 707.918 L146.366 707.918 L146.366 702.038 Z" fill="#000000" fill-rule="nonzero" fill-opacity="1"></path><path clip-path="url(#clip730)" d="M171.436 676.436 Q167.825 676.436 165.996 680.001 Q164.19 683.543 164.19 690.672 Q164.19 697.779 165.996 701.343 Q167.825 704.885 171.436 704.885 Q175.07 704.885 176.876 701.343 Q178.704 697.779 178.704 690.672 Q178.704 683.543 176.876 680.001 Q175.07 676.436 171.436 676.436 M171.436 672.733 Q177.246 672.733 180.301 677.339 Q183.38 681.922 183.38 690.672 Q183.38 699.399 180.301 704.005 Q177.246 708.589 171.436 708.589 Q165.626 708.589 162.547 704.005 Q159.491 699.399 159.491 690.672 Q159.491 681.922 162.547 677.339 Q165.626 672.733 171.436 672.733 Z" fill="#000000" fill-rule="nonzero" fill-opacity="1"></path><path clip-path="url(#clip730)" d="M118.01 356.103 L125.649 356.103 L125.649 329.738 L117.339 331.404 L117.339 327.145 L125.603 325.478 L130.279 325.478 L130.279 356.103 L137.917 356.103 L137.917 360.038 L118.01 360.038 L118.01 356.103 Z" fill="#000000" fill-rule="nonzero" fill-opacity="1"></path><path clip-path="url(#clip730)" d="M147.362 354.159 L152.246 354.159 L152.246 360.038 L147.362 360.038 L147.362 354.159 Z" fill="#000000" fill-rule="nonzero" fill-opacity="1"></path><path clip-path="url(#clip730)" d="M162.477 325.478 L180.834 325.478 L180.834 329.414 L166.76 329.414 L166.76 337.886 Q167.778 337.539 168.797 337.377 Q169.815 337.191 170.834 337.191 Q176.621 337.191 180.001 340.363 Q183.38 343.534 183.38 348.951 Q183.38 354.529 179.908 357.631 Q176.436 360.71 170.116 360.71 Q167.94 360.71 165.672 360.339 Q163.427 359.969 161.019 359.228 L161.019 354.529 Q163.102 355.663 165.325 356.219 Q167.547 356.775 170.024 356.775 Q174.028 356.775 176.366 354.668 Q178.704 352.562 178.704 348.951 Q178.704 345.339 176.366 343.233 Q174.028 341.127 170.024 341.127 Q168.149 341.127 166.274 341.543 Q164.422 341.96 162.477 342.839 L162.477 325.478 Z" fill="#000000" fill-rule="nonzero" fill-opacity="1"></path><path clip-path="url(#clip730)" d="M22.818 822.883 L46.4666 831.604 L46.4666 814.13 L22.818 822.883 M16.4842 826.511 L16.4842 819.223 L64.0042 801.112 L64.0042 807.796 L51.8138 812.125 L51.8138 833.546 L64.0042 837.874 L64.0042 844.654 L16.4842 826.511 Z" fill="#000000" fill-rule="nonzero" fill-opacity="1"></path><path clip-path="url(#clip730)" d="M14.5426 780.36 Q21.8632 784.625 29.0246 786.694 Q36.186 788.763 43.5384 788.763 Q50.8908 788.763 58.1159 786.694 Q65.3091 784.593 72.5979 780.36 L72.5979 785.453 Q65.1182 790.227 57.8931 792.614 Q50.668 794.969 43.5384 794.969 Q36.4406 794.969 29.2474 792.614 Q22.0542 790.259 14.5426 785.453 L14.5426 780.36 Z" fill="#000000" fill-rule="nonzero" fill-opacity="1"></path><path clip-path="url(#clip730)" d="M28.3562 772.403 L28.3562 766.547 L56.1743 759.226 L28.3562 751.937 L28.3562 745.03 L56.1743 737.71 L28.3562 730.421 L28.3562 724.565 L64.0042 733.89 L64.0042 740.797 L34.7856 748.468 L64.0042 756.17 L64.0042 763.077 L28.3562 772.403 Z" fill="#000000" fill-rule="nonzero" fill-opacity="1"></path><path clip-path="url(#clip730)" d="M14.5426 716.608 L14.5426 711.515 Q22.0542 706.741 29.2474 704.385 Q36.4406 701.998 43.5384 701.998 Q50.668 701.998 57.8931 704.385 Q65.1182 706.741 72.5979 711.515 L72.5979 716.608 Q65.3091 712.374 58.1159 710.305 Q50.8908 708.205 43.5384 708.205 Q36.186 708.205 29.0246 710.305 Q21.8632 712.374 14.5426 716.608 Z" fill="#000000" fill-rule="nonzero" fill-opacity="1"></path><path clip-path="url(#clip730)" d="M1217.55 43.6931 L1217.55 65.8515 L1230.67 65.8515 Q1237.27 65.8515 1240.43 63.1374 Q1243.63 60.3828 1243.63 54.752 Q1243.63 49.0808 1240.43 46.4072 Q1237.27 43.6931 1230.67 43.6931 L1217.55 43.6931 M1217.55 18.8205 L1217.55 37.0496 L1229.66 37.0496 Q1235.65 37.0496 1238.57 34.8216 Q1241.53 32.5531 1241.53 27.935 Q1241.53 23.3575 1238.57 21.089 Q1235.65 18.8205 1229.66 18.8205 L1217.55 18.8205 M1209.36 12.096 L1230.27 12.096 Q1239.62 12.096 1244.69 15.9849 Q1249.75 19.8737 1249.75 27.0438 Q1249.75 32.5936 1247.16 35.8748 Q1244.57 39.156 1239.54 39.9662 Q1245.58 41.2625 1248.9 45.3944 Q1252.26 49.4858 1252.26 55.6432 Q1252.26 63.745 1246.75 68.1605 Q1241.24 72.576 1231.08 72.576 L1209.36 72.576 L1209.36 12.096 Z" fill="#000000" fill-rule="nonzero" fill-opacity="1"></path><path clip-path="url(#clip730)" d="M1301.08 14.0809 L1301.08 22.0612 Q1296.42 19.8332 1292.29 18.7395 Q1288.15 17.6457 1284.31 17.6457 Q1277.62 17.6457 1273.98 20.2383 Q1270.37 22.8309 1270.37 27.611 Q1270.37 31.6214 1272.76 33.6873 Q1275.19 35.7128 1281.92 36.9686 L1286.86 37.9813 Q1296.01 39.7232 1300.35 44.1387 Q1304.72 48.5136 1304.72 55.8863 Q1304.72 64.6767 1298.81 69.2137 Q1292.93 73.7508 1281.55 73.7508 Q1277.26 73.7508 1272.4 72.7785 Q1267.58 71.8063 1262.39 69.9024 L1262.39 61.4765 Q1267.37 64.2716 1272.15 65.6895 Q1276.93 67.1073 1281.55 67.1073 Q1288.56 67.1073 1292.37 64.3527 Q1296.18 61.598 1296.18 56.4939 Q1296.18 52.0379 1293.42 49.5264 Q1290.71 47.0148 1284.47 45.759 L1279.49 44.7868 Q1270.33 42.9639 1266.24 39.075 Q1262.15 35.1862 1262.15 28.2591 Q1262.15 20.2383 1267.78 15.6203 Q1273.45 11.0023 1283.37 11.0023 Q1287.63 11.0023 1292.04 11.7719 Q1296.46 12.5416 1301.08 14.0809 Z" fill="#000000" fill-rule="nonzero" fill-opacity="1"></path><path clip-path="url(#clip730)" d="M1362.77 16.7545 L1362.77 25.383 Q1358.64 21.5346 1353.94 19.6307 Q1349.28 17.7268 1344.02 17.7268 Q1333.65 17.7268 1328.14 24.0867 Q1322.63 30.4061 1322.63 42.3968 Q1322.63 54.3469 1328.14 60.7069 Q1333.65 67.0263 1344.02 67.0263 Q1349.28 67.0263 1353.94 65.1223 Q1358.64 63.2184 1362.77 59.3701 L1362.77 67.9175 Q1358.48 70.8341 1353.66 72.2924 Q1348.88 73.7508 1343.53 73.7508 Q1329.8 73.7508 1321.9 65.3654 Q1314 56.9395 1314 42.3968 Q1314 27.8135 1321.9 19.4281 Q1329.8 11.0023 1343.53 11.0023 Q1348.96 11.0023 1353.74 12.4606 Q1358.56 13.8784 1362.77 16.7545 Z" fill="#000000" fill-rule="nonzero" fill-opacity="1"></path><polyline clip-path="url(#clip732)" style="stroke:#009af9; stroke-linecap:round; stroke-linejoin:round; stroke-width:4; stroke-opacity:1; fill:none" points="279.759,1386.4 280.766,1386.4 281.772,1386.4 282.779,1386.4 283.786,1386.4 284.793,1386.4 285.8,1386.4 286.806,1386.4 287.813,1386.4 288.82,1386.4 289.827,1386.4 290.834,1386.4 291.84,1386.4 292.847,1386.4 293.854,1386.4 294.861,1386.4 295.868,1386.4 296.875,1386.4 297.881,1386.4 298.888,1386.4 299.895,1386.4 300.902,1386.4 301.909,1386.4 302.915,1386.4 303.922,1386.4 304.929,1386.4 305.936,1386.4 306.943,1386.4 307.949,1386.4 308.956,1386.4 309.963,1386.4 310.97,1386.4 311.977,1386.4 312.984,1386.4 313.99,1386.4 314.997,1386.4 316.004,1386.4 317.011,1386.4 318.018,1386.4 319.024,1386.4 320.031,1386.4 321.038,1386.4 322.045,1386.4 323.052,1386.4 324.058,1386.4 325.065,1386.4 326.072,1386.4 327.079,1386.4 328.086,1386.4 329.093,1386.4 330.099,1386.4 331.106,1386.4 332.113,1386.4 333.12,1386.4 334.127,1386.4 335.133,1386.4 336.14,1386.4 337.147,1386.4 338.154,1386.4 339.161,1386.4 340.167,1386.4 341.174,1386.4 342.181,1386.4 343.188,1386.4 344.195,1386.4 345.202,1386.4 346.208,1386.4 347.215,1386.4 348.222,1386.4 349.229,1386.4 350.236,1386.4 351.242,1386.4 352.249,1386.4 353.256,1386.4 354.263,1386.4 355.27,1386.4 356.276,1386.4 357.283,1386.4 358.29,1386.4 359.297,1386.4 360.304,1386.4 361.311,1386.4 362.317,1386.4 363.324,1386.4 364.331,1386.4 365.338,1386.4 366.345,1386.4 367.351,1386.4 368.358,1386.4 369.365,1386.4 370.372,1386.4 371.379,1386.4 372.385,1386.4 373.392,1386.4 374.399,1386.4 375.406,1386.4 376.413,1386.4 377.42,1386.4 378.426,1386.4 379.433,1386.4 380.44,1386.4 381.447,1386.4 382.454,1386.4 383.46,1386.4 384.467,1386.4 385.474,1386.4 386.481,1386.4 387.488,1386.4 388.494,1386.4 389.501,1386.4 390.508,1386.4 391.515,1386.4 392.522,1386.4 393.529,1386.4 394.535,1386.4 395.542,1386.4 396.549,1386.4 397.556,1386.4 398.563,1386.4 399.569,1386.4 400.576,1386.4 401.583,1386.4 402.59,1386.4 403.597,1386.4 404.603,1386.4 405.61,1386.4 406.617,1386.4 407.624,1386.4 408.631,1386.4 409.638,1386.4 410.644,1386.4 411.651,1386.4 412.658,1386.4 413.665,1386.4 414.672,1386.4 415.678,1386.4 416.685,1386.4 417.692,1386.4 418.699,1386.4 419.706,1386.4 420.712,1386.4 421.719,1386.4 422.726,1386.4 423.733,1386.4 424.74,1386.4 425.747,1386.4 426.753,1386.4 427.76,1386.4 428.767,1386.4 429.774,1386.4 430.781,1386.4 431.787,1386.4 432.794,1386.4 433.801,1386.4 434.808,1386.4 435.815,1386.4 436.822,1386.4 437.828,1386.4 438.835,1386.4 439.842,1386.4 440.849,1386.4 441.856,1386.4 442.862,1386.4 443.869,1386.4 444.876,1386.4 445.883,1386.4 446.89,1386.4 447.896,1386.4 448.903,1386.4 449.91,1386.4 450.917,1386.4 451.924,1386.4 452.931,1386.4 453.937,1386.4 454.944,1386.4 455.951,1386.4 456.958,1386.4 457.965,1386.4 458.971,1386.4 459.978,1386.4 460.985,1386.4 461.992,1386.4 462.999,1386.4 464.005,1386.4 465.012,1386.4 466.019,1386.4 467.026,1386.4 468.033,1386.4 469.04,1386.4 470.046,1386.4 471.053,1386.4 472.06,1386.4 473.067,1386.4 474.074,1386.4 475.08,1386.4 476.087,1386.4 477.094,1386.4 478.101,1386.4 479.108,1386.4 480.114,1386.4 481.121,1386.4 482.128,1386.4 483.135,1386.4 484.142,1386.4 485.149,1386.4 486.155,1386.4 487.162,1386.4 488.169,1386.4 489.176,1386.4 490.183,1386.4 491.189,1386.4 492.196,1386.4 493.203,1386.4 494.21,1386.4 495.217,1386.4 496.223,1386.4 497.23,1386.4 498.237,1386.4 499.244,1386.4 500.251,1386.4 501.258,1386.4 502.264,1386.4 503.271,1386.4 504.278,1386.4 505.285,1386.4 506.292,1386.4 507.298,1386.4 508.305,1386.4 509.312,1386.4 510.319,1386.4 511.326,1386.4 512.332,1386.4 513.339,1386.4 514.346,1386.4 515.353,1386.4 516.36,1386.4 517.367,1386.4 518.373,1386.4 519.38,1386.4 520.387,1386.4 521.394,1386.4 522.401,1386.4 523.407,1386.4 524.414,1386.4 525.421,1386.4 526.428,1386.4 527.435,1386.4 528.441,1386.4 529.448,1386.4 530.455,1386.4 531.462,1268.79 532.469,1268.79 533.476,1268.78 534.482,1268.78 535.489,1268.77 536.496,1268.77 537.503,1268.76 538.51,1268.76 539.516,1268.75 540.523,1268.75 541.53,1268.74 542.537,1268.74 543.544,1268.74 544.55,1268.73 545.557,1268.73 546.564,1268.72 547.571,1268.72 548.578,1268.71 549.585,1268.71 550.591,1268.7 551.598,1268.7 552.605,1268.69 553.612,1268.69 554.619,1268.68 555.625,1268.68 556.632,1268.67 557.639,1268.67 558.646,1268.66 559.653,1268.66 560.659,1268.65 561.666,1268.65 562.673,1268.64 563.68,1268.64 564.687,1268.63 565.694,1268.63 566.7,1268.62 567.707,1268.62 568.714,1268.61 569.721,1268.61 570.728,1268.6 571.734,1268.6 572.741,1268.59 573.748,1268.58 574.755,1268.58 575.762,1268.57 576.768,1268.57 577.775,1268.56 578.782,1268.56 579.789,1268.55 580.796,1268.55 581.803,1268.54 582.809,1268.54 583.816,1268.53 584.823,1268.52 585.83,1268.52 586.837,1268.51 587.843,1268.51 588.85,1268.5 589.857,1268.5 590.864,1268.49 591.871,1268.48 592.877,1268.48 593.884,1268.47 594.891,1268.47 595.898,1268.46 596.905,1268.45 597.912,1268.45 598.918,1268.44 599.925,1268.44 600.932,1268.43 601.939,1268.42 602.946,1268.42 603.952,1268.41 604.959,1268.41 605.966,1268.4 606.973,1268.39 607.98,1268.39 608.986,1268.38 609.993,1268.38 611,1268.37 612.007,1268.36 613.014,1268.36 614.021,1268.35 615.027,1268.34 616.034,1268.34 617.041,1268.33 618.048,1268.32 619.055,1268.32 620.061,1268.31 621.068,1268.3 622.075,1268.3 623.082,1268.29 624.089,1268.28 625.095,1268.28 626.102,1268.27 627.109,1268.26 628.116,1268.26 629.123,1268.25 630.13,1268.24 631.136,1268.24 632.143,1268.23 633.15,1268.22 634.157,1268.22 635.164,1268.21 636.17,1268.2 637.177,1268.19 638.184,1268.19 639.191,1268.18 640.198,1268.17 641.204,1268.16 642.211,1268.16 643.218,1268.15 644.225,1268.14 645.232,1268.14 646.239,1268.13 647.245,1268.12 648.252,1268.11 649.259,1268.11 650.266,1268.1 651.273,1268.09 652.279,1268.08 653.286,1268.07 654.293,1268.07 655.3,1268.06 656.307,1268.05 657.313,1268.04 658.32,1268.04 659.327,1268.03 660.334,1268.02 661.341,1268.01 662.348,1268 663.354,1268 664.361,1267.99 665.368,1267.98 666.375,1267.97 667.382,1267.96 668.388,1267.95 669.395,1267.95 670.402,1267.94 671.409,1267.93 672.416,1267.92 673.422,1267.91 674.429,1267.9 675.436,1267.89 676.443,1267.89 677.45,1267.88 678.457,1267.87 679.463,1267.86 680.47,1267.85 681.477,1267.84 682.484,1267.83 683.491,1267.82 684.497,1267.81 685.504,1267.81 686.511,1267.8 687.518,1267.79 688.525,1267.78 689.531,1267.77 690.538,1267.76 691.545,1267.75 692.552,1267.74 693.559,1267.73 694.566,1267.72 695.572,1267.71 696.579,1267.7 697.586,1267.69 698.593,1267.68 699.6,1267.67 700.606,1267.66 701.613,1267.65 702.62,1267.64 703.627,1267.63 704.634,1267.62 705.64,1267.61 706.647,1267.6 707.654,1267.59 708.661,1267.58 709.668,1267.57 710.675,1267.56 711.681,1267.55 712.688,1267.54 713.695,1267.53 714.702,1267.52 715.709,1267.51 716.715,1267.5 717.722,1267.49 718.729,1267.48 719.736,1267.47 720.743,1267.45 721.75,1267.44 722.756,1267.43 723.763,1267.42 724.77,1267.41 725.777,1267.4 726.784,1267.39 727.79,1267.38 728.797,1267.36 729.804,1267.35 730.811,1267.34 731.818,1267.33 732.824,1267.32 733.831,1267.31 734.838,1267.29 735.845,1267.28 736.852,1267.27 737.859,1267.26 738.865,1267.25 739.872,1267.23 740.879,1267.22 741.886,1267.21 742.893,1267.2 743.899,1267.18 744.906,1267.17 745.913,1267.16 746.92,1267.14 747.927,1267.13 748.933,1267.12 749.94,1267.11 750.947,1267.09 751.954,1267.08 752.961,1267.07 753.968,1267.05 754.974,1267.04 755.981,1267.03 756.988,1267.01 757.995,1267 759.002,1266.99 760.008,1266.97 761.015,1266.96 762.022,1266.94 763.029,1266.93 764.036,1266.92 765.042,1266.9 766.049,1266.89 767.056,1266.87 768.063,1266.86 769.07,1266.84 770.077,1266.83 771.083,1266.81 772.09,1266.8 773.097,1266.78 774.104,1266.77 775.111,1266.75 776.117,1266.74 777.124,1266.72 778.131,1266.71 779.138,1266.69 780.145,1266.68 781.151,1266.66 782.158,1266.64 783.165,1266.63 784.172,1266.61 785.179,1266.6 786.186,1266.58 787.192,1266.56 788.199,1266.55 789.206,1266.53 790.213,1266.51 791.22,1266.5 792.226,1266.48 793.233,1266.46 794.24,1266.45 795.247,1266.43 796.254,1266.41 797.26,1266.39 798.267,1266.38 799.274,1266.36 800.281,1266.34 801.288,1266.32 802.295,1266.31 803.301,1266.29 804.308,1266.27 805.315,1266.25 806.322,1266.23 807.329,1266.21 808.335,1266.19 809.342,1266.18 810.349,1266.16 811.356,1266.14 812.363,1266.12 813.369,1266.1 814.376,1266.08 815.383,1266.06 816.39,1266.04 817.397,1266.02 818.404,1266 819.41,1265.98 820.417,1265.96 821.424,1265.94 822.431,1265.92 823.438,1265.9 824.444,1265.88 825.451,1265.85 826.458,1265.83 827.465,1265.81 828.472,1265.79 829.478,1265.77 830.485,1265.75 831.492,1265.72 832.499,1265.7 833.506,1265.68 834.513,1265.66 835.519,1265.63 836.526,1265.61 837.533,1265.59 838.54,1265.56 839.547,1265.54 840.553,1265.52 841.56,1265.49 842.567,1265.47 843.574,1265.45 844.581,1265.42 845.587,1265.4 846.594,1265.37 847.601,1265.35 848.608,1265.32 849.615,1265.3 850.622,1265.27 851.628,1265.25 852.635,1265.22 853.642,1265.19 854.649,1265.17 855.656,1265.14 856.662,1265.12 857.669,1265.09 858.676,1265.06 859.683,1265.03 860.69,1265.01 861.696,1264.98 862.703,1264.95 863.71,1264.92 864.717,1264.9 865.724,1264.87 866.731,1264.84 867.737,1264.81 868.744,1264.78 869.751,1264.75 870.758,1264.72 871.765,1264.69 872.771,1264.66 873.778,1264.63 874.785,1264.6 875.792,1264.57 876.799,1264.54 877.805,1264.51 878.812,1264.47 879.819,1264.44 880.826,1264.41 881.833,1264.38 882.84,1264.35 883.846,1264.31 884.853,1264.28 885.86,1264.25 886.867,1264.21 887.874,1264.18 888.88,1264.14 889.887,1264.11 890.894,1264.07 891.901,1264.04 892.908,1264 893.914,1263.97 894.921,1263.93 895.928,1263.89 896.935,1263.86 897.942,1263.82 898.949,1263.78 899.955,1263.74 900.962,1263.71 901.969,1263.67 902.976,1263.63 903.983,1263.59 904.989,1263.55 905.996,1263.51 907.003,1263.47 908.01,1263.43 909.017,1263.39 910.023,1263.35 911.03,1263.31 912.037,1263.26 913.044,1263.22 914.051,1263.18 915.058,1263.14 916.064,1263.09 917.071,1263.05 918.078,1263 919.085,1262.96 920.092,1262.91 921.098,1262.87 922.105,1262.82 923.112,1262.77 924.119,1262.73 925.126,1262.68 926.132,1262.63 927.139,1262.58 928.146,1262.53 929.153,1262.49 930.16,1262.44 931.167,1262.39 932.173,1262.33 933.18,1262.28 934.187,1262.23 935.194,1262.18 936.201,1262.13 937.207,1262.07 938.214,1262.02 939.221,1261.96 940.228,1261.91 941.235,1261.85 942.241,1261.8 943.248,1261.74 944.255,1261.68 945.262,1261.63 946.269,1261.57 947.276,1261.51 948.282,1261.45 949.289,1261.39 950.296,1261.33 951.303,1261.27 952.31,1261.2 953.316,1261.14 954.323,1261.08 955.33,1261.01 956.337,1260.95 957.344,1260.88 958.35,1260.82 959.357,1260.75 960.364,1260.68 961.371,1260.61 962.378,1260.54 963.385,1260.47 964.391,1260.4 965.398,1260.33 966.405,1260.26 967.412,1260.19 968.419,1260.11 969.425,1260.04 970.432,1259.96 971.439,1259.89 972.446,1259.81 973.453,1259.73 974.459,1259.65 975.466,1259.57 976.473,1259.49 977.48,1259.41 978.487,1259.32 979.494,1259.24 980.5,1259.15 981.507,1259.07 982.514,1258.98 983.521,1258.89 984.528,1258.8 985.534,1258.71 986.541,1258.62 987.548,1258.53 988.555,1258.44 989.562,1258.34 990.568,1258.25 991.575,1258.15 992.582,1258.05 993.589,1257.95 994.596,1257.85 995.603,1257.75 996.609,1257.64 997.616,1257.54 998.623,1257.43 999.63,1257.32 1000.64,1257.22 1001.64,1257.1 1002.65,1256.99 1003.66,1256.88 1004.66,1256.76 1005.67,1256.65 1006.68,1256.53 1007.68,1256.41 1008.69,1256.29 1009.7,1256.16 1010.7,1256.04 1011.71,1255.91 1012.72,1255.79 1013.73,1255.66 1014.73,1255.52 1015.74,1255.39 1016.75,1255.25 1017.75,1255.12 1018.76,1254.98 1019.77,1254.83 1020.77,1254.69 1021.78,1254.54 1022.79,1254.4 1023.79,1254.25 1024.8,1254.09 1025.81,1253.94 1026.81,1253.78 1027.82,1253.62 1028.83,1253.46 1029.83,1253.29 1030.84,1253.13 1031.85,1252.96 1032.85,1252.78 1033.86,1252.61 1034.87,1252.43 1035.88,1252.25 1036.88,1252.06 1037.89,1251.88 1038.9,1251.69 1039.9,1251.49 1040.91,1251.3 1041.92,1251.1 1042.92,1250.89 1043.93,1250.69 1044.94,1250.48 1045.94,1250.26 1046.95,1250.05 1047.96,1249.82 1048.96,1249.6 1049.97,1249.37 1050.98,1249.13 1051.98,1248.9 1052.99,1248.65 1054,1248.41 1055,1248.16 1056.01,1247.9 1057.02,1247.64 1058.02,1247.37 1059.03,1247.1 1060.04,1246.83 1061.05,1246.54 1062.05,1246.26 1063.06,1245.96 1064.07,1245.67 1065.07,1245.36 1066.08,1245.05 1067.09,1244.73 1068.09,1244.41 1069.1,1244.08 1070.11,1243.74 1071.11,1243.39 1072.12,1243.04 1073.13,1242.68 1074.13,1242.31 1075.14,1241.94 1076.15,1241.55 1077.15,1241.16 1078.16,1240.76 1079.17,1240.34 1080.17,1239.92 1081.18,1239.49 1082.19,1239.05 1083.2,1238.6 1084.2,1238.13 1085.21,1237.66 1086.22,1237.17 1087.22,1236.67 1088.23,1236.16 1089.24,1235.63 1090.24,1235.09 1091.25,1234.54 1092.26,1233.97 1093.26,1233.39 1094.27,1232.79 1095.28,1232.17 1096.28,1231.53 1097.29,1230.88 1098.3,1230.21 1099.3,1229.52 1100.31,1228.8 1101.32,1228.07 1102.32,1227.31 1103.33,1226.53 1104.34,1225.73 1105.35,1224.89 1106.35,1224.04 1107.36,1223.15 1108.37,1222.23 1109.37,1221.28 1110.38,1220.29 1111.39,1219.28 1112.39,1218.22 1113.4,1217.12 1114.41,1215.99 1115.41,1214.8 1116.42,1213.58 1117.43,1212.3 1118.43,1210.97 1119.44,1209.58 1120.45,1208.14 1121.45,1206.63 1122.46,1205.05 1123.47,1203.4 1124.47,1201.67 1125.48,1199.86 1126.49,1197.95 1127.5,1195.95 1128.5,1193.85 1129.51,1191.62 1130.52,1189.28 1131.52,1186.8 1132.53,1184.17 1133.54,1181.38 1134.54,1178.41 1135.55,1175.25 1136.56,1171.86 1137.56,1168.24 1138.57,1164.34 1139.58,1160.14 1140.58,1155.6 1141.59,1150.66 1142.6,1145.28 1143.6,1139.39 1144.61,1132.9 1145.62,1125.72 1146.62,1117.71 1147.63,1108.71 1148.64,1098.5 1149.64,1086.82 1150.65,1073.26 1151.66,1057.31 1152.67,1038.18 1153.67,1014.68 1154.68,984.938 1155.69,945.653 1156.69,890.492 1157.7,805.085 1158.71,646.326 1159.71,160.256 1160.72,1386.4 1161.73,1386.4 1162.73,1386.4 1163.74,1386.4 1164.75,1386.4 1165.75,1386.4 1166.76,1386.4 1167.77,1386.4 1168.77,1386.4 1169.78,1386.4 1170.79,1386.4 1171.79,1386.4 1172.8,1386.4 1173.81,1386.4 1174.82,1386.4 1175.82,1386.4 1176.83,1386.4 1177.84,1386.4 1178.84,1386.4 1179.85,1386.4 1180.86,1386.4 1181.86,1386.4 1182.87,1386.4 1183.88,1386.4 1184.88,1386.4 1185.89,1386.4 1186.9,1386.4 1187.9,1386.4 1188.91,1386.4 1189.92,1386.4 1190.92,1386.4 1191.93,1386.4 1192.94,1386.4 1193.94,1386.4 1194.95,1386.4 1195.96,1386.4 1196.97,1386.4 1197.97,1386.4 1198.98,1386.4 1199.99,1386.4 1200.99,1386.4 1202,1386.4 1203.01,1386.4 1204.01,1386.4 1205.02,1386.4 1206.03,1386.4 1207.03,1386.4 1208.04,1386.4 1209.05,1386.4 1210.05,1386.4 1211.06,1386.4 1212.07,1386.4 1213.07,1386.4 1214.08,1386.4 1215.09,1386.4 1216.09,1386.4 1217.1,1386.4 1218.11,1386.4 1219.11,1386.4 1220.12,1386.4 1221.13,1386.4 1222.14,1386.4 1223.14,1386.4 1224.15,1386.4 1225.16,1386.4 1226.16,1386.4 1227.17,1386.4 1228.18,1386.4 1229.18,1386.4 1230.19,1386.4 1231.2,1386.4 1232.2,1386.4 1233.21,1386.4 1234.22,1386.4 1235.22,1386.4 1236.23,1386.4 1237.24,1386.4 1238.24,1386.4 1239.25,1386.4 1240.26,1386.4 1241.26,1386.4 1242.27,1386.4 1243.28,1386.4 1244.29,1386.4 1245.29,1386.4 1246.3,1386.4 1247.31,1386.4 1248.31,1386.4 1249.32,1386.4 1250.33,1386.4 1251.33,1386.4 1252.34,1386.4 1253.35,1386.4 1254.35,1386.4 1255.36,1386.4 1256.37,1386.4 1257.37,1386.4 1258.38,1386.4 1259.39,1386.4 1260.39,1386.4 1261.4,1386.4 1262.41,1386.4 1263.41,1386.4 1264.42,1386.4 1265.43,1386.4 1266.44,1386.4 1267.44,1386.4 1268.45,1386.4 1269.46,1386.4 1270.46,1386.4 1271.47,1386.4 1272.48,1386.4 1273.48,1386.4 1274.49,1386.4 1275.5,1386.4 1276.5,1386.4 1277.51,1386.4 1278.52,1386.4 1279.52,1386.4 1280.53,1386.4 1281.54,1386.4 1282.54,1386.4 1283.55,1386.4 1284.56,1386.4 1285.56,1386.4 1286.57,1386.4 1287.58,1386.4 1288.59,1386.4 1289.59,1386.4 1290.6,1386.4 1291.61,1386.4 1292.61,1386.4 1293.62,1386.4 1294.63,1386.4 1295.63,1386.4 1296.64,1386.4 1297.65,1386.4 1298.65,1386.4 1299.66,1386.4 1300.67,1386.4 1301.67,1386.4 1302.68,1386.4 1303.69,1386.4 1304.69,1386.4 1305.7,1386.4 1306.71,1386.4 1307.71,1386.4 1308.72,1386.4 1309.73,1386.4 1310.73,1386.4 1311.74,1386.4 1312.75,1386.4 1313.76,1386.4 1314.76,1386.4 1315.77,1386.4 1316.78,1386.4 1317.78,1386.4 1318.79,1386.4 1319.8,1386.4 1320.8,1386.4 1321.81,1386.4 1322.82,1386.4 1323.82,1386.4 1324.83,1386.4 1325.84,1386.4 1326.84,1386.4 1327.85,1386.4 1328.86,1386.4 1329.86,1386.4 1330.87,1386.4 1331.88,1386.4 1332.88,1386.4 1333.89,1386.4 1334.9,1386.4 1335.91,1386.4 1336.91,1386.4 1337.92,1386.4 1338.93,1386.4 1339.93,1386.4 1340.94,1386.4 1341.95,1386.4 1342.95,1386.4 1343.96,1386.4 1344.97,1386.4 1345.97,1386.4 1346.98,1386.4 1347.99,1386.4 1348.99,1386.4 1350,1386.4 1351.01,1386.4 1352.01,1386.4 1353.02,1386.4 1354.03,1386.4 1355.03,1386.4 1356.04,1386.4 1357.05,1386.4 1358.06,1386.4 1359.06,1386.4 1360.07,1386.4 1361.08,1386.4 1362.08,1386.4 1363.09,1386.4 1364.1,1386.4 1365.1,1386.4 1366.11,1386.4 1367.12,1386.4 1368.12,1386.4 1369.13,1386.4 1370.14,1386.4 1371.14,1386.4 1372.15,1386.4 1373.16,1386.4 1374.16,1386.4 1375.17,1386.4 1376.18,1386.4 1377.18,1386.4 1378.19,1386.4 1379.2,1386.4 1380.21,1386.4 1381.21,1386.4 1382.22,1386.4 1383.23,1386.4 1384.23,1386.4 1385.24,1386.4 1386.25,1386.4 1387.25,1386.4 1388.26,1386.4 1389.27,1386.4 1390.27,1386.4 1391.28,1386.4 1392.29,1386.4 1393.29,1386.4 1394.3,1386.4 1395.31,1386.4 1396.31,1386.4 1397.32,1386.4 1398.33,1386.4 1399.33,1386.4 1400.34,1386.4 1401.35,1386.4 1402.35,1386.4 1403.36,1386.4 1404.37,1386.4 1405.38,1386.4 1406.38,1386.4 1407.39,1386.4 1408.4,1386.4 1409.4,1386.4 1410.41,1386.4 1411.42,1386.4 1412.42,160.256 1413.43,646.326 1414.44,805.085 1415.44,890.492 1416.45,945.653 1417.46,984.938 1418.46,1014.68 1419.47,1038.18 1420.48,1057.31 1421.48,1073.26 1422.49,1086.82 1423.5,1098.5 1424.5,1108.71 1425.51,1117.71 1426.52,1125.72 1427.53,1132.9 1428.53,1139.39 1429.54,1145.28 1430.55,1150.66 1431.55,1155.6 1432.56,1160.14 1433.57,1164.34 1434.57,1168.24 1435.58,1171.86 1436.59,1175.25 1437.59,1178.41 1438.6,1181.38 1439.61,1184.17 1440.61,1186.8 1441.62,1189.28 1442.63,1191.62 1443.63,1193.85 1444.64,1195.95 1445.65,1197.95 1446.65,1199.86 1447.66,1201.67 1448.67,1203.4 1449.68,1205.05 1450.68,1206.63 1451.69,1208.14 1452.7,1209.58 1453.7,1210.97 1454.71,1212.3 1455.72,1213.58 1456.72,1214.8 1457.73,1215.99 1458.74,1217.12 1459.74,1218.22 1460.75,1219.28 1461.76,1220.29 1462.76,1221.28 1463.77,1222.23 1464.78,1223.15 1465.78,1224.04 1466.79,1224.89 1467.8,1225.73 1468.8,1226.53 1469.81,1227.31 1470.82,1228.07 1471.82,1228.8 1472.83,1229.52 1473.84,1230.21 1474.85,1230.88 1475.85,1231.53 1476.86,1232.17 1477.87,1232.79 1478.87,1233.39 1479.88,1233.97 1480.89,1234.54 1481.89,1235.09 1482.9,1235.63 1483.91,1236.16 1484.91,1236.67 1485.92,1237.17 1486.93,1237.66 1487.93,1238.13 1488.94,1238.6 1489.95,1239.05 1490.95,1239.49 1491.96,1239.92 1492.97,1240.34 1493.97,1240.76 1494.98,1241.16 1495.99,1241.55 1497,1241.94 1498,1242.31 1499.01,1242.68 1500.02,1243.04 1501.02,1243.39 1502.03,1243.74 1503.04,1244.08 1504.04,1244.41 1505.05,1244.73 1506.06,1245.05 1507.06,1245.36 1508.07,1245.67 1509.08,1245.96 1510.08,1246.26 1511.09,1246.54 1512.1,1246.83 1513.1,1247.1 1514.11,1247.37 1515.12,1247.64 1516.12,1247.9 1517.13,1248.16 1518.14,1248.41 1519.15,1248.65 1520.15,1248.9 1521.16,1249.13 1522.17,1249.37 1523.17,1249.6 1524.18,1249.82 1525.19,1250.05 1526.19,1250.26 1527.2,1250.48 1528.21,1250.69 1529.21,1250.89 1530.22,1251.1 1531.23,1251.3 1532.23,1251.49 1533.24,1251.69 1534.25,1251.88 1535.25,1252.06 1536.26,1252.25 1537.27,1252.43 1538.27,1252.61 1539.28,1252.78 1540.29,1252.96 1541.3,1253.13 1542.3,1253.29 1543.31,1253.46 1544.32,1253.62 1545.32,1253.78 1546.33,1253.94 1547.34,1254.09 1548.34,1254.25 1549.35,1254.4 1550.36,1254.54 1551.36,1254.69 1552.37,1254.83 1553.38,1254.98 1554.38,1255.12 1555.39,1255.25 1556.4,1255.39 1557.4,1255.52 1558.41,1255.66 1559.42,1255.79 1560.42,1255.91 1561.43,1256.04 1562.44,1256.16 1563.44,1256.29 1564.45,1256.41 1565.46,1256.53 1566.47,1256.65 1567.47,1256.76 1568.48,1256.88 1569.49,1256.99 1570.49,1257.1 1571.5,1257.22 1572.51,1257.32 1573.51,1257.43 1574.52,1257.54 1575.53,1257.64 1576.53,1257.75 1577.54,1257.85 1578.55,1257.95 1579.55,1258.05 1580.56,1258.15 1581.57,1258.25 1582.57,1258.34 1583.58,1258.44 1584.59,1258.53 1585.59,1258.62 1586.6,1258.71 1587.61,1258.8 1588.62,1258.89 1589.62,1258.98 1590.63,1259.07 1591.64,1259.15 1592.64,1259.24 1593.65,1259.32 1594.66,1259.41 1595.66,1259.49 1596.67,1259.57 1597.68,1259.65 1598.68,1259.73 1599.69,1259.81 1600.7,1259.89 1601.7,1259.96 1602.71,1260.04 1603.72,1260.11 1604.72,1260.19 1605.73,1260.26 1606.74,1260.33 1607.74,1260.4 1608.75,1260.47 1609.76,1260.54 1610.77,1260.61 1611.77,1260.68 1612.78,1260.75 1613.79,1260.82 1614.79,1260.88 1615.8,1260.95 1616.81,1261.01 1617.81,1261.08 1618.82,1261.14 1619.83,1261.2 1620.83,1261.27 1621.84,1261.33 1622.85,1261.39 1623.85,1261.45 1624.86,1261.51 1625.87,1261.57 1626.87,1261.63 1627.88,1261.68 1628.89,1261.74 1629.89,1261.8 1630.9,1261.85 1631.91,1261.91 1632.92,1261.96 1633.92,1262.02 1634.93,1262.07 1635.94,1262.13 1636.94,1262.18 1637.95,1262.23 1638.96,1262.28 1639.96,1262.33 1640.97,1262.39 1641.98,1262.44 1642.98,1262.49 1643.99,1262.53 1645,1262.58 1646,1262.63 1647.01,1262.68 1648.02,1262.73 1649.02,1262.77 1650.03,1262.82 1651.04,1262.87 1652.04,1262.91 1653.05,1262.96 1654.06,1263 1655.06,1263.05 1656.07,1263.09 1657.08,1263.14 1658.09,1263.18 1659.09,1263.22 1660.1,1263.26 1661.11,1263.31 1662.11,1263.35 1663.12,1263.39 1664.13,1263.43 1665.13,1263.47 1666.14,1263.51 1667.15,1263.55 1668.15,1263.59 1669.16,1263.63 1670.17,1263.67 1671.17,1263.71 1672.18,1263.74 1673.19,1263.78 1674.19,1263.82 1675.2,1263.86 1676.21,1263.89 1677.21,1263.93 1678.22,1263.97 1679.23,1264 1680.24,1264.04 1681.24,1264.07 1682.25,1264.11 1683.26,1264.14 1684.26,1264.18 1685.27,1264.21 1686.28,1264.25 1687.28,1264.28 1688.29,1264.31 1689.3,1264.35 1690.3,1264.38 1691.31,1264.41 1692.32,1264.44 1693.32,1264.47 1694.33,1264.51 1695.34,1264.54 1696.34,1264.57 1697.35,1264.6 1698.36,1264.63 1699.36,1264.66 1700.37,1264.69 1701.38,1264.72 1702.39,1264.75 1703.39,1264.78 1704.4,1264.81 1705.41,1264.84 1706.41,1264.87 1707.42,1264.9 1708.43,1264.92 1709.43,1264.95 1710.44,1264.98 1711.45,1265.01 1712.45,1265.03 1713.46,1265.06 1714.47,1265.09 1715.47,1265.12 1716.48,1265.14 1717.49,1265.17 1718.49,1265.19 1719.5,1265.22 1720.51,1265.25 1721.51,1265.27 1722.52,1265.3 1723.53,1265.32 1724.53,1265.35 1725.54,1265.37 1726.55,1265.4 1727.56,1265.42 1728.56,1265.45 1729.57,1265.47 1730.58,1265.49 1731.58,1265.52 1732.59,1265.54 1733.6,1265.56 1734.6,1265.59 1735.61,1265.61 1736.62,1265.63 1737.62,1265.66 1738.63,1265.68 1739.64,1265.7 1740.64,1265.72 1741.65,1265.75 1742.66,1265.77 1743.66,1265.79 1744.67,1265.81 1745.68,1265.83 1746.68,1265.85 1747.69,1265.88 1748.7,1265.9 1749.71,1265.92 1750.71,1265.94 1751.72,1265.96 1752.73,1265.98 1753.73,1266 1754.74,1266.02 1755.75,1266.04 1756.75,1266.06 1757.76,1266.08 1758.77,1266.1 1759.77,1266.12 1760.78,1266.14 1761.79,1266.16 1762.79,1266.18 1763.8,1266.19 1764.81,1266.21 1765.81,1266.23 1766.82,1266.25 1767.83,1266.27 1768.83,1266.29 1769.84,1266.31 1770.85,1266.32 1771.86,1266.34 1772.86,1266.36 1773.87,1266.38 1774.88,1266.39 1775.88,1266.41 1776.89,1266.43 1777.9,1266.45 1778.9,1266.46 1779.91,1266.48 1780.92,1266.5 1781.92,1266.51 1782.93,1266.53 1783.94,1266.55 1784.94,1266.56 1785.95,1266.58 1786.96,1266.6 1787.96,1266.61 1788.97,1266.63 1789.98,1266.64 1790.98,1266.66 1791.99,1266.68 1793,1266.69 1794.01,1266.71 1795.01,1266.72 1796.02,1266.74 1797.03,1266.75 1798.03,1266.77 1799.04,1266.78 1800.05,1266.8 1801.05,1266.81 1802.06,1266.83 1803.07,1266.84 1804.07,1266.86 1805.08,1266.87 1806.09,1266.89 1807.09,1266.9 1808.1,1266.92 1809.11,1266.93 1810.11,1266.94 1811.12,1266.96 1812.13,1266.97 1813.13,1266.99 1814.14,1267 1815.15,1267.01 1816.15,1267.03 1817.16,1267.04 1818.17,1267.05 1819.18,1267.07 1820.18,1267.08 1821.19,1267.09 1822.2,1267.11 1823.2,1267.12 1824.21,1267.13 1825.22,1267.14 1826.22,1267.16 1827.23,1267.17 1828.24,1267.18 1829.24,1267.2 1830.25,1267.21 1831.26,1267.22 1832.26,1267.23 1833.27,1267.25 1834.28,1267.26 1835.28,1267.27 1836.29,1267.28 1837.3,1267.29 1838.3,1267.31 1839.31,1267.32 1840.32,1267.33 1841.33,1267.34 1842.33,1267.35 1843.34,1267.36 1844.35,1267.38 1845.35,1267.39 1846.36,1267.4 1847.37,1267.41 1848.37,1267.42 1849.38,1267.43 1850.39,1267.44 1851.39,1267.45 1852.4,1267.47 1853.41,1267.48 1854.41,1267.49 1855.42,1267.5 1856.43,1267.51 1857.43,1267.52 1858.44,1267.53 1859.45,1267.54 1860.45,1267.55 1861.46,1267.56 1862.47,1267.57 1863.48,1267.58 1864.48,1267.59 1865.49,1267.6 1866.5,1267.61 1867.5,1267.62 1868.51,1267.63 1869.52,1267.64 1870.52,1267.65 1871.53,1267.66 1872.54,1267.67 1873.54,1267.68 1874.55,1267.69 1875.56,1267.7 1876.56,1267.71 1877.57,1267.72 1878.58,1267.73 1879.58,1267.74 1880.59,1267.75 1881.6,1267.76 1882.6,1267.77 1883.61,1267.78 1884.62,1267.79 1885.63,1267.8 1886.63,1267.81 1887.64,1267.81 1888.65,1267.82 1889.65,1267.83 1890.66,1267.84 1891.67,1267.85 1892.67,1267.86 1893.68,1267.87 1894.69,1267.88 1895.69,1267.89 1896.7,1267.89 1897.71,1267.9 1898.71,1267.91 1899.72,1267.92 1900.73,1267.93 1901.73,1267.94 1902.74,1267.95 1903.75,1267.95 1904.75,1267.96 1905.76,1267.97 1906.77,1267.98 1907.77,1267.99 1908.78,1268 1909.79,1268 1910.8,1268.01 1911.8,1268.02 1912.81,1268.03 1913.82,1268.04 1914.82,1268.04 1915.83,1268.05 1916.84,1268.06 1917.84,1268.07 1918.85,1268.07 1919.86,1268.08 1920.86,1268.09 1921.87,1268.1 1922.88,1268.11 1923.88,1268.11 1924.89,1268.12 1925.9,1268.13 1926.9,1268.14 1927.91,1268.14 1928.92,1268.15 1929.92,1268.16 1930.93,1268.16 1931.94,1268.17 1932.95,1268.18 1933.95,1268.19 1934.96,1268.19 1935.97,1268.2 1936.97,1268.21 1937.98,1268.22 1938.99,1268.22 1939.99,1268.23 1941,1268.24 1942.01,1268.24 1943.01,1268.25 1944.02,1268.26 1945.03,1268.26 1946.03,1268.27 1947.04,1268.28 1948.05,1268.28 1949.05,1268.29 1950.06,1268.3 1951.07,1268.3 1952.07,1268.31 1953.08,1268.32 1954.09,1268.32 1955.1,1268.33 1956.1,1268.34 1957.11,1268.34 1958.12,1268.35 1959.12,1268.36 1960.13,1268.36 1961.14,1268.37 1962.14,1268.38 1963.15,1268.38 1964.16,1268.39 1965.16,1268.39 1966.17,1268.4 1967.18,1268.41 1968.18,1268.41 1969.19,1268.42 1970.2,1268.42 1971.2,1268.43 1972.21,1268.44 1973.22,1268.44 1974.22,1268.45 1975.23,1268.45 1976.24,1268.46 1977.24,1268.47 1978.25,1268.47 1979.26,1268.48 1980.27,1268.48 1981.27,1268.49 1982.28,1268.5 1983.29,1268.5 1984.29,1268.51 1985.3,1268.51 1986.31,1268.52 1987.31,1268.52 1988.32,1268.53 1989.33,1268.54 1990.33,1268.54 1991.34,1268.55 1992.35,1268.55 1993.35,1268.56 1994.36,1268.56 1995.37,1268.57 1996.37,1268.57 1997.38,1268.58 1998.39,1268.58 1999.39,1268.59 2000.4,1268.6 2001.41,1268.6 2002.42,1268.61 2003.42,1268.61 2004.43,1268.62 2005.44,1268.62 2006.44,1268.63 2007.45,1268.63 2008.46,1268.64 2009.46,1268.64 2010.47,1268.65 2011.48,1268.65 2012.48,1268.66 2013.49,1268.66 2014.5,1268.67 2015.5,1268.67 2016.51,1268.68 2017.52,1268.68 2018.52,1268.69 2019.53,1268.69 2020.54,1268.7 2021.54,1268.7 2022.55,1268.71 2023.56,1268.71 2024.57,1268.72 2025.57,1268.72 2026.58,1268.73 2027.59,1268.73 2028.59,1268.74 2029.6,1268.74 2030.61,1268.74 2031.61,1268.75 2032.62,1268.75 2033.63,1268.76 2034.63,1268.76 2035.64,1268.77 2036.65,1268.77 2037.65,1268.78 2038.66,1268.78 2039.67,1268.79 2040.67,1268.79 2041.68,1386.4 2042.69,1386.4 2043.69,1386.4 2044.7,1386.4 2045.71,1386.4 2046.72,1386.4 2047.72,1386.4 2048.73,1386.4 2049.74,1386.4 2050.74,1386.4 2051.75,1386.4 2052.76,1386.4 2053.76,1386.4 2054.77,1386.4 2055.78,1386.4 2056.78,1386.4 2057.79,1386.4 2058.8,1386.4 2059.8,1386.4 2060.81,1386.4 2061.82,1386.4 2062.82,1386.4 2063.83,1386.4 2064.84,1386.4 2065.84,1386.4 2066.85,1386.4 2067.86,1386.4 2068.86,1386.4 2069.87,1386.4 2070.88,1386.4 2071.89,1386.4 2072.89,1386.4 2073.9,1386.4 2074.91,1386.4 2075.91,1386.4 2076.92,1386.4 2077.93,1386.4 2078.93,1386.4 2079.94,1386.4 2080.95,1386.4 2081.95,1386.4 2082.96,1386.4 2083.97,1386.4 2084.97,1386.4 2085.98,1386.4 2086.99,1386.4 2087.99,1386.4 2089,1386.4 2090.01,1386.4 2091.01,1386.4 2092.02,1386.4 2093.03,1386.4 2094.04,1386.4 2095.04,1386.4 2096.05,1386.4 2097.06,1386.4 2098.06,1386.4 2099.07,1386.4 2100.08,1386.4 2101.08,1386.4 2102.09,1386.4 2103.1,1386.4 2104.1,1386.4 2105.11,1386.4 2106.12,1386.4 2107.12,1386.4 2108.13,1386.4 2109.14,1386.4 2110.14,1386.4 2111.15,1386.4 2112.16,1386.4 2113.16,1386.4 2114.17,1386.4 2115.18,1386.4 2116.19,1386.4 2117.19,1386.4 2118.2,1386.4 2119.21,1386.4 2120.21,1386.4 2121.22,1386.4 2122.23,1386.4 2123.23,1386.4 2124.24,1386.4 2125.25,1386.4 2126.25,1386.4 2127.26,1386.4 2128.27,1386.4 2129.27,1386.4 2130.28,1386.4 2131.29,1386.4 2132.29,1386.4 2133.3,1386.4 2134.31,1386.4 2135.31,1386.4 2136.32,1386.4 2137.33,1386.4 2138.34,1386.4 2139.34,1386.4 2140.35,1386.4 2141.36,1386.4 2142.36,1386.4 2143.37,1386.4 2144.38,1386.4 2145.38,1386.4 2146.39,1386.4 2147.4,1386.4 2148.4,1386.4 2149.41,1386.4 2150.42,1386.4 2151.42,1386.4 2152.43,1386.4 2153.44,1386.4 2154.44,1386.4 2155.45,1386.4 2156.46,1386.4 2157.46,1386.4 2158.47,1386.4 2159.48,1386.4 2160.48,1386.4 2161.49,1386.4 2162.5,1386.4 2163.51,1386.4 2164.51,1386.4 2165.52,1386.4 2166.53,1386.4 2167.53,1386.4 2168.54,1386.4 2169.55,1386.4 2170.55,1386.4 2171.56,1386.4 2172.57,1386.4 2173.57,1386.4 2174.58,1386.4 2175.59,1386.4 2176.59,1386.4 2177.6,1386.4 2178.61,1386.4 2179.61,1386.4 2180.62,1386.4 2181.63,1386.4 2182.63,1386.4 2183.64,1386.4 2184.65,1386.4 2185.66,1386.4 2186.66,1386.4 2187.67,1386.4 2188.68,1386.4 2189.68,1386.4 2190.69,1386.4 2191.7,1386.4 2192.7,1386.4 2193.71,1386.4 2194.72,1386.4 2195.72,1386.4 2196.73,1386.4 2197.74,1386.4 2198.74,1386.4 2199.75,1386.4 2200.76,1386.4 2201.76,1386.4 2202.77,1386.4 2203.78,1386.4 2204.78,1386.4 2205.79,1386.4 2206.8,1386.4 2207.81,1386.4 2208.81,1386.4 2209.82,1386.4 2210.83,1386.4 2211.83,1386.4 2212.84,1386.4 2213.85,1386.4 2214.85,1386.4 2215.86,1386.4 2216.87,1386.4 2217.87,1386.4 2218.88,1386.4 2219.89,1386.4 2220.89,1386.4 2221.9,1386.4 2222.91,1386.4 2223.91,1386.4 2224.92,1386.4 2225.93,1386.4 2226.93,1386.4 2227.94,1386.4 2228.95,1386.4 2229.95,1386.4 2230.96,1386.4 2231.97,1386.4 2232.98,1386.4 2233.98,1386.4 2234.99,1386.4 2236,1386.4 2237,1386.4 2238.01,1386.4 2239.02,1386.4 2240.02,1386.4 2241.03,1386.4 2242.04,1386.4 2243.04,1386.4 2244.05,1386.4 2245.06,1386.4 2246.06,1386.4 2247.07,1386.4 2248.08,1386.4 2249.08,1386.4 2250.09,1386.4 2251.1,1386.4 2252.1,1386.4 2253.11,1386.4 2254.12,1386.4 2255.13,1386.4 2256.13,1386.4 2257.14,1386.4 2258.15,1386.4 2259.15,1386.4 2260.16,1386.4 2261.17,1386.4 2262.17,1386.4 2263.18,1386.4 2264.19,1386.4 2265.19,1386.4 2266.2,1386.4 2267.21,1386.4 2268.21,1386.4 2269.22,1386.4 2270.23,1386.4 2271.23,1386.4 2272.24,1386.4 2273.25,1386.4 2274.25,1386.4 2275.26,1386.4 2276.27,1386.4 2277.28,1386.4 2278.28,1386.4 2279.29,1386.4 2280.3,1386.4 2281.3,1386.4 2282.31,1386.4 2283.32,1386.4 2284.32,1386.4 2285.33,1386.4 2286.34,1386.4 2287.34,1386.4 2288.35,1386.4 2289.36,1386.4 2290.36,1386.4 2291.37,1386.4 2292.38,1386.4 "></polyline>
<polyline clip-path="url(#clip732)" style="stroke:#e26f46; stroke-linecap:round; stroke-linejoin:round; stroke-width:4; stroke-opacity:1; fill:none" points="279.759,1386.4 280.766,1386.4 281.772,1386.4 282.779,1386.4 283.786,1386.4 284.793,1386.4 285.8,1386.4 286.806,1386.4 287.813,1386.4 288.82,1386.4 289.827,1386.4 290.834,1386.4 291.84,1386.4 292.847,1386.4 293.854,1386.4 294.861,1386.4 295.868,1386.4 296.875,1386.4 297.881,1386.4 298.888,1386.4 299.895,1386.4 300.902,1386.4 301.909,1386.4 302.915,1386.4 303.922,1386.4 304.929,1386.4 305.936,1386.4 306.943,1386.4 307.949,1386.4 308.956,1386.4 309.963,1386.4 310.97,1386.4 311.977,1386.4 312.984,1386.4 313.99,1386.4 314.997,1386.4 316.004,1386.4 317.011,1386.4 318.018,1386.4 319.024,1386.4 320.031,1386.4 321.038,1386.4 322.045,1386.4 323.052,1386.4 324.058,1386.4 325.065,1386.4 326.072,1386.4 327.079,1386.4 328.086,1386.4 329.093,1386.4 330.099,1386.4 331.106,1386.4 332.113,1386.4 333.12,1386.4 334.127,1386.4 335.133,1386.4 336.14,1386.4 337.147,1386.4 338.154,1386.4 339.161,1386.4 340.167,1386.4 341.174,1386.4 342.181,1386.4 343.188,1386.39 344.195,1386.39 345.202,1386.39 346.208,1386.39 347.215,1386.39 348.222,1386.39 349.229,1386.39 350.236,1386.39 351.242,1386.39 352.249,1386.39 353.256,1386.39 354.263,1386.39 355.27,1386.39 356.276,1386.39 357.283,1386.39 358.29,1386.39 359.297,1386.39 360.304,1386.39 361.311,1386.39 362.317,1386.39 363.324,1386.39 364.331,1386.39 365.338,1386.39 366.345,1386.39 367.351,1386.39 368.358,1386.39 369.365,1386.39 370.372,1386.39 371.379,1386.39 372.385,1386.38 373.392,1386.38 374.399,1386.38 375.406,1386.38 376.413,1386.38 377.42,1386.38 378.426,1386.38 379.433,1386.38 380.44,1386.38 381.447,1386.37 382.454,1386.37 383.46,1386.37 384.467,1386.37 385.474,1386.37 386.481,1386.36 387.488,1386.36 388.494,1386.36 389.501,1386.36 390.508,1386.35 391.515,1386.35 392.522,1386.35 393.529,1386.34 394.535,1386.34 395.542,1386.34 396.549,1386.33 397.556,1386.33 398.563,1386.33 399.569,1386.32 400.576,1386.32 401.583,1386.31 402.59,1386.31 403.597,1386.3 404.603,1386.29 405.61,1386.29 406.617,1386.28 407.624,1386.27 408.631,1386.27 409.638,1386.26 410.644,1386.25 411.651,1386.24 412.658,1386.23 413.665,1386.22 414.672,1386.22 415.678,1386.2 416.685,1386.19 417.692,1386.18 418.699,1386.17 419.706,1386.16 420.712,1386.14 421.719,1386.13 422.726,1386.12 423.733,1386.1 424.74,1386.08 425.747,1386.07 426.753,1386.05 427.76,1386.03 428.767,1386.01 429.774,1385.99 430.781,1385.97 431.787,1385.95 432.794,1385.92 433.801,1385.9 434.808,1385.87 435.815,1385.84 436.822,1385.82 437.828,1385.79 438.835,1385.75 439.842,1385.72 440.849,1385.69 441.856,1385.65 442.862,1385.61 443.869,1385.57 444.876,1385.53 445.883,1385.49 446.89,1385.44 447.896,1385.39 448.903,1385.34 449.91,1385.29 450.917,1385.23 451.924,1385.18 452.931,1385.12 453.937,1385.05 454.944,1384.99 455.951,1384.92 456.958,1384.84 457.965,1384.77 458.971,1384.69 459.978,1384.6 460.985,1384.52 461.992,1384.42 462.999,1384.33 464.005,1384.23 465.012,1384.12 466.019,1384.01 467.026,1383.9 468.033,1383.78 469.04,1383.65 470.046,1383.52 471.053,1383.38 472.06,1383.24 473.067,1383.09 474.074,1382.93 475.08,1382.77 476.087,1382.6 477.094,1382.42 478.101,1382.23 479.108,1382.03 480.114,1381.83 481.121,1381.62 482.128,1381.4 483.135,1381.16 484.142,1380.92 485.149,1380.67 486.155,1380.41 487.162,1380.13 488.169,1379.85 489.176,1379.55 490.183,1379.24 491.189,1378.92 492.196,1378.58 493.203,1378.23 494.21,1377.87 495.217,1377.49 496.223,1377.1 497.23,1376.69 498.237,1376.27 499.244,1375.83 500.251,1375.37 501.258,1374.89 502.264,1374.4 503.271,1373.89 504.278,1373.35 505.285,1372.8 506.292,1372.23 507.298,1371.64 508.305,1371.03 509.312,1370.4 510.319,1369.74 511.326,1369.06 512.332,1368.36 513.339,1367.64 514.346,1366.89 515.353,1366.11 516.36,1365.32 517.367,1364.49 518.373,1363.65 519.38,1362.77 520.387,1361.87 521.394,1360.94 522.401,1359.99 523.407,1359 524.414,1357.99 525.421,1356.96 526.428,1355.89 527.435,1354.8 528.441,1353.67 529.448,1352.52 530.455,1351.34 531.462,1350.14 532.469,1348.9 533.476,1347.63 534.482,1346.34 535.489,1345.02 536.496,1343.67 537.503,1342.29 538.51,1340.88 539.516,1339.45 540.523,1337.99 541.53,1336.5 542.537,1334.99 543.544,1333.45 544.55,1331.89 545.557,1330.31 546.564,1328.7 547.571,1327.06 548.578,1325.41 549.585,1323.73 550.591,1322.04 551.598,1320.32 552.605,1318.59 553.612,1316.84 554.619,1315.08 555.625,1313.3 556.632,1311.51 557.639,1309.71 558.646,1307.89 559.653,1306.07 560.659,1304.24 561.666,1302.4 562.673,1300.56 563.68,1298.72 564.687,1296.87 565.694,1295.02 566.7,1293.18 567.707,1291.34 568.714,1289.5 569.721,1287.67 570.728,1285.85 571.734,1284.04 572.741,1282.23 573.748,1280.45 574.755,1278.68 575.762,1276.92 576.768,1275.18 577.775,1273.47 578.782,1271.77 579.789,1270.1 580.796,1268.45 581.803,1266.83 582.809,1265.24 583.816,1263.67 584.823,1262.14 585.83,1260.64 586.837,1259.17 587.843,1257.74 588.85,1256.34 589.857,1254.98 590.864,1253.66 591.871,1252.38 592.877,1251.13 593.884,1249.93 594.891,1248.77 595.898,1247.66 596.905,1246.58 597.912,1245.55 598.918,1244.57 599.925,1243.63 600.932,1242.74 601.939,1241.89 602.946,1241.09 603.952,1240.33 604.959,1239.62 605.966,1238.96 606.973,1238.35 607.98,1237.78 608.986,1237.25 609.993,1236.78 611,1236.35 612.007,1235.96 613.014,1235.62 614.021,1235.33 615.027,1235.08 616.034,1234.87 617.041,1234.71 618.048,1234.58 619.055,1234.5 620.061,1234.46 621.068,1234.47 622.075,1234.51 623.082,1234.59 624.089,1234.7 625.095,1234.85 626.102,1235.04 627.109,1235.26 628.116,1235.52 629.123,1235.81 630.13,1236.13 631.136,1236.48 632.143,1236.86 633.15,1237.26 634.157,1237.7 635.164,1238.16 636.17,1238.64 637.177,1239.15 638.184,1239.68 639.191,1240.23 640.198,1240.8 641.204,1241.39 642.211,1242 643.218,1242.63 644.225,1243.27 645.232,1243.92 646.239,1244.59 647.245,1245.27 648.252,1245.97 649.259,1246.67 650.266,1247.38 651.273,1248.1 652.279,1248.83 653.286,1249.56 654.293,1250.3 655.3,1251.04 656.307,1251.79 657.313,1252.54 658.32,1253.29 659.327,1254.05 660.334,1254.8 661.341,1255.55 662.348,1256.3 663.354,1257.05 664.361,1257.8 665.368,1258.55 666.375,1259.28 667.382,1260.02 668.388,1260.75 669.395,1261.48 670.402,1262.2 671.409,1262.91 672.416,1263.61 673.422,1264.31 674.429,1265 675.436,1265.68 676.443,1266.35 677.45,1267.01 678.457,1267.66 679.463,1268.31 680.47,1268.94 681.477,1269.56 682.484,1270.17 683.491,1270.77 684.497,1271.35 685.504,1271.93 686.511,1272.49 687.518,1273.04 688.525,1273.58 689.531,1274.1 690.538,1274.62 691.545,1275.12 692.552,1275.6 693.559,1276.07 694.566,1276.53 695.572,1276.98 696.579,1277.41 697.586,1277.83 698.593,1278.23 699.6,1278.63 700.606,1279 701.613,1279.37 702.62,1279.71 703.627,1280.05 704.634,1280.37 705.64,1280.68 706.647,1280.97 707.654,1281.25 708.661,1281.51 709.668,1281.76 710.675,1282 711.681,1282.22 712.688,1282.43 713.695,1282.63 714.702,1282.81 715.709,1282.98 716.715,1283.13 717.722,1283.27 718.729,1283.4 719.736,1283.51 720.743,1283.61 721.75,1283.7 722.756,1283.78 723.763,1283.84 724.77,1283.88 725.777,1283.92 726.784,1283.94 727.79,1283.95 728.797,1283.95 729.804,1283.94 730.811,1283.91 731.818,1283.87 732.824,1283.82 733.831,1283.76 734.838,1283.69 735.845,1283.6 736.852,1283.51 737.859,1283.4 738.865,1283.28 739.872,1283.15 740.879,1283.01 741.886,1282.86 742.893,1282.7 743.899,1282.53 744.906,1282.35 745.913,1282.16 746.92,1281.96 747.927,1281.76 748.933,1281.54 749.94,1281.32 750.947,1281.08 751.954,1280.84 752.961,1280.59 753.968,1280.33 754.974,1280.07 755.981,1279.8 756.988,1279.52 757.995,1279.23 759.002,1278.94 760.008,1278.64 761.015,1278.34 762.022,1278.03 763.029,1277.72 764.036,1277.4 765.042,1277.07 766.049,1276.74 767.056,1276.41 768.063,1276.08 769.07,1275.74 770.077,1275.39 771.083,1275.05 772.09,1274.7 773.097,1274.35 774.104,1274 775.111,1273.64 776.117,1273.29 777.124,1272.93 778.131,1272.58 779.138,1272.22 780.145,1271.86 781.151,1271.51 782.158,1271.15 783.165,1270.8 784.172,1270.45 785.179,1270.09 786.186,1269.75 787.192,1269.4 788.199,1269.06 789.206,1268.71 790.213,1268.38 791.22,1268.04 792.226,1267.71 793.233,1267.39 794.24,1267.07 795.247,1266.75 796.254,1266.44 797.26,1266.13 798.267,1265.83 799.274,1265.54 800.281,1265.25 801.288,1264.97 802.295,1264.69 803.301,1264.42 804.308,1264.16 805.315,1263.91 806.322,1263.66 807.329,1263.42 808.335,1263.19 809.342,1262.96 810.349,1262.75 811.356,1262.54 812.363,1262.34 813.369,1262.15 814.376,1261.97 815.383,1261.8 816.39,1261.63 817.397,1261.48 818.404,1261.33 819.41,1261.19 820.417,1261.07 821.424,1260.95 822.431,1260.84 823.438,1260.74 824.444,1260.64 825.451,1260.56 826.458,1260.48 827.465,1260.42 828.472,1260.36 829.478,1260.31 830.485,1260.28 831.492,1260.24 832.499,1260.22 833.506,1260.21 834.513,1260.2 835.519,1260.2 836.526,1260.21 837.533,1260.23 838.54,1260.25 839.547,1260.28 840.553,1260.32 841.56,1260.37 842.567,1260.42 843.574,1260.48 844.581,1260.54 845.587,1260.61 846.594,1260.69 847.601,1260.77 848.608,1260.86 849.615,1260.95 850.622,1261.04 851.628,1261.14 852.635,1261.25 853.642,1261.35 854.649,1261.46 855.656,1261.58 856.662,1261.69 857.669,1261.81 858.676,1261.93 859.683,1262.05 860.69,1262.18 861.696,1262.3 862.703,1262.43 863.71,1262.56 864.717,1262.68 865.724,1262.81 866.731,1262.93 867.737,1263.06 868.744,1263.18 869.751,1263.31 870.758,1263.43 871.765,1263.55 872.771,1263.66 873.778,1263.78 874.785,1263.89 875.792,1264 876.799,1264.1 877.805,1264.2 878.812,1264.3 879.819,1264.39 880.826,1264.48 881.833,1264.56 882.84,1264.64 883.846,1264.71 884.853,1264.78 885.86,1264.84 886.867,1264.9 887.874,1264.95 888.88,1264.99 889.887,1265.03 890.894,1265.06 891.901,1265.08 892.908,1265.1 893.914,1265.1 894.921,1265.1 895.928,1265.1 896.935,1265.08 897.942,1265.06 898.949,1265.03 899.955,1264.99 900.962,1264.94 901.969,1264.89 902.976,1264.83 903.983,1264.75 904.989,1264.67 905.996,1264.58 907.003,1264.49 908.01,1264.38 909.017,1264.26 910.023,1264.14 911.03,1264.01 912.037,1263.87 913.044,1263.72 914.051,1263.56 915.058,1263.39 916.064,1263.22 917.071,1263.03 918.078,1262.84 919.085,1262.64 920.092,1262.43 921.098,1262.22 922.105,1262 923.112,1261.76 924.119,1261.53 925.126,1261.28 926.132,1261.03 927.139,1260.77 928.146,1260.5 929.153,1260.23 930.16,1259.95 931.167,1259.67 932.173,1259.38 933.18,1259.08 934.187,1258.78 935.194,1258.48 936.201,1258.17 937.207,1257.86 938.214,1257.54 939.221,1257.22 940.228,1256.9 941.235,1256.58 942.241,1256.26 943.248,1255.93 944.255,1255.6 945.262,1255.27 946.269,1254.95 947.276,1254.62 948.282,1254.29 949.289,1253.97 950.296,1253.65 951.303,1253.33 952.31,1253.01 953.316,1252.7 954.323,1252.39 955.33,1252.08 956.337,1251.78 957.344,1251.49 958.35,1251.2 959.357,1250.92 960.364,1250.65 961.371,1250.39 962.378,1250.13 963.385,1249.89 964.391,1249.65 965.398,1249.43 966.405,1249.21 967.412,1249.01 968.419,1248.82 969.425,1248.64 970.432,1248.48 971.439,1248.33 972.446,1248.19 973.453,1248.07 974.459,1247.96 975.466,1247.87 976.473,1247.8 977.48,1247.74 978.487,1247.69 979.494,1247.67 980.5,1247.66 981.507,1247.67 982.514,1247.7 983.521,1247.74 984.528,1247.81 985.534,1247.89 986.541,1247.99 987.548,1248.11 988.555,1248.25 989.562,1248.4 990.568,1248.58 991.575,1248.77 992.582,1248.99 993.589,1249.22 994.596,1249.47 995.603,1249.74 996.609,1250.02 997.616,1250.33 998.623,1250.65 999.63,1250.99 1000.64,1251.35 1001.64,1251.72 1002.65,1252.11 1003.66,1252.51 1004.66,1252.93 1005.67,1253.36 1006.68,1253.81 1007.68,1254.27 1008.69,1254.74 1009.7,1255.23 1010.7,1255.72 1011.71,1256.23 1012.72,1256.75 1013.73,1257.27 1014.73,1257.8 1015.74,1258.34 1016.75,1258.89 1017.75,1259.44 1018.76,1259.99 1019.77,1260.55 1020.77,1261.12 1021.78,1261.68 1022.79,1262.24 1023.79,1262.81 1024.8,1263.37 1025.81,1263.93 1026.81,1264.49 1027.82,1265.04 1028.83,1265.58 1029.83,1266.12 1030.84,1266.66 1031.85,1267.18 1032.85,1267.7 1033.86,1268.2 1034.87,1268.69 1035.88,1269.17 1036.88,1269.64 1037.89,1270.09 1038.9,1270.52 1039.9,1270.94 1040.91,1271.34 1041.92,1271.72 1042.92,1272.08 1043.93,1272.42 1044.94,1272.74 1045.94,1273.03 1046.95,1273.3 1047.96,1273.54 1048.96,1273.76 1049.97,1273.95 1050.98,1274.1 1051.98,1274.23 1052.99,1274.33 1054,1274.4 1055,1274.43 1056.01,1274.43 1057.02,1274.39 1058.02,1274.31 1059.03,1274.2 1060.04,1274.05 1061.05,1273.86 1062.05,1273.62 1063.06,1273.34 1064.07,1273.02 1065.07,1272.65 1066.08,1272.24 1067.09,1271.77 1068.09,1271.26 1069.1,1270.69 1070.11,1270.08 1071.11,1269.4 1072.12,1268.68 1073.13,1267.89 1074.13,1267.04 1075.14,1266.14 1076.15,1265.17 1077.15,1264.14 1078.16,1263.04 1079.17,1261.87 1080.17,1260.63 1081.18,1259.33 1082.19,1257.95 1083.2,1256.49 1084.2,1254.96 1085.21,1253.35 1086.22,1251.65 1087.22,1249.88 1088.23,1248.02 1089.24,1246.07 1090.24,1244.04 1091.25,1241.92 1092.26,1239.7 1093.26,1237.39 1094.27,1234.99 1095.28,1232.49 1096.28,1229.89 1097.29,1227.19 1098.3,1224.4 1099.3,1221.5 1100.31,1218.51 1101.32,1215.41 1102.32,1212.21 1103.33,1208.92 1104.34,1205.52 1105.35,1202.03 1106.35,1198.44 1107.36,1194.76 1108.37,1190.99 1109.37,1187.13 1110.38,1183.19 1111.39,1179.17 1112.39,1175.08 1113.4,1170.93 1114.41,1166.72 1115.41,1162.47 1116.42,1158.18 1117.43,1153.86 1118.43,1149.53 1119.44,1145.2 1120.45,1140.88 1121.45,1136.6 1122.46,1132.36 1123.47,1128.18 1124.47,1124.09 1125.48,1120.12 1126.49,1116.27 1127.5,1112.57 1128.5,1109.05 1129.51,1105.74 1130.52,1102.65 1131.52,1099.83 1132.53,1097.29 1133.54,1095.06 1134.54,1093.18 1135.55,1091.67 1136.56,1090.56 1137.56,1089.88 1138.57,1089.66 1139.58,1089.91 1140.58,1090.66 1141.59,1091.94 1142.6,1093.75 1143.6,1096.13 1144.61,1099.07 1145.62,1102.58 1146.62,1106.68 1147.63,1111.35 1148.64,1116.6 1149.64,1122.41 1150.65,1128.77 1151.66,1135.66 1152.67,1143.04 1153.67,1150.9 1154.68,1159.18 1155.69,1167.87 1156.69,1176.89 1157.7,1186.21 1158.71,1195.77 1159.71,1205.53 1160.72,1215.41 1161.73,1225.36 1162.73,1235.33 1163.74,1245.24 1164.75,1255.05 1165.75,1264.7 1166.76,1274.12 1167.77,1283.28 1168.77,1292.13 1169.78,1300.63 1170.79,1308.74 1171.79,1316.43 1172.8,1323.67 1173.81,1330.46 1174.82,1336.79 1175.82,1342.63 1176.83,1348 1177.84,1352.91 1178.84,1357.36 1179.85,1361.36 1180.86,1364.95 1181.86,1368.13 1182.87,1370.94 1183.88,1373.4 1184.88,1375.55 1185.89,1377.39 1186.9,1378.98 1187.9,1380.33 1188.91,1381.46 1189.92,1382.42 1190.92,1383.21 1191.93,1383.86 1192.94,1384.4 1193.94,1384.83 1194.95,1385.18 1195.96,1385.46 1196.97,1385.68 1197.97,1385.85 1198.98,1385.98 1199.99,1386.09 1200.99,1386.17 1202,1386.23 1203.01,1386.27 1204.01,1386.31 1205.02,1386.33 1206.03,1386.35 1207.03,1386.36 1208.04,1386.37 1209.05,1386.38 1210.05,1386.39 1211.06,1386.39 1212.07,1386.39 1213.07,1386.39 1214.08,1386.39 1215.09,1386.39 1216.09,1386.39 1217.1,1386.4 1218.11,1386.4 1219.11,1386.4 1220.12,1386.4 1221.13,1386.4 1222.14,1386.4 1223.14,1386.4 1224.15,1386.4 1225.16,1386.4 1226.16,1386.4 1227.17,1386.4 1228.18,1386.4 1229.18,1386.4 1230.19,1386.4 1231.2,1386.4 1232.2,1386.4 1233.21,1386.4 1234.22,1386.4 1235.22,1386.4 1236.23,1386.4 1237.24,1386.4 1238.24,1386.4 1239.25,1386.4 1240.26,1386.4 1241.26,1386.4 1242.27,1386.4 1243.28,1386.4 1244.29,1386.4 1245.29,1386.4 1246.3,1386.4 1247.31,1386.4 1248.31,1386.4 1249.32,1386.4 1250.33,1386.4 1251.33,1386.4 1252.34,1386.4 1253.35,1386.4 1254.35,1386.4 1255.36,1386.4 1256.37,1386.4 1257.37,1386.4 1258.38,1386.4 1259.39,1386.4 1260.39,1386.4 1261.4,1386.4 1262.41,1386.4 1263.41,1386.4 1264.42,1386.4 1265.43,1386.4 1266.44,1386.4 1267.44,1386.4 1268.45,1386.4 1269.46,1386.4 1270.46,1386.4 1271.47,1386.4 1272.48,1386.4 1273.48,1386.4 1274.49,1386.4 1275.5,1386.4 1276.5,1386.4 1277.51,1386.4 1278.52,1386.4 1279.52,1386.4 1280.53,1386.4 1281.54,1386.4 1282.54,1386.4 1283.55,1386.4 1284.56,1386.4 1285.56,1386.4 1286.57,1386.4 1287.58,1386.4 1288.59,1386.4 1289.59,1386.4 1290.6,1386.4 1291.61,1386.4 1292.61,1386.4 1293.62,1386.4 1294.63,1386.4 1295.63,1386.4 1296.64,1386.4 1297.65,1386.4 1298.65,1386.4 1299.66,1386.4 1300.67,1386.4 1301.67,1386.4 1302.68,1386.4 1303.69,1386.4 1304.69,1386.4 1305.7,1386.4 1306.71,1386.4 1307.71,1386.4 1308.72,1386.4 1309.73,1386.4 1310.73,1386.4 1311.74,1386.4 1312.75,1386.4 1313.76,1386.4 1314.76,1386.4 1315.77,1386.4 1316.78,1386.4 1317.78,1386.4 1318.79,1386.4 1319.8,1386.4 1320.8,1386.4 1321.81,1386.4 1322.82,1386.4 1323.82,1386.4 1324.83,1386.4 1325.84,1386.4 1326.84,1386.4 1327.85,1386.4 1328.86,1386.4 1329.86,1386.4 1330.87,1386.4 1331.88,1386.4 1332.88,1386.4 1333.89,1386.4 1334.9,1386.4 1335.91,1386.4 1336.91,1386.4 1337.92,1386.4 1338.93,1386.4 1339.93,1386.4 1340.94,1386.4 1341.95,1386.4 1342.95,1386.4 1343.96,1386.4 1344.97,1386.4 1345.97,1386.4 1346.98,1386.4 1347.99,1386.4 1348.99,1386.4 1350,1386.4 1351.01,1386.4 1352.01,1386.4 1353.02,1386.4 1354.03,1386.4 1355.03,1386.4 1356.04,1386.39 1357.05,1386.39 1358.06,1386.39 1359.06,1386.39 1360.07,1386.39 1361.08,1386.39 1362.08,1386.39 1363.09,1386.38 1364.1,1386.37 1365.1,1386.36 1366.11,1386.35 1367.12,1386.33 1368.12,1386.31 1369.13,1386.27 1370.14,1386.23 1371.14,1386.17 1372.15,1386.09 1373.16,1385.98 1374.16,1385.85 1375.17,1385.68 1376.18,1385.46 1377.18,1385.18 1378.19,1384.83 1379.2,1384.4 1380.21,1383.86 1381.21,1383.21 1382.22,1382.42 1383.23,1381.46 1384.23,1380.33 1385.24,1378.98 1386.25,1377.39 1387.25,1375.55 1388.26,1373.4 1389.27,1370.94 1390.27,1368.13 1391.28,1364.95 1392.29,1361.36 1393.29,1357.36 1394.3,1352.91 1395.31,1348 1396.31,1342.63 1397.32,1336.79 1398.33,1330.46 1399.33,1323.67 1400.34,1316.43 1401.35,1308.74 1402.35,1300.63 1403.36,1292.13 1404.37,1283.28 1405.38,1274.12 1406.38,1264.69 1407.39,1255.05 1408.4,1245.24 1409.4,1235.33 1410.41,1225.36 1411.42,1215.41 1412.42,1205.53 1413.43,1195.78 1414.44,1186.21 1415.44,1176.89 1416.45,1167.86 1417.46,1159.19 1418.46,1150.9 1419.47,1143.04 1420.48,1135.66 1421.48,1128.77 1422.49,1122.41 1423.5,1116.6 1424.5,1111.35 1425.51,1106.68 1426.52,1102.58 1427.53,1099.07 1428.53,1096.13 1429.54,1093.76 1430.55,1091.94 1431.55,1090.66 1432.56,1089.91 1433.57,1089.66 1434.57,1089.88 1435.58,1090.57 1436.59,1091.67 1437.59,1093.18 1438.6,1095.06 1439.61,1097.29 1440.61,1099.83 1441.62,1102.65 1442.63,1105.73 1443.63,1109.05 1444.64,1112.57 1445.65,1116.27 1446.65,1120.12 1447.66,1124.1 1448.67,1128.18 1449.68,1132.36 1450.68,1136.6 1451.69,1140.88 1452.7,1145.2 1453.7,1149.53 1454.71,1153.86 1455.72,1158.18 1456.72,1162.47 1457.73,1166.73 1458.74,1170.93 1459.74,1175.08 1460.75,1179.17 1461.76,1183.19 1462.76,1187.13 1463.77,1190.98 1464.78,1194.76 1465.78,1198.44 1466.79,1202.03 1467.8,1205.52 1468.8,1208.92 1469.81,1212.21 1470.82,1215.41 1471.82,1218.51 1472.83,1221.5 1473.84,1224.4 1474.85,1227.19 1475.85,1229.89 1476.86,1232.49 1477.87,1234.99 1478.87,1237.39 1479.88,1239.7 1480.89,1241.91 1481.89,1244.04 1482.9,1246.07 1483.91,1248.02 1484.91,1249.88 1485.92,1251.65 1486.93,1253.35 1487.93,1254.96 1488.94,1256.49 1489.95,1257.95 1490.95,1259.33 1491.96,1260.63 1492.97,1261.87 1493.97,1263.04 1494.98,1264.14 1495.99,1265.17 1497,1266.14 1498,1267.04 1499.01,1267.89 1500.02,1268.67 1501.02,1269.4 1502.03,1270.08 1503.04,1270.69 1504.04,1271.26 1505.05,1271.77 1506.06,1272.24 1507.06,1272.65 1508.07,1273.02 1509.08,1273.34 1510.08,1273.62 1511.09,1273.86 1512.1,1274.05 1513.1,1274.2 1514.11,1274.32 1515.12,1274.39 1516.12,1274.43 1517.13,1274.43 1518.14,1274.4 1519.15,1274.33 1520.15,1274.23 1521.16,1274.1 1522.17,1273.94 1523.17,1273.76 1524.18,1273.54 1525.19,1273.3 1526.19,1273.03 1527.2,1272.74 1528.21,1272.42 1529.21,1272.08 1530.22,1271.72 1531.23,1271.34 1532.23,1270.94 1533.24,1270.52 1534.25,1270.09 1535.25,1269.64 1536.26,1269.17 1537.27,1268.69 1538.27,1268.2 1539.28,1267.7 1540.29,1267.18 1541.3,1266.66 1542.3,1266.13 1543.31,1265.59 1544.32,1265.04 1545.32,1264.49 1546.33,1263.93 1547.34,1263.37 1548.34,1262.81 1549.35,1262.24 1550.36,1261.68 1551.36,1261.12 1552.37,1260.55 1553.38,1259.99 1554.38,1259.44 1555.39,1258.89 1556.4,1258.34 1557.4,1257.8 1558.41,1257.27 1559.42,1256.75 1560.42,1256.23 1561.43,1255.72 1562.44,1255.23 1563.44,1254.74 1564.45,1254.27 1565.46,1253.81 1566.47,1253.36 1567.47,1252.93 1568.48,1252.51 1569.49,1252.11 1570.49,1251.72 1571.5,1251.35 1572.51,1250.99 1573.51,1250.65 1574.52,1250.33 1575.53,1250.02 1576.53,1249.74 1577.54,1249.47 1578.55,1249.22 1579.55,1248.99 1580.56,1248.77 1581.57,1248.58 1582.57,1248.4 1583.58,1248.25 1584.59,1248.11 1585.59,1247.99 1586.6,1247.89 1587.61,1247.81 1588.62,1247.74 1589.62,1247.7 1590.63,1247.67 1591.64,1247.66 1592.64,1247.67 1593.65,1247.7 1594.66,1247.74 1595.66,1247.8 1596.67,1247.87 1597.68,1247.96 1598.68,1248.07 1599.69,1248.19 1600.7,1248.33 1601.7,1248.48 1602.71,1248.65 1603.72,1248.82 1604.72,1249.01 1605.73,1249.22 1606.74,1249.43 1607.74,1249.65 1608.75,1249.89 1609.76,1250.13 1610.77,1250.39 1611.77,1250.65 1612.78,1250.92 1613.79,1251.2 1614.79,1251.49 1615.8,1251.78 1616.81,1252.08 1617.81,1252.39 1618.82,1252.69 1619.83,1253.01 1620.83,1253.32 1621.84,1253.64 1622.85,1253.97 1623.85,1254.29 1624.86,1254.62 1625.87,1254.94 1626.87,1255.27 1627.88,1255.6 1628.89,1255.93 1629.89,1256.26 1630.9,1256.58 1631.91,1256.9 1632.92,1257.23 1633.92,1257.54 1634.93,1257.86 1635.94,1258.17 1636.94,1258.48 1637.95,1258.78 1638.96,1259.08 1639.96,1259.38 1640.97,1259.67 1641.98,1259.95 1642.98,1260.23 1643.99,1260.5 1645,1260.77 1646,1261.03 1647.01,1261.28 1648.02,1261.53 1649.02,1261.76 1650.03,1261.99 1651.04,1262.22 1652.04,1262.43 1653.05,1262.64 1654.06,1262.84 1655.06,1263.03 1656.07,1263.22 1657.08,1263.39 1658.09,1263.56 1659.09,1263.72 1660.1,1263.87 1661.11,1264.01 1662.11,1264.14 1663.12,1264.26 1664.13,1264.38 1665.13,1264.49 1666.14,1264.58 1667.15,1264.67 1668.15,1264.75 1669.16,1264.82 1670.17,1264.89 1671.17,1264.94 1672.18,1264.99 1673.19,1265.03 1674.19,1265.06 1675.2,1265.08 1676.21,1265.1 1677.21,1265.1 1678.22,1265.1 1679.23,1265.1 1680.24,1265.08 1681.24,1265.06 1682.25,1265.03 1683.26,1264.99 1684.26,1264.95 1685.27,1264.9 1686.28,1264.84 1687.28,1264.78 1688.29,1264.71 1689.3,1264.64 1690.3,1264.56 1691.31,1264.48 1692.32,1264.39 1693.32,1264.3 1694.33,1264.2 1695.34,1264.1 1696.34,1264 1697.35,1263.89 1698.36,1263.78 1699.36,1263.66 1700.37,1263.55 1701.38,1263.43 1702.39,1263.31 1703.39,1263.18 1704.4,1263.06 1705.41,1262.94 1706.41,1262.81 1707.42,1262.68 1708.43,1262.56 1709.43,1262.43 1710.44,1262.3 1711.45,1262.18 1712.45,1262.06 1713.46,1261.93 1714.47,1261.81 1715.47,1261.69 1716.48,1261.58 1717.49,1261.46 1718.49,1261.35 1719.5,1261.25 1720.51,1261.14 1721.51,1261.04 1722.52,1260.95 1723.53,1260.86 1724.53,1260.77 1725.54,1260.69 1726.55,1260.61 1727.56,1260.54 1728.56,1260.48 1729.57,1260.42 1730.58,1260.37 1731.58,1260.32 1732.59,1260.29 1733.6,1260.25 1734.6,1260.23 1735.61,1260.21 1736.62,1260.2 1737.62,1260.2 1738.63,1260.21 1739.64,1260.22 1740.64,1260.24 1741.65,1260.28 1742.66,1260.32 1743.66,1260.36 1744.67,1260.42 1745.68,1260.49 1746.68,1260.56 1747.69,1260.64 1748.7,1260.74 1749.71,1260.84 1750.71,1260.95 1751.72,1261.07 1752.73,1261.2 1753.73,1261.33 1754.74,1261.48 1755.75,1261.63 1756.75,1261.8 1757.76,1261.97 1758.77,1262.15 1759.77,1262.34 1760.78,1262.54 1761.79,1262.75 1762.79,1262.96 1763.8,1263.19 1764.81,1263.42 1765.81,1263.66 1766.82,1263.91 1767.83,1264.16 1768.83,1264.42 1769.84,1264.69 1770.85,1264.97 1771.86,1265.25 1772.86,1265.54 1773.87,1265.83 1774.88,1266.13 1775.88,1266.44 1776.89,1266.75 1777.9,1267.07 1778.9,1267.39 1779.91,1267.71 1780.92,1268.04 1781.92,1268.38 1782.93,1268.72 1783.94,1269.06 1784.94,1269.4 1785.95,1269.75 1786.96,1270.1 1787.96,1270.45 1788.97,1270.8 1789.98,1271.15 1790.98,1271.51 1791.99,1271.86 1793,1272.22 1794.01,1272.58 1795.01,1272.93 1796.02,1273.29 1797.03,1273.64 1798.03,1274 1799.04,1274.35 1800.05,1274.7 1801.05,1275.05 1802.06,1275.39 1803.07,1275.74 1804.07,1276.08 1805.08,1276.41 1806.09,1276.74 1807.09,1277.07 1808.1,1277.4 1809.11,1277.72 1810.11,1278.03 1811.12,1278.34 1812.13,1278.64 1813.13,1278.94 1814.14,1279.23 1815.15,1279.52 1816.15,1279.8 1817.16,1280.07 1818.17,1280.33 1819.18,1280.59 1820.18,1280.84 1821.19,1281.08 1822.2,1281.31 1823.2,1281.54 1824.21,1281.76 1825.22,1281.96 1826.22,1282.16 1827.23,1282.35 1828.24,1282.53 1829.24,1282.7 1830.25,1282.86 1831.26,1283.01 1832.26,1283.15 1833.27,1283.28 1834.28,1283.4 1835.28,1283.5 1836.29,1283.6 1837.3,1283.69 1838.3,1283.76 1839.31,1283.82 1840.32,1283.87 1841.33,1283.91 1842.33,1283.94 1843.34,1283.95 1844.35,1283.95 1845.35,1283.94 1846.36,1283.92 1847.37,1283.89 1848.37,1283.84 1849.38,1283.78 1850.39,1283.7 1851.39,1283.61 1852.4,1283.51 1853.41,1283.4 1854.41,1283.27 1855.42,1283.13 1856.43,1282.98 1857.43,1282.81 1858.44,1282.63 1859.45,1282.43 1860.45,1282.22 1861.46,1282 1862.47,1281.76 1863.48,1281.51 1864.48,1281.25 1865.49,1280.97 1866.5,1280.68 1867.5,1280.37 1868.51,1280.05 1869.52,1279.71 1870.52,1279.36 1871.53,1279 1872.54,1278.62 1873.54,1278.23 1874.55,1277.83 1875.56,1277.41 1876.56,1276.98 1877.57,1276.53 1878.58,1276.07 1879.58,1275.6 1880.59,1275.12 1881.6,1274.62 1882.6,1274.1 1883.61,1273.58 1884.62,1273.04 1885.63,1272.49 1886.63,1271.93 1887.64,1271.35 1888.65,1270.77 1889.65,1270.17 1890.66,1269.56 1891.67,1268.94 1892.67,1268.31 1893.68,1267.67 1894.69,1267.01 1895.69,1266.35 1896.7,1265.68 1897.71,1265 1898.71,1264.31 1899.72,1263.61 1900.73,1262.91 1901.73,1262.2 1902.74,1261.48 1903.75,1260.75 1904.75,1260.02 1905.76,1259.29 1906.77,1258.55 1907.77,1257.8 1908.78,1257.05 1909.79,1256.3 1910.8,1255.55 1911.8,1254.8 1912.81,1254.05 1913.82,1253.29 1914.82,1252.54 1915.83,1251.79 1916.84,1251.04 1917.84,1250.3 1918.85,1249.56 1919.86,1248.83 1920.86,1248.1 1921.87,1247.38 1922.88,1246.67 1923.88,1245.96 1924.89,1245.27 1925.9,1244.59 1926.9,1243.92 1927.91,1243.27 1928.92,1242.63 1929.92,1242 1930.93,1241.4 1931.94,1240.8 1932.95,1240.23 1933.95,1239.68 1934.96,1239.15 1935.97,1238.64 1936.97,1238.16 1937.98,1237.7 1938.99,1237.27 1939.99,1236.86 1941,1236.48 1942.01,1236.13 1943.01,1235.81 1944.02,1235.52 1945.03,1235.26 1946.03,1235.04 1947.04,1234.85 1948.05,1234.7 1949.05,1234.58 1950.06,1234.51 1951.07,1234.47 1952.07,1234.46 1953.08,1234.5 1954.09,1234.58 1955.1,1234.7 1956.1,1234.87 1957.11,1235.08 1958.12,1235.33 1959.12,1235.62 1960.13,1235.96 1961.14,1236.35 1962.14,1236.78 1963.15,1237.25 1964.16,1237.78 1965.16,1238.34 1966.17,1238.96 1967.18,1239.62 1968.18,1240.33 1969.19,1241.09 1970.2,1241.89 1971.2,1242.74 1972.21,1243.63 1973.22,1244.57 1974.22,1245.55 1975.23,1246.58 1976.24,1247.66 1977.24,1248.77 1978.25,1249.93 1979.26,1251.13 1980.27,1252.38 1981.27,1253.66 1982.28,1254.98 1983.29,1256.34 1984.29,1257.74 1985.3,1259.17 1986.31,1260.64 1987.31,1262.14 1988.32,1263.67 1989.33,1265.24 1990.33,1266.83 1991.34,1268.45 1992.35,1270.1 1993.35,1271.77 1994.36,1273.47 1995.37,1275.18 1996.37,1276.92 1997.38,1278.67 1998.39,1280.45 1999.39,1282.23 2000.4,1284.03 2001.41,1285.85 2002.42,1287.67 2003.42,1289.5 2004.43,1291.33 2005.44,1293.18 2006.44,1295.02 2007.45,1296.87 2008.46,1298.71 2009.46,1300.56 2010.47,1302.4 2011.48,1304.24 2012.48,1306.07 2013.49,1307.89 2014.5,1309.71 2015.5,1311.51 2016.51,1313.3 2017.52,1315.08 2018.52,1316.84 2019.53,1318.59 2020.54,1320.33 2021.54,1322.04 2022.55,1323.73 2023.56,1325.41 2024.57,1327.06 2025.57,1328.7 2026.58,1330.31 2027.59,1331.89 2028.59,1333.45 2029.6,1334.99 2030.61,1336.5 2031.61,1337.99 2032.62,1339.45 2033.63,1340.88 2034.63,1342.29 2035.64,1343.67 2036.65,1345.02 2037.65,1346.34 2038.66,1347.63 2039.67,1348.9 2040.67,1350.14 2041.68,1351.34 2042.69,1352.52 2043.69,1353.67 2044.7,1354.8 2045.71,1355.89 2046.72,1356.96 2047.72,1357.99 2048.73,1359 2049.74,1359.99 2050.74,1360.94 2051.75,1361.87 2052.76,1362.77 2053.76,1363.65 2054.77,1364.49 2055.78,1365.32 2056.78,1366.11 2057.79,1366.89 2058.8,1367.64 2059.8,1368.36 2060.81,1369.06 2061.82,1369.74 2062.82,1370.4 2063.83,1371.03 2064.84,1371.64 2065.84,1372.23 2066.85,1372.8 2067.86,1373.36 2068.86,1373.89 2069.87,1374.4 2070.88,1374.89 2071.89,1375.37 2072.89,1375.83 2073.9,1376.27 2074.91,1376.69 2075.91,1377.1 2076.92,1377.49 2077.93,1377.87 2078.93,1378.23 2079.94,1378.58 2080.95,1378.92 2081.95,1379.24 2082.96,1379.55 2083.97,1379.85 2084.97,1380.13 2085.98,1380.41 2086.99,1380.67 2087.99,1380.92 2089,1381.16 2090.01,1381.4 2091.01,1381.62 2092.02,1381.83 2093.03,1382.03 2094.04,1382.23 2095.04,1382.42 2096.05,1382.6 2097.06,1382.77 2098.06,1382.93 2099.07,1383.09 2100.08,1383.24 2101.08,1383.38 2102.09,1383.52 2103.1,1383.65 2104.1,1383.78 2105.11,1383.9 2106.12,1384.01 2107.12,1384.12 2108.13,1384.23 2109.14,1384.33 2110.14,1384.42 2111.15,1384.52 2112.16,1384.6 2113.16,1384.69 2114.17,1384.77 2115.18,1384.84 2116.19,1384.92 2117.19,1384.99 2118.2,1385.05 2119.21,1385.12 2120.21,1385.18 2121.22,1385.23 2122.23,1385.29 2123.23,1385.34 2124.24,1385.39 2125.25,1385.44 2126.25,1385.49 2127.26,1385.53 2128.27,1385.57 2129.27,1385.61 2130.28,1385.65 2131.29,1385.69 2132.29,1385.72 2133.3,1385.75 2134.31,1385.79 2135.31,1385.82 2136.32,1385.84 2137.33,1385.87 2138.34,1385.9 2139.34,1385.92 2140.35,1385.95 2141.36,1385.97 2142.36,1385.99 2143.37,1386.01 2144.38,1386.03 2145.38,1386.05 2146.39,1386.07 2147.4,1386.08 2148.4,1386.1 2149.41,1386.12 2150.42,1386.13 2151.42,1386.14 2152.43,1386.16 2153.44,1386.17 2154.44,1386.18 2155.45,1386.19 2156.46,1386.2 2157.46,1386.22 2158.47,1386.22 2159.48,1386.23 2160.48,1386.24 2161.49,1386.25 2162.5,1386.26 2163.51,1386.27 2164.51,1386.27 2165.52,1386.28 2166.53,1386.29 2167.53,1386.29 2168.54,1386.3 2169.55,1386.31 2170.55,1386.31 2171.56,1386.32 2172.57,1386.32 2173.57,1386.33 2174.58,1386.33 2175.59,1386.33 2176.59,1386.34 2177.6,1386.34 2178.61,1386.34 2179.61,1386.35 2180.62,1386.35 2181.63,1386.35 2182.63,1386.36 2183.64,1386.36 2184.65,1386.36 2185.66,1386.36 2186.66,1386.37 2187.67,1386.37 2188.68,1386.37 2189.68,1386.37 2190.69,1386.37 2191.7,1386.38 2192.7,1386.38 2193.71,1386.38 2194.72,1386.38 2195.72,1386.38 2196.73,1386.38 2197.74,1386.38 2198.74,1386.38 2199.75,1386.38 2200.76,1386.39 2201.76,1386.39 2202.77,1386.39 2203.78,1386.39 2204.78,1386.39 2205.79,1386.39 2206.8,1386.39 2207.81,1386.39 2208.81,1386.39 2209.82,1386.39 2210.83,1386.39 2211.83,1386.39 2212.84,1386.39 2213.85,1386.39 2214.85,1386.39 2215.86,1386.39 2216.87,1386.39 2217.87,1386.39 2218.88,1386.39 2219.89,1386.39 2220.89,1386.39 2221.9,1386.39 2222.91,1386.39 2223.91,1386.39 2224.92,1386.39 2225.93,1386.39 2226.93,1386.39 2227.94,1386.39 2228.95,1386.39 2229.95,1386.4 2230.96,1386.4 2231.97,1386.4 2232.98,1386.4 2233.98,1386.4 2234.99,1386.4 2236,1386.4 2237,1386.4 2238.01,1386.4 2239.02,1386.4 2240.02,1386.4 2241.03,1386.4 2242.04,1386.4 2243.04,1386.4 2244.05,1386.4 2245.06,1386.4 2246.06,1386.4 2247.07,1386.4 2248.08,1386.4 2249.08,1386.4 2250.09,1386.4 2251.1,1386.4 2252.1,1386.4 2253.11,1386.4 2254.12,1386.4 2255.13,1386.4 2256.13,1386.4 2257.14,1386.4 2258.15,1386.4 2259.15,1386.4 2260.16,1386.4 2261.17,1386.4 2262.17,1386.4 2263.18,1386.4 2264.19,1386.4 2265.19,1386.4 2266.2,1386.4 2267.21,1386.4 2268.21,1386.4 2269.22,1386.4 2270.23,1386.4 2271.23,1386.4 2272.24,1386.4 2273.25,1386.4 2274.25,1386.4 2275.26,1386.4 2276.27,1386.4 2277.28,1386.4 2278.28,1386.4 2279.29,1386.4 2280.3,1386.4 2281.3,1386.4 2282.31,1386.4 2283.32,1386.4 2284.32,1386.4 2285.33,1386.4 2286.34,1386.4 2287.34,1386.4 2288.35,1386.4 2289.36,1386.4 2290.36,1386.4 2291.37,1386.4 2292.38,1386.4 "></polyline>
<path clip-path="url(#clip730)" d="M1773.79 322.316 L2281.64 322.316 L2281.64 166.796 L1773.79 166.796  Z" fill="#ffffff" fill-rule="evenodd" fill-opacity="1"></path>
<polyline clip-path="url(#clip730)" style="stroke:#000000; stroke-linecap:round; stroke-linejoin:round; stroke-width:4; stroke-opacity:1; fill:none" points="1773.79,322.316 2281.64,322.316 2281.64,166.796 1773.79,166.796 1773.79,322.316 "></polyline>
<polyline clip-path="url(#clip730)" style="stroke:#009af9; stroke-linecap:round; stroke-linejoin:round; stroke-width:4; stroke-opacity:1; fill:none" points="1797.5,218.636 1939.72,218.636 "></polyline>
<path clip-path="url(#clip730)" d="M1975.32 212.976 Q1971.9 212.976 1969.91 215.661 Q1967.92 218.323 1967.92 222.976 Q1967.92 227.629 1969.89 230.314 Q1971.88 232.976 1975.32 232.976 Q1978.73 232.976 1980.72 230.291 Q1982.71 227.606 1982.71 222.976 Q1982.71 218.37 1980.72 215.684 Q1978.73 212.976 1975.32 212.976 M1975.32 209.365 Q1980.88 209.365 1984.05 212.976 Q1987.22 216.587 1987.22 222.976 Q1987.22 229.342 1984.05 232.976 Q1980.88 236.587 1975.32 236.587 Q1969.75 236.587 1966.58 232.976 Q1963.43 229.342 1963.43 222.976 Q1963.43 216.587 1966.58 212.976 Q1969.75 209.365 1975.32 209.365 Z" fill="#000000" fill-rule="nonzero" fill-opacity="1"></path><path clip-path="url(#clip730)" d="M2009.31 213.971 Q2008.59 213.555 2007.73 213.37 Q2006.9 213.161 2005.88 213.161 Q2002.27 213.161 2000.32 215.522 Q1998.4 217.86 1998.4 222.258 L1998.4 235.916 L1994.12 235.916 L1994.12 209.99 L1998.4 209.99 L1998.4 214.018 Q1999.75 211.657 2001.9 210.522 Q2004.05 209.365 2007.13 209.365 Q2007.57 209.365 2008.1 209.434 Q2008.63 209.481 2009.28 209.596 L2009.31 213.971 Z" fill="#000000" fill-rule="nonzero" fill-opacity="1"></path><path clip-path="url(#clip730)" d="M2013.77 209.99 L2018.03 209.99 L2018.03 235.916 L2013.77 235.916 L2013.77 209.99 M2013.77 199.897 L2018.03 199.897 L2018.03 205.291 L2013.77 205.291 L2013.77 199.897 Z" fill="#000000" fill-rule="nonzero" fill-opacity="1"></path><path clip-path="url(#clip730)" d="M2044.01 222.652 Q2044.01 218.022 2042.08 215.476 Q2040.19 212.93 2036.74 212.93 Q2033.31 212.93 2031.39 215.476 Q2029.49 218.022 2029.49 222.652 Q2029.49 227.258 2031.39 229.805 Q2033.31 232.351 2036.74 232.351 Q2040.19 232.351 2042.08 229.805 Q2044.01 227.258 2044.01 222.652 M2048.26 232.698 Q2048.26 239.318 2045.32 242.536 Q2042.38 245.777 2036.32 245.777 Q2034.07 245.777 2032.08 245.43 Q2030.09 245.105 2028.22 244.411 L2028.22 240.268 Q2030.09 241.286 2031.92 241.772 Q2033.75 242.258 2035.65 242.258 Q2039.84 242.258 2041.92 240.059 Q2044.01 237.883 2044.01 233.462 L2044.01 231.356 Q2042.69 233.647 2040.63 234.781 Q2038.57 235.916 2035.7 235.916 Q2030.93 235.916 2028.01 232.281 Q2025.09 228.647 2025.09 222.652 Q2025.09 216.633 2028.01 212.999 Q2030.93 209.365 2035.7 209.365 Q2038.57 209.365 2040.63 210.499 Q2042.69 211.633 2044.01 213.925 L2044.01 209.99 L2048.26 209.99 L2048.26 232.698 Z" fill="#000000" fill-rule="nonzero" fill-opacity="1"></path><path clip-path="url(#clip730)" d="M2057.04 209.99 L2061.3 209.99 L2061.3 235.916 L2057.04 235.916 L2057.04 209.99 M2057.04 199.897 L2061.3 199.897 L2061.3 205.291 L2057.04 205.291 L2057.04 199.897 Z" fill="#000000" fill-rule="nonzero" fill-opacity="1"></path><path clip-path="url(#clip730)" d="M2091.76 220.268 L2091.76 235.916 L2087.5 235.916 L2087.5 220.407 Q2087.5 216.726 2086.07 214.897 Q2084.63 213.069 2081.76 213.069 Q2078.31 213.069 2076.32 215.268 Q2074.33 217.467 2074.33 221.263 L2074.33 235.916 L2070.05 235.916 L2070.05 209.99 L2074.33 209.99 L2074.33 214.018 Q2075.86 211.68 2077.92 210.522 Q2080 209.365 2082.71 209.365 Q2087.18 209.365 2089.47 212.143 Q2091.76 214.897 2091.76 220.268 Z" fill="#000000" fill-rule="nonzero" fill-opacity="1"></path><path clip-path="url(#clip730)" d="M2127.06 205.962 L2120.72 223.161 L2133.43 223.161 L2127.06 205.962 M2124.42 201.356 L2129.72 201.356 L2142.89 235.916 L2138.03 235.916 L2134.88 227.05 L2119.31 227.05 L2116.16 235.916 L2111.23 235.916 L2124.42 201.356 Z" fill="#000000" fill-rule="nonzero" fill-opacity="1"></path><path clip-path="url(#clip730)" d="M2157.99 199.944 Q2154.88 205.268 2153.38 210.476 Q2151.87 215.684 2151.87 221.032 Q2151.87 226.379 2153.38 231.633 Q2154.91 236.865 2157.99 242.166 L2154.28 242.166 Q2150.81 236.726 2149.07 231.471 Q2147.36 226.217 2147.36 221.032 Q2147.36 215.87 2149.07 210.638 Q2150.79 205.407 2154.28 199.944 L2157.99 199.944 Z" fill="#000000" fill-rule="nonzero" fill-opacity="1"></path><path clip-path="url(#clip730)" d="M2163.77 209.99 L2168.03 209.99 L2173.36 230.221 L2178.66 209.99 L2183.68 209.99 L2189 230.221 L2194.31 209.99 L2198.56 209.99 L2191.78 235.916 L2186.76 235.916 L2181.18 214.666 L2175.58 235.916 L2170.56 235.916 L2163.77 209.99 Z" fill="#000000" fill-rule="nonzero" fill-opacity="1"></path><path clip-path="url(#clip730)" d="M2204.35 199.944 L2208.06 199.944 Q2211.53 205.407 2213.24 210.638 Q2214.98 215.87 2214.98 221.032 Q2214.98 226.217 2213.24 231.471 Q2211.53 236.726 2208.06 242.166 L2204.35 242.166 Q2207.43 236.865 2208.93 231.633 Q2210.46 226.379 2210.46 221.032 Q2210.46 215.684 2208.93 210.476 Q2207.43 205.268 2204.35 199.944 Z" fill="#000000" fill-rule="nonzero" fill-opacity="1"></path><polyline clip-path="url(#clip730)" style="stroke:#e26f46; stroke-linecap:round; stroke-linejoin:round; stroke-width:4; stroke-opacity:1; fill:none" points="1797.5,270.476 1939.72,270.476 "></polyline>
<path clip-path="url(#clip730)" d="M1983.77 266.807 Q1985.37 263.936 1987.59 262.571 Q1989.82 261.205 1992.82 261.205 Q1996.88 261.205 1999.07 264.052 Q2001.27 266.876 2001.27 272.108 L2001.27 287.756 L1996.99 287.756 L1996.99 272.247 Q1996.99 268.52 1995.67 266.714 Q1994.35 264.909 1991.64 264.909 Q1988.33 264.909 1986.41 267.108 Q1984.49 269.307 1984.49 273.103 L1984.49 287.756 L1980.21 287.756 L1980.21 272.247 Q1980.21 268.497 1978.89 266.714 Q1977.57 264.909 1974.82 264.909 Q1971.55 264.909 1969.63 267.131 Q1967.71 269.33 1967.71 273.103 L1967.71 287.756 L1963.43 287.756 L1963.43 261.83 L1967.71 261.83 L1967.71 265.858 Q1969.17 263.473 1971.2 262.339 Q1973.24 261.205 1976.04 261.205 Q1978.87 261.205 1980.83 262.64 Q1982.82 264.075 1983.77 266.807 Z" fill="#000000" fill-rule="nonzero" fill-opacity="1"></path><path clip-path="url(#clip730)" d="M2021.55 274.723 Q2016.39 274.723 2014.4 275.904 Q2012.41 277.084 2012.41 279.932 Q2012.41 282.2 2013.89 283.543 Q2015.39 284.862 2017.96 284.862 Q2021.51 284.862 2023.63 282.362 Q2025.79 279.839 2025.79 275.672 L2025.79 274.723 L2021.55 274.723 M2030.05 272.964 L2030.05 287.756 L2025.79 287.756 L2025.79 283.821 Q2024.33 286.182 2022.15 287.316 Q2019.98 288.427 2016.83 288.427 Q2012.85 288.427 2010.49 286.205 Q2008.15 283.959 2008.15 280.209 Q2008.15 275.834 2011.07 273.612 Q2014.01 271.39 2019.82 271.39 L2025.79 271.39 L2025.79 270.973 Q2025.79 268.034 2023.84 266.436 Q2021.92 264.816 2018.43 264.816 Q2016.2 264.816 2014.1 265.348 Q2011.99 265.881 2010.05 266.946 L2010.05 263.01 Q2012.38 262.108 2014.58 261.668 Q2016.78 261.205 2018.87 261.205 Q2024.49 261.205 2027.27 264.122 Q2030.05 267.038 2030.05 272.964 Z" fill="#000000" fill-rule="nonzero" fill-opacity="1"></path><path clip-path="url(#clip730)" d="M2060.37 261.83 L2051 274.446 L2060.86 287.756 L2055.83 287.756 L2048.29 277.571 L2040.74 287.756 L2035.72 287.756 L2045.79 274.191 L2036.57 261.83 L2041.6 261.83 L2048.47 271.066 L2055.35 261.83 L2060.37 261.83 Z" fill="#000000" fill-rule="nonzero" fill-opacity="1"></path><path clip-path="url(#clip730)" d="M2087.59 273.728 L2087.59 275.811 L2068.01 275.811 Q2068.29 280.209 2070.65 282.524 Q2073.03 284.816 2077.27 284.816 Q2079.72 284.816 2082.01 284.214 Q2084.33 283.612 2086.6 282.409 L2086.6 286.436 Q2084.31 287.408 2081.9 287.918 Q2079.49 288.427 2077.01 288.427 Q2070.81 288.427 2067.18 284.816 Q2063.57 281.205 2063.57 275.047 Q2063.57 268.682 2066.99 264.955 Q2070.44 261.205 2076.27 261.205 Q2081.5 261.205 2084.54 264.585 Q2087.59 267.941 2087.59 273.728 M2083.33 272.478 Q2083.29 268.983 2081.37 266.899 Q2079.47 264.816 2076.32 264.816 Q2072.76 264.816 2070.6 266.83 Q2068.47 268.844 2068.15 272.501 L2083.33 272.478 Z" fill="#000000" fill-rule="nonzero" fill-opacity="1"></path><path clip-path="url(#clip730)" d="M2116.13 272.108 L2116.13 287.756 L2111.88 287.756 L2111.88 272.247 Q2111.88 268.566 2110.44 266.737 Q2109 264.909 2106.13 264.909 Q2102.69 264.909 2100.69 267.108 Q2098.7 269.307 2098.7 273.103 L2098.7 287.756 L2094.42 287.756 L2094.42 261.83 L2098.7 261.83 L2098.7 265.858 Q2100.23 263.52 2102.29 262.362 Q2104.38 261.205 2107.08 261.205 Q2111.55 261.205 2113.84 263.983 Q2116.13 266.737 2116.13 272.108 Z" fill="#000000" fill-rule="nonzero" fill-opacity="1"></path><path clip-path="url(#clip730)" d="M2128.84 254.469 L2128.84 261.83 L2137.62 261.83 L2137.62 265.14 L2128.84 265.14 L2128.84 279.214 Q2128.84 282.385 2129.7 283.288 Q2130.58 284.191 2133.24 284.191 L2137.62 284.191 L2137.62 287.756 L2133.24 287.756 Q2128.31 287.756 2126.44 285.927 Q2124.56 284.075 2124.56 279.214 L2124.56 265.14 L2121.44 265.14 L2121.44 261.83 L2124.56 261.83 L2124.56 254.469 L2128.84 254.469 Z" fill="#000000" fill-rule="nonzero" fill-opacity="1"></path><path clip-path="url(#clip730)" d="M2170.02 257.802 L2163.68 275.001 L2176.39 275.001 L2170.02 257.802 M2167.38 253.196 L2172.69 253.196 L2185.86 287.756 L2181 287.756 L2177.85 278.89 L2162.27 278.89 L2159.12 287.756 L2154.19 287.756 L2167.38 253.196 Z" fill="#000000" fill-rule="nonzero" fill-opacity="1"></path><path clip-path="url(#clip730)" d="M2200.95 251.784 Q2197.85 257.108 2196.34 262.316 Q2194.84 267.524 2194.84 272.872 Q2194.84 278.219 2196.34 283.473 Q2197.87 288.705 2200.95 294.006 L2197.25 294.006 Q2193.77 288.566 2192.04 283.311 Q2190.32 278.057 2190.32 272.872 Q2190.32 267.71 2192.04 262.478 Q2193.75 257.247 2197.25 251.784 L2200.95 251.784 Z" fill="#000000" fill-rule="nonzero" fill-opacity="1"></path><path clip-path="url(#clip730)" d="M2206.74 261.83 L2211 261.83 L2216.32 282.061 L2221.62 261.83 L2226.64 261.83 L2231.97 282.061 L2237.27 261.83 L2241.53 261.83 L2234.74 287.756 L2229.72 287.756 L2224.14 266.506 L2218.54 287.756 L2213.52 287.756 L2206.74 261.83 Z" fill="#000000" fill-rule="nonzero" fill-opacity="1"></path><path clip-path="url(#clip730)" d="M2247.31 251.784 L2251.02 251.784 Q2254.49 257.247 2256.2 262.478 Q2257.94 267.71 2257.94 272.872 Q2257.94 278.057 2256.2 283.311 Q2254.49 288.566 2251.02 294.006 L2247.31 294.006 Q2250.39 288.705 2251.9 283.473 Q2253.43 278.219 2253.43 272.872 Q2253.43 267.524 2251.9 262.316 Q2250.39 257.108 2247.31 251.784 Z" fill="#000000" fill-rule="nonzero" fill-opacity="1"></path></svg>